<?xml version="1.0" standalone="no"?>
<!DOCTYPE svg PUBLIC "-//W3C//DTD SVG 1.1//EN" "http://www.w3.org/Graphics/SVG/1.1/DTD/svg11.dtd" >
<svg>
<metadata>
Created by FontForge 20090914 at Sun Dec 10 16:24:54 2017
 By www-data
Copyright (c) 2014 by Fontfirma. All rights reserved.
</metadata>
<defs>
<font id="Nord-Light" horiz-adv-x="548" >
  <font-face 
    font-family="Nord"
    font-weight="300"
    font-stretch="normal"
    units-per-em="1000"
    panose-1="0 0 0 0 0 0 0 0 0 0"
    ascent="750"
    descent="-250"
    x-height="410.001"
    cap-height="721"
    bbox="49.3676 -375.322 936.503 1012.75"
    underline-thickness="50"
    underline-position="-50"
    unicode-range="U+0020-U+20AC"
  />
<missing-glyph horiz-adv-x="500" 
 />
    <glyph glyph-name=".notdef" horiz-adv-x="500" 
 />
    <glyph glyph-name="space" unicode=" " horiz-adv-x="500" 
 />
    <glyph glyph-name="exclam" unicode="!" horiz-adv-x="513" 
d="M252 18c4 0 7 -1.33301 9 -4s3 -5.5 3 -8.5s-1 -5.83301 -3 -8.5s-5 -4 -9 -4s-7 1.33301 -9 4s-3 5.5 -3 8.5s1 5.83301 3 8.5s5 4 9 4zM242 667c-0.666992 8.66699 -1 17.166 -1 25.499v24.5c0 4 2 6 6 6h10c2 0 3.33301 -0.333008 4 -1c1.33301 -1.33301 2 -3 2 -5
v-38c-0.666992 -19.333 -1 -38.833 -1 -58.5v-58.5c-0.666992 -26 -1 -52.167 -1 -78.5v-79.5c-0.666992 -26.667 -1 -53.334 -1 -80.001v-80c-0.666992 -21.333 -1 -42.333 -1 -63v-62c0 -8.66699 -0.166992 -17.167 -0.5 -25.5s-0.5 -16.5 -0.5 -24.5c0 -4 -2 -6 -6 -6
s-6 2 -6 6v38c-0.666992 19.333 -1 38.833 -1 58.5v58.5c-0.666992 26 -1 52.167 -1 78.5v79.5c-0.666992 26.667 -1 53.334 -1 80.001s-0.333008 53.334 -1 80.001v125z" />
    <glyph glyph-name="numbersign" unicode="#" horiz-adv-x="736" 
d="M591 416c4 0 5.99805 -2.1709 5.99805 -6.50391s-2 -6.5 -6 -6.5h-45h-63l-11.5 -33c-3.66699 -10.667 -7.16699 -21.667 -10.5 -33c-5.33301 -14.667 -10.166 -29.167 -14.499 -43.5s-9.16602 -28.833 -14.499 -43.5h46h72c4 0 6 -2.16699 6 -6.5s-2 -6.5 -6 -6.5h-44
h-78c-2.66699 -7.33301 -5.16699 -14.666 -7.5 -21.999s-4.83301 -14.666 -7.5 -21.999c-3.33301 -11.333 -6.83301 -22.333 -10.5 -33l-10.5 -32c-1.33301 -4 -4 -5.5 -8 -4.5s-5.33301 3.5 -4 7.5c3.33301 11.333 7 22.833 11 34.5l12 34.5c2 6.66699 4 13 6 19l6 18h-53
h-122c-2.66699 -7.33301 -5 -14.666 -7 -21.999s-4.33301 -14.666 -7 -21.999l-11.5 -33l-10.5 -32c-1.33301 -4 -4 -5.5 -8 -4.5s-5.33301 3.5 -4 7.5c4 11.333 7.83301 22.833 11.5 34.5s7.5 23.167 11.5 34.5c2 6.66699 4 13 6 19l6 18h-20h-73c-4 0 -6 2.16699 -6 6.5
s2 6.5 6 6.5h45h52l16 48l16 48c3.33301 9.33301 6.5 18.833 9.5 28.5s6.16699 19.167 9.5 28.5h-35h-73c-4 0 -6 2.16699 -6 6.5s2 6.5 6 6.5h45h67l12.5 36.5l12.5 36.5l21 66c1.33301 3.33301 4 4.5 8 3.5s5.33301 -3.5 4 -7.5c-3.33301 -11.333 -7 -22.833 -11 -34.5
l-12 -34.5c-3.33301 -11.333 -6.83301 -22.333 -10.5 -33l-11.5 -33h64h111l12 36.5l12 36.5c3.33301 11.333 7 22.333 11 33s7.66699 21.667 11 33c1.33301 3.33301 4 4.5 8 3.5s5.33301 -3.5 4 -7.5l-12 -34.5c-4 -11.667 -7.66699 -23.167 -11 -34.5s-7 -22.333 -11 -33
s-7.66699 -21.667 -11 -33h31h73zM450.998 345.996c3.33301 9.33301 6.5 18.833 9.5 28.5s6.16699 19.167 9.5 28.5h-68h-107c-3.33301 -11.333 -6.83301 -22.333 -10.5 -33l-11.5 -33l-14 -43.5c-4.66699 -14.333 -9.66699 -28.833 -15 -43.5h79h96l16 48z" />
    <glyph glyph-name="dollar" unicode="$" horiz-adv-x="589" 
d="M407 360c33.333 -26 54 -59 62 -99c8 -36 4.66699 -71.667 -10 -107c-14.667 -34.667 -36.667 -62.667 -66 -84c-29.333 -20.667 -61.333 -31.667 -96 -33v-76c0 -4 -2.16699 -6 -6.5 -6s-6.5 2 -6.5 6v76h-1c-8.66699 0 -17.167 0.5 -25.5 1.5s-16.5 3.16699 -24.5 6.5
c-9.33301 3.33301 -18.833 7.16602 -28.5 11.499s-18.167 10.166 -25.5 17.499l-12 10.5l-12 11.5c-3.33301 2.66699 -6.16602 5.33398 -8.49902 8.00098l-7.5 9c-7.33301 9.33301 -13.333 18.666 -18 27.999c-11.333 20.667 -18.333 42.667 -21 66c0 4 2 6 6 6
c3.33301 0 5.66602 -2 6.99902 -6c1.33301 -13.333 3.66602 -24.333 6.99902 -33c3.33301 -11.333 7.83301 -21.833 13.5 -31.5s12.167 -18.834 19.5 -27.501c4 -4.66699 8.33301 -9 13 -13s9.33398 -8.33301 14.001 -13c10.667 -9.33301 23 -17.666 37 -24.999
c20.667 -10 42.667 -15 66 -15c2 0 3 -0.333008 3 -1c0.666992 0.666992 2 1 4 1c18 0 35.667 3 53 9s33.333 14.667 48 26c14 10.667 26.167 23.5 36.5 38.5s18.333 30.833 24 47.5s8.66699 33.834 9 51.501s-2.16699 35.167 -7.5 52.5c-6 19.333 -15.5 36.5 -28.5 51.5
s-28.167 27.167 -45.5 36.5c-19.333 10.667 -40 17.5 -62 20.5s-43.667 7.16699 -65 12.5c-11.333 2.66699 -22.166 6 -32.499 10s-20.166 9.33301 -29.499 16c-17.333 12 -32.333 26 -45 42c-13.333 16.667 -23.5 34.667 -30.5 54s-10.167 39.666 -9.5 60.999
c1.33301 39.333 13 74.333 35 105c22.667 31.333 51.667 53 87 65c9.33301 3.33301 18.833 5.83301 28.5 7.5s19.167 2.83398 28.5 3.50098v77c0 4 2.16699 6 6.5 6s6.5 -2 6.5 -6v-77c12 0 25.333 -1.66699 40 -5c41.333 -11.333 74 -34.666 98 -69.999
c2 -3.33301 1.16699 -6 -2.5 -8s-6.5 -1.33301 -8.5 2c-10.667 15.333 -23.667 28.5 -39 39.5s-32 18.833 -50 23.5c-17.333 4.66699 -35.333 6.5 -54 5.5s-36.334 -4.83301 -53.001 -11.5c-34.667 -13.333 -62.334 -35.333 -83.001 -66
c-20.667 -33.333 -29.667 -69 -27 -107c1.33301 -20.667 6.5 -40.167 15.5 -58.5s20.833 -34.833 35.5 -49.5c16 -16 33.333 -28 52 -36c10.667 -4.66699 21.334 -8.16699 32.001 -10.5s21.667 -4.5 33 -6.5l33.5 -6c11 -2 21.833 -4.66699 32.5 -8
c19.333 -6 37.666 -15 54.999 -27z" />
    <glyph glyph-name="percent" unicode="%" horiz-adv-x="608" 
d="M516 678l-24.999 -43.5l-25 -43.5l-36 -60.5l-36 -61.5l-41.5 -70l-40.5 -70l-41.5 -70.5l-40.5 -70.5l-36 -60.5l-36 -61.5l-24.5 -43l-25.5 -43c-3.33301 -5.33301 -6.5 -10.833 -9.5 -16.5s-6.16699 -11.167 -9.5 -16.5c-2 -3.33301 -4.83301 -4 -8.5 -2
s-4.5 4.66699 -2.5 8l10 17.5l10 16.5l51 87l35 61.5l36 61.5l41.5 70l40.5 70l41.5 70l40.5 70l36 61.5l36 60.5l25 43.5l25 43.5c7.33301 11.333 13.666 22 18.999 32c2 3.33301 4.83301 4 8.5 2s4.5 -4.66699 2.5 -8l-10 -16.5zM188.001 439
c-10.667 -8 -22.8301 -13.3359 -36.4971 -16.0029s-26.834 -1.66699 -39.501 3c-18 5.33301 -32.833 15.5 -44.5 30.5s-17.5 32.167 -17.5 51.5v53v70c0 10.667 1.33301 20.334 4 29.001c5.33301 18.667 15.666 33.667 30.999 45c15.333 12 33 17.833 53 17.5
s37.667 -6.5 53 -18.5c7.33301 -6 13.5 -12.833 18.5 -20.5s8.5 -16.167 10.5 -25.5c1.33301 -4.66699 2.16602 -9.16699 2.49902 -13.5s0.5 -9.16602 0.5 -14.499v-122c0 -13.333 -3 -26.166 -9 -38.499s-14.667 -22.5 -26 -30.5zM65.0049 490.997
c4.66699 -18 14.667 -32.502 30 -43.502s32.333 -15.167 51 -12.5c18.667 2 34 10.167 46 24.5s18.333 30.5 19 48.5v47v73v11c0 4 -0.666992 7.66699 -2 11c-3.33301 18 -12.333 33 -27 45c-14.667 11.333 -31.5 16.333 -50.5 15s-35.167 -8.66602 -48.5 -21.999
c-6 -6.66699 -10.833 -14.167 -14.5 -22.5s-5.5 -17.166 -5.5 -26.499v-16v-76v-31v-13c0 -4 0.666992 -8 2 -12zM595.005 219.995c1.33301 -4.66699 2.16895 -9.16602 2.50195 -13.499s0.5 -8.83301 0.5 -13.5v-122c0 -13.333 -3 -26.166 -9 -38.499
s-14.667 -22.5 -26 -30.5c-10.667 -8 -22.834 -13.333 -36.501 -16s-26.834 -2 -39.501 2c-18 5.33301 -32.833 15.666 -44.5 30.999s-17.5 32.666 -17.5 51.999v53v70c0 9.33301 1 19 3 29c6 18.667 16.667 33.667 32 45c15.333 12 33 17.833 53 17.5
s37.667 -6.83301 53 -19.5c15.333 -12 25 -27.333 29 -46zM521.008 -3.00391c18.667 2.66699 34.001 10.999 46.001 24.999s18.333 30.333 19 49v46v73v11.5c0 3.66699 -0.666992 7.5 -2 11.5c-3.33301 17.333 -12.333 32.333 -27 45
c-14.667 11.333 -31.5 16.166 -50.5 14.499s-35.167 -9.16699 -48.5 -22.5c-6 -6.66699 -10.833 -14 -14.5 -22s-5.5 -16.667 -5.5 -26c-0.666992 -3.33301 -0.833984 -6.16602 -0.500977 -8.49902s0.5 -5.16602 0.5 -8.49902v-76v-30v-13c0 -4 0.666992 -8.33301 2 -13
c4.66699 -18 14.667 -32.333 30 -43s32.333 -15 51 -13z" />
    <glyph glyph-name="ampersand" unicode="&#x26;" horiz-adv-x="625" 
d="M609 418c4 0 5.99707 -2.00293 5.99707 -6.00293s-2 -6 -6 -6h-19h-118v-6v-144v-45c0 -34 -7.66699 -66.333 -23 -97c-17.333 -34 -42 -61.167 -74 -81.5s-67 -31.5 -105 -33.5c-38 -1.33301 -73.833 7 -107.5 25s-60.5 43 -80.5 75
c-20 32.667 -30.667 68.334 -32 107.001s7.66699 74.667 27 108c15.333 26.667 35.166 48.834 59.499 66.501s51.166 29.5 80.499 35.5c-20 6.66699 -38.167 16.667 -54.5 30s-29.166 29.333 -38.499 48c-8.66699 17.333 -14.167 35.666 -16.5 54.999
s-0.833008 38.333 4.5 57c10 36.667 31 66.334 63 89.001c32.667 22.667 69.334 31.334 110.001 26.001c43.333 -6 78.333 -26.667 105 -62c2 -2.66699 1.33301 -5.66699 -2 -9c-3.33301 -2 -6.33301 -1 -9 3c-15.333 20 -34.666 35.167 -57.999 45.5
s-47.666 13.833 -72.999 10.5c-18 -2 -35.167 -7.33301 -51.5 -16s-30.5 -20 -42.5 -34s-21 -29.833 -27 -47.5s-8.33301 -35.5 -7 -53.5c2 -38.667 17 -71 45 -97c13.333 -12.667 28.5 -22.5 45.5 -29.5s34.833 -10.5 53.5 -10.5c4 0 6 -2 6 -6s-2 -6 -6 -6h-2h-1h-10
c-3.33301 0 -6.66602 -0.333008 -9.99902 -1c-36 -3.33301 -69.167 -16.333 -99.5 -39s-52.166 -51 -65.499 -85c-13.333 -35.333 -16.666 -71.666 -9.99902 -108.999s22.667 -70 48 -98c24.667 -27.333 54.667 -46.333 90 -57c36 -11.333 73.333 -11.666 112 -0.999023
c35.333 10.667 65.666 29.667 90.999 57s41.666 59 48.999 95c1.33301 9.33301 2.33301 18.666 3 27.999s1 18.666 1 27.999v70v115c0 4 2 6 6 6h19h124v0z" />
    <glyph glyph-name="parenleft" unicode="(" horiz-adv-x="221" 
d="M87 204c12 -38 28.334 -73.668 49.001 -107.001s45 -64 73 -92c2.66699 -3.33301 2.5 -6.33301 -0.5 -9s-5.83301 -2.66699 -8.5 0c-24.667 24 -46.334 50.667 -65.001 80c-21.333 32 -38.833 66.333 -52.5 103s-22.834 74.334 -27.501 113.001c-10 76.667 -3 152 21 226
c12.667 38 29.5 73.833 50.5 107.5s45.5 64.5 73.5 92.5c2.66699 3.33301 5.5 3.5 8.5 0.5s3.16699 -6.16699 0.5 -9.5c-22 -22 -41 -44.333 -57 -67c-22 -32 -40.167 -66 -54.5 -102s-24.166 -73 -29.499 -111s-6.5 -76 -3.5 -114s10.5 -75 22.5 -111z" />
    <glyph glyph-name="parenright" unicode=")" horiz-adv-x="221" 
d="M126 639c43.333 -65.333 70.0029 -137.334 80.0029 -216.001c5.33301 -38 6.16602 -76.167 2.49902 -114.5s-11.834 -75.833 -24.501 -112.5c-12.667 -38 -29.334 -73.833 -50.001 -107.5s-45 -64.5 -73 -92.5c-3.33301 -2.66699 -6.5 -2.66699 -9.5 0
s-2.83301 5.66699 0.5 9c10.667 10.667 20.667 21.5 30 32.5s18 22.5 26 34.5c45.333 64.667 73.666 135.667 84.999 213c5.33301 38 6.33301 76 3 114s-10.666 75 -21.999 111c-12 38 -28.333 73.667 -49 107s-45 64 -73 92c-3.33301 3.33301 -3.5 6.5 -0.5 9.5
s6.16699 2.83301 9.5 -0.5c23.333 -23.333 45 -49.666 65 -78.999z" />
    <glyph glyph-name="plus" unicode="+" horiz-adv-x="409" 
d="M393 359c4 0 6 -2 6 -6s-2 -6 -6 -6h-92h-70v-77v-85c0 -4 -2.16699 -6 -6.5 -6s-6.5 2 -6.5 6v92v70h-77h-85c-4 0 -6 2 -6 6s2 6 6 6h92h70v78v85c0 4 2.16699 6 6.5 6s6.5 -2 6.5 -6v-93v-70h77h85v0z" />
    <glyph glyph-name="comma" unicode="," horiz-adv-x="114" 
d="M91 17c1.33301 3.33301 4 4.50098 8 3.50098s5.33301 -3.16699 4 -6.5c-7.33301 -17.333 -14.166 -34.833 -20.499 -52.5l-19.5 -52.5c-1.33301 -4 -4 -5.33301 -8 -4s-5.33301 3.66602 -4 6.99902l19.5 52.5c6.33301 17.667 13.166 35.167 20.499 52.5z" />
    <glyph glyph-name="hyphen" unicode="-" horiz-adv-x="409" 
d="M393 359c4 0 6 -2 6 -6s-2 -6 -6 -6h-92h-160h-85c-4 0 -6 2 -6 6s2 6 6 6h92h160h85v0z" />
    <glyph glyph-name="period" unicode="." horiz-adv-x="84" 
d="M62 23c4 0 7 -1.33301 9 -4s3 -5.5 3 -8.5s-1 -5.83301 -3 -8.5s-5 -4 -9 -4s-7 1.33301 -9 4s-3 5.5 -3 8.5s1 5.83301 3 8.5s5 4 9 4z" />
    <glyph glyph-name="slash" unicode="/" horiz-adv-x="347" 
d="M324 714c1.33301 4 4.00098 5.49805 8.00098 4.49805s5.33301 -3.5 4 -7.5c-2.66699 -5.33301 -5 -10.833 -7 -16.5l-6 -16.5l-19.5 -50.5l-18.5 -49.5l-27 -69.5l-27 -69.5l-29 -77.5l-30 -76.5c-9.33301 -23.333 -18.333 -47 -27 -71s-17.667 -47.667 -27 -71l-20 -52
l-20 -52l-7.5 -20.5l-7.5 -20.5c-1.33301 -3.33301 -4 -4.5 -8 -3.5s-5.33301 3.16699 -4 6.5l6 17.5l6 16.5l19.5 49.5l18.5 49.5l27 70l27 70l29 76.5l30 77.5l27 70.5l27 71.5l20 52l20 52c2.66699 6.66699 5.16699 13.334 7.5 20.001s5.16602 13.334 8.49902 20.001z
" />
    <glyph glyph-name="zero" unicode="0" horiz-adv-x="470" 
d="M243 0c-37.333 2 -71.8301 13.665 -103.497 34.998s-55.167 49.333 -70.5 84c-6.66699 13.333 -11.5 27.333 -14.5 42s-4.5 29.667 -4.5 45v36v151v123c0 22 2.33301 42.333 7 61c5.33301 18 12.666 34.833 21.999 50.5s20.666 30.167 33.999 43.5
c28 26 61 43.167 99 51.5s75 5.83301 111 -7.5c36 -12.667 66.167 -33.5 90.5 -62.5s39.166 -62.167 44.499 -99.5c1.33301 -7.33301 2 -14.666 2 -21.999v-22v-56v-159v-89c0 -38 -9.66699 -73.333 -29 -106c-19.333 -32 -46 -57.167 -80 -75.5s-70 -26.166 -108 -23.499z
M62.0029 210.998c0 -11.333 0.667969 -22.167 2.00098 -32.5s3.66602 -20.833 6.99902 -31.5c11.333 -35.333 31 -65 59 -89s61 -38.667 99 -44s74 0 108 16c33.333 16.667 60 40 80 70c20.667 32 31 67 31 105v7v121v152v37c0 14 -1.5 28 -4.5 42s-7.83301 27.333 -14.5 40
c-16 34 -39.833 61 -71.5 81s-66.167 30 -103.5 30c-37.333 -0.666992 -71.833 -11.167 -103.5 -31.5s-55.167 -47.5 -70.5 -81.5c-12 -25.333 -18 -52 -18 -80v-38v-152v-121z" />
    <glyph glyph-name="one" unicode="1" horiz-adv-x="301" 
d="M280 720c2 2 4.33301 2.5 7 1.5s4 -2.83301 4 -5.5v-10v-82v-139v-163v-156v-117v-46c0 -4 -2.16699 -6 -6.5 -6s-6.5 2 -6.5 6v10v82v138v163v157v117v31l-42 -42l-112 -112l-31.5 -31.5l-31.5 -30.5c-3.33301 -3.33301 -6.33301 -3.5 -9 -0.5s-2.66699 6.16699 0 9.5
l26.5 25.5l26.5 26.5l56 56l57 56c20 21.333 40.667 42 62 62z" />
    <glyph glyph-name="two" unicode="2" horiz-adv-x="416" 
d="M79 75c-4.66699 -19.333 -7.00391 -40.3369 -7.00391 -63.0039h81h160h86c4 0 6 -2.16699 6 -6.5s-2 -6.5 -6 -6.5h-87h-160h-85c-3.33301 0 -5.66602 2 -6.99902 6c-1.33301 21.333 0.5 42.333 5.5 63s11.5 41 19.5 61l10.5 24.5
c3.66699 8.33301 7.83398 16.5 12.501 24.5s9.5 15.833 14.5 23.5s10.5 15.167 16.5 22.5c12 14.667 25 28.334 39 41.001l42.5 37l43.5 36c14.667 12 28.667 24.667 42 38s25.666 27.333 36.999 42s21 30.667 29 48c7.33301 16.667 12.833 33.834 16.5 51.501
s4.83398 35.5 3.50098 53.5s-5.83301 35.167 -13.5 51.5s-18.167 30.5 -31.5 42.5c-15.333 13.333 -33.166 23.833 -53.499 31.5s-41.166 11.834 -62.499 12.501c-19.333 1.33301 -38.833 -0.5 -58.5 -5.5s-37.167 -14.167 -52.5 -27.5
c-16 -12.667 -29.333 -27.334 -40 -44.001c-4.66699 -7.33301 -8.83398 -15.166 -12.501 -23.499s-5.5 -17.166 -5.5 -26.499c0 -4 -2 -6 -6 -6s-6 2 -6 6c0 3.33301 0.166992 6.5 0.5 9.5s0.833008 6.16699 1.5 9.5c2.66699 9.33301 6.5 18.333 11.5 27
s10.5 16.667 16.5 24c12.667 16.667 26.667 30.334 42 41.001c16.667 12 35.334 20.167 56.001 24.5s41 5.5 61 3.5c21.333 -1.33301 42.166 -6 62.499 -14s38.5 -19 54.5 -33c14 -12.667 25 -27.167 33 -43.5s13 -33.833 15 -52.5c4 -38 -1.83301 -74.333 -17.5 -109
s-36.167 -65.334 -61.5 -92.001c-13.333 -14 -27.166 -27 -41.499 -39l-43.5 -36l-43.5 -37c-14.333 -12.667 -27.833 -26 -40.5 -40c-12 -14 -23 -29 -33 -45c-5.33301 -8 -9.83301 -16.167 -13.5 -24.5s-7.16699 -16.833 -10.5 -25.5
c-4 -9.33301 -7.66699 -18.5 -11 -27.5s-6.33301 -18.167 -9 -27.5z" />
    <glyph glyph-name="three" unicode="3" horiz-adv-x="485" 
d="M362 398c33.333 -18 60.001 -43.1699 80.001 -75.5029s30.667 -67.5 32 -105.5s-7 -73.833 -25 -107.5s-43.333 -60.5 -76 -80.5c-32.667 -19.333 -68.5 -29.5 -107.5 -30.5s-75.167 8.16699 -108.5 27.5c-32.667 19.333 -58.667 45.333 -78 78s-29 68 -29 106
c0 4 2.16699 6 6.5 6s6.5 -2 6.5 -6c0 -20.667 3 -41 9 -61c11.333 -35.333 31.166 -65.166 59.499 -89.499s60.5 -39.833 96.5 -46.5c37.333 -6 73.666 -2 108.999 12s64 36 86 66c22 30.667 34.667 64.834 38 102.501s-3.66699 73.5 -21 107.5
c-18 33.333 -42 59.666 -72 78.999c-16 9.33301 -32.833 16.666 -50.5 21.999s-36.167 8 -55.5 8h-3c-4 0 -6 2 -6 6s2 6 6 6c23.333 0 45.333 5.16699 66 15.5s37.667 24.833 51 43.5c23.333 31.333 32.333 66.333 27 105c-2 18 -7.5 35 -16.5 51s-20.5 30 -34.5 42
s-30 20.833 -48 26.5s-36.333 7.83398 -55 6.50098c-21.333 -1.33301 -41.166 -7 -59.499 -17s-33.833 -23.333 -46.5 -40c-2 -3.33301 -4.66699 -4.33301 -8 -3c-4 2.66699 -4.66699 5.66699 -2 9c20 27.333 46 46 78 56c30 10 61.333 10.333 94 1
c36.667 -11.333 65.667 -33 87 -65c10 -16 17.167 -33.333 21.5 -52s4.83301 -37.667 1.5 -57c-5.33301 -38 -22.666 -69.667 -51.999 -95c-8.66699 -7.33301 -17.667 -13.666 -27 -18.999s-19 -9.66602 -29 -12.999c19.333 -4 37.666 -10.333 54.999 -19z" />
    <glyph glyph-name="four" unicode="4" horiz-adv-x="542" 
d="M526 239c4 0 6 -1.99902 6 -5.99902s-2 -6 -6 -6h-5h-92h-38v-59v-118v-46c0 -4 -2 -6 -6 -6s-6 2 -6 6v10v82v131h-108h-148h-66c-2.66699 0 -4.66699 1 -6 3s-1.33301 4 0 6c0.666992 1.33301 1.66699 2.66602 3 3.99902l23.5 34.5l23.5 34.5l40.5 60l41.5 61l46 67.5
l46 67.5l36.5 54.5l37.5 55.5c5.33301 7.33301 10.5 14.833 15.5 22.5s10.167 15.167 15.5 22.5c1.33301 2.66699 3.5 3.66699 6.5 3s4.5 -2.66699 4.5 -6v-10v-82v-138v-163v-85h69h66zM311 239.001h68v158v157v117v26l-18.5 -28l-18.5 -28l-41.5 -60l-41.5 -61
l-45.5 -67.5l-45.5 -67.5l-37.5 -54.5l-37.5 -55.5l-24 -36h85h157z" />
    <glyph glyph-name="five" unicode="5" horiz-adv-x="466" 
d="M455 220c0 -6.66699 0.168945 -13.332 0.501953 -19.999s-0.166992 -13.334 -1.5 -20.001c-2 -17.333 -6.66699 -35.666 -14 -54.999c-14 -34 -36.333 -62.333 -67 -85c-30.667 -23.333 -65.334 -36.5 -104.001 -39.5s-75 4.16699 -109 21.5s-60.667 42.166 -80 74.499
s-29.333 67.5 -30 105.5c0 4 2.16699 6 6.5 6s6.5 -2 6.5 -6c0 -26 5 -50.333 15 -73c6.66699 -17.333 15.834 -33 27.501 -47s25 -26.167 40 -36.5s31.167 -18.333 48.5 -24s35 -8.83398 53 -9.50098c18.667 0 37 2.33301 55 7s35 12 51 22
c15.333 9.33301 29 20.666 41 33.999s22 28 30 44c4 8 7.33301 16.333 10 25s4.66699 17.667 6 27c1.33301 7.33301 2.16602 14.5 2.49902 21.5s0.5 14.167 0.5 21.5v20c0 6.66699 -0.666992 13.667 -2 21c-2 18.667 -7 36.334 -15 53.001
c-15.333 32.667 -38.333 59.334 -69 80.001c-32 20.667 -66.667 31 -104 31h-2h-20h-123c-4 0 -6 2.33301 -6 7v42v154v93c0 4 2 6 6 6h63h158h89c4 0 6 -2 6 -6s-2 -6 -6 -6h-63h-158h-83v-36v-154v-87h17h123c0.666992 0 1.33398 -0.333008 2.00098 -1
c19.333 0 38.166 -2.66699 56.499 -8s35.166 -13.333 50.499 -24c32 -20.667 56 -47.667 72 -81c8.66699 -18 14.334 -35.667 17.001 -53c1.33301 -7.33301 2.16602 -14.833 2.49902 -22.5s0.5 -15.167 0.5 -22.5z" />
    <glyph glyph-name="six" unicode="6" horiz-adv-x="455" 
d="M443 241c1.33301 -7.33301 1.83496 -15.0029 1.50195 -23.0029s-0.5 -15.667 -0.5 -23c0 -22 -3.5 -43.5 -10.5 -64.5s-17.167 -40.167 -30.5 -57.5s-29.5 -32.166 -48.5 -44.499s-39.5 -21.166 -61.5 -26.499c-22.667 -5.33301 -45.5 -6.66602 -68.5 -3.99902
s-44.833 9.33398 -65.5 20.001c-20 10 -37.833 23 -53.5 39s-28.167 34.333 -37.5 55c-9.33301 22 -15 44 -17 66c-0.666992 7.33301 -0.833984 14.166 -0.500977 20.499s0.5 13.166 0.5 20.499c0 36.667 9 70 27 100c0 0.666992 0.333008 1.33398 1 2.00098
c1.33301 2 2.33301 4.16699 3 6.5s1.66699 4.5 3 6.5l33.5 66l33.5 66l87 171l21.5 42l21.5 43c2 4 5.16699 4.83301 9.5 2.5s5.5 -5.83301 3.5 -10.5c-1.33301 -2 -2.5 -4.16699 -3.5 -6.5s-2.16699 -4.5 -3.5 -6.5l-33.5 -66l-33.5 -66l-43 -85.5l-43 -85.5l-7.5 -14.5
l-7.5 -14.5c21.333 18.667 46.333 32 75 40c46.667 12.667 91.667 9 135 -11c20 -9.33301 38.167 -22 54.5 -38s29.5 -33.667 39.5 -53c9.33301 -20 15.666 -42 18.999 -66zM425.002 153.997c2 9.33301 3.16699 18.335 3.5 27.002s0.5 17.667 0.5 27
s-0.166992 18.333 -0.5 27s-1.83301 17.667 -4.5 27c-5.33301 21.333 -14.166 41.166 -26.499 59.499s-27.166 33.5 -44.499 45.5c-18.667 13.333 -39 22.833 -61 28.5s-44.333 7.16699 -67 4.5c-21.333 -3.33301 -41.833 -10 -61.5 -20s-36.834 -23.333 -51.501 -40
c-15.333 -16.667 -26.833 -35.5 -34.5 -56.5s-11.5 -42.5 -11.5 -64.5v-34.5c0 -11.667 1.66699 -23.167 5 -34.5c7.33301 -30.667 21.666 -57.667 42.999 -81c15.333 -15.333 32.833 -28.166 52.5 -38.499s40.5 -16.5 62.5 -18.5c46.667 -4 89 7.66699 127 35
c17.333 13.333 32 29.166 44 47.499s20.333 38.166 25 59.499z" />
    <glyph glyph-name="seven" unicode="7" horiz-adv-x="490" 
d="M56 707c-4 0 -6 2.16797 -6 6.50098s2 6.5 6 6.5h48h145h153h72c2.66699 0 4.5 -1.16699 5.5 -3.5s0.833008 -4.5 -0.5 -6.5l-1 -2l-27 -54c-9.33301 -17.333 -18.333 -35 -27 -53l-27 -54l-35.5 -68l-34.5 -69l-37 -73l-37 -73l-33.5 -66l-33.5 -66l-48 -96
c-3.33301 -6 -6.5 -12 -9.5 -18s-6.16699 -12 -9.5 -18c-2 -4 -4.66699 -4.83301 -8 -2.5s-4.33301 5.16602 -3 8.49902l2 2l27 54c9.33301 17.333 18.333 35 27 53l27 54l70 137l36.5 73.5l36.5 72.5l33.5 66l33.5 66l24.5 48l24.5 48c2 4.66699 4.16699 9.16699 6.5 13.5
l7.5 13.5h-38h-145h-154h-71v0z" />
    <glyph glyph-name="eight" unicode="8" horiz-adv-x="465" 
d="M398 59c-26.667 -27.333 -58.6689 -45.668 -96.002 -55.001s-74.333 -8.33301 -111 3c-35.333 11.333 -65.5 31.333 -90.5 60s-40.5 61.334 -46.5 98.001c-7.33301 39.333 -3.33301 76.666 12 111.999c14.667 35.333 37 64 67 86c22.667 16.667 47.334 28 74.001 34
c-20.667 6.66699 -38.667 15.667 -54 27c-14.667 11.333 -27.167 24.833 -37.5 40.5s-17.833 32.5 -22.5 50.5c-4.66699 18.667 -6.16699 37.5 -4.5 56.5s6.83398 37.167 15.501 54.5c7.33301 16.667 17.5 31.667 30.5 45s27.833 24 44.5 32c35.333 17.333 72.333 22 111 14
c17.333 -4.66699 34 -11.834 50 -21.501s29.667 -21.5 41 -35.5c24.667 -30.667 37 -65.334 37 -104.001c0 -24 -5 -47.167 -15 -69.5s-24.333 -41.166 -43 -56.499c-17.333 -14.667 -37.666 -25.667 -60.999 -33c8 -2 15.833 -4.33301 23.5 -7s15.167 -6 22.5 -10
c34 -17.333 60.833 -42.166 80.5 -74.499s29.5 -67.5 29.5 -105.5c0 -26 -4.83301 -51.167 -14.5 -75.5s-23.834 -46.166 -42.501 -65.499zM106.998 510.998c10.667 -35.333 31.666 -63 62.999 -83c15.333 -10 32.166 -17.167 50.499 -21.5s36.5 -5.16602 54.5 -2.49902
c37.333 6 68.333 23.333 93 52c12 13.333 21.333 28.666 28 45.999s10 35.333 10 54c0 29.333 -8.33301 57 -25 83c-10 15.333 -22.167 28.333 -36.5 39s-30.166 18.667 -47.499 24s-35.5 7.33301 -54.5 6s-36.833 -6 -53.5 -14c-33.333 -15.333 -58.333 -40 -75 -74
c-7.33301 -17.333 -11.666 -35.333 -12.999 -54s0.666992 -37 6 -55zM125.997 58.998c28 -25.333 60.666 -40.832 97.999 -46.499s73 -0.833984 107 14.499c33.333 15.333 60.333 38.333 81 69c20.667 32 31 66.667 31 104c0 35.333 -9 67.666 -27 96.999
c-18 31.333 -43.667 55.333 -77 72c-34 17.333 -70 24 -108 20c-18 -2 -35.333 -6.66699 -52 -14s-32 -16.666 -46 -27.999s-26.167 -24.333 -36.5 -39s-18.166 -30.667 -23.499 -48c-12 -36.667 -13 -73.667 -3 -111c10 -36 28.667 -66 56 -90z" />
    <glyph glyph-name="nine" unicode="9" horiz-adv-x="452" 
d="M441 542c0.666992 -6.66699 1 -13.332 1 -19.999v-21c0 -34.667 -9.33301 -67.667 -28 -99v-2l-6 -12l-33 -65l-33 -65l-87 -171l-21.5 -42.5l-21.5 -42.5c-2 -4.66699 -5.16699 -5.66699 -9.5 -3s-5.5 6 -3.5 10l6 12l33 65.5l33 64.5l87 171l7.5 15.5l7.5 15.5
c-10 -9.33301 -21 -17.166 -33 -23.499s-24.667 -11.5 -38 -15.5c-22 -6.66699 -44.667 -9.33398 -68 -8.00098s-45.666 6.66602 -66.999 15.999c-20 9.33301 -38.333 21.666 -55 36.999s-30 33 -40 53c-10.667 20.667 -17.334 42.334 -20.001 65.001
c-1.33301 8 -2 16 -2 24v24c0 21.333 3.33301 42.333 10 63s16.667 39.667 30 57s29.333 32.333 48 45s39 21.667 61 27c22.667 5.33301 45.5 6.83301 68.5 4.5s45.167 -8.83301 66.5 -19.5c19.333 -10 36.833 -23 52.5 -39s28.167 -34 37.5 -54
c9.33301 -22 15 -44.333 17 -67zM381 381.002c14.667 16.667 25.9941 35.332 33.9941 55.999s12 42 12 64c0 11.333 -0.166992 22.5 -0.5 33.5s-1.83301 21.833 -4.5 32.5c-7.33301 30.667 -20.666 57.334 -39.999 80.001c-15.333 16 -32.666 29.167 -51.999 39.5
s-40 16.833 -62 19.5c-46.667 5.33301 -89 -5.33398 -127 -32.001c-17.333 -12.667 -32.166 -28 -44.499 -46s-21.166 -37.667 -26.499 -59c-2 -9.33301 -3.33301 -18.333 -4 -27s-1 -17.667 -1 -27s0.333008 -18.333 1 -27s2 -17.667 4 -27
c5.33301 -21.333 14 -41.166 26 -59.499s26.667 -33.833 44 -46.5c18.667 -13.333 38.834 -22.833 60.501 -28.5s43.834 -7.16699 66.501 -4.5c44.667 5.33301 82.667 25 114 59z" />
    <glyph glyph-name="colon" unicode=":" horiz-adv-x="84" 
d="M62 461c4 0 7 -1.33301 9 -4s3 -5.5 3 -8.5s-1 -5.66699 -3 -8s-5 -3.5 -9 -3.5s-7 1.16699 -9 3.5s-3 5 -3 8s1 5.83301 3 8.5s5 4 9 4zM62 66c4 0 7 -1.33301 9 -4s3 -5.5 3 -8.5s-1 -5.83301 -3 -8.5s-5 -4 -9 -4s-7 1.33301 -9 4s-3 5.5 -3 8.5s1 5.83301 3 8.5
s5 4 9 4z" />
    <glyph glyph-name="semicolon" unicode=";" horiz-adv-x="126" 
d="M104 461c4 0 7 -1.33301 9 -4s3 -5.5 3 -8.5s-1 -5.66699 -3 -8s-5 -3.5 -9 -3.5s-7 1.16699 -9 3.5s-3 5 -3 8s1 5.83301 3 8.5s5 4 9 4zM91 131c1.33301 3.33301 4 4.5 8 3.5s5.33301 -3.5 4 -7.5l-20 -52.5l-20 -52.5c-1.33301 -3.33301 -4 -4.5 -8 -3.5
s-5.33301 3.5 -4 7.5l20 52.5z" />
    <glyph glyph-name="less" unicode="&#x3c;" horiz-adv-x="316" 
d="M256 506l-62 -47.999l-62 -48l-33 -25l-33 -25l39 -30l63 -48l62 -48l36 -27.5l36 -27.5c3.33301 -2 4.33301 -4.66699 3 -8c-2.66699 -4 -5.66699 -5 -9 -3l-23 18l-23 18l-62 47l-63 48l-36 28l-36 28c-4.66699 3.33301 -4.66699 6.66602 0 9.99902l23 18l23 17
l62.5 48l62.5 48l36 28l36 28c3.33301 2 6.33301 1 9 -3c1.33301 -3.33301 0.333008 -6 -3 -8l-22.5 -18c-7.66699 -6 -15.5 -11.667 -23.5 -17z" />
    <glyph glyph-name="equal" unicode="=" horiz-adv-x="410" 
d="M394 452c4 0 6 -2 6 -6s-2 -6 -6 -6h-1h-92h-160h-85c-4 0 -6 2 -6 6s2 6 6 6h1h92h160h85zM394 270c4 0 6 -2.16699 6 -6.5s-2 -6.5 -6 -6.5h-1h-92h-160h-85c-4 0 -6 2.16699 -6 6.5s2 6.5 6 6.5h1h92h160h85z" />
    <glyph glyph-name="greater" unicode="&#x3e;" horiz-adv-x="316" 
d="M100 506c-8 5.33301 -15.833 10.999 -23.5 16.999l-22.5 18c-3.33301 2 -4.33301 4.66699 -3 8c2.66699 4 5.66699 5 9 3l36 -28l36 -28l62.5 -48l62.5 -48l23 -17l23 -18c4.66699 -3.33301 4.66699 -6.66602 0 -9.99902l-36 -28l-36 -28l-63 -48l-62 -47l-23 -18
l-23 -18c-3.33301 -2 -6.33301 -1 -9 3c-1.33301 3.33301 -0.333008 6 3 8l36 27.5l36 27.5l62 48l63 48l39 30l-33 25l-33 25l-62 48z" />
    <glyph glyph-name="question" unicode="?" horiz-adv-x="402" 
d="M168 19c4 0 7.16699 -1.33301 9.5 -4s3.5 -5.5 3.5 -8.5s-1.16699 -5.83301 -3.5 -8.5s-5.5 -4 -9.5 -4s-7 1.33301 -9 4s-3 5.5 -3 8.5s1 5.83301 3 8.5s5 4 9 4zM287 711c18.667 -7.33301 35.9951 -17.001 51.9951 -29.001s28.333 -27.333 37 -46
c8 -16.667 12.833 -34.167 14.5 -52.5s0.833984 -36.166 -2.49902 -53.499c-3.33301 -20 -9.33301 -39 -18 -57s-18.667 -35.333 -30 -52l-18 -25.5c-6 -8.33301 -12.667 -16.166 -20 -23.499c-5.33301 -6 -11 -11.833 -17 -17.5l-18 -17.5
c-13.333 -12.667 -26 -25.5 -38 -38.5s-23 -27.167 -33 -42.5l-9 -15c0 -0.666992 -0.166992 -1 -0.5 -1s-0.5 -0.333008 -0.5 -1v-1c0 -0.666992 -0.333008 -1 -1 -1c-0.666992 -2.66699 -1.16699 -5.33398 -1.5 -8.00098s-0.833008 -5.33398 -1.5 -8.00098
c-1.33301 -7.33301 -2.33301 -15 -3 -23l-2 -24c-1.33301 -17.333 -2.33301 -34.833 -3 -52.5s-1 -35.167 -1 -52.5c0 -4 -2 -6 -6 -6s-6 2 -6 6c0 22.667 0.333008 45.167 1 67.5s2.33398 44.833 5.00098 67.5l2 18.5c0.666992 6.33301 2.33398 12.5 5.00098 18.5
c1.33301 4 3 7.66699 5 11s4.33301 6.66602 7 9.99902c2.66699 4.66699 5.5 9.16699 8.5 13.5s6.16699 8.5 9.5 12.5c10.667 13.333 22 26 34 38l36 35c29.333 29.333 54.333 61.666 75 96.999c9.33301 15.333 16.5 31.833 21.5 49.5s7.83301 35.834 8.5 54.501
c0.666992 17.333 -1.66602 34.5 -6.99902 51.5s-14 32.167 -26 45.5c-14 15.333 -30.833 27.333 -50.5 36s-39.834 14 -60.501 16c-19.333 2 -39.166 1 -59.499 -3s-38.5 -12.333 -54.5 -25c-15.333 -12.667 -28.666 -27 -39.999 -43
c-4.66699 -7.33301 -8.83398 -15.166 -12.501 -23.499s-5.5 -17.166 -5.5 -26.499c0 -4 -2.16699 -6 -6.5 -6s-6.5 2 -6.5 6c0.666992 15.333 4.83398 29.5 12.501 42.5s16.167 24.833 25.5 35.5c10 10.667 21 20.667 33 30c12 8 25 14 39 18c20.667 6.66699 42 9.5 64 8.5
s43 -5.5 63 -13.5z" />
    <glyph glyph-name="at" unicode="@" horiz-adv-x="848" 
d="M737 618c25.333 -28 46.002 -58.6631 62.002 -91.9961s27 -68.333 33 -105c3.33301 -19.333 5.16602 -39 5.49902 -59s-0.166992 -39.667 -1.5 -59c-1.33301 -20 -4.83301 -40 -10.5 -60s-15.167 -37.667 -28.5 -53c-12 -14.667 -26.667 -25.834 -44 -33.501
s-35.666 -10.5 -54.999 -8.5c-18.667 1.33301 -35.834 7 -51.501 17s-28.167 23.667 -37.5 41c-9.33301 15.333 -15.166 31.833 -17.499 49.5s-3.83301 35.167 -4.5 52.5c-8 -36 -26.667 -66 -56 -90c-30.667 -24 -65.334 -36.667 -104.001 -38
c-19.333 0 -38 3.16699 -56 9.5s-34.333 15.5 -49 27.5c-30 24 -49.667 54.333 -59 91c-4.66699 19.333 -5.83398 38.5 -3.50098 57.5s7.5 37.167 15.5 54.5c16.667 34.667 42.334 60.334 77.001 77.001c17.333 8.66699 35.5 14 54.5 16s37.833 1 56.5 -3
c18 -4.66699 35 -11.834 51 -21.501s29.667 -21.834 41 -36.501c16 -20 27 -42.667 33 -68c0 20 0.166992 40 0.5 60s0.166016 40.333 -0.500977 61c0 4 2 6 6 6s6 -2 6 -6c0.666992 -48 0.666992 -95.333 0 -142c0 -12 -0.166992 -24 -0.5 -36s-0.166016 -24 0.500977 -36
c1.33301 -24.667 5.66602 -47 12.999 -67c7.33301 -17.333 18.333 -31.833 33 -43.5s31.334 -18.5 50.001 -20.5s36.334 0.666992 53.001 8s30.667 18.666 42 33.999c12.667 16 21.167 34 25.5 54s7.16602 39.667 8.49902 59c0.666992 19.333 0.666992 38.666 0 57.999
s-3 38.666 -7 57.999c-3.33301 18 -8.16602 35.667 -14.499 53s-13.833 34.333 -22.5 51c-17.333 32 -38.666 61 -63.999 87s-54 47.667 -86 65c-32.667 18.667 -67.334 32.167 -104.001 40.5s-74 10.833 -112 7.5c-36.667 -2.66699 -72.334 -10.667 -107.001 -24
s-66.667 -31.333 -96 -54c-28.667 -22 -53.834 -47.667 -75.501 -77s-38.5 -61 -50.5 -95c-13.333 -36 -20.833 -73 -22.5 -111s2.16602 -75.333 11.499 -112c9.33301 -36 23.166 -69.667 41.499 -101s40.833 -59.333 67.5 -84
c55.333 -51.333 119.666 -83.666 192.999 -96.999c44.667 -8 89.334 -8 134.001 0s86.667 23.333 126 46c3.33301 2 6 1.33301 8 -2s1.33301 -6.33301 -2 -9c-31.333 -18 -64.333 -31.5 -99 -40.5s-70 -13.167 -106 -12.5c-38 0.666992 -74.833 6.5 -110.5 17.5
s-69.167 26.833 -100.5 47.5c-62 42 -109 96.667 -141 164c-15.333 35.333 -25.666 71.833 -30.999 109.5s-5.33301 75.5 0 113.5c11.333 75.333 42 141.666 92 198.999c24 28 51.333 52 82 72s63.667 35.333 99 46c36.667 11.333 74.334 17.333 113.001 18
s76.334 -4.66602 113.001 -15.999c35.333 -10 68.666 -24.667 99.999 -44s59 -43 83 -71zM542.002 246.004c25.333 29.333 38 63.0029 38 101.003c0 31.333 -9 60.666 -27 87.999c-22 30 -50.667 50.333 -86 61c-18 5.33301 -36.5 7.16602 -55.5 5.49902
s-36.833 -6.83398 -53.5 -15.501c-34 -16.667 -58.667 -42 -74 -76c-7.33301 -17.333 -11.5 -35.5 -12.5 -54.5s1.16699 -37.167 6.5 -54.5c11.333 -36.667 33 -64.667 65 -84c32.667 -20.667 68 -28 106 -22c18 2.66699 35 8.5 51 17.5s30 20.167 42 33.5z" />
    <glyph glyph-name="A" unicode="A" horiz-adv-x="515" 
d="M144 260c-4 -14 -8.16699 -27.833 -12.5 -41.5l-12.5 -40.5l-19.5 -63c-6.33301 -20.667 -13.166 -41.667 -20.499 -63c-2.66699 -8 -5.16699 -16.167 -7.5 -24.5s-4.83301 -16.5 -7.5 -24.5c-1.33301 -4.66699 -4.16602 -6.33398 -8.49902 -5.00098s-5.83301 4 -4.5 8v2
l21 66l42 135c9.33301 28 18.166 56 26.499 84s17.166 56 26.499 84l51 165l19.5 63l19.5 62l8 25.5l8 24.5c1.33301 3.33301 3.5 5 6.5 5s5.16699 -1.66699 6.5 -5v-1l10 -33l10 -33l42 -135l25.5 -84c8.33301 -28 17.166 -56 26.499 -84l24.5 -82.5l25.5 -82.5l39 -126
l7.5 -25l7.5 -25c1.33301 -4 -0.166992 -6.66699 -4.5 -8s-7.16602 0.333984 -8.49902 5.00098v1l-10 33l-10 33l-42 135l-8 27.5c-2.66699 9 -5.66699 18.167 -9 27.5h-8h-152h-108zM170 343c-3.33301 -12 -6.83301 -23.834 -10.5 -35.501s-7.5 -23.167 -11.5 -34.5h5h153
h102l-15.5 50l-15.5 50l-24.5 82.5l-25.5 82.5l-39 126c-1.33301 4.66699 -2.83301 9.33398 -4.5 14.001s-3.16699 9.66699 -4.5 15c-2.66699 -8 -5.16699 -16 -7.5 -24l-6.5 -23l-21.5 -67.5l-21.5 -67.5l-26 -84z" />
    <glyph glyph-name="B" unicode="B" horiz-adv-x="418" 
d="M56 3c-4 0 -6.00195 2 -6.00195 6v8v79v136v162v155v116v46c0 4 2.33301 6 7 6h62h77c8.66699 0 17.167 0.166992 25.5 0.5s16.5 -0.166992 24.5 -1.5c37.333 -4 70.666 -18.667 99.999 -44c28 -24.667 46.667 -55.334 56 -92.001
c4.66699 -18.667 6.33398 -37.667 5.00098 -57s-5.66602 -37.666 -12.999 -54.999c-13.333 -34 -35.666 -61.667 -66.999 -83c-16 -11.333 -34.333 -19.666 -55 -24.999c32.667 -8.66699 61 -25.334 85 -50.001s39.333 -54 46 -88c8 -38.667 4.33301 -75.667 -11 -111
c-15.333 -34 -39 -61 -71 -81c-29.333 -18 -61.333 -27 -96 -27h-48h-121zM390.998 220c-8.66699 36.667 -26.332 67.001 -52.999 91.001c-28 24.667 -60.667 38.667 -98 42c-8 0.666992 -16.167 1 -24.5 1h-24.5h-122h-3h-3v-28v-155v-116v-40h26h134
c14.667 0 29 1.66699 43 5s27.667 8.66602 41 15.999c32 17.333 56 42.666 72 75.999c7.33301 16.667 12.166 34.334 14.499 53.001s1.5 37 -2.5 55zM63 705.001l0.000976562 -2.00195v-79v-137v-121h41h122c18 0 35.667 2.83301 53 8.5s33 13.834 47 24.501
s26.333 23.334 37 38.001s18.667 30.667 24 48c11.333 36.667 10.333 73 -3 109c-6 17.333 -14.5 33 -25.5 47s-23.833 25.667 -38.5 35c-28.667 19.333 -60.334 29 -95.001 29h-48h-114z" />
    <glyph glyph-name="C" unicode="C" horiz-adv-x="422" 
d="M51 381l-0.00292969 132.007c0 5.33301 -0.166992 10.166 -0.5 14.499s-0.166016 9.16602 0.500977 14.499c2 37.333 15 71.666 39 102.999c12 14.667 25.833 27.167 41.5 37.5s32.5 18 50.5 23s36.333 7.33301 55 7s37 -3.83301 55 -10.5
c17.333 -6 33.333 -14.5 48 -25.5s27.334 -24.167 38.001 -39.5c22.667 -30.667 34 -65.334 34 -104.001c0 -4 -2 -6 -6 -6s-6 2 -6 6v8c0 2.66699 -0.333008 5.33398 -1 8.00098c-2 18 -6.83301 35.333 -14.5 52s-17.5 31.5 -29.5 44.5s-25.833 24 -41.5 33
s-32.5 15.167 -50.5 18.5c-38.667 7.33301 -74.667 2.33301 -108 -15s-58 -42.333 -74 -75c-12 -24 -18 -49.333 -18 -76v-36v-146v-140v-28c0 -16 2.16699 -31.833 6.5 -47.5s11.166 -30.167 20.499 -43.5c20 -31.333 47 -53.333 81 -66
c17.333 -7.33301 35.333 -11.333 54 -12s37 1.66602 55 6.99902c17.333 5.33301 33.333 13.166 48 23.499s27.334 22.5 38.001 36.5c22.667 30.667 34 64.667 34 102c0 4 2 6 6 6s6 -2 6 -6c0 -11.333 -1 -22.833 -3 -34.5s-5.33301 -22.834 -10 -33.501
c-14 -34.667 -36.667 -62.334 -68 -83.001c-32 -21.333 -67.333 -31.333 -106 -30c-19.333 1.33301 -37.666 5 -54.999 11s-33.333 14.667 -48 26c-29.333 22.667 -50.333 52 -63 88c-5.33301 17.333 -8 34.833 -8 52.5v52.5v151z" />
    <glyph glyph-name="D" unicode="D" horiz-adv-x="385" 
d="M50 384v154.999v117v46c0 4 2 6 6 6h20h77c8.66699 0 17.167 0.166992 25.5 0.5s16.5 0.166016 24.5 -0.500977c19.333 -1.33301 37.666 -5.16602 54.999 -11.499s33.333 -15.5 48 -27.5c29.333 -22 49.666 -51.333 60.999 -88c5.33301 -18 8 -36 8 -54v-25v-137v-116
v-53v-26c-2 -38 -15 -72 -39 -102c-11.333 -14 -24.666 -26.167 -39.999 -36.5s-31.666 -18.166 -48.999 -23.499c-18 -5.33301 -35.667 -8 -53 -8h-15h-123c-4 0 -6 2 -6 6v7v75v134v162zM62 695.999l0.000976562 -75.9971v-134v-161v-156v-117v-40h37h76
c10.667 0 21.167 0.166992 31.5 0.5s20.833 2.16602 31.5 5.49902c36.667 10.667 66 30 88 58c11.333 14 20.166 29.667 26.499 47s9.83301 35 10.5 53v80v109v77v85c0 37.333 -10.667 70.666 -32 99.999c-22 29.333 -50.333 49.666 -85 60.999c-18 5.33301 -35.333 8 -52 8
h-15h-117z" />
    <glyph glyph-name="E" unicode="E" horiz-adv-x="383" 
d="M56 0c-2.66699 0 -4.5 1.16699 -5.5 3.5s-0.833008 4.5 0.5 6.5c-0.666992 0.666992 -1 1.66699 -1 3v4v72v132v161v156v117v47c0 4 2 6 6 6h89h115h107c4 0 6 -2 6 -6s-2 -6 -6 -6h-101h-97h-107v-70v-132v-127h83h115h107c4 0 6 -2.16699 6 -6.5s-2 -6.5 -6 -6.5h-50
c-16.667 0 -33.667 0.333008 -51 1h-97h-107v-22v-156v-117v-47c10 -0.666992 20 -1 30 -1h30h157h88c4 0 6 -2 6 -6s-2 -6 -6 -6h-66h-157h-88v0z" />
    <glyph glyph-name="F" unicode="F" horiz-adv-x="352" 
d="M62 6c0 -4 -2 -6 -6 -6s-6 2 -6 6v7v76v135v161v155v117v46c0 4 2 6 6 6h49h132h99c4 0 6 -2 6 -6s-2 -6 -6 -6h-63h-99h-112v-1v-76v-135v-88h26h150h95c4 0 6 -2 6 -6s-2 -6 -6 -6h-31h-150h-90v-61v-155v-117v-46v0z" />
    <glyph glyph-name="G" unicode="G" horiz-adv-x="422" 
d="M255 1c-18.667 -2 -37.167 -1.32715 -55.5 2.00586s-35.5 9.16602 -51.5 17.499s-30.667 19 -44 32s-24.333 27.833 -33 44.5c-14 26.667 -21 55 -21 85v33v143v143v31c0 31.333 7.66699 60.666 23 87.999c9.33301 15.333 20.666 29.5 33.999 42.5s28 23.5 44 31.5
c17.333 8.66699 35.666 14.167 54.999 16.5s38.666 1.83301 57.999 -1.5c40.667 -7.33301 74.334 -26 101.001 -56c15.333 -16.667 26.833 -35.334 34.5 -56.001s11.834 -42 12.501 -64c0 -4 -2 -6 -6 -6s-6 2 -6 6c-0.666992 10 -1.83398 20.167 -3.50098 30.5
s-4.5 20.166 -8.5 29.499c-7.33301 18 -17.333 34.333 -30 49s-27.667 26.667 -45 36c-16.667 9.33301 -34.667 15.666 -54 18.999s-38.666 3.33301 -57.999 0c-36 -6 -67 -23 -93 -51c-26 -27.333 -40.667 -59.333 -44 -96c-1.33301 -5.33301 -1.83301 -11 -1.5 -17
s0.5 -11.667 0.5 -17v-54v-157v-116c0 -9.33301 0.333008 -18.666 1 -27.999s2.33398 -18.666 5.00098 -27.999c5.33301 -17.333 13 -33.333 23 -48s22 -27.334 36 -38.001c15.333 -11.333 31.5 -20 48.5 -26s34.833 -9 53.5 -9c38 0 72 11.333 102 34
c29.333 21.333 49.333 49.666 60 84.999c5.33301 17.333 8 34 8 50v16v117h-110c-4 0 -6 2 -6 6s2 6 6 6h1h115c4 0 6 -2 6 -6v-40v-77c0 -10.667 -0.166992 -21 -0.5 -31s-1.5 -20.333 -3.5 -31c-8.66699 -36.667 -27 -67.834 -55 -93.501s-60.667 -41.167 -98 -46.5z" />
    <glyph glyph-name="H" unicode="H" horiz-adv-x="450" 
d="M356 354h72v30v155v117v46c0 4 2 6 6 6s6 -2 6 -6v-6v-76v-135v-161v-155v-117v-46c0 -4 -2 -6 -6 -6s-6 2 -6 6v7v75v135v119h-6h-122h-157h-78c-1.33301 0 -2.33301 0.333008 -3 1v-19v-155v-117v-46c0 -4 -2 -6 -6 -6s-6 2 -6 6v7v75v135v161v155v117v46c0 4 2 6 6 6
s6 -2 6 -6v-6v-76v-135v-131h3h13h121h157z" />
    <glyph glyph-name="I" unicode="I" horiz-adv-x="72" 
d="M62 6c0 -4 -2 -6 -6 -6s-6 2 -6 6v7v76v135v162v155v117v46c0 4 2 6 6 6s6 -2 6 -6v-7v-77v-135v-161v-155v-117v-46v0z" />
    <glyph glyph-name="J" unicode="J" horiz-adv-x="421" 
d="M286 708h117.999c4.66699 0 7 -2 7 -6v-58v-140v-161v-124v-30c0 -22.667 -3.33301 -43.667 -10 -63c-12.667 -36 -34 -65.5 -64 -88.5s-64 -35.5 -102 -37.5c-19.333 -1.33301 -38.666 0.5 -57.999 5.5s-37.333 13.167 -54 24.5s-31 24.5 -43 39.5
s-21.667 31.5 -29 49.5c-1.33301 3.33301 0.333984 5.66602 5.00098 6.99902c3.33301 1.33301 5.66602 0 6.99902 -4c12.667 -32 33 -58 61 -78s59 -30.667 93 -32c38.667 -1.33301 73.667 8.66699 105 30c30 20.667 51.667 48 65 82c4 10.667 6.83301 21.334 8.5 32.001
s2.5 21.667 2.5 33v29v123v161v140v54h-54h-119c-4 0 -6 2 -6 6s2 6 6 6h61z" />
    <glyph glyph-name="K" unicode="K" horiz-adv-x="512" 
d="M275 358c3.33301 6 7 12 11 18s7.66699 12 11 18l37.5 61l37.5 61l40.5 65l40.5 65c6 10.667 12.167 21 18.5 31l18.5 30c2 3.33301 4.83301 4 8.5 2s4.5 -4.66699 2.5 -8l-12 -19.5l-12 -18.5l-37.5 -61.5l-37.5 -60.5l-40 -65.5l-40 -65.5l-17.5 -28l-17.5 -28v-3
l9.5 -15l9.5 -15l75 -120l40.5 -65.5l40.5 -65.5l19.5 -30.5l19.5 -30.5c2 -3.33301 1.16699 -6 -2.5 -8s-6.5 -1.33301 -8.5 2l-11 17c-4 6 -7.66699 12 -11 18l-75 120l-40.5 65l-40.5 65l-36 57h-111h-102v-21v-155v-117v-46c0 -4 -2.16699 -6 -6.5 -6s-6.5 2 -6.5 6v7
v76v135v161v155v117v46c0 4 2.16699 6 6.5 6s6.5 -2 6.5 -6v-7v-76v-135v-127h110h102z" />
    <glyph glyph-name="L" unicode="L" horiz-adv-x="349" 
d="M174 0h-118c-4 0 -6 2 -6 6v7v76v135v162v155v117v46c0 4 2 6 6 6s6 -2 6 -6v-7v-77v-135v-161v-155v-117v-40h39h134c16.667 0 33.167 0.166992 49.5 0.5s32.5 0.5 48.5 0.5c4 0 6 -2.16699 6 -6.5s-2 -6.5 -6 -6.5h-59h-100z" />
    <glyph glyph-name="M" unicode="M" horiz-adv-x="631" 
d="M328 278c-1.33301 3.33301 -3 6.33203 -5 8.99902s-4 5.66699 -6 9l-66 99l-44 66.5l-44 67.5l-39.5 58.5l-39.5 58.5c-7.33301 12.667 -14.666 24 -21.999 34v-60v-134v-161v-156v-117v-46c0 -4 -2 -6 -6 -6s-6 2 -6 6v6v74v134v161v156v117v46
c0 3.33301 1.5 5.33301 4.5 6s5.16699 -0.333008 6.5 -3c2.66699 -3.33301 5.16699 -6.83301 7.5 -10.5l6.5 -10.5l33 -49.5l33 -48.5l44 -67.5l45 -66.5l39 -59.5l39 -58.5l27 -42c4 5.33301 6.66699 9.33301 8 12l66 99l44 67l44 67l39.5 58.5l39.5 59.5
c5.33301 8.66699 10.833 17 16.5 25s11.167 16.333 16.5 25c1.33301 2.66699 3.66602 3.66699 6.99902 3s5 -2.66699 5 -6v-6v-74v-134v-161v-156v-117v-46c0 -4 -2.16699 -6 -6.5 -6s-6.5 2 -6.5 6v6v74v134v161v156v117v26c0 -1.33301 -0.666992 -2.66602 -2 -3.99902
l-66 -99l-44 -66.5l-44 -66.5l-39 -59.5l-39 -58.5l-16 -24l-16 -24c0 -4 -2 -6 -6 -6h-1c-4.66699 0 -7 2 -7 6z" />
    <glyph glyph-name="N" unicode="N" horiz-adv-x="558" 
d="M536 700c0 4 2 5.99902 6 5.99902s6 -2 6 -6v-6v-73v-134v-161v-155v-118v-46c0 -3.33301 -1.5 -5.33301 -4.5 -6s-5.5 0.333008 -7.5 3c-2 3.33301 -4 6.33301 -6 9l-6 8l-25.5 36l-24.5 36l-39 55l-38 55l-45.5 65l-45.5 65l-46.5 66.5l-46.5 66.5l-41 58.5l-41 58.5
l-29 41l-29 42l-5.5 7.5l-5.5 7.5v-61v-134v-161v-156v-117v-46c0 -4 -2 -6 -6 -6s-6 2 -6 6v6v75v134v161v155v118v46c0 3.33301 1.5 5.33301 4.5 6s5.16699 -0.333008 6.5 -3c2 -3.33301 4 -6.33301 6 -9l7 -9l24.5 -36l25.5 -35l38 -55.5l39 -54.5l45.5 -65.5l45.5 -65.5
l93 -132l81 -117l29.5 -42l29.5 -41c1.33301 -3.33301 3 -6.16602 5 -8.49902s4 -4.83301 6 -7.5v60v133v161v156v117v47v0z" />
    <glyph glyph-name="O" unicode="O" horiz-adv-x="429" 
d="M353 680c13.333 -12 24.999 -25.668 34.999 -41.001s17.667 -32 23 -50c3.33301 -9.33301 5.5 -18.666 6.5 -27.999s1.5 -18.666 1.5 -27.999v-114v-158v-80c-0.666992 -28 -7 -54.5 -19 -79.5s-28.667 -46.167 -50 -63.5c-14.667 -11.333 -30.5 -20.5 -47.5 -27.5
s-35.167 -11.167 -54.5 -12.5c-38.667 -3.33301 -74.667 5 -108 25c-15.333 9.33301 -29.333 20.833 -42 34.5s-22.667 28.5 -30 44.5c-12 26 -18 53 -18 81v99v159v97c0 33.333 8.33301 64.333 25 93s39.334 51 68.001 67c16.667 9.33301 34.167 16.166 52.5 20.499
s37.166 5.5 56.499 3.5c38.667 -4 72.334 -18 101.001 -42zM405.999 488.999c0 16.667 0.167969 33.334 0.500977 50.001s-2.16699 33 -7.5 49c-11.333 36 -31.833 65.167 -61.5 87.5s-62.834 33.833 -99.501 34.5c-38 1.33301 -72.333 -9 -103 -31
c-14.667 -10.667 -27.5 -23.167 -38.5 -37.5s-19.167 -29.833 -24.5 -46.5c-3.33301 -10 -5.66602 -20 -6.99902 -30s-2 -20.333 -2 -31v-42v-150v-136v-25c0 -17.333 2.5 -34.5 7.5 -51.5s12.833 -32.5 23.5 -46.5c10 -15.333 22.167 -28.333 36.5 -39s29.833 -19 46.5 -25
c18 -6 36.5 -9.16699 55.5 -9.5s37.167 2.5 54.5 8.5c35.333 11.333 63.666 31.666 84.999 60.999c22.667 30.667 34 64.667 34 102v23v134v151z" />
    <glyph glyph-name="P" unicode="P" horiz-adv-x="462" 
d="M357 666c30 -22 53.5 -49.832 70.5 -83.499s24.833 -69.5 23.5 -107.5c-1.33301 -37.333 -11.5 -72.333 -30.5 -105s-44.5 -58.667 -76.5 -78c-15.333 -10 -31.833 -17.833 -49.5 -23.5s-36.167 -9.16699 -55.5 -10.5c-8 -0.666992 -16 -0.833984 -24 -0.500977
s-16.333 0.5 -25 0.5h-127v-89v-117v-46c0 -4 -2.16699 -6 -6.5 -6s-6.5 2 -6.5 6v6v76v134v162v155v117v46c0 4 2.33301 6 7 6h6h138h27c8.66699 0 17.667 -0.666992 27 -2c37.333 -4 71.333 -17.333 102 -40zM63 261.001v1v-1v0zM352 312.001
c30 21.333 52.668 48.999 68.001 82.999s21.333 69.667 18 107c-3.33301 36 -15.333 69.333 -36 100s-47.334 54.334 -80.001 71.001c-30.667 15.333 -63 23 -97 23h-48h-114v-76v-134v-161v-55h6h129h27c8.66699 0 17.667 0.666992 27 2c36 4 69.333 17.333 100 40z" />
    <glyph glyph-name="Q" unicode="Q" horiz-adv-x="499" 
d="M477 -38c0 4 1.99414 6 5.99414 6s6 -2 6 -6c0 -22.667 -6.33301 -41.667 -19 -57c-11.333 -15.333 -26 -26 -44 -32c-7.33301 -2.66699 -15.166 -4.33398 -23.499 -5.00098s-16.166 0.333008 -23.499 3c-13.333 4.66699 -24.5 12 -33.5 22s-17.167 20.333 -24.5 31
c-4.66699 6 -9 12 -13 18s-8 11.667 -12 17l-13.5 15.5c-4.33301 5 -9.16602 9.5 -14.499 13.5c-4.66699 3.33301 -9.5 6 -14.5 8s-10.167 3 -15.5 3h-7c-20.667 -1.33301 -37.334 -8.66602 -50.001 -21.999c-3.33301 -2.66699 -6.33301 -2.66699 -9 0s-2.66699 5.66699 0 9
c7.33301 7.33301 15.333 13 24 17c-18.667 4 -37.334 11.333 -56.001 22c-15.333 9.33301 -29.333 20.833 -42 34.5s-22.667 28.5 -30 44.5c-12 26 -18 53 -18 81v99v159v97c0 32.667 8.33301 63.5 25 92.5s39.334 51.5 68.001 67.5c16 9.33301 33.333 16 52 20
s37.334 5 56.001 3c37.333 -3.33301 71 -17.333 101 -42c28.667 -24 48.334 -54 59.001 -90c4.66699 -16.667 7 -35.667 7 -57v-113v-158v-80c0 -28 -6 -54.5 -18 -79.5s-28.667 -46.167 -50 -63.5c-24.667 -19.333 -52 -32 -82 -38c10.667 -6 20.334 -14.333 29.001 -25
c9.33301 -11.333 18 -23 26 -35s16.667 -23.333 26 -34c4 -4.66699 8.33301 -9 13 -13s9.66699 -7.33301 15 -10s10.333 -4 15 -4c8.66699 -0.666992 17.334 0.333008 26.001 3c17.333 4.66699 31.5 14.167 42.5 28.5s16.5 30.833 16.5 49.5zM92.9941 84
c21.333 -30 49.332 -51.001 83.999 -63.001c18 -6 36.333 -9 55 -9h4c18.667 0 35.667 2.66699 51 8c16.667 5.33301 32.334 13.166 47.001 23.499s27.334 22.833 38.001 37.5c22.667 30.667 34 64.667 34 102v23v134v151v50c0 16.667 -2.66699 33 -8 49
c-10.667 35.333 -30.834 64.333 -60.501 87s-63.167 34.334 -100.5 35.001c-18 0 -35.833 -2.66699 -53.5 -8s-34.167 -13.333 -49.5 -24c-30 -20.667 -50.667 -48.667 -62 -84c-3.33301 -9.33301 -5.83301 -19.166 -7.5 -29.499s-2.5 -20.5 -2.5 -30.5v-42v-150v-136v-25
c0 -36 10.333 -69 31 -99z" />
    <glyph glyph-name="R" unicode="R" horiz-adv-x="463" 
d="M452 477c-1.33301 -38 -11.334 -73.1689 -30.001 -105.502s-44 -58.5 -76 -78.5c-3.33301 -1.33301 -6.5 -3 -9.5 -5s-6.16699 -3.66699 -9.5 -5l21 -48l31.5 -72l31.5 -71l18 -41.5l18 -41.5c1.33301 -3.33301 0.666016 -6 -2.00098 -8
c-1.33301 -1.33301 -3 -1.66602 -5 -0.999023s-3.33301 1.66699 -4 3l-11.5 26.5l-11.5 26.5l-31 71l-31 71l-17.5 40l-17.5 40c-12 -5.33301 -24.167 -9.5 -36.5 -12.5s-25.166 -4.83301 -38.499 -5.5c-8 -0.666992 -16.167 -1 -24.5 -1h-24.5h-129v-47v-144v-64
c0 -4 -2.16699 -6 -6.5 -6s-6.5 2 -6.5 6v11v103v158v146v66c0 17.333 0.166992 34.833 0.5 52.5s0.5 35.5 0.5 53.5s0.166992 36.167 0.5 54.5s0.5 36.833 0.5 55.5c0 4 2 6 6 6h6h139h27c8.66699 0 17.667 -0.666992 27 -2c37.333 -5.33301 71.333 -18.666 102 -39.999
c30 -22 53.333 -49.833 70 -83.5s24.334 -69.5 23.001 -107.5zM252.999 272.998c36.667 5.33301 69.999 18.665 99.999 39.998c30 22 52.667 50 68 84s21.333 69.333 18 106s-15.166 70.167 -35.499 100.5s-46.833 53.833 -79.5 70.5c-30 16 -62.333 24 -97 24h-48h-115v-16
c0 -25.333 -0.166992 -50.166 -0.5 -74.499s-0.5 -49.166 -0.5 -74.499v-57v-105v-99h136c9.33301 0 18.333 -0.166992 27 -0.5s17.667 0.166992 27 1.5z" />
    <glyph glyph-name="S" unicode="S" horiz-adv-x="502" 
d="M492 175c0 -26.667 -5.33203 -52.333 -15.999 -77s-26 -45.667 -46 -63c-14 -12 -29.333 -21.833 -46 -29.5s-34.334 -12.834 -53.001 -15.501c-11.333 -1.33301 -22.666 -2 -33.999 -2h-34h-2c-28.667 1.33301 -55 6.66602 -79 15.999c-33.333 13.333 -63 34 -89 62
l-20 22l-21 22c-2.66699 3.33301 -2.5 6.5 0.5 9.5s5.83301 2.83301 8.5 -0.5l11.5 -12l11.5 -13l28.5 -30c9.66699 -10 20.5 -19 32.5 -27c36 -24 76.333 -36 121 -36c1.33301 0 2 -0.333008 2 -1h34c21.333 0 41.666 3.33301 60.999 10c34.667 11.333 62.667 32 84 62
c22 31.333 33 65.666 33 102.999v2v1c0 26 -5.5 50.667 -16.5 74s-26.167 43.333 -45.5 60c-14 11.333 -29.5 20.5 -46.5 27.5s-34.5 11.167 -52.5 12.5c-10 1.33301 -20.167 1.83301 -30.5 1.5s-20.5 -0.166016 -30.5 0.500977c-2 0 -3 0.333008 -3 1
c-24 0 -46.667 4.33301 -68 13c-34 14 -62 36.667 -84 68c-10.667 15.333 -18.667 32 -24 50s-8.33301 36.333 -9 55c0 0.666992 0.333008 1.33398 1 2.00098c0 0.666992 -0.166992 1 -0.5 1s-0.5 0.333008 -0.5 1c0.666992 26.667 6.33398 52.167 17.001 76.5
s26 45.5 46 63.5c29.333 25.333 62.333 40.333 99 45c11.333 1.33301 22.666 2 33.999 2h34c0.666992 0 1.33398 -0.333008 2.00098 -1c32 -0.666992 62.167 -7.33398 90.5 -20.001s53.166 -30.667 74.499 -54c3.33301 -3.33301 3.5 -6.5 0.5 -9.5
s-6.16699 -2.83301 -9.5 0.5c-20.667 22.667 -45 40.167 -73 52.5s-57.333 18.5 -88 18.5c-1.33301 0 -2 0.333008 -2 1h-35c-20.667 0 -40.667 -3.33301 -60 -10c-34.667 -12.667 -62.667 -33.334 -84 -62.001c-22 -31.333 -33 -65.666 -33 -102.999v-2v-2
c0 -25.333 5.5 -49.666 16.5 -72.999s26.167 -43.333 45.5 -60c29.333 -24 62.333 -37.667 99 -41c10 -0.666992 20.167 -1 30.5 -1h30.5c1.33301 0 2.33301 -0.333008 3 -1c12 -0.666992 23.5 -2 34.5 -4s22.167 -5.33301 33.5 -10c34.667 -14 62.667 -36.333 84 -67
c21.333 -31.333 32 -66.666 32 -105.999v-1v-2v0z" />
    <glyph glyph-name="T" unicode="T" horiz-adv-x="520" 
d="M504 708c4 0 6 -2 6 -6s-2 -6 -6 -6h-96h-117v-75v-135v-161v-155v-118v-46c0 -4 -2 -6 -6 -6s-6 2 -6 6v6v76v134v161v156v117v40h-4h-96h-123c-4 0 -6 2 -6 6s2 6 6 6h124h105h124h95v0z" />
    <glyph glyph-name="U" unicode="U" horiz-adv-x="448" 
d="M438 196l-0.00195312 -12.0029c0 -4 -0.333008 -7.66699 -1 -11c-2 -39.333 -14.667 -73.666 -38 -102.999c-24 -30 -53.333 -50.667 -88 -62c-19.333 -5.33301 -37.666 -8 -54.999 -8h-33c-37.333 2 -71.666 15 -102.999 39c-14 11.333 -26.333 24.5 -37 39.5
s-18.667 31.167 -24 48.5c-6 18.667 -9 38.334 -9 59.001v31v125v161v140v59c0 4 2.16699 6 6.5 6s6.5 -2 6.5 -6v-2v-77v-147v-159v-113v-22c0 -15.333 2 -30.333 6 -45s10 -28.667 18 -42c18 -31.333 44.333 -54.333 79 -69c8 -3.33301 16.5 -6.16602 25.5 -8.49902
s18.167 -3.83301 27.5 -4.5c6 -0.666992 12 -1 18 -1h18c36.667 0 69.334 10.333 98.001 31c14.667 10.667 27.5 23 38.5 37s19.167 29.667 24.5 47c3.33301 9.33301 5.66602 19 6.99902 29s2 20 2 30v31v125v161v140v59c0 4 2.16699 6 6.5 6s6.5 -2 6.5 -6v-6v-88v-152
v-157v-103z" />
    <glyph glyph-name="V" unicode="V" horiz-adv-x="511" 
d="M488 714c1.33301 4 3.99902 5.5 7.99902 4.5s5.33301 -3.5 4 -7.5s-2.5 -8 -3.5 -12s-2.16699 -8 -3.5 -12c-5.33301 -15.333 -10.333 -31 -15 -47s-9.66699 -31.667 -15 -47l-21.5 -69l-21.5 -69l-24 -77.5l-24 -77.5l-22.5 -73l-22.5 -72l-17.5 -54l-16.5 -53
c-2 -7.33301 -4.16699 -14.333 -6.5 -21s-4.5 -13.667 -6.5 -21c-1.33301 -3.33301 -3.33301 -5 -6 -5s-4.66699 1.66699 -6 5c-1.33301 4 -2.5 8 -3.5 12s-2.16699 7.66699 -3.5 11c-5.33301 15.333 -10.166 30.833 -14.499 46.5s-9.16602 31.5 -14.499 47.5l-42 138
l-24 77l-24 78l-22.5 73l-22.5 72l-33 108l-6 21c-2 6.66699 -4.33301 13.667 -7 21c-1.33301 4 0 6.5 4 7.5s6.66699 -0.5 8 -4.5l4 -12c1.33301 -4 2.66602 -7.66699 3.99902 -11l14 -47l14 -47l21.5 -69l21.5 -69l24 -77.5c8 -25.667 15.667 -51.5 23 -77.5l22.5 -73
l22.5 -73l16.5 -53l16.5 -54c2.66699 -6.66699 5 -14.334 7 -23.001c0.666992 1.33301 1 2.33301 1 3s0.333008 1.33398 1 2.00098l14 47c4.66699 16 9.66699 31.667 15 47l21.5 69l21.5 69l24 77.5l24 77.5l23.5 72.5l22.5 72.5l16.5 54l16.5 53
c2.66699 7.33301 5 14.333 7 21z" />
    <glyph glyph-name="W" unicode="W" horiz-adv-x="947" 
d="M924 714c1.33301 4 4.00293 5.5 8.00293 4.5s5.33301 -3.5 4 -7.5s-2.5 -8 -3.5 -12s-2.16699 -8 -3.5 -12c-5.33301 -15.333 -10.333 -31 -15 -47s-9.66699 -31.667 -15 -47l-21.5 -69l-21.5 -69l-24 -77.5l-24 -77.5l-22.5 -73l-22.5 -72l-17.5 -54l-16.5 -53
c-2 -7.33301 -4.16699 -14.333 -6.5 -21s-4.5 -13.667 -6.5 -21c-1.33301 -3.33301 -3.33301 -5 -6 -5s-4.66699 1.66699 -6 5c-1.33301 4 -2.5 8 -3.5 12s-2.16699 7.66699 -3.5 11c-5.33301 15.333 -10.166 30.833 -14.499 46.5s-9.16602 31.5 -14.499 47.5l-42 138
l-24 77l-24 78l-22.5 73l-22.5 72l-33 108c-2 8.66699 -4.33301 16.334 -7 23.001c0 -1.33301 -0.166992 -2.33301 -0.5 -3s-0.5 -1.33398 -0.5 -2.00098c-5.33301 -15.333 -10.333 -31 -15 -47l-14 -47l-22 -69l-22 -69l-24 -77.5l-24 -77.5l-22.5 -73l-22.5 -72
c-5.33301 -18 -11 -36 -17 -54l-17 -53l-6 -21c-2 -6.66699 -4.33301 -13.667 -7 -21c-1.33301 -3.33301 -3.33301 -5 -6 -5s-4.66699 1.66699 -6 5c-1.33301 4 -2.5 8 -3.5 12s-2.16699 7.66699 -3.5 11l-14 46.5l-14 47.5l-21.5 69l-21.5 69l-24 77l-24 78l-22 73l-22 72
l-33 108c-2.66699 7.33301 -5 14.333 -7 21l-6 21c-1.33301 4 0 6.5 4 7.5s6.66699 -0.5 8 -4.5s2.5 -8 3.5 -12s2.16699 -7.66699 3.5 -11l14 -47l14 -47l21.5 -69l21.5 -69l24 -77.5l24 -77.5l22 -73l22 -73l16.5 -53l16.5 -54c2.66699 -6.66699 5 -14.334 7 -23.001
c0.666992 1.33301 1 2.33301 1 3s0.333008 1.33398 1 2.00098c5.33301 15.333 10.166 31 14.499 47s9.16602 31.667 14.499 47l21.5 69l21.5 69l24.5 77.5l24.5 77.5l22.5 72.5l22.5 72.5l16.5 54l16.5 53c2.66699 7.33301 5 14.333 7 21l6 21
c0.666992 0.666992 1 1.33398 1 2.00098c1.33301 1.33301 3 2 5 2c2 1.33301 3.66699 0.666016 5 -2.00098h1v-2l4 -12c1.33301 -4 2.66602 -7.66699 3.99902 -11l14 -47l14 -47l21.5 -69l21.5 -69l24 -77.5l24 -77.5l22 -73l22 -73l16.5 -53l16.5 -54
c2.66699 -6.66699 5 -14.334 7 -23.001c0.666992 1.33301 1 2.33301 1 3s0.333008 1.33398 1 2.00098c5.33301 15.333 10.166 31 14.499 47s9.16602 31.667 14.499 47l21.5 69l21.5 69l24 77.5l25 77.5l22.5 72.5l22.5 72.5l16.5 54l16.5 53c2.66699 7.33301 5 14.333 7 21z
" />
    <glyph glyph-name="X" unicode="X" horiz-adv-x="462" 
d="M371 554l-38.499 -68.002l-37.5 -68l-17 -30.5l-17 -30.5c2.66699 -4.66699 5 -9.16699 7 -13.5s4.33301 -8.83301 7 -13.5l66 -120l37.5 -68.5l37.5 -67.5c5.33301 -11.333 11 -22.166 17 -32.499l18 -32.5c2 -3.33301 1.16699 -6 -2.5 -8s-6.5 -1.33301 -8.5 2l-3 6
l-51 93l-38.5 70l-38.5 70l-27.5 51l-27.5 50c-0.666992 0.666992 -1 1.33398 -1 2.00098s-0.333008 1.33398 -1 2.00098c-2 -4.66699 -4.16699 -9 -6.5 -13s-4.83301 -8 -7.5 -12l-32 -59.5l-33 -59.5l-38 -67.5l-38 -67.5l-18 -32.5l-18 -32.5
c-2 -3.33301 -4.66699 -4 -8 -2s-4 4.66699 -2 8c2.66699 4.66699 5 9.16699 7 13.5s4.33301 8.5 7 12.5l33 59.5l33 59.5l37.5 67.5l37.5 68.5l17.5 30.5l17.5 30.5l-15 27l-66 120l-36.5 68.5l-37.5 67.5l-18 32.5c-6 10.333 -11.667 21.166 -17 32.499
c-2 3.33301 -1.33301 6 2 8s6 1.33301 8 -2c1.33301 -2.66699 2.66602 -4.66699 3.99902 -6l51 -93l38 -70.5l38 -70.5l28 -50l28 -51c0 -0.666992 0.166992 -1.16699 0.5 -1.5s0.5 -0.833008 0.5 -1.5l14 25l33 59l33 59l37.5 68.5l37.5 67.5l18 32.5l18 32.5
c2 3.33301 4.83301 4 8.5 2s4.5 -4.66699 2.5 -8l-15 -27l-33 -59z" />
    <glyph glyph-name="Y" unicode="Y" horiz-adv-x="522" 
d="M501 705c2 3.33301 4.66699 3.99805 8 1.99805s4 -4.66699 2 -8c0 -1.33301 -0.666992 -2.66602 -2 -3.99902l-44 -79l-38 -68.5l-38 -67.5l-72 -129l-15.5 -27l-15.5 -27v-45v-155v-91c0 -4 -2 -6 -6 -6s-6 2 -6 6v51v155v83c0 0.666992 -0.333008 1.33398 -1 2.00098
l-22 39.5l-22 39.5l-37.5 68.5l-37.5 67.5l-35 64.5l-36 64.5l-16 29.5l-16 28.5c-1.33301 3.33301 -0.333008 6 3 8s6 1.33301 8 -2c0.666992 -0.666992 1 -1.16699 1 -1.5s0.333008 -0.833008 1 -1.5l21.5 -39.5l21.5 -39.5l37.5 -68l37.5 -68l36 -64.5l35 -64.5l27 -48
l20.5 37l20.5 37l38 67.5l38 68.5l36 64l36 64l16 28.5z" />
    <glyph glyph-name="Z" unicode="Z" horiz-adv-x="426" 
d="M410 12c4 0 6 -2 6 -6s-2 -6 -6 -6h-5h-110h-158h-81c-2.66699 0 -4.5 1 -5.5 3s-0.833008 4 0.5 6v1l12 22.5l12 23.5l25.5 51l26.5 51l34 67.5l34 67.5l37 73l37 73l33.5 66l33.5 66l25 48l24 48l7.5 14.5c2.33301 4.33301 4.5 8.83301 6.5 13.5h-103h-158h-81
c-4 0 -6 2.16699 -6 6.5s2 6.5 6 6.5h5h108h159h80c2.66699 0 4.66699 -1.16699 6 -3.5s1.33301 -4.5 0 -6.5h-1c-3.33301 -8 -7 -15.833 -11 -23.5l-12 -22.5l-25.5 -51l-26.5 -51l-34 -67.5l-34 -68.5l-74 -145l-33.5 -66l-33.5 -66l-25 -49l-24 -48l-7.5 -13.5
l-7.5 -14.5h105h158h81v0z" />
    <glyph glyph-name="bracketleft" unicode="[" horiz-adv-x="231" 
d="M62 46v-40h29h124c4 0 6 -2.16699 6 -6.5s-2 -6.5 -6 -6.5h-35h-124c-4 0 -6 2.33301 -6 7v9v82v139v163v156v117v46c0 4.66699 2 7 6 7h35h124c4 0 6 -2.16699 6 -6.5s-2 -6.5 -6 -6.5h-35h-118v-3v-82v-139v-163v-156v-117z" />
    <glyph glyph-name="backslash" unicode="\" horiz-adv-x="347" 
d="M63 714c3.33301 -6.66699 6.16699 -13.332 8.5 -19.999s4.83301 -13.334 7.5 -20.001l20 -52l20 -52l27 -71.5l27 -70.5l30 -77.5l29 -76.5l27 -70l27 -70l18.5 -49.5l19.5 -49.5l6 -16.5l6 -17.5c1.33301 -3.33301 0 -5.5 -4 -6.5s-6.66699 0.166992 -8 3.5l-7.5 20.5
l-7.5 20.5l-20 52l-20 52c-9.33301 23.333 -18.333 47 -27 71s-17.667 47.667 -27 71l-30 76.5l-29 77.5l-27 69.5l-27 69.5l-18.5 49.5l-19.5 50.5l-6 16.5c-2 5.66699 -4.33301 11.167 -7 16.5c-1.33301 4 0 6.5 4 7.5s6.66699 -0.5 8 -4.5z" />
    <glyph glyph-name="bracketright" unicode="]" horiz-adv-x="231" 
d="M209 163v156v163v139v82v3h-118h-35c-4 0 -6 2.16699 -6 6.5s2 6.5 6 6.5h124h35c4 0 6 -2.33301 6 -7v-46v-117v-156v-163v-139v-82v-9c0 -4.66699 -2 -7 -6 -7h-124h-35c-4 0 -6 2.16699 -6 6.5s2 6.5 6 6.5h124h29v40v117z" />
    <glyph glyph-name="underscore" unicode="_" horiz-adv-x="603" 
d="M587 12c4 0 6 -2 6 -6s-2 -6 -6 -6h-286h-160h-85c-4 0 -6 2 -6 6s2 6 6 6h92h160h279v0z" />
    <glyph glyph-name="a" unicode="a" horiz-adv-x="543" 
d="M499 122l16.5 -60.0029l16.5 -59c1.33301 -4 0 -6.5 -4 -7.5s-6.66699 0.166992 -8 3.5c-4 15.333 -8.16699 30.333 -12.5 45s-8.5 29.667 -12.5 45l-6 24c-2 8 -4.33301 16 -7 24c-10 -33.333 -27 -62.666 -51 -87.999s-52.333 -43.666 -85 -54.999
c-36 -13.333 -73 -16.666 -111 -9.99902s-72 21.667 -102 45c-29.333 23.333 -51.333 52.666 -66 87.999s-19.667 72 -15 110c4.66699 36.667 17.667 70.5 39 101.5s49 54.5 83 70.5c34 17.333 70.333 25 109 23s74 -13.333 106 -34c22 -14 40.667 -31.167 56 -51.5
s27 -42.166 35 -65.499v42v99c0 4 2.16699 6 6.5 6s6.5 -2 6.5 -6v-65v-155v-45v-3c1.33301 -4 2.33301 -7.83301 3 -11.5s1.66699 -7.16699 3 -10.5zM376 20.9971c32 19.333 57.168 44.998 75.501 76.998s27.5 66.333 27.5 103c0 36 -8.83301 70 -26.5 102
s-42.167 57.333 -73.5 76c-32 19.333 -66.833 29.5 -104.5 30.5s-72.834 -7.83301 -105.501 -26.5c-32 -18.667 -57.5 -44 -76.5 -76s-28.833 -66.333 -29.5 -103c0 -37.333 9 -72.166 27 -104.499s43 -58.166 75 -77.499s67 -29 105 -29s73.333 9.33301 106 28z" />
    <glyph glyph-name="b" unicode="b" horiz-adv-x="434" 
d="M424 203c-0.666992 -37.333 -10.835 -72.167 -30.502 -104.5s-46.167 -57.5 -79.5 -75.5c-31.333 -16.667 -65.666 -25 -102.999 -25c-7.33301 0 -15 0.166992 -23 0.5s-15.667 1.5 -23 3.5c-17.333 4 -34 11.333 -50 22c-15.333 10.667 -28.333 23.667 -39 39
s-18 32 -22 50c-2 7.33301 -3.16699 14.5 -3.5 21.5s-0.5 14.167 -0.5 21.5v101v105v2v52v146v151c0 4 2 6 6 6s6 -2 6 -6v-140v-141v-55c4.66699 4 9.33398 7.5 14.001 10.5l15 9.5c35.333 21.333 74 31.833 116 31.5s80.333 -11.833 115 -34.5c32 -20 57 -46.5 75 -79.5
s27 -68.5 27 -106.5v-5zM381.999 102.999c20 32 30.001 66.998 30.001 104.998v12c0 4 -0.333008 7.66699 -1 11c-4 36.667 -16.833 69.834 -38.5 99.501s-49.5 52.167 -83.5 67.5c-36.667 16.667 -74.334 22 -113.001 16c-44 -6 -82 -23.667 -114 -53v-89v-110v-13
c0 -4 0.333008 -8.33301 1 -13c1.33301 -18 6.16602 -35.167 14.499 -51.5s19.5 -30.166 33.5 -41.499c14.667 -12.667 30.334 -21.334 47.001 -26.001c14 -4.66699 29.667 -7 47 -7c8 0 16 0.333008 24 1s15.667 1.66699 23 3c9.33301 2 18.333 4.33301 27 7
s17 6.33398 25 11.001c32 16 58 39.667 78 71z" />
    <glyph glyph-name="c" unicode="c" horiz-adv-x="425" 
d="M413 335c2.66699 -3.33301 2.66895 -6.33203 0.00195312 -8.99902c-1.33301 -1.33301 -2.83301 -2 -4.5 -2s-3.16699 0.666992 -4.5 2c-1.33301 2.66699 -3 5 -5 7l-6 6c-14.667 15.333 -31.167 27.833 -49.5 37.5s-37.833 16.167 -58.5 19.5
c-39.333 6 -76.666 1 -111.999 -15c-16 -8 -30.833 -17.833 -44.5 -29.5s-25.167 -25.167 -34.5 -40.5c-20.667 -32 -31 -66.667 -31 -104c0 -4 -2.16699 -6 -6.5 -6s-6.5 2 -6.5 6c0.666992 6.66699 1.16699 13 1.5 19s1.16602 12 2.49902 18
c6.66699 36.667 22.334 69.167 47.001 97.5s55 48.166 91 59.499c19.333 6.66699 39.166 10 59.499 10s40.166 -2.66699 59.499 -8c20 -6 38.667 -14.667 56 -26s32.666 -25.333 45.999 -42zM404.002 85.001c2.66699 2.66699 5.66504 2.66992 8.99805 0.00292969
c2.66699 -2.66699 2.66699 -5.66699 0 -9c-4 -5.33301 -8.33301 -10.333 -13 -15s-9.66699 -9 -15 -13c-33.333 -28 -71.666 -43.667 -114.999 -47c-19.333 -1.33301 -38.333 -0.166016 -57 3.50098s-36.667 10.167 -54 19.5c-33.333 17.333 -59.666 42.166 -78.999 74.499
s-29.333 67.5 -30 105.5c0 4 2.16699 6 6.5 6s6.5 -2 6.5 -6v-16c3.33301 -36.667 16.166 -69.834 38.499 -99.501s50.833 -50.834 85.5 -63.501c38.667 -14.667 77.334 -17 116.001 -7c41.333 11.333 75 33.666 101 66.999z" />
    <glyph glyph-name="d" unicode="d" horiz-adv-x="543" 
d="M532 6c1.33301 -4 0 -6.50293 -4 -7.50293s-6.66699 0.166992 -8 3.5l-25 90l-6 24c-2 8 -4.33301 16 -7 24c-10 -33.333 -27 -62.666 -51 -87.999s-52.333 -43.666 -85 -54.999c-36 -13.333 -73 -16.666 -111 -9.99902s-72 21.667 -102 45
c-29.333 23.333 -51.333 52.666 -66 87.999s-19.667 72 -15 110c4.66699 36.667 17.667 70.5 39 101.5s49 54.5 83 70.5c34 17.333 70.333 25 109 23s74 -13.333 106 -34c22 -14 40.667 -31.167 56 -51.5s27 -42.166 35 -65.499v42v405c0 4 2.16699 6 6.5 6s6.5 -2 6.5 -6
v-371v-155v-45v-3l6 -22zM376 23.9971c32 19.333 57.168 44.998 75.501 76.998s27.5 66.333 27.5 103c0 36 -8.83301 70 -26.5 102s-42.167 57.333 -73.5 76c-32 19.333 -66.833 29.5 -104.5 30.5s-72.834 -7.83301 -105.501 -26.5c-32 -18.667 -57.5 -44 -76.5 -76
s-28.833 -66.333 -29.5 -103c0 -37.333 9 -72.166 27 -104.499s43 -58.166 75 -77.499s67 -29 105 -29s73.333 9.33301 106 28z" />
    <glyph glyph-name="e" unicode="e" horiz-adv-x="438" 
d="M427 320c1.33301 -2.66699 0.662109 -5.33301 -2.00488 -8l-17 -12.5l-17 -12.5l-56 -40.5l-56 -41.5l-60 -43.5l-60 -44.5l-25.5 -18l-25.5 -19c14 -16 29.333 -29 46 -39c31.333 -19.333 65.333 -29 102 -29l2 -1h1c0.666992 0 1.33398 0.166992 2.00098 0.5
s1.33398 0.5 2.00098 0.5c25.333 0 49.833 4.83301 73.5 14.5s44.834 23.5 63.501 41.5c2.66699 3.33301 5.5 3.5 8.5 0.5s2.83301 -5.83301 -0.5 -8.5c-19.333 -19.333 -41.5 -34.166 -66.5 -44.499s-51.167 -15.5 -78.5 -15.5c-2 0 -3.33301 0.333008 -4 1
c0 -0.666992 -1 -1 -3 -1c-30.667 0 -60 6.66699 -88 20s-51.667 31.666 -71 54.999l-2 2c0 0.666992 -0.333008 1 -1 1c-10.667 13.333 -19.5 27.833 -26.5 43.5s-11.833 32.167 -14.5 49.5c-6 38.667 -2.66699 75 10 109c13.333 34 34 62.5 62 85.5s60 37.5 96 43.5
c20 3.33301 39.833 3.83301 59.5 1.5s38.834 -7.5 57.501 -15.5c36.667 -16.667 66.334 -41.667 89.001 -75zM362.996 281.001l25.502 18.999l25.5 18c-15.333 21.333 -34.166 39 -56.499 53s-46.5 23 -72.5 27c-36 5.33301 -71 0.833008 -105 -13.5
s-61.667 -36.5 -83 -66.5c-20.667 -29.333 -32.334 -62.5 -35.001 -99.5s4.66602 -71.5 21.999 -103.5c5.33301 -9.33301 10.666 -17.666 15.999 -24.999c5.33301 3.33301 10.333 6.83301 15 10.5l15 11.5l56.5 40.5l55.5 40.5l60 44z" />
    <glyph glyph-name="f" unicode="f" horiz-adv-x="388" 
d="M377 614c1.33301 -4 -0.330078 -6.66895 -4.99707 -8.00195c-3.33301 -1.33301 -5.66602 0.333984 -6.99902 5.00098c-6.66699 16.667 -15.834 31.5 -27.501 44.5s-25 23.833 -40 32.5s-31.167 14.834 -48.5 18.501s-34.666 4.16699 -51.999 1.5
c-18 -2.66699 -35.167 -8.33398 -51.5 -17.001s-30.5 -19.667 -42.5 -33c-12.667 -13.333 -22.334 -28.5 -29.001 -45.5s-10.667 -34.5 -12 -52.5c-0.666992 -10 -0.833984 -20.167 -0.500977 -30.5s0.5 -20.5 0.5 -30.5v-86h62h119c4 0 6 -2 6 -6s-2 -6 -6 -6h-64h-117v-38
v-163v-137v-57c0 -4 -2 -6 -6 -6s-6 2 -6 6v60v138v162v135v39v25c3.33301 38.667 17.666 72.334 42.999 101.001c25.333 28 56.666 45.667 93.999 53c19.333 3.33301 39 3.5 59 0.5s38.667 -9.16699 56 -18.5c34.667 -20.667 59.667 -49.667 75 -87z" />
    <glyph glyph-name="g" unicode="g" horiz-adv-x="514" 
d="M492 436c1.33301 3.33301 3.83789 4.50098 7.50488 3.50098s4.83398 -3.16699 3.50098 -6.5l-10 -36l-10 -37c-2.66699 -9.33301 -5.16699 -18.833 -7.5 -28.5s-4.83301 -19.5 -7.5 -29.5c-0.666992 -0.666992 -1 -1.66699 -1 -3v-1v-8v-97
c0 -25.333 -0.166992 -50.5 -0.5 -75.5s-0.5 -50.167 -0.5 -75.5v-133c0 -12.667 0.166992 -25.334 0.5 -38.001s-0.5 -25.334 -2.5 -38.001c-4.66699 -35.333 -17.834 -67 -39.501 -95s-48.834 -48.667 -81.501 -62c-17.333 -7.33301 -35.333 -12.166 -54 -14.499
s-37.334 -1.83301 -56.001 1.5c-40.667 6 -76.667 24 -108 54c-2.66699 2.66699 -2.66699 5.33398 0 8.00098s5.33398 2.66699 8.00098 0c18.667 -18 40.167 -31.667 64.5 -41s49.5 -13.333 75.5 -12c34.667 1.33301 66.667 11.5 96 30.5s51.666 44.167 66.999 75.5
c12.667 27.333 19 55.333 19 84v22v116v139c-10.667 -29.333 -26.834 -55.166 -48.501 -77.499s-47.5 -39.166 -77.5 -50.499c-34 -12 -69 -15 -105 -9s-68 20.333 -96 43c-28 22 -48.667 49.667 -62 83s-18 67.666 -14 102.999c4 34.667 16.167 66.667 36.5 96
s46.5 51.666 78.5 66.999s66.167 22.166 102.5 20.499s69.833 -12.167 100.5 -31.5c20 -13.333 37.333 -29.333 52 -48s25.667 -39 33 -61v24c0 2 0.333008 3.66699 1 5c1.33301 3.33301 2.16602 6.83301 2.49902 10.5s1.16602 7.16699 2.49902 10.5l15.5 56z
M357.005 37.001c30 17.333 53.667 41.3311 71 71.998s26.333 63.334 27 98.001c-0.666992 34 -9.33398 66 -26.001 96s-39.667 54 -69 72c-30 18 -62.833 27.333 -98.5 28s-68.834 -7.66602 -99.501 -24.999c-30 -17.333 -54 -41 -72 -71s-27.333 -62.667 -28 -98
c0 -34.667 8.5 -67.334 25.5 -98.001s40.5 -55 70.5 -73c30.667 -17.333 63.834 -26.166 99.501 -26.499s68.834 8.16699 99.501 25.5z" />
    <glyph glyph-name="h" unicode="h" horiz-adv-x="394" 
d="M380 299c2 -8.66699 3.16699 -17.168 3.5 -25.501s0.5 -16.833 0.5 -25.5v-142v-100c0 -4 -2 -6 -6 -6s-6 2 -6 6v91v146v21c0 6.66699 -0.666992 13.667 -2 21c-3.33301 17.333 -9.33301 34 -18 50s-20 29.667 -34 41c-27.333 22.667 -59.666 34 -96.999 34
c-16.667 0 -31.667 -1.33301 -45 -4c-19.333 -5.33301 -36 -12.666 -50 -21.999c-14.667 -10.667 -27.167 -23.334 -37.5 -38.001s-17.5 -30.667 -21.5 -48c-2 -8.66699 -3.33301 -17 -4 -25s-1 -16.333 -1 -25v-142v-100c0 -4 -2 -6 -6 -6s-6 2 -6 6v110v121v1v8v99v159
v146v64c0 4 2 6 6 6s6 -2 6 -6v-7v-100v-158v-126c14 31.333 34.667 56 62 74c14.667 9.33301 31.667 16.333 51 21c7.33301 2 15 3.16699 23 3.5s15.667 0.5 23 0.5c37.333 0 70.666 -11 99.999 -33c14.667 -11.333 27.167 -24.666 37.5 -39.999s17.5 -32 21.5 -50z" />
    <glyph glyph-name="i" unicode="i" horiz-adv-x="206" 
d="M177 587c-4 0 -7 1.33301 -9 4s-3 5.5 -3 8.5s1 5.83301 3 8.5s5 4 9 4s7 -1.33301 9 -4s3 -5.5 3 -8.5s-1 -5.83301 -3 -8.5s-5 -4 -9 -4zM56 398c-4 0 -6 2 -6 6s2 6 6 6h6h36c4.66699 0 9.33398 0.166992 14.001 0.5s9.33398 0.166016 14.001 -0.500977
c19.333 -2 35.666 -10.167 48.999 -24.5s20.333 -31.166 21 -50.499v-86v-158v-85c0 -4 -2.16699 -6 -6.5 -6s-6.5 2 -6.5 6v92v158v58c0 5.33301 0.166992 10.5 0.5 15.5s-0.166992 10.167 -1.5 15.5c-2.66699 18 -12.334 32.333 -29.001 43c-10.667 6.66699 -23 10 -37 10
h-60z" />
    <glyph glyph-name="j" unicode="j" horiz-adv-x="431" 
d="M291 590c-4 0 -7 1.33301 -9 4s-3 5.5 -3 8.5s1 5.83301 3 8.5s5 4 9 4s7 -1.33301 9 -4s3 -5.5 3 -8.5s-1 -5.83301 -3 -8.5s-5 -4 -9 -4zM414 412c4.66699 0 7.00098 -2.00098 7.00098 -6.00098s-2.33301 -6 -7 -6h-64c-17.333 0 -32.5 -6.33301 -45.5 -19
s-19.5 -28 -19.5 -46v-41v-146v-95v-91v-156v-42c0 -28.667 -7.66699 -54.667 -23 -78c-10.667 -15.333 -23.834 -28.166 -39.501 -38.499s-32.834 -17.166 -51.501 -20.499c-21.333 -4 -42.5 -2.83301 -63.5 3.5s-39.5 17.166 -55.5 32.499
c-3.33301 3.33301 -3.5 6.5 -0.5 9.5s6.16699 2.83301 9.5 -0.5c16.667 -16 36.5 -26.667 59.5 -32s45.5 -4.33301 67.5 3c17.333 6 32.5 15.333 45.5 28s22.833 27.334 29.5 44.001c6 14.667 9 30 9 46v10v132v136v93v106v73v25.5c0 8.33301 1.66699 16.5 5 24.5
c7.33301 19.333 19.333 33.333 36 42c6.66699 3.33301 13.334 5.66602 20.001 6.99902s13.667 2 21 2h60z" />
    <glyph glyph-name="k" unicode="k" horiz-adv-x="364" 
d="M342 470c2 3.33301 4.83301 4 8.5 2s4.5 -4.66699 2.5 -8l-13.5 -25l-13.5 -25l-37.5 -69l-38.5 -69l-21 -38.5l-21 -38.5l29.5 -51.5l28.5 -51.5l26 -47l27 -48c2 -3.33301 1.16699 -6 -2.5 -8s-6.5 -1.33301 -8.5 2v1l-29.5 52l-29.5 52l-25.5 46l-25.5 46h-13h-122
v-30v-118v-46c0 -4 -2.16699 -6 -6.5 -6s-6.5 2 -6.5 6v10v82v139v163v157v118v46c0 4 2.16699 6 6.5 6s6.5 -2 6.5 -6v-10v-82v-139v-163v-114h14h120c4.66699 7.33301 9 15 13 23s8.33301 15.667 13 23l75 138l22 40.5z" />
    <glyph glyph-name="l" unicode="l" horiz-adv-x="72" 
d="M50 717c0 3.33301 2 5 6 5s6 -1.66699 6 -5v-11v-82v-138v-162v-155v-116v-45c0 -4 -2 -6 -6 -6s-6 2 -6 6v10v82v138v162v155v116v46v0z" />
    <glyph glyph-name="m" unicode="m" horiz-adv-x="913" 
d="M885 319c12 -25.333 17.9912 -51.668 17.9912 -79.001v-128v-106c0 -4 -2 -6 -6 -6s-6 2 -6 6v48v153v36c0 36 -11 68 -33 96c-11.333 14.667 -24.5 26.834 -39.5 36.501s-31.167 16.834 -48.5 21.501c-13.333 2.66699 -28.666 4 -45.999 4
c-7.33301 0 -14.5 -0.166992 -21.5 -0.5s-14.167 -1.16602 -21.5 -2.49902c-37.333 -7.33301 -67.666 -25.333 -90.999 -54c-24.667 -28.667 -37 -62.334 -37 -101.001c0 -1.33301 -0.333008 -2.33301 -1 -3v-128v-106c0 -4 -2 -6 -6 -6s-6 2 -6 6v48v153v36
c0 36 -11 68 -33 96c-22 29.333 -51.333 48.666 -88 57.999c-13.333 2.66699 -28.333 4 -45 4c-7.33301 0 -14.666 -0.166992 -21.999 -0.5s-14.666 -1.16602 -21.999 -2.49902c-37.333 -7.33301 -67.666 -25.333 -90.999 -54c-12 -14 -21 -29.667 -27 -47
s-9.33301 -35.333 -10 -54v-2v-148v-86c0 -4 -2 -6 -6 -6s-6 2 -6 6v96v158v56c0 6.66699 -0.166992 13 -0.5 19s-1.5 12 -3.5 18c-5.33301 17.333 -16.333 30.666 -33 39.999c-5.33301 2.66699 -11.166 4.5 -17.499 5.5s-12.5 1.5 -18.5 1.5h-61c-4 0 -6 2.16699 -6 6.5
s2 6.5 6 6.5h8h38h13.5c4.33301 0 8.83301 -0.333008 13.5 -1c19.333 -2 36 -9.83301 50 -23.5s21.667 -30.167 23 -49.5c0.666992 -5.33301 0.833984 -10.166 0.500977 -14.499s-0.5 -9.16602 -0.5 -14.499v-6c6.66699 16 15.167 30.833 25.5 44.5s22.833 25.167 37.5 34.5
c14.667 10 30.334 17.333 47.001 22s34 7 52 7c7.33301 0 14.333 0.166992 21 0.5s13.334 -0.166992 20.001 -1.5c9.33301 -1.33301 18.5 -3.33301 27.5 -6s17.833 -6.33398 26.5 -11.001c33.333 -16.667 58.666 -42 75.999 -76c4.66699 -11.333 8.66699 -22.333 12 -33
c5.33301 20 13.833 38.5 25.5 55.5s26.167 31.167 43.5 42.5c14.667 10 30.334 17.333 47.001 22s33.667 7 51 7c7.33301 0 14.333 0.166992 21 0.5s13.667 -0.166992 21 -1.5c9.33301 -1.33301 18.5 -3.33301 27.5 -6s17.5 -6.33398 25.5 -11.001
c34 -16.667 59.333 -42 76 -76z" />
    <glyph glyph-name="n" unicode="n" horiz-adv-x="554" 
d="M530 311c9.33301 -21.333 14.0029 -45.3369 14.0029 -72.0039v-130v-103c0 -4 -2.16699 -6 -6.5 -6s-6.5 2 -6.5 6v52v151v36c0 16.667 -2.5 33 -7.5 49s-12.833 30.667 -23.5 44c-22 29.333 -50.667 48.666 -86 57.999c-13.333 2.66699 -28.333 4 -45 4
c-7.33301 0 -14.5 -0.166992 -21.5 -0.5s-14.167 -1.16602 -21.5 -2.49902c-36 -6 -66 -23.667 -90 -53c-11.333 -13.333 -20.166 -28.666 -26.499 -45.999s-9.5 -35 -9.5 -53c0 -1.33301 -0.333008 -2 -1 -2v-152v-85c0 -3.33301 -2 -5 -6 -5s-6 1.66699 -6 5v1v99v156v55
v19c0 6 -1 11.667 -3 17c-5.33301 17.333 -16.333 30.666 -33 39.999c-10 4.66699 -21.667 7 -35 7h-60c-4 0 -6 2 -6 6s2 6 6 6h11h38c5.33301 0 10.333 0.166992 15 0.5s9.33398 -0.166992 14.001 -1.5c18.667 -3.33301 34.167 -12.166 46.5 -26.499
s18.5 -31.166 18.5 -50.499v-28c7.33301 17.333 16.666 33 27.999 47s25 25.667 41 35c8 4.66699 16.167 8.83398 24.5 12.501s17.166 6.16699 26.499 7.5c7.33301 2 14.833 3.16699 22.5 3.5s15.167 0.5 22.5 0.5s14.666 -0.166992 21.999 -0.5
s14.666 -1.16602 21.999 -2.49902c17.333 -2.66699 34.666 -9 51.999 -19c32 -18.667 55.333 -45 70 -79z" />
    <glyph glyph-name="o" unicode="o" horiz-adv-x="482" 
d="M385 374c27.333 -20 48.667 -45 64 -75s23 -62 23 -96c0 -44.667 -12.667 -84.667 -38 -120c-19.333 -28 -43.833 -49.833 -73.5 -65.5s-61.5 -24.167 -95.5 -25.5c-34 -0.666992 -66.167 6.5 -96.5 21.5s-55.5 35.833 -75.5 62.5c-20.667 27.333 -34 58 -40 92
s-3.66699 67.333 7 100c10.667 31.333 27.5 59 50.5 83s50.5 41.333 82.5 52c32 11.333 65 14.333 99 9s65 -18 93 -38zM373.001 38c28 18.667 49.665 42.5 64.998 71.5s23 60.167 23 93.5c0 28 -5.33301 54 -16 78c-12.667 30 -31.834 55.5 -57.501 76.5
s-54.5 34.833 -86.5 41.5c-32.667 6.66699 -65.167 5.16699 -97.5 -4.5s-60.166 -26.167 -83.499 -49.5c-23.333 -24 -40 -52.167 -50 -84.5s-11.667 -64.833 -5 -97.5c7.33301 -32 21.333 -60.667 42 -86s46.334 -44.666 77.001 -57.999s62.834 -18.333 96.501 -15
s64.5 14.666 92.5 33.999z" />
    <glyph glyph-name="p" unicode="p" horiz-adv-x="591" 
d="M507 363c25.333 -22 44.4941 -48.833 57.4941 -80.5s17.833 -64.5 14.5 -98.5c-3.33301 -33.333 -14.166 -64 -32.499 -92s-42.166 -50.667 -71.499 -68c-32.667 -18 -68 -26.833 -106 -26.5s-73 10.166 -105 29.499c-9.33301 6 -18.333 12.667 -27 20l-25 22l-30 27
v-111v-141v-107v-42c0 -3.33301 -1.83301 -5 -5.5 -5s-5.5 1.66699 -5.5 5v5v65v121v146v76v2v62v104v29v9.5c0 3 -0.333008 6.16699 -1 9.5c-1.33301 7.33301 -4.16602 14.5 -8.49902 21.5s-10.166 12.5 -17.499 16.5c-9.33301 6.66699 -20.666 10 -33.999 10h-54
c-4 0 -6 1.83301 -6 5.5s2 5.5 6 5.5h41h12.5c4.33301 0 8.83301 -0.333008 13.5 -1c16.667 -2 31 -10 43 -24c10.667 -12.667 16 -28.334 16 -47.001v-15l16.5 26c5.66699 8.66699 12.167 16.667 19.5 24c12.667 13.333 26.834 25 42.501 35s32.5 17.667 50.5 23
c34 10.667 68.333 12.334 103 5.00098s65.667 -22.666 93 -45.999zM567.994 192c2 33.333 -3.83105 65.166 -17.498 95.499s-33.834 55.5 -60.501 75.5c-28.667 21.333 -60.834 34 -96.501 38s-69.5 -1 -101.5 -15c-15.333 -7.33301 -30.666 -17 -45.999 -29
c-6 -5.33301 -11.667 -10.666 -17 -15.999s-10 -11 -14 -17l-15 -21.5l-15 -21.5c-0.666992 -1.33301 -1.16699 -2 -1.5 -2s-0.833008 -0.333008 -1.5 -1v-29v-119v-19l17.5 -16l17.5 -16c7.33301 -6 14.5 -12.333 21.5 -19s14.5 -12.667 22.5 -18
c34 -22.667 71.667 -34 113 -34c33.333 0 64.666 8.33301 93.999 25c28.667 16.667 52 39 70 67s28 58.667 30 92z" />
    <glyph glyph-name="q" unicode="q" horiz-adv-x="603" 
d="M587 392c4 0 5.99707 -1.83398 5.99707 -5.50098s-2 -5.5 -6 -5.5h-33h-25c-16 0 -30 -6 -42 -18s-18 -27 -18 -45v-33c0.666992 -1.33301 0.666992 -2.33301 0 -3v-28v-121v-17v-2v-130v-144v-110v-43c0 -3.33301 -1.83301 -5 -5.5 -5s-5.5 1.66699 -5.5 5v6v72v126v150
v61l-2 -2l-23 -23l-24 -23c-11.333 -11.333 -23.833 -20.833 -37.5 -28.5s-28.167 -14.167 -43.5 -19.5c-35.333 -11.333 -71.166 -13.166 -107.499 -5.49902s-68.5 23.5 -96.5 47.5c-26 23.333 -45.5 51.166 -58.5 83.499s-17.5 65.833 -13.5 100.5
c3.33301 34 14.5 65.5 33.5 94.5s43.5 51.833 73.5 68.5c32 18.667 67 28 105 28s73 -9.33301 105 -28c13.333 -7.33301 25.833 -16.166 37.5 -26.499s21.834 -21.833 30.501 -34.5c3.33301 -5.33301 6.83301 -10.5 10.5 -15.5s7.16699 -10.167 10.5 -15.5v11
c0 5.33301 0.166992 10.5 0.5 15.5s1.5 9.83301 3.5 14.5c6.66699 17.333 17.334 30.333 32.001 39c12 6 24.667 9 38 9h55zM420.997 81.999c6.66699 6 13.0029 11.999 19.0029 17.999l18 18v65v99l-16.5 24.5l-16.5 24.5c-3.33301 5.33301 -7.5 10.5 -12.5 15.5
s-10.167 9.83301 -15.5 14.5c-12.667 12 -28.334 22.333 -47.001 31c-32.667 15.333 -67.167 21.5 -103.5 18.5s-69.5 -15.167 -99.5 -36.5c-28 -19.333 -49.5 -44.5 -64.5 -75.5s-21.833 -63.5 -20.5 -97.5s10.666 -65.667 27.999 -95s40.666 -52.666 69.999 -69.999
c32.667 -19.333 68.167 -28.833 106.5 -28.5s73.5 10.833 105.5 31.5c5.33301 3.33301 10.333 6.83301 15 10.5s9 7.5 13 11.5z" />
    <glyph glyph-name="r" unicode="r" horiz-adv-x="371" 
d="M355 410c4 0 6.00098 -2.00098 6.00098 -6.00098s-2 -6 -6 -6c-17.333 0 -33 -2.33301 -47 -7c-34.667 -11.333 -62 -31.666 -82 -60.999c-10.667 -14.667 -18.834 -30.667 -24.501 -48s-8.5 -35.333 -8.5 -54c0 -1.33301 -0.333008 -2.33301 -1 -3v-133v-86
c0 -4 -1.83301 -6 -5.5 -6s-5.5 2 -5.5 6v93v159v57v17c0 6 -0.666992 11.667 -2 17c-5.33301 18.667 -15.333 32.334 -30 41.001c-10 5.33301 -21.667 8 -35 8h-58c-3.33301 0 -5 2.16699 -5 6.5s1.66699 6.5 5 6.5h6h35h25c18.667 -1.33301 34.667 -8.83301 48 -22.5
s20.666 -30.167 21.999 -49.5c0.666992 -5.33301 0.833984 -10.166 0.500977 -14.499s-0.5 -8.83301 -0.5 -13.5v-19c13.333 35.333 34.333 63.666 63 84.999c14.667 11.333 30.5 19.666 47.5 24.999s34.5 8 52.5 8z" />
    <glyph glyph-name="s" unicode="s" horiz-adv-x="275" 
d="M56 42c-2.66699 3.33301 -2.66211 6.50195 0.00488281 9.50195s5.66699 2.83301 9 -0.5c22 -24 48.667 -36.667 80 -38c8.66699 -0.666992 17.167 -0.666992 25.5 0s16.166 2.66699 23.499 6c8 3.33301 15.5 7.83301 22.5 13.5s13.167 12.167 18.5 19.5
c10 14.667 15.667 31.167 17 49.5s-2.33398 35.5 -11.001 51.5c-9.33301 15.333 -21.666 27.666 -36.999 36.999c-8 4 -16.667 7 -26 9c-4 1.33301 -8 2 -12 2h-12c-19.333 1.33301 -37 6.83301 -53 16.5s-28.667 22.834 -38 39.501c-8.66699 16 -13 33.667 -13 53
s4.66699 36.666 14 51.999c9.33301 16.667 22.166 29.834 38.499 39.501s34.166 14.5 53.499 14.5c4 0 6 -2 6 -6l-6 6c38 0 70 -14 96 -42c2.66699 -3.33301 2.66699 -6.5 0 -9.5s-5.66699 -2.83301 -9 0.5c-11.333 12 -24.5 21.333 -39.5 28s-30.833 10.334 -47.5 11.001
c-4 0 -6 2 -6 6l6 -6c-14.667 0 -28.334 -3.16699 -41.001 -9.5s-23.667 -15.166 -33 -26.499c-10.667 -14 -17 -30.167 -19 -48.5s0.666992 -35.5 8 -51.5c8 -16.667 19.667 -29.834 35 -39.501s32 -14.5 50 -14.5c19.333 0 37.166 -4.33301 53.499 -13s29.5 -21 39.5 -37
c9.33301 -16 14.5 -33.5 15.5 -52.5s-2.83301 -36.833 -11.5 -53.5c-8.66699 -17.333 -21 -31 -37 -41s-33.667 -15.667 -53 -17c-9.33301 -0.666992 -18.5 -0.333984 -27.5 0.999023s-18.167 3.66602 -27.5 6.99902c-20 7.33301 -37.333 18.666 -52 33.999z" />
    <glyph glyph-name="t" unicode="t" horiz-adv-x="247" 
d="M230 12c4 0 6 -2.00098 6 -6.00098s-2 -6 -6 -6c-20.667 0 -40.667 3.33301 -60 10c-17.333 6.66699 -33.333 15.334 -48 26.001s-27.334 23.667 -38.001 39c-21.333 30.667 -32.666 64.667 -33.999 102v1v46v132v162v138v58c0 4 2.16699 6 6.5 6s6.5 -2 6.5 -6v-47v-131
v-125h48h120c4 0 6 -2 6 -6s-2 -6 -6 -6h-51h-117v-24v-139v-56c0 -16 2 -31.333 6 -46c10.667 -36 30.334 -65 59.001 -87c15.333 -11.333 31.666 -20 48.999 -26s35 -9 53 -9z" />
    <glyph glyph-name="u" unicode="u" horiz-adv-x="391" 
d="M50 408c0 4 2.16797 6.00098 6.50098 6.00098s6.5 -2 6.5 -6v-37v-154v-48c0 -14 1.5 -27.667 4.5 -41s8.16699 -26 15.5 -38c9.33301 -15.333 20.833 -29 34.5 -41s29.167 -21 46.5 -27c17.333 -6.66699 35.666 -9.83398 54.999 -9.50098s37.666 4.16602 54.999 11.499
c34 14.667 60 38.667 78 72c11.333 22 17 46.667 17 74v131v106c0 4.66699 2 7 6 7s6 -2.33301 6 -7v-51v-155v-35c0 -18 -2.83301 -35.667 -8.5 -53s-14.167 -33 -25.5 -47c-11.333 -15.333 -24.833 -28.166 -40.5 -38.499s-32.5 -17.833 -50.5 -22.5
c-18.667 -4.66699 -37.667 -6 -57 -4s-37.666 7.33301 -54.999 16c-16.667 8 -31.667 18.5 -45 31.5s-24 28.167 -32 45.5c-6 12 -10.333 24.333 -13 37s-4 25.667 -4 39v131v107v0z" />
    <glyph glyph-name="v" unicode="v" horiz-adv-x="404" 
d="M389 412c1.33301 -0.666992 2.5 -1.83008 3.5 -3.49707s1.16699 -3.16699 0.5 -4.5l-12 -29l-12 -29c-9.33301 -23.333 -19 -46.333 -29 -69s-19.667 -45.667 -29 -69l-28.5 -70l-29.5 -70c-4 -10.667 -8.16699 -21.167 -12.5 -31.5l-13.5 -32.5
c-1.33301 -2.66699 -3.33301 -4.16699 -6 -4.5s-4.66699 1.16699 -6 4.5l-12 29l-12 29l-28 69l-28 69l-28.5 70l-28.5 70l-13.5 32l-13.5 32c-1.33301 4 0.333984 6.66699 5.00098 8c3.33301 1.33301 5.66602 -0.333984 6.99902 -5.00098l24 -57l28 -69l28 -69l28.5 -70
l29.5 -70l10 -25l10 -25c3.33301 7.33301 6.33301 14.666 9 21.999s5.66699 14.666 9 21.999l57 138l29.5 69.5l28.5 69.5l13.5 32.5l13.5 31.5c1.33301 4 4 5.66699 8 5z" />
    <glyph glyph-name="w" unicode="w" horiz-adv-x="735" 
d="M719 412c4.66699 -1.33301 6.33496 -4 5.00195 -8l-12 -28.5l-12 -29.5c-9.33301 -23.333 -19 -46.166 -29 -68.499s-19.667 -45.166 -29 -68.499l-28.5 -70l-29.5 -70c-4.66699 -10.667 -9 -21.334 -13 -32.001s-8.33301 -21.334 -13 -32.001
c-1.33301 -3.33301 -3.33301 -5 -6 -5s-4.66699 1.66699 -6 5l-24 57l-28 69l-28 69l-28.5 70l-28.5 70c-3.33301 8.66699 -7 17.167 -11 25.5s-7.66699 16.833 -11 25.5l-18 -45c-9.33301 -23.333 -19 -46.166 -29 -68.499s-19.667 -45.166 -29 -68.499l-28.5 -70
l-29.5 -70c-4.66699 -10.667 -9 -21.334 -13 -32.001s-8.33301 -21.334 -13 -32.001c-1.33301 -3.33301 -3.33301 -5 -6 -5s-4.66699 1.66699 -6 5l-24 57l-28 69l-28 69l-28.5 70l-28.5 70l-13.5 32l-13.5 32c-1.33301 4 0.333984 6.66699 5.00098 8
c3.33301 1.33301 5.66602 -0.333984 6.99902 -5.00098l12 -28.5c4 -9.66699 7.66699 -19.167 11 -28.5l28.5 -68l28.5 -69l57 -141l10.5 -24.5l10.5 -24.5c3.33301 7.33301 6.33301 14.5 9 21.5s5.66699 14.167 9 21.5l57 138l29 69.5l29 69.5l13.5 32.5l13.5 31.5
c1.33301 3.33301 3.33301 5 6 5c3.33301 0 5.66602 -1.66699 6.99902 -5l12 -28.5c4 -9.66699 7.66699 -19.167 11 -28.5l28.5 -68l28.5 -69l57 -141l10.5 -24.5l10.5 -24.5c3.33301 7.33301 6.33301 14.5 9 21.5s5.66699 14.167 9 21.5l57 138l29 69.5l29 69.5l13.5 32.5
l13.5 31.5c1.33301 4.66699 3.66602 6.33398 6.99902 5.00098z" />
    <glyph glyph-name="x" unicode="x" horiz-adv-x="294" 
d="M283 10c2 -3.33301 1.16992 -5.99902 -2.49707 -7.99902s-6.5 -1.33301 -8.5 2l-2 4l-31.5 57.5l-31.5 57.5l-33 60c-1.33301 2 -2.5 4.16699 -3.5 6.5s-2.16699 4.5 -3.5 6.5l-27 -49.5l-27 -48.5l-25.5 -47.5l-25.5 -46.5c-2 -3.33301 -4.83301 -4 -8.5 -2
s-4.5 4.66699 -2.5 8h1l28 51.5l28 51.5l24.5 45.5l25.5 45.5l-28 52l-28 52l-25.5 46.5l-25.5 47.5c-1.33301 3.33301 -0.333008 6 3 8s6 1.33301 8 -2l2 -4l31 -57.5l31 -57.5l16.5 -30.5l16.5 -30.5c1.33301 -2.66699 2.66602 -5.16699 3.99902 -7.5
s2.66602 -4.83301 3.99902 -7.5l27.5 50l27.5 51l25.5 46.5l24.5 47.5c2 3.33301 4.83301 4 8.5 2s4.5 -4.66699 2.5 -8c0 -0.666992 -0.333008 -1.33398 -1 -2.00098l-57 -105l-24 -45.5l-24 -45.5l27 -50l27 -50c9.33301 -15.333 18.166 -31 26.499 -47z" />
    <glyph glyph-name="y" unicode="y" horiz-adv-x="390" 
d="M377 412c2.66699 -2 3.33398 -4.99902 2.00098 -8.99902c-1.33301 -3.33301 -3 -7 -5 -11s-3.66699 -7.66699 -5 -11l-21.5 -49.5l-21.5 -49.5l-31.5 -71l-31.5 -71l-32.5 -74.5l-32.5 -74.5l-25.5 -58c-8.33301 -19.333 -17.166 -38.666 -26.499 -57.999l-10 -24
l-10 -24c-2.66699 -4 -5.66699 -4.66699 -9 -2c-3.33301 2 -4 4.66699 -2 8c2.66699 8 6 15.667 10 23l21.5 49.5l21.5 48.5c7.33301 15.333 14.166 30.833 20.499 46.5s13.166 31.167 20.499 46.5c-1.33301 3.33301 -2.83301 6.66602 -4.5 9.99902
s-3.16699 6.66602 -4.5 9.99902l-27 61l-27 61l-63 144l-15.5 35.5l-15.5 34.5c-2 4 -1.33301 7 2 9c4 1.33301 7 0.666016 9 -2.00098l9 -21l26.5 -61l26.5 -61l32 -72l32 -72l26 -61l16 35l32 74l33 74l51 117l21 48c2 2.66699 5 3.33398 9 2.00098z" />
    <glyph glyph-name="z" unicode="z" horiz-adv-x="383" 
d="M366 12c4 0 6.00098 -2.00098 6.00098 -6.00098s-2 -6 -6 -6h-62h-157h-90c-2 0 -3.66699 1 -5 3s-1.33301 4 0 6l7.5 9.5l7.5 9.5l35.5 46.5l35.5 46.5l49.5 63.5l48.5 63.5l43.5 56.5l43.5 56.5l30 39h-49h-157h-89c-4 0 -6 2 -6 6s2 6 6 6h62h157h89
c2 0 3.66699 -1 5 -3s1.33301 -4 0 -6c-4.66699 -5.33301 -9.33398 -11.666 -14.001 -18.999l-72 -93l-49.5 -63.5l-48.5 -63.5l-43.5 -56.5l-43.5 -56.5l-30 -39h50h157h89v0z" />
    <glyph glyph-name="braceleft" unicode="{" horiz-adv-x="323" 
d="M307 9c4 0 6.00098 -2.16602 6.00098 -6.49902s-2 -6.5 -6 -6.5h-12h-123c-4 0 -6 2 -6 6v1v73v119c-0.666992 17.333 -2.16699 34.833 -4.5 52.5s-7.16602 34.167 -14.499 49.5c-5.33301 10.667 -11 20 -17 28c-4.66699 4.66699 -8.33398 8 -11.001 10
c-1.33301 1.33301 -2.66602 2.33301 -3.99902 3c-1.33301 1.33301 -2.33301 2.16602 -3 2.49902s-1.33398 0.833008 -2.00098 1.5l-6 3c-0.666992 0 -1.33398 0.333008 -2.00098 1h-1h-1c-2.66699 1.33301 -6 2.66602 -10 3.99902
c-1.33301 0 -2.66602 0.166992 -3.99902 0.5s-2.66602 0.5 -3.99902 0.5s-2 0.333008 -2 1h-2h-4h-6.5c-2.33301 0 -4.5 -0.333008 -6.5 -1h-2h-1c-2.66699 -1.33301 -4.83398 -0.833008 -6.50098 1.5s-1.83398 4.5 -0.500977 6.5c-1.33301 2 -1.16602 4.16699 0.500977 6.5
s3.83398 2.83301 6.50098 1.5h2h1h2c3.33301 -0.666992 8 -1 14 -1c0.666992 0.666992 2 1 4 1h1h2c1.33301 0.666992 3 1.16699 5 1.5s3.66699 0.833008 5 1.5c1.33301 0 2.16602 0.166992 2.49902 0.5s1.16602 0.5 2.49902 0.5c0.666992 0.666992 1.33398 1 2.00098 1l2 1
c2 1.33301 3.83301 2.33301 5.5 3s3.5 1.66699 5.5 3s3.5 2.5 4.5 3.5s2.5 2.16699 4.5 3.5c4.66699 4.66699 8 8.33398 10 11.001c7.33301 9.33301 13 19.333 17 30c6.66699 17.333 11 35 13 53s3 36 3 54v182c0 4 2 6 6 6h12h123c4 0 6 -2.16699 6 -6.5s-2 -6.5 -6 -6.5
h-12h-117v-83v-61c0 -10 0.166992 -20 0.5 -30s-0.166992 -20.333 -1.5 -31c-0.666992 -12.667 -2.16699 -25.834 -4.5 -39.501s-5.83301 -26.834 -10.5 -39.501s-11 -24.334 -19 -35.001s-18 -19.334 -30 -26.001c-1.33301 -1.33301 -3 -2.16602 -5 -2.49902
s-4 -1.16602 -6 -2.49902c8.66699 -3.33301 15.667 -7 21 -11c9.33301 -7.33301 17.166 -15.666 23.499 -24.999s11.5 -19.333 15.5 -30c6.66699 -17.333 11 -35.166 13 -53.499s3 -36.833 3 -55.5v-175h6h123v0z" />
    <glyph glyph-name="bar" unicode="|" horiz-adv-x="72" 
d="M62 6c0 -4 -2 -6 -6 -6s-6 2 -6 6v7v76v135v162v155v117v46c0 4 2 6 6 6s6 -2 6 -6v-7v-77v-135v-161v-155v-117v-46v0z" />
    <glyph glyph-name="braceright" unicode="}" horiz-adv-x="323" 
d="M56 9l123.001 -0.000976562h6v175c0 18.667 1 37.167 3 55.5s6.33301 36.166 13 53.499c4 10.667 9.16699 20.667 15.5 30s14.166 17.666 23.499 24.999c5.33301 4 12.333 7.66699 21 11c-2 1.33301 -4 2.16602 -6 2.49902s-3.66699 1.16602 -5 2.49902
c-12 6.66699 -22 15.334 -30 26.001s-14.333 22.334 -19 35.001s-8.16699 25.834 -10.5 39.501s-3.83301 26.834 -4.5 39.501c-1.33301 10.667 -1.83301 21 -1.5 31s0.5 20 0.5 30v61v83h-117h-12c-4 0 -6 2.16699 -6 6.5s2 6.5 6 6.5h123h12c4 0 6 -2 6 -6v-182
c0 -18 1 -36 3 -54s6.33301 -35.667 13 -53c4 -10.667 9.66699 -20.667 17 -30c2 -2.66699 5.33301 -6.33398 10 -11.001c2 -1.33301 3.5 -2.5 4.5 -3.5s2.5 -2.16699 4.5 -3.5s3.83301 -2.33301 5.5 -3s3.5 -1.66699 5.5 -3l2 -1c0.666992 0 1.33398 -0.333008 2.00098 -1
c1.33301 0 2.16602 -0.166992 2.49902 -0.5s1.16602 -0.5 2.49902 -0.5c1.33301 -0.666992 3 -1.16699 5 -1.5s3.66699 -0.833008 5 -1.5h2h1c2 0 3.33301 -0.333008 4 -1c6 0 10.667 0.333008 14 1h2h1h2c2.66699 1.33301 4.83398 0.833008 6.50098 -1.5
s1.83398 -4.5 0.500977 -6.5c1.33301 -2 1.16602 -4.16699 -0.500977 -6.5s-3.83398 -2.83301 -6.50098 -1.5h-1h-2c-2 0.666992 -4.16699 1 -6.5 1h-6.5h-4h-2c0 -0.666992 -0.666992 -1 -2 -1s-2.66602 -0.166992 -3.99902 -0.5s-2.66602 -0.5 -3.99902 -0.5
c-4 -1.33301 -7.33301 -2.66602 -10 -3.99902h-1h-1c-0.666992 -0.666992 -1.33398 -1 -2.00098 -1l-6 -3c-0.666992 -0.666992 -1.33398 -1.16699 -2.00098 -1.5s-1.66699 -1.16602 -3 -2.49902c-1.33301 -0.666992 -2.66602 -1.66699 -3.99902 -3
c-2.66699 -2 -6.33398 -5.33301 -11.001 -10c-6 -8 -11.667 -17.333 -17 -28c-7.33301 -15.333 -12.166 -31.833 -14.499 -49.5s-3.83301 -35.167 -4.5 -52.5v-119v-73v-1c0 -4 -2 -6 -6 -6h-123h-12c-4 0 -6 2.16699 -6 6.5s2 6.5 6 6.5z" />
    <glyph glyph-name="asciitilde" unicode="~" horiz-adv-x="331" 
d="M63 362c0 -4 -2.16895 -6.00293 -6.50195 -6.00293s-6.5 2 -6.5 6c0 14 3.16699 27.333 9.5 40s16.166 22 29.499 28s26.5 8.16699 39.5 6.5s25.167 -6.83398 36.5 -15.501c6.66699 -4.66699 12.834 -9.66699 18.501 -15l17.5 -16c5.33301 -5.33301 11 -9.83301 17 -13.5
s12.667 -6.16699 20 -7.5c8.66699 -1.33301 17.334 -0.666016 26.001 2.00098s16.334 7 23.001 13c14 12.667 21 28.334 21 47.001c0 4 2.16699 6 6.5 6s6.5 -2 6.5 -6c-0.666992 -15.333 -5.16699 -29.333 -13.5 -42s-19.5 -21.667 -33.5 -27
c-12.667 -6 -26.667 -7.33301 -42 -4c-10.667 2 -21 7.33301 -31 16c-6 4 -11.667 8.83301 -17 14.5s-11 11 -17 16s-12.167 9.33301 -18.5 13s-13.5 5.83398 -21.5 6.50098c-8.66699 0.666992 -17.167 -0.166016 -25.5 -2.49902s-15.5 -6.83301 -21.5 -13.5
c-6 -6 -10.333 -13 -13 -21s-4 -16.333 -4 -25z" />
    <glyph glyph-name="exclamdown" unicode="&#xa1;" horiz-adv-x="84" 
d="M62 698c-4 0 -7 1.33301 -9 4s-3 5.5 -3 8.5s1 5.83301 3 8.5s5 4 9 4s7 -1.33301 9 -4s3 -5.5 3 -8.5s-1 -5.83301 -3 -8.5s-5 -4 -9 -4zM52 174c0.666992 26.667 1 53.333 1 80s0.333008 53.334 1 80.001v79.5c0 26.333 0.333008 52.5 1 78.5v58.5
c0 19.667 0.333008 39.167 1 58.5v38c0 4 2 6 6 6s6 -2 6 -6c0 -8 0.166992 -16.167 0.5 -24.5s0.5 -16.833 0.5 -25.5v-62c0 -20.667 0.333008 -41.667 1 -63v-80c0 -26.667 0.333008 -53.334 1 -80.001v-79.5c0 -26.333 0.333008 -52.5 1 -78.5v-58.5
c0 -19.667 0.333008 -39.167 1 -58.5v-38c0 -2 -0.666992 -3.66699 -2 -5c-0.666992 -0.666992 -2 -1 -4 -1h-10c-4 0 -6 2 -6 6v24.5c0 8.33301 0.333008 16.833 1 25.5v125z" />
    <glyph glyph-name="cent" unicode="&#xa2;" horiz-adv-x="431" 
d="M411 86c2.66699 2.66699 5.33008 2.66406 7.99707 -0.00292969s2.66699 -5.66699 0 -9c-12.667 -15.333 -27 -28.666 -43 -39.999c-17.333 -12.667 -36.166 -22 -56.499 -28s-41.166 -9 -62.499 -9v-18v-53c0 -4 -2 -6 -6 -6s-6 2 -6 6v4v67
c-33.333 2 -63.666 11.333 -90.999 28c-32 18.667 -57.333 43.834 -76 75.501s-28 66.167 -28 103.5v2v2c0 9.33301 0.666992 18.333 2 27s3 17.667 5 27c9.33301 35.333 27 66 53 92s56.667 43.667 92 53c15.333 4.66699 29.666 7.33398 42.999 8.00098v23v53c0 4 2 6 6 6
s6 -2 6 -6v-4v-72c22.667 0 43.667 -3.33301 63 -10c19.333 -6 37.333 -14.833 54 -26.5s31.667 -25.167 45 -40.5c2.66699 -3.33301 2.66699 -6.33301 0 -9c-1.33301 -1.33301 -2.66602 -2 -3.99902 -2s-2.66602 0.666992 -3.99902 2c-7.33301 8.66699 -16 17.667 -26 27
c-15.333 13.333 -32.5 24 -51.5 32s-38.833 12.667 -59.5 14c-2.66699 0.666992 -5.33398 1 -8.00098 1h-9v-137v-158v-99c20 0 38.333 2.33301 55 7c39.333 12 72.333 34.333 99 67zM64.9961 172.997c6.66699 -35.333 21.832 -66.667 45.499 -94s52.5 -46.666 86.5 -57.999
c16 -5.33301 32 -8.33301 48 -9v142v158v93c-13.333 -0.666992 -26.666 -2.83398 -39.999 -6.50098s-26 -8.5 -38 -14.5c-32 -17.333 -57.333 -41 -76 -71c-19.333 -31.333 -29 -65.333 -29 -102v-2v-2c0 -12 1 -23.333 3 -34z" />
    <glyph glyph-name="sterling" unicode="&#xa3;" horiz-adv-x="531" 
d="M508 129c0 4 2.16602 6.00098 6.49902 6.00098s6.5 -2 6.5 -6c-0.666992 -17.333 -4.5 -34.5 -11.5 -51.5s-17.167 -31.5 -30.5 -43.5s-28.666 -21 -45.999 -27s-34.666 -8 -51.999 -6c-16 1.33301 -30.5 5.66602 -43.5 12.999s-25.333 16 -37 26s-23 20.5 -34 31.5
s-22.5 20.833 -34.5 29.5c-6.66699 4 -13.334 7.66699 -20.001 11s-13.667 6 -21 8c-16.667 4 -34 4.33301 -52 1c-18.667 -4.66699 -34.334 -12.667 -47.001 -24c-13.333 -11.333 -23 -25.666 -29 -42.999c-1.33301 -3.33301 -4 -4.5 -8 -3.5s-5.33301 3.5 -4 7.5
c6 16.667 15 31.334 27 44.001s26.667 21.667 44 27c11.333 3.33301 24.333 5.66602 39 6.99902v51v148v151v49v13.5c0 4.33301 0.333008 8.83301 1 13.5c2 38 16 71.667 42 101c12 13.333 26.167 24.833 42.5 34.5s33.5 16.167 51.5 19.5c19.333 3.33301 39 3.5 59 0.5
s38.667 -9.5 56 -19.5c17.333 -9.33301 32.166 -21.5 44.499 -36.5s22.166 -31.5 29.499 -49.5c1.33301 -1.33301 1.33301 -2.83301 0 -4.5s-2.66602 -2.83398 -3.99902 -3.50098c-3.33301 -1.33301 -5.66602 0 -6.99902 4c-11.333 28.667 -29.666 52 -54.999 70
s-53.333 27.667 -84 29c-18.667 1.33301 -36.667 -0.833984 -54 -6.50098s-33.666 -14.167 -48.999 -25.5c-28.667 -22.667 -47.334 -52.334 -56.001 -89.001c-2 -7.33301 -3.16699 -14.666 -3.5 -21.999s-0.5 -14.666 -0.5 -21.999v-43v-88h61h119c4 0 6 -2 6 -6
s-2 -6 -6 -6h-64h-116v-46v-153v-65c8 -0.666992 16 -2.16699 24 -4.5s15.667 -5.16602 23 -8.49902c14 -7.33301 26.667 -16.166 38 -26.499l34 -31.5c10.667 -10 21.834 -19.5 33.501 -28.5s24.5 -15.5 38.5 -19.5c17.333 -4.66699 34.666 -5 51.999 -1
s32.666 11.333 45.999 22c14.667 11.333 25.834 25.166 33.501 41.499s11.5 33.166 11.5 50.499z" />
    <glyph glyph-name="guillemotleft" unicode="&#xab;" horiz-adv-x="382" 
d="M179 527l-29.5 -46.001l-28.5 -46l-28.5 -45.5l-28.5 -45.5l28 -44.5l28 -44.5l29 -47l30 -47c2 -3.33301 1.16699 -6 -2.5 -8s-6.5 -1.33301 -8.5 2l-29 46l-29 46l-29.5 47.5l-29.5 46.5c-1.33301 2.66699 -1.33301 4.66699 0 6l29 46.5l29 46.5l29.5 46.5l29.5 47.5
c2 3.33301 4.83301 3.83301 8.5 1.5s4.5 -5.16602 2.5 -8.49902zM371 526.999l-29 -46.001l-29 -46l-28.5 -45.5l-28.5 -45.5l28 -44.5l28 -44.5l29.5 -47l29.5 -47c2 -3.33301 1.33301 -6 -2 -8s-6.33301 -1.33301 -9 2l-28.5 46l-29.5 46l-29 47.5l-29 46.5
c-2.66699 2.66699 -2.66699 4.66699 0 6l57 93l30 46.5l29 47.5c2.66699 3.33301 5.66699 3.83301 9 1.5s4 -5.16602 2 -8.49902z" />
    <glyph glyph-name="guillemotright" unicode="&#xbb;" horiz-adv-x="382" 
d="M243 527c-2 3.33301 -1.16699 6.16699 2.5 8.5s6.5 1.83301 8.5 -1.5l29.5 -47.5l29.5 -46.5l29 -46.5l29 -46.5c1.33301 -1.33301 1.33301 -3.33301 0 -6l-29.5 -46.5l-29.5 -47.5l-29 -46l-29 -46c-2 -3.33301 -4.83301 -4 -8.5 -2s-4.5 4.66699 -2.5 8l30 47l29 47
l28 44.5l28 44.5l-28.5 45.5l-28.5 45.5l-28.5 46zM51 527.001c-2 3.33301 -1.33301 6.16699 2 8.5s6.33301 1.83301 9 -1.5l29 -47.5l30 -46.5l57 -93c2.66699 -1.33301 2.66699 -3.33301 0 -6l-29 -46.5l-29 -47.5l-29.5 -46l-28.5 -46
c-2.66699 -3.33301 -5.66699 -4 -9 -2s-4 4.66699 -2 8l29.5 47l29.5 47l28 44.5l28 44.5l-28.5 45.5l-28.5 45.5l-29 46z" />
    <glyph glyph-name="questiondown" unicode="&#xbf;" horiz-adv-x="402" 
d="M274 700c-4 0 -7.16699 1.33301 -9.5 4s-3.5 5.5 -3.5 8.5s1.16699 5.83301 3.5 8.5s5.5 4 9.5 4s7 -1.33301 9 -4s3 -5.5 3 -8.5s-1 -5.83301 -3 -8.5s-5 -4 -9 -4zM155 8c-18.667 7.33301 -35.9951 17.001 -51.9951 29.001s-28.333 27.333 -37 46
c-8 16.667 -12.833 34.167 -14.5 52.5s-0.833984 36.166 2.49902 53.499c3.33301 20 9.33301 39 18 57s18.667 35.333 30 52l18 25.5c6 8.33301 12.667 16.166 20 23.499c5.33301 6 11 11.833 17 17.5l18 17.5c13.333 12.667 26 25.5 38 38.5s23 27.167 33 42.5l9 15
c0 0.666992 0.166992 1 0.5 1s0.5 0.333008 0.5 1v1l1 1c0.666992 2.66699 1.16699 5.33398 1.5 8.00098s0.833008 5.33398 1.5 8.00098c1.33301 7.33301 2.33301 15 3 23l2 24c1.33301 17.333 2.33301 34.833 3 52.5s1 35.167 1 52.5c0 4 2 6 6 6s6 -2 6 -6
c0 -22.667 -0.333008 -45.167 -1 -67.5s-2.33398 -44.833 -5.00098 -67.5l-2 -18.5c-0.666992 -6.33301 -2.33398 -12.5 -5.00098 -18.5c-1.33301 -4 -3 -7.66699 -5 -11s-4.33301 -6.66602 -7 -9.99902c-2.66699 -4.66699 -5.5 -9.16699 -8.5 -13.5
s-6.16699 -8.5 -9.5 -12.5c-10.667 -13.333 -22 -26 -34 -38l-36 -35c-29.333 -29.333 -54.333 -61.666 -75 -96.999c-9.33301 -15.333 -16.5 -31.833 -21.5 -49.5s-7.83301 -35.834 -8.5 -54.501c-0.666992 -17.333 1.66602 -34.5 6.99902 -51.5s14 -32.167 26 -45.5
c14 -15.333 30.833 -27.333 50.5 -36s39.834 -14 60.501 -16c19.333 -2 39.166 -1 59.499 3s38.5 12.333 54.5 25c15.333 12.667 28.666 27 39.999 43c4.66699 7.33301 8.83398 15.166 12.501 23.499s5.5 17.166 5.5 26.499c0 4 2.16699 6 6.5 6s6.5 -2 6.5 -6
c-0.666992 -15.333 -4.83398 -29.5 -12.501 -42.5s-16.167 -24.833 -25.5 -35.5c-10 -11.333 -21 -21.333 -33 -30c-12 -8 -25 -14 -39 -18c-20.667 -6.66699 -42 -9.5 -64 -8.5s-43 5.5 -63 13.5z" />
    <glyph glyph-name="Agrave" unicode="&#xc0;" horiz-adv-x="518" 
d="M300 860c-3.33301 2 -4.00098 4.66699 -2.00098 8c0 1.33301 0.333008 2.33301 1 3l23.5 54l23.5 54c2 3.33301 5 4.33301 9 3c2.66699 -2 3.33398 -5 2.00098 -9c0 -0.666992 -0.166992 -1 -0.5 -1s-0.5 -0.333008 -0.5 -1l-24 -54.5l-23 -54.5
c-2.66699 -4 -5.66699 -4.66699 -9 -2zM457.999 120l-21.498 70.501l-21.5 70.5h-15h-146h-101c-4 0 -6 2.16699 -6 6.5s2 6.5 6 6.5h20h146h92l-22 72.5l-22 72.5l-23.5 73.5l-22.5 74.5l-16.5 54l-16.5 55c-2.66699 6.66699 -5 14.334 -7 23.001
c-1.33301 -2.66699 -2 -4.33398 -2 -5.00098c-5.33301 -16 -10.333 -31.833 -15 -47.5s-9.66699 -31.5 -15 -47.5l-21.5 -70l-21.5 -70l-25 -79.5l-25 -78.5l-22.5 -74l-23.5 -74l-16.5 -54l-17.5 -55c-2 -7.33301 -4.16699 -14.333 -6.5 -21s-4.5 -13.667 -6.5 -21
c-1.33301 -4 -4 -5.5 -8 -4.5s-5.33301 3.5 -4 7.5c2 7.33301 4.66699 15.666 8 24.999l14 47c4.66699 16 9.66699 32 15 48l22 70l22 70l24.5 79l24.5 79l23.5 73.5l22.5 73.5l17.5 55l16.5 54c2.66699 7.33301 5 14.5 7 21.5s4.33301 14.167 7 21.5
c0.666992 3.33301 2.5 5 5.5 5s5.16699 -1.66699 6.5 -5c1.33301 -4 2.5 -8 3.5 -12s2.16699 -8 3.5 -12c5.33301 -16 10.166 -31.833 14.499 -47.5s9.16602 -31.5 14.499 -47.5l21.5 -70l21.5 -70l24.5 -79.5l24.5 -78.5l22.5 -74l22.5 -74
c5.33301 -18 11 -36.167 17 -54.5s11.667 -36.5 17 -54.5c2 -7.33301 4.16699 -14.5 6.5 -21.5s4.5 -14.167 6.5 -21.5c1.33301 -4 0 -6.5 -4 -7.5s-6.66699 0.5 -8 4.5l-4 12l-4 12l-14 47c-4.66699 16 -9.66699 31.667 -15 47z" />
    <glyph glyph-name="Aacute" unicode="&#xc1;" horiz-adv-x="518" 
d="M400 261l-145.998 -0.00195312h-101c-4 0 -6 2.16699 -6 6.5s2 6.5 6 6.5h19h147h92l-22 72.5l-22 72.5l-23.5 73.5l-22.5 74.5l-16.5 54l-16.5 55l-4 11.5l-4 11.5c0 -1.33301 -0.166992 -2.16602 -0.5 -2.49902s-0.5 -1.16602 -0.5 -2.49902
c-5.33301 -16 -10.333 -31.833 -15 -47.5s-9.66699 -31.5 -15 -47.5l-22 -70l-22 -70l-24 -79.5l-25 -78.5l-23 -74l-23 -74c-5.33301 -18 -11 -36 -17 -54s-11.667 -36.333 -17 -55c-2 -7.33301 -4.16699 -14.333 -6.5 -21s-4.5 -13.667 -6.5 -21
c-1.33301 -4 -4 -5.5 -8 -4.5s-5.33301 3.5 -4 7.5s2.5 8.16699 3.5 12.5s2.16699 8.5 3.5 12.5c5.33301 15.333 10.333 31 15 47s9.66699 32 15 48l22 70l22 70l24.5 79l24.5 79l23.5 73.5l22.5 73.5l17.5 55l16.5 54c2.66699 7.33301 5 14.5 7 21.5l6 21.5
c1.33301 3.33301 3.5 5 6.5 5s5.16699 -1.66699 6.5 -5c1.33301 -4 2.5 -8 3.5 -12s2.16699 -8 3.5 -12c5.33301 -16 10.166 -31.833 14.499 -47.5s9.16602 -31.5 14.499 -47.5l21.5 -70l21.5 -70l24.5 -79.5l24.5 -78.5l22.5 -74l22.5 -74l16.5 -54.5l17.5 -54.5l6 -21.5
c2 -7 4.33301 -14.167 7 -21.5c1.33301 -4 0 -6.5 -4 -7.5s-6.66699 0.5 -8 4.5l-4 12l-4 12l-14 47c-4.66699 16 -9.66699 31.667 -15 47l-21.5 70.5l-21.5 70.5h-15zM164.002 862.998c-3.33301 -2.66699 -6.50195 -2.5 -9.50195 0.5s-2.83301 5.83301 0.5 8.5l24 24l91 85
c1.33301 1.33301 2.66602 1.66602 3.99902 0.999023c0.666992 0.666992 2.33398 0.333984 5.00098 -0.999023l12 -12c4 -4 8 -7.66699 12 -11l45.5 -43l45.5 -43c3.33301 -2.66699 3.5 -5.5 0.5 -8.5s-6.16699 -3.16699 -9.5 -0.5l-12 12c-4 4 -8.33301 8 -13 12l-42.5 40.5
l-43.5 40.5c-3.33301 -3.33301 -6.66602 -6.5 -9.99902 -9.5s-6.66602 -6.16699 -9.99902 -9.5l-45 -43z" />
    <glyph glyph-name="Acircumflex" unicode="&#xc2;" horiz-adv-x="518" 
d="M248 864l-24 54.998l-23 54c-2.66699 3.33301 -2 6.33301 2 9c4.66699 1.33301 7.33398 0.333008 8.00098 -3c0.666992 0 1 -0.666992 1 -2l24 -54l24 -55c1.33301 -3.33301 0.666016 -6 -2.00098 -8c-1.33301 -1.33301 -3 -1.66602 -5 -0.999023s-3.33301 1.66699 -4 3
c0 0.666992 -0.333008 1.33398 -1 2.00098zM63 1.99805c-1.33301 -4 -3.99805 -5.50195 -7.99805 -4.50195s-5.33301 3.5 -4 7.5s2.5 8.16699 3.5 12.5s2.16699 8.5 3.5 12.5c5.33301 15.333 10.333 31 15 47s9.66699 32 15 48l22 70l22 70l24.5 79l24.5 79l23.5 73.5
l22.5 73.5l17.5 55l16.5 54c2.66699 7.33301 5 14.5 7 21.5l6 21.5c1.33301 3.33301 3.5 5 6.5 5s5.16699 -1.66699 6.5 -5c1.33301 -4 2.5 -8 3.5 -12s2.16699 -8 3.5 -12c5.33301 -16 10.166 -31.833 14.499 -47.5s9.16602 -31.5 14.499 -47.5l21.5 -70l21.5 -70
l24.5 -79.5l24.5 -78.5l22.5 -74l22.5 -74l16.5 -54.5l17.5 -54.5l6 -21.5c2 -7 4.33301 -14.167 7 -21.5c1.33301 -4 0 -6.5 -4 -7.5s-6.66699 0.5 -8 4.5l-4 12l-4 12l-14 47c-4.66699 16 -9.66699 31.667 -15 47l-21.5 70.5l-21.5 70.5h-15h-146h-101
c-4 0 -6 2.16699 -6 6.5s2 6.5 6 6.5h19h147h92l-22 72.5l-22 72.5l-23.5 73.5l-22.5 74.5l-16.5 54l-16.5 55l-4 11.5l-4 11.5c0 -1.33301 -0.166992 -2.16602 -0.5 -2.49902s-0.5 -1.16602 -0.5 -2.49902c-5.33301 -16 -10.333 -31.833 -15 -47.5
s-9.66699 -31.5 -15 -47.5l-22 -70l-22 -70l-24 -79.5l-25 -78.5l-23 -74l-23 -74c-5.33301 -18 -11 -36 -17 -54s-11.667 -36.333 -17 -55c-2 -7.33301 -4.16699 -14.333 -6.5 -21s-4.5 -13.667 -6.5 -21z" />
    <glyph glyph-name="Atilde" unicode="&#xc3;" horiz-adv-x="518" 
d="M401 261l-147.003 0.00195312h-100c-4 0 -6 2.16699 -6 6.5s2 6.5 6 6.5h19h147h92l-22.5 72.5l-22.5 72.5l-22.5 73.5l-22.5 74.5c-5.33301 18 -11 36 -17 54s-11.667 36.333 -17 55c-1.33301 4 -2.5 7.83301 -3.5 11.5s-2.16699 7.5 -3.5 11.5
c0 -0.666992 -0.666992 -2.33398 -2 -5.00098l-14 -47.5c-4.66699 -15.667 -9.66699 -31.5 -15 -47.5l-22 -70l-22 -70l-24.5 -79.5l-24.5 -78.5l-23.5 -74l-22.5 -74l-17.5 -54l-16.5 -55c-2.66699 -7.33301 -5 -14.333 -7 -21l-6 -21
c-1.33301 -4 -4.16602 -5.5 -8.49902 -4.5s-5.83301 3.5 -4.5 7.5c3.33301 9.33301 6 17.666 8 24.999c5.33301 15.333 10.333 31 15 47s9.66699 32 15 48l22 70l22 70l24 79l25 79l22.5 73.5l23.5 73.5l16.5 55l17.5 54c2 7.33301 4.16699 14.5 6.5 21.5
s4.5 14.167 6.5 21.5c1.33301 3.33301 3.33301 5 6 5s4.66699 -1.66699 6 -5l4 -12l4 -12l14 -47.5c4.66699 -15.667 9.66699 -31.5 15 -47.5l21.5 -70l21.5 -70l24 -79.5l24 -78.5l23 -74l23 -74l16.5 -54.5l16.5 -54.5c2.66699 -7.33301 5 -14.5 7 -21.5l6 -21.5
c1.33301 -4 0 -6.5 -4 -7.5s-6.66699 0.5 -8 4.5s-2.5 8 -3.5 12s-2.16699 8 -3.5 12c-5.33301 15.333 -10.166 31 -14.499 47s-9.16602 31.667 -14.499 47l-21.5 70.5l-21.5 70.5h-15zM156.997 884.002c0 -4 -2.16895 -6.00293 -6.50195 -6.00293s-6.5 2 -6.5 6
c0 14 3.16699 27.333 9.5 40s16.166 22 29.499 28s26.5 8.16699 39.5 6.5s25.167 -6.83398 36.5 -15.501c6.66699 -4.66699 12.834 -9.66699 18.501 -15l17.5 -16c5.33301 -5.33301 11 -9.83301 17 -13.5s12.667 -6.16699 20 -7.5
c8.66699 -1.33301 17.334 -0.666016 26.001 2.00098s16.334 7 23.001 13c14 12.667 21 28.334 21 47.001c0 4 2.16699 6 6.5 6s6.5 -2 6.5 -6c-0.666992 -15.333 -5.16699 -29.333 -13.5 -42s-19.5 -21.667 -33.5 -27c-12.667 -6 -26.667 -7.33301 -42 -4
c-10.667 2 -21 7.33301 -31 16c-6 4 -11.667 8.83301 -17 14.5s-11 11 -17 16s-12.167 9.33301 -18.5 13s-13.5 5.83398 -21.5 6.50098c-8.66699 0.666992 -17.167 -0.166016 -25.5 -2.49902s-15.5 -6.83301 -21.5 -13.5c-6 -6 -10.333 -13 -13 -21s-4 -16.333 -4 -25z" />
    <glyph glyph-name="Adieresis" unicode="&#xc4;" horiz-adv-x="518" 
d="M495 2l-4.00195 11.9971l-4 12c-5.33301 15.333 -10.166 31 -14.499 47s-9.16602 31.667 -14.499 47l-21.5 70.5l-21.5 70.5h-15h-147h-100c-4 0 -6 2.16699 -6 6.5s2 6.5 6 6.5h19h147h92l-22.5 72.5l-22.5 72.5l-22.5 73.5l-22.5 74.5l-16.5 54l-17.5 55
c-2 8.66699 -4.33301 16.334 -7 23.001c0 -1.33301 -0.166992 -2.16602 -0.5 -2.49902s-0.5 -1.16602 -0.5 -2.49902c-5.33301 -16 -10.333 -31.833 -15 -47.5s-9.66699 -31.5 -15 -47.5l-22 -70l-22 -70l-24.5 -79.5l-24.5 -78.5l-23 -74l-23 -74
c-5.33301 -18 -11 -36 -17 -54s-11.667 -36.333 -17 -55c-2 -7.33301 -4.16699 -14.333 -6.5 -21s-4.5 -13.667 -6.5 -21c-1.33301 -4 -4 -5.5 -8 -4.5s-5.33301 3.5 -4 7.5s2.5 8.16699 3.5 12.5s2.16699 8.5 3.5 12.5c5.33301 15.333 10.333 31 15 47s9.66699 32 15 48
l22 70l22 70l24.5 79l24.5 79c7.33301 24.667 15 49.167 23 73.5s15.667 48.833 23 73.5c5.33301 18.667 11 37 17 55s11.667 36 17 54c2 7.33301 4.16699 14.5 6.5 21.5s4.5 14.167 6.5 21.5c1.33301 3.33301 3.5 5 6.5 5s4.83301 -1.66699 5.5 -5l4 -12l4 -12l14 -47.5
c4.66699 -15.667 9.66699 -31.5 15 -47.5l21.5 -70l21.5 -70l24 -79.5l25 -78.5l22.5 -74l22.5 -74l16.5 -54.5l17.5 -54.5l6 -21.5c2 -7 4.33301 -14.167 7 -21.5c1.33301 -4 0 -6.5 -4 -7.5s-6.66699 0.5 -8 4.5zM175.998 909.997c-4 0 -7 1.33301 -9 4s-3 5.5 -3 8.5
s1 5.83301 3 8.5s5 4 9 4s7.16699 -1.33301 9.5 -4s3.5 -5.5 3.5 -8.5s-1.16699 -5.83301 -3.5 -8.5s-5.5 -4 -9.5 -4zM363.998 909.997c-4 0 -7 1.33301 -9 4s-3 5.5 -3 8.5s1 5.83301 3 8.5s5 4 9 4s7 -1.33301 9 -4s3 -5.5 3 -8.5s-1 -5.83301 -3 -8.5s-5 -4 -9 -4z" />
    <glyph glyph-name="Aring" unicode="&#xc5;" horiz-adv-x="518" 
d="M401 261l-147.002 -0.000976562h-100c-4 0 -6 2.16699 -6 6.5s2 6.5 6 6.5h19h147h92l-22.5 72.5l-22.5 72.5l-22.5 73.5l-22.5 74.5c-5.33301 18 -11 36 -17 54s-11.667 36.333 -17 55c-1.33301 4 -2.5 7.83301 -3.5 11.5s-2.16699 7.5 -3.5 11.5
c-0.666992 -1.33301 -1 -2.16602 -1 -2.49902s-0.333008 -1.16602 -1 -2.49902l-14 -47.5c-4.66699 -15.667 -9.66699 -31.5 -15 -47.5l-22 -70l-22 -70l-24.5 -79.5l-24.5 -78.5l-23.5 -74l-22.5 -74l-17.5 -54l-16.5 -55c-2.66699 -7.33301 -5 -14.333 -7 -21
s-4.33301 -13.667 -7 -21c-1.33301 -4 -4 -5.5 -8 -4.5s-5.33301 3.5 -4 7.5c3.33301 9.33301 6 17.666 8 24.999c5.33301 15.333 10.333 31 15 47s9.66699 32 15 48l22 70l22 70l24 79l25 79l22.5 73.5l23.5 73.5l16.5 55l17.5 54c2 7.33301 4.16699 14.5 6.5 21.5
s4.5 14.167 6.5 21.5c1.33301 3.33301 3.33301 5 6 5s4.66699 -1.66699 6 -5c1.33301 -4 2.5 -8 3.5 -12s2.16699 -8 3.5 -12c5.33301 -16 10.333 -31.833 15 -47.5s9.66699 -31.5 15 -47.5l21.5 -70l21.5 -70l24 -79.5l24 -78.5l23 -74l23 -74l16.5 -54.5l16.5 -54.5
c2.66699 -7.33301 5 -14.5 7 -21.5l6 -21.5c1.33301 -4 0 -6.5 -4 -7.5s-6.66699 0.5 -8 4.5s-2.5 8 -3.5 12s-2.16699 8 -3.5 12c-5.33301 15.333 -10.166 31 -14.499 47s-9.16602 31.667 -14.499 47l-21.5 70.5l-21.5 70.5h-1h-14zM233.998 859.999
c-16.667 11.333 -27.8311 26.499 -33.498 45.499s-4.83398 37.5 2.49902 55.5s19.833 31.833 37.5 41.5s36.167 12.5 55.5 8.5s35.166 -13.667 47.499 -29s18.5 -32.666 18.5 -51.999c0 -23.333 -7.66699 -42.666 -23 -57.999c-14 -14 -31 -22.333 -51 -25
s-38 1.66602 -54 12.999zM272.001 999.998c-18.667 -2 -34.166 -10.332 -46.499 -24.999s-17.833 -31.334 -16.5 -50.001s9 -34.5 23 -47.5s30.667 -19.167 50 -18.5c18.667 1.33301 34.5 8.66602 47.5 21.999s19.833 29.666 20.5 48.999c0 4 -0.333008 7 -1 9
c-2.66699 18.667 -11.334 33.834 -26.001 45.501s-31.667 16.834 -51 15.501z" />
    <glyph glyph-name="AE" unicode="&#xc6;" horiz-adv-x="841" 
d="M825 14c4 0 6.00195 -2.16504 6.00195 -6.49805s-2 -6.5 -6 -6.5h-68h-161h-91c-2.66699 0 -4.5 1.16699 -5.5 3.5s-0.833008 4.5 0.5 6.5c-0.666992 0.666992 -1 2 -1 4v3v68v134v41h-20h-152h-99c-0.666992 0 -1.33398 0.333008 -2.00098 1
c-1.33301 -1.33301 -2.16602 -2.5 -2.49902 -3.5s-1.16602 -2.16699 -2.49902 -3.5l-40 -63.5l-40 -63.5l-57 -90c-3.33301 -6 -7 -12 -11 -18l-11 -17c-2 -3.33301 -4.83301 -4 -8.5 -2s-4.5 4.66699 -2.5 8c1.33301 1.33301 2.16602 2.66602 2.49902 3.99902
s1.16602 2.66602 2.49902 3.99902l20 31.5l20 32.5l34.5 54.5l34.5 54.5l43.5 68.5l42.5 67.5l90 141l39.5 63l39.5 63l29.5 45.5l28.5 45.5c3.33301 6 7 11.833 11 17.5s7.66699 11.5 11 17.5v1h1c1.33301 1.33301 2.66602 2 3.99902 2h92h118h110c4 0 6 -2.16699 6 -6.5
s-2 -6.5 -6 -6.5h-103h-101h-109v-65v-134v-135h61h162h90c4 0 6 -2.16699 6 -6.5s-2 -6.5 -6 -6.5h-68h-161h-84v-17v-160v-122v-48v-1h61h162h90zM499.002 274.002v110.998v161v121v27c-5.33301 -9.33301 -10.833 -18.166 -16.5 -26.499s-11.167 -17.166 -16.5 -26.499
l-35 -54.5l-35 -54.5l-42.5 -68.5l-43.5 -67.5l-38 -61l-39 -61h21h152h93z" />
    <glyph glyph-name="Ccedilla" unicode="&#xc7;" horiz-adv-x="429" 
d="M406 186c0 4 2.1709 5.99902 6.50391 5.99902s6.5 -2 6.5 -6c0 -23.333 -4.66699 -46.333 -14 -69c-7.33301 -17.333 -16.833 -33.166 -28.5 -47.499s-25.167 -26.5 -40.5 -36.5c-30 -20 -62 -30.333 -96 -31l-18.5 -50l-18.5 -50
c18.667 -2.66699 34.167 -10.834 46.5 -24.501s18.5 -29.834 18.5 -48.501v-1c0 -14.667 -4 -28.167 -12 -40.5s-18.667 -21.166 -32 -26.499c-15.333 -6.66699 -30.833 -8 -46.5 -4s-28.834 12.333 -39.501 25c-2.66699 2.66699 -2.66699 5.66699 0 9
c2.66699 2.66699 5.66699 2.66699 9 0c8.66699 -10.667 19.5 -17.834 32.5 -21.501s25.833 -2.83398 38.5 2.49902c24.667 10.667 37 29.334 37 56.001v1c0 16.667 -5.83301 30.834 -17.5 42.501s-25.834 17.834 -42.501 18.501c-2 0 -3.83301 0.833008 -5.5 2.5
s-1.83398 3.5 -0.500977 5.5v1c6.66699 17.333 13 34.666 19 51.999l18 52c-38 2 -72 14.333 -102 37c-30.667 23.333 -52 53.333 -64 90c-5.33301 17.333 -8.16602 34.833 -8.49902 52.5s-0.5 35.5 -0.5 53.5v153v135v15c0 4.66699 0.333008 9.33398 1 14.001
c2 39.333 15.333 74.333 40 105c12 14.667 26 27.334 42 38.001s33 18.5 51 23.5s36.5 7.33301 55.5 7s37.5 -3.83301 55.5 -10.5c36 -13.333 65.333 -35.333 88 -66c22 -31.333 33.667 -66.666 35 -105.999c0 -4 -2 -6 -6 -6s-6.33301 2 -7 6v16c-4 38 -19 70.833 -45 98.5
s-57.333 45.167 -94 52.5c-18.667 3.33301 -37.334 3.83301 -56.001 1.5s-36.667 -8.16602 -54 -17.499c-33.333 -16.667 -58.333 -41.667 -75 -75c-12 -25.333 -18 -51.333 -18 -78v-36v-148v-143v-28c0 -16.667 2.16699 -33 6.5 -49s11.166 -30.667 20.499 -44
c20.667 -32 48 -54.667 82 -68c18 -6.66699 36.5 -10.334 55.5 -11.001s37.5 1.66602 55.5 6.99902c36.667 11.333 66 31.666 88 60.999c22.667 30.667 34 65 34 103z" />
    <glyph glyph-name="Egrave" unicode="&#xc8;" horiz-adv-x="389" 
d="M373 12c4 0 6 -2 6 -6s-2 -6 -6 -6h-68h-159h-90c-2.66699 0 -4.5 1.16699 -5.5 3.5s-0.833008 4.5 0.5 6.5c-0.666992 0.666992 -1 1.66699 -1 3v3v68v133v162v159v121v47c0 4.66699 2 7 6 7h91h116c18.667 0 37 -0.166992 55 -0.5s36.333 -0.5 55 -0.5c4 0 6 -2 6 -6
s-2 -6 -6 -6h-103h-99h-109v-64v-133v-134h61h160h90c4 0 6 -2 6 -6s-2 -6 -6 -6h-68h-159h-84v-17v-159v-120v-48h61h160c15.333 0 30.333 -0.166992 45 -0.5s29.667 -0.5 45 -0.5zM215 820c-2.66699 -4 -5.66602 -4.66602 -8.99902 -1.99902
c-2.66699 2 -3.33398 4.66699 -2.00098 8c0 0.666992 0.166992 1.16699 0.5 1.5s0.5 0.833008 0.5 1.5l24 54l23 54c2 3.33301 5 4.33301 9 3c4 -2.66699 4.66699 -5.66699 2 -9c0 -0.666992 -0.333008 -1.33398 -1 -2.00098l-23.5 -54.5z" />
    <glyph glyph-name="Eacute" unicode="&#xc9;" horiz-adv-x="389" 
d="M146 0h-89c-3.33301 0 -5.5 1.16699 -6.5 3.5s-0.833008 4.5 0.5 6.5c0 0.666992 -0.166992 1.16699 -0.5 1.5s-0.5 0.833008 -0.5 1.5v3v68v133v162v159v121v47c0 4.66699 2.33301 7 7 7h90h117c18 0 36.167 -0.166992 54.5 -0.5s36.5 -0.5 54.5 -0.5c4 0 6 -2 6 -6
s-2 -6 -6 -6h-103h-99h-108v-64v-133v-134h61h159h90c4 0 6 -2 6 -6s-2 -6 -6 -6h-67h-160h-83v-17v-159v-120v-48h61h159c15.333 0 30.333 -0.166992 45 -0.5s29.667 -0.5 45 -0.5c4 0 6 -2 6 -6s-2 -6 -6 -6h-67h-160zM196 937l1 -2.00293l24 -54l24 -55
c1.33301 -3.33301 0.333008 -6 -3 -8c-1.33301 -1.33301 -2.83301 -1.66602 -4.5 -0.999023s-2.83398 1.66699 -3.50098 3c-0.666992 0.666992 -1 1.33398 -1 2.00098l-24 55l-24 54c-1.33301 4 -0.666016 7 2.00098 9c1.33301 0.666992 3 0.833984 5 0.500977
s3.33301 -1.5 4 -3.5z" />
    <glyph glyph-name="Ecircumflex" unicode="&#xca;" horiz-adv-x="389" 
d="M146 0h-89c-3.33301 0 -5.5 1.16699 -6.5 3.5s-0.833008 4.5 0.5 6.5c0 0.666992 -0.166992 1.16699 -0.5 1.5s-0.5 0.833008 -0.5 1.5v3v68v133v162v159v121v47c0 4.66699 2.33301 7 7 7h90h117c18 0 36.167 -0.166992 54.5 -0.5s36.5 -0.5 54.5 -0.5c4 0 6 -2 6 -6
s-2 -6 -6 -6h-103h-99h-108v-64v-133v-134h61h159h90c4 0 6 -2 6 -6s-2 -6 -6 -6h-67h-160h-83v-17v-159v-120v-48h61h159c15.333 0 30.333 -0.166992 45 -0.5s29.667 -0.5 45 -0.5c4 0 6 -2 6 -6s-2 -6 -6 -6h-67h-160zM104 821
c-3.33301 -2.66699 -6.50195 -2.5 -9.50195 0.5s-2.83301 5.83301 0.5 8.5c4.66699 4 9 8 13 12s8 7.66699 12 11l45 43l45 43c2 1.33301 3.66699 1.66602 5 0.999023c0.666992 0.666992 2 0.333984 4 -0.999023c4.66699 -4 9 -8 13 -12s8 -7.66699 12 -11l45 -43l45 -43
c3.33301 -2.66699 3.5 -5.5 0.5 -8.5s-5.83301 -3.16699 -8.5 -0.5c-4.66699 4 -9 8 -13 12l-12 12l-43 40.5l-43 40.5c-3.33301 -3.33301 -6.66602 -6.5 -9.99902 -9.5s-6.66602 -6.16699 -9.99902 -9.5l-45.5 -43z" />
    <glyph glyph-name="Edieresis" unicode="&#xcb;" horiz-adv-x="389" 
d="M146 0h-90.001c-2.66699 0 -4.5 1.16699 -5.5 3.5s-0.833008 4.5 0.5 6.5c-0.666992 0.666992 -1 1.66699 -1 3v3v68v133v162v159v121v47c0 4.66699 2 7 6 7h91h116c18.667 0 37 -0.166992 55 -0.5s36 -0.5 54 -0.5c4.66699 0 7 -2 7 -6s-2.33301 -6 -7 -6h-102h-99h-109
v-64v-133v-134h61h160h89c4.66699 0 7 -2 7 -6s-2.33301 -6 -7 -6h-67h-159h-84v-17v-159v-120v-48h61h160c15.333 0 30.333 -0.166992 45 -0.5s29.334 -0.5 44.001 -0.5c4.66699 0 7 -2 7 -6s-2.33301 -6 -7 -6h-67h-159zM112.999 868c-4 0 -7 1.33301 -9 4s-3 5.5 -3 8.5
s1 5.83301 3 8.5s5 4 9 4s7.16699 -1.33301 9.5 -4s3.5 -5.5 3.5 -8.5s-1.16699 -5.83301 -3.5 -8.5s-5.5 -4 -9.5 -4zM300.999 868c-4 0 -7 1.33301 -9 4s-3 5.5 -3 8.5s1 5.83301 3 8.5s5 4 9 4s7 -1.33301 9 -4s3 -5.5 3 -8.5s-1 -5.83301 -3 -8.5s-5 -4 -9 -4z" />
    <glyph glyph-name="Igrave" unicode="&#xcc;" horiz-adv-x="122" 
d="M99 701c0 4 2 6 6 6s6 -2 6 -6v-5v-72v-135v-163v-159v-119v-48c0 -4 -2 -6 -6 -6s-6 2 -6 6v5v72v135v163v158v120v48zM108 812c-1.33301 -1.33301 -2.83301 -1.66699 -4.5 -1s-2.83398 1.66699 -3.50098 3c-0.666992 0.666992 -1 1.33398 -1 2.00098l-24 55l-24 54
c-1.33301 4 -0.666016 7 2.00098 9c4.66699 1.33301 7.66699 0.666016 9 -2.00098c0 -0.666992 0.166992 -1.16699 0.5 -1.5s0.5 -0.833008 0.5 -1.5l24 -54l23 -54c2 -4 1.33301 -7 -2 -9z" />
    <glyph glyph-name="Iacute" unicode="&#xcd;" horiz-adv-x="122" 
d="M50 701c0 4 2.16699 6 6.5 6s6.5 -2 6.5 -6v-5v-72v-135v-163v-159v-119v-48c0 -4 -2.16699 -6 -6.5 -6s-6.5 2 -6.5 6v5v72v135v163v158v120v48zM110 925l-1 -2l-23 -54l-24 -55c-0.666992 -1.33301 -2 -2.33301 -4 -3s-3.66699 -0.333984 -5 0.999023
c-2.66699 1.33301 -3.33398 4.33301 -2.00098 9l1 2l24 54l24 55c0.666992 2.66699 3.33398 3.33398 8.00098 2.00098c4 -2.66699 4.66699 -5.66699 2 -9z" />
    <glyph glyph-name="Icircumflex" unicode="&#xce;" horiz-adv-x="303" 
d="M165 701c0 4 2.16699 6 6.5 6s6.5 -2 6.5 -6v-5v-72v-135v-163v-159v-119v-48c0 -4 -2.16699 -6 -6.5 -6s-6.5 2 -6.5 6v5v72v135v163v158v120v48zM201 910l44.999 -43l45 -43c3.33301 -2.66699 3.5 -5.5 0.5 -8.5s-6.16699 -2.83301 -9.5 0.5c-4 3.33301 -8 7 -12 11
l-12 12l-87 81c-3.33301 -3.33301 -6.66602 -6.5 -9.99902 -9.5s-6.66602 -6.16699 -9.99902 -9.5l-45 -43l-45 -42c-3.33301 -3.33301 -6.5 -3.5 -9.5 -0.5s-2.83301 5.83301 0.5 8.5l12 12c4 4 8.33301 8 13 12l45 42l45 43c1.33301 1.33301 2.66602 2 3.99902 2
c2 0 3.66699 -0.666992 5 -2l12 -12c4 -4 8.33301 -7.66699 13 -11z" />
    <glyph glyph-name="Idieresis" unicode="&#xcf;" horiz-adv-x="272" 
d="M163 0c0 -4 -2.16699 -6 -6.5 -6s-6.5 2 -6.5 6v5v72v135v163v158v120v48c0 4 2.16699 6 6.5 6s6.5 -2 6.5 -6v-5v-72v-135v-163v-159v-119v-48zM63 862c-4 0 -7.16699 1.33301 -9.5 4s-3.5 5.5 -3.5 8.5s1.16699 5.83301 3.5 8.5s5.5 4 9.5 4s7 -1.33301 9 -4
s3 -5.5 3 -8.5s-1 -5.83301 -3 -8.5s-5 -4 -9 -4zM250 887c4 0 7 -1.33301 9 -4s3 -5.5 3 -8.5s-1 -5.83301 -3 -8.5s-5 -4 -9 -4s-7 1.33301 -9 4s-3 5.5 -3 8.5s1 5.83301 3 8.5s5 4 9 4z" />
    <glyph glyph-name="Eth" unicode="&#xd0;" horiz-adv-x="507" 
d="M497 171c-1.33301 -19.333 -5.33203 -37.668 -11.999 -55.001s-16 -33.666 -28 -48.999c-24 -30 -54.333 -50.667 -91 -62c-18 -5.33301 -35.667 -8 -53 -8h-16h-125c-4 0 -6 2 -6 6v7v77v137v140h-110c-4 0 -6 2 -6 6s2 6 6 6h1h109v12v159v119v47c0 4 2 6 6 6h21h77
c9.33301 0 18.166 0.166992 26.499 0.5s16.833 0.166016 25.5 -0.500977c38.667 -2 73.667 -15 105 -39c30 -24 50.667 -54 62 -90c5.33301 -19.333 8 -37.666 8 -54.999v-26v-139v-119v-53v-27zM484.001 176.998c0.666992 13.333 0.833984 26.833 0.500977 40.5
s-0.5 27.167 -0.5 40.5v112v77v88c0 18 -2.66699 35.667 -8 53s-13.333 33.333 -24 48c-11.333 14.667 -24.333 27.334 -39 38.001s-30.667 18.667 -48 24c-17.333 6 -34.666 9 -51.999 9h-16h-119v-1v-77v-137v-116h110c4 0 6 -2 6 -6s-2 -6 -6 -6h-1h-109v-36v-158v-119
v-41h37h78c11.333 0 22.166 0.166992 32.499 0.5s21.166 2.16602 32.499 5.49902c35.333 9.33301 65 29 89 59c11.333 14.667 20.333 30.667 27 48s10 35.333 10 54z" />
    <glyph glyph-name="Ntilde" unicode="&#xd1;" horiz-adv-x="567" 
d="M481 96l-38.999 55.4971l-39 56.5l-46 66l-46 66l-47.5 67.5l-47.5 67.5l-41 59l-42 59l-29.5 43l-29.5 42c-2 2.66699 -3.83301 5.33398 -5.5 8.00098s-3.5 5.33398 -5.5 8.00098v-63v-136v-164v-158v-119v-47c0 -4 -2.16699 -6 -6.5 -6s-6.5 2 -6.5 6v6v76v137v164v157
v120v47c0 3.33301 1.66699 5.33301 5 6s5.66602 -0.333008 6.99902 -3c2 -3.33301 4 -6.33301 6 -9l7 -9l25.5 -37l25.5 -36l39 -56l39 -56l93 -132l46.5 -67.5l47.5 -67.5l41.5 -59.5l41.5 -59.5l30 -42l29 -42c2 -3.33301 4 -6.16602 6 -8.49902s3.66699 -4.83301 5 -7.5
v60v136v164v158v119v47c0 4 2.16699 6 6.5 6s6.5 -2 6.5 -6v-5v-75v-136v-163v-158v-120v-47c0 -3.33301 -1.5 -5.33301 -4.5 -6s-5.5 0.333008 -7.5 3c-2 3.33301 -4 6.33301 -6 9l-7 9l-25.5 36.5zM181.001 850.997c0 -4 -2.16992 -6.00391 -6.50293 -6.00391
s-6.5 2 -6.5 6c0.666992 14 4.16699 27.333 10.5 40s16.166 22 29.499 28c12.667 5.33301 25.5 7.16602 38.5 5.49902s25.167 -6.5 36.5 -14.5c6.66699 -4.66699 12.834 -9.66699 18.501 -15l17.5 -16c5.33301 -5.33301 11 -9.83301 17 -13.5s12.667 -6.16699 20 -7.5
c8.66699 -1.33301 17.334 -0.666016 26.001 2.00098s16.334 6.66699 23.001 12c14 12.667 21 28.334 21 47.001c0 4 2.16699 6 6.5 6s6.5 -2 6.5 -6c-0.666992 -15.333 -5 -29.166 -13 -41.499s-19 -21.5 -33 -27.5c-7.33301 -2.66699 -14.5 -4.33398 -21.5 -5.00098
s-14.167 0 -21.5 2c-5.33301 1.33301 -10.666 3.33301 -15.999 6s-10.333 5.66699 -15 9c-6 4.66699 -11.667 9.83398 -17 15.501s-11 11 -17 16s-12.167 9.33301 -18.5 13s-13.5 5.83398 -21.5 6.50098c-8.66699 0.666992 -17.167 -0.166016 -25.5 -2.49902
s-15.5 -6.83301 -21.5 -13.5c-6 -6 -10.333 -13 -13 -21s-4 -16.333 -4 -25z" />
    <glyph glyph-name="Ograve" unicode="&#xd2;" horiz-adv-x="434" 
d="M251 -7c-39.333 -3.33301 -76.001 5.33301 -110.001 26c-15.333 9.33301 -29.5 20.833 -42.5 34.5s-23.167 28.834 -30.5 45.501c-12 26 -18 53.667 -18 83v100v162v98c0 34 8.33301 65.5 25 94.5s39.667 51.833 69 68.5c16.667 9.33301 34.334 16.166 53.001 20.499
s37.667 5.5 57 3.5c38.667 -4 73 -18.333 103 -43c14 -12 26.167 -25.833 36.5 -41.5s18.166 -32.5 23.499 -50.5c2.66699 -9.33301 4.5 -18.833 5.5 -28.5s1.5 -19.167 1.5 -28.5v-116v-160v-81c0 -28 -6.16699 -55 -18.5 -81s-29.166 -47.667 -50.499 -65
c-30 -24 -64.667 -37.667 -104 -41zM93.999 78.999c10.667 -14.667 23.167 -27.499 37.5 -38.499s30.166 -19.5 47.499 -25.5c36 -12.667 73.333 -13.334 112 -2.00098c17.333 5.33301 33.333 13.333 48 24s27.334 23.667 38.001 39c22 30.667 33.667 65.334 35 104.001v22
v137v153v51.5c0 17 -2.66699 33.5 -8 49.5c-11.333 36 -32 65.5 -62 88.5s-64 34.833 -102 35.5c-38.667 1.33301 -73.334 -9.33398 -104.001 -32.001c-31.333 -22 -52.666 -50.333 -63.999 -85c-6.66699 -19.333 -10 -40 -10 -62v-43v-152v-139v-24
c0 -18 2.66699 -35.667 8 -53s13.333 -33.333 24 -48zM220.999 831l-24.001 54.001l-24 55c-1.33301 3.33301 -0.666016 6 2.00098 8c3.33301 2.66699 6.33301 2 9 -2c0 -0.666992 0.333008 -1.33398 1 -2.00098l24 -54.5l23 -54.5c2.66699 -4 2 -6.66699 -2 -8
c-4 -2.66699 -6.66699 -2 -8 2c-0.666992 0 -1 0.666992 -1 2z" />
    <glyph glyph-name="Oacute" unicode="&#xd3;" horiz-adv-x="434" 
d="M251 -7c-39.333 -3.33301 -76.001 5.33301 -110.001 26c-15.333 9.33301 -29.5 20.833 -42.5 34.5s-23.167 28.834 -30.5 45.501c-12 26 -18 53.667 -18 83v100v162v98c0 34 8.33301 65.5 25 94.5s39.667 51.833 69 68.5c16.667 9.33301 34.334 16.166 53.001 20.499
s37.667 5.5 57 3.5c38.667 -4 73 -18.333 103 -43c14 -12 26.167 -25.833 36.5 -41.5s18.166 -32.5 23.499 -50.5c2.66699 -9.33301 4.5 -18.833 5.5 -28.5s1.5 -19.167 1.5 -28.5v-116v-160v-81c0 -28 -6.16699 -55 -18.5 -81s-29.166 -47.667 -50.499 -65
c-30 -24 -64.667 -37.667 -104 -41zM93.999 78.999c10.667 -14.667 23.167 -27.499 37.5 -38.499s30.166 -19.5 47.499 -25.5c36 -12.667 73.333 -13.334 112 -2.00098c17.333 5.33301 33.333 13.333 48 24s27.334 23.667 38.001 39c22 30.667 33.667 65.334 35 104.001v22
v137v153v51.5c0 17 -2.66699 33.5 -8 49.5c-11.333 36 -32 65.5 -62 88.5s-64 34.833 -102 35.5c-38.667 1.33301 -73.334 -9.33398 -104.001 -32.001c-31.333 -22 -52.666 -50.333 -63.999 -85c-6.66699 -19.333 -10 -40 -10 -62v-43v-152v-139v-24
c0 -18 2.66699 -35.667 8 -53s13.333 -33.333 24 -48zM233.999 827c-3.33301 1.33301 -4.33301 4 -3 8c0.666992 0.666992 1 1.33398 1 2.00098l24 55l24 54c0.666992 1.33301 2 2.33301 4 3s3.66699 0.333984 5 -0.999023c2.66699 -2 3.33398 -4.66699 2.00098 -8
c0 -0.666992 -0.333008 -1.33398 -1 -2.00098l-24 -55l-24 -54c-0.666992 -1.33301 -1.83398 -2.33301 -3.50098 -3s-3.16699 -0.333984 -4.5 0.999023z" />
    <glyph glyph-name="Ocircumflex" unicode="&#xd4;" horiz-adv-x="434" 
d="M424 180c0 -28 -5.99902 -54.998 -17.999 -80.998s-29 -47.667 -51 -65c-30 -24 -64.667 -37.667 -104 -41c-19.333 -1.33301 -38.333 0.166992 -57 4.5s-36 11.5 -52 21.5c-32.667 19.333 -57.334 46 -74.001 80c-12 26 -18 53.667 -18 83v100v162v98
c0 34 8.5 65.5 25.5 94.5s39.833 51.833 68.5 68.5c17.333 9.33301 35.333 16.166 54 20.499s37.667 5.5 57 3.5c38.667 -4 72.667 -18.333 102 -43c30 -24.667 50 -55.334 60 -92.001c3.33301 -9.33301 5.33301 -18.833 6 -28.5s1 -19.167 1 -28.5v-116v-160v-81z
M179.001 15.002c18 -6.66699 36.666 -10.001 55.999 -10.001s38 2.66699 56 8c35.333 11.333 64.333 32.333 87 63s34 65.334 34 104.001v22v137v153v51.5c0 17 -2.66699 33.5 -8 49.5c-5.33301 18 -13.333 34.5 -24 49.5s-23.167 28 -37.5 39s-30.166 19.667 -47.499 26
s-35.333 9.5 -54 9.5c-38.667 1.33301 -73.667 -9.33398 -105 -32.001c-14.667 -10.667 -27.5 -23.167 -38.5 -37.5s-19.5 -30.166 -25.5 -47.499c-3.33301 -10 -5.66602 -20.167 -6.99902 -30.5s-2 -20.833 -2 -31.5v-43v-152v-139v-24c0 -37.333 10.333 -71 31 -101
c10.667 -14.667 23.167 -27.5 37.5 -38.5s30.166 -19.5 47.499 -25.5zM127 830.001c-3.33301 -2.66699 -6.50195 -2.66699 -9.50195 0s-2.83301 5.66699 0.5 9l12 11.5l12 11.5l45.5 43l45.5 42c0.666992 1.33301 2 2 4 2s3.66699 -0.666992 5 -2c4 -3.33301 8 -7 12 -11
l12 -12l45.5 -42.5l45.5 -42.5c3.33301 -3.33301 3.5 -6.33301 0.5 -9s-6.16699 -2.66699 -9.5 0l-12 12c-4 4 -8.33301 7.66699 -13 11l-42.5 40.5l-43.5 40.5c-3.33301 -3.33301 -6.66602 -6.5 -9.99902 -9.5s-6.66602 -6.16699 -9.99902 -9.5l-45 -42z" />
    <glyph glyph-name="Otilde" unicode="&#xd5;" horiz-adv-x="434" 
d="M424 180c0 -28 -6.16797 -55.001 -18.501 -81.001s-29.166 -47.667 -50.499 -65c-30 -24 -64.667 -37.667 -104 -41s-76 5.33398 -110 26.001c-15.333 9.33301 -29.5 20.833 -42.5 34.5s-23.167 28.834 -30.5 45.501c-12 26 -18 53.667 -18 83v100v162v98
c0 34 8.33301 65.5 25 94.5s39.667 51.833 69 68.5c16.667 9.33301 34.334 16.166 53.001 20.499s37.667 5.5 57 3.5c38.667 -4 73 -18.333 103 -43c14 -12 26.167 -25.833 36.5 -41.5s18.166 -32.5 23.499 -50.5c2.66699 -9.33301 4.5 -18.833 5.5 -28.5
s1.5 -19.167 1.5 -28.5v-116v-160v-81zM178.999 14.999c36 -12.667 73.333 -13.333 112 -2c17.333 5.33301 33.333 13.333 48 24s27.334 23.667 38.001 39c22 30.667 33.667 65.334 35 104.001v22v137v153v51.5c0 17 -2.66699 33.5 -8 49.5c-11.333 36 -32 65.5 -62 88.5
s-64 34.833 -102 35.5c-38.667 1.33301 -73.334 -9.33398 -104.001 -32.001c-31.333 -22 -52.666 -50.333 -63.999 -85c-6.66699 -19.333 -10 -40 -10 -62v-43v-152v-139v-24c0 -18 2.66699 -35.667 8 -53s13.333 -33.333 24 -48s23.167 -27.5 37.5 -38.5
s30.166 -19.5 47.499 -25.5zM113.999 852c0 -4 -1.99414 -6.00195 -5.99414 -6.00195s-6 2 -6 6c0 14 3.16699 27.333 9.5 40s16.166 22 29.499 28c12.667 5.33301 25.667 7.33301 39 6s25.666 -6.33301 36.999 -15c6 -4.66699 11.833 -9.66699 17.5 -15l17.5 -16
c5.33301 -5.33301 11.166 -9.83301 17.499 -13.5s13.166 -6.16699 20.499 -7.5c18.667 -2 34.667 2.66699 48 14c13.333 12.667 20.666 28.667 21.999 48c0 4 2 6 6 6s6 -2 6 -6c0 -15.333 -4.16699 -29.333 -12.5 -42s-19.5 -21.667 -33.5 -27
c-12.667 -6 -26.667 -7.33301 -42 -4c-6 1.33301 -11.5 3.33301 -16.5 6s-10.167 6 -15.5 10c-6 4 -11.667 8.83301 -17 14.5s-10.833 11 -16.5 16s-11.834 9.33301 -18.501 13s-14 5.83398 -22 6.50098c-8.66699 0.666992 -17.167 -0.166016 -25.5 -2.49902
s-15.5 -6.83301 -21.5 -13.5c-6 -6 -10.333 -13 -13 -21s-4 -16.333 -4 -25z" />
    <glyph glyph-name="Odieresis" unicode="&#xd6;" horiz-adv-x="434" 
d="M424 180c0 -28 -6.16797 -55.001 -18.501 -81.001s-29.166 -47.667 -50.499 -65c-30 -24 -64.667 -37.667 -104 -41s-76 5.33398 -110 26.001c-15.333 9.33301 -29.5 20.833 -42.5 34.5s-23.167 28.834 -30.5 45.501c-12 26 -18 53.667 -18 83v100v162v98
c0 34 8.33301 65.5 25 94.5s39.667 51.833 69 68.5c16.667 9.33301 34.334 16.166 53.001 20.499s37.667 5.5 57 3.5c38.667 -4 73 -18.333 103 -43c14 -12 26.167 -25.833 36.5 -41.5s18.166 -32.5 23.499 -50.5c2.66699 -9.33301 4.5 -18.833 5.5 -28.5
s1.5 -19.167 1.5 -28.5v-116v-160v-81zM178.999 14.999c36 -12.667 73.333 -13.333 112 -2c17.333 5.33301 33.333 13.333 48 24s27.334 23.667 38.001 39c22 30.667 33.667 65.334 35 104.001v22v137v153v51.5c0 17 -2.66699 33.5 -8 49.5c-11.333 36 -32 65.5 -62 88.5
s-64 34.833 -102 35.5c-38.667 1.33301 -73.334 -9.33398 -104.001 -32.001c-31.333 -22 -52.666 -50.333 -63.999 -85c-6.66699 -19.333 -10 -40 -10 -62v-43v-152v-139v-24c0 -18 2.66699 -35.667 8 -53s13.333 -33.333 24 -48s23.167 -27.5 37.5 -38.5
s30.166 -19.5 47.499 -25.5zM146.999 876c-4 0 -7 1.33301 -9 4s-3 5.5 -3 8.5s1 5.83301 3 8.5s5 4 9 4s7 -1.33301 9 -4s3 -5.5 3 -8.5s-1 -5.83301 -3 -8.5s-5 -4 -9 -4zM334.999 876c-4 0 -7 1.33301 -9 4s-3 5.5 -3 8.5s1 5.83301 3 8.5s5 4 9 4s7 -1.33301 9 -4
s3 -5.5 3 -8.5s-1 -5.83301 -3 -8.5s-5 -4 -9 -4z" />
    <glyph glyph-name="multiply" unicode="&#xd7;" horiz-adv-x="312" 
d="M291 485c3.33301 3.33301 6.33301 3.5 9 0.5s2.33398 -6.16699 -0.999023 -9.5l-65 -65l-49 -49l54 -55l60 -60c3.33301 -2.66699 3.5 -5.5 0.5 -8.5s-6.16699 -3.16699 -9.5 -0.5l-65 65l-49 50l-55 -55l-60 -60c-3.33301 -2.66699 -6.33301 -2.66699 -9 0
s-2.33398 5.66699 0.999023 9l65 65l49 49l-55 55l-60 60c-3.33301 3.33301 -3.5 6.5 -0.5 9.5s6.16699 3.16699 9.5 0.5l66 -66l49 -50l55 55l60 60v0z" />
    <glyph glyph-name="Ugrave" unicode="&#xd9;" horiz-adv-x="454" 
d="M444 201l-0.00195312 -11.999c0 -4 -0.333008 -8 -1 -12c-2 -39.333 -15 -74 -39 -104c-11.333 -14.667 -24.666 -27.334 -39.999 -38.001s-31.666 -19 -48.999 -25c-19.333 -5.33301 -38 -8 -56 -8c-5.33301 0 -10.833 -0.166992 -16.5 -0.5
s-11.167 -0.166016 -16.5 0.500977c-38.667 2 -73.667 15 -105 39c-30 24 -50.667 54 -62 90c-6 20 -9 40 -9 60v31v128v163v142v60c0 4 2.16699 6 6.5 6s6.5 -2 6.5 -6v-2v-78v-149v-162v-115v-22c0 -32.667 8 -62.334 24 -89.001c9.33301 -15.333 20.833 -29 34.5 -41
s28.834 -21.667 45.501 -29c8.66699 -3.33301 17.5 -6.16602 26.5 -8.49902s18.167 -3.83301 27.5 -4.5c6 -0.666992 12.167 -1 18.5 -1h18.5c37.333 0 70.666 10.667 99.999 32c30 21.333 51.333 49.666 64 84.999c6 20 9 40 9 60v31v127v164v142v60c0 4 2.16699 6 6.5 6
s6.5 -2 6.5 -6v-5v-90v-155v-159v-105zM235.998 821.001l-24 54.001l-24 55c-1.33301 4 -0.333008 6.66699 3 8c1.33301 1.33301 2.83301 1.66602 4.5 0.999023s2.83398 -1.66699 3.50098 -3c0 -0.666992 0.166992 -1 0.5 -1s0.5 -0.333008 0.5 -1l24 -54.5l24 -54.5
c1.33301 -4.66699 0.333008 -7.33398 -3 -8.00098c-1.33301 -1.33301 -2.83301 -1.66602 -4.5 -0.999023s-2.83398 1.66699 -3.50098 3z" />
    <glyph glyph-name="Uacute" unicode="&#xda;" horiz-adv-x="454" 
d="M404 73c-24 -30 -53.999 -51.001 -89.999 -63.001c-19.333 -5.33301 -38 -8 -56 -8c-5.33301 0 -10.833 -0.166992 -16.5 -0.5s-11.167 -0.166016 -16.5 0.500977c-38 2 -72.667 15 -104 39c-29.333 23.333 -50.333 53.333 -63 90c-3.33301 10 -5.5 20 -6.5 30
s-1.5 20 -1.5 30v31v128v163v142v60c0 4 2 6 6 6s6 -2 6 -6v-2v-78v-149v-162v-115v-22c0 -31.333 8.33301 -61 25 -89c18.667 -32 45.334 -55.333 80.001 -70c8.66699 -3.33301 17.5 -6.16602 26.5 -8.49902s18.167 -3.83301 27.5 -4.5c6 -0.666992 12 -1 18 -1h19
c17.333 0 34.666 2.66699 51.999 8s33.333 13.333 48 24s27.5 23.167 38.5 37.5s19.5 30.166 25.5 47.499c6 20 9 40 9 60v31v127v164v142v60c0 4 2 6 6 6s6 -2 6 -6v-5v-90v-155v-159v-105c0 -4 0.166992 -8 0.5 -12s0.166016 -8 -0.500977 -12
c-2 -39.333 -15 -74 -39 -104zM243.001 816.999c-2.66699 0.666992 -3.33398 3.33301 -2.00098 8c0.666992 0.666992 1 1.33398 1 2.00098l24 55l24 54c0.666992 1.33301 1.83398 2.33301 3.50098 3s3.16699 0.333984 4.5 -0.999023c3.33301 -1.33301 4.33301 -4 3 -8
c-0.666992 -0.666992 -1 -1.33398 -1 -2.00098l-24 -55l-24 -54c-0.666992 -1.33301 -2 -2.33301 -4 -3s-3.66699 -0.333984 -5 0.999023z" />
    <glyph glyph-name="Ucircumflex" unicode="&#xdb;" horiz-adv-x="454" 
d="M404 71c-11.333 -14.667 -24.668 -27.333 -40.001 -38s-31.666 -19 -48.999 -25c-19.333 -5.33301 -38 -8 -56 -8c-5.33301 -0 -10.833 -0.166992 -16.5 -0.5s-11.167 -0.166016 -16.5 0.500977c-38.667 2 -73.667 15 -105 39c-30 24 -50.667 54 -62 90
c-6 20 -9 40 -9 60v31v128v163v142v60c0 4 2.16699 6 6.5 6s6.5 -2 6.5 -6v-2v-78v-149v-162v-115v-22c0 -32.667 8 -62.334 24 -89.001c9.33301 -15.333 20.833 -29 34.5 -41s28.834 -21.667 45.501 -29c8.66699 -3.33301 17.5 -6.16602 26.5 -8.49902
s18.167 -3.83301 27.5 -4.5c6 -0.666992 12.167 -1 18.5 -1h18.5c37.333 0 70.666 10.667 99.999 32c30 21.333 51.333 49.666 64 84.999c6 20 9 40 9 60v31v127v164v142v60c0 4 2.16699 6 6.5 6s6.5 -2 6.5 -6v-5v-90v-155v-159v-105v-12c0 -4 -0.333008 -8 -1 -12
c-2 -39.333 -15 -74 -39 -104zM135.998 818.001c-3.33301 -2.66699 -6.50195 -2.66699 -9.50195 0s-2.83301 5.66699 0.5 9l13 11.5l12 11.5l45 43l45 42c1.33301 1.33301 3 2 5 2s3.33301 -0.666992 4 -2c4.66699 -3.33301 9 -7 13 -11l12 -12l45 -42.5l45 -42.5
c3.33301 -3.33301 3.5 -6.33301 0.5 -9s-5.83301 -2.66699 -8.5 0c-4.66699 4 -9 8 -13 12s-8 7.66699 -12 11l-43 40.5l-43 40.5c-3.33301 -3.33301 -6.66602 -6.5 -9.99902 -9.5s-6.66602 -6.16699 -9.99902 -9.5l-45.5 -42z" />
    <glyph glyph-name="Udieresis" unicode="&#xdc;" horiz-adv-x="454" 
d="M444 198l-0.00195312 -11.999c0 -4 -0.333008 -8 -1 -12c-2 -39.333 -15 -74 -39 -104c-11.333 -14.667 -24.666 -27.334 -39.999 -38.001s-31.666 -19 -48.999 -25c-19.333 -5.33301 -38 -8 -56 -8c-5.33301 0 -10.833 -0.166992 -16.5 -0.5
s-11.167 -0.166016 -16.5 0.500977c-38.667 2 -73.667 15 -105 39c-30 24 -50.667 54 -62 90c-6 20 -9 40 -9 60v31v128v163v142v60c0 4 2.16699 6 6.5 6s6.5 -2 6.5 -6v-2v-78v-149v-162v-115v-22c0 -32.667 8 -62.334 24 -89.001c9.33301 -15.333 20.833 -29 34.5 -41
s28.834 -21.667 45.501 -29c8.66699 -3.33301 17.5 -6.16602 26.5 -8.49902s18.167 -3.83301 27.5 -4.5c6 -0.666992 12.167 -1 18.5 -1h18.5c37.333 0 70.666 10.667 99.999 32c30 21.333 51.333 49.666 64 84.999c6 20 9 40 9 60v31v127v164v142v60c0 4 2.16699 6 6.5 6
s6.5 -2 6.5 -6v-5v-90v-155v-159v-105zM157.998 863.001c-4 0 -7 1.33301 -9 4s-3 5.5 -3 8.5s1 5.83301 3 8.5s5 4 9 4s7 -1.33301 9 -4s3 -5.5 3 -8.5s-1 -5.83301 -3 -8.5s-5 -4 -9 -4zM344.998 863.001c-4 0 -7 1.33301 -9 4s-3 5.5 -3 8.5s1 5.83301 3 8.5s5 4 9 4
s7 -1.33301 9 -4s3 -5.5 3 -8.5s-1 -5.83301 -3 -8.5s-5 -4 -9 -4z" />
    <glyph glyph-name="Yacute" unicode="&#xdd;" horiz-adv-x="530" 
d="M517 707c0 1.33301 0.666992 2.66699 2 4c2 3.33301 1.16699 6 -2.5 8s-6.5 1.33301 -8.5 -2l-16 -28.5l-16 -29.5l-37 -65l-37 -65l-38 -69.5l-39 -69.5c-7.33301 -12 -14.333 -24.167 -21 -36.5l-21 -37.5l-13.5 24l-12.5 24l-37 66l-36 65l-38 69.5l-38 69.5l-22 40
l-22 40c-0.666992 0.666992 -1 1.16699 -1 1.5s-0.333008 0.833008 -1 1.5c-2 3.33301 -4.83301 4 -8.5 2s-4.5 -4.66699 -2.5 -8l16 -29.5l16 -28.5l37 -66l36 -66l38 -69l38 -69l22 -40l22 -40c0.666992 -0.666992 1 -1.16699 1 -1.5s0.333008 -0.833008 1 -1.5v-84v-158
v-51c0 -4.66699 2 -7 6 -7s6 2.33301 6 7v92v158v45l15.5 28l15.5 28l36.5 65l36.5 65l39 69l38 69l23.5 40.5zM296 831.001l-1 -2.00195c-0.666992 -1.33301 -2 -2.33301 -4 -3s-3.66699 -0.333984 -5 0.999023c-2.66699 0.666992 -3.33398 3.33398 -2.00098 8.00098
l24 54.5l24 54.5c0 0.666992 0.333008 1.33398 1 2.00098c0.666992 1.33301 1.83398 2.33301 3.50098 3s3.16699 0.333984 4.5 -0.999023c3.33301 -1.33301 4.33301 -4 3 -8l-24 -55z" />
    <glyph glyph-name="Thorn" unicode="&#xde;" horiz-adv-x="574" 
d="M487 660c28.667 -25.333 49.6689 -55.833 63.002 -91.5s17.333 -72.5 12 -110.5c-4.66699 -37.333 -17.834 -71.333 -39.501 -102s-49.167 -54.667 -82.5 -72s-68.666 -26 -105.999 -26h-46h-116h-4v-95v-50h84h94c4 0 6 -2 6 -6s-2 -6 -6 -6h-41h-137v-55v-46
c0 -4 -2.16699 -6 -6.5 -6s-6.5 2 -6.5 6v10v81v10h-4h-94c-4.66699 0 -7 2 -7 6s2.33301 6 7 6h40h58v116v29h-98c-4 0 -6 2 -6 6s2 6 6 6h9h89v122v157v117v46c0 4 2 6 6 6h18h143c11.333 0 22.666 -0.333008 33.999 -1s22.666 -2.66699 33.999 -6
c36.667 -9.33301 69 -26.333 97 -51zM535.002 405c15.333 35.333 20.333 72.335 15 111.002c-4.66699 36 -17.834 69.167 -39.501 99.5s-49.167 53.5 -82.5 69.5c-30 14 -61.667 21 -95 21h-50h-115v-4v-81v-138v-163v-50h9h137c10 0 20 0.166992 30 0.5s20 1.5 30 3.5
c36.667 7.33301 69.334 22.333 98.001 45c13.333 11.333 25.5 24.166 36.5 38.499s19.833 30.166 26.5 47.499z" />
    <glyph glyph-name="agrave" unicode="&#xe0;" 
d="M537 17c1.33301 -4 -0.000976562 -6.50098 -4.00098 -7.50098s-6.66699 0.5 -8 4.5l-24 90c-2.66699 8 -5 16 -7 24s-4.33301 16.333 -7 25c-10 -34 -27.167 -63.833 -51.5 -89.5s-53.166 -44.167 -86.499 -55.5c-36 -13.333 -73.167 -16.666 -111.5 -9.99902
s-72.5 22 -102.5 46c-30 23.333 -52.5 53 -67.5 89s-20.167 72.667 -15.5 110c4.66699 38 18 72.5 40 103.5s50 54.833 84 71.5c34.667 17.333 71.5 25 110.5 23s74.5 -13.667 106.5 -35c22 -14 40.833 -31.167 56.5 -51.5s27.5 -42.5 35.5 -66.5v43v99c0 4 2.16699 6 6.5 6
s6.5 -2 6.5 -6v-65v-157v-45v-3v-1c1.33301 -3.33301 2.33301 -6.83301 3 -10.5s1.66699 -7.5 3 -11.5zM379.999 35.999c32 18.667 57.334 44.166 76.001 76.499s28.334 67.5 29.001 105.5c-0.666992 36.667 -9.83398 71 -27.501 103s-42.5 57.667 -74.5 77
s-67.167 29.5 -105.5 30.5s-74.166 -8.16699 -107.499 -27.5c-32 -18.667 -57.667 -44 -77 -76s-29 -67 -29 -105c-0.666992 -37.333 8.16602 -72.333 26.499 -105s43.5 -58.667 75.5 -78c32.667 -19.333 68.167 -29.166 106.5 -29.499s74.166 9.16699 107.499 28.5z
M294 569.998c-3.33301 2 -4.00098 4.66699 -2.00098 8c0 1.33301 0.333008 2 1 2c7.33301 18.667 15 37 23 55l24 54c1.33301 3.33301 4.33301 4.33301 9 3c2.66699 -2 3.33398 -5 2.00098 -9c0 -0.666992 -0.166992 -1 -0.5 -1s-0.5 -0.333008 -0.5 -1l-24 -54.5l-24 -54.5
c-1.33301 -4 -4 -4.66699 -8 -2z" />
    <glyph glyph-name="aacute" unicode="&#xe1;" 
d="M537 17c1.33301 -4 -0.000976562 -6.50098 -4.00098 -7.50098s-6.66699 0.5 -8 4.5l-12 45c-4 14.667 -8.33301 29.667 -13 45l-6 24c-2 8 -4.33301 16.333 -7 25c-10 -34 -27.167 -63.833 -51.5 -89.5s-53.166 -44.167 -86.499 -55.5
c-36 -13.333 -73.167 -16.666 -111.5 -9.99902s-72.5 22 -102.5 46c-30 23.333 -52.5 53 -67.5 89s-20.167 72.667 -15.5 110c4.66699 38 18 72.5 40 103.5s50 54.833 84 71.5c34.667 17.333 71.5 25 110.5 23s74.5 -13.667 106.5 -35c22 -14 40.833 -31.167 56.5 -51.5
s27.5 -42.5 35.5 -66.5v43v99c0 4 2.16699 6 6.5 6s6.5 -2 6.5 -6v-65v-157v-45v-3v-1c1.33301 -3.33301 2.33301 -6.83301 3 -10.5s1.66699 -7.5 3 -11.5zM379.999 35.999c32 18.667 57.333 44.166 76 76.499s28 67.5 28 105.5c0 36.667 -8.83301 71 -26.5 103
s-42.5 57.667 -74.5 77s-67.167 29.5 -105.5 30.5s-74.166 -8.16699 -107.499 -27.5c-32 -18.667 -57.667 -44 -77 -76s-29.333 -67 -30 -105c0 -37.333 9.16699 -72.333 27.5 -105s43.5 -58.667 75.5 -78c32.667 -19.333 68.167 -29.166 106.5 -29.499
s74.166 9.16699 107.499 28.5zM245.999 573.998l-24 54.498l-24 54.5c-1.33301 4 -0.666016 7 2.00098 9c4.66699 1.33301 7.66699 0.333008 9 -3l1 -2l24 -54l24 -55c1.33301 -3.33301 0.333008 -6 -3 -8c-1.33301 -1.33301 -2.83301 -1.66602 -4.5 -0.999023
s-2.83398 1.66699 -3.50098 3c-0.666992 0.666992 -1 1.33398 -1 2.00098z" />
    <glyph glyph-name="acircumflex" unicode="&#xe2;" 
d="M537 17c1.33301 -4 -0.000976562 -6.50195 -4.00098 -7.50195s-6.66699 0.5 -8 4.5c-4.66699 15.333 -9 30.333 -13 45l-12 45c-2 8 -4.16699 16 -6.5 24s-4.5 16.333 -6.5 25c-10.667 -34 -28 -63.833 -52 -89.5s-52.667 -44.167 -86 -55.5
c-36 -13.333 -73.333 -16.666 -112 -9.99902s-73 22 -103 46c-30 23.333 -52.333 52.833 -67 88.5s-19.667 72.5 -15 110.5s17.834 72.5 39.501 103.5s49.5 54.833 83.5 71.5c34.667 17.333 71.5 25 110.5 23s74.833 -13.667 107.5 -35c21.333 -14 40 -31.167 56 -51.5
s28 -42.5 36 -66.5v43v99c0 4 2 6 6 6s6 -2 6 -6v-65v-157v-45v-3c0 1.33301 0 1.83301 0 1.5s0.333008 -1.16602 1 -2.49902c1.33301 -3.33301 2.33301 -6.83301 3 -10.5s1.66699 -7.5 3 -11.5zM378.999 35.998c32 18.667 57.5 44.166 76.5 76.499s28.5 67.5 28.5 105.5
c0 36.667 -9 71 -27 103s-42.667 57.667 -74 77c-32.667 19.333 -68.167 29.5 -106.5 30.5s-73.833 -8.16699 -106.5 -27.5c-32.667 -18.667 -58.5 -44 -77.5 -76s-28.833 -67 -29.5 -105c-0.666992 -37.333 8.33301 -72.333 27 -105s44 -58.667 76 -78
c32.667 -19.333 68.167 -29.166 106.5 -29.499s73.833 9.16699 106.5 28.5zM182.999 572.997c-3.33301 -2.66699 -6.50195 -2.5 -9.50195 0.5s-2.83301 5.83301 0.5 8.5l12.5 12c4.33301 4 8.5 7.66699 12.5 11l45 43l45 43c1.33301 0.666992 3 1 5 1
s3.33301 -0.333008 4 -1l12.5 -12l12.5 -12l45 -42l45 -43c3.33301 -2.66699 3.5 -5.5 0.5 -8.5s-6.16699 -3.16699 -9.5 -0.5l-24 24l-43.5 40.5l-42.5 40.5c-3.33301 -3.33301 -6.66602 -6.5 -9.99902 -9.5s-6.66602 -6.16699 -9.99902 -9.5l-45.5 -43z" />
    <glyph glyph-name="atilde" unicode="&#xe3;" 
d="M537 17c1.33301 -4 -0.000976562 -6.50195 -4.00098 -7.50195s-6.66699 0.5 -8 4.5c-4.66699 15.333 -9 30.333 -13 45l-12 45c-2 8 -4.16699 16 -6.5 24s-4.5 16.333 -6.5 25c-10.667 -34 -28 -63.833 -52 -89.5s-52.667 -44.167 -86 -55.5
c-36 -13.333 -73.333 -16.666 -112 -9.99902s-73 22 -103 46c-30 23.333 -52.333 52.833 -67 88.5s-19.667 72.5 -15 110.5s17.834 72.5 39.501 103.5s49.5 54.833 83.5 71.5c34.667 17.333 71.5 25 110.5 23s74.833 -13.667 107.5 -35c21.333 -14 40 -31.167 56 -51.5
s28 -42.5 36 -66.5v43v99c0 4 2 6 6 6s6 -2 6 -6v-65v-157v-45v-3c0 1.33301 0 1.83301 0 1.5s0.333008 -1.16602 1 -2.49902c1.33301 -3.33301 2.33301 -6.83301 3 -10.5s1.66699 -7.5 3 -11.5zM378.999 35.998c32 18.667 57.5 44.166 76.5 76.499s28.5 67.5 28.5 105.5
c0 36.667 -9 71 -27 103s-42.667 57.667 -74 77c-32.667 19.333 -68.167 29.5 -106.5 30.5s-73.833 -8.16699 -106.5 -27.5c-32.667 -18.667 -58.5 -44 -77.5 -76s-28.833 -67 -29.5 -105c-0.666992 -37.333 8.33301 -72.333 27 -105s44 -58.667 76 -78
c32.667 -19.333 68.167 -29.166 106.5 -29.499s73.833 9.16699 106.5 28.5zM170.999 593.997c0 -4 -2.16797 -6.00488 -6.50098 -6.00488s-6.5 2 -6.5 6c0.666992 14 4.16699 27.333 10.5 40s16.166 22 29.499 28c12.667 5.33301 25.5 7.16602 38.5 5.49902
s25.167 -6.5 36.5 -14.5c6.66699 -4.66699 12.834 -9.66699 18.501 -15l17.5 -16c5.33301 -5.33301 11.166 -9.83301 17.499 -13.5s13.166 -6.16699 20.499 -7.5c8 -1.33301 16.333 -0.666016 25 2.00098s16.334 6.66699 23.001 12c14 12.667 21 28.334 21 47.001
c0 4.66699 2.16699 7 6.5 7s6.5 -2.33301 6.5 -7c0 -15.333 -4.16699 -29.166 -12.5 -41.499s-19.5 -21.166 -33.5 -26.499c-15.333 -6.66699 -29.666 -8 -42.999 -4c-9.33301 2 -19.666 7.33301 -30.999 16c-6 4 -11.667 8.83301 -17 14.5s-11 11 -17 16
s-12.167 9.33301 -18.5 13s-13.5 5.83398 -21.5 6.50098c-8.66699 0.666992 -17.167 -0.166016 -25.5 -2.49902s-15.5 -6.83301 -21.5 -13.5c-6 -6 -10.333 -13 -13 -21s-4 -16.333 -4 -25z" />
    <glyph glyph-name="adieresis" unicode="&#xe4;" 
d="M537 17c1.33301 -4 -0.000976562 -6.50098 -4.00098 -7.50098s-6.66699 0.5 -8 4.5l-24 90c-2.66699 8 -5 16 -7 24s-4.33301 16.333 -7 25c-10 -34 -27.167 -63.833 -51.5 -89.5s-53.166 -44.167 -86.499 -55.5c-36 -13.333 -73.167 -16.666 -111.5 -9.99902
s-72.5 22 -102.5 46c-30 23.333 -52.5 53 -67.5 89s-20.167 72.667 -15.5 110c4.66699 38 18 72.5 40 103.5s50 54.833 84 71.5c34.667 17.333 71.5 25 110.5 23s74.5 -13.667 106.5 -35c22 -14 40.833 -31.167 56.5 -51.5s27.5 -42.5 35.5 -66.5v43v99c0 4 2.16699 6 6.5 6
s6.5 -2 6.5 -6v-65v-157v-45v-3v-1c1.33301 -3.33301 2.33301 -6.83301 3 -10.5s1.66699 -7.5 3 -11.5zM379.999 35.999c32 18.667 57.334 44.166 76.001 76.499s28.334 67.5 29.001 105.5c-0.666992 36.667 -9.83398 71 -27.501 103s-42.5 57.667 -74.5 77
s-67.167 29.5 -105.5 30.5s-74.166 -8.16699 -107.499 -27.5c-32 -18.667 -57.667 -44 -77 -76s-29 -67 -29 -105c-0.666992 -37.333 8.16602 -72.333 26.499 -105s43.5 -58.667 75.5 -78c32.667 -19.333 68.167 -29.166 106.5 -29.499s74.166 9.16699 107.499 28.5z
M176 618.998c-4 0 -7 1.33301 -9 4s-3 5.66699 -3 9s1 6.33301 3 9s5 4 9 4s7 -1.33301 9 -4s3 -5.66699 3 -9s-1 -6.33301 -3 -9s-5 -4 -9 -4zM364 644.998c4 0 7 -1.33301 9 -4s3 -5.66699 3 -9s-1 -6.33301 -3 -9s-5 -4 -9 -4s-7.16699 1.33301 -9.5 4
s-3.5 5.66699 -3.5 9s1.16699 6.33301 3.5 9s5.5 4 9.5 4z" />
    <glyph glyph-name="aring" unicode="&#xe5;" 
d="M537 17c1.33301 -4 -0.000976562 -6.50195 -4.00098 -7.50195s-6.66699 0.5 -8 4.5c-4.66699 15.333 -9 30.333 -13 45l-12 45c-2 8 -4.16699 16 -6.5 24s-4.5 16.333 -6.5 25c-10.667 -34 -28 -63.833 -52 -89.5s-52.667 -44.167 -86 -55.5
c-36 -13.333 -73.333 -16.666 -112 -9.99902s-73 22 -103 46c-30 23.333 -52.333 52.833 -67 88.5s-19.667 72.5 -15 110.5s17.834 72.5 39.501 103.5s49.5 54.833 83.5 71.5c34.667 17.333 71.5 25 110.5 23s74.833 -13.667 107.5 -35c21.333 -14 40 -31.167 56 -51.5
s28 -42.5 36 -66.5v43v99c0 4 2 6 6 6s6 -2 6 -6v-65v-157v-45v-3c0 1.33301 0 1.83301 0 1.5s0.333008 -1.16602 1 -2.49902c1.33301 -3.33301 2.33301 -6.83301 3 -10.5s1.66699 -7.5 3 -11.5zM378.999 35.998c32 18.667 57.5 44.166 76.5 76.499s28.5 67.5 28.5 105.5
c0 36.667 -9 71 -27 103s-42.667 57.667 -74 77c-32.667 19.333 -68.167 29.5 -106.5 30.5s-73.833 -8.16699 -106.5 -27.5c-32.667 -18.667 -58.5 -44 -77.5 -76s-28.833 -67 -29.5 -105c-0.666992 -37.333 8.33301 -72.333 27 -105s44 -58.667 76 -78
c32.667 -19.333 68.167 -29.166 106.5 -29.499s73.833 9.16699 106.5 28.5zM247.999 569.997c-16 11.333 -26.999 26.333 -32.999 45s-5.33301 37.334 2 56.001c7.33301 18 19.833 31.833 37.5 41.5s36.167 12.5 55.5 8.5s35.166 -13.833 47.499 -29.5
s18.5 -33.167 18.5 -52.5c0 -22.667 -7.66699 -41.667 -23 -57c-13.333 -14 -30 -22.333 -50 -25s-38.333 1.66602 -55 12.999zM287 708.997c-19.333 -1.33301 -35.166 -9.33203 -47.499 -23.999s-17.833 -31.334 -16.5 -50.001s9.16602 -34.5 23.499 -47.5
s30.833 -19.167 49.5 -18.5c19.333 1.33301 35.5 8.66602 48.5 21.999s19.5 29.333 19.5 48c0 4.66699 -0.333008 8 -1 10c-2 18.667 -10.5 33.834 -25.5 45.501s-31.833 16.5 -50.5 14.5z" />
    <glyph glyph-name="ccedilla" unicode="&#xe7;" horiz-adv-x="459" 
d="M437 88c1.33301 1.33301 2.83984 2.00391 4.50684 2.00391s3.16699 -0.666992 4.5 -2c3.33301 -2.66699 3.33301 -5.66699 0 -9c-8 -10 -16 -18.667 -24 -26c-17.333 -15.333 -36.833 -27.833 -58.5 -37.5s-44.167 -15.834 -67.5 -18.501
c-2.66699 0 -4.66699 -0.333008 -6 -1l-19.5 -55l-19.5 -55c19.333 -2.66699 35.833 -11.5 49.5 -26.5s20.5 -32.5 20.5 -52.5v-1v-1c0 -15.333 -4.33301 -29.833 -13 -43.5s-20.334 -23.5 -35.001 -29.5c-16.667 -7.33301 -33.5 -8.66602 -50.5 -3.99902
s-31.167 13.667 -42.5 27c-3.33301 3.33301 -3.33301 6.33301 0 9c1.33301 1.33301 2.83301 2 4.5 2s3.16699 -0.666992 4.5 -2c9.33301 -11.333 21.333 -19 36 -23s28.667 -3 42 3c12 5.33301 21.667 13.5 29 24.5s11.333 23.167 12 36.5v1v1
c-0.666992 18 -7.33398 33.333 -20.001 46s-28.334 19.334 -47.001 20.001c-2 0 -3.83301 0.833008 -5.5 2.5s-1.83398 3.5 -0.500977 5.5c0 1.33301 0.333008 2 1 2l19.5 56.5c6.33301 18.333 13.166 37.166 20.499 56.499c-18 -0.666992 -35.833 1.16602 -53.5 5.49902
s-34.5 10.5 -50.5 18.5c-37.333 19.333 -66.833 46.666 -88.5 81.999s-32.834 74 -33.501 116c0 0.666992 0.333008 1.33398 1 2.00098c0 0.666992 -0.333008 1.33398 -1 2.00098c0 11.333 1 22.666 3 33.999c6 40.667 22.5 77 49.5 109s59.833 54.667 98.5 68
c21.333 7.33301 43.333 11.333 66 12s44.667 -2 66 -8c22 -6.66699 42.667 -16.334 62 -29.001s36.333 -28 51 -46c3.33301 -3.33301 3.33301 -6.66602 0 -9.99902c-1.33301 -1.33301 -2.83301 -2 -4.5 -2s-3.16699 0.666992 -4.5 2s-2.5 2.83301 -3.5 4.5
s-2.16699 3.16699 -3.5 4.5c-15.333 17.333 -33 31.666 -53 42.999s-41.333 19 -64 23c-43.333 9.33301 -85.333 4.66602 -126 -14.001c-36.667 -16.667 -66.334 -42 -89.001 -76c-22.667 -35.333 -34 -73.666 -34 -114.999v-2v-2v-10c2 -40.667 15 -77.834 39 -111.501
s55 -57.834 93 -72.501c20 -8 41 -12.667 63 -14s43.667 0.666992 65 6c22 5.33301 42.667 14.333 62 27s36.333 27.667 51 45z" />
    <glyph glyph-name="egrave" unicode="&#xe8;" horiz-adv-x="464" 
d="M278 0c-2 0 -3.33398 0.332031 -4.00098 0.999023c-0.666992 -0.666992 -2 -1 -4 -1c-32.667 0 -64 7 -94 21s-55.333 33.667 -76 59c-12 15.333 -22 31.5 -30 48.5s-13.667 35.167 -17 54.5s-4.16602 38.833 -2.49902 58.5s6.16699 38.834 13.5 57.501
c14 36 36.167 66.333 66.5 91s64.5 40.334 102.5 47.001c42.667 7.33301 84.334 2.33301 125.001 -15c38.667 -17.333 70.334 -44 95.001 -80c2 -2.66699 1.33301 -5.66699 -2 -9l-30 -21l-57.5 -42.5l-57.5 -42.5l-64.5 -47.5l-65.5 -47.5l-30 -22.5
c-10 -7.66699 -20.333 -15.167 -31 -22.5c-0.666992 -0.666992 -1.66699 -1 -3 -1c7.33301 -8.66699 15 -16.5 23 -23.5s16.667 -13.5 26 -19.5c32.667 -20 69 -30 109 -30c1.33301 0 2.66602 -0.666992 3.99902 -2c1.33301 1.33301 2.66602 2 3.99902 2
c27.333 0 53.666 5.16699 78.999 15.5s47.666 25.166 66.999 44.499c3.33301 3.33301 6.5 3.5 9.5 0.5s2.83301 -6.16699 -0.5 -9.5c-21.333 -20.667 -45.166 -36.5 -71.499 -47.5s-54.166 -16.5 -83.499 -16.5zM85.999 122.999l9.50195 -15
c3 -4.66699 6.5 -9.66699 10.5 -15c0 2 1 3.66699 3 5l14 10.5c4.66699 3.66699 9.66699 7.16699 15 10.5l57.5 43l57.5 42l65.5 48l64.5 47l56 41c-16.667 22.667 -36.834 41.5 -60.501 56.5s-49.5 24.5 -77.5 28.5c-38.667 6 -76.167 1.33301 -112.5 -14
s-65.5 -39 -87.5 -71c-22.667 -32 -35.334 -67.5 -38.001 -106.5s5 -75.833 23 -110.5zM270.001 568.999l-24 55.498l-25 55.5c-1.33301 4 -0.333008 7 3 9c1.33301 0.666992 2.83301 0.833984 4.5 0.500977s2.83398 -1.16602 3.50098 -2.49902
c0.666992 -0.666992 1 -1.66699 1 -3l25 -55.5l24 -55.5c1.33301 -4 0.666016 -7 -2.00098 -9c-4.66699 -1.33301 -7.66699 -0.333008 -9 3c0 0.666992 -0.166992 1 -0.5 1s-0.5 0.333008 -0.5 1z" />
    <glyph glyph-name="eacute" unicode="&#xe9;" horiz-adv-x="464" 
d="M274 1c-0.666992 -0.666992 -1.99023 -1 -3.99023 -1c-32.667 0 -64 7 -94 21s-55.333 33.667 -76 59c-12 15.333 -22 31.5 -30 48.5s-13.667 35.167 -17 54.5s-4 38.833 -2 58.5s6.66699 38.834 14 57.501c14 36 36 66.333 66 91s64 40.334 102 47.001
c21.333 3.33301 42.666 3.83301 63.999 1.5s41.666 -7.83301 60.999 -16.5s37.166 -19.834 53.499 -33.501s30.166 -29.167 41.499 -46.5c2 -2.66699 1.33301 -5.66699 -2 -9c-5.33301 -3.33301 -10.333 -6.83301 -15 -10.5l-14 -10.5l-58 -42.5l-58 -42.5l-64.5 -47.5
l-64.5 -47.5c-10.667 -7.33301 -21 -14.833 -31 -22.5s-20.333 -15.167 -31 -22.5c-0.666992 -0.666992 -1.66699 -1 -3 -1c7.33301 -8.66699 15 -16.5 23 -23.5s16.667 -13.5 26 -19.5c16.667 -10 34.167 -17.5 52.5 -22.5s37.166 -7.5 56.499 -7.5
c1.33301 0 2.66602 -0.666992 3.99902 -2c1.33301 1.33301 2.66602 2 3.99902 2c27.333 0 53.666 5.16699 78.999 15.5s47.666 25.166 66.999 44.499c3.33301 3.33301 6.5 3.5 9.5 0.5s2.83301 -6.16699 -0.5 -9.5c-20.667 -20.667 -44.334 -36.5 -71.001 -47.5
s-54.667 -16.5 -84 -16.5c-2 -0 -3.33301 0.333008 -4 1zM87.0098 123c2.66699 -5.33301 5.6709 -10.333 9.00391 -15s6.66602 -9.66699 9.99902 -15c0 2 1 3.66699 3 5c5.33301 3.33301 10.166 6.83301 14.499 10.5s9.16602 7.16699 14.499 10.5l58 43l58 42l64.5 48
l64.5 47l28 21l28 20c-16.667 22.667 -36.834 41.5 -60.501 56.5s-49.5 24.5 -77.5 28.5c-19.333 2.66699 -38.5 2.83398 -57.5 0.500977s-37.167 -7.33301 -54.5 -15s-33.666 -17.334 -48.999 -29.001s-28.333 -25.5 -39 -41.5c-22.667 -32 -35.334 -67.5 -38.001 -106.5
s5.33301 -75.833 24 -110.5zM224.014 564c-4 2.66699 -4.66699 5.66699 -2 9c0 1.33301 0.333008 2 1 2l24 56l24 56c2 2.66699 5 3.33398 9 2.00098c4 -2.66699 4.66699 -5.66699 2 -9c0 -0.666992 -0.333008 -1.33398 -1 -2.00098l-48 -111c-2 -3.33301 -5 -4.33301 -9 -3
z" />
    <glyph glyph-name="ecircumflex" unicode="&#xea;" horiz-adv-x="465" 
d="M358 422c39.333 -17.333 71.3379 -44.001 96.0049 -80.001c2 -3.33301 1 -6.33301 -3 -9l-14 -10.5c-4.66699 -3.66699 -9.66699 -7.16699 -15 -10.5l-58 -42.5l-58 -42.5l-64.5 -47.5l-64.5 -47.5l-30.5 -22.5l-30.5 -22.5c-0.666992 -0.666992 -2 -1 -4 -1
c15.333 -17.333 32 -31.666 50 -42.999c32.667 -20 68.667 -30 108 -30c1.33301 0 2.66602 -0.666992 3.99902 -2c1.33301 1.33301 2.66602 2 3.99902 2c28 0 54.5 5.16699 79.5 15.5s47.167 25.166 66.5 44.499c3.33301 3.33301 6.5 3.5 9.5 0.5
s2.83301 -6.16699 -0.5 -9.5c-20.667 -20.667 -44.334 -36.5 -71.001 -47.5s-54.667 -16.5 -84 -16.5c-2 0 -3.33301 0.333008 -4 1c-0.666992 -0.666992 -2 -1 -4 -1c-32.667 0 -63.834 7 -93.501 21s-54.834 33.667 -75.501 59c-24.667 30 -40.667 64.333 -48 103
c-6 40 -2 78.667 12 116c14 36 36 66.333 66 91s64 40.334 102 47.001c44 7.33301 85.667 2.33301 125 -15zM383.005 298.999l28 20.999l28 20c-16 22.667 -35.833 41.5 -59.5 56.5s-49.5 24.5 -77.5 28.5c-38.667 6 -76.167 1.33301 -112.5 -14s-65.833 -39 -88.5 -71
c-22 -32 -34.333 -67.5 -37 -106.5s5 -75.833 23 -110.5l9.5 -15l9.5 -15c1.33301 2.66699 2.33301 4.33398 3 5.00098c5.33301 3.33301 10.333 6.83301 15 10.5l14 10.5l58 43l58 42l64.5 48zM130.005 576.998c4.66699 4 9 8 13 12l12 12l93 87
c1.33301 1.33301 2.66602 2 3.99902 2c0.666992 0 2.33398 -0.666992 5.00098 -2l12.5 -12l12.5 -12l46 -43.5l46 -43.5c3.33301 -2.66699 3.5 -5.5 0.5 -8.5s-6.16699 -3.16699 -9.5 -0.5l-12 12c-4 4 -8.33301 8 -13 12l-43.5 41l-44.5 42l-20 -20l-93 -87
c-3.33301 -2.66699 -6.5 -2.5 -9.5 0.5s-2.83301 5.83301 0.5 8.5z" />
    <glyph glyph-name="edieresis" unicode="&#xeb;" horiz-adv-x="464" 
d="M358 422c38.667 -17.333 70.3369 -44.001 95.0039 -80.001c2 -2.66699 1.33301 -5.66699 -2 -9c-5.33301 -3.33301 -10.333 -6.83301 -15 -10.5l-14 -10.5l-58 -42.5l-58 -42.5l-64.5 -47.5l-65.5 -47.5l-30 -22.5c-10 -7.66699 -20.333 -15.167 -31 -22.5
c-0.666992 -0.666992 -1.66699 -1 -3 -1c7.33301 -8.66699 15 -16.5 23 -23.5s16.667 -13.5 26 -19.5c16.667 -10 34.167 -17.5 52.5 -22.5s37.166 -7.5 56.499 -7.5c1.33301 0 2.66602 -0.666992 3.99902 -2c1.33301 1.33301 2.66602 2 3.99902 2
c27.333 0 53.666 5.16699 78.999 15.5s47.666 25.166 66.999 44.499c3.33301 3.33301 6.5 3.5 9.5 0.5s2.83301 -6.16699 -0.5 -9.5c-20.667 -20.667 -44.334 -36.5 -71.001 -47.5s-54.667 -16.5 -84 -16.5c-2 0 -3.33301 0.333008 -4 1c-0.666992 -0.666992 -2 -1 -4 -1
c-32.667 0 -64 7 -94 21s-55.333 33.667 -76 59c-12 15.333 -22 31.5 -30 48.5s-13.667 35.167 -17 54.5s-4.16602 38.833 -2.49902 58.5s6.16699 38.834 13.5 57.501c14 36 36.167 66.333 66.5 91s64.5 40.334 102.5 47.001c42.667 7.33301 84.334 2.33301 125.001 -15z
M383.003 298.999l28.002 21l28 20c-16.667 22.667 -36.834 41.5 -60.501 56.5s-49.5 24.5 -77.5 28.5c-19.333 2.66699 -38.5 2.83398 -57.5 0.500977s-37.167 -7.33301 -54.5 -15s-33.666 -17.334 -48.999 -29.001s-28.333 -25.5 -39 -41.5
c-22.667 -32 -35.334 -67.5 -38.001 -106.5s5.33301 -75.833 24 -110.5c2.66699 -5.33301 5.66699 -10.333 9 -15s6.66602 -9.66699 9.99902 -15c0 2 1 3.66699 3 5l14 10.5c4.66699 3.66699 9.66699 7.16699 15 10.5l58 43l58 42l64.5 48zM156.005 614.999
c-4 0 -7 1.33301 -9 4s-3 5.66699 -3 9s1 6.33301 3 9s5 4 9 4s7.16699 -1.33301 9.5 -4s3.5 -5.66699 3.5 -9s-1.16699 -6.33301 -3.5 -9s-5.5 -4 -9.5 -4zM348.005 614.999c-4 0 -7.16699 1.33301 -9.5 4s-3.5 5.66699 -3.5 9s1.16699 6.33301 3.5 9s5.5 4 9.5 4
s7 -1.33301 9 -4s3 -5.66699 3 -9s-1 -6.33301 -3 -9s-5 -4 -9 -4z" />
    <glyph glyph-name="igrave" unicode="&#xec;" horiz-adv-x="122" 
d="M99 435c0 4 2.16699 6 6.5 6s6.5 -2 6.5 -6v-44v-146v-156v-81c0 -4 -2.16699 -6 -6.5 -6s-6.5 2 -6.5 6v45v153v156v73zM99 558l-24 54.499l-24 54.5c-1.33301 4 -0.333008 7 3 9c1.33301 0.666992 2.83301 0.666992 4.5 0s2.83398 -1.66699 3.50098 -3l1 -2l24 -54
l24 -55c1.33301 -4 0.333008 -6.66699 -3 -8c-1.33301 -1.33301 -2.83301 -1.66602 -4.5 -0.999023s-2.83398 1.66699 -3.50098 3c0 0.666992 -0.166992 1 -0.5 1s-0.5 0.333008 -0.5 1z" />
    <glyph glyph-name="iacute" unicode="&#xed;" horiz-adv-x="122" 
d="M63 8c0 -4 -2 -6 -6 -6s-6 2 -6 6v45v153v156v73c0 4 2 6 6 6s6 -2 6 -6v-44v-146v-156v-81zM51 562c0.666992 0.666992 1 1.33496 1 2.00195l24 55l24 54c0.666992 1.33301 1.83398 2.33301 3.50098 3s3.16699 0.666992 4.5 0c3.33301 -2 4.33301 -5 3 -9
c-0.666992 -0.666992 -1 -1.33398 -1 -2.00098l-24 -54.5l-24 -54.5c-0.666992 -1.33301 -1.83398 -2.33301 -3.50098 -3s-3.16699 -0.333984 -4.5 0.999023c-3.33301 1.33301 -4.33301 4 -3 8z" />
    <glyph glyph-name="icircumflex" unicode="&#xee;" horiz-adv-x="303" 
d="M165 435c0 4 2.16699 6 6.5 6s6.5 -2 6.5 -6v-44v-146v-156v-81c0 -4 -2.16699 -6 -6.5 -6s-6.5 2 -6.5 6v45v153v156v73zM257 580l-42.502 41.5l-43.5 40.5c-3.33301 -3.33301 -6.66602 -6.5 -9.99902 -9.5s-6.66602 -6.16699 -9.99902 -9.5l-45 -43l-45 -43
c-3.33301 -2.66699 -6.5 -2.5 -9.5 0.5s-2.83301 5.83301 0.5 8.5l12 12c4 4 8 7.66699 12 11l45.5 43l45.5 43c0.666992 0.666992 2 1 4 1s3.66699 -0.333008 5 -1l24 -24l45.5 -42l45.5 -43c3.33301 -2.66699 3.5 -5.5 0.5 -8.5s-6.16699 -3.16699 -9.5 -0.5l-12 12
c-4 4 -8.33301 7.66699 -13 11z" />
    <glyph glyph-name="idieresis" unicode="&#xef;" horiz-adv-x="272" 
d="M150 435c0 4 2.16699 6 6.5 6s6.5 -2 6.5 -6v-44v-146v-156v-81c0 -4 -2.16699 -6 -6.5 -6s-6.5 2 -6.5 6v45v153v156v73zM62 628c4 0 7.16699 -1.33301 9.5 -4s3.5 -5.5 3.5 -8.5s-1.16699 -5.83301 -3.5 -8.5s-5.5 -4 -9.5 -4s-7 1.33301 -9 4s-3 5.5 -3 8.5
s1 5.83301 3 8.5s5 4 9 4zM250 628c4 0 7 -1.33301 9 -4s3 -5.5 3 -8.5s-1 -5.83301 -3 -8.5s-5 -4 -9 -4s-7 1.33301 -9 4s-3 5.5 -3 8.5s1 5.83301 3 8.5s5 4 9 4z" />
    <glyph glyph-name="ntilde" unicode="&#xf1;" 
d="M434 429c36 -14.667 63.332 -38.334 81.999 -71.001c14.667 -25.333 22 -53.666 22 -84.999v-126v-141c0 -4 -2 -6 -6 -6s-6 2 -6 6v67v153v47c0 29.333 -7.66699 56.666 -23 81.999c-9.33301 15.333 -21.166 28.833 -35.499 40.5s-30.166 20.167 -47.499 25.5
s-33.666 8 -48.999 8h-20c-6.66699 0 -13.334 -0.666992 -20.001 -2c-37.333 -5.33301 -69 -22 -95 -50c-12 -14 -21.167 -29.667 -27.5 -47s-9.83301 -35.333 -10.5 -54v-2v-146v-121c0 -4.66699 -2 -7 -6 -7s-6 2.33301 -6 7v116v160v60v16.5
c0 5.66699 -0.666992 11.167 -2 16.5c-3.33301 18 -13 32.333 -29 43c-11.333 6.66699 -24.333 10 -39 10h-60c-4 0 -6 2 -6 6s2 6 6 6h62c17.333 0 33.333 -5 48 -15s24.334 -23.667 29.001 -41c2 -6.66699 3 -13.167 3 -19.5v-19.5v-8c4.66699 11.333 10.667 22.333 18 33
s16 20 26 28c14 12.667 29.667 22.667 47 30s35.666 11.333 54.999 12c15.333 0.666992 30.666 0.333984 45.999 -0.999023s30 -5 44 -11zM185.999 572c0 13.333 3.16504 26.5049 9.49805 39.5049s16.166 22.167 29.499 27.5c12.667 6 25.5 8.16699 38.5 6.5
s25.167 -6.5 36.5 -14.5c6.66699 -5.33301 12.834 -10.666 18.501 -15.999l17.5 -16c5.33301 -4.66699 11.166 -8.83398 17.499 -12.501s13.166 -6.16699 20.499 -7.5c8 -1.33301 16.333 -0.833008 25 1.5s16.334 6.5 23.001 12.5c14 12 21 27.667 21 47
c0 4 2.16699 6 6.5 6s6.5 -2 6.5 -6c0 -15.333 -4.16699 -29.333 -12.5 -42s-19.5 -21.667 -33.5 -27c-6.66699 -2.66699 -13.667 -4.33398 -21 -5.00098s-14.333 -0.333984 -21 0.999023c-6 1.33301 -11.5 3.5 -16.5 6.5l-15.5 9.5
c-11.333 9.33301 -22.666 19.666 -33.999 30.999s-24.666 17.666 -39.999 18.999c-8.66699 1.33301 -17.167 0.666016 -25.5 -2.00098s-15.5 -7 -21.5 -13c-11.333 -12 -17 -27.333 -17 -46c0 -4 -2.16699 -6 -6.5 -6s-6.16602 2 -5.49902 6z" />
    <glyph glyph-name="ograve" unicode="&#xf2;" horiz-adv-x="505" 
d="M381 411c35.333 -19.333 63.1689 -46.499 83.502 -81.499s30.5 -72.5 30.5 -112.5c0 -35.333 -8 -68.666 -24 -99.999s-38.333 -57.666 -67 -78.999c-32.667 -24 -69.5 -37.833 -110.5 -41.5s-79.833 3.16602 -116.5 20.499c-36 17.333 -65.333 42.666 -88 75.999
s-35.334 70 -38.001 110s5.16602 78.167 23.499 114.5s44.5 65.166 78.5 86.499c34 22 71.5 33.667 112.5 35s79.5 -8 115.5 -28zM482.003 217.001c0 25.333 -4.33008 49.832 -12.9971 73.499s-21.334 44.834 -38.001 63.501c-27.333 30 -59 51 -95 63
c-19.333 5.33301 -39 8.33301 -59 9s-39.667 -1.66602 -59 -6.99902c-38 -10 -70.5 -29.333 -97.5 -58s-44.5 -62.334 -52.5 -101.001c-8 -40 -5 -79 9 -117c7.33301 -18 16.666 -34.667 27.999 -50s24.666 -29 39.999 -41c31.333 -24 67 -38 107 -42s78 2.66699 114 20
c17.333 8.66699 33 19.5 47 32.5s26.333 27.5 37 43.5c10 16.667 17.833 34.5 23.5 53.5s8.5 38.167 8.5 57.5zM200.006 696l25.499 -57.5l25.5 -57.5c1.33301 -4 0.333008 -7 -3 -9c-3.33301 -2.66699 -6.33301 -2 -9 2c0 1.33301 -0.333008 2.33301 -1 3l-24.5 57
l-25.5 57c-1.33301 4.66699 -0.666016 7.66699 2.00098 9c4 2.66699 7.33301 2 10 -2v-2z" />
    <glyph glyph-name="oacute" unicode="&#xf3;" horiz-adv-x="505" 
d="M381 411c35.333 -19.333 63.1689 -46.499 83.502 -81.499s30.5 -72.5 30.5 -112.5c0 -35.333 -8 -68.666 -24 -99.999s-38.333 -57.666 -67 -78.999c-32.667 -24 -69.5 -37.833 -110.5 -41.5s-79.833 3.16602 -116.5 20.499c-36 17.333 -65.333 42.666 -88 75.999
s-35.334 70 -38.001 110s5.16602 78.167 23.499 114.5s44.5 65.166 78.5 86.499c34 22 71.5 33.667 112.5 35s79.5 -8 115.5 -28zM482.003 217.001c0 25.333 -4.33008 49.832 -12.9971 73.499s-21.334 44.834 -38.001 63.501c-26 30 -57.667 51 -95 63
c-19.333 5.33301 -39 8.33301 -59 9s-39.667 -1.66602 -59 -6.99902c-38 -10 -70.5 -29.333 -97.5 -58s-44.5 -62.334 -52.5 -101.001c-8 -40 -5 -79 9 -117c7.33301 -18 16.666 -34.667 27.999 -50s24.666 -29 39.999 -41c31.333 -24 67 -38 107 -42s78 2.66699 114 20
c17.333 8.66699 33 19.5 47 32.5s26.333 27.5 37 43.5c21.333 33.333 32 70.333 32 111zM314.006 698c0.666992 1.33301 1.99902 2.33203 3.99902 2.99902s3.66699 0.333984 5 -0.999023c2.66699 -1.33301 3.33398 -4.33301 2.00098 -9l-1 -2l-25 -57.5l-25 -57.5
c-2.66699 -4 -5.66699 -4.66699 -9 -2c-4 2.66699 -4.66699 5.66699 -2 9c0 1.33301 0.333008 2 1 2l24.5 57.5z" />
    <glyph glyph-name="ocircumflex" unicode="&#xf4;" horiz-adv-x="505" 
d="M381 411c35.333 -19.333 63.167 -46.499 83.5 -81.499s30.5 -72.5 30.5 -112.5c0 -35.333 -8 -68.666 -24 -99.999s-38.333 -57.666 -67 -78.999c-32.667 -24 -69.5 -37.833 -110.5 -41.5s-79.833 3.16602 -116.5 20.499c-36 17.333 -65.167 42.666 -87.5 75.999
s-35.166 70 -38.499 110c-2.66699 40 5.16602 78.167 23.499 114.5s44.5 65.166 78.5 86.499c34 22 71.5 33.667 112.5 35s79.5 -8 115.5 -28zM482.001 217.001c0 25.333 -4.32812 49.832 -12.9951 73.499s-21.334 44.834 -38.001 63.501c-26 30 -57.667 51 -95 63
c-19.333 5.33301 -38.833 8.33301 -58.5 9s-39.167 -1.66602 -58.5 -6.99902c-38 -10 -70.667 -29.333 -98 -58s-45 -62.334 -53 -101.001c-8.66699 -40.667 -5.33398 -79.667 9.99902 -117c6.66699 -18 15.667 -34.667 27 -50s24.666 -29 39.999 -41
c31.333 -24 67.166 -38 107.499 -42s78.166 2.66699 113.499 20c35.333 18 63.333 43.333 84 76c21.333 33.333 32 70.333 32 111zM278.006 699l12.498 -12l13.5 -12l47 -45l48 -45c3.33301 -3.33301 3.33301 -6.5 0 -9.5s-6.66602 -2.83301 -9.99902 0.5l-12.5 12l-12.5 12
l-45.5 43l-45.5 43l-10.5 -10l-10.5 -10l-48 -45l-47 -45c-3.33301 -3.33301 -6.66602 -3.5 -9.99902 -0.5s-3.33301 6.16699 0 9.5c4.66699 4 9 8 13 12l13 13l95 89c1.33301 1.33301 3 2 5 2s3.66699 -0.666992 5 -2z" />
    <glyph glyph-name="otilde" unicode="&#xf5;" horiz-adv-x="504" 
d="M380 411c35.333 -19.333 63.168 -46.499 83.501 -81.499s30.5 -72.5 30.5 -112.5c0 -35.333 -8 -68.666 -24 -99.999s-38 -57.666 -66 -78.999c-33.333 -24 -70.333 -37.833 -111 -41.5s-79.334 3.16602 -116.001 20.499c-36 17.333 -65.333 42.666 -88 75.999
s-35.334 70 -38.001 110c-3.33301 40 4.33398 78.167 23.001 114.5s44.667 65.166 78 86.499c16.667 10.667 34.667 19 54 25s39 9.33301 59 10s39.833 -1.33301 59.5 -6s38.167 -12 55.5 -22zM481.002 217.001c0 25.333 -4.33398 49.833 -13.001 73.5
s-21.334 44.834 -38.001 63.501c-25.333 29.333 -56.666 50.333 -93.999 63c-19.333 5.33301 -39 8.33301 -59 9s-39.667 -1.66602 -59 -6.99902c-38 -10 -70.5 -29.333 -97.5 -58s-44.5 -62.334 -52.5 -101.001c-8 -40 -5 -79 9 -117c14 -36 36.333 -66.333 67 -91
c32 -24 68 -38 108 -42s78 2.66699 114 20c34.667 17.333 62.334 42.666 83.001 75.999c21.333 33.333 32 70.333 32 111zM150.001 564.001c0 -4 -2.16992 -5.99902 -6.50293 -5.99902s-6.5 2 -6.5 6c0 13.333 3.16699 26.5 9.5 39.5s16.166 22.5 29.499 28.5
c13.333 5.33301 26.5 7.16602 39.5 5.49902s25.167 -6.5 36.5 -14.5c6.66699 -5.33301 12.834 -10.666 18.501 -15.999l17.5 -16c5.33301 -4.66699 11 -8.83398 17 -12.501s12.667 -6.16699 20 -7.5c8.66699 -1.33301 17.334 -0.666016 26.001 2.00098
s16.334 6.66699 23.001 12c14 12.667 21 28.334 21 47.001c0 4 2.16699 6 6.5 6s6.16602 -2 5.49902 -6c0 -15.333 -4.16699 -29.333 -12.5 -42s-19.5 -21.667 -33.5 -27c-14.667 -5.33301 -28.667 -6.66602 -42 -3.99902c-10.667 2.66699 -21 8 -31 16
c-11.333 9.33301 -22.666 19.666 -33.999 30.999s-24.666 17.666 -39.999 18.999c-8.66699 1.33301 -17.167 0.666016 -25.5 -2.00098s-15.5 -7 -21.5 -13c-11.333 -12 -17 -27.333 -17 -46z" />
    <glyph glyph-name="odieresis" unicode="&#xf6;" horiz-adv-x="504" 
d="M380 411c35.333 -19.333 63.168 -46.499 83.501 -81.499s30.5 -72.5 30.5 -112.5c0 -35.333 -8 -68.666 -24 -99.999s-38 -57.666 -66 -78.999c-33.333 -24 -70.333 -37.833 -111 -41.5s-79.334 3.16602 -116.001 20.499c-36 17.333 -65.333 42.666 -88 75.999
s-35.334 70 -38.001 110c-3.33301 40 4.33398 78.167 23.001 114.5s44.667 65.166 78 86.499c16.667 10.667 34.667 19 54 25s39 9.33301 59 10s39.833 -1.33301 59.5 -6s38.167 -12 55.5 -22zM481.002 217.001c0 25.333 -4.33398 49.833 -13.001 73.5
s-21.334 44.834 -38.001 63.501c-25.333 29.333 -56.666 50.333 -93.999 63c-19.333 5.33301 -39 8.33301 -59 9s-39.667 -1.66602 -59 -6.99902c-38 -10 -70.5 -29.333 -97.5 -58s-44.5 -62.334 -52.5 -101.001c-8 -40 -5 -79 9 -117c14 -36 36.333 -66.333 67 -91
c32 -24 68 -38 108 -42s78 2.66699 114 20c34.667 17.333 62.334 42.666 83.001 75.999c21.333 33.333 32 70.333 32 111zM174.001 624.001c-4 0 -7.16699 1.33301 -9.5 4s-3.5 5.83398 -3.5 9.50098s1.16699 6.83398 3.5 9.50098s5.5 4 9.5 4s7.16699 -1.33301 9.5 -4
s3.5 -5.83398 3.5 -9.50098s-1.16699 -6.83398 -3.5 -9.50098s-5.5 -4 -9.5 -4zM371.001 624.001c-4 0 -7.16699 1.33301 -9.5 4s-3.5 5.83398 -3.5 9.50098s1.16699 6.83398 3.5 9.50098s5.5 4 9.5 4s7.16699 -1.33301 9.5 -4s3.5 -5.83398 3.5 -9.50098
s-1.16699 -6.83398 -3.5 -9.50098s-5.5 -4 -9.5 -4z" />
    <glyph glyph-name="ugrave" unicode="&#xf9;" horiz-adv-x="419" 
d="M395 429c0 4 2.33301 6.00195 7 6.00195s7 -2 7 -6v-16v-153v-69c0 -9.33301 -0.166992 -18.5 -0.5 -27.5s-1.5 -18.167 -3.5 -27.5c-4.66699 -19.333 -12.167 -37.5 -22.5 -54.5s-23.166 -31.833 -38.499 -44.5c-32 -26 -68.667 -39 -110 -39
c-2.66699 0 -4.33398 0.333008 -5.00098 1c-0.666992 -0.666992 -2 -1 -4 -1c-26 0 -51.333 5.66699 -76 17c-36.667 17.333 -63.667 44.333 -81 81c-12 26 -18 53.333 -18 82v138v113c0 4 2.33301 6 7 6s7 -2 7 -6v-11v-148v-73c0 -7.33301 -0.166992 -15 -0.5 -23
s0.166992 -15.667 1.5 -23c2.66699 -19.333 8.5 -37.5 17.5 -54.5s21.167 -32.167 36.5 -45.5c30 -26.667 65.333 -40 106 -40c1.33301 0 2.16602 -0.166992 2.49902 -0.5s0.833008 -0.5 1.5 -0.5s1.33398 0.166992 2.00098 0.5s1.66699 0.5 3 0.5
c21.333 0 41.666 4 60.999 12c36.667 15.333 64.334 40.666 83.001 75.999c11.333 23.333 17 49.666 17 78.999v138v113zM223 578.002l-25.5 57.501l-25.5 57.5c-1.33301 4 -0.333008 7 3 9c3.33301 2.66699 6.33301 2 9 -2c0 -1.33301 0.333008 -2 1 -2l25 -58l25 -58
c2.66699 -3.33301 2 -6.33301 -2 -9c-1.33301 -0.666992 -3 -0.833984 -5 -0.500977s-3.33301 1.5 -4 3.5c-0.666992 0 -1 0.666992 -1 2z" />
    <glyph glyph-name="uacute" unicode="&#xfa;" horiz-adv-x="418" 
d="M395 429c0 4 2.16504 6 6.49805 6s6.5 -2 6.5 -6v-16v-153v-69c0 -9.33301 -0.166992 -18.5 -0.5 -27.5s-1.5 -18.167 -3.5 -27.5c-4 -19.333 -11.167 -37.5 -21.5 -54.5s-23.166 -31.833 -38.499 -44.5c-33.333 -26 -70.333 -39 -111 -39c-2 0 -3.33301 0.333008 -4 1
c-0.666992 -0.666992 -2 -1 -4 -1c-26.667 0 -52.334 5.66699 -77.001 17c-36.667 17.333 -63.667 44.333 -81 81c-11.333 24.667 -17 52 -17 82v138v113c0 4 2.16699 6 6.5 6s6.5 -2 6.5 -6v-11v-148v-73c0 -7.33301 -0.166992 -15 -0.5 -23s0.166992 -15.667 1.5 -23
c3.33301 -19.333 9.5 -37.5 18.5 -54.5s20.833 -32.167 35.5 -45.5s31.334 -23.333 50.001 -30s37.667 -10 57 -10c0.666992 0 1.33398 -0.166992 2.00098 -0.5s1.33398 -0.5 2.00098 -0.5s1.16699 0.166992 1.5 0.5s1.16602 0.5 2.49902 0.5c21.333 0 42 4 62 12
c17.333 7.33301 33.166 17.5 47.499 30.5s25.833 28.167 34.5 45.5c6.66699 12.667 11.334 25.5 14.001 38.5s4 26.5 4 40.5v138v113zM207.998 582c0 1.33301 0.333008 2.33301 1 3l25 57.5l25 57.5c2.66699 4 5.66699 4.66699 9 2c3.33301 -2 4.33301 -5 3 -9
c-0.666992 -0.666992 -1 -1.33398 -1 -2.00098l-25.5 -57.5l-25.5 -57.5c-0.666992 -2 -2 -3.16699 -4 -3.5s-3.66699 -0.166016 -5 0.500977c-4 2.66699 -4.66699 5.66699 -2 9z" />
    <glyph glyph-name="ucircumflex" unicode="&#xfb;" horiz-adv-x="419" 
d="M395 429c0 4 2.33594 6.00195 7.00293 6.00195s7 -2 7 -6v-16v-153v-69c0 -9.33301 -0.166992 -18.5 -0.5 -27.5s-1.5 -18.167 -3.5 -27.5c-4.66699 -19.333 -12 -37.5 -22 -54.5s-22.667 -31.833 -38 -44.5c-33.333 -26 -70.333 -39 -111 -39
c-2 0 -3.33301 0.333008 -4 1c-1.33301 -0.666992 -3 -1 -5 -1c-26 0 -51.333 5.66699 -76 17c-36.667 17.333 -63.667 44.333 -81 81c-12 26 -18 53.333 -18 82v138v113c0 4 2.33301 6 7 6s7 -2 7 -6v-11v-148v-73c0 -7.33301 -0.166992 -15 -0.5 -23
s0.166992 -15.667 1.5 -23c2.66699 -19.333 8.5 -37.5 17.5 -54.5s21.167 -32.167 36.5 -45.5c30 -26.667 65.333 -40 106 -40c1.33301 0 2.16602 -0.166992 2.49902 -0.5s1.16602 -0.5 2.49902 -0.5c0.666992 0 1.16699 0.166992 1.5 0.5s1.16602 0.5 2.49902 0.5
c21.333 0 41.666 4 60.999 12c36.667 15.333 64.334 40.666 83.001 75.999c11.333 23.333 17 49.666 17 78.999v138v113zM230.003 701.002c4.66699 -4 8.99805 -8 12.998 -12s8.33301 -8 13 -12l96 -90c3.33301 -3.33301 3.33301 -6.66602 0 -9.99902
s-6.66602 -3.33301 -9.99902 0l-12.5 12l-13.5 13l-45.5 42.5l-45.5 42.5l-10.5 -10l-10.5 -10l-96 -90c-3.33301 -3.33301 -6.5 -3.33301 -9.5 0s-2.83301 6.66602 0.5 9.99902c4.66699 4 9 8 13 12s8.33301 8 13 12l96 90c0.666992 1.33301 2 2 4 2
c2.66699 0 4.33398 -0.666992 5.00098 -2z" />
    <glyph glyph-name="udieresis" unicode="&#xfc;" horiz-adv-x="418" 
d="M395 429c0 4 2.16602 6 6.49902 6s6.5 -2 6.5 -6v-16v-153v-69c0 -9.33301 -0.166992 -18.5 -0.5 -27.5s-1.5 -18.167 -3.5 -27.5c-4 -19.333 -11.167 -37.5 -21.5 -54.5s-23.166 -31.833 -38.499 -44.5c-33.333 -26 -70.333 -39 -111 -39c-2 0 -3.33301 0.333008 -4 1
c-0.666992 -0.666992 -2 -1 -4 -1c-26.667 0 -52.334 5.66699 -77.001 17c-36.667 17.333 -63.667 44.333 -81 81c-11.333 24.667 -17 52 -17 82v138v113c0 4 2.16699 6 6.5 6s6.5 -2 6.5 -6v-11v-148v-73c0 -7.33301 -0.166992 -15 -0.5 -23s0.166992 -15.667 1.5 -23
c3.33301 -19.333 9.5 -37.5 18.5 -54.5s20.833 -32.167 35.5 -45.5c30 -26.667 65.667 -40 107 -40c0.666992 0 1.33398 -0.166992 2.00098 -0.5s1.33398 -0.5 2.00098 -0.5s1.16699 0.166992 1.5 0.5s1.16602 0.5 2.49902 0.5c21.333 0 42 4 62 12
c17.333 7.33301 33.166 17.5 47.499 30.5s25.833 28.167 34.5 45.5c6.66699 12.667 11.334 25.5 14.001 38.5s4 26.5 4 40.5v138v113zM129.999 626c-4 0 -7.16699 1.33301 -9.5 4s-3.5 5.66699 -3.5 9s1.16699 6.33301 3.5 9s5.5 4 9.5 4s7.16699 -1.33301 9.5 -4
s3.5 -5.66699 3.5 -9s-1.16699 -6.33301 -3.5 -9s-5.5 -4 -9.5 -4zM327.999 652c4 0 7.16699 -1.33301 9.5 -4s3.5 -5.66699 3.5 -9s-1.16699 -6.33301 -3.5 -9s-5.5 -4 -9.5 -4s-7.16699 1.33301 -9.5 4s-3.5 5.66699 -3.5 9s1.16699 6.33301 3.5 9s5.5 4 9.5 4z" />
    <glyph glyph-name="yacute" unicode="&#xfd;" horiz-adv-x="366" 
d="M352 439c3.33301 -2 4.33203 -5 2.99902 -9c-0.666992 -0.666992 -1 -1.16699 -1 -1.5s-0.333008 -0.833008 -1 -1.5l-16.5 -38l-16.5 -38l-31 -70.5l-31 -70.5l-35 -79.5l-35 -79.5l-28.5 -65.5l-28.5 -64.5l-24 -54c-0.666992 -2 -2 -3.16699 -4 -3.5
s-3.66699 -0.166016 -5 0.500977c-4 2.66699 -4.66699 5.66699 -2 9c0 0.666992 0.166992 1.16699 0.5 1.5s0.5 1.16602 0.5 2.49902l33 75l31.5 70.5l30.5 70.5c0.666992 2 1.66699 4.33301 3 7l-39 90l-34.5 78l-34.5 77l-18 42l-18 41
c-1.33301 4.66699 -0.666016 7.66699 2.00098 9c1.33301 1.33301 3 1.66602 5 0.999023s3.33301 -1.66699 4 -3h1l39 -90l69 -156l16 -36l16 -37l29.5 68.5l29.5 68.5l29.5 64.5l28.5 65.5l12 27c4 8.66699 7.66699 17.667 11 27c1.33301 1.33301 2.83301 2.33301 4.5 3
s3.16699 0.333984 4.5 -0.999023zM244.999 700c2.66699 4 5.66699 4.66699 9 2c3.33301 -2 4.33301 -5 3 -9c-0.666992 -0.666992 -1 -1.33398 -1 -2.00098l-25.5 -57.5l-25.5 -57.5c-0.666992 -2 -2 -3.16699 -4 -3.5s-3.66699 -0.166016 -5 0.500977
c-4 2.66699 -4.66699 5.66699 -2 9c0 0.666992 0.166992 1.16699 0.5 1.5s0.5 0.833008 0.5 1.5l25 57.5z" />
    <glyph glyph-name="thorn" unicode="&#xfe;" horiz-adv-x="574" 
d="M487 660c28.667 -25.333 49.6689 -55.833 63.002 -91.5s17.333 -72.5 12 -110.5c-4.66699 -37.333 -17.834 -71.333 -39.501 -102s-49.167 -54.667 -82.5 -72s-68.666 -26 -105.999 -26h-46h-116h-4v-95v-50h84h94c4 0 6 -2 6 -6s-2 -6 -6 -6h-41h-137v-55v-46
c0 -4 -2.16699 -6 -6.5 -6s-6.5 2 -6.5 6v10v81v10h-4h-94c-4.66699 0 -7 2 -7 6s2.33301 6 7 6h40h58v116v29h-98c-4 0 -6 2 -6 6s2 6 6 6h9h89v122v157v117v46c0 4 2 6 6 6h18h143c11.333 0 22.666 -0.333008 33.999 -1s22.666 -2.66699 33.999 -6
c36.667 -9.33301 69 -26.333 97 -51zM535.002 405c15.333 35.333 20.333 72.335 15 111.002c-4.66699 36 -17.834 69.167 -39.501 99.5s-49.167 53.5 -82.5 69.5c-30 14 -61.667 21 -95 21h-50h-115v-4v-81v-138v-163v-50h9h137c10 0 20 0.166992 30 0.5s20 1.5 30 3.5
c36.667 7.33301 69.334 22.333 98.001 45c13.333 11.333 25.5 24.166 36.5 38.499s19.833 30.166 26.5 47.499z" />
    <glyph glyph-name="ydieresis" unicode="&#xff;" horiz-adv-x="367" 
d="M353 439c3.33301 -2 4.33398 -4.99902 3.00098 -8.99902c-0.666992 -0.666992 -1 -1.16699 -1 -1.5s-0.333008 -0.833008 -1 -1.5l-16.5 -38l-16.5 -38l-31 -70.5l-31 -70.5l-35 -79.5l-35 -79.5l-28.5 -65.5l-28.5 -64.5l-24 -54c-2 -3.33301 -5 -4.33301 -9 -3
c-3.33301 2 -4.33301 5 -3 9l2 4l33 75l31 70.5l31 70.5c0.666992 2 1.66699 4.33301 3 7l-39 90l-34.5 78l-34.5 77l-18 42l-18 41c-2 4 -1.33301 7 2 9c1.33301 1.33301 3 1.66602 5 0.999023s3.33301 -1.66699 4 -3c7.33301 -15.333 14.166 -30.333 20.499 -45l19.5 -45
l34 -78l34 -78l16 -36l16 -37l30 68.5l30 68.5l28.5 64.5l29.5 65.5c3.33301 9.33301 7 18.333 11 27l12 27c2.66699 4 5.66699 4.66699 9 2zM103.001 652.001c4 0 7.16699 -1.33301 9.5 -4s3.5 -5.66699 3.5 -9s-1.16699 -6.33301 -3.5 -9s-5.5 -4 -9.5 -4
s-7.16699 1.33301 -9.5 4s-3.5 5.66699 -3.5 9s1.16699 6.33301 3.5 9s5.5 4 9.5 4zM301.001 652.001c4 0 7.16699 -1.33301 9.5 -4s3.5 -5.66699 3.5 -9s-1.16699 -6.33301 -3.5 -9s-5.5 -4 -9.5 -4s-7.16699 1.33301 -9.5 4s-3.5 5.66699 -3.5 9s1.16699 6.33301 3.5 9
s5.5 4 9.5 4z" />
    <glyph glyph-name="Scaron" unicode="&#x160;" horiz-adv-x="428" 
d="M384 291c22.667 -32 34.0049 -67.334 34.0049 -106.001v-2v-2c0 -21.333 -3.33301 -41 -10 -59c-12.667 -36 -34.667 -65.333 -66 -88c-15.333 -11.333 -32 -19.833 -50 -25.5s-36.667 -8.5 -56 -8.5c-3.33301 0 -5 1.33301 -5 4c-1.33301 -2.66699 -3.33301 -4 -6 -4
c-32 0 -62.333 6.33301 -91 19s-53.667 30.667 -75 54c-2.66699 3.33301 -2.5 6.33301 0.5 9s5.83301 2.66699 8.5 0c20.667 -22 44.5 -39 71.5 -51s55.5 -18.333 85.5 -19c2.66699 0 4.66699 -1.33301 6 -4c0 2.66699 1.66699 4 5 4c16.667 0 32 2.33301 46 7
c17.333 5.33301 33.666 12.833 48.999 22.5s28.333 21.834 39 36.501c22.667 30 34.667 64.333 36 103v2v2c-0.666992 18.667 -4 37 -10 55s-15 34.333 -27 49c-22.667 30 -52.334 49.667 -89.001 59c-4.66699 1.33301 -9.16699 2.33301 -13.5 3l-13.5 2
c-4 0.666992 -8 1 -12 1h-12c-9.33301 0 -18.833 0.833008 -28.5 2.5s-19.167 4.16699 -28.5 7.5c-17.333 6.66699 -33.5 15.5 -48.5 26.5s-27.833 24.167 -38.5 39.5c-11.333 15.333 -19.833 32 -25.5 50s-8.83398 36.667 -9.50098 56c0 0.666992 0.166992 1 0.5 1
s0.5 0.333008 0.5 1s-0.166992 1.16699 -0.5 1.5s-0.5 0.833008 -0.5 1.5c0.666992 10 1.83398 20 3.50098 30s4.16699 19.667 7.5 29c6 18 14.5 34.333 25.5 49s24.167 27.667 39.5 39c32 22.667 67.333 34 106 34h2c31.333 -0.666992 61.166 -7.16699 89.499 -19.5
s53.166 -30.166 74.499 -53.499c2.66699 -3.33301 2.5 -6.5 -0.5 -9.5s-5.83301 -2.83301 -8.5 0.5c-20.667 22 -44.5 39 -71.5 51s-55.5 18 -85.5 18c-0.666992 0 -1 0.166992 -1 0.5s-0.333008 0.5 -1 0.5c-15.333 0 -30 -2.33301 -44 -7
c-17.333 -4.66699 -33.5 -12 -48.5 -22s-28.167 -22.333 -39.5 -37c-23.333 -30.667 -35 -65 -35 -103v-3v-2c0 -38.667 12 -73.667 36 -105c24 -29.333 53.667 -49 89 -59c4.66699 -1.33301 9.33398 -2.33301 14.001 -3l14 -2h24
c9.33301 -0.666992 18.666 -1.83398 27.999 -3.50098s18.666 -4.16699 27.999 -7.5c36 -12 65.333 -33.667 88 -65zM207.005 852.999l-45.001 43l-45 43c-3.33301 2.66699 -3.5 5.5 -0.5 8.5s6.16699 2.83301 9.5 -0.5c4 -3.33301 8 -7 12 -11l12 -12l43.5 -40.5l42.5 -40.5
c3.33301 3.33301 6.83301 6.5 10.5 9.5s7.16699 6.16699 10.5 9.5l45 43l45 42c3.33301 3.33301 6.5 3.5 9.5 0.5s2.83301 -5.83301 -0.5 -8.5l-12 -12c-4 -4 -8.33301 -8 -13 -12l-45 -42l-45 -43c-1.33301 -1.33301 -3 -2 -5 -2c-1.33301 0 -2.66602 0.666992 -3.99902 2
l-12 12c-4 4 -8.33301 7.66699 -13 11z" />
    <glyph glyph-name="scaron" unicode="&#x161;" horiz-adv-x="321" 
d="M300 655c3.33301 3.33301 6.50195 3.33301 9.50195 0s2.83301 -6.33301 -0.5 -9l-13 -13c-4 -4 -8.33301 -8 -13 -12l-49 -46l-48 -46c-2.66699 -1.33301 -4.33398 -2 -5.00098 -2s-2.33398 0.666992 -5.00098 2c-4.66699 4 -9.16699 8.16699 -13.5 12.5l-12.5 12.5
l-49 46l-48 46c-3.33301 2.66699 -3.5 5.66699 -0.5 9s6.16699 3.33301 9.5 0c4.66699 -4 9.16699 -8.16699 13.5 -12.5l12.5 -12.5l93 -87l21 21l49 45.5zM122.002 224c-18 10 -32.1631 24.002 -42.4961 42.002s-15.5 37.333 -15.5 58v1v2c0 15.333 2.83301 30 8.5 44
s14.167 26.667 25.5 38c23.333 22 50.333 33 81 33c2 0 3.33301 -0.333008 4 -1c0.666992 0.666992 2 1 4 1c19.333 0 38.166 -4 56.499 -12s34.166 -19.333 47.499 -34c3.33301 -3.33301 3.33301 -6.66602 0 -9.99902s-6.33301 -3.33301 -9 0c-26 28 -57.667 42 -95 42
c-1.33301 0 -2.66602 0.666992 -3.99902 2c-0.666992 -0.666992 -2 -1 -4 -1c-28.667 0 -52.667 -10.333 -72 -31c-19.333 -19.333 -29 -43 -29 -71c0 -0.666992 -0.333008 -1.33398 -1 -2.00098c0.666992 0 1 -0.333008 1 -1c0 -18 4.5 -34.833 13.5 -50.5
s21.167 -28.167 36.5 -37.5c8 -5.33301 16.667 -9 26 -11s18.666 -3 27.999 -3c21.333 0 40.666 -5.33301 57.999 -16c17.333 -10 31.166 -23.833 41.499 -41.5s15.5 -37.167 15.5 -58.5v-1v-1c0 -15.333 -2.83301 -30 -8.5 -44s-14.167 -26.667 -25.5 -38
c-22 -22 -49 -33 -81 -33c-1.33301 0 -2.33301 0.333008 -3 1c-0.666992 -0.666992 -2 -1 -4 -1c-20 0 -39 4 -57 12s-33.667 19.333 -47 34c-3.33301 3.33301 -3.5 6.5 -0.5 9.5s6.16699 2.83301 9.5 -0.5c26 -26.667 57.667 -40.667 95 -42c2 0 3.33301 -0.333008 4 -1
c0.666992 0.666992 1.66699 1 3 1c13.333 0.666992 26.5 3.5 39.5 8.5s24.167 12.5 33.5 22.5c9.33301 9.33301 16.5 20.166 21.5 32.499s7.5 25.166 7.5 38.499v1v1c0 18 -4.5 34.833 -13.5 50.5s-21.167 28.167 -36.5 37.5c-16 9.33301 -34 14 -54 14
c-20.667 0 -40 5.33301 -58 16z" />
    <glyph glyph-name="Ydieresis" unicode="&#x178;" horiz-adv-x="530" 
d="M472 626l-78.001 -137.998l-36 -65l-37 -65c-9.33301 -18 -19.666 -36.667 -30.999 -56v-45v-158v-92c0 -4.66699 -2 -7 -6 -7s-6 2.33301 -6 7v51v158v84c-0.666992 0.666992 -1 1.16699 -1 1.5s-0.333008 0.833008 -1 1.5l-22 40l-22 40l-38 69l-38 69l-72 132
l-16.5 28.5l-16.5 29.5c-1.33301 3.33301 -0.333008 6 3 8s6 1.33301 8 -2c0.666992 -0.666992 1 -1.16699 1 -1.5s0.333008 -0.833008 1 -1.5l22 -40l22 -40l38.5 -69.5l37.5 -69.5l37 -65l36 -66l13.5 -24l12.5 -24l21 37.5c6.66699 12.333 13.667 24.5 21 36.5l39 69.5
l39 69.5l36 65l37 65l16 29.5l16 28.5c2 3.33301 4.83301 4 8.5 2s4.5 -4.66699 2.5 -8c-0.666992 -0.666992 -1 -1.33398 -1 -2.00098s-0.333008 -1.33398 -1 -2.00098zM189.999 876.002c-4 0 -7 1.33301 -9 4s-3 5.5 -3 8.5s1 5.83301 3 8.5s5 4 9 4s7 -1.33301 9 -4
s3 -5.5 3 -8.5s-1 -5.83301 -3 -8.5s-5 -4 -9 -4zM377.999 876.002c-4 0 -7 1.33301 -9 4s-3 5.5 -3 8.5s1 5.83301 3 8.5s5 4 9 4s7 -1.33301 9 -4s3 -5.5 3 -8.5s-1 -5.83301 -3 -8.5s-5 -4 -9 -4z" />
    <glyph glyph-name="Zcaron" unicode="&#x17d;" horiz-adv-x="432" 
d="M416 13c4 0 6 -1.99902 6 -5.99902s-2 -6 -6 -6h-6h-111h-161h-82c-2.66699 0 -4.5 1 -5.5 3s-0.833008 4 0.5 6v1l12 23l12 23l26 52l27 52l69 138l75 147l69 135l24.5 49l25.5 49c4 9.33301 8.66699 18.666 14 27.999h-105h-161h-82c-4 0 -6 2.16699 -6 6.5
s2 6.5 6 6.5h5h110h161h82c2.66699 0 4.66699 -1 6 -3s1.33301 -4 0 -6l-1 -1l-12 -23.5c-4 -7.66699 -7.66699 -15.5 -11 -23.5l-27 -52l-26 -52l-35 -68l-35 -69l-37.5 -74l-37.5 -74l-34 -67.5l-34 -66.5l-25.5 -49.5l-24.5 -48.5l-7.5 -14.5l-7.5 -14.5h107h161h82z
M207 853.001l-45.498 43l-45.5 43c-3.33301 2.66699 -3.5 5.5 -0.5 8.5s6.16699 2.83301 9.5 -0.5c4 -3.33301 8.16699 -7 12.5 -11l12.5 -12l42.5 -40.5l43.5 -40.5c3.33301 3.33301 6.66602 6.5 9.99902 9.5s6.66602 6.16699 9.99902 9.5l91 85
c2.66699 3.33301 5.5 3.5 8.5 0.5s2.83301 -5.83301 -0.5 -8.5l-24 -24l-45.5 -42l-45.5 -43c-1.33301 -1.33301 -2.66602 -2 -3.99902 -2c-0.666992 0 -2.33398 0.666992 -5.00098 2l-12 12c-4 4 -8 7.66699 -12 11z" />
    <glyph glyph-name="zcaron" unicode="&#x17e;" horiz-adv-x="405" 
d="M389 15c4 0 6.00098 -2.33203 6.00098 -6.99902s-2 -7 -6 -7h-67h-169h-96c-3.33301 0 -5.33301 1.33301 -6 4s0 5.33398 2 8.00098l7.5 9.5l7.5 9.5l38 49.5l38 49.5l53.5 67.5l52.5 68.5l93 120c5.33301 7.33301 10.666 14.166 15.999 20.499
s10.666 13.166 15.999 20.499h-53h-168h-96c-4.66699 0 -7 2.16699 -7 6.5s2.33301 6.5 7 6.5h67h168h95c3.33301 0 5.33301 -1.33301 6 -4s0.333984 -5 -0.999023 -7l-7.5 -9.5l-7.5 -9.5l-38 -49.5l-39 -49.5l-52.5 -68.5l-52.5 -67.5l-46.5 -60.5l-47.5 -60.5l-15.5 -20
l-15.5 -20h54h168h96zM97.001 692.001c-3.33301 3.33301 -3.49707 6.5 -0.49707 9.5s6.16699 2.83301 9.5 -0.5c4.66699 -4 9 -8 13 -12s8.33301 -8 13 -12l45.5 -43l45.5 -43l10.5 10l10.5 10l96 90c3.33301 3.33301 6.66602 3.5 9.99902 0.5s3.33301 -6.16699 0 -9.5
c-4.66699 -4 -9.16699 -8.16699 -13.5 -12.5l-12.5 -12.5l-96 -90c-2.66699 -1.33301 -4.33398 -2 -5.00098 -2s-2.33398 0.666992 -5.00098 2l-12.5 12l-13.5 13l-47.5 45z" />
    <glyph glyph-name="uni0401" unicode="&#x401;" horiz-adv-x="382" 
d="M70 546v-161h18h162h108c4.66699 0 7 -2.33301 7 -7s-2.33301 -7 -7 -7h-25h-161h-102v-174v-136v-48h17h161h108c4.66699 0 7 -2.33301 7 -7s-2.33301 -7 -7 -7h-23h-161h-108c-4.66699 0 -7 2.33301 -7 7v43v129v173v176v136v55c0 4.66699 2.33301 7 7 7h24h162h108
c4.66699 0 7 -2.33301 7 -7s-2.33301 -7 -7 -7h-25h-161h-102v-36v-129zM64 888c4 0 7.16699 -1.33301 9.5 -4s3.5 -5.83398 3.5 -9.50098s-1.16699 -6.83398 -3.5 -9.50098s-5.5 -4 -9.5 -4c-4.66699 0 -8.16699 1.33301 -10.5 4s-3.5 5.83398 -3.5 9.50098
s1.16699 6.83398 3.5 9.50098s5.83301 4 10.5 4zM358 888c4.66699 0 8 -1.33301 10 -4s3 -5.83398 3 -9.50098s-1 -6.83398 -3 -9.50098s-5.33301 -4 -10 -4c-4 0 -7.16699 1.33301 -9.5 4s-3.5 5.83398 -3.5 9.50098s1.16699 6.83398 3.5 9.50098s5.5 4 9.5 4z" />
    <glyph glyph-name="uni0410" unicode="&#x410;" horiz-adv-x="515" 
d="M144 260c-4 -14 -8.16699 -27.833 -12.5 -41.5l-12.5 -40.5l-19.5 -63c-6.33301 -20.667 -13.166 -41.667 -20.499 -63c-2.66699 -8 -5.16699 -16.167 -7.5 -24.5s-4.83301 -16.5 -7.5 -24.5c-1.33301 -4.66699 -4.16602 -6.33398 -8.49902 -5.00098s-5.83301 4 -4.5 8v2
l21 66l42 135c9.33301 28 18.166 56 26.499 84s17.166 56 26.499 84l51 165l19.5 63l19.5 62l8 25.5l8 24.5c1.33301 3.33301 3.5 5 6.5 5s5.16699 -1.66699 6.5 -5v-1l10 -33l10 -33l42 -135l25.5 -84c8.33301 -28 17.166 -56 26.499 -84l24.5 -82.5l25.5 -82.5l39 -126
l7.5 -25l7.5 -25c1.33301 -4 -0.166992 -6.66699 -4.5 -8s-7.16602 0.333984 -8.49902 5.00098v1l-10 33l-10 33l-42 135l-8 27.5c-2.66699 9 -5.66699 18.167 -9 27.5h-8h-152h-108zM170 343c-3.33301 -12 -6.83301 -23.834 -10.5 -35.501s-7.5 -23.167 -11.5 -34.5h5h153
h102l-15.5 50l-15.5 50l-24.5 82.5l-25.5 82.5l-39 126c-1.33301 4.66699 -2.83301 9.33398 -4.5 14.001s-3.16699 9.66699 -4.5 15c-2.66699 -8 -5.16699 -16 -7.5 -24l-6.5 -23l-21.5 -67.5l-21.5 -67.5l-26 -84z" />
    <glyph glyph-name="uni0411" unicode="&#x411;" horiz-adv-x="450" 
d="M57 -1c-4.66699 0 -7.00098 2.00098 -7.00098 6.00098v44v128v173v175v135v55c0 4 2.33301 6 7 6h15h155h111c4 0 6 -2.16699 6 -6.5s-2 -6.5 -6 -6.5h-16h-155h-104v-37v-128v-137c0.666992 0 1.33398 0.166992 2.00098 0.5s1.33398 0.5 2.00098 0.5h50h86h29
c10 0 20 -0.666992 30 -2c20 -2.66699 39.333 -8.33398 58 -17.001s35.5 -19.5 50.5 -32.5s27.833 -28.167 38.5 -45.5s18.667 -36 24 -56c10.667 -42.667 8.33398 -83.667 -6.99902 -123c-14.667 -39.333 -38.667 -70.666 -72 -93.999
c-16.667 -12 -34.834 -21.333 -54.501 -28s-39.834 -10 -60.501 -10c-8 -0.666992 -16 -0.833984 -24 -0.500977s-16 0.5 -24 0.5h-134zM66.999 393.001c-0.666992 0 -1.33008 0.166992 -1.99707 0.5s-1.33398 0.5 -2.00098 0.5v-24v-175v-135v-48h23h147
c34 0 65.667 8 95 24c17.333 10 32.666 22.167 45.999 36.5s24.333 30.5 33 48.5c9.33301 18 15.166 37.333 17.499 58s1.5 40.667 -2.5 60c-7.33301 39.333 -26 73.666 -56 102.999c-14.667 13.333 -31 24.333 -49 33s-36.667 14.334 -56 17.001
c-10 1.33301 -20 1.83301 -30 1.5s-19.667 -0.5 -29 -0.5h-135z" />
    <glyph glyph-name="uni0412" unicode="&#x412;" horiz-adv-x="452" 
d="M353 36c-35.333 -24 -73.6641 -36.001 -114.997 -36.001h-48h-134c-4 0 -6 2.33301 -6 7v43v129v173v175v135v55c0 4 2 6 6 6h65h86c9.33301 0 18.666 0.166992 27.999 0.5s18.666 -0.166992 27.999 -1.5c20 -3.33301 38.833 -10 56.5 -20s33.167 -22.667 46.5 -38
c13.333 -16 23.166 -34 29.499 -54s8.5 -40.333 6.5 -61c-1.33301 -20.667 -6.33301 -40.334 -15 -59.001s-20.667 -35 -36 -49c-18.667 -18 -40 -30.333 -64 -37c36.667 -9.33301 68.667 -27.666 96 -54.999s45 -59.666 53 -96.999c10 -42 7 -83 -9 -123
c-15.333 -38.667 -40 -69.667 -74 -93zM63.002 709.999l0.000976562 -37v-129v-133h61h85h15c4.66699 0 9.66699 -0.333008 15 -1l1 1c19.333 0 38.166 3.66699 56.499 11s34.5 18 48.5 32s25 30.333 33 49s11.667 38 11 58c0 20.667 -4 40.167 -12 58.5
s-19.333 34.5 -34 48.5c-29.333 28 -64 42 -104 42h-49h-127zM236.003 13.999c20 0 39.3311 3 57.998 9s35.834 14.5 51.501 25.5s29.667 24 42 39s21.833 31.833 28.5 50.5c14.667 40 16.334 80.333 5.00098 121c-11.333 38 -33 70 -65 96s-68.667 40 -110 42h-5h-1h-2h-43
h-132v-25v-175v-136v-47h36h137z" />
    <glyph glyph-name="uni0413" unicode="&#x413;" horiz-adv-x="366" 
d="M63 4c0 -4 -2.16699 -6 -6.5 -6s-6.5 2 -6.5 6v45v129v173v175v135v54c0 4.66699 2.33301 7 7 7h23h161h108c4.66699 0 7 -2.33301 7 -7s-2.33301 -7 -7 -7h-24h-160h-102v-37v-129v-173v-175v-135v-55v0z" />
    <glyph glyph-name="uni0414" unicode="&#x414;" horiz-adv-x="658" 
d="M64 -175c0 -4 -2.33301 -6 -7 -6s-7 2 -7 6v45v134c0 4.66699 2.33301 7 7 7h47h6l1 2c38.667 34.667 69 75 91 121c20.667 44.667 33 90 37 136c1.33301 8.66699 2 17 2 25v25v134v173v86c0 4.66699 2 7 6 7h43h167h103c4.66699 0 7 -2.33301 7 -7v-38v-125v-171v-176
v-136v-55v-1h9h65c4.66699 0 7 -2.33301 7 -7v-44v-135c0 -4 -2.33301 -6 -7 -6s-7 2 -7 6v45v127h-40h-143h-178h-152h-57v-37v-135zM250 247c-6.66699 -45.333 -20.332 -88.001 -40.999 -128.001s-47.334 -76 -80.001 -108h117h178h130v1v38v125v171v176v136v48h-36h-167
h-97v-25v-152v-166v-58c0 -19.333 -1.33301 -38.666 -4 -57.999z" />
    <glyph glyph-name="uni0415" unicode="&#x415;" horiz-adv-x="367" 
d="M57 -1c-4.66699 0 -7 2.33301 -7 7v43v128v172v175v136v54c0 4.66699 2.33301 7 7 7h24h161h108c4.66699 0 7 -2.33301 7 -7s-2.33301 -7 -7 -7h-25h-161h-100v-36v-128v-160h17h161h108c4.66699 0 7 -2.33301 7 -7s-2.33301 -7 -7 -7h-25h-161h-100v-173v-136v-48h16
h160h108c4.66699 0 7 -2.16699 7 -6.5s-2.33301 -6.5 -7 -6.5h-23h-160h-108v0z" />
    <glyph glyph-name="uni0416" unicode="&#x416;" horiz-adv-x="875" 
d="M63 2c-2.66699 -4 -5.83691 -4.83301 -9.50391 -2.5s-4.5 5.5 -2.5 9.5c1.33301 1.33301 2.33301 3 3 5s1.66699 3.66699 3 5l32 57.5l32 57.5l42 76l42 76l20 36l20 36l-2 4l-2 4l-31.5 58l-32.5 58l-41 76l-42 76c-7.33301 12.667 -14.166 25.334 -20.499 38.001
s-13.166 25.334 -20.499 38.001c-2 3.33301 -1.16699 6.16602 2.5 8.49902s6.5 1.83301 8.5 -1.5l12 -21.5l12 -21.5l39 -71.5l39 -71.5l37.5 -68l37.5 -69c2.66699 -5.33301 5.33398 -10.333 8.00098 -15l8 -14h12h135h48v160v136v54c0 4.66699 2.33301 7 7 7
s7 -2.33301 7 -7v-44v-129v-173v-4h111h81c0.666992 2 2.33398 5 5.00098 9l31.5 58.5c10.333 19.667 21.166 39.167 32.499 58.5l41.5 76l41.5 76l42 75c2 4 4.83301 4.83301 8.5 2.5s4.5 -5.5 2.5 -9.5c-2.66699 -5.33301 -5 -9.33301 -7 -12l-32 -58.5l-32 -59.5
l-42 -75.5l-41 -75.5l-20 -36l-20 -36c2 -2.66699 3.33301 -5.33398 4 -8.00098l32.5 -57l31.5 -57l43 -76l42 -76l42 -75c2 -4 1 -7.16699 -3 -9.5s-7 -1.5 -9 2.5l-12.5 22.5l-12.5 22.5l-40 71.5l-40 71.5l-37.5 67.5l-37.5 66.5l-7.5 13.5
c-2.33301 4.33301 -4.5 8.83301 -6.5 13.5h-11h-135h-46v-157v-135v-54c0 -4.66699 -2.33301 -7 -7 -7s-7 2.33301 -7 7v44v129v172v1h-113h-82c-1.33301 -1.33301 -2.16602 -2.5 -2.49902 -3.5s-0.833008 -2.16699 -1.5 -3.5l-32 -57.5l-32 -57.5l-42 -76l-42 -76l-42 -75
v0z" />
    <glyph glyph-name="uni0417" unicode="&#x417;" horiz-adv-x="455" 
d="M305 8c-20 -6 -40.4971 -9 -61.4971 -9s-41.5 3.66699 -61.5 11c-39.333 14.667 -71 38.334 -95 71.001c-24.667 34.667 -37 73 -37 115c0 4.66699 2.33301 7 7 7s7 -2.33301 7 -7c0 -24.667 4.83301 -48.5 14.5 -71.5s23.5 -43.167 41.5 -60.5
c14 -13.333 30 -24.5 48 -33.5s37 -14.5 57 -16.5c20 -2.66699 40.167 -1.83398 60.5 2.49902s39.166 11.833 56.499 22.5c34.667 20.667 59.667 49.667 75 87c7.33301 19.333 11.666 39.166 12.999 59.499s-0.666992 40.5 -6 60.5
c-5.33301 19.333 -13.5 37.166 -24.5 53.499s-24.5 30.5 -40.5 42.5s-33.5 21.333 -52.5 28s-38.833 10 -59.5 10c-2 0 -3.33301 0.333008 -4 1c-3.33301 1.33301 -4.66602 3.83301 -3.99902 7.5s3 5.5 7 5.5c17.333 0 34.333 2.83301 51 8.5s31.667 13.834 45 24.501
c13.333 11.333 24.833 24 34.5 38s16.5 29.667 20.5 47c5.33301 19.333 6.66602 39.333 3.99902 60s-9.33398 39.667 -20.001 57c-9.33301 17.333 -21.833 32.166 -37.5 44.499s-32.834 21.166 -51.501 26.499c-20 6.66699 -40.667 9 -62 7s-41 -8.33301 -59 -19
c-18 -10 -33.667 -23 -47 -39s-22.666 -34 -27.999 -54c-1.33301 -4 -4.16602 -5.5 -8.49902 -4.5s-5.83301 3.83301 -4.5 8.5c0 2.66699 1 5.66699 3 9c7.33301 20 17.833 38 31.5 54s29.834 29 48.501 39c19.333 10 39.666 16.167 60.999 18.5
s42.666 0.833008 63.999 -4.5c40.667 -11.333 72.667 -34.333 96 -69c11.333 -17.333 19.5 -36.166 24.5 -56.499s5.83301 -40.833 2.5 -61.5c-2.66699 -20 -8.83398 -39.167 -18.501 -57.5s-22.167 -34.166 -37.5 -47.499c-19.333 -16 -40.666 -27.667 -63.999 -35
c23.333 -6 45.333 -16 66 -30s37.667 -31.667 51 -53c24 -35.333 35 -74 33 -116c-2 -42.667 -15.667 -80.667 -41 -114c-26 -33.333 -58.667 -55.666 -98 -66.999z" />
    <glyph glyph-name="uni0418" unicode="&#x418;" horiz-adv-x="566" 
d="M522 660l-36 -51.5l-36 -51.5l-48 -68.5l-48 -68.5l-51.5 -73.5l-51.5 -73.5l-47 -67l-47 -67l-34 -49l-34 -49c-4.66699 -6 -9.16699 -12.167 -13.5 -18.5l-12.5 -18.5c-2 -3.33301 -4.66699 -4.5 -8 -3.5s-5 3.16699 -5 6.5v41v127v173v175v136v55c0 4 2.33301 6 7 6
s7 -2 7 -6v-42v-127v-172v-175v-136v-33l10 14c3.33301 4.66699 6.66602 9.66699 9.99902 15l36 51.5l36 51.5l48 68.5l48 68.5l51.5 73.5l51.5 73.5l46.5 67l47.5 67l34 49l34 49c4.66699 6 9 12.167 13 18.5s8.33301 12.5 13 18.5c2 3.33301 4.66699 4.5 8 3.5
s5 -3.16699 5 -6.5v-40v-126v-172v-176v-136v-55c0 -4 -2.33301 -6 -7 -6s-7 2 -7 6v40v127v172v175v136v33l-10 -14c-3.33301 -4.66699 -6.66602 -9.66699 -9.99902 -15z" />
    <glyph glyph-name="uni0419" unicode="&#x419;" horiz-adv-x="567" 
d="M544 716c2 2.66699 4.66699 3.66602 8 2.99902s5 -2.66699 5 -6v-40v-127v-172v-176v-137v-54c0 -4.66699 -2.33301 -7 -7 -7s-7 2.33301 -7 7v40v126v173v175v137v33c-3.33301 -5.33301 -6.66602 -10.166 -9.99902 -14.499s-6.66602 -9.16602 -9.99902 -14.499
l-36.5 -52l-36.5 -52l-48 -68l-48 -69l-51.5 -73.5l-51.5 -73.5l-46.5 -67.5l-47.5 -67.5l-34 -48.5l-34 -48.5l-13.5 -19c-4.33301 -6 -8.5 -12.333 -12.5 -19c-2 -2.66699 -4.66699 -3.66699 -8 -3s-5 2.66699 -5 6v42v127v173v175v136v55c0 4.66699 2.33301 7 7 7
s7 -2.33301 7 -7v-41v-127v-173v-176v-136v-33c3.33301 5.33301 6.66602 10.166 9.99902 14.499s6.66602 9.16602 9.99902 14.499l36 52l36 52l48 68l48 69l51.5 73.5l51.5 73.5l47.5 67.5l46.5 67.5l34.5 48.5l34.5 48.5c7.33301 12.667 16 25.334 26 38.001zM84 896.999
c-2 0.666992 -3.16992 2 -3.50293 4s-0.166016 3.66699 0.500977 5c2 3.33301 5.33301 4 10 2c17.333 -7.33301 34.833 -13.833 52.5 -19.5s35.834 -10.167 54.501 -13.5c52 -10 104.333 -12 157 -6s103.334 19.333 152.001 40c1.33301 1.33301 3 1.33301 5 0s3 -3 3 -5
c2 -4 0.666992 -6.66699 -4 -8c-34.667 -14 -71.667 -25.333 -111 -34c-53.333 -10 -106.833 -12 -160.5 -6s-105.5 19.667 -155.5 41z" />
    <glyph glyph-name="uni041A" unicode="&#x41a;" horiz-adv-x="522" 
d="M64 349l0.000976562 -155.001v-135v-55c0 -4.66699 -2.33301 -7 -7 -7s-7 2.33301 -7 7v45v130v172v175v135v55c0 4 2.33301 6 7 6s7 -2 7 -6v-45v-130v-172v-7h94h122c2 3.33301 3.83301 6.16602 5.5 8.49902s3.5 5.16602 5.5 8.49902l36.5 60l37.5 60l90 147l22 36
l22 36c2.66699 3.33301 5.83398 3.83301 9.50098 1.5s4.5 -5.16602 2.5 -8.49902s-4 -6.5 -6 -9.5s-4 -6.16699 -6 -9.5l-37 -60l-37 -61l-45 -73l-45 -73l-21 -34l-21 -34c1.33301 -2.66699 2.66602 -5 3.99902 -7l4 -6l36.5 -59l36.5 -59l46 -73.5l46 -73.5l22.5 -35
l22.5 -36c2 -4 1.16699 -7.16699 -2.5 -9.5s-6.83398 -1.5 -9.50098 2.5c-1.33301 2.66699 -3 5.33398 -5 8.00098s-3.66699 5.33398 -5 8.00098l-37 58.5l-37 59.5l-45.5 73l-45.5 73l-21 34l-21 34h-97h-121z" />
    <glyph glyph-name="uni041B" unicode="&#x41b;" horiz-adv-x="516" 
d="M51 6c0 0.666992 0.166992 1 0.5 1s0.5 0.333008 0.5 1l10 33l10 33l42 135c9.33301 28 18.166 56 26.499 84s17.166 56 26.499 84l51 165l19.5 63l19.5 62c3.33301 8.66699 6.16602 17.167 8.49902 25.5s4.83301 16.5 7.5 24.5c1.33301 3.33301 3.5 5 6.5 5
s5.16699 -1.66699 6.5 -5l1 -1l10 -33l10 -33c7.33301 -22.667 14.166 -45.167 20.499 -67.5s13.166 -44.833 20.499 -67.5l26 -84l26 -84l51 -165l19 -63l19 -63l8 -25l8 -25c1.33301 -4 -0.166992 -6.66699 -4.5 -8s-7.16602 0.333984 -8.49902 5.00098
c-0.666992 0 -1 0.333008 -1 1l-10 33l-10 33l-42 135l-51 168l-51 165l-39 126l-4 14c-1.33301 4.66699 -2.66602 9.66699 -3.99902 15c-2.66699 -8 -5.16699 -16 -7.5 -24s-4.83301 -15.667 -7.5 -23l-42 -135c-9.33301 -28 -18.166 -56 -26.499 -84
s-17.166 -56 -26.499 -84l-51 -165l-39 -126l-8 -24.5l-8 -24.5c-1.33301 -4.66699 -4.16602 -6.33398 -8.49902 -5.00098s-5.83301 4 -4.5 8z" />
    <glyph glyph-name="uni041C" unicode="&#x41c;" horiz-adv-x="650" 
d="M64 5c0 -4.66699 -2.33691 -7 -7.00391 -7s-7 2.33301 -7 7v44v129v173v175v135v54c0 3.33301 1.66699 5.5 5 6.5s6 0.166992 8 -2.5c0.666992 -1.33301 1.33398 -2.5 2.00098 -3.5s1.33398 -2.16699 2.00098 -3.5l30 -45.5l30 -45.5l96 -144l44.5 -66.5l44.5 -67.5
l16.5 -24.5c5.66699 -8.33301 11.167 -16.833 16.5 -25.5l29.5 44.5l29.5 44.5l48 72l47 72l45 67l44 67c6.66699 9.33301 13.167 19 19.5 29l19.5 30c2 2.66699 4.66699 3.5 8 2.5s5 -3.16699 5 -6.5v-44v-129v-173v-175v-135v-54c0 -4.66699 -2.33301 -7 -7 -7
s-7 2.33301 -7 7v44v129v173v175v135v32c-1.33301 -2 -2.5 -3.83301 -3.5 -5.5s-2.16699 -3.5 -3.5 -5.5l-39 -59l-39 -59l-49 -74l-49 -74l-37.5 -57l-38.5 -56l-15 -24c-4.66699 -6 -9 -6.33301 -13 -1c-1.33301 1.33301 -2.16602 2.5 -2.49902 3.5
s-1.16602 2.16699 -2.49902 3.5l-30 45c-10 14.667 -19.667 29.667 -29 45l-96 144l-44.5 67l-44.5 67l-13.5 20l-12.5 20v-22v-129v-173v-175v-135v-54v0z" />
    <glyph glyph-name="uni041D" unicode="&#x41d;" horiz-adv-x="492" 
d="M469 715c0 4.66699 2.16797 7 6.50098 7s6.5 -2.33301 6.5 -7v-44v-129v-173v-174v-136v-54c0 -4.66699 -2.16699 -7 -6.5 -7s-6.5 2.33301 -6.5 7v44v129v170h-9h-135h-173h-85c-2 0 -3.33301 0.333008 -4 1v-154v-136v-54c0 -4.66699 -2.16699 -7 -6.5 -7
s-6.5 2.33301 -6.5 7v44v129v172v175v136v54c0 4.66699 2.16699 7 6.5 7s6.5 -2.33301 6.5 -7v-44v-129v-173v-8c0.666992 0 1.16699 0.166992 1.5 0.5s1.16602 0.5 2.49902 0.5h15h134h173h80v163v136v54v0z" />
    <glyph glyph-name="uni041E" unicode="&#x41e;" horiz-adv-x="429" 
d="M353 680c13.333 -12 24.999 -25.668 34.999 -41.001s17.667 -32 23 -50c3.33301 -9.33301 5.5 -18.666 6.5 -27.999s1.5 -18.666 1.5 -27.999v-114v-158v-80c-0.666992 -28 -7 -54.5 -19 -79.5s-28.667 -46.167 -50 -63.5c-14.667 -11.333 -30.5 -20.5 -47.5 -27.5
s-35.167 -11.167 -54.5 -12.5c-38.667 -3.33301 -74.667 5 -108 25c-15.333 9.33301 -29.333 20.833 -42 34.5s-22.667 28.5 -30 44.5c-12 26 -18 53 -18 81v99v159v97c0 33.333 8.33301 64.333 25 93s39.334 51 68.001 67c16.667 9.33301 34.167 16.166 52.5 20.499
s37.166 5.5 56.499 3.5c38.667 -4 72.334 -18 101.001 -42zM405.999 488.999c0 16.667 0.167969 33.334 0.500977 50.001s-2.16699 33 -7.5 49c-11.333 36 -31.833 65.167 -61.5 87.5s-62.834 33.833 -99.501 34.5c-38 1.33301 -72.333 -9 -103 -31
c-14.667 -10.667 -27.5 -23.167 -38.5 -37.5s-19.167 -29.833 -24.5 -46.5c-3.33301 -10 -5.66602 -20 -6.99902 -30s-2 -20.333 -2 -31v-42v-150v-136v-25c0 -17.333 2.5 -34.5 7.5 -51.5s12.833 -32.5 23.5 -46.5c10 -15.333 22.167 -28.333 36.5 -39s29.833 -19 46.5 -25
c18 -6 36.5 -9.16699 55.5 -9.5s37.167 2.5 54.5 8.5c35.333 11.333 63.666 31.666 84.999 60.999c22.667 30.667 34 64.667 34 102v23v134v151z" />
    <glyph glyph-name="uni041F" unicode="&#x41f;" horiz-adv-x="449" 
d="M64 707v-36v-128v-172v-175v-136v-54c0 -4.66699 -2.33301 -7 -7 -7s-7 2.33301 -7 7v42v129v172v175v136v54c0 4.66699 2.33301 7 7 7h1h109h175h91c4 0 6 -2.33301 6 -7v-42v-128v-173v-175v-135v-55c0 -4.66699 -2.16699 -7 -6.5 -7s-6.5 2.33301 -6.5 7v42v128v173
v175v136v47h-104h-174h-84z" />
    <glyph glyph-name="uni0420" unicode="&#x420;" horiz-adv-x="468" 
d="M155 722l68.001 0.000976562c16 0 31.667 -1.33301 47 -4s30.333 -7 45 -13c38 -15.333 69.667 -39.333 95 -72s40.666 -69.334 45.999 -110.001c5.33301 -42 0 -82.167 -16 -120.5s-41 -69.833 -75 -94.5c-33.333 -25.333 -71 -40 -113 -44
c-9.33301 -1.33301 -18.833 -1.83301 -28.5 -1.5s-19.5 0.5 -29.5 0.5h-131v-69v-135v-55c0 -4 -2.16699 -6 -6.5 -6s-6.5 2 -6.5 6v45v129v173v175v135v54c0 4.66699 2.33301 7 7 7h98zM246.001 708.001c-9.33301 0.666992 -18.502 0.998047 -27.502 0.998047h-27.5h-128
v-38v-129v-173v-93h74h78c13.333 0 26.333 0.666992 39 2s25.334 4 38.001 8c18.667 6 36.334 14.333 53.001 25s31.5 23.334 44.5 38.001s24 30.834 33 48.501s15.167 36.5 18.5 56.5s4 40 2 60s-6.66699 39.333 -14 58s-17 36 -29 52s-26.333 30 -43 42
c-33.333 24.667 -70.333 38.667 -111 42z" />
    <glyph glyph-name="uni0421" unicode="&#x421;" horiz-adv-x="430" 
d="M63 237l0.00292969 -49.0029c0 -12 0.833008 -23.667 2.5 -35s4.83398 -22.666 9.50098 -33.999c7.33301 -18 17.333 -34.667 30 -50s27.667 -27.666 45 -36.999c17.333 -10 36.166 -16.667 56.499 -20s40.5 -3.33301 60.5 0c19.333 4 37.5 11 54.5 21
s32.167 22.667 45.5 38c25.333 32 38.666 68.667 39.999 110c0 4.66699 2.16699 7 6.5 7s6.5 -2.33301 6.5 -7c0 -30 -6.66699 -58.167 -20 -84.5s-32 -48.166 -56 -65.499c-16.667 -12 -34.834 -21.167 -54.501 -27.5s-39.834 -8.83301 -60.501 -7.5
c-42.667 2 -80.334 16.333 -113.001 43c-15.333 13.333 -28.333 28.666 -39 45.999s-18.334 35.666 -23.001 54.999c-2 9.33301 -3.16699 18.333 -3.5 27s-0.5 17.667 -0.5 27v139v165v40c0 32 7.33301 61.333 22 88c9.33301 17.333 21.333 33.166 36 47.499
s31.334 25.5 50.001 33.5c19.333 8.66699 39.333 14 60 16s41.334 0.333008 62.001 -5c40.667 -9.33301 74 -30.666 100 -63.999c12.667 -16 22.5 -33.667 29.5 -53s10.5 -39.666 10.5 -60.999c0 -4 -2.16699 -6 -6.5 -6s-6.5 2 -6.5 6
c-0.666992 19.333 -4.16699 38 -10.5 56s-15.5 34.667 -27.5 50c-12.667 15.333 -27.5 28.333 -44.5 39s-35.167 18 -54.5 22s-39.333 4.5 -60 1.5s-39.667 -9.5 -57 -19.5c-36 -19.333 -61.667 -47.666 -77 -84.999c-8.66699 -22 -13 -45.333 -13 -70v-128v-169z" />
    <glyph glyph-name="uni0422" unicode="&#x422;" horiz-adv-x="498" 
d="M312 708h-36v-2v-37v-126v-171v-175v-137v-55c0 -4.66699 -2.33301 -7 -7 -7s-7 2.33301 -7 7v38v125v171v176v136v55v2h-122h-83c-4.66699 0 -7 2.16699 -7 6.5s2.33301 6.5 7 6.5h25h143h172h84c4.66699 0 7 -2.16699 7 -6.5s-2.33301 -6.5 -7 -6.5h-25h-144z" />
    <glyph glyph-name="uni0423" unicode="&#x423;" horiz-adv-x="484" 
d="M80 641l-14.0068 33.499c-4.66699 11 -9.66699 22.167 -15 33.5c-1.33301 4 -0.666016 7 2.00098 9c4 2.66699 7.33301 1.66699 10 -3l1 -2l19 -43.5l19 -43.5l69 -156l32.5 -75l32.5 -74c4.66699 -9.33301 9 -18.833 13 -28.5l12 -28.5l60 135l69 156l51 117l10 22.5
l10 23.5c2.66699 4.66699 5.66699 5.33398 9 2.00098c3.33301 -2 4.33301 -5 3 -9c-1.33301 -2 -2.16602 -3.83301 -2.49902 -5.5s-1.16602 -3.5 -2.49902 -5.5l-18 -40.5l-18 -41.5l-30.5 -69l-30.5 -69l-36 -82l-36 -81l-34 -78l-34 -78l-51 -117l-10.5 -22.5
c-3.66699 -7.66699 -7.16699 -15.5 -10.5 -23.5c-0.666992 -1.33301 -2 -2.33301 -4 -3s-3.66699 -0.333984 -5 0.999023c-4 2.66699 -4.66699 5.66699 -2 9c0.666992 2 1.33398 3.83301 2.00098 5.5s1.33398 3.16699 2.00098 4.5c12 28.667 24.333 56.334 37 83.001l30 69
l31 69c0.666992 2 1.33398 3.83301 2.00098 5.5s1.33398 3.5 2.00098 5.5c0 0.666992 -0.166992 1.16699 -0.5 1.5s-0.5 0.833008 -0.5 1.5l-19.5 43.5l-18.5 43.5l-69 156l-33 74.5z" />
    <glyph glyph-name="uni0424" unicode="&#x424;" horiz-adv-x="865" 
d="M445 260l-96.998 -0.00195312h-64c-35.333 0 -68.333 7 -99 21c-37.333 17.333 -68 42.833 -92 76.5s-38 70.834 -42 111.501c-3.33301 41.333 3.83398 81 21.501 119s43.5 68.667 77.5 92c17.333 12 35.666 21.5 54.999 28.5s39 11.167 59 12.5
c9.33301 0.666992 18.5 0.833984 27.5 0.500977s18.167 -0.5 27.5 -0.5h133h1h100h67c16 0 31.667 -1.33301 47 -4s30.333 -7 45 -13c38 -16 69.667 -40.5 95 -73.5s40.666 -69.833 45.999 -110.5c5.33301 -42 -0.333984 -82.167 -17.001 -120.5s-42 -69.833 -76 -94.5
c-32.667 -24.667 -70 -39 -112 -43c-9.33301 -1.33301 -19 -2 -29 -2h-29h-132v-65v-135v-55c0 -4.66699 -2.16699 -7 -6.5 -7s-6.5 2.33301 -6.5 7v43v129v83zM458.002 707.998l0.000976562 -37v-128v-173v-96h77h77c13.333 0 26.5 0.666992 39.5 2s26.167 4 39.5 8
c38 12.667 70.333 34.334 97 65.001s43.334 66 50.001 106c3.33301 20 3.83301 40 1.5 60s-7.33301 39.333 -15 58s-17.5 35.834 -29.5 51.501s-26.333 29.5 -43 41.5c-16.667 11.333 -34.334 20.666 -53.001 27.999s-38.334 11.666 -59.001 12.999
c-9.33301 0.666992 -18.333 1 -27 1h-27h-128zM445.003 273.998l0.00195312 74.9971v175v136v48h-71h-79c-12.667 0 -25 -0.666992 -37 -2s-24.333 -3.66602 -37 -6.99902c-38.667 -11.333 -71.834 -31.833 -99.501 -61.5s-45.5 -64.167 -53.5 -103.5
c-4 -20.667 -5.16699 -41.167 -3.5 -61.5s6.16699 -40.166 13.5 -59.499c15.333 -37.333 38.666 -68.666 69.999 -93.999c15.333 -12 32.5 -21.833 51.5 -29.5s38.167 -12.5 57.5 -14.5c9.33301 -1.33301 19 -1.83301 29 -1.5s19.667 0.5 29 0.5h130z" />
    <glyph glyph-name="uni0425" unicode="&#x425;" horiz-adv-x="471" 
d="M342 194l-37.4961 67.501l-36.5 67.5l-5.5 9.5l-5.5 9.5l-3 -6l-32.5 -58l-32.5 -58l-42 -76l-42 -76l-42 -75c-2 -4 -5 -4.83301 -9 -2.5s-4.66699 5.5 -2 9.5l6 12l32.5 58l32.5 58l42 75.5l42 75.5l20 36l20 36c-2.66699 5.33301 -4.66699 9 -6 11l-33 60l-32 60
l-42 75.5l-41 75.5l-21 37.5l-20 37.5c-2 4 -1.16699 7.16699 2.5 9.5s6.5 1.5 8.5 -2.5c5.33301 -8.66699 10.166 -17.167 14.499 -25.5s8.83301 -16.5 13.5 -24.5l39.5 -73l39.5 -72l37 -67.5l37 -67.5c1.33301 -3.33301 3 -6.5 5 -9.5s3.66699 -6.16699 5 -9.5
c1.33301 1.33301 2.66602 3.33301 3.99902 6l32 58l32 58l42.5 76l42.5 76l20 37.5l21 37.5c2.66699 4 5.83398 4.83301 9.50098 2.5s4.5 -5.5 2.5 -9.5c-2.66699 -5.33301 -5 -9.33301 -7 -12l-32 -58l-32 -58l-42 -76l-42 -76c-14.667 -24.667 -28 -48.334 -40 -71.001
c2.66699 -5.33301 4.66699 -9 6 -11l32.5 -60l32.5 -60l41.5 -75.5l41.5 -75.5c7.33301 -12.667 14.166 -25.167 20.499 -37.5s13.166 -24.833 20.499 -37.5c2 -4 1.16699 -7.16699 -2.5 -9.5s-6.83398 -1.5 -9.50098 2.5l-13.5 25l-13.5 25l-39.5 72.5z" />
    <glyph glyph-name="uni0426" unicode="&#x426;" horiz-adv-x="486" 
d="M314 -1h-173h-85c-4 0 -6 2.33301 -6 7v43v128v172v175v136v54c0 4.66699 2.16699 7 6.5 7s6.5 -2.33301 6.5 -7v-42v-128v-172v-175v-136v-48h11h138h173h33v38v127v172v175v136v55c0 4 2.33301 6 7 6s7 -2 7 -6v-41v-126v-172v-176v-136v-52h37
c4.66699 0 7 -2.33301 7 -7v-1v-126c0 -4.66699 -2.16699 -7 -6.5 -7s-6.5 2.33301 -6.5 7v1v119h-11h-138z" />
    <glyph glyph-name="uni0427" unicode="&#x427;" horiz-adv-x="443" 
d="M329 315c-18.667 -9.33301 -38.332 -15.501 -58.999 -18.501s-41.334 -2.83301 -62.001 0.5c-41.333 7.33301 -76.333 26.333 -105 57s-45.667 66.667 -51 108c-1.33301 8.66699 -1.83301 17.167 -1.5 25.5s0.5 16.5 0.5 24.5v80v123c0 4.66699 2.33301 7 7 7
s7 -2.33301 7 -7v-4v-145v-69c0 -11.333 0.5 -22.833 1.5 -34.5s3.5 -23.167 7.5 -34.5c12 -38 35.333 -68.333 70 -91c17.333 -11.333 35.833 -19.5 55.5 -24.5s39.834 -6.5 60.501 -4.5c19.333 2 38.166 7.33301 56.499 16s34.5 20 48.5 34c30 28 47.667 62.333 53 103
c0.666992 4 1 8 1 12v12v27v12v67v69v54c0 4.66699 2.33301 7 7 7s7 -2.33301 7 -7v-12v-31v-126v-2v-54v-119v-175v-136v-54c0 -4.66699 -2.33301 -7 -7 -7s-7 2.33301 -7 7v43v128v173v65c-1.33301 -2.66699 -2.5 -5.16699 -3.5 -7.5s-2.16699 -4.83301 -3.5 -7.5
c-9.33301 -18 -21 -34.167 -35 -48.5s-30 -26.166 -48 -35.499z" />
    <glyph glyph-name="uni0428" unicode="&#x428;" horiz-adv-x="813" 
d="M414 0h-173h-132h-52c-4.66699 0 -7 2 -7 6v42v128v172v175v136v55c0 4 2.16699 6 6.5 6s6.5 -2 6.5 -6v-42v-128v-172v-175v-136v-48h61h140h156v35v128v172v175v136v55c0 4 2.33301 6 7 6s7 -2 7 -6v-42v-128v-172v-175v-136v-48h5h173h132h46v35v128v172v175v136v55
c0 4 2.16699 6 6.5 6s6.5 -2 6.5 -6v-42v-128v-172v-175v-136v-55c0 -4 -2 -6 -6 -6h-2h-65h-140h-176z" />
    <glyph glyph-name="uni0429" unicode="&#x429;" horiz-adv-x="866" 
d="M706 -3h-1h-115h-176h-173h-132h-52c-4.66699 0 -7 2 -7 6v44v129v172v175v136v54c0 4.66699 2.16699 7 6.5 7s6.5 -2.33301 6.5 -7v-43v-129v-173v-175v-135v-48h61h140h156v37v129v172v175v136v54c0 4.66699 2.33301 7 7 7s7 -2.33301 7 -7v-43v-129v-173v-175v-135
v-48h5h173h132h46v37v129v172v175v136v54c0 4.66699 2.16699 7 6.5 7s6.5 -2.33301 6.5 -7v-43v-129v-173v-175v-135v-48h47c4 0 6 -2.33301 6 -7v-121c0 -4 -2.16699 -6 -6.5 -6s-6.5 2 -6.5 6v115h-3h-134z" />
    <glyph glyph-name="uni042A" unicode="&#x42a;" horiz-adv-x="658" 
d="M494 437c38.667 -13.333 71.667 -35.667 99 -67s44.333 -67 51 -107c7.33301 -42.667 3.33301 -83.667 -12 -123c-8 -18.667 -18 -36 -30 -52s-26 -30.333 -42 -43c-32.667 -24.667 -70 -39.667 -112 -45c-12.667 -1.33301 -25.167 -1.83301 -37.5 -1.5
s-24.833 0.5 -37.5 0.5h-118c-4.66699 0 -7 2.33301 -7 7v43v128v172v175v136v48h-60h-131c-4.66699 0 -7 2.16699 -7 6.5s2.33301 6.5 7 6.5h67h131c4.66699 0 7 -2.33301 7 -7v-42v-129v-95h74h77c13.333 0 26.833 -0.666992 40.5 -2s27.167 -4.33301 40.5 -9z
M626 163.999c11.333 40 11.168 79.6689 -0.499023 119.002s-32.834 72.666 -63.501 99.999c-30.667 26.667 -66.334 43 -107.001 49c-10 1.33301 -20.167 2.16602 -30.5 2.49902s-20.833 0.5 -31.5 0.5h-131v-64v-175v-136v-48h66h52h39c12.667 0 25.334 1 38.001 3
c20 3.33301 38.833 9.33301 56.5 18s34 19.5 49 32.5s27.833 27.833 38.5 44.5s19 34.667 25 54z" />
    <glyph glyph-name="uni042B" unicode="&#x42b;" horiz-adv-x="835" 
d="M813 718c1.33301 3.33301 3.66699 4.49902 7 3.49902s5 -3.16699 5 -6.5v-44v-129v-172v-175v-136v-54c0 -4.66699 -2.16699 -7 -6.5 -7s-6.5 2.33301 -6.5 7v43v129v173v175v135v33c-4 -6.66699 -8.16699 -13 -12.5 -19l-12.5 -18l-39 -58l-39 -58l-49 -72.5l-49 -72.5
l-48.5 -72l-48.5 -72l-37 -54.5l-37 -54.5c-5.33301 -7.33301 -10.166 -14.666 -14.499 -21.999s-9.16602 -14.666 -14.499 -21.999l-2 -2c-13.333 -20 -29.333 -36.667 -48 -50c-16 -12.667 -33.5 -22.667 -52.5 -30s-38.5 -12.333 -58.5 -15
c-12.667 -1.33301 -25.334 -1.83301 -38.001 -1.5s-25.334 0.5 -38.001 0.5h-117c-4.66699 0 -7 2 -7 6v43v128v173v175v136v54c0 4.66699 2.16699 7 6.5 7s6.5 -2.33301 6.5 -7v-43v-128v-95h75h76c14 0 27.833 -0.833008 41.5 -2.5s27.167 -4.83398 40.5 -9.50098
c38.667 -13.333 71.5 -35.5 98.5 -66.5s44.167 -66.5 51.5 -106.5c5.33301 -33.333 4 -65 -4 -95l36 53.5l37 53.5l48.5 73l49.5 73l48 71.5l48 71.5l37.5 55l36.5 55l15 21.5zM259.001 15.999c40 6.66699 75.167 23.5 105.5 50.5s51.166 59.833 62.499 98.5
c11.333 39.333 11.333 78.833 0 118.5s-32.666 73.167 -63.999 100.5c-30.667 26.667 -66 43 -106 49c-10.667 1.33301 -21 2 -31 2h-31h-132v-63v-175v-136v-48h66h52h39.5c13 0 25.833 1 38.5 3z" />
    <glyph glyph-name="uni042C" unicode="&#x42c;" horiz-adv-x="462" 
d="M304 437c38 -14.667 70.167 -37.832 96.5 -69.499s42.5 -67.834 48.5 -108.501c6 -42.667 1 -83.667 -15 -123c-16 -38 -40.333 -69 -73 -93c-34 -24.667 -71.667 -39 -113 -43c-12 -1.33301 -24.167 -2 -36.5 -2h-37.5h-117c-4.66699 0 -7 2.33301 -7 7v44v129v172v175
v136v54c0 4.66699 2.16699 7 6.5 7s6.5 -2.33301 6.5 -7v-43v-129v-92h81h74c14.667 0 29.167 -1 43.5 -3s28.5 -5.66699 42.5 -11zM430 166.002c11.333 40 11.167 79.6689 -0.5 119.002s-33.167 72.666 -64.5 99.999c-30.667 26.667 -66 43 -106 49c-10.667 2 -21 3 -31 3
h-31h-134v-67v-175v-135v-48h69h54h39c12.667 0 25.667 1 39 3c40 7.33301 75 24.666 105 51.999s50.333 60.333 61 99z" />
    <glyph glyph-name="uni042D" unicode="&#x42d;" horiz-adv-x="430" 
d="M354 681c15.333 -13.333 28.3311 -28.6689 38.998 -46.002s18 -35.666 22 -54.999c2 -9.33301 3.33301 -18.333 4 -27s1 -17.667 1 -27v-139v-165v-40c0 -32 -7.33301 -61.333 -22 -88c-9.33301 -17.333 -21.333 -33.166 -36 -47.499s-31.334 -25.5 -50.001 -33.5
c-19.333 -8.66699 -39.333 -14.167 -60 -16.5s-41.334 -0.833008 -62.001 4.5c-40.667 10.667 -74 32 -100 64c-12.667 16.667 -22.5 34.667 -29.5 54s-10.5 39.333 -10.5 60c0 4.66699 2.16699 7 6.5 7s6.5 -2.33301 6.5 -7c0.666992 -18.667 4.16699 -37 10.5 -55
s15.5 -34.667 27.5 -50c12.667 -15.333 27.334 -28.333 44.001 -39s34.667 -18 54 -22c20 -4 40.333 -4.5 61 -1.5s39.667 9.16699 57 18.5s32.666 21.5 45.999 36.5s23.666 31.5 30.999 49.5c4.66699 11.333 7.83398 22.833 9.50098 34.5s2.5 23.5 2.5 35.5v128v41
c-1.33301 -2 -3 -3 -5 -3h-64h-131c-4.66699 0 -7 2.16699 -7 6.5s2.33301 6.5 7 6.5h64h131c2 0 3.66699 -1 5 -3v121v49c0 12 -0.666992 23.667 -2 35s-4.33301 22.666 -9 33.999c-14.667 37.333 -39.667 66.333 -75 87c-36.667 20.667 -75.667 27 -117 19
c-39.333 -7.33301 -72.666 -26.666 -99.999 -57.999c-26.667 -32 -40 -68.667 -40 -110c0 -4.66699 -2.16699 -7 -6.5 -7s-6.5 2.33301 -6.5 7c0 30 6.66699 58 20 84s32 47.667 56 65c16.667 12.667 34.834 22 54.501 28s39.834 8.66699 60.501 8
c42.667 -2 80.334 -16.333 113.001 -43z" />
    <glyph glyph-name="uni042E" unicode="&#x42e;" horiz-adv-x="678" 
d="M668 174c0 -26 -4.33496 -50.0039 -13.002 -72.0039c-8 -18.667 -18.167 -35.667 -30.5 -51s-27.166 -28.666 -44.499 -39.999s-36 -19.5 -56 -24.5s-40 -6.83301 -60 -5.5c-42 2 -79 16.333 -111 43c-15.333 12.667 -28.5 27.334 -39.5 44.001s-19.167 34.667 -24.5 54
c-5.33301 18 -7.83301 36.333 -7.5 55s0.5 37.334 0.5 56.001v110h-104h-114v-152v-133v-54c0 -4 -2.33301 -6 -7 -6s-7 2 -7 6v49v131v345v133v53c0 4.66699 2.33301 7 7 7s7 -2.33301 7 -7v-49v-130v-172v-7h104h114v44v135c0 8.66699 0.166992 17.167 0.5 25.5
s1.16602 16.5 2.49902 24.5c4 19.333 10.833 38 20.5 56s22.167 33.667 37.5 47c30 28.667 65.667 45.667 107 51c42.667 5.33301 82.334 -2.33398 119.001 -23.001c30.667 -17.333 54.834 -41.166 72.501 -71.499s26.5 -63.166 26.5 -98.499v-111v-173v-89z
M616.998 63.9961c12.667 15.333 22.166 32.501 28.499 51.501s9.5 38.5 9.5 58.5v99v172v104c0 18 -2.83301 35.5 -8.5 52.5s-13.5 32.833 -23.5 47.5s-22 27.834 -36 39.501s-29.333 20.834 -46 27.501c-19.333 7.33301 -39.166 11.333 -59.499 12s-40.166 -2 -59.499 -8
c-18.667 -5.33301 -36 -13.833 -52 -25.5s-29.667 -25.167 -41 -40.5c-10.667 -15.333 -19 -31.833 -25 -49.5s-9 -35.834 -9 -54.501v-29v-152v-17v-3v-138v-36c0 -33.333 8 -63.333 24 -90c19.333 -34.667 47.666 -60.334 84.999 -77.001
c38.667 -16.667 78 -19.334 118 -8.00098c19.333 5.33301 37 13.5 53 24.5s30 24.167 42 39.5z" />
    <glyph glyph-name="uni042F" unicode="&#x42f;" horiz-adv-x="687" 
d="M670 724c4.66699 0 6.99902 -2.33398 6.99902 -7.00098v-45v-130v-174v-175v-136v-55c0 -4 -2.33301 -6 -7 -6s-7 2 -7 6v46v130v83h-99h-64h-8l-31 -49.5l-30 -50.5l-39 -62l-38 -63c-7.33301 -11.333 -15.666 -21.833 -24.999 -31.5s-20 -17.834 -32 -24.501
c-19.333 -11.333 -40.666 -18.666 -63.999 -21.999s-46 -1.33301 -68 6c-20 6.66699 -38.167 16.667 -54.5 30s-29.5 29 -39.5 47c-21.333 38.667 -26.333 79.334 -15 122.001c1.33301 4.66699 4.16602 6.33398 8.49902 5.00098s5.83301 -4.33301 4.5 -9
c-5.33301 -18.667 -6.83301 -37.5 -4.5 -56.5s8.16602 -37.167 17.499 -54.5c9.33301 -16.667 21.333 -31.167 36 -43.5s31.334 -21.166 50.001 -26.499c21.333 -7.33301 43.166 -9.5 65.499 -6.5s43.166 10.833 62.499 23.5c10 6.66699 18.833 14.334 26.5 23.001
s14.834 18 21.501 28l39.5 64.5l39.5 64.5l27 43.5l26 43.5c-25.333 2 -50.333 8.66699 -75 20c-38 17.333 -69 42.833 -93 76.5s-37.667 71.167 -41 112.5c-4 41.333 2.83301 81.166 20.5 119.499s43.834 69.166 78.501 92.499s72.667 36.666 114 39.999
c9.33301 0.666992 18.5 1 27.5 1h27.5h135zM662.999 274.999v76.001v176v135v48h-77h-77c-13.333 0 -26.333 -0.666992 -39 -2s-25.667 -4 -39 -8c-38 -12 -70.5 -33.5 -97.5 -64.5s-44.167 -66.5 -51.5 -106.5c-3.33301 -20 -3.83301 -40 -1.5 -60s7.33301 -39.333 15 -58
s17.5 -36 29.5 -52s26.333 -30 43 -42c33.333 -24.667 70.333 -38.667 111 -42c9.33301 -0.666992 18.5 -0.833984 27.5 -0.500977s18.167 0.5 27.5 0.5h129z" />
    <glyph glyph-name="uni0430" unicode="&#x430;" horiz-adv-x="571" 
d="M169 31c-36 20.667 -64.499 48.832 -85.499 84.499s-31.833 74.167 -32.5 115.5s9.16602 80.166 29.499 116.499s48.5 65.166 84.5 86.499s75.333 32.166 118 32.499s82 -10.167 118 -31.5c25.333 -15.333 46.833 -34.166 64.5 -56.499s31.167 -47.5 40.5 -75.5v52v105
c0 4.66699 2.16699 7 6.5 7s6.5 -2.33301 6.5 -7v-74v-170v-53v-4c1.33301 -3.33301 2.33301 -6.66602 3 -9.99902s1.66699 -6.66602 3 -9.99902l17.5 -65.5l17.5 -65.5c1.33301 -4 -0.166992 -6.66699 -4.5 -8s-7.16602 0.333984 -8.49902 5.00098l-14 52l-14 52
c-1.33301 6 -2.83301 11.833 -4.5 17.5s-3.5 11.167 -5.5 16.5c-0.666992 2.66699 -1.33398 5.16699 -2.00098 7.5s-1 4.83301 -1 7.5v6c-8.66699 -26.667 -21.667 -51.167 -39 -73.5s-38 -40.833 -62 -55.5c-36 -21.333 -75.167 -32.5 -117.5 -33.5
s-81.833 8.83301 -118.5 29.5zM67.001 265.998c-6 -40 -1.00098 -79.168 14.999 -117.501s40.667 -69.166 74 -92.499c16.667 -12 34.667 -21.5 54 -28.5s39 -11.167 59 -12.5s39.833 0 59.5 4s38.5 10.667 56.5 20c17.333 9.33301 33.333 20.666 48 33.999
s27 28.666 37 45.999c22 34 33 72.333 33 115c0 30 -6 58.667 -18 86s-28.667 51.333 -50 72c-30 28.667 -65.167 47.334 -105.5 56.001s-80.166 6 -119.499 -8c-38 -13.333 -69.833 -35.666 -95.5 -66.999s-41.5 -67 -47.5 -107z" />
    </font>
</defs>
</svg>
