<?xml version="1.0" standalone="no"?>
<!DOCTYPE svg PUBLIC "-//W3C//DTD SVG 1.1//EN" "http://www.w3.org/Graphics/SVG/1.1/DTD/svg11.dtd" >
<svg>
<metadata>
Created by FontForge 20090914 at Sun Dec 10 16:25:02 2017
 By www-data
Copyright (c) 2014 by Fontfirma. All rights reserved.
</metadata>
<defs>
<font id="Nord-Medium" horiz-adv-x="528" >
  <font-face 
    font-family="Nord"
    font-weight="500"
    font-stretch="normal"
    units-per-em="1000"
    panose-1="0 0 0 0 0 0 0 0 0 0"
    ascent="750"
    descent="-250"
    x-height="468.499"
    cap-height="723"
    bbox="41.999 -411.119 976.007 992.893"
    underline-thickness="50"
    underline-position="-50"
    unicode-range="U+0020-U+20AC"
  />
<missing-glyph horiz-adv-x="500" 
 />
    <glyph glyph-name=".notdef" horiz-adv-x="500" 
 />
    <glyph glyph-name="space" unicode=" " horiz-adv-x="500" 
 />
    <glyph glyph-name="exclam" unicode="!" horiz-adv-x="833" 
d="M501 729c13.333 0 24.832 -4.66699 34.499 -14s14.5 -20.666 14.5 -33.999v-58v-6c0 -1.33301 -0.333008 -2.33301 -1 -3v-9c0 -2.66699 -0.333008 -5.66699 -1 -9c-1.33301 -22 -2.5 -44 -3.5 -66s-2.16699 -44 -3.5 -66c-2 -27.333 -3.83301 -54.166 -5.5 -80.499
s-3.16699 -52.833 -4.5 -79.5l-2 -39l-2 -39c-0.666992 -7.33301 -3.33398 -13.333 -8.00098 -18s-10.667 -7 -18 -7s-13.166 2.33301 -17.499 7s-6.83301 10.667 -7.5 18c0 3.33301 -0.166992 6.83301 -0.5 10.5s-0.5 7.16699 -0.5 10.5l-4 66l-4 66
c-1.33301 26.667 -2.83301 53.167 -4.5 79.5s-3.16699 53.166 -4.5 80.499c-1.33301 13.333 -2.16602 26.333 -2.49902 39s-1.16602 25.667 -2.49902 39v6v58c0 13.333 4.66699 24.666 14 33.999s20.666 14 33.999 14zM504.999 45c7.33301 0 13.333 -2.33301 18 -7
s7 -10.667 7 -18s-2.33301 -13.333 -7 -18s-10.667 -7 -18 -7s-13.333 2.33301 -18 7s-7 10.667 -7 18s2.33301 13.333 7 18s10.667 7 18 7z" />
    <glyph glyph-name="numbersign" unicode="#" horiz-adv-x="833" 
d="M672 495c6.66699 0 12.1689 -2.16406 16.502 -6.49707s6.5 -9.83301 6.5 -16.5s-2.16699 -12.167 -6.5 -16.5s-9.83301 -6.5 -16.5 -6.5h-45h-52c-3.33301 -9.33301 -6.33301 -18.5 -9 -27.5s-5.66699 -18.167 -9 -27.5c-3.33301 -11.333 -7 -22.333 -11 -33
s-7.66699 -21.667 -11 -33h23h73c6.66699 0 12.334 -2.33301 17.001 -7s7 -10.334 7 -17.001c0 -6 -2.33301 -11.333 -7 -16s-10.334 -7 -17.001 -7h-45h-66l-6 -16c-2 -5.33301 -3.66699 -10.666 -5 -15.999c-3.33301 -11.333 -7 -22.333 -11 -33s-7.66699 -21.667 -11 -33
c-2 -6 -5.66699 -10.667 -11 -14s-11.333 -4 -18 -2c-5.33301 1.33301 -9.83301 4.83301 -13.5 10.5s-4.5 11.5 -2.5 17.5l12 35.5c4 11.667 7.66699 23.167 11 34.5c1.33301 3.33301 2.33301 6.16602 3 8.49902s1.66699 4.83301 3 7.5h-30h-111
c-2 -5.33301 -3.83301 -10.666 -5.5 -15.999s-3.5 -10.666 -5.5 -15.999l-21 -66c-2 -6 -5.66699 -10.667 -11 -14s-11.333 -4 -18 -2c-6 1.33301 -10.667 4.83301 -14 10.5s-4 11.5 -2 17.5c3.33301 12 7 23.833 11 35.5l12 34.5
c1.33301 3.33301 2.16602 6.16602 2.49902 8.49902s1.16602 4.83301 2.49902 7.5h-70c-6.66699 0 -12.334 2.33301 -17.001 7s-7 10 -7 16c0 6.66699 2.33301 12.334 7 17.001s10.334 7 17.001 7h45h40c5.33301 14 10.166 28 14.499 42l13.5 42c2 6 4.16699 12.167 6.5 18.5
s4.5 12.5 6.5 18.5h-13h-73c-6.66699 0 -12.167 2.16699 -16.5 6.5s-6.5 9.83301 -6.5 16.5s2.16699 12.167 6.5 16.5s9.83301 6.5 16.5 6.5h45h56l21 63c3.33301 11.333 6.83301 22.166 10.5 32.499s7.16699 21.166 10.5 32.499c2 6 5.66699 10.667 11 14
s11.333 4.33301 18 3c6 -2 10.667 -5.83301 14 -11.5s4 -11.5 2 -17.5c-4 -11.333 -7.83301 -23 -11.5 -35s-7.5 -23.667 -11.5 -35c-2.66699 -7.33301 -5.16699 -14.833 -7.5 -22.5l-7.5 -23.5h41h100l10 31.5l10 31.5c3.33301 11.333 7 22.166 11 32.499
s7.66699 21.166 11 32.499c2 6 5.66699 10.667 11 14s11.333 4.33301 18 3c5.33301 -2 9.83301 -5.83301 13.5 -11.5s4.5 -11.5 2.5 -17.5l-12 -35c-4 -12 -7.66699 -23.667 -11 -35c-2.66699 -7.33301 -5.16699 -14.833 -7.5 -22.5s-5.16602 -15.5 -8.49902 -23.5h9h73z
M514.002 412.003l6 18.5l6 18.5h-45h-95l-9.5 -27.5l-9.5 -27.5c-3.33301 -11.333 -6.83301 -22.333 -10.5 -33l-11.5 -33h56h85l14 42z" />
    <glyph glyph-name="dollar" unicode="$" horiz-adv-x="602" 
d="M474 325c18 -19.333 31.4834 -41.667 40.4834 -67s11.833 -51 8.5 -77c-2.66699 -25.333 -9.16699 -49.166 -19.5 -71.499s-24.5 -42.166 -42.5 -59.499c-30 -28.667 -65 -46.667 -105 -54v-50c0 -8.66699 -3 -15.834 -9 -21.501s-13 -8.5 -21 -8.5
c-8.66699 0 -15.834 2.83301 -21.501 8.5s-8.5 12.834 -8.5 21.501v49c-24 3.33301 -45.667 10.666 -65 21.999c-8 4 -15.5 8.83301 -22.5 14.5s-13.833 11.5 -20.5 17.5c-15.333 14.667 -28.333 30 -39 46c-8 13.333 -14.333 27 -19 41s-8 28.667 -10 44c0 8 3 15 9 21
c7.33301 6 14.333 9 21 9c7.33301 0 14.666 -3 21.999 -9c4 -4 6.66699 -10 8 -18v1c2 -13.333 5.33301 -26 10 -38c1.33301 -3.33301 2.83301 -6.33301 4.5 -9s3.16699 -5.33398 4.5 -8.00098c1.33301 -2 2.5 -4 3.5 -6s2.16699 -4 3.5 -6
c0.666992 -0.666992 1.16699 -1.33398 1.5 -2.00098s1.16602 -1.33398 2.49902 -2.00098c4.66699 -6 10.667 -12.333 18 -19c2.66699 -2.66699 5.33398 -5.16699 8.00098 -7.5l9 -7.5c0 -0.666992 0.333008 -1 1 -1c1.33301 -1.33301 2.83301 -2.5 4.5 -3.5
s3.16699 -1.83301 4.5 -2.5c2.66699 -2 5.33398 -3.66699 8.00098 -5l8 -4c10.667 -4.66699 21.334 -7.33398 32.001 -8.00098c2.66699 -0.666992 5.33398 -1 8.00098 -1h8h3h3h9c2.66699 0 5.66699 0.333008 9 1c12.667 2 23.667 5 33 9c8 4 16.667 8.66699 26 14
c0.666992 0.666992 1.33398 1.16699 2.00098 1.5s1.33398 0.833008 2.00098 1.5c2 2 3.33301 3 4 3l12 12c5.33301 5.33301 9 9.33301 11 12l2 2c0.666992 1.33301 1.33398 2.5 2.00098 3.5s1.33398 2.16699 2.00098 3.5c2.66699 4 5.16699 8 7.5 12s4.5 8.33301 6.5 13
c4.66699 10.667 8 23 10 37c0.666992 12 0.666992 24 0 36c-2 11.333 -5 22.666 -9 33.999c-4 8.66699 -8.33301 16 -13 22c0 0.666992 -0.333008 1.33398 -1 2.00098c-2 2 -3.33301 3.66699 -4 5c-1.33301 1.33301 -2.83301 3 -4.5 5s-3.5 3.66699 -5.5 5
c-1.33301 0.666992 -2.16602 1.33398 -2.49902 2.00098s-1.16602 1.33398 -2.49902 2.00098l-4 4c-1.33301 1.33301 -2.83301 2.16602 -4.5 2.49902s-3.16699 1.16602 -4.5 2.49902c-7.33301 5.33301 -14.666 9.33301 -21.999 12c-17.333 7.33301 -35.5 12 -54.5 14
s-37.833 5.66699 -56.5 11c-20.667 5.33301 -39.834 13.833 -57.501 25.5s-33.167 25.5 -46.5 41.5c-9.33301 11.333 -17.333 23.333 -24 36s-11.667 26 -15 40c-4 14 -6.16699 28.167 -6.5 42.5s0.5 28.5 2.5 42.5c4.66699 25.333 13.834 48.666 27.501 69.999
s30.834 39.666 51.501 54.999c13.333 10 27.5 18 42.5 24s30.5 10.333 46.5 13v52c0 8 2.83301 15 8.5 21s12.834 9 21.501 9c8 0 15 -3 21 -9s9 -13 9 -21v-52c22.667 -2.66699 45 -10.334 67 -23.001c12.667 -7.33301 24 -16 34 -26s19 -20.667 27 -32
c4.66699 -7.33301 5.83398 -15.166 3.50098 -23.499s-7.16602 -14.166 -14.499 -17.499c-7.33301 -4.66699 -14.833 -5.83398 -22.5 -3.50098s-13.834 6.83301 -18.501 13.5c-1.33301 2.66699 -2.33301 4.33398 -3 5.00098c0 0.666992 -0.166992 1 -0.5 1
s-0.5 0.333008 -0.5 1c-1.33301 1.33301 -2.16602 2.33301 -2.49902 3s-1.16602 1.66699 -2.49902 3l-7.5 7.5c-2.33301 2.33301 -5.16602 4.83301 -8.49902 7.5l-2 1l-2 2l-9 6c-2.66699 1.33301 -5.16699 2.66602 -7.5 3.99902s-5.16602 2.66602 -8.49902 3.99902
c-5.33301 2 -10.5 3.5 -15.5 4.5s-10.167 2.16699 -15.5 3.5c-13.333 2 -27 2 -41 0s-26 -5.33301 -36 -10l-13.5 -6c-4.33301 -2 -8.5 -4.66699 -12.5 -8c-0.666992 -0.666992 -1.33398 -1.16699 -2.00098 -1.5s-1.66699 -1.16602 -3 -2.49902l-2 -2
c-2 -1.33301 -4 -2.83301 -6 -4.5s-4 -3.5 -6 -5.5c-1.33301 -2 -3 -4 -5 -6s-3.66699 -4 -5 -6l-1 -1c-1.33301 -1.33301 -2.16602 -2.33301 -2.49902 -3s-1.16602 -1.66699 -2.49902 -3c-4.66699 -6.66699 -9 -15 -13 -25c-4.66699 -10 -8 -22 -10 -36
c-1.33301 -12 -1.33301 -24 0 -36c2 -12.667 5 -24 9 -34c2 -4 4.16699 -8 6.5 -12s4.83301 -8 7.5 -12c0.666992 -2 2.33398 -4.33301 5.00098 -7c0 -0.666992 0.333008 -1 1 -1c4 -5.33301 7.33301 -9 10 -11c2 -2.66699 5.66699 -6.66699 11 -12
c1.33301 -1.33301 2.5 -2.16602 3.5 -2.49902s2.16699 -1.16602 3.5 -2.49902l1 -1c7.33301 -5.33301 16 -10.333 26 -15c9.33301 -3.33301 18.5 -6.16602 27.5 -8.49902s18.167 -4.16602 27.5 -5.49902c13.333 -2.66699 26.5 -5 39.5 -7s25.833 -5.66699 38.5 -11
c13.333 -5.33301 26 -11.666 38 -18.999s23 -16.333 33 -27zM214.983 616.999c0.666992 1.33301 1.16699 2 1.5 2s-0.166992 -0.666992 -1.5 -2zM213.983 447.999c0.666992 -1.33301 1.33301 -2.5 2 -3.5s0 0.166992 -2 3.5z" />
    <glyph glyph-name="percent" unicode="%" horiz-adv-x="583" 
d="M495 650l-28.001 -48l-28 -48l-39 -66l-38 -66l-42.5 -72l-42.5 -72l-38 -66l-39 -66l-28.5 -49l-28.5 -48c-3.33301 -6.66699 -7 -13 -11 -19s-7.66699 -12.333 -11 -19c-3.33301 -6 -8.5 -9.83301 -15.5 -11.5s-13.5 -0.833984 -19.5 2.49902
c-5.33301 3.33301 -9 8.5 -11 15.5s-1.33301 13.167 2 18.5l21 36l28 48l28 48l78 132l84 144l39 67l39 66l28 48.5l28 48.5l22 38c3.33301 6 8.5 9.83301 15.5 11.5s13.5 0.833984 19.5 -2.49902s9.83301 -8.5 11.5 -15.5s0.833984 -13.5 -2.49902 -19.5zM120.999 424
c-21.333 5.33301 -38.5 16.833 -51.5 34.5s-19.5 37.167 -19.5 58.5v65v36v14.5c0 4.33301 0.666992 9.16602 2 14.499c2 11.333 6.16699 22 12.5 32s14.166 18.667 23.499 26s19.5 12.833 30.5 16.5s22.5 4.83398 34.5 3.50098s23.667 -4.5 35 -9.5s21 -12.167 29 -21.5
c16.667 -18.667 25 -40 25 -64v-114c0 -5.33301 -0.333008 -10.5 -1 -15.5s-2 -9.83301 -4 -14.5c-4 -11.333 -9.66699 -21.666 -17 -30.999s-16.333 -17 -27 -23c-11.333 -5.33301 -23.166 -8.83301 -35.499 -10.5s-24.5 -0.833984 -36.5 2.49902zM173.999 479
c-1.33301 -0.666992 -2 -1.16699 -2 -1.5s0.666992 0.166992 2 1.5v0zM119.999 666c0.666992 0.666992 1 1.16699 1 1.5s-0.333008 -0.166992 -1 -1.5zM110.999 658c-0.666992 -0.666992 -0.994141 -1.33398 -0.994141 -2.00098s-0.333008 -1 -1 -1
c-1.33301 -1.33301 -2.16602 -2.66602 -2.49902 -3.99902s-1.16602 -2.66602 -2.49902 -3.99902l-3 -12v-6v-64v-36v-19l3 -12c1.33301 -1.33301 2.16602 -2.66602 2.49902 -3.99902s1.16602 -2.66602 2.49902 -3.99902c0.666992 -0.666992 1 -1.33398 1 -2.00098
c1.33301 -0.666992 2.16602 -1.33398 2.49902 -2.00098s1.16602 -1.33398 2.49902 -2.00098c0.666992 -2 2 -3.33301 4 -4l2 -1c1.33301 -1.33301 2.5 -2.16602 3.5 -2.49902s2.16699 -1.16602 3.5 -2.49902l12 -3h12l12 3c1.33301 1.33301 2.83301 2.16602 4.5 2.49902
s3.16699 1.16602 4.5 2.49902c0 0.666992 0.333008 1 1 1c1.33301 0.666992 2.16602 1.33398 2.49902 2.00098s1.16602 1.33398 2.49902 2.00098c0.666992 2 2 3.33301 4 4c0 0.666992 0.333008 1.33398 1 2.00098c1.33301 1.33301 2.16602 2.66602 2.49902 3.99902
s0.833008 2.66602 1.5 3.99902c1.33301 2.66699 2.66602 6.66699 3.99902 12v6v1v64v36v18c-1.33301 5.33301 -2.66602 9.33301 -3.99902 12c-0.666992 1.33301 -1.33398 2.83301 -2.00098 4.5s-1.33398 3.16699 -2.00098 4.5c-0.666992 0 -1 0.333008 -1 1l-5 5
c-1.33301 1.33301 -2.66602 2.33301 -3.99902 3l-2 2l-4 2l-4 2c-4 2 -8 3 -12 3c-4 0.666992 -8 0.666992 -12 0c-4 0 -8 -1 -12 -3c-2 -0.666992 -5 -2.33398 -9 -5.00098l-1 -1l-4 -4zM548.005 308c16.667 -18.667 25 -40 25 -64v-114
c0 -5.33301 -0.333008 -10.333 -1 -15s-2 -9.66699 -4 -15c-4 -11.333 -9.66699 -21.666 -17 -30.999s-16.333 -17 -27 -23c-11.333 -5.33301 -23.166 -8.83301 -35.499 -10.5s-24.5 -0.833984 -36.5 2.49902c-21.333 5.33301 -38.5 16.833 -51.5 34.5
s-19.5 37.5 -19.5 59.5v64v36v14.5c0 4.33301 0.666992 9.16602 2 14.499c2 11.333 6.16699 22 12.5 32s14.166 18.667 23.499 26s19.5 12.833 30.5 16.5s22.5 4.83398 34.5 3.50098s23.667 -4.5 35 -9.5s21 -12.167 29 -21.5zM451.005 280
c0 0.666992 0.167969 1.16699 0.500977 1.5s0.166016 -0.166992 -0.500977 -1.5zM440.006 103l-1.5 1.5c-0.333008 0.333008 0.166992 -0.166992 1.5 -1.5zM504.006 94c-0.666992 -1.33301 -1.16699 -2 -1.5 -2s0.166992 0.666992 1.5 2zM505.006 94
c2 2 3.66699 3.33301 5 4c0.666992 1.33301 2 3 4 5l1 2c0.666992 1.33301 1.33398 2.5 2.00098 3.5s1.33398 2.16699 2.00098 3.5c1.33301 2.66699 2.66602 6.66699 3.99902 12v6v1v64v36v18c-1.33301 5.33301 -2.66602 9.33301 -3.99902 12
c-0.666992 2 -2.33398 5 -5.00098 9l-1 1c-0.666992 1.33301 -2 3 -4 5c-1.33301 1.33301 -2.66602 2.33301 -3.99902 3l-2 2l-4 2l-4 2c-4 2 -8 3 -12 3c-4 0.666992 -8 0.666992 -12 0c-4 0 -8 -1 -12 -3c-2 -0.666992 -5 -2.33398 -9 -5.00098l-1 -1
c-2 -2 -3.66699 -3.33301 -5 -4c-0.666992 -0.666992 -1 -1.16699 -1 -1.5s-0.333008 -0.833008 -1 -1.5l-3 -3l-2 -4l-2 -4l-3 -12v-6v-63v-37c0 -3.33301 -0.166992 -6.5 -0.5 -9.5s-0.166016 -6.16699 0.500977 -9.5l3 -12
c1.33301 -1.33301 2.16602 -2.66602 2.49902 -3.99902s1.16602 -2.66602 2.49902 -3.99902c0.666992 -0.666992 1 -1.33398 1 -2.00098l4 -4l4 -4c0.666992 0 1.33398 -0.333008 2.00098 -1c1.33301 -1.33301 2.66602 -2.16602 3.99902 -2.49902
s2.66602 -1.16602 3.99902 -2.49902l12 -3h12l12 3c1.33301 1.33301 2.83301 2.16602 4.5 2.49902s3.16699 1.16602 4.5 2.49902c0 0.666992 0.333008 1 1 1z" />
    <glyph glyph-name="ampersand" unicode="&#x26;" horiz-adv-x="637" 
d="M602 437c7.33301 0 13.3281 -2.50293 17.9951 -7.50293s7 -11.167 7 -18.5c0 -6.66699 -2.33301 -12.5 -7 -17.5s-10.667 -7.5 -18 -7.5h-11h-100v-75v-73c0 -10.667 -0.166992 -21.334 -0.5 -32.001s-1.83301 -21.334 -4.5 -32.001c-4 -20 -10.833 -39 -20.5 -57
s-21.5 -34.333 -35.5 -49s-29.667 -27.334 -47 -38.001s-36 -18.667 -56 -24c-20.667 -5.33301 -41.667 -7.83301 -63 -7.5s-42 4.16602 -62 11.499c-40.667 13.333 -74 35.666 -100 66.999c-14 17.333 -24.667 34.666 -32 51.999c-5.33301 10.667 -9.33301 21 -12 31
c-3.33301 11.333 -5.33301 22.666 -6 33.999c-5.33301 42.667 1.66699 83.334 21 122.001c8.66699 18.667 19.834 35.5 33.501 50.5s28.834 27.833 45.501 38.5c4 2.66699 8 5.16699 12 7.5s8 4.16602 12 5.49902c-14 11.333 -26.667 24 -38 38
c-12.667 16.667 -21.834 35.334 -27.501 56.001s-7.16699 41.334 -4.5 62.001c1.33301 11.333 3.66602 22.333 6.99902 33s7.66602 21 12.999 31c4.66699 8.66699 10.167 17 16.5 25s13.5 15 21.5 21c17.333 14 36.333 24.667 57 32s42 10 64 8
c12.667 -1.33301 25 -3.5 37 -6.5s23.333 -7.83301 34 -14.5c11.333 -6 21.333 -13.167 30 -21.5s16.667 -17.166 24 -26.499c2 -2.66699 3.16699 -5.83398 3.5 -9.50098s0.166016 -7.16699 -0.500977 -10.5c-2 -6 -6 -11 -12 -15c-6.66699 -3.33301 -13 -4 -19 -2
c-5.33301 0.666992 -10.333 4 -15 10v1c-0.666992 0.666992 -1.16699 1.33398 -1.5 2.00098s-1.16602 1.33398 -2.49902 2.00098c-0.666992 1.33301 -2.33398 3.33301 -5.00098 6c-3.33301 3.33301 -6 5.66602 -8 6.99902c-0.666992 0.666992 -1.66699 1.5 -3 2.5
s-2 1.83301 -2 2.5c-9.33301 5.33301 -18 10 -26 14c-9.33301 4 -19.333 7 -30 9c-10.667 1.33301 -21 1.33301 -31 0c-10.667 -2 -21 -5 -31 -9c-7.33301 -3.33301 -14.333 -7.33301 -21 -12c-1.33301 -0.666992 -2.16602 -1.16699 -2.49902 -1.5
s-1.16602 -0.833008 -2.49902 -1.5l-1 -1c-2.66699 -2 -6 -5 -10 -9c-4.66699 -4.66699 -8 -8.33398 -10 -11.001v-1h-1c-0.666992 -1.33301 -1.16699 -2.16602 -1.5 -2.49902s-0.833008 -1.16602 -1.5 -2.49902c-2.66699 -3.33301 -4.83398 -6.66602 -6.50098 -9.99902
s-3.5 -6.66602 -5.5 -9.99902l-4 -15.5l-4 -15.5c-1.33301 -10 -1.33301 -20.667 0 -32c1.33301 -5.33301 2.66602 -10.333 3.99902 -15s2.66602 -9.66699 3.99902 -15l6 -10.5l6 -10.5c0.666992 -1.33301 2 -3 4 -5c0 -0.666992 0.333008 -1.33398 1 -2.00098l9 -9
c1.33301 -2 3 -3.83301 5 -5.5s3.66699 -3.16699 5 -4.5c0.666992 0 1 -0.333008 1 -1c2.66699 -1.33301 4.66699 -2.66602 6 -3.99902c6.66699 -4.66699 13.334 -8.33398 20.001 -11.001l14 -4c4.66699 -1.33301 9.66699 -2.66602 15 -3.99902
c3.33301 0.666992 8.33301 1 15 1c4.66699 0 9.33398 -1.66699 14.001 -5c9.33301 -4.66699 14 -12 14 -22c0 -7.33301 -2.5 -13.5 -7.5 -18.5s-11.167 -7.16699 -18.5 -6.5h-9c-2.66699 0 -5.66699 0.333008 -9 1c-1.33301 -0.666992 -3.66602 -1 -6.99902 -1
c-14.667 -2 -29 -6 -43 -12l-15.5 -8c-5 -2.66699 -10.167 -5.66699 -15.5 -9c-2.66699 -1.33301 -5 -3 -7 -5c-1.33301 -1.33301 -2.66602 -2.33301 -3.99902 -3c-2.66699 -2 -7 -6 -13 -12c-2 -2 -4 -4.16699 -6 -6.5s-4 -4.5 -6 -6.5
c-0.666992 -0.666992 -1 -1.16699 -1 -1.5s-0.333008 -0.833008 -1 -1.5l-1 -1c-1.33301 -1.33301 -2.16602 -2.5 -2.49902 -3.5s-1.16602 -2.16699 -2.49902 -3.5l-9 -15c-2.66699 -4.66699 -5 -9.66699 -7 -15c-6 -14 -10 -28.333 -12 -43c-2 -15.333 -2 -30.333 0 -45
c2 -15.333 6 -30 12 -44c4.66699 -11.333 10.334 -21.333 17.001 -30l2 -4c0.666992 -1.33301 1.66699 -2.66602 3 -3.99902l3 -3c4 -5.33301 7.66699 -9.66602 11 -12.999c2.66699 -2 5.16699 -4.16699 7.5 -6.5s4.5 -4.16602 6.5 -5.49902
c1.33301 -1.33301 2.33301 -2 3 -2c0 -0.666992 0.333008 -1 1 -1c2 -2 4.33301 -3.66699 7 -5c9.33301 -6.66699 19.333 -12.334 30 -17.001c7.33301 -2.66699 14.5 -4.83398 21.5 -6.50098s14.167 -3.16699 21.5 -4.5c14.667 -2 29.667 -2 45 0c14 2 28.667 5.66699 44 11
c5.33301 2.66699 10.333 5.33398 15 8.00098l15 9c1.33301 1.33301 2.66602 2.33301 3.99902 3s2.66602 1.66699 3.99902 3c0.666992 0 1.66699 0.666992 3 2c2 2 4.16699 4 6.5 6s4.5 4 6.5 6c2 2.66699 4 5 6 7s4 4.33301 6 7l2 2c0.666992 0.666992 1 1.33398 1 2.00098
c2.66699 2.66699 4.33398 5 5.00098 7c3.33301 4.66699 6.33301 9.33398 9 14.001s5.33398 9.66699 8.00098 15c2.66699 7.33301 4.83398 14.5 6.50098 21.5s3.16699 14.167 4.5 21.5c1.33301 6.66699 2 13.167 2 19.5v19.5v57v119c0 7.33301 2.33301 13.5 7 18.5
s10.667 7.5 18 7.5h11h125v0z" />
    <glyph glyph-name="parenleft" unicode="(" horiz-adv-x="251" 
d="M203 77c10 -12 20.335 -23.3369 31.002 -34.0039c4.66699 -5.33301 7 -11.333 7 -18s-2.33301 -12.667 -7 -18c-5.33301 -4.66699 -11.333 -7.16699 -18 -7.5s-12.667 2.16699 -18 7.5c-11.333 11.333 -22 23 -32 35c-26 32 -48 66.667 -66 104s-31 76.333 -39 117
c-8 40 -11.167 80.333 -9.5 121s8.16699 80.667 19.5 120c12 40.667 28.667 79 50 115s47 69 77 99c5.33301 4.66699 11.333 7 18 7s12.667 -2.33301 18 -7c4.66699 -5.33301 7 -11.333 7 -18s-2.33301 -12.667 -7 -18c-11.333 -11.333 -22 -23 -32 -35
c-1.33301 -1.33301 -2.5 -2.83301 -3.5 -4.5s-2.16699 -3.16699 -3.5 -4.5l-1 -1c-0.666992 -1.33301 -1.66699 -2.66602 -3 -3.99902c-2 -3.33301 -4.16699 -6.5 -6.5 -9.5s-4.5 -6.16699 -6.5 -9.5c-16.667 -25.333 -30.334 -50.333 -41.001 -75
c-15.333 -38 -26 -76.667 -32 -116c-5.33301 -40.667 -5.33301 -81 0 -121c6 -39.333 16.667 -78 32 -116c10.667 -26 24.667 -51.333 42 -76c4 -7.33301 8.33301 -13.666 13 -18.999c0.666992 -1.33301 1.16699 -2.16602 1.5 -2.49902s0.833008 -1.16602 1.5 -2.49902l1 -1
c3.33301 -3.33301 5.66602 -6 6.99902 -8z" />
    <glyph glyph-name="parenright" unicode=")" horiz-adv-x="251" 
d="M88 77c1.33301 1.33301 2.50098 2.67188 3.50098 4.00488s2.16699 2.66602 3.5 3.99902l1 1c0.666992 1.33301 1.16699 2.16602 1.5 2.49902s0.833008 1.16602 1.5 2.49902c4.66699 5.33301 9 11.666 13 18.999c17.333 24.667 31.333 50 42 76
c15.333 38 26 76.667 32 116c5.33301 40 5.33301 80.333 0 121c-6 39.333 -16.667 78 -32 116c-10.667 24.667 -24.334 49.667 -41.001 75c-2 3.33301 -4.16699 6.5 -6.5 9.5s-4.5 6.16699 -6.5 9.5c-1.33301 1.33301 -2.33301 2.66602 -3 3.99902l-1 1
c-1.33301 1.33301 -2.5 2.83301 -3.5 4.5s-2.16699 3.16699 -3.5 4.5c-10 12 -20.667 23.667 -32 35c-4.66699 5.33301 -7 11.333 -7 18s2.33301 12.667 7 18c5.33301 4.66699 11.333 7 18 7s12.667 -2.33301 18 -7c30 -30 55.667 -63 77 -99s38 -74.333 50 -115
c11.333 -39.333 17.833 -79.333 19.5 -120s-1.5 -81 -9.5 -121c-8 -40.667 -21 -79.667 -39 -117s-40 -72 -66 -104c-10 -12 -20.667 -23.667 -32 -35c-5.33301 -5.33301 -11.333 -7.83301 -18 -7.5s-12.667 2.83301 -18 7.5c-4.66699 5.33301 -7 11.333 -7 18
s2.33301 12.667 7 18c10.667 10.667 21 22 31 34z" />
    <glyph glyph-name="plus" unicode="+" horiz-adv-x="452" 
d="M416 380c7.33301 0 13.5 -2.5 18.5 -7.5s7.5 -10.833 7.5 -17.5c0 -7.33301 -2.5 -13.333 -7.5 -18s-11.167 -7 -18.5 -7h-93h-52v-60v-86c0 -7.33301 -2.33301 -13.333 -7 -18s-10.667 -7 -18 -7s-13.333 2.33301 -18 7s-7 10.667 -7 18v94v52h-60h-86
c-7.33301 0 -13.333 2.33301 -18 7s-7 10.667 -7 18c0 6.66699 2.33301 12.5 7 17.5s10.667 7.5 18 7.5h94h52v59v86c0 7.33301 2.33301 13.5 7 18.5s10.667 7.5 18 7.5s13.333 -2.5 18 -7.5s7 -11.167 7 -18.5v-93v-52h59h86v0z" />
    <glyph glyph-name="comma" unicode="," horiz-adv-x="153" 
d="M123 50c6 -1.33301 11.166 -5.16699 15.499 -11.5s5.16602 -12.833 2.49902 -19.5c-7.33301 -17.333 -14.166 -35 -20.499 -53s-13.166 -35.667 -20.499 -53c-2 -7.33301 -5.66699 -12.333 -11 -15c-6 -4 -12.667 -5 -20 -3c-6 2 -11 6 -15 12s-4.66699 12.333 -2 19
l20 53.5l20 53.5c3.33301 6.66699 7.33301 11.667 12 15c6.66699 3.33301 13 4 19 2z" />
    <glyph glyph-name="hyphen" unicode="-" horiz-adv-x="452" 
d="M416 380c7.33301 0 13.5 -2.5 18.5 -7.5s7.5 -10.833 7.5 -17.5c0 -7.33301 -2.5 -13.333 -7.5 -18s-11.167 -7 -18.5 -7h-93h-162h-86c-7.33301 0 -13.333 2.33301 -18 7s-7 10.667 -7 18c0 6.66699 2.33301 12.5 7 17.5s10.667 7.5 18 7.5h94h161h86v0z" />
    <glyph glyph-name="period" unicode="." horiz-adv-x="110" 
d="M75 51c7.33301 0 13.333 -2.33301 18 -7s7 -10.667 7 -18s-2.33301 -13.333 -7 -18s-10.667 -7 -18 -7s-13.333 2.33301 -18 7s-7 10.667 -7 18s2.33301 13.333 7 18s10.667 7 18 7z" />
    <glyph glyph-name="slash" unicode="/" horiz-adv-x="368" 
d="M338 723c6.66699 -1.33301 12.002 -5.16699 16.002 -11.5s4.66699 -12.833 2 -19.5c-1.33301 -2.66699 -2.33301 -5 -3 -7l-27 -72l-25 -64.5l-25 -64.5l-29.5 -77.5l-29.5 -77.5l-28.5 -74l-28.5 -74l-21.5 -56.5l-21.5 -55.5l-8 -22
c-2.66699 -7.33301 -5.66699 -14.666 -9 -21.999c-2 -7.33301 -5.66699 -12.666 -11 -15.999c-6.66699 -3.33301 -13.334 -4 -20.001 -2c-6 1.33301 -11 5.16602 -15 11.499s-4.66699 12.833 -2 19.5c0.666992 1.33301 1 2.33301 1 3s0.333008 1.66699 1 3
c5.33301 12.667 10.166 25 14.499 37l13.5 36l25 64.5l25 64.5l29 77.5l30 77.5l28.5 74l28.5 74l21 56.5l21 55.5c3.33301 7.33301 6.33301 14.666 9 21.999l8 22c3.33301 7.33301 7.33301 12.333 12 15c6 4 12.333 5 19 3z" />
    <glyph glyph-name="zero" unicode="0" horiz-adv-x="485" 
d="M466 533c0.666992 -4 1.00098 -8.00098 1.00098 -12.001v-12v-43v-158v-95c0 -57.333 -20 -106.666 -60 -147.999c-14 -15.333 -30.167 -28 -48.5 -38s-37.666 -17.333 -57.999 -22s-41 -6.16699 -62 -4.5s-41.167 6.5 -60.5 14.5c-20 8 -39 19 -57 33
c-15.333 12 -29 26.667 -41 44c-24.667 35.333 -37.334 74 -38.001 116v97v158v45c0 28 5 55 15 81c9.33301 21.333 20.666 40.333 33.999 57c6 7.33301 12.833 14.5 20.5 21.5s15.5 13.5 23.5 19.5c34.667 24 73.667 36 117 36c20.667 0 41 -2.83301 61 -8.5
s38.667 -14 56 -25s32.833 -24.167 46.5 -39.5s24.5 -32.666 32.5 -51.999c8.66699 -20.667 14.667 -42.334 18 -65.001zM416.001 493.999c0 6.66699 0.171875 13.165 0.504883 19.498s-0.166992 12.833 -1.5 19.5c-2 12 -5.66699 25.667 -11 41
c-4 10.667 -9.33301 20.334 -16 29.001c-0.666992 2 -2.33398 4.33301 -5.00098 7l-2 3l-12 13l-13 12c-0.666992 0 -1.66699 0.666992 -3 2c-2 0.666992 -4.33301 2.33398 -7 5.00098c-4.66699 2.66699 -9.33398 5.16699 -14.001 7.5l-15 7.5
c-6.66699 3.33301 -13.334 5.83301 -20.001 7.5s-13.667 3.16699 -21 4.5c-14.667 0.666992 -29 0.666992 -43 0c-7.33301 -1.33301 -14.333 -2.83301 -21 -4.5s-13.334 -4.16699 -20.001 -7.5l-15 -7.5c-4.66699 -2.33301 -9.33398 -4.83301 -14.001 -7.5
c-2 -2 -4.33301 -3.66699 -7 -5c-1.33301 -1.33301 -2.33301 -2 -3 -2l-13 -12l-12 -13c0 -0.666992 -0.666992 -1.66699 -2 -3s-2.16602 -2.5 -2.49902 -3.5s-1.16602 -2.16699 -2.49902 -3.5c-3.33301 -4.66699 -6.16602 -9.33398 -8.49902 -14.001l-7.5 -15
c-5.33301 -15.333 -9 -29 -11 -41c-0.666992 -5.33301 -1 -10.833 -1 -16.5v-17.5v-48v-160v-61v-19.5c0 -6.33301 0.333008 -12.833 1 -19.5c2 -12 5.66699 -25.667 11 -41l7.5 -15c2.33301 -4.66699 5.16602 -9.33398 8.49902 -14.001
c2.66699 -2.66699 4.33398 -5 5.00098 -7l3 -3c1.33301 -2 3 -4.16699 5 -6.5s4.33301 -4.5 7 -6.5l13 -12l2 -2c1.33301 -1.33301 2.66602 -2.16602 3.99902 -2.49902s2.66602 -1.16602 3.99902 -2.49902c4 -2.66699 8.33301 -5.33398 13 -8.00098
s9.66699 -5.33398 15 -8.00098c6.66699 -2.66699 13.334 -4.83398 20.001 -6.50098s13.667 -3.16699 21 -4.5c14 -1.33301 28.667 -1.33301 44 0c7.33301 1.33301 14.166 2.83301 20.499 4.5s12.833 3.83398 19.5 6.50098l15.5 8c5 2.66699 9.83301 5.66699 14.5 9
c2 0.666992 4.33301 2.33398 7 5.00098c1.33301 0 2 0.666992 2 2l13 12c5.33301 4 9.33301 8.33301 12 13l2 2v1c3.33301 3.33301 5.33301 5.66602 6 6.99902c3.33301 4.66699 6.16602 9.33398 8.49902 14.001s4.5 9.33398 6.5 14.001c5.33301 15.333 9 29 11 41
c0.666992 3.33301 1 7 1 11v11v60v160v61z" />
    <glyph glyph-name="one" unicode="1" horiz-adv-x="325" 
d="M272 716c8 8 17.167 9.83203 27.5 5.49902s15.5 -12.166 15.5 -23.499v-49v-125v-162v-162v-124v-50c0 -7.33301 -2.33301 -13.333 -7 -18s-10.667 -7 -18 -7s-13.333 2.33301 -18 7s-7 10.667 -7 18v49v125v162v162v113l-52.5 -52l-52.5 -52l-33.5 -33l-33.5 -33
c-4.66699 -5.33301 -10.5 -8 -17.5 -8s-12.833 2.66699 -17.5 8c-5.33301 4.66699 -8 10.5 -8 17.5s2.66699 12.833 8 17.5l18 18c6 6 11.667 12 17 18l56.5 56l56.5 56l66 66v0z" />
    <glyph glyph-name="two" unicode="2" horiz-adv-x="449" 
d="M414 51c6.66699 0 12.501 -2.50684 17.501 -7.50684s7.5 -11.167 7.5 -18.5s-2.5 -13.333 -7.5 -18s-10.833 -7 -17.5 -7h-78h-162h-89c-7.33301 0 -13.166 2.33301 -17.499 7s-6.83301 10.667 -7.5 18c-2 27.333 1 54 9 80c3.33301 10.667 7 21.167 11 31.5l12 30.5
l9.5 21c3 6.66699 6.5 13.334 10.5 20.001l31 43c10.667 11.333 21.667 22.333 33 33s23 21 35 31l44.5 37c15 12 29.167 24.667 42.5 38l10 10.5l10 10.5c2 2 3.83301 4 5.5 6s3.16699 4 4.5 6l1 1c0.666992 1.33301 1.33398 2.33301 2.00098 3s1.33398 1.66699 2.00098 3
c10.667 13.333 19.667 29 27 47c3.33301 8 6.16602 16.167 8.49902 24.5s4.16602 16.833 5.49902 25.5c2 14 2 28.333 0 43c-0.666992 8.66699 -3.33398 18.667 -8.00098 30c-2.66699 6.66699 -6.33398 13.334 -11.001 20.001
c-0.666992 0.666992 -1.16699 1.33398 -1.5 2.00098s-0.833008 1.33398 -1.5 2.00098l-2 2l-4.5 4.5l-4.5 4.5c-1.33301 2 -3 3.66699 -5 5l-4 4c-4 2.66699 -7 4.33398 -9 5.00098l-23 13c-15.333 6 -30.333 10 -45 12s-29.334 2 -44.001 0
c-14 -2 -26.333 -5.33301 -37 -10c-8 -3.33301 -15 -7.33301 -21 -12c-0.666992 0 -1.33398 -0.333008 -2.00098 -1c-1.33301 -1.33301 -2.33301 -2.16602 -3 -2.49902s-1.33398 -1.16602 -2.00098 -2.49902c-2.66699 -2 -6.33398 -5.33301 -11.001 -10
c-2 -1.33301 -3.83301 -3 -5.5 -5s-3.5 -4 -5.5 -6c0 -0.666992 -0.666992 -1.66699 -2 -3c-0.666992 -0.666992 -1 -1.33398 -1 -2.00098c-1.33301 -1.33301 -2 -2.33301 -2 -3c-3.33301 -3.33301 -6 -7 -8 -11l-6 -12c-1.33301 -4 -2.66602 -9.33301 -3.99902 -16
c-0.666992 -0.666992 -1 -2 -1 -4c0 -7.33301 -2.33301 -13.333 -7 -18s-10.667 -7 -18 -7s-13.333 2.33301 -18 7s-7 10.667 -7 18c0 9.33301 1.33301 18.333 4 27s6.33398 17 11.001 25c10 19.333 23.333 36.666 40 51.999l13 11c4 3.33301 8.66699 6.66602 14 9.99902
c8.66699 6 18.667 11 30 15c22 8 45.167 12 69.5 12s47.5 -3.66699 69.5 -11c21.333 -7.33301 41.5 -17.666 60.5 -30.999s34.167 -30.666 45.5 -51.999c9.33301 -19.333 15.166 -39.166 17.499 -59.499s1.5 -41.166 -2.5 -62.499c-3.33301 -19.333 -9 -38.166 -17 -56.499
s-18 -35.5 -30 -51.5c-12 -16.667 -25.167 -31.834 -39.5 -45.501l-44.5 -40.5l-44.5 -37c-15 -12 -29.167 -24.667 -42.5 -38l-10 -10.5l-10 -10.5c-4.66699 -4.66699 -8 -8.33398 -10 -11.001c0 -0.666992 -1 -2 -3 -4c0 -0.666992 -0.666992 -1.66699 -2 -3
c-11.333 -16.667 -21 -33.334 -29 -50.001c-1.33301 -3.33301 -2.66602 -6.5 -3.99902 -9.5s-2.66602 -6.16699 -3.99902 -9.5l3 6c-5.33301 -12.667 -10.166 -25.167 -14.499 -37.5s-7.5 -25.166 -9.5 -38.499c0 -2 -0.166992 -4 -0.5 -6s-0.5 -4 -0.5 -6h53h162h89z
M152.001 651.993c0.666992 0 1.16699 0.167969 1.5 0.500977s-0.166992 0.166016 -1.5 -0.500977z" />
    <glyph glyph-name="three" unicode="3" horiz-adv-x="499" 
d="M368 415c27.333 -13.333 50.8428 -31.8291 70.5098 -55.4961s33.5 -50.167 41.5 -79.5c6 -20 8.83301 -40.5 8.5 -61.5s-3.5 -41.5 -9.5 -61.5s-14.5 -38.833 -25.5 -56.5s-24.5 -33.167 -40.5 -46.5c-15.333 -13.333 -32.333 -24.5 -51 -33.5
s-38.334 -14.833 -59.001 -17.5c-23.333 -3.33301 -46.333 -3.33301 -69 0c-10.667 1.33301 -20.834 3.66602 -30.501 6.99902s-19.167 7.33301 -28.5 12c-18.667 8.66699 -35.5 19.667 -50.5 33s-28.167 28.666 -39.5 45.999s-19.833 36.166 -25.5 56.499
s-8.83398 40.833 -9.50098 61.5c0 7.33301 2.5 13.333 7.5 18s11.167 7 18.5 7c6.66699 0 12.5 -2.33301 17.5 -7s7.5 -10.667 7.5 -18v-11c0 -4 0.333008 -7.66699 1 -11c2 -14.667 6 -29 12 -43c2 -5.33301 4.33301 -10.5 7 -15.5s5.66699 -9.83301 9 -14.5
c1.33301 -1.33301 2.33301 -2.66602 3 -3.99902s1.66699 -2.66602 3 -3.99902s2 -2.33301 2 -3c2 -2.66699 4 -5 6 -7l6 -6c2.66699 -2 5 -4.16699 7 -6.5s4.33301 -4.5 7 -6.5c0.666992 0 1.33398 -0.333008 2.00098 -1l2 -2c2.66699 -1.33301 5 -3 7 -5
c4.66699 -3.33301 9.33398 -6.16602 14.001 -8.49902l15 -7.5c7.33301 -2.66699 14.5 -4.83398 21.5 -6.50098s14.167 -3.16699 21.5 -4.5c14.667 -2 29.667 -2 45 0c7.33301 1.33301 14.5 2.83301 21.5 4.5s14.167 3.83398 21.5 6.50098
c5.33301 2.66699 10.333 5.33398 15 8.00098l15 9c1.33301 1.33301 2.66602 2.33301 3.99902 3s2.66602 1.66699 3.99902 3c0.666992 0 1.66699 0.666992 3 2c2 2 4.16699 4 6.5 6s4.5 4 6.5 6s4 4.16699 6 6.5s4 4.83301 6 7.5l2 2c0.666992 0 1 0.333008 1 1
c1.33301 1.33301 2.33301 2.66602 3 3.99902l2 4c3.33301 4.66699 6.33301 9.33398 9 14.001s5 9.66699 7 15c6 14 10 28.333 12 43s2 29.667 0 45c-2 14.667 -6 29 -12 43c-2 5.33301 -4.33301 10.333 -7 15l-9 15c-1.33301 1.33301 -2.33301 2.5 -3 3.5
s-1.66699 2.16699 -3 3.5c-0.666992 0.666992 -1 1.16699 -1 1.5s-0.333008 0.833008 -1 1.5c-2 2.66699 -4 5 -6 7l-6 6l-7 7c-2 2 -4.33301 4 -7 6l-2 2c-0.666992 0 -1 0.166992 -1 0.5s-0.333008 0.5 -1 0.5c-1.33301 1.33301 -2.5 2.16602 -3.5 2.49902
s-2.16699 1.16602 -3.5 2.49902c-4.66699 3.33301 -9.33398 6.16602 -14.001 8.49902l-15 7.5c-14.667 5.33301 -29 9.33301 -43 12c-3.33301 0 -7 0.166992 -11 0.5s-7.66699 0.5 -11 0.5c-7.33301 0 -13.5 2.33301 -18.5 7s-7.5 10.667 -7.5 18s2.5 13.333 7.5 18
s11.167 7 18.5 7h5h2c2.66699 0 5.16699 0.166992 7.5 0.5s5.16602 0.5 8.49902 0.5c10 2 20 5 30 9c3.33301 1.33301 6.83301 3 10.5 5l10.5 6c2 2 3.66699 3.33301 5 4l2 1l9 9c4 4 7 7.33301 9 10l1 1c0.666992 1.33301 2 3 4 5l6 10.5c2 3.66699 3.66699 7.16699 5 10.5
c4 10 6.66699 20 8 30s1.33301 20.333 0 31c-0.666992 9.33301 -3.33398 19.666 -8.00098 30.999c-3.33301 6.66699 -7.33301 13.667 -12 21c-0.666992 0.666992 -1.16699 1.33398 -1.5 2.00098s-0.833008 1.33398 -1.5 2.00098l-2 2c-2 3.33301 -5 6.66602 -9 9.99902l-9 9
c-0.666992 0 -1 0.333008 -1 1l-6 3c-5.33301 4.66699 -12 8.66699 -20 12c-5.33301 2 -10.333 3.5 -15 4.5s-9.66699 2.16699 -15 3.5c-10.667 0.666992 -21.334 0.666992 -32.001 0c-5.33301 -1.33301 -10.333 -2.5 -15 -3.5s-9.66699 -2.5 -15 -4.5l-7 -3.5l-7 -3.5
c-2 -2 -4.33301 -3.66699 -7 -5c-1.33301 -0.666992 -2.5 -1.5 -3.5 -2.5s-1.83301 -1.5 -2.5 -1.5c-2 -2 -4 -3.83301 -6 -5.5s-3.66699 -3.5 -5 -5.5l-6 -6c-0.666992 -0.666992 -1.16699 -1.33398 -1.5 -2.00098s-0.833008 -1.33398 -1.5 -2.00098
c-0.666992 0 -1 -0.333008 -1 -1c-2 -2 -4 -3.83301 -6 -5.5s-4.66699 -2.83398 -8 -3.50098c-6 -2 -12.333 -1.33301 -19 2c-5.33301 2.66699 -9.33301 7.66699 -12 15c-0.666992 3.33301 -0.833984 6.83301 -0.500977 10.5s1.5 6.83398 3.5 9.50098
c8.66699 11.333 18.167 21.5 28.5 30.5s22.166 16.5 35.499 22.5c27.333 12.667 55.333 18 84 16c21.333 -2 41.833 -7.5 61.5 -16.5s36.5 -21.833 50.5 -38.5c14.667 -16 26 -34.333 34 -55s11.333 -41.667 10 -63s-6.33301 -42 -15 -62s-20.667 -37.667 -36 -53
c-8.66699 -7.33301 -17.334 -14 -26.001 -20z" />
    <glyph glyph-name="four" unicode="4" horiz-adv-x="554" 
d="M519 267c7.33301 0 13.334 -2.50098 18.001 -7.50098s7 -10.833 7 -17.5c0 -7.33301 -2.33301 -13.5 -7 -18.5s-10.667 -7.5 -18 -7.5h-65h-43v-16v-125v-49c0 -7.33301 -2.33301 -13.5 -7 -18.5s-10.667 -7.5 -18 -7.5s-13.333 2.5 -18 7.5s-7 11.167 -7 18.5v49v125v16
h-59h-155h-71c-9.33301 0 -16.666 4.33301 -21.999 13s-5.33301 17 0 25c5.33301 7.33301 10.166 14.333 14.499 21s9.16602 13.667 14.499 21l38 56.5l38 56.5l46.5 68l46.5 69l39.5 58l39.5 58l16.5 24.5l16.5 24.5c3.33301 4.66699 7.5 8.16699 12.5 10.5
s10.5 2.83301 16.5 1.5c12 -3.33301 18 -11.666 18 -24.999v-50v-124v-162v-95h37h71zM361.001 266.999v95v162v92l-29 -42c-10 -14 -19.667 -28.333 -29 -43l-46.5 -68.5l-46.5 -68.5l-39.5 -58l-39.5 -58c-1.33301 -2 -2.5 -3.83301 -3.5 -5.5s-2.16699 -3.5 -3.5 -5.5h17
h152h68z" />
    <glyph glyph-name="five" unicode="5" horiz-adv-x="483" 
d="M316 442c20 -5.33301 38.665 -13.5029 55.998 -24.5029s32.833 -24 46.5 -39s25 -31.667 34 -50s14.833 -37.833 17.5 -58.5c2 -17.333 3 -33.666 3 -48.999c0 -18.667 -1.33301 -35.667 -4 -51c-4 -20 -11 -39.167 -21 -57.5s-22 -34.833 -36 -49.5
c-14.667 -14 -31 -26.167 -49 -36.5s-37 -17.5 -57 -21.5c-20.667 -4 -41.667 -5.16699 -63 -3.5s-41.666 6.5 -60.999 14.5c-20.667 8.66699 -39.334 20 -56.001 34c-14.667 12 -28.334 27 -41.001 45c-11.333 17.333 -20 36 -26 56s-9 40.333 -9 61
c0 7.33301 2.33301 13.333 7 18s10.667 7 18 7s13.333 -2.33301 18 -7s7 -10.667 7 -18c0 -3.33301 0.166992 -6.83301 0.5 -10.5s0.5 -7.16699 0.5 -10.5c1.33301 -7.33301 2.83301 -14.333 4.5 -21s4.16699 -13.334 7.5 -20.001c4 -10.667 9 -20.334 15 -29.001
c2 -2 3.66699 -4.33301 5 -7l3 -3c4 -5.33301 7.66699 -9.66602 11 -12.999c2.66699 -2 5 -4 7 -6l6 -6c0.666992 0 1.66699 -0.666992 3 -2s2.5 -2.16602 3.5 -2.49902s2.16699 -1.16602 3.5 -2.49902c4.66699 -3.33301 9.33398 -6.16602 14.001 -8.49902l15 -7.5
c14 -5.33301 27.667 -9 41 -11c14 -0.666992 28.333 -0.666992 43 0c13.333 2 27 5.66699 41 11c10.667 5.33301 20 10.666 28 15.999c4 2.66699 6.33301 4.33398 7 5.00098h1c0 1.33301 0.666992 2 2 2c2.66699 2 5 4 7 6l6 6c2 2 4 4.16699 6 6.5s4 4.5 6 6.5
c0.666992 0.666992 1 1.16699 1 1.5s0.333008 0.833008 1 1.5c2 2 3.66699 4.33301 5 7c3.33301 4.66699 6.33301 9.33398 9 14.001s5 9.66699 7 15c2.66699 6.66699 4.83398 13.167 6.50098 19.5s3.16699 13.166 4.5 20.499c0.666992 6 1 11.833 1 17.5v17.5v17.5
c0 5.66699 -0.333008 11.167 -1 16.5c-2 13.333 -5.66699 27 -11 41c-2 5.33301 -4.33301 10.166 -7 14.499s-5.66699 8.83301 -9 13.5c-0.666992 2 -2.33398 4.33301 -5.00098 7v1l-2 2c-2 2.66699 -4 5 -6 7l-6 6l-6 6c-2 2 -4.33301 4 -7 6l-2 2h-1
c-2.66699 2.66699 -5 4.33398 -7 5.00098c-4.66699 3.33301 -9.16699 6.33301 -13.5 9s-9.16602 5 -14.499 7c-14 5.33301 -27.667 9 -41 11c-3.33301 0.666992 -6.16602 1 -8.49902 1h-7.5h-5h-13h-125c-7.33301 0 -13.333 2.33301 -18 7s-7 10.667 -7 18v25v150v100
c0 7.33301 2.33301 13.333 7 18s10.667 7 18 7h42h156h96c7.33301 0 13.333 -2.33301 18 -7s7 -10.667 7 -18s-2.33301 -13.333 -7 -18s-10.667 -7 -18 -7h-42h-157h-70v-150v-75h107c1.33301 0.666992 3 1 5 1c9.33301 0 18.5 -0.666992 27.5 -2s18.167 -3 27.5 -5z" />
    <glyph glyph-name="six" unicode="6" horiz-adv-x="468" 
d="M418 348c25.333 -34 38.667 -72.332 40 -114.999c0 -16 -0.5 -31.833 -1.5 -47.5s-4.16699 -31.167 -9.5 -46.5c-14 -40.667 -38.667 -74 -74 -100c-17.333 -12.667 -36 -22.167 -56 -28.5s-40.333 -9.66602 -61 -9.99902s-41 2.5 -61 8.5s-38.667 15 -56 27
c-36 25.333 -61.333 58.333 -76 99c-6.66699 18.667 -10.667 39 -12 61c-0.666992 5.33301 -0.833984 10.666 -0.500977 15.999s0.5 10.666 0.5 15.999c0 37.333 9 71.666 27 102.999l2 2l10 21l10 20l33 65.5l33 65.5l36 70l35 70c5.33301 11.333 11 22.333 17 33
s11.667 21.667 17 33c3.33301 6 8.5 9.83301 15.5 11.5s13.167 0.833984 18.5 -2.49902c6.66699 -4 10.667 -9.33301 12 -16s0.333008 -13 -3 -19l-10 -20l-10 -21l-33.5 -65l-33.5 -65l-24 -48.5c-8 -16.333 -16.333 -32.5 -25 -48.5
c6.66699 2.66699 11.667 4.33398 15 5.00098c20 6.66699 40.833 10 62.5 10s42.167 -3.33301 61.5 -10c42.667 -14.667 76.334 -39.334 101.001 -74.001zM406.001 184.001c0.666992 5.33301 0.996094 10.8291 0.996094 16.4961v16.5v16
c0 5.33301 -0.333008 10.666 -1 15.999c-2 11.333 -5.66699 24.333 -11 39c-4 8.66699 -9 17.667 -15 27c-0.666992 1.33301 -1.33398 2.5 -2.00098 3.5s-1.33398 2.16699 -2.00098 3.5l-3 3c-1.33301 2 -3 4 -5 6l-6 6c-2 2 -4.16699 4 -6.5 6s-4.5 4 -6.5 6l-1 1
c-0.666992 0 -1.33398 0.333008 -2.00098 1c-1.33301 0.666992 -2.33301 1.33398 -3 2.00098s-1.66699 1.33398 -3 2.00098c-9.33301 5.33301 -18 10 -26 14c-6.66699 2.66699 -13.167 4.83398 -19.5 6.50098s-13.166 3.16699 -20.499 4.5c-13.333 2 -26.666 2 -39.999 0
c-7.33301 -1.33301 -14.166 -2.83301 -20.499 -4.5s-12.833 -3.83398 -19.5 -6.50098c-10 -4.66699 -18.667 -9.66699 -26 -15c-1.33301 -0.666992 -2.5 -1.33398 -3.5 -2.00098s-2.16699 -1.33398 -3.5 -2.00098l-3 -3c-4.66699 -2.66699 -8.66699 -6.33398 -12 -11.001
c-5.33301 -4 -9.33301 -8.33301 -12 -13c-0.666992 0 -1 -0.333008 -1 -1c-0.666992 -0.666992 -1 -1.33398 -1 -2.00098c-1.33301 -1.33301 -2.16602 -2.33301 -2.49902 -3s-1.16602 -1.66699 -2.49902 -3c-5.33301 -9.33301 -10 -18 -14 -26
c-2.66699 -6.66699 -4.83398 -13.167 -6.50098 -19.5s-3.16699 -13.166 -4.5 -20.499c-0.666992 -3.33301 -1 -6.66602 -1 -9.99902v-10v-22c0 -7.33301 0.333008 -14.666 1 -21.999c1.33301 -7.33301 2.83301 -14.166 4.5 -20.499s3.83398 -12.833 6.50098 -19.5
c4.66699 -10 9.66699 -18.667 15 -26c0.666992 -2 2.33398 -4.33301 5.00098 -7c0.666992 -0.666992 1 -1.16699 1 -1.5s0.333008 -0.833008 1 -1.5c4.66699 -6 8.33398 -10 11.001 -12c2 -2.66699 4.16699 -5 6.5 -7s4.5 -3.66699 6.5 -5c0.666992 0 1 -0.166992 1 -0.5
s0.333008 -0.5 1 -0.5c0 -0.666992 0.333008 -1 1 -1c1.33301 -1.33301 2.33301 -2.16602 3 -2.49902s1.66699 -1.16602 3 -2.49902l13 -7.5c4 -2.33301 8.33301 -4.5 13 -6.5c6.66699 -2.66699 13.167 -4.83398 19.5 -6.50098s13.166 -3.16699 20.499 -4.5
c13.333 -1.33301 26.666 -1.33301 39.999 0c7.33301 1.33301 14.166 2.83301 20.499 4.5s12.833 3.83398 19.5 6.50098c8.66699 4 17.667 9 27 15c1.33301 0.666992 2.5 1.33398 3.5 2.00098s2.16699 1.66699 3.5 3c0.666992 0.666992 1.16699 1 1.5 1
s0.833008 0.333008 1.5 1c2 2 4 3.83301 6 5.5s4 3.5 6 5.5s4 4.16699 6 6.5s4 4.5 6 6.5c0 0.666992 0.333008 1.33398 1 2.00098l1 1c0.666992 1.33301 1.33398 2.33301 2.00098 3s1.33398 1.66699 2.00098 3l7.5 13c2.33301 4 4.5 8.33301 6.5 13
c2.66699 6.66699 4.83398 13.167 6.50098 19.5s3.16699 13.166 4.5 20.499z" />
    <glyph glyph-name="seven" unicode="7" horiz-adv-x="506" 
d="M471 723c9.33301 0 16.668 -4 22.001 -12c4 -8 4 -16.667 0 -26l-6 -10.5c-2 -3.66699 -3.66699 -7.16699 -5 -10.5l-22.5 -44l-22.5 -44l-33.5 -66l-33.5 -66l-37.5 -74.5l-37.5 -74.5l-35.5 -69.5l-35.5 -69.5l-25.5 -51.5l-26.5 -51.5
c-6 -13.333 -12.667 -26.666 -20 -39.999c-3.33301 -6 -8.5 -9.83301 -15.5 -11.5s-13.5 -0.833984 -19.5 2.49902s-9.83301 8.33301 -11.5 15s-0.833984 13 2.49902 19l6 11.5c2 3.66699 3.66699 7.16699 5 10.5l22.5 44l22.5 44l33.5 66l33.5 66l37.5 74l37.5 74l35 70
l35 70l26.5 51.5l26.5 51.5l1 2h-117h-160h-78c-6.66699 0 -12.5 2.33301 -17.5 7s-7.5 10.667 -7.5 18s2.5 13.333 7.5 18s10.833 7 17.5 7h24h134h160h78v0z" />
    <glyph glyph-name="eight" unicode="8" horiz-adv-x="482" 
d="M396 373c14.667 -12 28.3359 -26.999 41.0029 -44.999c11.333 -17.333 20 -36 26 -56s9 -40.333 9 -61c0 -26.667 -4.33301 -51 -13 -73c-3.33301 -9.33301 -7.33301 -18.5 -12 -27.5s-10.334 -17.833 -17.001 -26.5c-14.667 -18 -30.334 -33 -47.001 -45
c-16.667 -12.667 -35 -22.167 -55 -28.5s-40.333 -9.83301 -61 -10.5s-41 1.66602 -61 6.99902s-38.833 13.333 -56.5 24s-33.334 23.667 -47.001 39s-24.834 32.666 -33.501 51.999c-8.66699 20.667 -14.667 42.334 -18 65.001c-2 22 -1 43.333 3 64
c7.33301 41.333 26 77 56 107c8 8.66699 16.833 16.5 26.5 23.5s19.834 13.167 30.501 18.5c-26.667 16.667 -46.667 37.667 -60 63c-10.667 19.333 -17.5 40.166 -20.5 62.499s-1.83301 44.166 3.5 65.499c5.33301 20.667 14.166 39.667 26.499 57s27.166 32.333 44.499 45
c17.333 12 36.333 20.667 57 26s41.334 6.66602 62.001 3.99902c11.333 -1.33301 22.333 -3.66602 33 -6.99902s21 -7.66602 31 -12.999c16.667 -8.66699 32.667 -21 48 -37c14 -16.667 25 -35 33 -55s12 -41 12 -63c0 -28.667 -6.66699 -55.667 -20 -81
c-14 -28 -34.667 -50.333 -62 -67c7.33301 -4 14.333 -8.16699 21 -12.5s13.334 -9.16602 20.001 -14.499zM162.002 471.001l0.998047 -0.991211c1.33301 -2 2.83301 -3.83301 4.5 -5.5s3.16699 -3.5 4.5 -5.5c2 -1.33301 3.83301 -2.83301 5.5 -4.5s3.5 -3.16699 5.5 -4.5
l2 -2c1.33301 -0.666992 3 -2 5 -4l10.5 -6l11.5 -6c10.667 -4.66699 21.334 -7.33398 32.001 -8.00098c11.333 -2 22.666 -2 33.999 0c10.667 0.666992 21.334 3.33398 32.001 8.00098l11.5 6l10.5 6c1.33301 1.33301 2.33301 2.16602 3 2.49902s1.66699 1.16602 3 2.49902
l1 1c2 1.33301 3.83301 2.83301 5.5 4.5s3.5 3.16699 5.5 4.5c1.33301 2 2.83301 3.83301 4.5 5.5s3.16699 3.5 4.5 5.5l2 2c0.666992 1.33301 1.33398 2.16602 2.00098 2.49902s1.33398 1.16602 2.00098 2.49902l6 10.5l6 11.5c4 10 7 20.667 9 32
c0 3.33301 0.166992 6.16602 0.5 8.49902s0.5 5.16602 0.5 8.49902s-0.166992 6.16602 -0.5 8.49902s-0.5 5.16602 -0.5 8.49902c-2 11.333 -5 22 -9 32l-6 11.5l-6 10.5c-1.33301 1.33301 -2.66602 3.33301 -3.99902 6c-0.666992 0 -1 0.166992 -1 0.5
s-0.333008 0.5 -1 0.5c-4 5.33301 -7 9 -9 11c-2.66699 2 -6.33398 5.33301 -11.001 10l-1 1h-1c-2 2 -3.66699 3.33301 -5 4l-10.5 6l-11.5 6c-10 4 -20.667 7 -32 9c-11.333 1.33301 -22.666 1.33301 -33.999 0c-11.333 -2 -22 -5 -32 -9l-11.5 -6l-10.5 -6
c-1.33301 -1.33301 -3.33301 -2.66602 -6 -3.99902c0 -0.666992 -0.333008 -1 -1 -1c-4.66699 -4.66699 -8.33398 -8 -11.001 -10c-1.33301 -2 -2.83301 -3.83301 -4.5 -5.5s-3.16699 -3.5 -4.5 -5.5c-0.666992 0 -1 -0.166992 -1 -0.5s-0.333008 -0.5 -1 -0.5v-1
c-0.666992 -0.666992 -1.16699 -1.33398 -1.5 -2.00098s-1.16602 -1.66699 -2.49902 -3l-6 -10.5l-6 -11.5c-4.66699 -10.667 -7.33398 -21.334 -8.00098 -32.001c-2 -11.333 -2 -22.666 0 -33.999c0.666992 -10.667 3.33398 -21.334 8.00098 -32.001l6 -11.5l6 -10.5
c1.33301 -1.33301 2.16602 -2.33301 2.49902 -3s1.16602 -1.66699 2.49902 -3zM421 189.01c0 4 0.167969 7.83398 0.500977 11.501s0.5 7.16699 0.5 10.5s-0.166992 6.83301 -0.5 10.5s-0.5 7.16699 -0.5 10.5c-1.33301 7.33301 -2.83301 14.333 -4.5 21
s-4.16699 13.334 -7.5 20.001c-4.66699 10.667 -9.66699 20.334 -15 29.001c-2 2 -3.66699 4.33301 -5 7l-3 3c-4 5.33301 -8 9.66602 -12 12.999l-6 6c-2 2 -4.33301 4 -7 6l-2 2c-1.33301 1.33301 -2.66602 2.16602 -3.99902 2.49902s-2.66602 1.16602 -3.99902 2.49902
c-9.33301 6 -18.666 11 -27.999 15c-11.333 5.33301 -24.666 9 -39.999 11c-14.667 2 -29 2 -43 0l-21 -4c-6.66699 -1.33301 -13.334 -3.66602 -20.001 -6.99902c-11.333 -4.66699 -21 -10 -29 -16c-2.66699 -1.33301 -5 -3 -7 -5c-0.666992 0 -1.66699 -0.666992 -3 -2
c-2 -2 -4.16699 -4 -6.5 -6s-4.5 -4 -6.5 -6l-6 -6c-2 -2 -4 -4.33301 -6 -7l-2 -2v-1c-0.666992 -0.666992 -2.33398 -3 -5.00098 -7c-6.66699 -9.33301 -11.667 -18.666 -15 -27.999c-3.33301 -6.66699 -5.66602 -13.334 -6.99902 -20.001l-4 -21c-2 -14 -2 -28.333 0 -43
c1.33301 -7.33301 2.66602 -14.166 3.99902 -20.499s3.66602 -13.166 6.99902 -20.499c4 -10 9.33301 -19.333 16 -28c0.666992 -2 2.33398 -4.33301 5.00098 -7c0 -0.666992 0.666992 -1.66699 2 -3c2 -2.66699 4 -5 6 -7l6 -6l6 -6c2 -2 4.33301 -4 7 -6l2 -2h1
c2.66699 -2.66699 5 -4.33398 7 -5.00098c9.33301 -6.66699 18.666 -11.667 27.999 -15c6.66699 -3.33301 13.334 -5.83301 20.001 -7.5s13.667 -3.16699 21 -4.5c14 -0.666992 28.333 -0.666992 43 0c7.33301 1.33301 14.166 2.83301 20.499 4.5s13.166 4.16699 20.499 7.5
c9.33301 3.33301 18.666 8.33301 27.999 15c1.33301 1.33301 2.5 2.33301 3.5 3s2.16699 1.33398 3.5 2.00098l3 3c4.66699 2.66699 9 6.66699 13 12l6 6c2 2 4 4.33301 6 7l2 2c1.33301 1.33301 2.33301 2.66602 3 3.99902l2 4c6 8.66699 11 17.667 15 27
c3.33301 7.33301 5.83301 14.166 7.5 20.499s3.16699 13.166 4.5 20.499z" />
    <glyph glyph-name="nine" unicode="9" horiz-adv-x="468" 
d="M457 528c0.666992 -5.33301 0.999023 -10.666 0.999023 -15.999v-16c-0.666992 -18 -3.16699 -35.833 -7.5 -53.5s-11.166 -34.167 -20.499 -49.5c-0.666992 -0.666992 -1 -1.66699 -1 -3l-10.5 -20l-10.5 -20l-33 -65.5l-33 -65.5l-36 -70l-35 -70l-33 -66
c-3.33301 -6 -8.66602 -9.83301 -15.999 -11.5s-13.666 -0.833984 -18.999 2.49902c-6 3.33301 -9.83301 8.33301 -11.5 15s-0.833984 13.334 2.49902 20.001l10.5 20l10.5 20l33 66l33 65l24 48.5c8 16.333 16.333 32.5 25 48.5l-15 -6c-20 -6 -40.833 -9 -62.5 -9
s-42.167 3.33301 -61.5 10c-41.333 14 -75 38.667 -101 74c-12.667 16 -22.334 34 -29.001 54s-10 40.333 -10 61c-0.666992 16 -0.5 31.833 0.5 47.5s4.16699 31.167 9.5 46.5c14 40.667 39 74 75 100c16.667 12 35 21.167 55 27.5s40.333 9.66602 61 9.99902
s41 -2.33398 61 -8.00098s38.667 -14.5 56 -26.5c35.333 -25.333 60.666 -58.333 75.999 -99c4 -9.33301 6.83301 -19.166 8.5 -29.499s2.83398 -20.833 3.50098 -31.5zM233.999 344c13.333 -2 26.6709 -1.99707 40.0039 0.00292969
c7.33301 1.33301 14.166 2.83301 20.499 4.5s12.833 3.83398 19.5 6.50098c4.66699 2 9.16699 4.16699 13.5 6.5l13.5 7.5c2.66699 2.66699 5 4.33398 7 5.00098c0.666992 0.666992 1 1.16699 1 1.5s0.333008 0.833008 1 1.5c2.66699 1.33301 5 3 7 5l6 6l6 6
c2 2 3.66699 4.33301 5 7c0.666992 0 1 0.333008 1 1c0.666992 0.666992 1 1.33398 1 2.00098c1.33301 1.33301 2.16602 2.33301 2.49902 3s1.16602 1.66699 2.49902 3c5.33301 9.33301 10 18 14 26c5.33301 14.667 9 27.667 11 39c0.666992 3.33301 1 6.83301 1 10.5v10.5
v22c0 7.33301 -0.333008 14.666 -1 21.999c-1.33301 7.33301 -2.83301 14.166 -4.5 20.499s-3.83398 12.833 -6.50098 19.5c-4.66699 10 -9.66699 18.667 -15 26c-0.666992 2 -2.33398 4.33301 -5.00098 7c0 0.666992 -0.666992 1.66699 -2 3c-2 2 -3.83301 4 -5.5 6
s-3.5 4 -5.5 6s-4.16699 4 -6.5 6s-4.5 4 -6.5 6c-0.666992 0 -1 0.333008 -1 1c-0.666992 0 -1 0.166992 -1 0.5s-0.333008 0.5 -1 0.5c-1.33301 1.33301 -2.33301 2.16602 -3 2.49902s-1.66699 1.16602 -3 2.49902l-13 7.5c-4 2.33301 -8.33301 4.5 -13 6.5
c-6.66699 2.66699 -13.167 4.83398 -19.5 6.50098s-13.166 3.16699 -20.499 4.5c-13.333 1.33301 -26.666 1.33301 -39.999 0c-7.33301 -1.33301 -14.166 -2.83301 -20.499 -4.5s-12.833 -3.83398 -19.5 -6.50098c-9.33301 -4 -18.333 -9 -27 -15
c-0.666992 -0.666992 -3 -2.33398 -7 -5.00098l-2 -2c-2.66699 -2 -5 -4 -7 -6s-4 -3.66699 -6 -5c-2 -2.66699 -4 -5 -6 -7s-3.66699 -4.33301 -5 -7c-0.666992 0 -1 -0.333008 -1 -1c-0.666992 0 -1 -0.333008 -1 -1c-0.666992 -0.666992 -2.33398 -3 -5.00098 -7
s-5.16699 -8 -7.5 -12s-4.5 -8.33301 -6.5 -13c-2.66699 -6.66699 -4.83398 -13.167 -6.50098 -19.5s-3.16699 -13.166 -4.5 -20.499c-0.666992 -5.33301 -1 -10.833 -1 -16.5v-16.5v-16c0 -5.33301 0.333008 -10.666 1 -15.999c2 -13.333 5.66699 -26.333 11 -39
c4 -10 9 -19 15 -27c1.33301 -2.66699 3 -5 5 -7c0 -0.666992 0.666992 -1.66699 2 -3c2 -2 3.83301 -4 5.5 -6s3.5 -4 5.5 -6s4.16699 -4 6.5 -6s4.5 -4 6.5 -6c0.666992 0 1 -0.333008 1 -1c0.666992 0 1.33398 -0.333008 2.00098 -1
c1.33301 -0.666992 2.33301 -1.33398 3 -2.00098s1.66699 -1.33398 3 -2.00098c4 -3.33301 8.16699 -6 12.5 -8l13.5 -6c6.66699 -2.66699 13.167 -4.83398 19.5 -6.50098s13.166 -3.16699 20.499 -4.5z" />
    <glyph glyph-name="colon" unicode=":" horiz-adv-x="110" 
d="M75 559c7.33301 0 13.333 -2.5 18 -7.5s7 -11.167 7 -18.5c0 -6.66699 -2.33301 -12.5 -7 -17.5s-10.667 -7.5 -18 -7.5s-13.333 2.5 -18 7.5s-7 10.833 -7 17.5c0 7.33301 2.33301 13.5 7 18.5s10.667 7.5 18 7.5zM75 158c7.33301 0 13.333 -2.33301 18 -7
s7 -10.667 7 -18s-2.33301 -13.333 -7 -18s-10.667 -7 -18 -7s-13.333 2.33301 -18 7s-7 10.667 -7 18s2.33301 13.333 7 18s10.667 7 18 7z" />
    <glyph glyph-name="semicolon" unicode=";" horiz-adv-x="152" 
d="M123 234c6 -2 11 -5.99902 15 -11.999s5 -12.333 3 -19h-1l-19.5 -53.5c-6.33301 -17.667 -13.166 -35.167 -20.499 -52.5c-2 -7.33301 -5.66699 -12.333 -11 -15c-6 -4 -12.667 -5 -20 -3c-6 1.33301 -11 5.16602 -15 11.499s-4.66699 12.833 -2 19.5l20 53.5l20 52.5
c2 7.33301 6 12.333 12 15c5.33301 4 11.666 5 18.999 3zM116 559.001c7.33301 0 13.333 -2.5 18 -7.5s7 -11.167 7 -18.5c0 -6.66699 -2.33301 -12.5 -7 -17.5s-10.667 -7.5 -18 -7.5s-13.333 2.5 -18 7.5s-7 10.833 -7 17.5c0 7.33301 2.33301 13.5 7 18.5
s10.667 7.5 18 7.5z" />
    <glyph glyph-name="less" unicode="&#x3c;" horiz-adv-x="357" 
d="M287 493l-62.999 -49l-63 -48c-7.33301 -6 -14.833 -11.833 -22.5 -17.5l-22.5 -16.5l9 -7.5c2.66699 -2.33301 5.66699 -4.5 9 -6.5l63 -49l63 -48l37 -28l36 -28c6.66699 -4 10.667 -9 12 -15c2 -7.33301 1 -14 -3 -20c-3.33301 -5.33301 -8.33301 -9 -15 -11
s-13 -1.33301 -19 2l-23.5 18l-23.5 18l-63 48.5l-63 48.5l-36.5 28l-36.5 28c-8 6 -12 13.333 -12 22c0 8 4 15 12 21l23.5 18l23.5 18l63 48l63 49l36.5 28l36.5 28c2.66699 2 5.66699 3.16699 9 3.5s6.66602 -0.166992 9.99902 -1.5c6.66699 -2 11.667 -5.66699 15 -11
c4 -6 5 -12.667 3 -20c-1.33301 -6 -5.33301 -11 -12 -15l-23 -18z" />
    <glyph glyph-name="equal" unicode="=" horiz-adv-x="485" 
d="M450 482c6.66699 0 12.5 -2.5 17.5 -7.5s7.5 -10.833 7.5 -17.5c0 -7.33301 -2.5 -13.333 -7.5 -18s-10.833 -7 -17.5 -7h-12h-121h-161h-81c-7.33301 0 -13.333 2.33301 -18 7s-7 10.667 -7 18c0 6.66699 2.33301 12.5 7 17.5s10.667 7.5 18 7.5h11h122h161h81zM450 334
c6.66699 0 12.5 -2.5 17.5 -7.5s7.5 -11.167 7.5 -18.5c0 -6.66699 -2.5 -12.5 -7.5 -17.5s-10.833 -7.5 -17.5 -7.5h-12h-121h-161h-81c-7.33301 0 -13.333 2.5 -18 7.5s-7 10.833 -7 17.5c0 7.33301 2.33301 13.5 7 18.5s10.667 7.5 18 7.5h11h122h161h81z" />
    <glyph glyph-name="greater" unicode="&#x3e;" horiz-adv-x="356" 
d="M109 493l-22.999 17l-23 18c-6.66699 4 -10.667 9 -12 15c-2 7.33301 -1 14 3 20c3.33301 5.33301 8.33301 9 15 11c3.33301 1.33301 6.66602 1.83301 9.99902 1.5s6.33301 -1.5 9 -3.5l36.5 -28l36.5 -28l63 -49l63 -48l23.5 -18l23.5 -18c8 -6 12 -13 12 -21
c0 -8.66699 -4 -16 -12 -22l-36.5 -28l-36.5 -28l-63 -48.5l-63 -48.5l-23.5 -18l-23.5 -18c-6 -3.33301 -12.333 -4 -19 -2s-11.667 5.66699 -15 11c-4 6 -5 12.667 -3 20c1.33301 6 5.33301 11 12 15l36 28l37 28l63 48l63 49c3.33301 2 6.33301 4.16699 9 6.5l9 7.5
l-22.5 16.5c-7.66699 5.66699 -15.167 11.5 -22.5 17.5l-63 48z" />
    <glyph glyph-name="question" unicode="?" horiz-adv-x="375" 
d="M164 53c7.33301 0 13.333 -2.5 18 -7.5s7 -11.167 7 -18.5c0 -6.66699 -2.33301 -12.5 -7 -17.5s-10.667 -7.5 -18 -7.5s-13.333 2.5 -18 7.5s-7 10.833 -7 17.5c0 7.33301 2.33301 13.5 7 18.5s10.667 7.5 18 7.5zM285 702
c19.333 -9.33301 36.165 -22.665 50.498 -39.998s23.166 -37 26.499 -59c1.33301 -11.333 2 -22.333 2 -33s-1.33301 -21.667 -4 -33c-4 -20 -10.667 -39.333 -20 -58c-10 -18.667 -21.667 -36.167 -35 -52.5s-27.666 -31.833 -42.999 -46.5
c-12 -11.333 -23.667 -23 -35 -35c-4 -5.33301 -7 -9 -9 -11l-2 -2c-0.666992 -1.33301 -1.33398 -2.33301 -2.00098 -3s-1.33398 -1.66699 -2.00098 -3l-8 -12c-2.66699 -4 -5 -8 -7 -12c-1.33301 -3.33301 -2.33301 -6.83301 -3 -10.5l-2 -10.5
c-1.33301 -10.667 -2.16602 -21.5 -2.49902 -32.5s-0.5 -22.167 -0.5 -33.5c0 -6.66699 -2.33301 -12.5 -7 -17.5s-10.667 -7.5 -18 -7.5s-13.333 2.5 -18 7.5s-7 10.833 -7 17.5c-0.666992 22.667 0.333008 45.334 3 68.001l2 15.5c0.666992 5 2 10.167 4 15.5
c2.66699 8.66699 7 17.334 13 26.001c6 9.33301 12.333 18.166 19 26.499s13.667 16.166 21 23.499c5.33301 6 11 11.833 17 17.5l18 17.5c3.33301 3.33301 6.33301 6.5 9 9.5s5.66699 6.16699 9 9.5c1.33301 1.33301 2.83301 3 4.5 5s3.5 4 5.5 6
c0 0.666992 0.5 1.5 1.5 2.5s1.5 1.83301 1.5 2.5l3 3c12.667 18 23.334 35.667 32.001 53c5.33301 14 9 27.667 11 41c1.33301 11.333 1.33301 22 0 32c-1.33301 8 -3.33301 16 -6 24c-1.33301 2.66699 -2.66602 5.16699 -3.99902 7.5s-3 4.83301 -5 7.5
c0 0.666992 -0.166992 1 -0.5 1s-0.5 0.333008 -0.5 1c-1.33301 1.33301 -2 2.33301 -2 3l-3.5 3.5l-3.5 3.5c-1.33301 0.666992 -2.16602 1.33398 -2.49902 2.00098s-1.16602 1.33398 -2.49902 2.00098l-2 1c-1.33301 1.33301 -4 3.33301 -8 6l-9 5.5
c-2.66699 1.66699 -5.66699 3.16699 -9 4.5c-10.667 4 -22.334 7 -35.001 9c-11.333 1.33301 -22.666 1.33301 -33.999 0c-9.33301 -0.666992 -19 -3.33398 -29 -8.00098c-3.33301 -1.33301 -6.33301 -2.83301 -9 -4.5s-5.33398 -3.16699 -8.00098 -4.5
c0 -0.666992 -0.333008 -1 -1 -1l-3 -3c-4 -4 -7 -6.66699 -9 -8c-2 -2.66699 -5 -6 -9 -10c-0.666992 -0.666992 -1.16699 -1.33398 -1.5 -2.00098s-0.833008 -1.33398 -1.5 -2.00098l-1 -2c-4 -6 -7.33301 -11.667 -10 -17c-2 -4 -3 -7.66699 -3 -11
c-0.666992 -0.666992 -1 -1.66699 -1 -3c0 -7.33301 -2.33301 -13.5 -7 -18.5s-10.667 -7.5 -18 -7.5c-6.66699 0 -12.5 2.5 -17.5 7.5s-7.5 11.167 -7.5 18.5c0 6.66699 1 13 3 19c2.66699 11.333 7.16699 22 13.5 32s13.5 19.333 21.5 28
c9.33301 9.33301 18 16.666 26 21.999c8.66699 6.66699 18.334 12 29.001 16c22.667 9.33301 46.667 13 72 11s48.666 -8.66699 69.999 -20z" />
    <glyph glyph-name="at" unicode="@" horiz-adv-x="785" 
d="M682 604c22.667 -25.333 41.5049 -53.1699 56.5049 -83.5029s25.167 -62.5 30.5 -96.5c6 -34.667 7.33301 -70.667 4 -108c-1.33301 -20 -4.83301 -39.667 -10.5 -59s-15.167 -36.666 -28.5 -51.999c-12 -14 -26.667 -24.833 -44 -32.5s-35.333 -10.834 -54 -9.50098
c-20.667 2 -38.334 7.66699 -53.001 17c-17.333 10 -30.666 24 -39.999 42c-3.33301 6 -6.16602 12.167 -8.49902 18.5s-4.5 12.833 -6.5 19.5c-4 -5.33301 -8.33301 -10.666 -13 -15.999s-9.66699 -10 -15 -14c-16 -12.667 -32.333 -22.334 -49 -29.001
c-17.333 -6 -35.333 -9 -54 -9c-38.667 0 -73.334 12.333 -104.001 37c-13.333 10.667 -24.833 23.5 -34.5 38.5s-16.5 31.167 -20.5 48.5c-9.33301 39.333 -5.33301 76.333 12 111c7.33301 15.333 17.5 29.5 30.5 42.5s27.167 23.167 42.5 30.5
c35.333 18 72.333 22.333 111 13c17.333 -4 33.5 -10.667 48.5 -20s28.167 -21 39.5 -35l1 -1v18c0 6 -0.333008 12 -1 18c0 6 2.16699 11.167 6.5 15.5s9.5 6.5 15.5 6.5s11.167 -2.16699 15.5 -6.5s6.5 -9.5 6.5 -15.5c0.666992 -37.333 0.666992 -74.333 0 -111
c0 -16 -0.166992 -32.167 -0.5 -48.5s0.5 -32.166 2.5 -47.499c0.666992 -10.667 3.33398 -21.667 8.00098 -33c1.33301 -3.33301 2.83301 -6.16602 4.5 -8.49902s3.16699 -5.16602 4.5 -8.49902l2 -2l1 -1l6 -6l6 -6c1.33301 -1.33301 2.33301 -2 3 -2
c3.33301 -2.66699 7.66602 -5 12.999 -7c3.33301 -1.33301 6.33301 -2.33301 9 -3s5.66699 -1.33398 9 -2.00098c7.33301 -1.33301 14 -1.33301 20 0c3.33301 0.666992 6.5 1.33398 9.5 2.00098s6.16699 1.66699 9.5 3c4.66699 2 9.33398 4.66699 14.001 8
c0.666992 0.666992 1.33398 1 2.00098 1l2 2l4 4l4 4l4 4c0 0.666992 0.333008 1.16699 1 1.5s1 0.833008 1 1.5c1.33301 1.33301 2.66602 3.33301 3.99902 6c2 2.66699 3.66699 5.16699 5 7.5s2.66602 5.16602 3.99902 8.49902c2.66699 6.66699 4.66699 13.334 6 20.001
l4 21c2 18 3 36 3 54c0 16 -1 32.667 -3 50c-4 29.333 -11.333 56.333 -22 81c-4.66699 10 -9.5 19.833 -14.5 29.5s-10.833 19.167 -17.5 28.5c-1.33301 1.33301 -2.5 3 -3.5 5s-2.16699 3.66699 -3.5 5s-2 2.33301 -2 3l-2 2c-2.66699 3.33301 -5.33398 6.5 -8.00098 9.5
s-5.33398 6.16699 -8.00098 9.5l-16.5 16c-5.66699 5.33301 -11.834 10.666 -18.501 15.999c-0.666992 1.33301 -2.33398 2.66602 -5.00098 3.99902l-1 1c-1.33301 1.33301 -2.83301 2.5 -4.5 3.5s-3.16699 2.16699 -4.5 3.5c-3.33301 2 -6.66602 4.16699 -9.99902 6.5
s-6.66602 4.5 -9.99902 6.5c-12 7.33301 -25.667 14.333 -41 21c-13.333 5.33301 -26.666 9.83301 -39.999 13.5s-27 6.5 -41 8.5c-28.667 3.33301 -57 3.33301 -85 0c-14 -2 -27.833 -4.83301 -41.5 -8.5s-27.167 -8.16699 -40.5 -13.5c-20 -9.33301 -39 -20.333 -57 -33
c-3.33301 -2 -7 -4.33301 -11 -7c0 -0.666992 -0.333008 -1 -1 -1s-1.33398 -0.333008 -2.00098 -1l-2 -2l-9 -7.5c-2.66699 -2.33301 -5.66699 -5.16602 -9 -8.49902c-6 -5.33301 -11.667 -10.833 -17 -16.5l-16 -17.5
c-1.33301 -2.66699 -2.66602 -4.33398 -3.99902 -5.00098c0 -0.666992 -0.333008 -1 -1 -1c-1.33301 -1.33301 -2.33301 -3 -3 -5s-1.66699 -3.66699 -3 -5c-2.66699 -3.33301 -5 -6.66602 -7 -9.99902l-6 -10c-8.66699 -14 -15.667 -27.333 -21 -40
c-10.667 -24.667 -18 -51.667 -22 -81c-4 -28.667 -4 -57.334 0 -86.001c4 -29.333 11.333 -56.333 22 -81c9.33301 -20.667 20 -40 32 -58c1.33301 -1.33301 2.5 -3 3.5 -5s2.16699 -3.66699 3.5 -5l3 -3c0 -0.666992 0.666992 -1.66699 2 -3l15 -18l16.5 -16
c5.66699 -5.33301 11.834 -10.666 18.501 -15.999c0.666992 -1.33301 2.33398 -2.66602 5.00098 -3.99902c0 -0.666992 0.333008 -1 1 -1c1.33301 -1.33301 2.83301 -2.5 4.5 -3.5s3.16699 -2.16699 4.5 -3.5c3.33301 -2 6.66602 -4.16699 9.99902 -6.5
s6.66602 -4.5 9.99902 -6.5c12 -7.33301 25.667 -14.333 41 -21c13.333 -5.33301 26.666 -9.83301 39.999 -13.5s27 -6.5 41 -8.5c28 -3.33301 56.333 -3.33301 85 0c14 2 27.667 4.83301 41 8.5s26.666 8.16699 39.999 13.5c14 6.66699 26.333 13 37 19
c5.33301 3.33301 10.833 4.16602 16.5 2.49902s10.167 -5.16699 13.5 -10.5s4.16602 -10.833 2.49902 -16.5s-5.16699 -10.167 -10.5 -13.5c-28 -16.667 -58 -29.167 -90 -37.5s-64.667 -12.166 -98 -11.499c-34 0.666992 -67.667 6 -101 16s-64.333 24.667 -93 44
c-28 18.667 -53 40.667 -75 66s-40 53.333 -54 84c-7.33301 15.333 -13.5 31.166 -18.5 47.499s-8.5 33.166 -10.5 50.499c-6 36.667 -6 73.334 0 110.001c5.33301 34 15.166 66.5 29.499 97.5s32.833 59.167 55.5 84.5c22 25.333 47.167 47.333 75.5 66
s58.5 32.667 90.5 42c34 10.667 68.5 16 103.5 16s69.5 -4.66699 103.5 -14c66.667 -19.333 123 -54.666 169 -105.999zM218.005 109.996c0.666992 -0.666992 1.33301 -1.16699 2 -1.5s0 0.166992 -2 1.5zM607.004 613.996c-0.666992 0.666992 -1.33301 1.16699 -2 1.5
s0 -0.166992 2 -1.5zM514.005 338.996c0.666992 3.33301 1.00195 8.66309 1.00195 15.9961v8c0 2.66699 -0.333008 5.33398 -1 8.00098c-0.666992 10 -3.33398 20.333 -8.00098 31c-3.33301 6.66699 -7.33301 13.667 -12 21
c-0.666992 0.666992 -1.16699 1.33398 -1.5 2.00098s-1.16602 1.66699 -2.49902 3l-1 2l-9 9c-2.66699 3.33301 -6 6.33301 -10 9l-2 2c-0.666992 0.666992 -1.33398 1.16699 -2.00098 1.5s-1.66699 1.16602 -3 2.49902l-10 6c-3.33301 2 -6.66602 3.66699 -9.99902 5
c-5.33301 2 -10.5 3.5 -15.5 4.5s-10.167 2.16699 -15.5 3.5c-10.667 0.666992 -21.334 0.666992 -32.001 0c-5.33301 -1.33301 -10.5 -2.5 -15.5 -3.5s-10.167 -2.5 -15.5 -4.5c-3.33301 -2 -6.83301 -3.83301 -10.5 -5.5s-7.16699 -3.83398 -10.5 -6.50098
c-0.666992 -0.666992 -1.33398 -1.16699 -2.00098 -1.5s-1.66699 -1.16602 -3 -2.49902c-0.666992 0 -1 -0.166992 -1 -0.5s-0.333008 -0.5 -1 -0.5c-4 -4 -7.33301 -7 -10 -9c-1.33301 -1.33301 -2.83301 -3 -4.5 -5s-3.16699 -3.66699 -4.5 -5
c0 -0.666992 -0.333008 -1.33398 -1 -2.00098c-0.666992 -1.33301 -2 -3 -4 -5l-6 -10c-2 -3.33301 -3.66699 -6.66602 -5 -9.99902c-4.66699 -10.667 -7.33398 -21 -8.00098 -31c-1.33301 -11.333 -1.33301 -22 0 -32c0.666992 -9.33301 3.33398 -19.666 8.00098 -30.999
c2.66699 -7.33301 6.66699 -14.333 12 -21c0.666992 -1.33301 1.16699 -2.16602 1.5 -2.49902s0.833008 -1.16602 1.5 -2.49902l2 -2c1.33301 -1.33301 2.83301 -3 4.5 -5s3.16699 -3.66699 4.5 -5s3 -2.83301 5 -4.5s3.66699 -3.16699 5 -4.5l2 -1
c2 -2 3.66699 -3.33301 5 -4l10 -6c3.33301 -2 6.66602 -3.66699 9.99902 -5c11.333 -4.66699 21.666 -7.33398 30.999 -8.00098c10.667 -2 21.334 -2 32.001 0c9.33301 0.666992 19.666 3.33398 30.999 8.00098c6.66699 2.66699 13.667 6.66699 21 12
c0.666992 0.666992 2.33398 1.66699 5.00098 3l2 2c4 4 7.33301 7 10 9c4 4 7 7.33301 9 10l1 1c1.33301 2.66699 2.66602 4.66699 3.99902 6c4.66699 6.66699 8.33398 13.334 11.001 20.001c4.66699 11.333 7.33398 21.666 8.00098 30.999z" />
    <glyph glyph-name="A" unicode="A" horiz-adv-x="530" 
d="M504 75c2.66699 -7.33301 5.16699 -14.833 7.5 -22.5s4.5 -15.5 6.5 -23.5c2 -6.66699 1.33301 -13 -2 -19s-8.33301 -10 -15 -12c-7.33301 -2 -14 -1.33301 -20 2s-10 8.66602 -12 15.999c0 1.33301 -0.333008 2.33301 -1 3l-21 69l-19.5 64.5
c-6.33301 21.667 -13.166 43.167 -20.499 64.5c-1.33301 5.33301 -2.66602 10.333 -3.99902 15l-4 14h-127h-100l-10.5 -34l-11.5 -34l-18 -58l-18 -58c-2.66699 -8 -5 -15.833 -7 -23.5s-4.33301 -15.167 -7 -22.5c-2 -6.66699 -6 -11.834 -12 -15.501
s-12.333 -4.5 -19 -2.5s-11.834 6 -15.501 12s-4.5 12.333 -2.5 19c0 0.666992 0.166992 1.33398 0.5 2.00098s0.5 1.33398 0.5 2.00098c3.33301 11.333 7 22.833 11 34.5s7.66699 23.167 11 34.5l20 64.5l20 65.5l25 78.5l24 79.5l48 153l18 58l18 58
c2.66699 7.33301 5.16699 14.833 7.5 22.5l7.5 23.5c3.33301 12 11.333 18 24 18c12 0 20.333 -6 25 -18c0 -2 0.333008 -3.33301 1 -4l10.5 -34l10.5 -34l19.5 -65c6.33301 -22 13.166 -43.667 20.499 -65l24 -78.5l24 -79.5l24 -76.5l23 -76.5zM383 297l-24 78l-24 77.5
l-23 76.5c-4.66699 14 -9 28 -13 42s-8.33301 27.667 -13 41l-19.5 -61.5l-18.5 -61.5l-25 -79l-25 -79c-1.33301 -5.33301 -3 -11 -5 -17s-3.66699 -11.667 -5 -17h123h72z" />
    <glyph glyph-name="B" unicode="B" horiz-adv-x="442" 
d="M333 361c16 -9.33301 30.665 -20.834 43.998 -34.501s24.333 -28.834 33 -45.501c20.667 -41.333 26.334 -84 17.001 -128c-4 -20 -11.167 -39.167 -21.5 -57.5s-23.166 -34.166 -38.499 -47.499c-32.667 -29.333 -71.667 -45.666 -117 -48.999
c-8 -1.33301 -16.167 -1.83301 -24.5 -1.5s-16.5 0.5 -24.5 0.5h-126c-7.33301 0 -13.333 2.5 -18 7.5s-7 10.833 -7 17.5v49v125v162v163v126v50c0 7.33301 2.33301 13.333 7 18s10.667 7 18 7h14h142h11c4 0 8 -0.333008 12 -1c24 -2 45.667 -7.66699 65 -17
c18.667 -8.66699 35.667 -20 51 -34s27.666 -30 36.999 -48c10.667 -19.333 17.834 -39.833 21.501 -61.5s3.5 -43.5 -0.5 -65.5c-3.33301 -20 -9.83301 -39.333 -19.5 -58s-22.167 -35 -37.5 -49c-10 -10 -22.667 -19.333 -38 -28zM255.998 670.999
c-9.33301 1.33301 -18.5 1.99609 -27.5 1.99609h-27.5h-101v-24v-124v-139h26h80c8.66699 0 17.167 -0.166992 25.5 -0.5s16.5 0.166992 24.5 1.5c6.66699 1.33301 13.167 2.83301 19.5 4.5s12.5 3.5 18.5 5.5c4 2 8 4.16699 12 6.5s8 4.83301 12 7.5
s6.33301 4.33398 7 5.00098l2 2c5.33301 4 9.33301 7.33301 12 10c2 2 3.83301 4 5.5 6s3.5 4 5.5 6c0 0.666992 0.333008 1.33398 1 2.00098c1.33301 1.33301 2.16602 2.5 2.49902 3.5s1.16602 2.16699 2.49902 3.5c5.33301 8 9.66602 16 12.999 24
c5.33301 13.333 9 25.666 11 36.999c0.666992 12.667 0.666992 25.667 0 39c-2 12 -5.66699 24.333 -11 37c-1.33301 4 -3.16602 8 -5.49902 12s-4.83301 8 -7.5 12c-1.33301 1.33301 -2.16602 2.5 -2.49902 3.5s-1.16602 2.16699 -2.49902 3.5l-2 2c-1.33301 2 -3 4 -5 6
s-3.66699 4 -5 6c-2 2 -4 3.83301 -6 5.5s-4.33301 3.5 -7 5.5l-1 1c-4 2.66699 -6.33301 4.33398 -7 5.00098c-4 2.66699 -8 5 -12 7l-12 6c-6 2.66699 -12.167 4.83398 -18.5 6.50098s-12.833 2.83398 -19.5 3.50098zM379.998 172.995
c0.666992 12.667 0.666016 25.332 -0.000976562 37.999c-2 11.333 -5.66699 23.666 -11 36.999c-1.33301 4.66699 -3.16602 9 -5.49902 13s-4.83301 8 -7.5 12c-1.33301 1.33301 -2.16602 2.5 -2.49902 3.5s-1.16602 2.16699 -2.49902 3.5l-2 2c-1.33301 2 -3 4 -5 6l-5 5
l-6 6c-2 2 -4.33301 3.66699 -7 5c0 0.666992 -0.166992 1 -0.5 1s-0.5 0.333008 -0.5 1c-1.33301 0.666992 -2.5 1.33398 -3.5 2.00098s-2.16699 1.33398 -3.5 2.00098c-4 3.33301 -8 6 -12 8l-12 6c-10.667 4.66699 -23.334 8 -38.001 10
c-7.33301 1.33301 -14.5 1.83301 -21.5 1.5s-14.167 -0.5 -21.5 -0.5h-113v-136v-125v-25h26h80c8.66699 0 17.167 -0.166992 25.5 -0.5s16.5 0.166992 24.5 1.5c14.667 2 27.334 5.33301 38.001 10l12 6c4 2 8 4.66699 12 8c2 0.666992 4.33301 2.33398 7 5.00098
c0.666992 0 1.33398 0.333008 2.00098 1c2 2 4 3.83301 6 5.5s4 3.5 6 5.5s3.83301 4 5.5 6s3.5 4 5.5 6c0 0.666992 0.166992 1 0.5 1s0.5 0.333008 0.5 1c1.33301 1.33301 2.16602 2.33301 2.49902 3s1.16602 1.66699 2.49902 3c2.66699 4 5.16699 8 7.5 12
s4.16602 8.33301 5.49902 13c5.33301 13.333 9 25.666 11 36.999z" />
    <glyph glyph-name="C" unicode="C" horiz-adv-x="448" 
d="M412 217c7.33301 0 13.4912 -2.33008 18.4912 -6.99707s7.5 -10.667 7.5 -18c-0.666992 -34 -9.16699 -65.833 -25.5 -95.5s-38.833 -53.167 -67.5 -70.5c-18 -10.667 -37.5 -18.5 -58.5 -23.5s-41.833 -6.16699 -62.5 -3.5c-23.333 3.33301 -45 9.66602 -65 18.999
c-18 8 -34.667 19.667 -50 35c-14.667 14 -26.834 30.167 -36.501 48.5s-16.167 37.5 -19.5 57.5c-2 16.667 -3 32.667 -3 48v135v152v36c0 33.333 8.33301 65 25 95c10 17.333 22.667 33.166 38 47.499s32.333 25.5 51 33.5c10.667 4.66699 21.334 8.33398 32.001 11.001
s22 4.66699 34 6c22 2 43 0 63 -6c41.333 -10.667 75 -32.334 101 -65.001c14 -18 25 -37.333 33 -58c3.33301 -10 5.83301 -20.333 7.5 -31s2.83398 -21.334 3.50098 -32.001c0 -7.33301 -2.5 -13.333 -7.5 -18s-11.167 -7 -18.5 -7s-13.333 2.33301 -18 7s-7 10.667 -7 18
v9c0 2.66699 -0.333008 5.66699 -1 9c-1.33301 6.66699 -2.83301 13 -4.5 19s-3.5 12 -5.5 18c-2 4.66699 -4.16699 9 -6.5 13s-4.83301 8 -7.5 12c-1.33301 1.33301 -2.16602 2.5 -2.49902 3.5s-1.16602 2.16699 -2.49902 3.5l-2 2c-1.33301 2 -3 4 -5 6l-5 5l-6 6
c-2 2 -4.33301 4 -7 6h-1c0 0.666992 -0.333008 1 -1 1c-1.33301 1.33301 -2.33301 2.16602 -3 2.49902s-1.66699 1.16602 -3 2.49902c-4 2.66699 -8 5 -12 7l-12 6c-6 2 -12 3.83301 -18 5.5s-12.333 3.16699 -19 4.5c-13.333 1.33301 -26 1.33301 -38 0
c-6.66699 -1.33301 -13 -2.83301 -19 -4.5s-12 -3.5 -18 -5.5c-4.66699 -2 -9 -4.16699 -13 -6.5s-8 -4.83301 -12 -7.5c-1.33301 -1.33301 -2.5 -2.16602 -3.5 -2.49902s-2.16699 -1.16602 -3.5 -2.49902l-2 -2c-2 -1.33301 -4 -3 -6 -5s-4 -3.66699 -6 -5
c-1.33301 -2 -3 -4 -5 -6s-4 -4.33301 -6 -7l-1 -1v-1c-1.33301 -1.33301 -2.16602 -2.33301 -2.49902 -3s-1.16602 -1.66699 -2.49902 -3c-2.66699 -4 -5 -8 -7 -12l-6 -12c-2.66699 -6 -4.66699 -12.167 -6 -18.5l-4 -18.5c-0.666992 -3.33301 -1 -6.5 -1 -9.5v-9.5v-102
v-162v-57v-18c0 -6 0.333008 -12 1 -18c2 -14 5.33301 -26.333 10 -37c2 -4.66699 4 -9 6 -13s4.66699 -8 8 -12c0.666992 -1.33301 1.33398 -2.5 2.00098 -3.5s1.33398 -2.16699 2.00098 -3.5c1.33301 0 2 -0.666992 2 -2c2 -2 3.83301 -4 5.5 -6s3.5 -3.66699 5.5 -5
c5.33301 -5.33301 9.33301 -9 12 -11l2 -2c1.33301 -0.666992 2.33301 -1.33398 3 -2.00098s1.66699 -1.33398 3 -2.00098c4 -3.33301 8 -6 12 -8s8.33301 -4 13 -6c10.667 -4.66699 23 -8 37 -10c12 -1.33301 24.667 -1.33301 38 0c14 2 26.333 5.33301 37 10
c4.66699 2 9 4 13 6s8 4.66699 12 8c1.33301 0.666992 2.33301 1.33398 3 2.00098s1.66699 1.33398 3 2.00098c1.33301 1.33301 2.33301 2 3 2l11 11c5.33301 5.33301 9 9.33301 11 12l2 2c0.666992 1.33301 1.33398 2.33301 2.00098 3s1.33398 1.66699 2.00098 3
c2.66699 4 5.16699 8 7.5 12s4.5 8.33301 6.5 13c2 6 3.83301 12 5.5 18s3.16699 12.333 4.5 19c0.666992 3.33301 1 6.5 1 9.5v9.5c0 7.33301 2.33301 13.333 7 18s10.667 7 18 7z" />
    <glyph glyph-name="D" unicode="D" horiz-adv-x="415" 
d="M405 510l-0.000976562 -137.998v-64v-112c0 -18 -2.16699 -35.667 -6.5 -53s-11.166 -34 -20.499 -50c-10 -17.333 -22.667 -32.833 -38 -46.5s-32.333 -24.5 -51 -32.5c-10.667 -4.66699 -21.5 -8.33398 -32.5 -11.001s-22.167 -4.33398 -33.5 -5.00098
c-4 -0.666992 -7.83301 -1 -11.5 -1h-11.5h-124c-7.33301 0 -13.5 2.5 -18.5 7.5s-7.5 10.833 -7.5 17.5v51v126v163v162v125v50c0 7.33301 2.5 13.5 7.5 18.5s11.167 7.5 18.5 7.5h4h128c38.667 0 73.667 -10 105 -30c18.667 -11.333 34.667 -25.333 48 -42s24 -35 32 -55
c6.66699 -18.667 10.667 -39 12 -61v-27zM352.999 175.002c0.666992 5.33301 0.99707 10.3359 0.99707 15.0029v15v52v115v120c0 9.33301 0.166992 18.833 0.5 28.5s-0.166992 19.167 -1.5 28.5l-4 18.5c-1.33301 6.33301 -3.33301 12.5 -6 18.5
c-2 4.66699 -4.16699 9 -6.5 13s-4.83301 8 -7.5 12c-0.666992 2 -2.33398 4.33301 -5.00098 7c0 1.33301 -0.666992 2 -2 2c-4 5.33301 -7.33301 9.33301 -10 12c-2 2 -4 3.83301 -6 5.5s-4 3.5 -6 5.5c-0.666992 0 -1 0.166992 -1 0.5s-0.333008 0.5 -1 0.5
c-1.33301 1.33301 -2.33301 2.16602 -3 2.49902s-1.66699 1.16602 -3 2.49902c-9.33301 5.33301 -18 10 -26 14c-10.667 4.66699 -23 8 -37 10c-5.33301 0.666992 -10.166 1 -14.499 1h-14.5h-99v-25v-126v-163v-163v-125v-24h73c9.33301 0 18.5 -0.166992 27.5 -0.5
s18.167 0.166992 27.5 1.5c13.333 2 26 5.33301 38 10c8.66699 4 17 8.66699 25 14c1.33301 1.33301 2.33301 2.16602 3 2.49902s1.66699 1.16602 3 2.49902c0.666992 0 1.66699 0.666992 3 2c2.66699 2 6.33398 5.33301 11.001 10c5.33301 5.33301 9 9.33301 11 12l2 2
c0.666992 1.33301 1.33398 2.5 2.00098 3.5s1.33398 2.16699 2.00098 3.5c2.66699 4 5.16699 8 7.5 12s4.5 8.33301 6.5 13c4.66699 10.667 8 23.334 10 38.001v1z" />
    <glyph glyph-name="E" unicode="E" horiz-adv-x="432" 
d="M101 523l-0.00195312 -134h67h117h111c7.33301 0 13.5 -2.33301 18.5 -7s7.5 -10.667 7.5 -18s-2.5 -13.5 -7.5 -18.5s-11.167 -7.5 -18.5 -7.5c-17.333 0 -34.666 0.166992 -51.999 0.5s-34.666 0.5 -51.999 0.5h-100h-91v-142v-125v-24h43h161h91
c7.33301 0 13.5 -2.5 18.5 -7.5s7.5 -11.167 7.5 -18.5c0 -6.66699 -2.5 -12.5 -7.5 -17.5s-11.167 -7.5 -18.5 -7.5h-68h-161h-91c-7.33301 0 -13.5 2.5 -18.5 7.5s-7.5 10.833 -7.5 17.5v51v126v163v162v125v50c0 7.33301 2.5 13.5 7.5 18.5s11.167 7.5 18.5 7.5h68h161
h91c7.33301 0 13.5 -2.5 18.5 -7.5s7.5 -11.167 7.5 -18.5c0 -6.66699 -2.5 -12.5 -7.5 -17.5s-11.167 -7.5 -18.5 -7.5h-68h-161h-66v-25v-126z" />
    <glyph glyph-name="F" unicode="F" horiz-adv-x="398" 
d="M100 524v-121h10h155h98c6.66699 0 12.167 -2.16699 16.5 -6.5s6.5 -9.83301 6.5 -16.5s-2.16699 -12.167 -6.5 -16.5s-9.83301 -6.5 -16.5 -6.5h-36h-155h-72v-158v-125v-50c0 -6.66699 -2.33301 -12.5 -7 -17.5s-10.667 -7.5 -18 -7.5s-13.333 2.5 -18 7.5
s-7 10.833 -7 17.5v50v125v162v163v125v50c0 6.66699 2.33301 12.5 7 17.5s10.667 7.5 18 7.5h35h155h98c7.33301 0 13.333 -2.5 18 -7.5s7 -11.167 7 -18.5c0 -6.66699 -2.33301 -12.5 -7 -17.5s-10.667 -7.5 -18 -7.5h-35h-155h-73v-24v-125z" />
    <glyph glyph-name="G" unicode="G" horiz-adv-x="469" 
d="M434 372c7.33301 0 13.3398 -2.50391 18.0068 -7.50391s7 -10.833 7 -17.5v-1v-131c0 -13.333 -0.666992 -26.666 -2 -39.999s-4.33301 -26.333 -9 -39c-15.333 -41.333 -40.666 -74.666 -75.999 -99.999c-17.333 -12 -36 -21.167 -56 -27.5s-40.333 -9.5 -61 -9.5
s-41 3 -61 9s-38.667 15 -56 27c-36 25.333 -61.333 58.333 -76 99c-4.66699 12 -7.83398 24.167 -9.50098 36.5s-2.5 25.166 -2.5 38.499v121v154v36c0 35.333 8.66699 68.666 26 99.999c10 17.333 22.5 33.166 37.5 47.499s31.5 25.833 49.5 34.5c41.333 20 85 26 131 18
c21.333 -4 41.5 -11.333 60.5 -22s35.833 -24 50.5 -40c17.333 -19.333 30.666 -40.666 39.999 -63.999s14 -47.666 14 -72.999c0 -7.33301 -2.33301 -13.5 -7 -18.5s-10.667 -7.5 -18 -7.5s-13.333 2.5 -18 7.5s-7 11.167 -7 18.5c0 3.33301 -0.166992 6.5 -0.5 9.5
s-0.833008 6.16699 -1.5 9.5l-4 20c-1.33301 6.66699 -3.33301 13 -6 19l-15 27c-1.33301 1.33301 -2.33301 2.66602 -3 3.99902l-2 4h-1c0 1.33301 -0.666992 2 -2 2c-1.33301 2.66699 -3 5 -5 7l-6 6c-3.33301 3.33301 -7.66602 7 -12.999 11l-2 2h-1
c-2.66699 2.66699 -4.66699 4.33398 -6 5.00098l-13 7.5c-4 2.33301 -8.33301 4.5 -13 6.5c-14 5.33301 -27.333 9 -40 11c-14 2 -27.667 2 -41 0c-7.33301 -1.33301 -14.166 -2.83301 -20.499 -4.5s-12.833 -3.83398 -19.5 -6.50098c-9.33301 -4 -18.333 -9 -27 -15
c-2.66699 -1.33301 -5 -3 -7 -5c-0.666992 0 -1.66699 -0.666992 -3 -2c-2.66699 -2 -6.66699 -5.66699 -12 -11c-2 -2 -4 -4.16699 -6 -6.5s-4 -4.5 -6 -6.5c0 -0.666992 -0.166992 -1 -0.5 -1s-0.5 -0.333008 -0.5 -1l-1 -1
c-0.666992 -1.33301 -1.33398 -2.33301 -2.00098 -3s-1.33398 -1.66699 -2.00098 -3c-6 -9.33301 -11 -18.333 -15 -27c-5.33301 -14.667 -9 -27.667 -11 -39c-0.666992 -6.66699 -1 -13 -1 -19v-19v-60v-162v-59v-19.5c0 -6.33301 0.333008 -12.5 1 -18.5
c1.33301 -7.33301 2.83301 -14.166 4.5 -20.499s3.83398 -12.833 6.50098 -19.5c4.66699 -10 9.66699 -18.667 15 -26c1.33301 -1.33301 2.16602 -2.66602 2.49902 -3.99902s1.16602 -2.66602 2.49902 -3.99902l2 -2c2 -2 3.83301 -4.16699 5.5 -6.5
s3.5 -4.16602 5.5 -5.49902c6 -6 10.333 -10 13 -12l2 -2h1c1.33301 -1.33301 2.33301 -2.16602 3 -2.49902s1.66699 -1.16602 3 -2.49902l27 -15c12 -4.66699 25.333 -8 40 -10c13.333 -2 27 -2 41 0c14.667 2 28 5.33301 40 10c4.66699 2.66699 9.16699 5 13.5 7
s8.5 4.66699 12.5 8c1.33301 1.33301 2.66602 2.16602 3.99902 2.49902s2.66602 1.16602 3.99902 2.49902c0 1.33301 0.666992 2 2 2c2 2 4.16699 4 6.5 6s4.16602 4 5.49902 6c5.33301 4 9.33301 8.33301 12 13l2 2c1.33301 1.33301 2.16602 2.5 2.49902 3.5
s1.16602 2.16699 2.49902 3.5c2.66699 4 5.16699 8.16699 7.5 12.5l7.5 13.5c4.66699 12 8 25.333 10 40c1.33301 6 2 12.167 2 18.5v19.5v100h-94c-7.33301 0 -13.333 2.5 -18 7.5s-7 11.167 -7 18.5c0 6.66699 2.33301 12.5 7 17.5s10.667 7.5 18 7.5h1h118v0z" />
    <glyph glyph-name="H" unicode="H" horiz-adv-x="499" 
d="M489 356v-1v-153v-126v-50c0 -7.33301 -2.33301 -13.333 -7 -18s-10.667 -7 -18 -7s-13.333 2.33301 -18 7s-7 10.667 -7 18v47v124v134h-113h-161h-65v-129v-126v-50c0 -7.33301 -2.33301 -13.333 -7 -18s-10.667 -7 -18 -7s-13.333 2.33301 -18 7s-7 10.667 -7 18v47
v124v162v163v125v51c0 6.66699 2.33301 12.5 7 17.5s10.667 7.5 18 7.5s13.333 -2.5 18 -7.5s7 -10.833 7 -17.5v-48v-124v-145h122h162h55v141v125v51c0 6.66699 2.33301 12.5 7 17.5s10.667 7.5 18 7.5s13.333 -2.5 18 -7.5s7 -10.833 7 -17.5v-48v-124v-162v-7v-1z" />
    <glyph glyph-name="I" unicode="I" horiz-adv-x="111" 
d="M76 724c6.66699 0 12.5 -2.5 17.5 -7.5s7.5 -10.833 7.5 -17.5v-50v-125v-162v-163v-125v-50c0 -6.66699 -2.5 -12.5 -7.5 -17.5s-10.833 -7.5 -17.5 -7.5c-7.33301 0 -13.5 2.5 -18.5 7.5s-7.5 10.833 -7.5 17.5v50v125v162v163v125v50c0 6.66699 2.5 12.5 7.5 17.5
s11.167 7.5 18.5 7.5z" />
    <glyph glyph-name="J" unicode="J" horiz-adv-x="449" 
d="M435 160c-4 -20 -10.9971 -39.167 -20.9971 -57.5s-22.333 -34.5 -37 -48.5c-15.333 -14.667 -32 -26.334 -50 -35.001c-20 -9.33301 -41.667 -15.666 -65 -18.999c-21.333 -2.66699 -43 -1.66699 -65 3s-42.333 12.667 -61 24s-35 25 -49 41
c-14.667 18 -26.334 38 -35.001 60c-2.66699 6.66699 -2 13.167 2 19.5s9.33301 10.166 16 11.499c6 2 12.333 1.33301 19 -2c4.66699 -3.33301 8.66699 -8.33301 12 -15v-2c4.66699 -10 9.66699 -18.667 15 -26c0.666992 -1.33301 1.33398 -2.5 2.00098 -3.5
s1.33398 -2.16699 2.00098 -3.5c1.33301 0 2 -0.666992 2 -2c2 -2 3.83301 -4 5.5 -6s3.5 -4 5.5 -6l6 -6c2 -2 4.33301 -3.66699 7 -5l2 -2c1.33301 -1.33301 2.5 -2.16602 3.5 -2.49902s2.16699 -1.16602 3.5 -2.49902c4 -2.66699 8 -5.16699 12 -7.5
s8.33301 -4.5 13 -6.5c6.66699 -2.66699 13.167 -4.83398 19.5 -6.50098s12.833 -3.16699 19.5 -4.5c12.667 -1.33301 25.667 -1.33301 39 0c7.33301 1.33301 14.166 2.83301 20.499 4.5s12.5 3.83398 18.5 6.50098c8 4 16.667 8.66699 26 14
c1.33301 1.33301 2.5 2.16602 3.5 2.49902s2.16699 1.16602 3.5 2.49902l2 2c2 1.33301 4 3 6 5l6 6c5.33301 5.33301 9 9.33301 11 12l2 2v1c1.33301 1.33301 2.16602 2.33301 2.49902 3s1.16602 1.66699 2.49902 3c5.33301 9.33301 10 18 14 26
c4.66699 10.667 8 23.334 10 38.001c1.33301 6 2 11.833 2 17.5v17.5v110v163v148v39h-25h-124c-7.33301 0 -13.333 2.5 -18 7.5s-7 11.167 -7 18.5c0 6.66699 2.33301 12.5 7 17.5s10.667 7.5 18 7.5h50h124c7.33301 0 13.333 -2.5 18 -7.5s7 -10.833 7 -17.5v-24v-122
v-166v-140c0 -14.667 0.166992 -29.167 0.5 -43.5s-0.833984 -28.833 -3.50098 -43.5z" />
    <glyph glyph-name="K" unicode="K" horiz-adv-x="559" 
d="M536 720c5.33301 -3.33301 9 -8.33203 11 -14.999s1.33301 -13 -2 -19c-6 -10.667 -13.333 -22.334 -22 -35.001l-75 -123l-42 -67.5l-41 -67.5l-15.5 -25.5l-15.5 -25.5l30.5 -49.5l31.5 -49.5l42.5 -69l43.5 -68l42 -69c4 -6 5 -12.5 3 -19.5s-6 -12.167 -12 -15.5
s-12.333 -4 -19 -2s-11.667 6 -15 12l-6 9l-32 51.5l-32 51.5l-43 68l-43 69l-17.5 27.5l-16.5 27.5h-104h-86v-117v-125v-50c0 -6.66699 -2.5 -12.5 -7.5 -17.5s-11.167 -7.5 -18.5 -7.5s-13.333 2.5 -18 7.5s-7 10.833 -7 17.5v50v125v162v163v125v50
c0 6.66699 2.33301 12.5 7 17.5s10.667 7.5 18 7.5s13.5 -2.5 18.5 -7.5s7.5 -10.833 7.5 -17.5v-50v-125v-157h94h94l7.5 11.5l7.5 11.5l75 123l42 67.5l41 67.5l39 63c3.33301 6 8.5 10 15.5 12s13.5 1 19.5 -3z" />
    <glyph glyph-name="L" unicode="L" horiz-adv-x="395" 
d="M360 51c7.33301 0 13.333 -2.5 18 -7.5s7 -10.833 7 -17.5c0 -7.33301 -2.33301 -13.5 -7 -18.5s-10.667 -7.5 -18 -7.5h-33h-154h-98c-7.33301 0 -13.333 2.5 -18 7.5s-7 11.167 -7 18.5v49v124v162v162v124v50c0 7.33301 2.33301 13.333 7 18s10.667 7 18 7
s13.333 -2.33301 18 -7s7 -10.667 7 -18v-49v-124v-162v-162v-124v-25h9h154h97v0z" />
    <glyph glyph-name="M" unicode="M" horiz-adv-x="683" 
d="M654 722c12.667 -3.33301 19 -11.334 19 -24.001v-672c0 -7.33301 -2.5 -13.5 -7.5 -18.5s-10.833 -7.5 -17.5 -7.5c-7.33301 0 -13.5 2.5 -18.5 7.5s-7.5 11.167 -7.5 18.5v588c-2 -2.66699 -9 -13.167 -21 -31.5l-43.5 -66l-55 -83l-55 -83l-43.5 -66
c-12 -18.333 -19 -28.833 -21 -31.5c-5.33301 -8.66699 -12.5 -13 -21.5 -13s-16.167 4.33301 -21.5 13c-0.666992 1.33301 -6.66699 10.333 -18 27l-41.5 62l-53.5 81l-55.5 83.5l-46 69c-13 19.667 -21.167 32.5 -24.5 38.5v-588c0 -7.33301 -2.5 -13.5 -7.5 -18.5
s-10.833 -7.5 -17.5 -7.5c-7.33301 0 -13.5 2.5 -18.5 7.5s-7.5 11.167 -7.5 18.5v672c0 12.667 6.33301 20.667 19 24c11.333 3.33301 21 -0.666992 29 -12c0.666992 -1.33301 4.66699 -7.5 12 -18.5l27.5 -41.5l36.5 -55l38.5 -58.5l33.5 -51.5
c10 -15.333 17.667 -26.666 23 -33.999l25.5 -38l30 -45l25 -38.5c7 -11 11.167 -17.167 12.5 -18.5c3.33301 4.66699 11.833 17.5 25.5 38.5l49 74.5l60.5 91.5l59.5 90.5l47 71c13 19.333 20.5 30.333 22.5 33c6.66699 11.333 16 15.333 28 12z" />
    <glyph glyph-name="N" unicode="N" horiz-adv-x="609" 
d="M573 723c7.33301 0 13.5 -2.50098 18.5 -7.50098s7.5 -10.833 7.5 -17.5v-50v-124v-162v-162v-125v-49c0 -13.333 -6.33301 -21.666 -19 -24.999c-6 -1.33301 -11.333 -0.833008 -16 1.5s-8.66699 5.83301 -12 10.5c-1.33301 1.33301 -2.33301 2.5 -3 3.5
s-1.66699 2.16699 -3 3.5l-22 30l-22 30l-39 52l-38 52l-48 64l-47 64l-49.5 67.5l-49.5 66.5l-45 60l-44 60c-7.33301 9.33301 -14.166 18.5 -20.499 27.5s-13.166 18.167 -20.499 27.5v-97v-162v-162v-124v-50c0 -7.33301 -2.5 -13.5 -7.5 -18.5s-10.833 -7.5 -17.5 -7.5
c-7.33301 0 -13.5 2.5 -18.5 7.5s-7.5 11.167 -7.5 18.5v49v124v162v162v125v50c0 12.667 6.33301 20.667 19 24c12 3.33301 21.333 -0.666992 28 -12c2.66699 -2.66699 4.66699 -5 6 -7l22 -30l22 -30l38.5 -52l38.5 -52l48 -64l47 -64l49.5 -67l49.5 -67l44.5 -60
l44.5 -60c7.33301 -9.33301 14.166 -18.5 20.499 -27.5s13.166 -18.167 20.499 -27.5v97v162v162v125v50c0 6.66699 2.5 12.5 7.5 17.5s10.833 7.5 17.5 7.5z" />
    <glyph glyph-name="O" unicode="O" horiz-adv-x="446" 
d="M436 281l-0.000976562 -87.001c-0.666992 -34.667 -9.66699 -67 -27 -97s-41 -53.667 -71 -71c-19.333 -11.333 -39.833 -18.666 -61.5 -21.999s-43.167 -3.33301 -64.5 0c-20 3.33301 -39.333 9.66602 -58 18.999s-35 21.333 -49 36c-14 14 -25.667 30.333 -35 49
c-9.33301 20 -15.666 41.667 -18.999 65c-0.666992 6 -1 12.167 -1 18.5v19.5v136v150v33c0 36 9.33301 69 28 99c22 36.667 53.333 63.334 94 80.001c19.333 8 39.833 12.5 61.5 13.5s42.5 -1.5 62.5 -7.5c40.667 -12 74.667 -35.667 102 -71
c12 -16 21.333 -33.833 28 -53.5s10 -39.5 10 -59.5v-89v-161zM383.999 174.999c0.666992 3.33301 1.00586 6.50586 1.00586 9.50586v9.5v1v102v161v56v18c0 6 -0.333008 11.667 -1 17c-2 14 -5.33301 26.333 -10 37l-6 12.5c-2 4.33301 -4.66699 8.16602 -8 11.499
c-0.666992 1.33301 -1.33398 2.5 -2.00098 3.5s-1.33398 2.16699 -2.00098 3.5l-2 2c-2 2 -3.83301 4 -5.5 6s-3.5 4 -5.5 6c-1.33301 2 -3.16602 3.83301 -5.49902 5.5s-4.5 3.5 -6.5 5.5l-2 1c-1.33301 1.33301 -2.33301 2.16602 -3 2.49902s-1.66699 1.16602 -3 2.49902
c-4 2.66699 -8 5 -12 7l-12 6c-10.667 4.66699 -23 8 -37 10c-13.333 2 -26 2 -38 0c-14 -2 -26.333 -5.33301 -37 -10l-12.5 -6c-4.33301 -2 -8.16602 -4.33301 -11.499 -7c-1.33301 -1.33301 -2.5 -2.16602 -3.5 -2.49902s-2.16699 -1.16602 -3.5 -2.49902l-2 -2
c-2 -1.33301 -4 -3 -6 -5s-4 -3.66699 -6 -5c-2 -2 -3.83301 -4 -5.5 -6s-3.5 -4 -5.5 -6c0 -0.666992 -0.333008 -1.33398 -1 -2.00098s-2.33398 -3 -5.00098 -7c-5.33301 -8 -9.66602 -16 -12.999 -24c-5.33301 -12.667 -9 -25 -11 -37
c0 -3.33301 -0.166992 -6.5 -0.5 -9.5s-0.5 -6.16699 -0.5 -9.5v-101v-162v-56v-18.5c0 -6.33301 0.666992 -12.5 2 -18.5c2 -13.333 5.33301 -25.333 10 -36c1.33301 -4.66699 3.16602 -9 5.49902 -13s4.83301 -8 7.5 -12c1.33301 -1.33301 2.16602 -2.33301 2.49902 -3
s1.16602 -1.66699 2.49902 -3c0.666992 -0.666992 1 -1.16699 1 -1.5s0.333008 -0.833008 1 -1.5c2 -2.66699 5.33301 -6.33398 10 -11.001c5.33301 -5.33301 9.33301 -9 12 -11c0.666992 0 1 -0.166992 1 -0.5s0.333008 -0.5 1 -0.5v-1
c1.33301 -0.666992 2.5 -1.33398 3.5 -2.00098s2.16699 -1.33398 3.5 -2.00098c8 -5.33301 16 -9.66602 24 -12.999c13.333 -5.33301 25.666 -9 36.999 -11c12 -1.33301 24.667 -1.33301 38 0c11.333 2 23.666 5.66699 36.999 11c4 1.33301 8 3.16602 12 5.49902
s8 4.83301 12 7.5c1.33301 1.33301 2.5 2.16602 3.5 2.49902s2.16699 1.16602 3.5 2.49902l2 2c5.33301 4 9.33301 7.33301 12 10c1.33301 2 3 4 5 6l6 6c0 0.666992 0.333008 1.33398 1 2.00098c1.33301 1.33301 2.66602 3.33301 3.99902 6c3.33301 4 6 8 8 12
s4 8.33301 6 13c4.66699 10.667 8 23 10 37z" />
    <glyph glyph-name="P" unicode="P" horiz-adv-x="486" 
d="M424 635c12.667 -16.667 23.1719 -34.1689 31.5049 -52.502s14.166 -37.833 17.499 -58.5c3.33301 -21.333 3.83301 -42.5 1.5 -63.5s-7.5 -41.5 -15.5 -61.5c-7.33301 -18.667 -17 -36.167 -29 -52.5s-26 -30.833 -42 -43.5c-16 -13.333 -33.333 -24.166 -52 -32.499
s-38.334 -14.166 -59.001 -17.499c-10.667 -1.33301 -21.334 -2.16602 -32.001 -2.49902s-21.334 -0.5 -32.001 -0.5h-112v-50v-125v-50c0 -6.66699 -2.5 -12.5 -7.5 -17.5s-10.833 -7.5 -17.5 -7.5c-7.33301 0 -13.5 2.5 -18.5 7.5s-7.5 10.833 -7.5 17.5v51v124v162v162
v125v49c0 7.33301 2.5 13.5 7.5 18.5s11.167 7.5 18.5 7.5h98h61c16 0 31.667 -1.33301 47 -4s30.333 -7.33398 45 -14.001c19.333 -7.33301 37.166 -17 53.499 -29s30.833 -26 43.5 -42zM424.005 461.998c2 16 2 32.667 0 50c-1.33301 8 -3 16 -5 24s-4.66699 15.667 -8 23
c-5.33301 12 -11.666 23.333 -18.999 34c-0.666992 1.33301 -2.33398 4 -5.00098 8l-3 3c-2 2.66699 -4.16699 5.16699 -6.5 7.5l-7.5 7.5c-2 2.66699 -4.16699 5 -6.5 7s-4.83301 4 -7.5 6l-3 3h-1c-1.33301 1.33301 -2.66602 2.33301 -3.99902 3
s-2.66602 1.66699 -3.99902 3c-10 6.66699 -21 12.667 -33 18c-7.33301 3.33301 -15 6 -23 8s-16 3.66699 -24 5c-10.667 1.33301 -21.167 1.83301 -31.5 1.5s-20.833 -0.5 -31.5 -0.5h-100v-25v-125v-162v-61h29h80h27c8.66699 0 17.667 0.666992 27 2
c16.667 2 32.334 6 47.001 12c12.667 6.66699 24 13 34 19c1.33301 1.33301 2.66602 2.33301 3.99902 3s2.66602 1.66699 3.99902 3s2.66602 2.33301 3.99902 3c2.66699 2 5.16699 4 7.5 6s4.5 4.33301 6.5 7c2.66699 2.66699 5 5.16699 7 7.5s4.33301 4.83301 7 7.5
c0 0.666992 0.666992 1.66699 2 3l6 9c6.66699 9.33301 12.667 20 18 32c6 15.333 10.333 31.333 13 48z" />
    <glyph glyph-name="Q" unicode="Q" horiz-adv-x="517" 
d="M483 0c6.66699 0 12.3369 -2.33398 17.0039 -7.00098s6.66699 -10.334 6 -17.001c0 -23.333 -6.83301 -44.333 -20.5 -63s-31.5 -31.667 -53.5 -39c-20.667 -6.66699 -40.334 -7 -59.001 -1c-16.667 4.66699 -31.667 13.334 -45 26.001c-6 4.66699 -11.667 9.5 -17 14.5
l-16 15.5c-1.33301 1.33301 -2.66602 2.5 -3.99902 3.5s-2.66602 2.16699 -3.99902 3.5c-0.666992 0 -1 0.333008 -1 1c-0.666992 0.666992 -1.33398 1 -2.00098 1s-1.33398 0.333008 -2.00098 1c-5.33301 4 -10.333 7 -15 9c-3.33301 1.33301 -8.33301 2.66602 -15 3.99902
c-4.66699 0.666992 -10 0.666992 -16 0c-5.33301 -1.33301 -10 -2.66602 -14 -3.99902c-3.33301 -0.666992 -6.66602 -2.66699 -9.99902 -6h-1l-1 -1c-2 -2 -3.66699 -3.33301 -5 -4c-4 -5.33301 -9.33301 -7.83301 -16 -7.5s-12.334 2.83301 -17.001 7.5s-7 10.167 -7 16.5
s2.33301 11.833 7 16.5c10 10.667 22.333 18.667 37 24c4 1.33301 6.66699 2 8 2c-27.333 4 -51.333 12.667 -72 26c-34 20 -59.333 47.333 -76 82c-12.667 26 -19 54.667 -19 86v95v152v94c0 34.667 8.66699 67 26 97s41 53.667 71 71c35.333 20.667 73 29 113 25
c21.333 -2 42 -7 62 -15c16.667 -8 32.667 -18 48 -30c29.333 -25.333 49.666 -57 60.999 -95c4.66699 -18 7 -37.667 7 -59v-109v-151v-76c0 -28.667 -6.16699 -56.334 -18.5 -83.001s-29.833 -49 -52.5 -67c-8 -6.66699 -16.333 -12.667 -25 -18s-18 -9.66602 -28 -12.999
c-14 -6 -28.333 -10 -43 -12h2c9.33301 -2.66699 17.666 -6.33398 24.999 -11.001s14.666 -10 21.999 -16l16.5 -14c5.66699 -4.66699 11.167 -9.66699 16.5 -15l4 -4l4 -4c1.33301 0 2 -0.666992 2 -2c0.666992 0 1.33398 -0.333008 2.00098 -1
c2.66699 -1.33301 5.16699 -2.83301 7.5 -4.5s5.16602 -3.16699 8.49902 -4.5c2.66699 -1.33301 6.66699 -2.66602 12 -3.99902c6.66699 0 11.667 0.333008 15 1c6.66699 1.33301 11.667 2.66602 15 3.99902c5.33301 2.66699 9 4.66699 11 6l2 2h1
c1.33301 0.666992 2.16602 1.33398 2.49902 2.00098s1.16602 1.66699 2.49902 3l5 5c0 0.666992 0.666992 1.66699 2 3c1.33301 2 3.33301 5.66699 6 11c0.666992 2 1.33398 4.33301 2.00098 7l2 8v8c0 6.66699 2.33301 12.334 7 17.001s10.334 7 17.001 7zM155.003 71.999
c2.66699 -2.66699 4.66309 -4.32617 5.99609 -4.99316c8 -5.33301 16.333 -10 25 -14c10.667 -4.66699 23.334 -8 38.001 -10c13.333 -2 26.666 -2 39.999 0c14 2 26.333 5.33301 37 10c8 4 16.667 8.66699 26 14c1.33301 1.33301 2.5 2.16602 3.5 2.49902
s2.16699 1.16602 3.5 2.49902l2 2c2 2 4 3.83301 6 5.5s4 3.5 6 5.5s3.83301 4 5.5 6s3.5 4 5.5 6l2 2c2.66699 4 4.33398 6.33301 5.00098 7c4.66699 6.66699 9 15 13 25c5.33301 13.333 9 26 11 38c0 3.33301 0.166992 6.66602 0.5 9.99902s0.5 6.66602 0.5 9.99902v12
v119v149v49v16.5c0 5.66699 -0.333008 11.167 -1 16.5c-2 11.333 -5.66699 23.666 -11 36.999l-6 13.5c-2 4.33301 -4.66699 8.5 -8 12.5c-1.33301 2.66699 -3 5 -5 7c0 0.666992 -0.666992 1.66699 -2 3l-5 5c-2 2 -3.66699 4 -5 6c-2 2 -4 3.83301 -6 5.5
s-4.33301 3.5 -7 5.5l-1 2h-1c-1.33301 1.33301 -2.5 2.16602 -3.5 2.49902s-2.16699 1.16602 -3.5 2.49902c-6.66699 4.66699 -15 9 -25 13c-13.333 5.33301 -25.666 9 -36.999 11c-13.333 1.33301 -26.666 1.33301 -39.999 0c-12 -2 -24.667 -5.66699 -38 -11
c-4.66699 -2 -9 -4 -13 -6s-8 -4.66699 -12 -8c-2.66699 -1.33301 -5 -3 -7 -5c-0.666992 0 -1.66699 -0.666992 -3 -2s-3 -2.83301 -5 -4.5s-4 -3.5 -6 -5.5l-6 -6c-2 -2 -3.66699 -4 -5 -6l-2 -2v-1c-0.666992 -0.666992 -2.33398 -3 -5.00098 -7s-5.16699 -8 -7.5 -12
s-4.5 -8.33301 -6.5 -13c-2 -6 -3.83301 -12 -5.5 -18s-3.16699 -12.333 -4.5 -19c-0.666992 -5.33301 -1 -10.5 -1 -15.5v-15.5v-119v-149v-49v-17.5c0 -5.66699 0.333008 -11.167 1 -16.5c1.33301 -6.66699 2.83301 -13.167 4.5 -19.5s3.5 -12.5 5.5 -18.5
c4.66699 -10 9.66699 -18.667 15 -26c0.666992 -1.33301 1.33398 -2.33301 2.00098 -3s1.33398 -1.66699 2.00098 -3l3 -3c4 -5.33301 7.33301 -9 10 -11c5.33301 -5.33301 9.33301 -9 12 -11l2 -2h1zM210.999 -57.9932c-1.33301 -1.33301 -1.83301 -1.83301 -1.5 -1.5z" />
    <glyph glyph-name="R" unicode="R" horiz-adv-x="501" 
d="M463 367c-9.33301 -18 -20.666 -34.667 -33.999 -50s-28.333 -28.666 -45 -39.999c-2 -1.33301 -4.16699 -2.66602 -6.5 -3.99902s-4.5 -2.66602 -6.5 -3.99902v-2l31 -69l30 -69l20 -46l20 -46c3.33301 -6 4 -12.333 2 -19c-1.33301 -6 -5 -11 -11 -15
c-4.66699 -3.33301 -11.334 -4.33301 -20.001 -3c-2.66699 1.33301 -5.5 2.83301 -8.5 4.5s-5.16699 4.16699 -6.5 7.5c-1.33301 4 -3 8 -5 12s-3.66699 8 -5 12l-30 69l-31 69l-16 37l-16 37c-18 -6 -36.667 -10 -56 -12c-9.33301 -1.33301 -18.333 -1.83301 -27 -1.5
s-17.667 0.5 -27 0.5h-114v-142v-69c0 -7.33301 -2.5 -13.333 -7.5 -18s-10.833 -7 -17.5 -7c-7.33301 0 -13.5 2.33301 -18.5 7s-7.5 10.667 -7.5 18v70v153v157v78c0 17.333 0.166992 34.333 0.5 51s0.5 33.667 0.5 51c0 19.333 0.166992 38.333 0.5 57s0.5 37.667 0.5 57
c0 7.33301 2.33301 13.333 7 18s10.667 7 18 7h128c7.33301 0 14.833 0.166992 22.5 0.5s15.167 0.166016 22.5 -0.500977c20.667 0 41.167 -2.83301 61.5 -8.5s39.5 -13.834 57.5 -24.501c36 -20.667 64.667 -48.334 86 -83.001c10.667 -18 19 -37 25 -57
s9.33301 -40.333 10 -61c2 -43.333 -7 -84 -27 -122zM368 328c3.33301 2.66699 6.16602 5.16602 8.49902 7.49902s4.83301 4.5 7.5 6.5c2.66699 2.66699 5 5.33398 7 8.00098s4.33301 5.33398 7 8.00098c0 0.666992 0.666992 1.66699 2 3l1 2c1.33301 1.33301 3.33301 4 6 8
c6.66699 10 12.667 21 18 33c3.33301 8 6 16 8 24s3.66699 16.333 5 25c2 17.333 2 34.666 0 51.999c-1.33301 8.66699 -3 17 -5 25s-4.66699 16 -8 24c-2.66699 6 -5.5 11.833 -8.5 17.5s-6.5 11.167 -10.5 16.5c-2 4 -4 7 -6 9v1l-3 3
c-2 2.66699 -4.16699 5.33398 -6.5 8.00098s-4.83301 5 -7.5 7l-7.5 7.5c-2.33301 2.33301 -5.16602 4.83301 -8.49902 7.5l-2 2c-0.666992 0 -1.33398 0.333008 -2.00098 1c-4 2.66699 -6.66699 4.66699 -8 6c-11.333 7.33301 -22.666 13.333 -33.999 18
c-16.667 6.66699 -32.667 11 -48 13c-12 1.33301 -24 2 -36 2h-35h-100v-90c-0.666992 -17.333 -1 -34.333 -1 -51v-50v-79v-118h38h80h27c8.66699 0 17.667 0.666992 27 2c15.333 2 31.333 6.33301 48 13c6 2.66699 12 5.66699 18 9s11.667 6.66602 17 9.99902l9 6v1
c0.666992 0 1.66699 0.666992 3 2z" />
    <glyph glyph-name="S" unicode="S" horiz-adv-x="449" 
d="M428 257c7.33301 -20 11.0039 -40.3408 11.0039 -61.0078s-2.66699 -40.667 -8 -60s-14 -37.666 -26 -54.999c-12.667 -17.333 -27.334 -32.333 -44.001 -45s-35.334 -22.334 -56.001 -29.001c-19.333 -6 -39 -9 -59 -9c-10.667 0 -21 0.333008 -31 1
s-20 2.33398 -30 5.00098c-23.333 5.33301 -45.166 13.833 -65.499 25.5s-38.5 26.167 -54.5 43.5c-4.66699 5.33301 -7.16699 11.333 -7.5 18s2.16699 12.667 7.5 18c5.33301 4.66699 11.5 7.16699 18.5 7.5s12.833 -2.16699 17.5 -7.5c4.66699 -6 10 -11.333 16 -16
c1.33301 -1.33301 2.66602 -2.5 3.99902 -3.5s2.66602 -2.16699 3.99902 -3.5c1.33301 -0.666992 2.16602 -1.16699 2.49902 -1.5s1.16602 -0.833008 2.49902 -1.5c12 -8.66699 24 -15.334 36 -20.001c14 -5.33301 29.333 -9.66602 46 -12.999c17.333 -2 35 -2 53 0l19.5 4
c6.33301 1.33301 12.166 3.33301 17.499 6l13.5 6c4.33301 2 8.16602 4.66699 11.499 8c2.66699 1.33301 4.66699 2.66602 6 3.99902c0.666992 0 1.66699 0.666992 3 2c2.66699 2 6.33398 5.33301 11.001 10c5.33301 5.33301 9 9.33301 11 12c0 0.666992 0.166992 1 0.5 1
s0.5 0.333008 0.5 1h1c0.666992 1.33301 1.33398 2.5 2.00098 3.5s1.33398 2.16699 2.00098 3.5c4 6 8.33301 14 13 24c2.66699 5.33301 4.66699 11.166 6 17.499l4 18.5c2 13.333 2 27 0 41l-4 18.5c-1.33301 6.33301 -3.33301 12.5 -6 18.5l-6 12.5
c-2 4.33301 -4.66699 8.5 -8 12.5c-1.33301 2.66699 -2.66602 4.66699 -3.99902 6l-2 2c-2 2.66699 -5.33301 6.33398 -10 11.001l-6 6c-2 2 -4 3.66699 -6 5l-2 2c-1.33301 0.666992 -2.33301 1.33398 -3 2.00098s-1.66699 1.33398 -3 2.00098
c-4 2.66699 -8 5.16699 -12 7.5s-8.33301 4.16602 -13 5.49902c-5.33301 2.66699 -11.166 4.66699 -17.499 6l-18.5 4c-4 0.666992 -8 1 -12 1s-8 0.333008 -12 1c-14.667 0 -27.334 1.33301 -38.001 4c-22 4 -43 12.333 -63 25c-36.667 23.333 -62.667 55.666 -78 96.999
c-7.33301 18.667 -11.5 38.334 -12.5 59.001s1.16699 40.667 6.5 60s13.666 37.833 24.999 55.5s25 32.834 41 45.501c19.333 14 38.666 24.667 57.999 32c19.333 6.66699 40 10 62 10h4c32 -1.33301 62.5 -8.33301 91.5 -21s54.167 -30.667 75.5 -54
c4.66699 -5.33301 7.16699 -11.333 7.5 -18s-2.16699 -12.667 -7.5 -18c-5.33301 -4.66699 -11.5 -7.16699 -18.5 -7.5s-12.833 2.16699 -17.5 7.5c-2.66699 2.66699 -5.16699 5.33398 -7.5 8.00098s-5.16602 5 -8.49902 7l-4 4l-4 4
c-1.33301 0.666992 -2.16602 1.16699 -2.49902 1.5s-1.16602 0.833008 -2.49902 1.5c-12 8.66699 -24 15.334 -36 20.001c-7.33301 3.33301 -14.833 6 -22.5 8s-15.5 3.66699 -23.5 5c-4 0.666992 -8 1 -12 1h-12h-3c-7.33301 0 -12.666 -0.333008 -15.999 -1
c-14 -2 -26 -5.33301 -36 -10l-13.5 -6c-4.33301 -2 -8.16602 -4.66699 -11.499 -8c-2.66699 -1.33301 -4.66699 -2.66602 -6 -3.99902c-0.666992 0 -1.66699 -0.666992 -3 -2c-2.66699 -2 -6.33398 -5.33301 -11.001 -10l-6 -6c-2 -2 -3.66699 -4 -5 -6
c0 -0.666992 -0.166992 -1 -0.5 -1s-0.5 -0.333008 -0.5 -1h-1c-0.666992 -1.33301 -1.33398 -2.33301 -2.00098 -3s-1.33398 -1.66699 -2.00098 -3c-4.66699 -6.66699 -9 -15 -13 -25c-2.66699 -5.33301 -4.66699 -11.166 -6 -17.499l-4 -18.5c-2 -14 -2 -28 0 -42
s5.33301 -26.333 10 -37c2 -4.66699 4 -9 6 -13s4.66699 -8 8 -12c1.33301 -2.66699 2.66602 -4.66699 3.99902 -6l2 -2c1.33301 -2 2.83301 -4 4.5 -6s3.5 -4 5.5 -6c2.66699 -2 6.66699 -5.66699 12 -11c0.666992 0 1 -0.166992 1 -0.5s0.333008 -0.5 1 -0.5
c1.33301 -1.33301 2.33301 -2.16602 3 -2.49902s1.66699 -1.16602 3 -2.49902c6.66699 -4.66699 15 -9 25 -13c10 -4.66699 22 -8 36 -10c5.33301 -0.666992 10.166 -1 14.499 -1h14.5l21 -2c6.66699 -0.666992 13.334 -2 20.001 -4
c19.333 -5.33301 37.833 -13.333 55.5 -24s32.834 -24 45.501 -40c7.33301 -9.33301 13.666 -18.5 18.999 -27.5s10 -19.167 14 -30.5z" />
    <glyph glyph-name="T" unicode="T" horiz-adv-x="560" 
d="M525 723c7.33301 0 13.333 -2.33301 18 -7s7 -10.667 7 -18s-2.33301 -13.333 -7 -18s-10.667 -7 -18 -7h-113h-87v-25v-124v-162v-163v-124v-50c0 -7.33301 -2.33301 -13.5 -7 -18.5s-10.667 -7.5 -18 -7.5s-13.333 2.5 -18 7.5s-7 11.167 -7 18.5v49v125v162v162v125
v25h-88h-112c-7.33301 0 -13.333 2.33301 -18 7s-7 10.667 -7 18s2.33301 13.333 7 18s10.667 7 18 7h113h112h1h112h112v0z" />
    <glyph glyph-name="U" unicode="U" horiz-adv-x="474" 
d="M463 244c0 -14 0.166016 -28.1689 0.499023 -42.502s-0.833984 -28.5 -3.50098 -42.5c-3.33301 -20 -9.83301 -39.167 -19.5 -57.5s-22.167 -34.5 -37.5 -48.5c-14 -14 -30.333 -25.667 -49 -35c-21.333 -9.33301 -43 -15.333 -65 -18
c-7.33301 -1.33301 -14.166 -1.83301 -20.499 -1.5s-13.166 0.5 -20.499 0.5c-20 0 -38.333 2.33301 -55 7c-19.333 5.33301 -37.666 13.666 -54.999 24.999s-32.333 25 -45 41c-13.333 17.333 -23.833 36.166 -31.5 56.499s-11.5 41.5 -11.5 63.5v19v113v163v147v64
c0 7.33301 2.33301 13.333 7 18s10.667 7 18 7s13.333 -2.33301 18 -7s7 -10.667 7 -18v-24v-121v-165v-141v-42v-15c0 -4.66699 0.333008 -9.66699 1 -15c2 -12 5.66699 -24.667 11 -38c2 -4.66699 4 -9 6 -13s4.66699 -8 8 -12
c0.666992 -1.33301 1.33398 -2.5 2.00098 -3.5s1.33398 -2.16699 2.00098 -3.5h1c0 -1.33301 0.666992 -2 2 -2c4 -5.33301 7.33301 -9.33301 10 -12c2 -2 4 -3.83301 6 -5.5s4 -3.5 6 -5.5c0.666992 0 1 -0.166992 1 -0.5s0.333008 -0.5 1 -0.5
c1.33301 -1.33301 2.5 -2.16602 3.5 -2.49902s2.16699 -1.16602 3.5 -2.49902c3.33301 -2.66699 7.16602 -5.16699 11.499 -7.5l12.5 -6.5c6 -2 12.167 -3.83301 18.5 -5.5s12.833 -3.16699 19.5 -4.5c5.33301 -0.666992 10.5 -1 15.5 -1h15.5h15
c4.66699 0 9.66699 0.333008 15 1c6.66699 1.33301 13.167 2.83301 19.5 4.5s12.5 3.5 18.5 5.5c4.66699 2.66699 9 5 13 7s8 4.66699 12 8c1.33301 0.666992 2.5 1.33398 3.5 2.00098s2.16699 1.33398 3.5 2.00098c0.666992 0.666992 1 1.16699 1 1.5
s0.333008 0.833008 1 1.5c5.33301 4 9.33301 7.33301 12 10c2 2 3.83301 4 5.5 6s3.5 4 5.5 6c0 0.666992 0.166992 1 0.5 1s0.5 0.333008 0.5 1c1.33301 1.33301 2.16602 2.33301 2.49902 3s1.16602 1.66699 2.49902 3c2.66699 4 5 8.16699 7 12.5l6 12.5
c5.33301 12.667 9 25 11 37c0.666992 6 1 12 1 18v18v113v164v147v64c0 7.33301 2.33301 13.333 7 18s10.667 7 18 7s13.333 -2.33301 18 -7s7 -10.667 7 -18v-26v-122v-165v-141z" />
    <glyph glyph-name="V" unicode="V" 
d="M517 692c0 -1.33301 -0.170898 -2.16602 -0.503906 -2.49902s-0.5 -0.833008 -0.5 -1.5l-21 -69c-7.33301 -21.333 -14.166 -42.833 -20.499 -64.5s-13.166 -43.167 -20.499 -64.5l-24.5 -78.5l-24.5 -78.5l-48 -153l-18 -58l-18 -58
c-2 -7.33301 -4.16699 -14.833 -6.5 -22.5s-4.83301 -15.167 -7.5 -22.5c-3.33301 -12.667 -11.333 -19 -24 -19c-12 0 -20.333 6.33301 -25 19c0 1.33301 -0.333008 2.33301 -1 3l-10.5 34l-10.5 34l-39 129l-25 79l-24 79l-23 76.5l-24 76.5l-18 58
c-6 19.333 -11.667 38.666 -17 57.999c-2.66699 7.33301 -5.16699 14.833 -7.5 22.5l-7.5 23.5c-2 6.66699 -1.16699 13 2.5 19s8.83398 10 15.501 12c7.33301 2 13.833 1.16699 19.5 -2.5s9.5 -8.83398 11.5 -15.501c0.666992 -0.666992 1 -1.66699 1 -3l10.5 -34l10.5 -34
l20 -65.5l20 -64.5l24 -78.5l24 -78.5l24 -76.5l23 -76.5c4.66699 -14 9 -28 13 -42s8.33301 -27.667 13 -41l19.5 61.5l18.5 61.5l25 78.5l24 78.5l48 153l18 57.5l18 57.5l7.5 23.5c2.33301 7.66699 4.5 15.167 6.5 22.5c2 6.66699 6 11.834 12 15.501s12.333 4.5 19 2.5
s11.834 -6 15.501 -12s4.5 -12.333 2.5 -19z" />
    <glyph glyph-name="W" unicode="W" horiz-adv-x="946" 
d="M917 723c6.66699 -2 11.832 -5.99902 15.499 -11.999s4.16699 -12.333 1.5 -19c0 -2 -0.333008 -3.33301 -1 -4l-21 -69c-7.33301 -21.333 -14.166 -42.833 -20.499 -64.5s-13.166 -43.167 -20.499 -64.5l-24 -78.5l-25 -78.5l-23 -76.5l-24 -76.5l-18 -58l-18 -58
l-15 -45c-3.33301 -12.667 -11.333 -19 -24 -19s-20.667 6.33301 -24 19c-0.666992 0.666992 -1 1.66699 -1 3l-10.5 34l-10.5 34c-7.33301 21.333 -14.166 42.833 -20.499 64.5l-19.5 64.5l-24 79l-24 79l-24 76.5l-23 76.5l-13.5 41.5
c-4.33301 13.667 -8.5 27.5 -12.5 41.5l-39 -123l-24 -78.5l-25 -78.5l-23.5 -76.5l-23.5 -76.5l-18 -58l-18 -58l-15 -45c-3.33301 -12.667 -11.333 -19 -24 -19s-20.667 6.33301 -24 19c-0.666992 0.666992 -1 1.66699 -1 3l-10.5 34l-10.5 34
c-7.33301 21.333 -14.166 42.833 -20.499 64.5l-19.5 64.5l-24 79l-24 79l-48 153c-5.33301 19.333 -11 38.666 -17 57.999l-18 58c-2.66699 7.33301 -5.16699 14.833 -7.5 22.5s-4.5 15.5 -6.5 23.5c-2 6.66699 -1.33301 13 2 19s8.33301 10 15 12
c7.33301 2 13.833 1.16699 19.5 -2.5s9.83398 -8.83398 12.501 -15.501c0 -1.33301 0.333008 -2.33301 1 -3l10.5 -34l10.5 -34l19.5 -65.5l19.5 -64.5l24 -78.5l25 -78.5l23 -76.5l24 -76.5l12.5 -42l12.5 -41l39 123l24 78.5l25 78.5l23.5 76.5l23.5 76.5l18 57.5l18 57.5
l7.5 23.5c2.33301 7.66699 4.83301 15.167 7.5 22.5c1.33301 4 2.66602 7 3.99902 9h1c2.66699 4 6.66699 7 12 9c2 0 3.33301 0.333008 4 1h1h1h1h1h1c1.33301 0 2.16602 -0.166992 2.49902 -0.5s1.16602 -0.5 2.49902 -0.5c3.33301 -0.666992 6.66602 -2.66699 9.99902 -6
c3.33301 -2 6 -6 8 -12c0 -1.33301 0.333008 -2.33301 1 -3l10.5 -34l10.5 -34l19.5 -65.5l19.5 -64.5l24.5 -78.5l24.5 -78.5l23 -76.5l24 -76.5l12.5 -42l12.5 -41l39 123l24 78.5l25 78.5l23.5 76.5l23.5 76.5l18 57.5l18 57.5l7.5 23.5
c2.33301 7.66699 4.83301 15.167 7.5 22.5c2 6.66699 5.83301 11.834 11.5 15.501s12.167 4.5 19.5 2.5z" />
    <glyph glyph-name="X" unicode="X" horiz-adv-x="489" 
d="M328 420l-16.001 -28.499l-16 -28.5c1.33301 -1.33301 2 -2.33301 2 -3l63 -114l38 -70.5l39 -70.5l18.5 -34.5l19.5 -34.5c3.33301 -6 4.16602 -12.5 2.49902 -19.5s-5.83398 -12.167 -12.501 -15.5c-5.33301 -3.33301 -11.5 -4.16602 -18.5 -2.49902
s-12.167 5.5 -15.5 11.5l-15.5 28l-15.5 28l-75 138l-30 55l-30 55c-9.33301 -15.333 -18.166 -30.833 -26.499 -46.5l-25.5 -47.5l-39 -70l-39 -70l-19.5 -35.5l-19.5 -34.5c-3.33301 -6 -8.5 -9.83301 -15.5 -11.5s-13.167 -0.833984 -18.5 2.49902
c-6.66699 3.33301 -10.834 8.5 -12.501 15.5s-0.833984 13.5 2.49902 19.5c1.33301 2 2.66602 4.16699 3.99902 6.5s2.66602 4.5 3.99902 6.5l31 56l31 56l78 141l16 28l16 28c-1.33301 1.33301 -2 2.66602 -2 3.99902l-63 114l-38 70.5l-39 70.5l-18.5 34.5l-19.5 34.5
c-3.33301 6 -4.16602 12.333 -2.49902 19s5.83398 11.667 12.501 15c5.33301 3.33301 11.5 4.16602 18.5 2.49902s12.167 -5.5 15.5 -11.5l15.5 -28l15.5 -28l75 -138l30 -54.5l30 -54.5l26 46.5l26 46.5l78 141l39 69c3.33301 6 8.5 9.83301 15.5 11.5
s13.167 0.833984 18.5 -2.49902c6.66699 -3.33301 10.834 -8.33301 12.501 -15s0.833984 -13 -2.49902 -19c-1.33301 -2.66699 -2.66602 -5 -3.99902 -7s-2.66602 -4.33301 -3.99902 -7l-31 -55.5l-31 -55.5z" />
    <glyph glyph-name="Y" unicode="Y" horiz-adv-x="572" 
d="M549 720c6 -3.33301 9.83105 -8.33301 11.498 -15s0.833984 -13 -2.49902 -19c-0.666992 -0.666992 -1 -1.33398 -1 -2.00098s-0.333008 -1.33398 -1 -2.00098l-23 -40.5c-8 -13.667 -15.667 -27.5 -23 -41.5l-39 -69.5l-39 -69.5l-36.5 -66l-37.5 -66l-14 -25.5
l-14 -25.5v-6v-143v-104c0 -6.66699 -2.5 -12.5 -7.5 -17.5s-11.167 -7.5 -18.5 -7.5c-6.66699 0 -12.5 2.5 -17.5 7.5s-7.5 10.833 -7.5 17.5v13v142v96l-21.5 39.5l-21.5 39.5l-39 69.5l-38 69.5l-37 67l-36 66l-16.5 29.5l-16.5 29.5
c-3.33301 6 -4.16602 12.333 -2.49902 19s5.5 11.667 11.5 15s12.5 4.16602 19.5 2.49902s12.167 -5.5 15.5 -11.5c0.666992 -0.666992 1 -1.16699 1 -1.5s0.333008 -0.833008 1 -1.5l22 -40.5l22 -40.5l39 -69.5l38 -69.5l37 -67l36 -66
c2 -3.33301 3.83301 -6.66602 5.5 -9.99902s3.5 -6.66602 5.5 -9.99902c4.66699 8 9 15.833 13 23.5s8.33301 15.167 13 22.5l39 70l39 70l36.5 66l37.5 66l16 29l16 29c3.33301 6 8.5 9.83301 15.5 11.5s13.5 0.833984 19.5 -2.49902z" />
    <glyph glyph-name="Z" unicode="Z" horiz-adv-x="453" 
d="M418 51c7.33301 0 13.333 -2.49902 18 -7.49902s7 -11.167 7 -18.5c0 -6.66699 -2.33301 -12.5 -7 -17.5s-10.667 -7.5 -18 -7.5h-1h-93h-162h-86c-10.667 0 -18 4.33301 -22 13c-4.66699 7.33301 -4.66699 15.666 0 24.999c3.33301 7.33301 7 14.666 11 21.999l22.5 44
l22.5 44l33.5 66l33.5 66l37.5 74.5l37.5 74.5l35.5 69.5l35.5 69.5l26 51.5l26 51.5c0 0.666992 0.166992 1 0.5 1s0.5 0.333008 0.5 1h-51h-162h-87c-7.33301 0 -13.333 2.5 -18 7.5s-7 10.833 -7 17.5c0 7.33301 2.33301 13.5 7 18.5s10.667 7.5 18 7.5h93h162h86
c10 0 17.333 -4.33301 22 -13c4.66699 -7.33301 4.66699 -15.666 0 -24.999c-2 -4 -3.83301 -7.83301 -5.5 -11.5s-3.5 -7.16699 -5.5 -10.5c-7.33301 -15.333 -14.833 -30.166 -22.5 -44.499l-22.5 -43.5l-33.5 -66l-33.5 -66l-37.5 -74.5l-37.5 -74.5l-35.5 -69.5
l-35.5 -69.5l-26 -51.5l-26 -51.5c-0.666992 -0.666992 -1 -1.33398 -1 -2.00098h52h163h86v0z" />
    <glyph glyph-name="bracketleft" unicode="[" horiz-adv-x="273" 
d="M101 76v-25h11h125c7.33301 0 13.5 -2.33301 18.5 -7s7.5 -10.667 7.5 -18s-2.5 -13.333 -7.5 -18s-11.167 -7 -18.5 -7h-36h-125c-7.33301 0 -13.5 2.33301 -18.5 7s-7.5 10.667 -7.5 18v50v125v163v162v125v50c0 6.66699 2.5 12.5 7.5 17.5s11.167 7.5 18.5 7.5h36h125
c7.33301 0 13.5 -2.5 18.5 -7.5s7.5 -10.833 7.5 -17.5c0 -7.33301 -2.5 -13.5 -7.5 -18.5s-11.167 -7.5 -18.5 -7.5h-36h-100v-25v-125v-162v-162v-125z" />
    <glyph glyph-name="backslash" unicode="\" horiz-adv-x="368" 
d="M70 723c6.66699 2 13.002 1.00098 19.002 -2.99902c4.66699 -2.66699 8.66699 -7.66699 12 -15l8 -22c2.66699 -7.33301 5.66699 -14.666 9 -21.999l21 -55.5l21 -56.5l28.5 -74l28.5 -74l30 -77.5l29 -77.5l25 -64.5l25 -64.5l13.5 -36
c4.33301 -12 9.16602 -24.333 14.499 -37c0.666992 -1.33301 1 -2.33301 1 -3s0.333008 -1.66699 1 -3c2.66699 -6.66699 2 -13.167 -2 -19.5s-9 -10.166 -15 -11.499c-6.66699 -2 -13.334 -1.33301 -20.001 2c-5.33301 3.33301 -9 8.66602 -11 15.999
c-3.33301 7.33301 -6.33301 14.666 -9 21.999l-8 22l-21.5 55.5l-21.5 56.5l-28.5 74l-28.5 74l-29.5 77.5l-29.5 77.5l-25 64.5l-25 64.5l-27 72c-0.666992 2 -1.66699 4.33301 -3 7c-2.66699 6.66699 -2 13.167 2 19.5s9.33301 10.166 16 11.499z" />
    <glyph glyph-name="bracketright" unicode="]" horiz-adv-x="273" 
d="M212 201v162v162v125v25h-100h-36c-7.33301 0 -13.5 2.5 -18.5 7.5s-7.5 11.167 -7.5 18.5c0 6.66699 2.5 12.5 7.5 17.5s11.167 7.5 18.5 7.5h125h36c7.33301 0 13.5 -2.5 18.5 -7.5s7.5 -10.833 7.5 -17.5v-50v-125v-162v-163v-125v-50
c0 -7.33301 -2.5 -13.333 -7.5 -18s-11.167 -7 -18.5 -7h-125h-36c-7.33301 0 -13.5 2.33301 -18.5 7s-7.5 10.667 -7.5 18s2.5 13.333 7.5 18s11.167 7 18.5 7h125h11v25v125z" />
    <glyph glyph-name="underscore" unicode="_" horiz-adv-x="638" 
d="M602 50c7.33301 0 13.5 -2.5 18.5 -7.5s7.5 -10.833 7.5 -17.5c0 -7.33301 -2.5 -13.333 -7.5 -18s-11.167 -7 -18.5 -7h-279h-162h-86c-7.33301 -0 -13.333 2.33301 -18 7s-7 10.667 -7 18c0 6.66699 2.33301 12.5 7 17.5s10.667 7.5 18 7.5h94h161h272v0z" />
    <glyph glyph-name="a" unicode="a" horiz-adv-x="579" 
d="M568 32c1.33301 -6 0.501953 -11.834 -2.49805 -17.501s-7.83301 -9.5 -14.5 -11.5c-6 -1.33301 -11.833 -0.333008 -17.5 3s-9.16699 8 -10.5 14l-12 43l-12 43l-6 21c-20 -39.333 -49 -70.666 -87 -93.999c-36 -22 -75.333 -33.333 -118 -34
s-82.334 9.66602 -119.001 30.999c-36 20.667 -64.667 48.834 -86 84.501s-32.333 74.5 -33 116.5c0 42 10.167 81.333 30.5 118s48.5 65.667 84.5 87s75.5 32.166 118.5 32.499s82.833 -10.167 119.5 -31.5c33.333 -20 60 -46 80 -78v83c0 6.66699 2.33301 12.334 7 17.001
s10.334 7 17.001 7s12.167 -2.33301 16.5 -7s6.5 -10.334 6.5 -17.001v-23v-151v-97c1.33301 -3.33301 2.16602 -6.16602 2.49902 -8.49902s1.16602 -4.83301 2.49902 -7.5zM471.002 207.999c0.666992 4.66699 1.17285 8.99316 1.50586 12.9932s0.5 8.33301 0.5 13
c0 4 -0.166992 8 -0.5 12s-0.833008 8 -1.5 12c-1.33301 7.33301 -2.83301 14.5 -4.5 21.5s-3.83398 14.167 -6.50098 21.5c0 0.666992 -0.666992 2.33398 -2 5.00098c0 0.666992 -0.166992 1.33398 -0.5 2.00098s-0.5 1.33398 -0.5 2.00098l-6 12
c-2.66699 4 -5.16699 8 -7.5 12s-4.83301 7.66699 -7.5 11c-1.33301 1.33301 -2 2.33301 -2 3c-2 2 -3.33301 3.66699 -4 5c-1.33301 1.33301 -2.83301 3 -4.5 5s-3.16699 3.66699 -4.5 5c-3.33301 3.33301 -6.66602 6.5 -9.99902 9.5s-6.66602 6.16699 -9.99902 9.5
c-0.666992 0 -1.33398 0.333008 -2.00098 1h-1c-0.666992 1.33301 -2.33398 2.66602 -5.00098 3.99902c-4 2.66699 -7.66699 5 -11 7c-4 2.66699 -8 5 -12 7l-12 6h-1c-0.666992 0 -1.16699 0.166992 -1.5 0.5s-0.833008 0.5 -1.5 0.5l-6 3
c-2 0.666992 -4.16699 1.16699 -6.5 1.5s-4.5 1.16602 -6.5 2.49902c-4 1.33301 -8 2.33301 -12 3s-8.33301 1.33398 -13 2.00098c-16 2 -32.667 2 -50 0c-14 -2 -28 -5.66699 -42 -11c-1.33301 -0.666992 -2.33301 -1 -3 -1s-1.33398 -0.333008 -2.00098 -1
c-2.66699 0 -4 -0.666992 -4 -2c-4 -1.33301 -8 -3.33301 -12 -6c-4.66699 -2 -8.83398 -4.16699 -12.501 -6.5l-11.5 -7.5l-3 -3c-0.666992 -0.666992 -1.33398 -1.16699 -2.00098 -1.5s-1.33398 -0.833008 -2.00098 -1.5c-2.66699 -2 -6 -5 -10 -9
c-3.33301 -3.33301 -6.5 -6.66602 -9.5 -9.99902s-6.16699 -6.66602 -9.5 -9.99902c0 -0.666992 -0.166992 -1 -0.5 -1s-0.5 -0.333008 -0.5 -1l-1 -1c-0.666992 -1.33301 -2 -3 -4 -5c-1.33301 -2 -2.5 -4 -3.5 -6s-2.16699 -3.66699 -3.5 -5
c-5.33301 -8 -9.33301 -16 -12 -24c0 -0.666992 -0.333008 -1 -1 -1c0 -1.33301 -0.333008 -2.33301 -1 -3c-0.666992 -1.33301 -1 -2.33301 -1 -3s-0.333008 -1.66699 -1 -3c-1.33301 -3.33301 -2.66602 -7.66602 -3.99902 -12.999c-1.33301 -4 -2.33301 -8.16699 -3 -12.5
l-2 -12.5c-2 -16.667 -2 -33.334 0 -50.001c2 -16 5.33301 -30.333 10 -43c1.33301 -1.33301 2 -3 2 -5c1.33301 -1.33301 2 -2.66602 2 -3.99902l6 -12c2.66699 -4 5 -8 7 -12s4.66699 -7.66699 8 -11c0.666992 -0.666992 1 -1.16699 1 -1.5s0.333008 -0.833008 1 -1.5
c0.666992 -1.33301 1.33398 -2.16602 2.00098 -2.49902s1.33398 -1.16602 2.00098 -2.49902c4 -4 7 -7.33301 9 -10c3.33301 -3.33301 6.66602 -6.33301 9.99902 -9s6.66602 -5.66699 9.99902 -9c0 -0.666992 0.333008 -1 1 -1l1 -1
c1.33301 -0.666992 2.33301 -1.33398 3 -2.00098s1.66699 -1.33398 3 -2.00098c1.33301 -1.33301 3 -2.5 5 -3.5s4 -2.16699 6 -3.5c4 -2.66699 8 -5 12 -7l12 -6c0.666992 0 1.16699 -0.166992 1.5 -0.5s0.833008 -0.5 1.5 -0.5c4 -1.33301 6.33301 -2 7 -2
c3.33301 -1.33301 7.66602 -2.66602 12.999 -3.99902c4 -1.33301 8 -2.33301 12 -3s8.33301 -1.66699 13 -3c16 -2 32.667 -2 50 0c7.33301 1.33301 14.333 2.83301 21 4.5s13.667 3.83398 21 6.50098c1.33301 0.666992 2.16602 1 2.49902 1s1.16602 0.333008 2.49902 1
c1.33301 1.33301 2.66602 2 3.99902 2l12 6c8 4 16 9 24 15c0.666992 0 1.66699 0.666992 3 2c0.666992 0.666992 1.33398 1.16699 2.00098 1.5s1.33398 1.16602 2.00098 2.49902c2.66699 1.33301 6 4 10 8c3.33301 3.33301 6.5 6.83301 9.5 10.5s6.16699 7.16699 9.5 10.5
l1 1c0 0.666992 0.333008 1 1 1c1.33301 2.66699 2.33301 4.33398 3 5.00098l4 6l4 6l6.5 11c2.33301 4 4.16602 8.33301 5.49902 13c0.666992 0.666992 1 1.66699 1 3c1.33301 2.66699 2.33301 5 3 7l2 6c0.666992 2 1.33398 4.33301 2.00098 7c1.33301 4 2.33301 8 3 12z
" />
    <glyph glyph-name="b" unicode="b" horiz-adv-x="473" 
d="M432 348c20.667 -37.333 30.9971 -77.002 30.9971 -119.002c0 -29.333 -5 -57 -15 -83c-7.33301 -19.333 -17 -37.166 -29 -53.499s-26 -30.833 -42 -43.5c-8 -6 -16.333 -11.667 -25 -17s-17.667 -10 -27 -14c-10.667 -4.66699 -21.167 -8.33398 -31.5 -11.001
s-21.166 -4.66699 -32.499 -6c-7.33301 -1.33301 -14.5 -2 -21.5 -2h-21.5c-10 0 -20.167 0.833008 -30.5 2.5s-20.166 4.5 -29.499 8.5c-10 4 -19.667 8.83301 -29 14.5s-18 12.5 -26 20.5c-14.667 14 -26.667 30 -36 48c-11.333 24.667 -17 50.667 -17 78v29v126v166v144
v62c0 6.66699 2.16699 12.167 6.5 16.5s9.83301 6.5 16.5 6.5s12.334 -2.16699 17.001 -6.5s7 -9.83301 7 -16.5v-40v-132v-93c18.667 12 38.834 21 60.501 27s43.5 9 65.5 9s43.667 -2.83301 65 -8.5s41.666 -14.5 60.999 -26.5c17.333 -11.333 33 -24.166 47 -38.499
s26 -30.166 36 -47.499zM148.997 407.998c0.666992 0 1.16699 0.167969 1.5 0.500977s-0.166992 0.166016 -1.5 -0.500977zM414.997 203.999c0.666992 4 0.998047 8.16211 0.998047 12.4951s0.333008 8.5 1 12.5c-0.666992 4.66699 -1 9 -1 13s-0.333008 8.33301 -1 13
c-3.33301 18 -7.66602 34.333 -12.999 49c-0.666992 0.666992 -1 1.33398 -1 2.00098l-3 6c-2.66699 5.33301 -5 9.33301 -7 12c-4.66699 8.66699 -9.66699 16.334 -15 23.001c0 0.666992 -0.666992 1.66699 -2 3c-0.666992 0.666992 -1.16699 1.33398 -1.5 2.00098
s-1.16602 1.66699 -2.49902 3l-9 9c-5.33301 6.66699 -12 12.667 -20 18v1c-0.666992 0 -1.66699 0.666992 -3 2c-2.66699 1.33301 -4.33398 2.33301 -5.00098 3c-2.66699 2 -6.66699 4.33301 -12 7c-3.33301 2.66699 -6.83301 4.83398 -10.5 6.50098l-11.5 5.5
c-0.666992 0 -1.5 0.333008 -2.5 1s-1.83301 1 -2.5 1c-2.66699 1.33301 -5 2 -7 2c-3.33301 1.33301 -7.66602 2.66602 -12.999 3.99902c-4 1.33301 -8 2.33301 -12 3s-8.33301 1.66699 -13 3c-17.333 2 -34.666 2 -51.999 0c-5.33301 -1.33301 -10.333 -2.5 -15 -3.5
s-9.66699 -2.16699 -15 -3.5c-3.33301 -1.33301 -6.16602 -2.33301 -8.49902 -3s-5.16602 -1.66699 -8.49902 -3c-1.33301 0 -2 -0.333008 -2 -1h-1c-1.33301 -0.666992 -2.5 -1.16699 -3.5 -1.5s-2.16699 -0.833008 -3.5 -1.5
c-5.33301 -2.66699 -10.166 -5.33398 -14.499 -8.00098s-8.83301 -5.66699 -13.5 -9c-1.33301 -1.33301 -2.5 -2.16602 -3.5 -2.49902s-2.16699 -1.16602 -3.5 -2.49902s-2.33301 -2 -3 -2c-1.33301 -1.33301 -2.33301 -2.16602 -3 -2.49902
s-1.33398 -1.16602 -2.00098 -2.49902v-15v-140v-41v-14c0 -4.66699 0.333008 -9.33398 1 -14.001c0.666992 -3.33301 1.16699 -6.66602 1.5 -9.99902s1.16602 -6.66602 2.49902 -9.99902s2.66602 -7 3.99902 -11v-1c0.666992 -0.666992 1.66699 -2.33398 3 -5.00098
c1.33301 -3.33301 3 -6.66602 5 -9.99902s4.33301 -6.66602 7 -9.99902l1 -1l3 -3c1.33301 -1.33301 2.5 -2.66602 3.5 -3.99902s2.16699 -2.66602 3.5 -3.99902l9 -9c1.33301 0 2 -0.666992 2 -2l2 -1h1c6.66699 -5.33301 13 -9.33301 19 -12l6 -3h1
c1.33301 -0.666992 3 -1.33398 5 -2.00098s3.66699 -1.33398 5 -2.00098c5.33301 -1.33301 12 -2.66602 20 -3.99902c4.66699 -0.666992 9.16699 -1 13.5 -1h13.5h15c4.66699 0 9.33398 0.333008 14.001 1c12 2 24 5 36 9c2.66699 1.33301 5 2.33301 7 3
c2 0 3.66699 0.666992 5 2c4 1.33301 7 2.66602 9 3.99902c4 2 8 4.16699 12 6.5s8 4.83301 12 7.5c1.33301 0.666992 3.33301 2.33398 6 5.00098c0.666992 0 1 0.333008 1 1c2 1.33301 3.83301 2.66602 5.5 3.99902s3.5 2.66602 5.5 3.99902
c3.33301 3.33301 6.5 6.66602 9.5 9.99902s6.16699 6.66602 9.5 9.99902c0.666992 0.666992 1.33398 1.66699 2.00098 3s1.33398 2 2.00098 2c0 0.666992 0.166992 1.16699 0.5 1.5s0.5 0.833008 0.5 1.5c1.33301 2 2.66602 3.83301 3.99902 5.5s2.66602 3.5 3.99902 5.5
c4.66699 6.66699 9 15 13 25v1c0.666992 0 1 0.333008 1 1c1.33301 2.66699 2 5 2 7c1.33301 2 2.16602 4 2.49902 6s1.16602 4.33301 2.49902 7c1.33301 4 2.33301 8.16699 3 12.5z" />
    <glyph glyph-name="c" unicode="c" horiz-adv-x="479" 
d="M98 260c-0.666992 -4 -0.996094 -8.00781 -0.996094 -12.0078v-13v-2v-1v-13c0 -4 0.333008 -8 1 -12c1.33301 -7.33301 2.83301 -14.166 4.5 -20.499s3.5 -12.833 5.5 -19.5c0.666992 -1.33301 1.16699 -2.5 1.5 -3.5s0.833008 -2.16699 1.5 -3.5v-1l1 -1
c1.33301 -2 2.33301 -4 3 -6s1.66699 -4 3 -6c4 -7.33301 8.66699 -15 14 -23c0.666992 -1.33301 1.66699 -2.66602 3 -3.99902c0.666992 -0.666992 1.16699 -1.33398 1.5 -2.00098s0.833008 -1.33398 1.5 -2.00098c1.33301 -1.33301 2.83301 -3 4.5 -5
s3.16699 -3.66699 4.5 -5c3.33301 -3.33301 6.66602 -6.5 9.99902 -9.5s6.66602 -6.16699 9.99902 -9.5l2 -2c2.66699 -1.33301 4.33398 -2.66602 5.00098 -3.99902c2 -1.33301 4 -2.5 6 -3.5s4 -2.16699 6 -3.5c4 -2.66699 8 -5 12 -7l12 -6
c0.666992 0 1.16699 -0.166992 1.5 -0.5s0.833008 -0.5 1.5 -0.5c1.33301 -0.666992 2.33301 -1 3 -1s1.66699 -0.333008 3 -1c3.33301 -1.33301 7.66602 -2.66602 12.999 -3.99902c4.66699 -1.33301 9 -2.33301 13 -3s8.33301 -1.66699 13 -3c16 -2 32.333 -2 49 0
c12.667 2 25 5 37 9c1.33301 0.666992 3 1.33398 5 2.00098s3.66699 1.33398 5 2.00098h1c0.666992 0.666992 1.16699 1 1.5 1s0.833008 0.333008 1.5 1l8 4c2.66699 1.33301 5.66699 2.66602 9 3.99902c3.33301 2 6.16602 3.83301 8.49902 5.5s5.16602 3.5 8.49902 5.5
c0.666992 0.666992 1.33398 1.16699 2.00098 1.5s1.33398 0.833008 2.00098 1.5c2 1.33301 4.33301 3.33301 7 6c8.66699 8 17.334 17.333 26.001 28c4 5.33301 9.5 7.66602 16.5 6.99902s12.833 -3 17.5 -7c4 -5.33301 6 -11 6 -17c0 -6.66699 -2 -12.334 -6 -17.001
c-13.333 -15.333 -28 -29 -44 -41c-18 -13.333 -37.667 -23.666 -59 -30.999s-43 -11.5 -65 -12.5s-43.833 0.833008 -65.5 5.5s-42.167 12.667 -61.5 24c-36 20.667 -64.667 48.667 -86 84c-21.333 36.667 -32 76.334 -32 119.001v1v2c0 20.667 2.33301 39.334 7 56.001
c4.66699 20 12 39 22 57s22 34.167 36 48.5s29.667 26.833 47 37.5s36 19 56 25c21.333 6 43.333 9 66 9s44.667 -3.33301 66 -10c22 -7.33301 42.667 -17.333 62 -30s36.333 -27.667 51 -45c4 -6 6 -11.667 6 -17c0 -6.66699 -2 -12.334 -6 -17.001
c-4.66699 -4 -10.5 -6.33301 -17.5 -7s-12.5 1.66602 -16.5 6.99902s-8.16699 10.333 -12.5 15s-9.16602 9.33398 -14.499 14.001c-1.33301 0.666992 -2.33301 1.33398 -3 2.00098s-1.66699 1.33398 -3 2.00098l-2.5 2.5c-1 1 -1.83301 1.5 -2.5 1.5
c-2.66699 2 -5.33398 3.83301 -8.00098 5.5s-5.33398 3.5 -8.00098 5.5c-3.33301 1.33301 -6.5 2.83301 -9.5 4.5s-6.16699 3.16699 -9.5 4.5h-1c-0.666992 0 -1.33398 0.333008 -2.00098 1l-2 1c-1.33301 0.666992 -4 1.66699 -8 3c-12 4 -24 7 -36 9
c-16.667 1.33301 -33 1.33301 -49 0c-6.66699 -1.33301 -13.334 -2.83301 -20.001 -4.5s-13.334 -3.5 -20.001 -5.5c-1.33301 -0.666992 -2.5 -1.16699 -3.5 -1.5s-2.16699 -0.833008 -3.5 -1.5h-1l-1 -1l-12 -6c-7.33301 -4 -15 -8.66699 -23 -14
c-1.33301 -0.666992 -2.66602 -1.66699 -3.99902 -3c-0.666992 -0.666992 -1.33398 -1.16699 -2.00098 -1.5s-1.33398 -0.833008 -2.00098 -1.5c-1.33301 -1.33301 -3 -2.83301 -5 -4.5s-3.66699 -3.16699 -5 -4.5c-3.33301 -3.33301 -6.5 -6.66602 -9.5 -9.99902
s-6.16699 -6.66602 -9.5 -9.99902l-2 -2c-1.33301 -2.66699 -2.66602 -4.66699 -3.99902 -6s-2.5 -3 -3.5 -5s-2.16699 -4 -3.5 -6c-2.66699 -4 -5 -8 -7 -12l-6 -12c0 -1.33301 -0.333008 -2.33301 -1 -3c-0.666992 -1.33301 -1 -2.5 -1 -3.5s-0.333008 -2.16699 -1 -3.5
c-1.33301 -3.33301 -2.66602 -7.66602 -3.99902 -12.999c-1.33301 -4 -2.33301 -8 -3 -12s-1.66699 -8.33301 -3 -13z" />
    <glyph glyph-name="d" unicode="d" horiz-adv-x="589" 
d="M544 151l16.499 -61.4971l16.5 -60.5c2 -6.66699 1.33301 -12.834 -2 -18.501s-8 -9.16699 -14 -10.5c-6 -2 -12 -1.33301 -18 2s-9.66699 8 -11 14c-2 8.66699 -4.16699 17 -6.5 25s-4.5 16 -6.5 24c-2.66699 9.33301 -5.16699 18.5 -7.5 27.5
s-4.83301 18.167 -7.5 27.5c-14.667 -24.667 -33 -46.334 -55 -65.001s-46.667 -32.667 -74 -42c-40 -14 -81.667 -17.333 -125 -10c-40 7.33301 -76.667 24.333 -110 51c-16 12.667 -30 27.167 -42 43.5s-21.667 33.833 -29 52.5s-12.5 38 -15.5 58s-3.5 40 -1.5 60
c5.33301 42.667 19.666 80.667 42.999 114c11.333 16 24.666 30.667 39.999 44s32 24.666 50 33.999c39.333 18.667 80 27 122 25c20.667 -1.33301 40.834 -5 60.501 -11s38.167 -14.667 55.5 -26c26.667 -16.667 49.334 -38 68.001 -64v34v153v68
c0 6.66699 2.33301 12.167 7 16.5s10.334 6.5 17.001 6.5c6 0 11.333 -2.16699 16 -6.5s7 -9.83301 7 -16.5v-2v-88v-159v-153v-65zM487.999 216.003c0.666992 4 1.16504 8.16406 1.49805 12.4971s0.5 8.83301 0.5 13.5s-0.166992 9.16699 -0.5 13.5
s-0.833008 8.83301 -1.5 13.5l-2 12.5c-0.666992 4.33301 -1.66699 8.5 -3 12.5c-1.33301 2.66699 -2.16602 5.16699 -2.49902 7.5s-1.16602 4.5 -2.49902 6.5c0 2 -0.666992 4.33301 -2 7c0 0.666992 -0.333008 1.5 -1 2.5s-1 1.83301 -1 2.5
c-1.33301 3.33301 -3 6.83301 -5 10.5l-6 10.5c-1.33301 2 -2.66602 4.16699 -3.99902 6.5s-2.66602 4.5 -3.99902 6.5c-0.666992 0.666992 -1.16699 1.33398 -1.5 2.00098s-1.16602 1.66699 -2.49902 3c0 0.666992 -0.666992 1.66699 -2 3
c-3.33301 3.33301 -6.16602 6.5 -8.49902 9.5s-5.16602 6.16699 -8.49902 9.5l-10 10c-1.33301 0.666992 -2.33301 1.33398 -3 2.00098s-1.66699 1.33398 -3 2.00098c0 2 -1.33301 3 -4 3c-6.66699 5.33301 -13.334 10 -20.001 14c-2 1.33301 -4 2.5 -6 3.5l-7 3.5
c-2.66699 1.33301 -4.66699 2 -6 2c-1.33301 1.33301 -2.66602 2 -3.99902 2c-8 3.33301 -16 6.16602 -24 8.49902s-16.333 4.16602 -25 5.49902c-17.333 2 -35 2 -53 0c-4.66699 -1.33301 -9 -2.33301 -13 -3s-8.33301 -1.66699 -13 -3
c-2 -0.666992 -4.16699 -1.33398 -6.5 -2.00098s-4.83301 -1.33398 -7.5 -2.00098l-6 -3c-2 0 -3.66699 -0.666992 -5 -2c-7.33301 -3.33301 -14.666 -7 -21.999 -11c-2.66699 -1.33301 -6.66699 -4 -12 -8c-1.33301 -0.666992 -2.16602 -1.16699 -2.49902 -1.5
s-1.16602 -0.833008 -2.49902 -1.5c-0.666992 -0.666992 -1.33398 -1.16699 -2.00098 -1.5s-1.33398 -0.833008 -2.00098 -1.5c-3.33301 -2.66699 -6.33301 -5.33398 -9 -8.00098l-9 -9c-2 -1.33301 -3.83301 -3 -5.5 -5s-3.16699 -3.66699 -4.5 -5
s-2.16602 -2.33301 -2.49902 -3s-0.833008 -1.33398 -1.5 -2.00098l-4 -4l-6.5 -10.5l-6.5 -10.5c-1.33301 -2 -2.5 -4 -3.5 -6s-2.16699 -4 -3.5 -6l-3 -6c0 -2 -0.666992 -3.66699 -2 -5c-5.33301 -14.667 -9.66602 -31 -12.999 -49c-2 -17.333 -2 -35 0 -53
c1.33301 -9.33301 3.33301 -17.666 6 -24.999c1.33301 -6.66699 2.66602 -11.334 3.99902 -14.001c1.33301 -4 2 -6.33301 2 -7c1.33301 -1.33301 2 -3 2 -5c2 -3.33301 3.83301 -6.83301 5.5 -10.5s3.83398 -7.16699 6.50098 -10.5c1.33301 -2 2.5 -4.16699 3.5 -6.5
s2.16699 -4.5 3.5 -6.5c1.33301 -0.666992 2.66602 -2.33398 3.99902 -5.00098l3 -3c4.66699 -7.33301 10 -13.666 16 -18.999c2 -1.33301 3.83301 -3 5.5 -5s3.5 -3.66699 5.5 -5c1.33301 -0.666992 2.16602 -1.33398 2.49902 -2.00098s1.16602 -1.33398 2.49902 -2.00098
c2 -2 3.33301 -3 4 -3c3.33301 -2.66699 6.66602 -5.16699 9.99902 -7.5s6.66602 -4.5 9.99902 -6.5c5.33301 -2 9.66602 -4.33301 12.999 -7c2.66699 -1.33301 4.66699 -2 6 -2c1.33301 -1.33301 3 -2 5 -2c7.33301 -3.33301 15.166 -6.16602 23.499 -8.49902
s16.5 -4.16602 24.5 -5.49902c18 -2 35.667 -2 53 0c4.66699 1.33301 9.16699 2.33301 13.5 3s8.5 1.66699 12.5 3c2.66699 0.666992 5 1.33398 7 2.00098s4.33301 1.33398 7 2.00098l6 3c2 0 3.66699 0.666992 5 2c4 1.33301 7.83301 3 11.5 5l10.5 6
c2.66699 1.33301 6.66699 4 12 8l6 3l3 3c3.33301 2.66699 6.5 5.33398 9.5 8.00098s6.16699 5.66699 9.5 9c1.33301 1.33301 2.83301 3 4.5 5s3.5 3.66699 5.5 5c1.33301 2.66699 2.66602 4.33398 3.99902 5.00098c0.666992 0.666992 1.16699 1.33398 1.5 2.00098
s0.833008 1.33398 1.5 2.00098c2.66699 3.33301 5 6.83301 7 10.5l6 10.5c2 2.66699 4.33301 6.66699 7 12l3 6c1.33301 1.33301 2 3 2 5c3.33301 8 6 16 8 24s3.66699 16.333 5 25z" />
    <glyph glyph-name="e" unicode="e" horiz-adv-x="497" 
d="M483 365c4 -6 4.6709 -12 2.00391 -18c-2 -6 -5.66699 -10.667 -11 -14c-4.66699 -3.33301 -9.33398 -7 -14.001 -11s-9.66699 -7.66699 -15 -11l-57.5 -42l-57.5 -42l-64 -47l-64 -47c-7.33301 -6 -15 -11.833 -23 -17.5l-23 -16.5c2 -2.66699 4.16699 -5 6.5 -7
s4.83301 -4 7.5 -6l1 -1l1 -1l6 -3c1.33301 -1.33301 3 -2.66602 5 -3.99902l6 -4l24 -12c1.33301 -0.666992 2.66602 -1 3.99902 -1l6 -3c2 -0.666992 4.16699 -1.33398 6.5 -2.00098s4.5 -1.33398 6.5 -2.00098c4 -1.33301 8 -2.33301 12 -3s8.33301 -1.33398 13 -2.00098
c19.333 -2 38.666 -2 57.999 0c5.33301 1.33301 10.666 2.5 15.999 3.5s10.666 2.16699 15.999 3.5c3.33301 1.33301 6.16602 2.33301 8.49902 3s4.83301 1.66699 7.5 3c0.666992 0 1.16699 0.166992 1.5 0.5s0.833008 0.5 1.5 0.5c2 1.33301 4.33301 2.66602 7 3.99902
c5.33301 2.66699 10.333 5.33398 15 8.00098s9 5.66699 13 9c1.33301 0.666992 2.66602 1.66699 3.99902 3c1.33301 0.666992 2.33301 1.33398 3 2.00098s1.66699 1.33398 3 2.00098c2 2 4 3.83301 6 5.5s4 3.5 6 5.5c4.66699 4.66699 10.167 7 16.5 7
s11.833 -2.33301 16.5 -7s7 -10.167 7 -16.5s-2.33301 -11.833 -7 -16.5c-19.333 -19.333 -41.166 -34.5 -65.499 -45.5s-49.833 -18.167 -76.5 -21.5c-19.333 -2 -38.833 -2 -58.5 0s-38.5 6.66699 -56.5 14c-39.333 14.667 -71.666 37.667 -96.999 69
c-13.333 16 -24.5 33.167 -33.5 51.5s-15.167 37.833 -18.5 58.5s-4.16602 41.667 -2.49902 63s6.5 41.666 14.5 60.999c7.33301 19.333 16.833 37.166 28.5 53.499s25.167 31.166 40.5 44.499c16 12.667 33.167 23.5 51.5 32.5s37.833 15.167 58.5 18.5
c11.333 1.33301 22.333 2.33301 33 3s21.667 0.333984 33 -0.999023c25.333 -3.33301 49 -9.66602 71 -18.999c20.667 -9.33301 39.5 -21.166 56.5 -35.499s31.833 -30.833 44.5 -49.5zM136.004 349c-0.666992 -0.666992 -1 -1.16699 -1 -1.5s0.333008 0.166992 1 1.5z
M261.004 234l64.4961 47.4971l64.5 46.5l39 30l-12 12l-7.5 7.5c-2.33301 2.33301 -4.83301 4.5 -7.5 6.5c-1.33301 1.33301 -2.33301 2 -3 2c-1.33301 1.33301 -2.66602 2.33301 -3.99902 3c-1.33301 1.33301 -2.66602 2.33301 -3.99902 3l-4 2
c-6.66699 4.66699 -13.334 8.33398 -20.001 11.001c-1.33301 0.666992 -2.16602 1.16699 -2.49902 1.5s-1.16602 0.833008 -2.49902 1.5c-0.666992 0 -1.16699 0.166992 -1.5 0.5s-0.833008 0.5 -1.5 0.5c-1.33301 0.666992 -2.5 1.16699 -3.5 1.5
s-2.16699 0.833008 -3.5 1.5c-6.66699 2 -13.334 3.83301 -20.001 5.5s-13.667 3.16699 -21 4.5c-16 2 -32.667 2 -50 0c-7.33301 -1.33301 -14.5 -2.83301 -21.5 -4.5s-14.167 -3.83398 -21.5 -6.50098l-6 -3c-1.33301 0 -2.33301 -0.333008 -3 -1l-12 -6
c-8 -4 -16 -9 -24 -15l-2 -2c-2.66699 -1.33301 -4.33398 -2.66602 -5.00098 -3.99902c-2.66699 -2 -6 -5 -10 -9c-3.33301 -3.33301 -6.5 -6.66602 -9.5 -9.99902s-6.16699 -6.66602 -9.5 -9.99902v-1c-0.666992 0 -1 -0.333008 -1 -1
c-1.33301 -1.33301 -2.66602 -3.33301 -3.99902 -6c-1.33301 -1.33301 -2.66602 -3 -3.99902 -5l-4 -6l-12 -24c-0.666992 -0.666992 -1 -2 -1 -4l-3 -6c-0.666992 -2 -1.16699 -4.16699 -1.5 -6.5s-1.16602 -4.5 -2.49902 -6.5c-1.33301 -4 -2.33301 -8 -3 -12
s-1.33398 -8.33301 -2.00098 -13c-2 -16 -2 -32.667 0 -50c1.33301 -7.33301 2.83301 -14.5 4.5 -21.5s3.83398 -14.167 6.50098 -21.5l2 -4c0.666992 -1.33301 1 -2.33301 1 -3l1 -2l6 -12c2.66699 -5.33301 4.66699 -9 6 -11l21 15z" />
    <glyph glyph-name="f" unicode="f" horiz-adv-x="418" 
d="M321 702c20 -10.667 37.1709 -24.333 51.5039 -41s25.5 -35.334 33.5 -56.001c2.66699 -6 2 -12 -2 -18s-8.66699 -9.66699 -14 -11c-6 -2 -12 -1.33301 -18 2c-3.33301 1.33301 -5.66602 3.16602 -6.99902 5.49902s-2.66602 5.16602 -3.99902 8.49902v1l-2 4
c-1.33301 2 -2.16602 3.83301 -2.49902 5.5s-1.16602 3.16699 -2.49902 4.5c-1.33301 3.33301 -3 6.16602 -5 8.49902s-4 5.16602 -6 8.49902c-0.666992 0 -1 0.333008 -1 1c-0.666992 0.666992 -1.16699 1.33398 -1.5 2.00098s-0.833008 1.33398 -1.5 2.00098l-3.5 3.5
l-3.5 3.5l-7 7c-2 2 -4.33301 3.66699 -7 5l-2 2c-0.666992 0.666992 -1.33398 1.16699 -2.00098 1.5s-1.33398 0.833008 -2.00098 1.5c-4 2.66699 -7 4.33398 -9 5.00098l-9 6c-0.666992 0 -2.33398 0.666992 -5.00098 2h-2c-10 4.66699 -21.333 8 -34 10
c-12.667 0.666992 -25.334 0.666992 -38.001 0l-10.5 -2c-3.66699 -0.666992 -7.16699 -1.66699 -10.5 -3c-2.66699 -0.666992 -5 -1.33398 -7 -2.00098l-6 -2c-0.666992 -0.666992 -1.33398 -1 -2.00098 -1c-0.666992 -0.666992 -2.33398 -1.66699 -5.00098 -3
c-6.66699 -2.66699 -14 -7 -22 -13l-2 -1c-0.666992 -1.33301 -1.33398 -2.16602 -2.00098 -2.49902s-1.33398 -0.833008 -2.00098 -1.5c-1.33301 -1.33301 -2.83301 -2.66602 -4.5 -3.99902s-3.16699 -2.66602 -4.5 -3.99902s-2.83301 -3 -4.5 -5
s-3.16699 -3.66699 -4.5 -5s-2 -2.33301 -2 -3c-1.33301 -1.33301 -2 -2.33301 -2 -3c-2.66699 -3.33301 -5.16699 -6.83301 -7.5 -10.5l-6.5 -10.5c-0.666992 -1.33301 -1 -2.33301 -1 -3s-0.333008 -1.66699 -1 -3v-1c-0.666992 0 -1 -0.333008 -1 -1
c-1.33301 -2.66699 -2.66602 -6.66699 -3.99902 -12c-1.33301 -3.33301 -2.33301 -6.83301 -3 -10.5l-2 -11.5c-1.33301 -7.33301 -1.83301 -14.166 -1.5 -20.499s0.5 -13.166 0.5 -20.499v-114h38h123c6.66699 0 12.334 -2.16699 17.001 -6.5s7 -9.83301 7 -16.5
s-2.33301 -12.167 -7 -16.5s-10.334 -6.5 -17.001 -6.5h-58h-103v-124v-146v-63c0 -6 -2.33301 -11.333 -7 -16s-10.334 -7 -17.001 -7c-6 0 -11.333 2.33301 -16 7s-7 10 -7 16v22v118v165v146v65c0 21.333 3.5 41.666 10.5 60.999s17.167 37.333 30.5 54
c26 33.333 59.333 54.666 100 63.999c22 5.33301 44.333 6.5 67 3.5s43.667 -9.83301 63 -20.5zM107.004 592.001c0 -0.666992 -0.167969 -1.16699 -0.500977 -1.5s-0.166016 0.166992 0.500977 1.5zM180.003 666.001c-0.666992 0 -1.16699 -0.167969 -1.5 -0.500977
s0.166992 -0.166016 1.5 0.500977z" />
    <glyph glyph-name="g" unicode="g" horiz-adv-x="587" 
d="M559 468c6.66699 -1.33301 11.499 -4.8252 14.499 -10.4922s3.83301 -11.5 2.5 -17.5c-1.33301 -4.66699 -2.5 -9 -3.5 -13s-2.16699 -8 -3.5 -12l-16.5 -59.5l-16.5 -59.5v-6v-107v-163v-144c0 -14.667 0.166992 -29.334 0.5 -44.001
s-0.833984 -29.334 -3.50098 -44.001c-2.66699 -20 -8.16699 -39.333 -16.5 -58s-18.833 -36 -31.5 -52s-27 -30 -43 -42s-33.333 -22 -52 -30c-20.667 -8.66699 -41.834 -14 -63.501 -16s-43.5 -1.33301 -65.5 2c-23.333 3.33301 -45.5 10.5 -66.5 21.5
s-40.167 24.833 -57.5 41.5c-5.33301 4.66699 -7.83301 10.167 -7.5 16.5s2.83301 11.833 7.5 16.5c4.66699 5.33301 10.167 7.83301 16.5 7.5s11.833 -2.83301 16.5 -7.5c2 -2 4 -3.83301 6 -5.5s4 -3.5 6 -5.5c0 0.666992 1 0 3 -2l2 -2
c1.33301 -0.666992 2.66602 -1.66699 3.99902 -3c4.66699 -3.33301 9.33398 -6.33301 14.001 -9s9.66699 -5 15 -7c1.33301 -1.33301 4 -2.66602 8 -3.99902c0.666992 -0.666992 1.16699 -1 1.5 -1s0.833008 -0.333008 1.5 -1
c3.33301 -0.666992 8.33301 -2.33398 15 -5.00098c10 -3.33301 20 -5.33301 30 -6c16 -2 32.667 -2 50 0c14 2 28.667 5.66699 44 11c0.666992 0.666992 1.83398 1.16699 3.50098 1.5s2.5 0.833008 2.5 1.5c0.666992 0 1.16699 0.166992 1.5 0.5s0.833008 0.5 1.5 0.5l12 6
c8.66699 4.66699 16.334 9.66699 23.001 15c0.666992 0 1.66699 0.666992 3 2c0.666992 0.666992 1.33398 1.16699 2.00098 1.5s1.66699 1.16602 3 2.49902c4 4 7.33301 7 10 9c3.33301 3.33301 6.33301 6.66602 9 9.99902s5.66699 6.66602 9 9.99902l2 2
c1.33301 2.66699 2.66602 4.66699 3.99902 6s2.5 3 3.5 5s2.16699 4 3.5 6l6 10.5c2 3.66699 3.66699 7.5 5 11.5c1.33301 1.33301 2 3 2 5c0.666992 2 1.66699 4.33301 3 7l2 6c0.666992 2 1.33398 4.33301 2.00098 7c1.33301 4 2.33301 8 3 12l2 12
c1.33301 8.66699 1.83301 17.167 1.5 25.5s-0.5 16.833 -0.5 25.5c0.666992 21.333 1 42.333 1 63v63v124c-30 -40 -68.667 -68.667 -116 -86c-19.333 -7.33301 -39.666 -11.666 -60.999 -12.999s-42.333 -0.333008 -63 3c-40 7.33301 -76.667 24.333 -110 51
c-31.333 25.333 -55 57.166 -71 95.499s-21.667 77.833 -17 118.5c2.66699 20 7.5 39.667 14.5 59s16.5 37.333 28.5 54s25.5 31.5 40.5 44.5s31.5 24.167 49.5 33.5c19.333 9.33301 39.166 16.166 59.499 20.499s40.833 5.83301 61.5 4.5c42 -2 81 -14.333 117 -37
c34.667 -22.667 62 -51.334 82 -86.001v-1c4.66699 15.333 9 30.666 13 45.999l12 46c2 6 5.83301 10.667 11.5 14s11.5 4 17.5 2zM487.999 215.008c0.666992 4.66699 1.00195 9.16406 1.00195 13.4971v13.5v13c0 4 -0.333008 8.33301 -1 13
c-1.33301 4.66699 -2.33301 9.16699 -3 13.5s-1.66699 8.5 -3 12.5c-0.666992 2.66699 -1.33398 5 -2.00098 7s-1.33398 4.33301 -2.00098 7l-3 6c0 2 -0.666992 3.66699 -2 5c-1.33301 4 -3 7.83301 -5 11.5l-6 10.5c-1.33301 2 -2.5 4 -3.5 6s-2.16699 4 -3.5 6
c-1.33301 1.33301 -2.66602 3.33301 -3.99902 6l-3 3c-2.66699 3.33301 -5.33398 6.5 -8.00098 9.5s-5.33398 6.16699 -8.00098 9.5c-2 1.33301 -3.83301 2.83301 -5.5 4.5s-3.5 3.16699 -5.5 4.5l-5 5c-0.666992 0 -2 1 -4 3c-7.33301 5.33301 -14 9.66602 -20 12.999
l-7 3.5c-2 1 -4 2.16699 -6 3.5l-6 3c-2 0 -3.66699 0.666992 -5 2c-7.33301 3.33301 -15.166 6 -23.499 8s-16.5 3.66699 -24.5 5c-18 2 -35.667 2 -53 0c-4.66699 -0.666992 -9 -1.33398 -13 -2.00098s-8.33301 -1.66699 -13 -3
c-2 -1.33301 -4.16699 -2.16602 -6.5 -2.49902s-4.83301 -1.16602 -7.5 -2.49902c-1.33301 -0.666992 -2.33301 -1 -3 -1s-1.66699 -0.333008 -3 -1c-1.33301 -1.33301 -3 -2 -5 -2c-3.33301 -2 -7 -3.83301 -11 -5.5s-7.66699 -3.5 -11 -5.5l-6 -4l-6 -4
c-1.33301 -0.666992 -2.16602 -1.33398 -2.49902 -2.00098s-1.16602 -1.33398 -2.49902 -2.00098c-0.666992 0 -1.33398 -0.333008 -2.00098 -1s-1.33398 -1 -2.00098 -1c-3.33301 -3.33301 -6.33301 -6.16602 -9 -8.49902s-5.66699 -5.16602 -9 -8.49902
c-4.66699 -4.66699 -8 -8.33398 -10 -11.001c-1.33301 -0.666992 -2.66602 -2.33398 -3.99902 -5.00098l-4 -4c-2 -3.33301 -4.16699 -6.66602 -6.5 -9.99902s-4.5 -6.66602 -6.5 -9.99902c-1.33301 -2 -2.5 -4 -3.5 -6l-3.5 -7l-3 -6
c0 -1.33301 -0.666992 -2.66602 -2 -3.99902c-5.33301 -14.667 -9.66602 -31 -12.999 -49c-2 -17.333 -2 -35 0 -53c1.33301 -4 2.33301 -8.16699 3 -12.5s1.66699 -8.5 3 -12.5c0.666992 -2.66699 1.33398 -5.16699 2.00098 -7.5s1.33398 -4.5 2.00098 -6.5
c1.33301 -4 2 -6.33301 2 -7c1.33301 -1.33301 2 -3 2 -5c2 -3.33301 3.83301 -6.83301 5.5 -10.5s3.83398 -7.16699 6.50098 -10.5c1.33301 -2 2.5 -4.16699 3.5 -6.5s2.16699 -4.5 3.5 -6.5c1.33301 -0.666992 2.66602 -2.33398 3.99902 -5.00098l3 -3
c2.66699 -3.33301 5.33398 -6.5 8.00098 -9.5s5.33398 -6.16699 8.00098 -9.5c2 -1.33301 3.83301 -3 5.5 -5s3.5 -3.66699 5.5 -5c1.33301 -0.666992 2.16602 -1.33398 2.49902 -2.00098s1.16602 -1.33398 2.49902 -2.00098c2 -2 3.33301 -3 4 -3
c3.33301 -2.66699 6.66602 -5.16699 9.99902 -7.5s6.66602 -4.5 9.99902 -6.5c2 -1.33301 4.16699 -2.33301 6.5 -3s4.5 -1.66699 6.5 -3l6 -3c1.33301 -1.33301 3 -2 5 -2c7.33301 -3.33301 15 -6 23 -8s16.333 -3.66699 25 -5c17.333 -2 35 -2 53 0
c4.66699 0.666992 9 1.33398 13 2.00098s8.33301 1.66699 13 3c2 0.666992 4.16699 1.33398 6.5 2.00098s4.83301 1.33398 7.5 2.00098l6 3c2 0 3.66699 0.666992 5 2c7.33301 3.33301 14.666 7 21.999 11c2.66699 1.33301 6.66699 4 12 8
c1.33301 0.666992 2.16602 1.16699 2.49902 1.5s1.16602 0.833008 2.49902 1.5c0.666992 0.666992 1.33398 1.16699 2.00098 1.5s1.33398 0.833008 2.00098 1.5c3.33301 2.66699 6.33301 5.33398 9 8.00098l9 9c2 1.33301 3.83301 3 5.5 5s3.16699 3.66699 4.5 5
s2.16602 2.33301 2.49902 3s0.833008 1.33398 1.5 2.00098l4 4l6.5 10.5l6.5 10.5c1.33301 2 2.5 4 3.5 6s2.16699 4 3.5 6l3 6c0 2 0.666992 3.66699 2 5c3.33301 8 6 16 8 24s3.66699 16 5 24z" />
    <glyph glyph-name="h" unicode="h" horiz-adv-x="434" 
d="M359 428c15.333 -12.667 28.498 -27.835 39.498 -45.502s18.5 -36.5 22.5 -56.5c1.33301 -9.33301 2.16602 -18.166 2.49902 -26.499s0.5 -17.166 0.5 -26.499v-146v-103c0 -6 -2.16699 -11.333 -6.5 -16s-9.83301 -7 -16.5 -7s-12.167 2.33301 -16.5 7s-6.5 10 -6.5 16
v26v152v67v19.5c0 6.33301 -0.333008 12.833 -1 19.5c-1.33301 3.33301 -2.33301 7 -3 11s-1.66699 7.66699 -3 11c-1.33301 5.33301 -2.66602 9 -3.99902 11c0 1.33301 -0.333008 2.33301 -1 3s-1 1.33398 -1 2.00098s-0.333008 1.66699 -1 3l-6 10
c-2 3.33301 -4.33301 6.66602 -7 9.99902c0 0.666992 -0.166992 1 -0.5 1s-0.5 0.333008 -0.5 1c-0.666992 0.666992 -1.16699 1.33398 -1.5 2.00098s-1.16602 1.33398 -2.49902 2.00098c-1.33301 2 -4 5 -8 9s-7 6.66699 -9 8l-3 3c-0.666992 0 -1.66699 0.666992 -3 2
c-3.33301 2 -6.66602 4.16699 -9.99902 6.5s-7 4.16602 -11 5.49902l-6 3c-2 1.33301 -4 2.16602 -6 2.49902s-4 1.16602 -6 2.49902c-5.33301 1.33301 -12.666 2.66602 -21.999 3.99902c-16.667 2 -33 2 -49 0l-12 -2c-4 -0.666992 -7.66699 -1.66699 -11 -3
c-5.33301 -1.33301 -9 -2.66602 -11 -3.99902c-1.33301 0 -2.33301 -0.333008 -3 -1s-1.33398 -1 -2.00098 -1s-1.66699 -0.333008 -3 -1l-10 -6c-3.33301 -2 -6.66602 -4.33301 -9.99902 -7c-0.666992 0 -1.33398 -0.333008 -2.00098 -1s-1.33398 -1.16699 -2.00098 -1.5
s-1.33398 -1.16602 -2.00098 -2.49902c-2 -1.33301 -5 -4 -9 -8s-6.66699 -7 -8 -9l-3 -3c0 -0.666992 -0.666992 -1.66699 -2 -3c-4.66699 -5.33301 -8.66699 -12 -12 -20c-1.33301 -2.66699 -2.33301 -5 -3 -7h-1c-1.33301 -5.33301 -2.66602 -9.33301 -3.99902 -12
c-1.33301 -3.33301 -2.16602 -6.83301 -2.49902 -10.5s-1.16602 -7.16699 -2.49902 -10.5c-0.666992 -6 -1 -11.833 -1 -17.5v-17.5v-146v-103c0 -6 -2.16699 -11.333 -6.5 -16s-9.83301 -7 -16.5 -7s-12.334 2.33301 -17.001 7s-7 10 -7 16v1v117v80v2v4v92v160v151v68
c0 6 2.33301 11.333 7 16s10.334 7 17.001 7s12.167 -2.33301 16.5 -7s6.5 -10 6.5 -16v-4v-92v-160v-33c5.33301 6.66699 11.333 12.667 18 18s13.667 10.333 21 15c18 10.667 37 18 57 22c8.66699 2 17 3.16699 25 3.5s16.667 0.5 26 0.5
c43.333 0 81.666 -13.667 114.999 -41zM148.998 394.999c1.33301 0.666992 2.16699 1.16699 2.5 1.5s-0.5 -0.166992 -2.5 -1.5zM350.999 369.999c0 -0.666992 0.332031 -1.16699 0.999023 -1.5s0.333984 0.166992 -0.999023 1.5z" />
    <glyph glyph-name="i" unicode="i" horiz-adv-x="250" 
d="M203 592c-7.33301 0 -13.5 2.5 -18.5 7.5s-7.5 10.833 -7.5 17.5c0 7.33301 2.5 13.5 7.5 18.5s11.167 7.5 18.5 7.5c6.66699 0 12.5 -2.5 17.5 -7.5s7.5 -11.167 7.5 -18.5c0 -6.66699 -2.5 -12.5 -7.5 -17.5s-10.833 -7.5 -17.5 -7.5zM181 461
c18 -7.33301 32.333 -19.499 43 -36.499s16 -35.167 16 -54.5v-97v-163v-86c0 -6 -2.33301 -11.333 -7 -16s-10.334 -7 -17.001 -7c-6 0 -11.333 2.33301 -16 7s-7 10 -7 16v2v103v162v59v28c-1.33301 4 -2.33301 6.66699 -3 8c0 1.33301 -0.166992 2.16602 -0.5 2.49902
s-0.5 1.16602 -0.5 2.49902l-1 1c-1.33301 2.66699 -3.33301 6 -6 10v1l-4 4l-5 5h-1l-9 6c-0.666992 0 -1.33398 0.333008 -2.00098 1c-1.33301 0 -2.16602 0.166992 -2.49902 0.5s-1.16602 0.5 -2.49902 0.5c-4 1.33301 -6.66699 2 -8 2
c-6.66699 1.33301 -13 1.83301 -19 1.5s-12.333 -0.5 -19 -0.5h-37c-6.66699 0 -12.167 2.16699 -16.5 6.5s-6.5 9.83301 -6.5 16.5s2.16699 12.334 6.5 17.001s9.83301 7 16.5 7h24h38h9c12.667 -0.666992 25 -3.66699 37 -9z" />
    <glyph glyph-name="j" unicode="j" horiz-adv-x="465" 
d="M308 568c-7.33301 0 -13.333 2.33301 -18 7s-7 10.667 -7 18s2.33301 13.333 7 18s10.667 7 18 7s13.333 -2.33301 18 -7s7 -10.667 7 -18s-2.33301 -13.333 -7 -18s-10.667 -7 -18 -7zM432 469c6.66699 0 12.165 -2.32129 16.498 -6.98828s6.5 -10 6.5 -16
c0 -6.66699 -2.16699 -12.334 -6.5 -17.001s-9.83301 -7 -16.5 -7h-36c-6 0 -12.167 0.166992 -18.5 0.5s-12.833 0.166016 -19.5 -0.500977c2.66699 0 5 0.333008 7 1l-12 -3c-0.666992 0 -2.33398 -0.666992 -5.00098 -2c-2 -0.666992 -1.83301 -0.333984 0.5 0.999023
s2.5 1.33301 0.5 0l-2 -1c-1.33301 -1.33301 -2.83301 -2.33301 -4.5 -3s-3.16699 -1.66699 -4.5 -3c-2.66699 -1.33301 -2.83398 -1.16602 -0.500977 0.500977s2.16602 1.5 -0.500977 -0.5l-4 -4c-1.33301 -1.33301 -2.33301 -2.66602 -3 -3.99902
c-0.666992 -0.666992 -1.16699 -1 -1.5 -1s-0.833008 -0.333008 -1.5 -1l2 2c-2.66699 -4 -4.66699 -7.33301 -6 -10c0 -0.666992 -0.166992 -1.16699 -0.5 -1.5s-0.5 -0.833008 -0.5 -1.5c1.33301 2 2 3.33301 2 4s-0.333008 0.333984 -1 -0.999023s-1 -2.33301 -1 -3
s-0.333008 -1.66699 -1 -3c-1.33301 -4 -2 -7.66699 -2 -11c0 2.66699 0.333008 5 1 7c-0.666992 -4 -1 -7.83301 -1 -11.5v-10.5v-36v-128v-163v-158v-108v-23c0 -14.667 -2 -29.167 -6 -43.5s-10 -27.833 -18 -40.5c-11.333 -17.333 -25.833 -32.166 -43.5 -44.499
s-36.834 -20.5 -57.501 -24.5c-12 -2 -24.333 -2.83301 -37 -2.5s-24.667 2.5 -36 6.5c-24 6.66699 -45.333 19 -64 37c-4.66699 4.66699 -7 10.167 -7 16.5s2.33301 11.833 7 16.5s10.167 7 16.5 7s11.833 -2.33301 16.5 -7l3.5 -3.5l3.5 -3.5l4 -2
c1.33301 -0.666992 0.333008 0 -3 2c0.666992 -0.666992 1.33398 -1.16699 2.00098 -1.5s1.33398 -0.833008 2.00098 -1.5c2.66699 -2 5.33398 -3.83301 8.00098 -5.5s5.66699 -3.16699 9 -4.5c1.33301 -0.666992 2.16602 -1 2.49902 -1s1.16602 -0.333008 2.49902 -1
c-3.33301 1.33301 -4.33301 1.66602 -3 0.999023s2.33301 -1 3 -1l9 -3c3.33301 -1.33301 6.66602 -2.33301 9.99902 -3s6.66602 -1 9.99902 -1h-6c11.333 -1.33301 23 -1.33301 35 0c-2.66699 0 -4.66699 -0.333008 -6 -1l10.5 2c3.66699 0.666992 7.16699 1.66699 10.5 3
c1.33301 0.666992 3 1.16699 5 1.5s3.66699 1.16602 5 2.49902c2.66699 1.33301 2.66699 1.16602 0 -0.500977s-3 -1.83398 -1 -0.500977c0.666992 0.666992 1.33398 1 2.00098 1c0.666992 0.666992 1.33398 1 2.00098 1s1.33398 0.333008 2.00098 1
c3.33301 1.33301 6.33301 3 9 5s5.66699 4 9 6c2.66699 2 2.83398 2.16699 0.500977 0.5s-2.5 -1.83398 -0.5 -0.500977c0.666992 0.666992 1.33398 1.16699 2.00098 1.5s1.33398 0.833008 2.00098 1.5l7 7c1.33301 1.33301 2.5 2.66602 3.5 3.99902
s2.16699 2.66602 3.5 3.99902s2.5 2.66602 3.5 3.99902s0.166992 0.333008 -2.5 -3c1.33301 1.33301 2 2.33301 2 3c2 3.33301 4 6.16602 6 8.49902s3.66699 5.16602 5 8.49902c0 2 0.666992 3.66699 2 5c1.33301 2 1.33301 1.83301 0 -0.5s-1.66602 -2.5 -0.999023 -0.5
c0.666992 0 1 0.666992 1 2l3 9c1.33301 3.33301 2.33301 6.66602 3 9.99902l2 10c-0.666992 -1.33301 -1 -3.33301 -1 -6c1.33301 7.33301 1.83301 15 1.5 23s-0.5 15.667 -0.5 23v113v159v162v124v34c0 6.66699 0.333008 13.167 1 19.5s2 12.5 4 18.5
c4 11.333 9.5 21.666 16.5 30.999s15.833 16.666 26.5 21.999c15.333 8.66699 32.333 13 51 13h61z" />
    <glyph glyph-name="k" unicode="k" horiz-adv-x="403" 
d="M381 517c5.33301 -3.33301 8.83301 -8.17285 10.5 -14.5059s0.833984 -12.166 -2.49902 -17.499l-13.5 -25l-13.5 -25l-38.5 -70l-38.5 -70l-18.5 -34.5l-18.5 -34.5l51 -93l27 -49l27 -48c3.33301 -5.33301 4.16602 -11.166 2.49902 -17.499
s-5.16699 -11.166 -10.5 -14.499s-11.166 -4.16602 -17.499 -2.49902s-11.166 5.16699 -14.499 10.5l-1 1l-29 53.5l-30 52.5c-14 26.667 -29.333 54.334 -46 83.001h-3h-107v-3v-125v-50c0 -6 -2.16699 -11.333 -6.5 -16s-9.83301 -7 -16.5 -7s-12.334 2.33301 -17.001 7
s-7 10 -7 16v50v125v162v163v125v50c0 6 2.33301 11.333 7 16s10.334 7 17.001 7s12.167 -2.33301 16.5 -7s6.5 -10 6.5 -16v-50v-125v-162v-114h110l21 39l38 70l38 70l22.5 41l22.5 41c3.33301 5.33301 8.16602 8.83301 14.499 10.5s12.166 0.833984 17.499 -2.49902z" />
    <glyph glyph-name="l" unicode="l" horiz-adv-x="107" 
d="M73 721c6.66699 0 12.334 -2.33301 17.001 -7s7 -10 7 -16v-50v-124v-162v-162v-125v-49c0 -6.66699 -2.33301 -12.334 -7 -17.001s-10.334 -7 -17.001 -7c-6 0 -11.333 2.33301 -16 7s-7 10.334 -7 17.001v49v124v162v162v125v50c0 6 2.33301 11.333 7 16s10 7 16 7z
" />
    <glyph glyph-name="m" unicode="m" horiz-adv-x="986" 
d="M885 439c18 -11.333 33.6748 -25.3232 47.0078 -41.9902s23.666 -34.667 30.999 -54c5.33301 -12 8.83301 -24.333 10.5 -37s2.5 -25.667 2.5 -39v-135v-106c0 -6.66699 -2.33301 -12.167 -7 -16.5s-10 -6.5 -16 -6.5c-6.66699 0 -12.334 2.16699 -17.001 6.5
s-7 9.83301 -7 16.5v14v144v69c0 7.33301 0.166992 14.166 0.5 20.499s-0.166992 13.166 -1.5 20.499c-0.666992 8.66699 -2.66699 17 -6 25l-2 6l-2 6c0 0.666992 -0.333008 1.33398 -1 2.00098l-3 6c-3.33301 8 -8 16 -14 24l-2 2
c-0.666992 0.666992 -1.16699 1.33398 -1.5 2.00098s-1.16602 1.33398 -2.49902 2.00098c-2 3.33301 -5 6.66602 -9 9.99902c-1.33301 1.33301 -2.83301 3 -4.5 5s-3.5 3.66699 -5.5 5l-2 2c-0.666992 0.666992 -1.33398 1 -2.00098 1c-0.666992 0.666992 -1.16699 1 -1.5 1
s-0.833008 0.333008 -1.5 1c-8 5.33301 -15.667 10 -23 14c-1.33301 0.666992 -2.33301 1 -3 1s-1.66699 0.333008 -3 1v1h-1c-2 1.33301 -4.16699 2.16602 -6.5 2.49902s-4.5 1.16602 -6.5 2.49902c-4 1.33301 -8 2.33301 -12 3s-7.66699 1.33398 -11 2.00098
c-5.33301 0.666992 -10.833 1 -16.5 1h-16.5h-15.5c-5 0 -10.167 -0.333008 -15.5 -1c-8.66699 -0.666992 -17 -2.66699 -25 -6l-6 -2l-6 -2c-0.666992 -0.666992 -1.33398 -1 -2.00098 -1l-6 -3c-4 -2 -8 -4.16699 -12 -6.5s-8 -4.83301 -12 -7.5
c0 -0.666992 -0.166992 -1 -0.5 -1s-0.5 -0.333008 -0.5 -1c-2.66699 -1.33301 -4.33398 -2.66602 -5.00098 -3.99902c-2.66699 -2 -6 -5 -10 -9c-1.33301 -1.33301 -2.83301 -3 -4.5 -5s-3.5 -3.66699 -5.5 -5c0 -2.66699 -1 -4 -3 -4
c0 -0.666992 -0.666992 -1.66699 -2 -3c-2.66699 -3.33301 -5 -7 -7 -11l-6 -12l-3 -6l-1 -1c-0.666992 -2.66699 -1.33398 -5 -2.00098 -7l-2 -6c-1.33301 -4 -2.33301 -8 -3 -12s-1.66699 -7.66699 -3 -11c0 -3.33301 -0.166992 -6.83301 -0.5 -10.5
s-0.5 -7.16699 -0.5 -10.5c0 -2.66699 -0.333008 -5 -1 -7v-135v-106c0 -6.66699 -2.16699 -12.167 -6.5 -16.5s-9.83301 -6.5 -16.5 -6.5s-12.334 2.16699 -17.001 6.5s-7 9.83301 -7 16.5v14v144v69c0 7.33301 0.166992 14.166 0.5 20.499s-0.166992 13.166 -1.5 20.499
c-0.666992 4.66699 -1.33398 9 -2.00098 13s-1.66699 8 -3 12c-1.33301 2 -2.16602 4 -2.49902 6s-1.16602 4 -2.49902 6c0 1.33301 -0.333008 2 -1 2l-3 6c-3.33301 8 -8 16 -14 24c0 0.666992 -0.166992 1 -0.5 1s-0.5 0.333008 -0.5 1
c-1.33301 0.666992 -2.16602 1.33398 -2.49902 2.00098s-0.833008 1.33398 -1.5 2.00098c-2 2.66699 -5 6 -9 10c-2 1.33301 -3.83301 3 -5.5 5s-3.5 3.66699 -5.5 5l-2 2c-0.666992 0.666992 -1.33398 1 -2.00098 1c-0.666992 0.666992 -1.16699 1 -1.5 1
s-0.833008 0.333008 -1.5 1c-3.33301 2.66699 -6.83301 5.16699 -10.5 7.5s-7.5 4.5 -11.5 6.5c-1.33301 0.666992 -2.33301 1 -3 1s-1.66699 0.333008 -3 1c-0.666992 0 -1 0.333008 -1 1h-1c-2 1.33301 -4 2.16602 -6 2.49902s-4.33301 1.16602 -7 2.49902
c-8.66699 2.66699 -16.334 4.33398 -23.001 5.00098c-5.33301 0.666992 -10.666 1 -15.999 1h-16h-16c-5.33301 0 -10.666 -0.333008 -15.999 -1c-8 -1.33301 -16 -3.33301 -24 -6c-2.66699 -0.666992 -5 -1.33398 -7 -2.00098l-6 -2
c-0.666992 -0.666992 -1.33398 -1 -2.00098 -1l-6 -3c-7.33301 -4 -15 -8.66699 -23 -14l-2 -2c-1.33301 -0.666992 -3 -2 -5 -4c-1.33301 -1.33301 -3 -2.83301 -5 -4.5s-3.66699 -3.16699 -5 -4.5s-2.83301 -3 -4.5 -5s-3.16699 -3.66699 -4.5 -5
c-0.666992 -0.666992 -1.33398 -1.5 -2.00098 -2.5s-1.33398 -1.5 -2.00098 -1.5c0 -0.666992 -0.166992 -1.16699 -0.5 -1.5s-0.5 -0.833008 -0.5 -1.5c-5.33301 -8 -10 -15.667 -14 -23l-3 -6c0 -0.666992 -0.333008 -1 -1 -1c-0.666992 -2.66699 -1.33398 -5 -2.00098 -7
l-2 -6c-1.33301 -4 -2.33301 -8 -3 -12s-1.33398 -7.66699 -2.00098 -11s-1.16699 -6.83301 -1.5 -10.5s-0.5 -7.16699 -0.5 -10.5v-4v-157v-86c0 -6.66699 -2.33301 -12.334 -7 -17.001s-10 -7 -16 -7c-6.66699 0 -12.334 2.33301 -17.001 7s-7 10.334 -7 17.001v100v162
v59c0 4.66699 0.166992 9.16699 0.5 13.5s0.166016 9.16602 -0.500977 14.499c-0.666992 1.33301 -1 2.66602 -1 3.99902s-0.333008 2.66602 -1 3.99902s-1 2.16602 -1 2.49902s-0.333008 1.16602 -1 2.49902c0 0.666992 -0.333008 1.33398 -1 2.00098
c-0.666992 2 -1.5 3.83301 -2.5 5.5s-2.16699 3.16699 -3.5 4.5c0 0.666992 -0.166992 1 -0.5 1s-0.5 0.333008 -0.5 1l-4 4c-2 2 -3.66699 3.33301 -5 4c-2 2 -5.66699 4.33301 -11 7h-1c-2.66699 1.33301 -4.66699 2 -6 2c-1.33301 0.666992 -2.66602 1 -3.99902 1
s-2.66602 0.333008 -3.99902 1c-6 0.666992 -12.167 0.833984 -18.5 0.500977s-12.833 -0.5 -19.5 -0.5h-38c-6.66699 0 -12.167 2.33301 -16.5 7s-6.5 10.334 -6.5 17.001c0 6 2.16699 11.333 6.5 16s9.83301 7 16.5 7h23h39c6.66699 0 13.334 -0.333008 20.001 -1
s13.334 -2.33398 20.001 -5.00098c11.333 -4 21.5 -9.5 30.5 -16.5s16.5 -15.833 22.5 -26.5c5.33301 -7.33301 9 -15.666 11 -24.999c17.333 22 39 39.667 65 53c9.33301 4.66699 18.833 8.5 28.5 11.5s19.5 5.16699 29.5 6.5c8 1.33301 16 2.16602 24 2.49902
s16 0.5 24 0.5c19.333 0 38.166 -2.33301 56.499 -7s35.833 -12.334 52.5 -23.001c28.667 -19.333 51 -44 67 -74c9.33301 17.333 21.166 33.166 35.499 47.499s30.5 26.166 48.5 35.499c9.33301 4.66699 18.833 8.5 28.5 11.5s19.834 5.16699 30.501 6.5
c8 1.33301 15.833 2.16602 23.5 2.49902s15.5 0.5 23.5 0.5c19.333 0 38.333 -2.33301 57 -7s36 -12.334 52 -23.001zM185.008 401.01c-0.666992 1.33301 -1.16699 2.16699 -1.5 2.5s0.166992 -0.5 1.5 -2.5zM334.008 411.011l-3 -1.5
c-0.666992 -0.333008 0.333008 0.166992 3 1.5zM551.008 332.011c-1.33301 2.66699 -1.83301 3.5 -1.5 2.5s0.833008 -1.83301 1.5 -2.5zM701.008 411.011l-3 -1.5c-0.666992 -0.333008 0.333008 0.166992 3 1.5zM918.008 332.011c-1.33301 2.66699 -1.83301 3.5 -1.5 2.5
s0.833008 -1.83301 1.5 -2.5z" />
    <glyph glyph-name="n" unicode="n" horiz-adv-x="620" 
d="M521 438c36 -24 61.6689 -55.998 77.002 -95.998c4.66699 -12 7.83398 -24.167 9.50098 -36.5s2.5 -24.833 2.5 -37.5v-136v-106c0 -6.66699 -2.16699 -12.167 -6.5 -16.5s-9.83301 -6.5 -16.5 -6.5s-12.167 2.16699 -16.5 6.5s-6.5 9.83301 -6.5 16.5v14v145v68v21
c0 6.66699 -0.666992 13.667 -2 21l-2 12c-0.666992 4 -1.66699 8 -3 12c-1.33301 2.66699 -2.16602 5 -2.49902 7s-1.16602 4 -2.49902 6c0 0.666992 -0.333008 1.33398 -1 2.00098c0 1.33301 -0.666992 3.33301 -2 6c-2.66699 4 -5 8 -7 12s-4.66699 7.66699 -8 11
c0 0.666992 -0.333008 1.33398 -1 2.00098c-0.666992 1.33301 -1.33398 2.16602 -2.00098 2.49902s-1.33398 1.16602 -2.00098 2.49902l-9 9c-1.33301 2 -3 3.83301 -5 5.5s-3.66699 3.16699 -5 4.5l-3 3c-0.666992 0 -1.33398 0.333008 -2.00098 1s-1.33398 1 -2.00098 1
c-8 5.33301 -15.667 10 -23 14c-2.66699 1.33301 -5 2.33301 -7 3c0 0.666992 -0.333008 1 -1 1c-3.33301 1.33301 -7.66602 2.66602 -12.999 3.99902c-4 1.33301 -8 2.33301 -12 3s-7.66699 1.66699 -11 3c-5.33301 0.666992 -10.833 1 -16.5 1h-16.5h-15.5
c-5 0 -10.167 -0.333008 -15.5 -1c-4.66699 -1.33301 -9 -2.33301 -13 -3s-8 -1.66699 -12 -3l-6 -2l-6 -2c-0.666992 -0.666992 -1.33398 -1 -2.00098 -1l-6 -3c-4 -2 -8 -4.16699 -12 -6.5s-8 -4.83301 -12 -7.5l-2 -2
c-0.666992 -0.666992 -1.33398 -1.16699 -2.00098 -1.5s-1.33398 -1.16602 -2.00098 -2.49902c-4.66699 -2.66699 -8 -5.66699 -10 -9c-4 -4 -7 -7.33301 -9 -10l-3 -3c-0.666992 -0.666992 -1.16699 -1.33398 -1.5 -2.00098s-0.833008 -1.33398 -1.5 -2.00098
c-4.66699 -6 -9 -13.333 -13 -22c-0.666992 -1.33301 -1.33398 -2.5 -2.00098 -3.5s-1.33398 -2.16699 -2.00098 -3.5v-1v-1c-1.33301 -2 -2.16602 -4 -2.49902 -6s-1.16602 -4.33301 -2.49902 -7c-2.66699 -8.66699 -4.33398 -16.334 -5.00098 -23.001
c-0.666992 -3.33301 -1 -6.83301 -1 -10.5v-10.5c0 -1.33301 -0.333008 -2.66602 -1 -3.99902v-158v-86c0 -6.66699 -2.16699 -12.167 -6.5 -16.5s-9.83301 -6.5 -16.5 -6.5s-12.167 2.16699 -16.5 6.5s-6.5 9.83301 -6.5 16.5v1v101v161v59v14.5
c0 4.33301 -0.333008 8.83301 -1 13.5c0 2 -0.666992 5 -2 9c0 0.666992 -0.166992 1.33398 -0.5 2.00098s-0.5 1.66699 -0.5 3c-0.666992 0 -1 0.666992 -1 2c-1.33301 1.33301 -2.5 3 -3.5 5s-2.16699 3.66699 -3.5 5l-1 1c-0.666992 1.33301 -1.66699 2.66602 -3 3.99902
s-2.33301 2.16602 -3 2.49902s-1.33398 1.16602 -2.00098 2.49902h-1c-1.33301 1.33301 -3 2.5 -5 3.5l-5 2.5c-0.666992 0 -1 0.166992 -1 0.5s-0.333008 0.5 -1 0.5c-1.33301 0.666992 -2.16602 1 -2.49902 1s-1.16602 0.333008 -2.49902 1s-2.66602 1 -3.99902 1
s-2.66602 0.333008 -3.99902 1c-6.66699 0.666992 -13.167 0.833984 -19.5 0.500977s-12.833 -0.5 -19.5 -0.5h-38c-6 0 -11.333 2.33301 -16 7s-7 10 -7 16c0 6.66699 2.33301 12.334 7 17.001s10 7 16 7h26h37c7.33301 0 14.333 -0.333008 21 -1s13.667 -2.66699 21 -6
c10.667 -4.66699 20.5 -10.5 29.5 -17.5s16.5 -15.833 22.5 -26.5c2 -3.33301 3.83301 -7 5.5 -11s3.16699 -8 4.5 -12c17.333 22.667 39.333 40.667 66 54c21.333 9.33301 42.666 15.333 63.999 18c7.33301 1.33301 14.333 2 21 2h21c19.333 0 38.333 -2.5 57 -7.5
s36 -13.167 52 -24.5zM185.002 402.002c-1.33301 2 -1.83301 2.66797 -1.5 2.00098s0.833008 -1.33398 1.5 -2.00098zM255.002 331.003c-0.666992 -1.33301 -1 -1.83301 -1 -1.5s0.333008 0.833008 1 1.5zM334.002 411.003c-0.666992 0 -1.33301 -0.167969 -2 -0.500977
s0 -0.166016 2 0.500977zM472.003 412.002c-0.666992 0 -1.16699 0.167969 -1.5 0.500977s0.166992 0.166016 1.5 -0.500977zM552.003 333.003l-1.5 1.5c-0.333008 0.333008 0.166992 -0.166992 1.5 -1.5z" />
    <glyph glyph-name="o" unicode="o" horiz-adv-x="527" 
d="M401 438c35.333 -21.333 63.333 -49.334 84 -84.001c21.333 -36.667 32 -76 32 -118c0 -41.333 -10.333 -80.166 -31 -116.499s-49 -64.833 -85 -85.5c-36 -21.333 -75.333 -32 -118 -32s-82 10.667 -118 32c-35.333 21.333 -63.333 49.833 -84 85.5s-31 74.5 -31 116.5
c0 41.333 10.167 80 30.5 116s48.5 64.667 84.5 86c36 20.667 75.333 31.167 118 31.5s82 -10.167 118 -31.5zM432 349.999c0.666992 -1.33301 1.16699 -2.16699 1.5 -2.5s-0.166992 0.5 -1.5 2.5zM397 384.998c-1.33301 0.666992 -1.83301 1 -1.5 1
s0.833008 -0.333008 1.5 -1zM169 383.998c1.33301 0.666992 2.16699 1.16699 2.5 1.5s-0.5 -0.166992 -2.5 -1.5zM134.001 348.998c-0.666992 -1.33301 -0.833008 -1.83301 -0.5 -1.5s0.5 0.833008 0.5 1.5zM432.002 122.998c0.666992 0.666992 1.16699 1 1.5 1
s-0.166992 -0.333008 -1.5 -1zM469.002 209.998c0.666992 4.66699 0.99707 9.00488 0.99707 13.0049v13v12c0 4 -0.333008 8 -1 12c-2 14 -5.66699 28.667 -11 44c0.666992 0 0 1 -2 3c-0.666992 0.666992 -1 1.66699 -1 3s-0.333008 2 -1 2l-6 12c-4 8 -9 16 -15 24l-2 2
c-0.666992 1.33301 -1.16699 2.16602 -1.5 2.49902s-0.833008 1.16602 -1.5 2.49902c-1.33301 1.33301 -2.83301 3 -4.5 5s-3.16699 3.66699 -4.5 5c-3.33301 3.33301 -6.66602 6.5 -9.99902 9.5s-7 5.83301 -11 8.5v1c-0.666992 0 -1 0.166992 -1 0.5s-0.333008 0.5 -1 0.5
c-1.33301 0.666992 -2.16602 1.33398 -2.49902 2.00098s-1.16602 1.33398 -2.49902 2.00098c-2 1.33301 -3.83301 2.5 -5.5 3.5s-3.5 2.16699 -5.5 3.5c-8 4.66699 -16 8.66699 -24 12l-1 1c-1.33301 0 -2.33301 0.333008 -3 1c-1.33301 0.666992 -2.33301 1 -3 1
s-1.66699 0.333008 -3 1c-2 1.33301 -4.16699 2.16602 -6.5 2.49902s-4.5 0.833008 -6.5 1.5c-4 1.33301 -8 2.33301 -12 3l-12 2c-17.333 2 -34 2 -50 0c-7.33301 -1.33301 -14.5 -2.83301 -21.5 -4.5s-14.167 -3.83398 -21.5 -6.50098
c-0.666992 0 -1.33398 -0.166992 -2.00098 -0.5s-1.33398 -0.5 -2.00098 -0.5c-0.666992 -0.666992 -1.33398 -1 -2.00098 -1c-0.666992 -0.666992 -1.16699 -1 -1.5 -1s-0.833008 -0.333008 -1.5 -1c-4 -1.33301 -8 -3.33301 -12 -6c-7.33301 -4 -15 -8.66699 -23 -14
c-1.33301 -1.33301 -2.33301 -2 -3 -2c-1.33301 -0.666992 -2.16602 -1.33398 -2.49902 -2.00098s-1.16602 -1.33398 -2.49902 -2.00098c-4 -4 -7.33301 -7 -10 -9c-3.33301 -3.33301 -6.33301 -6.66602 -9 -9.99902s-5.66699 -6.66602 -9 -9.99902l-1 -1
c0 -0.666992 -0.333008 -1 -1 -1c-0.666992 -1.33301 -1.33398 -2.33301 -2.00098 -3s-1.33398 -1.66699 -2.00098 -3c-1.33301 -1.33301 -2.5 -3 -3.5 -5s-2.16699 -4 -3.5 -6c-2 -4 -4.16699 -8 -6.5 -12s-4.16602 -8 -5.49902 -12
c-0.666992 -0.666992 -1 -1.16699 -1 -1.5s-0.333008 -0.833008 -1 -1.5c0 -2 -0.666992 -4.33301 -2 -7l-2 -6c-0.666992 -2 -1.33398 -4.33301 -2.00098 -7c-1.33301 -4 -2.33301 -8 -3 -12l-2 -12c-2 -16.667 -2 -33.334 0 -50.001
c1.33301 -7.33301 2.83301 -14.5 4.5 -21.5s3.83398 -14.167 6.50098 -21.5c0 -0.666992 0.166992 -1.33398 0.5 -2.00098s0.5 -1.33398 0.5 -2.00098s0.333008 -1.33398 1 -2.00098s1 -1.16699 1 -1.5s0.333008 -0.833008 1 -1.5l6 -12c4 -7.33301 8.66699 -15 14 -23
c1.33301 -1.33301 2 -2.33301 2 -3c1.33301 -0.666992 2.66602 -2.33398 3.99902 -5.00098l9 -9c3.33301 -3.33301 6.66602 -6.5 9.99902 -9.5s6.66602 -6.16699 9.99902 -9.5c0.666992 0 1 -0.333008 1 -1c0.666992 0 1.33398 -0.333008 2.00098 -1
s2.33398 -1.66699 5.00098 -3c2 -1.33301 3.83301 -2.66602 5.5 -3.99902s3.5 -2.66602 5.5 -3.99902l24 -12c0.666992 0 1.16699 -0.166992 1.5 -0.5s0.833008 -0.5 1.5 -0.5c2 -0.666992 4.33301 -1.66699 7 -3c5.33301 -1.33301 9.66602 -2.66602 12.999 -3.99902
c4 -1.33301 8 -2.33301 12 -3l12 -2c16.667 -2 33.334 -2 50.001 0c7.33301 1.33301 14.5 2.83301 21.5 4.5s14.167 3.83398 21.5 6.50098l6 3c0.666992 0 1.16699 0.166992 1.5 0.5s0.833008 0.5 1.5 0.5l12 6c8.66699 4.66699 16.334 9.66699 23.001 15
c0.666992 0 1.66699 0.666992 3 2c1.33301 0.666992 3 2 5 4c1.33301 1.33301 2.83301 2.66602 4.5 3.99902s3.5 2.66602 5.5 3.99902l18 21l1 1l1 1c0.666992 1.33301 2 3 4 5c1.33301 2 2.5 4 3.5 6s2.16699 3.66699 3.5 5l12 24v1c0.666992 0.666992 1 1.66699 1 3l3 6
c0.666992 2 1.33398 4.16699 2.00098 6.5s1.33398 4.5 2.00098 6.5c1.33301 4 2.33301 8 3 12z" />
    <glyph glyph-name="p" unicode="p" horiz-adv-x="682" 
d="M670 273c4.66699 -40 -0.84082 -79.3398 -16.5078 -118.007s-39.5 -70.667 -71.5 -96c-15.333 -13.333 -32.166 -24.5 -50.499 -33.5s-37.5 -15.167 -57.5 -18.5c-23.333 -4.66699 -46.666 -6.16699 -69.999 -4.5s-45.666 6.83398 -66.999 15.501
c-12 5.33301 -23.5 11 -34.5 17s-21.5 13 -31.5 21c-3.33301 3.33301 -6.83301 6.5 -10.5 9.5s-7.16699 6.16699 -10.5 9.5c-3.33301 2.66699 -6.16602 5.16699 -8.49902 7.5s-5.16602 4.83301 -8.49902 7.5v-90v-160v-121v-48c0 -6 -2.16699 -11.333 -6.5 -16
s-9.83301 -7 -16.5 -7s-12.167 2.33301 -16.5 7s-6.5 10 -6.5 16v5v74v137v165v159v118v34v9c0 2.66699 -0.333008 5.33398 -1 8.00098c0 2 -0.666992 5 -2 9c0 1.33301 -0.333008 2.33301 -1 3c0 0.666992 -0.166992 1.16699 -0.5 1.5s-0.5 0.833008 -0.5 1.5
c-1.33301 1.33301 -2.16602 2.66602 -2.49902 3.99902s-1.16602 2.66602 -2.49902 3.99902c-0.666992 0.666992 -1 1.33398 -1 2.00098c-2 0.666992 -3.33301 2 -4 4c-1.33301 0.666992 -2.66602 1.66699 -3.99902 3l-1 1c-4 2.66699 -7 4.33398 -9 5.00098
c-0.666992 0 -1 0.333008 -1 1c-1.33301 0 -2.16602 0.166992 -2.49902 0.5s-1.16602 0.5 -2.49902 0.5c-4 1.33301 -6.66699 2 -8 2c-6 0.666992 -12 0.833984 -18 0.500977s-12 -0.5 -18 -0.5h-35c-6.66699 0 -12.167 2.33301 -16.5 7s-6.5 10.334 -6.5 17.001
s2.16699 12.167 6.5 16.5s9.83301 6.5 16.5 6.5h47h17c6 0 11.667 -0.333008 17 -1c10.667 -2 21 -5.66699 31 -11s18.333 -12.333 25 -21c9.33301 -11.333 16 -24 20 -38c17.333 22.667 37.333 41.334 60 56.001c37.333 24.667 78.5 38 123.5 40s87.167 -7.33301 126.5 -28
c17.333 -9.33301 33.666 -20.666 48.999 -33.999s28.666 -28.333 39.999 -45c11.333 -17.333 20.5 -35.666 27.5 -54.999s11.5 -39 13.5 -59zM608.992 325.993c0 0.666992 -0.332031 1.5 -0.999023 2.5s-0.333984 0.166992 0.999023 -2.5zM546.993 405.993
c1.33301 -0.666992 2.16699 -1.16699 2.5 -1.5s-0.5 0.166992 -2.5 1.5zM502.994 63.9932c0.666992 0 1.5 0.332031 2.5 0.999023s0.166992 0.333984 -2.5 -0.999023zM582.994 125.992c-0.666992 -1.33301 -1.16699 -2.16699 -1.5 -2.5s0.166992 0.5 1.5 2.5z
M622.994 220.991c2 18 2.00293 36.0117 0.00292969 54.0117c-0.666992 9.33301 -2.66699 18.666 -6 27.999c-1.33301 3.33301 -2.16602 6.16602 -2.49902 8.49902s-1.16602 4.5 -2.49902 6.5c-0.666992 1.33301 -1.16699 2.66602 -1.5 3.99902
s-0.833008 2.66602 -1.5 3.99902l-1 1c-1.33301 4.66699 -3.16602 9 -5.49902 13s-4.5 8 -6.5 12c-4 5.33301 -6.66699 9.33301 -8 12c-1.33301 1.33301 -2.16602 2.33301 -2.49902 3s-0.833008 1.33398 -1.5 2.00098c0 0.666992 -0.333008 1 -1 1v1
c-3.33301 3.33301 -6.5 6.66602 -9.5 9.99902s-6.16699 6.66602 -9.5 9.99902l-10 10c-1.33301 0.666992 -3 2 -5 4c-0.666992 0 -1 0.166992 -1 0.5s-0.333008 0.5 -1 0.5c-6.66699 5.33301 -14.334 10.333 -23.001 15c-3.33301 2.66699 -7.66602 5 -12.999 7l-6 3l-2 1
c-8.66699 3.33301 -17.167 6.16602 -25.5 8.49902s-16.833 4.16602 -25.5 5.49902c-18 2 -36 2 -54 0c-8.66699 -1.33301 -17 -3 -25 -5s-16 -4.66699 -24 -8c-0.666992 0 -1 -0.333008 -1 -1c-1.33301 0 -2.33301 -0.333008 -3 -1
c-1.33301 -0.666992 -2.5 -1.16699 -3.5 -1.5s-2.16699 -0.833008 -3.5 -1.5c-2 -1.33301 -4.16699 -2.5 -6.5 -3.5s-4.5 -2.16699 -6.5 -3.5c-2.66699 -1.33301 -5.16699 -2.83301 -7.5 -4.5l-6.5 -4.5c-1.33301 -0.666992 -2.33301 -1.33398 -3 -2.00098
s-1.66699 -1.33398 -3 -2.00098l-2 -2c-8.66699 -6.66699 -16.334 -13.667 -23.001 -21l-6 -6c-2 -2 -3.66699 -4 -5 -6c-0.666992 -1.33301 -1.5 -2.66602 -2.5 -3.99902s-0.5 -0.333008 1.5 3v-1c-11.333 -14.667 -22.666 -31 -33.999 -49l-1 -1v-21v-135v-12
c1.33301 -0.666992 2.66602 -1.66699 3.99902 -3l9 -9l24 -22l24 -22c1.33301 -1.33301 2.83301 -2.5 4.5 -3.5s3.16699 -2.16699 4.5 -3.5s2.33301 -2 3 -2c2.66699 -2.66699 4.66699 -4.33398 6 -5.00098l14.5 -9c4.33301 -2.66699 9.16602 -5 14.499 -7
c2.66699 -1.33301 4.33398 -2.33301 5.00098 -3h2c1.33301 -1.33301 3 -2 5 -2l15 -6c5.33301 -1.33301 10.333 -2.5 15 -3.5s9.66699 -1.83301 15 -2.5c18 -2 36 -2 54 0c10 1.33301 19.333 3.33301 28 6c3.33301 1.33301 6.16602 2.16602 8.49902 2.49902
s4.5 1.16602 6.5 2.49902c1.33301 0.666992 2.66602 1.16699 3.99902 1.5s2.66602 0.833008 3.99902 1.5l1 1c4.66699 1.33301 9 3.16602 13 5.49902s8 4.5 12 6.5c5.33301 4 9.33301 6.66699 12 8c1.33301 1.33301 2.33301 2.16602 3 2.49902s1.33398 0.833008 2.00098 1.5
c0.666992 0 1 0.333008 1 1h1c3.33301 3.33301 6.66602 6.5 9.99902 9.5s6.66602 6.16699 9.99902 9.5l10 10c0.666992 1.33301 2 3 4 5c0 0.666992 0.333008 1.33398 1 2.00098c5.33301 6.66699 10.333 14.334 15 23.001c2.66699 3.33301 5 7.66602 7 12.999l3 6l1 2
c3.33301 8.66699 6.16602 17.167 8.49902 25.5s4.16602 16.833 5.49902 25.5z" />
    <glyph glyph-name="q" unicode="q" horiz-adv-x="684" 
d="M650 469c6.66699 0 12.332 -2.33203 16.999 -6.99902s7 -10 7 -16c0 -6.66699 -2.33301 -12.334 -7 -17.001s-10.334 -7 -17.001 -7h-36c-5.33301 0 -11 0.166992 -17 0.5s-12 0.166016 -18 -0.500977c-1.33301 -0.666992 -2.83301 -1 -4.5 -1
s-3.16699 -0.333008 -4.5 -1c-0.666992 -0.666992 -1.66699 -1 -3 -1l-2 -2c-4 -1.33301 -7 -3 -9 -5c-0.666992 0 -1 -0.333008 -1 -1c-1.33301 -0.666992 -2.66602 -1.66699 -3.99902 -3l-4 -4v-1l-6 -9c0 -0.666992 -0.166992 -1 -0.5 -1s-0.5 -0.333008 -0.5 -1
s-0.166992 -1.33398 -0.5 -2.00098s-0.5 -1.33398 -0.5 -2.00098c-1.33301 -4 -2 -6.66699 -2 -8c0 -2 -0.166992 -3.83301 -0.5 -5.5s-0.5 -3.16699 -0.5 -4.5v-71v-135v-165v-160v-121v-48c0 -6.66699 -2.16699 -12.334 -6.5 -17.001s-9.83301 -7 -16.5 -7
s-12.167 2.33301 -16.5 7s-6.5 10.334 -6.5 17.001v7v80v140v165v27c-1.33301 -1.33301 -2.66602 -2.5 -3.99902 -3.5s-2.66602 -2.16699 -3.99902 -3.5l-26 -23c-8.66699 -7.33301 -17.667 -14.333 -27 -21c-19.333 -12 -39.833 -21.167 -61.5 -27.5
s-43.667 -9.66602 -66 -9.99902s-44.5 2.33398 -66.5 8.00098s-42.667 14.5 -62 26.5c-34.667 20 -63 47.667 -85 83c-11.333 17.333 -20 35.833 -26 55.5s-9.66699 39.834 -11 60.501c-2 42 6.33301 82.667 25 122c18 36.667 43.667 67 77 91
c15.333 11.333 32.166 20.833 50.499 28.5s37.166 12.834 56.499 15.501c11.333 1.33301 22.5 2.16602 33.5 2.49902s22.167 -0.166992 33.5 -1.5c25.333 -3.33301 49 -9.66602 71 -18.999c20.667 -9.33301 39.667 -21.333 57 -36c14.667 -11.333 27.334 -24.333 38.001 -39
c0.666992 1.33301 1 2.33301 1 3s0.333008 1.33398 1 2.00098c4 11.333 9.5 21.666 16.5 30.999s15.833 16.666 26.5 21.999c15.333 8.66699 32.333 13 51 13h61zM455.998 370.001l1.5 -1.5c0.333008 -0.333008 -0.166992 0.166992 -1.5 1.5zM219.998 432.001
c-2.66699 -1.33301 -3.5 -1.83301 -2.5 -1.5s1.83301 0.833008 2.5 1.5zM139.998 370.001c0.666992 0.666992 1.16699 1.33301 1.5 2s-0.166992 0 -1.5 -2zM112.998 170c1.33301 -2.66699 1.83301 -3.66699 1.5 -3zM485.998 149
c0.666992 0.666992 1.3291 1.16113 1.99609 1.49414s1.33398 0.833008 2.00098 1.5v68v101l-1 1c-4.66699 5.33301 -8.33398 11 -11.001 17l-21 30l-1 1c0 0.666992 -0.333008 1 -1 1c-1.33301 1.33301 -2.16602 2.33301 -2.49902 3s-1.16602 1.66699 -2.49902 3
c-6.66699 8 -14 15.333 -22 22c-2.66699 2.66699 -5 4.66699 -7 6l-1 1l-1 1l-6 4l-6 4c-9.33301 6 -18.666 11 -27.999 15l-4 2c-2.66699 1.33301 -5 2.33301 -7 3c-2.66699 0.666992 -7.33398 2.33398 -14.001 5.00098c-5.33301 1.33301 -10.333 2.33301 -15 3
s-9.33398 1.66699 -14.001 3c-18 2 -36 2 -54 0c-5.33301 -1.33301 -10.166 -2.33301 -14.499 -3s-9.16602 -1.66699 -14.499 -3c-2.66699 -1.33301 -5.16699 -2.16602 -7.5 -2.49902s-4.83301 -1.16602 -7.5 -2.49902s-5 -2.33301 -7 -3l-2 -1l-12 -6
c-4 -2 -8 -4.33301 -12 -7c-2.66699 -1.33301 -6.66699 -4 -12 -8c-2.66699 -1.33301 -4.66699 -2.66602 -6 -3.99902h-1v-1l-10.5 -8.5c-3.66699 -3 -7.16699 -6.16699 -10.5 -9.5c-1.33301 -2 -2.83301 -3.83301 -4.5 -5.5s-3.16699 -3.5 -4.5 -5.5
c-1.33301 -0.666992 -2.66602 -2.33398 -3.99902 -5.00098c-0.666992 0 -1 -0.166992 -1 -0.5s-0.333008 -0.5 -1 -0.5l-7.5 -11.5l-7.5 -11.5c-1.33301 -2 -2.5 -4.16699 -3.5 -6.5s-2.16699 -4.5 -3.5 -6.5c-1.33301 -2.66699 -2 -4.66699 -2 -6
c-0.666992 -0.666992 -1 -1.16699 -1 -1.5s-0.333008 -0.833008 -1 -1.5c-6.66699 -17.333 -11.334 -34.333 -14.001 -51c-2 -18 -2 -35.667 0 -53c1.33301 -5.33301 2.5 -10.333 3.5 -15s2.16699 -9.33398 3.5 -14.001c0.666992 -3.33301 2.33398 -8.33301 5.00098 -15
c0 -2 0.666992 -4.33301 2 -7c0.666992 -0.666992 1 -1.33398 1 -2.00098c4 -10 8.33301 -18.333 13 -25l4 -6l4 -6c0.666992 -1.33301 2 -3 4 -5v-1c0.666992 0 1 -0.333008 1 -1c3.33301 -3.33301 6.33301 -6.66602 9 -9.99902s5.66699 -6.66602 9 -9.99902
c2 -1.33301 3.83301 -3 5.5 -5s3.5 -3.66699 5.5 -5c1.33301 -0.666992 3 -2 5 -4c0.666992 0 1 -0.166992 1 -0.5s0.333008 -0.5 1 -0.5c6.66699 -5.33301 14.334 -10.333 23.001 -15c2.66699 -2 6.66699 -4.33301 12 -7l6 -3c0.666992 0 1.16699 -0.166992 1.5 -0.5
s0.833008 -0.5 1.5 -0.5c8 -3.33301 16.167 -6.16602 24.5 -8.49902s17.166 -4.16602 26.499 -5.49902c18 -2 35.667 -2 53 0c13.333 2 28.333 5.66699 45 11l6 3c0.666992 0 1.66699 0.333008 3 1s2.33301 1 3 1c2 1.33301 4.16699 2.5 6.5 3.5s4.83301 2.16699 7.5 3.5
l15 9c1.33301 1.33301 2.33301 2.16602 3 2.49902s1.66699 1.16602 3 2.49902c0.666992 0.666992 1.5 1.33398 2.5 2.00098s1.83301 1.33398 2.5 2.00098c3.33301 2.66699 6.5 5.33398 9.5 8.00098s6.16699 5.66699 9.5 9l23.5 21c7.66699 6.66699 15.167 13.667 22.5 21z
" />
    <glyph glyph-name="r" unicode="r" horiz-adv-x="438" 
d="M404 469c6.66699 0 12.3359 -2.32812 17.0029 -6.99512s7 -10 7 -16c0 -6.66699 -2.33301 -12.334 -7 -17.001s-10.334 -7 -17.001 -7h-10.5c-3.66699 0 -7.5 -0.333008 -11.5 -1c-2 -0.666992 -4 -1 -6 -1s-4 -0.333008 -6 -1c-9.33301 -2 -18.333 -5 -27 -9
c-1.33301 0 -2 -0.333008 -2 -1h-1c-1.33301 -0.666992 -2.33301 -1 -3 -1s-1.66699 -0.333008 -3 -1c-5.33301 -2.66699 -9 -5 -11 -7l-7 -3.5c-2 -1 -4 -2.16699 -6 -3.5c-0.666992 -1.33301 -2.33398 -2.66602 -5.00098 -3.99902v-1h-1
c-3.33301 -3.33301 -6.66602 -6.5 -9.99902 -9.5s-6.66602 -6.16699 -9.99902 -9.5c-1.33301 -1.33301 -2.83301 -3 -4.5 -5s-3.16699 -3.66699 -4.5 -5c-0.666992 -0.666992 -1 -1.16699 -1 -1.5s-0.333008 -0.833008 -1 -1.5s-1.66699 -2.33398 -3 -5.00098
c-3.33301 -4 -6 -8 -8 -12l-6 -12c-0.666992 -0.666992 -1 -1.16699 -1 -1.5s-0.333008 -0.833008 -1 -1.5s-1 -1.66699 -1 -3c0 -0.666992 -0.166992 -1.16699 -0.5 -1.5s-0.5 -0.833008 -0.5 -1.5l-2 -6c-0.666992 -2 -1.33398 -4.33301 -2.00098 -7l-6 -24
c0 -3.33301 -0.166992 -7 -0.5 -11s-0.5 -7.66699 -0.5 -11v-149v-86c0 -6.66699 -2.16699 -12.167 -6.5 -16.5s-9.83301 -6.5 -16.5 -6.5s-12.334 2.16699 -17.001 6.5s-7 9.83301 -7 16.5v2v103v161v59c0 4.66699 0.166992 9.33398 0.5 14.001
s0.166016 9.33398 -0.500977 14.001c0 2 -0.666992 5 -2 9c0 0.666992 -0.166992 1.16699 -0.5 1.5s-0.5 1.16602 -0.5 2.49902l-2 2c-0.666992 3.33301 -2.66699 6.66602 -6 9.99902l-1 1c-0.666992 1.33301 -1.66699 2.66602 -3 3.99902s-2.33301 2.16602 -3 2.49902
s-1.33398 1.16602 -2.00098 2.49902h-1l-9 6c-1.33301 0 -2 0.333008 -2 1c-1.33301 0 -2.33301 0.166992 -3 0.5s-1.33398 0.5 -2.00098 0.5c-4 1.33301 -7 2 -9 2c-6 1.33301 -12.167 1.83301 -18.5 1.5s-12.833 -0.5 -19.5 -0.5h-37
c-6.66699 0 -12.167 2.16699 -16.5 6.5s-6.5 9.83301 -6.5 16.5s2.16699 12.167 6.5 16.5s9.83301 6.5 16.5 6.5h26h37c1.33301 0 3 0.166992 5 0.5s3.66699 0.166016 5 -0.500977c12.667 -0.666992 25 -3.66699 37 -9c14.667 -6.66699 26.834 -16.5 36.501 -29.5
s16.167 -27.167 19.5 -42.5c14 18 30.333 33.333 49 46c34.667 23.333 73.334 35 116.001 35zM162.002 418.005c1.33301 0 2.16699 -0.167969 2.5 -0.500977s-0.5 -0.166016 -2.5 0.500977z" />
    <glyph glyph-name="s" unicode="s" horiz-adv-x="322" 
d="M187 259c22.667 -1.33301 43.8281 -7.82812 63.4951 -19.4951s34.834 -27.5 45.501 -47.5s16 -41.5 16 -64.5s-5.66699 -44.167 -17 -63.5c-11.333 -20 -26.833 -35.833 -46.5 -47.5s-40.834 -17.834 -63.501 -18.501c-10.667 0 -21 0.666992 -31 2
s-20 3.66602 -30 6.99902c-11.333 4.66699 -22.333 10.334 -33 17.001s-20.334 14.667 -29.001 24c-4.66699 5.33301 -7.16699 11.166 -7.5 17.499s2.16699 12.166 7.5 17.499s11.5 8 18.5 8s12.833 -2.66699 17.5 -8c4 -4 7.33301 -7 10 -9l3 -3
c1.33301 -1.33301 2.33301 -2 3 -2c6.66699 -5.33301 13.667 -9.33301 21 -12c4.66699 -2 9.16699 -3.5 13.5 -4.5s8.83301 -2.16699 13.5 -3.5c10 -1.33301 20.333 -1.33301 31 0c7.33301 1.33301 14 3.33301 20 6c2.66699 1.33301 5.16699 2.66602 7.5 3.99902
s4.83301 2.66602 7.5 3.99902c0.666992 0 1.66699 0.666992 3 2c3.33301 3.33301 6 5.66602 8 6.99902c1.33301 1.33301 2.33301 2.5 3 3.5s1.66699 2.16699 3 3.5v1l3 3c2.66699 4.66699 5 9.33398 7 14.001c3.33301 7.33301 5.33301 14 6 20
c0.666992 7.33301 0.666992 15 0 23c-1.33301 7.33301 -3.33301 14 -6 20c-1.33301 2.66699 -2.66602 5.16699 -3.99902 7.5s-2.66602 4.83301 -3.99902 7.5c0 0.666992 -0.666992 1.66699 -2 3s-2.5 2.66602 -3.5 3.99902s-2.16699 2.66602 -3.5 3.99902
s-2.5 2.33301 -3.5 3s-2.16699 1.66699 -3.5 3h-1l-3 3c-2.66699 1.33301 -5 2.66602 -7 3.99902s-4.33301 2.66602 -7 3.99902c-7.33301 2.66699 -14 4.33398 -20 5.00098h-13c-7.33301 0 -15 1 -23 3c-14 2 -26.667 6.33301 -38 13c-24.667 12.667 -43 31.334 -55 56.001
c-9.33301 20 -13.666 40.667 -12.999 62c0 23.333 6 45 18 65c11.333 19.333 26.833 34.666 46.5 45.999s41.167 17 64.5 17h4c20.667 -0.666992 40.5 -5.16699 59.5 -13.5s35.833 -20.166 50.5 -35.499c4.66699 -5.33301 7.16699 -11.333 7.5 -18
s-2.16699 -12.667 -7.5 -18s-11.5 -8 -18.5 -8s-12.833 2.66699 -17.5 8l-10 10c-1.33301 1.33301 -2.66602 2 -3.99902 2l-2 2c-7.33301 4.66699 -14.333 8.66699 -21 12c-4.66699 2 -9.16699 3.5 -13.5 4.5s-8.83301 2.16699 -13.5 3.5c-2.66699 0 -5 0.166992 -7 0.5
s-4.33301 0.5 -7 0.5h-3c-1.33301 0 -2.66602 -0.166992 -3.99902 -0.5s-2.66602 -0.5 -3.99902 -0.5l-10 -2c-3.33301 -0.666992 -6.66602 -1.66699 -9.99902 -3c-2.66699 -1.33301 -5.16699 -2.66602 -7.5 -3.99902s-4.5 -2.66602 -6.5 -3.99902l-3 -3h-1l-3.5 -3.5
l-3.5 -3.5l-3.5 -3.5l-3.5 -3.5c-1.33301 -1.33301 -2 -2.66602 -2 -3.99902c-3.33301 -4.66699 -6 -9.33398 -8 -14.001c-2.66699 -7.33301 -4.33398 -13.666 -5.00098 -18.999c-0.666992 -8.66699 -0.666992 -17 0 -25l2 -10
c0.666992 -3.33301 1.66699 -6.66602 3 -9.99902c2 -4.66699 4.66699 -9.33398 8 -14.001c1.33301 -1.33301 2 -2.33301 2 -3l1 -1l3.5 -3.5l3.5 -3.5c2 -2.66699 4.33301 -5 7 -7c1.33301 -1.33301 2.66602 -2 3.99902 -2c4.66699 -3.33301 9.33398 -6 14.001 -8
c3.33301 -1.33301 6.5 -2.33301 9.5 -3s6.16699 -1.33398 9.5 -2.00098s6.33301 -1 9 -1h9zM132.994 405.005c0.666992 0 1.16699 0.167969 1.5 0.500977s-0.166992 0.166016 -1.5 -0.500977zM115.994 291.006c-0.666992 1.33301 -0.833008 1.83301 -0.5 1.5
s0.5 -0.833008 0.5 -1.5z" />
    <glyph glyph-name="t" unicode="t" horiz-adv-x="286" 
d="M97 261v-60.0029v-10.5c0 -3.66699 0.333008 -7.16699 1 -10.5v-1c1.33301 -4.66699 2.5 -9.16699 3.5 -13.5s2.16699 -8.83301 3.5 -13.5c0.666992 -1.33301 1 -2.66602 1 -3.99902s0.333008 -2.66602 1 -3.99902c1.33301 -1.33301 2 -2.66602 2 -3.99902
c1.33301 -1.33301 2.16602 -2.83301 2.49902 -4.5s1.16602 -3.16699 2.49902 -4.5c2 -4 4.16699 -8 6.5 -12s4.83301 -8 7.5 -12h1c0 -0.666992 0.166992 -1 0.5 -1s0.5 -0.333008 0.5 -1c2 -2 3.33301 -3.66699 4 -5c1.33301 -1.33301 2.83301 -3 4.5 -5
s3.5 -3.66699 5.5 -5c4 -4 7.33301 -7 10 -9c2 -2 3.33301 -3 4 -3c1.33301 -1.33301 2.33301 -2 3 -2c8 -6 16 -10.667 24 -14l6 -3c0.666992 -0.666992 1.33398 -1 2.00098 -1c2.66699 -1.33301 5 -2.16602 7 -2.49902s4 -1.16602 6 -2.49902c4 -1.33301 8 -2.33301 12 -3
l12 -2c3.33301 -0.666992 6.83301 -1 10.5 -1h10.5c6.66699 0 12.167 -2.33301 16.5 -7s6.5 -10.334 6.5 -17.001c0 -6 -2.16699 -11.333 -6.5 -16s-9.83301 -7 -16.5 -7c-22 0 -44 3.66699 -66 11c-41.333 15.333 -74 40 -98 74c-12 16.667 -21 34.667 -27 54
s-9.33301 38.666 -10 57.999v2v25v121v164v146v46c0 6 2.33301 11.333 7 16s10 7 16 7c6.66699 0 12.334 -2.33301 17.001 -7s7 -10 7 -16v-26v-104v-103h32h123c6.66699 0 12.334 -2.16699 17.001 -6.5s7 -9.83301 7 -16.5s-2.33301 -12.167 -7 -16.5
s-10.334 -6.5 -17.001 -6.5h-53h-102v-16v-145z" />
    <glyph glyph-name="u" unicode="u" horiz-adv-x="436" 
d="M403 470c6 0 11.3311 -2.33496 15.998 -7.00195s7 -10.334 7 -17.001v-29v-154v-63c0 -9.33301 -0.166992 -18.666 -0.5 -27.999s-1.5 -18.666 -3.5 -27.999c-4.66699 -19.333 -12.334 -37.833 -23.001 -55.5s-23.667 -32.834 -39 -45.501
c-18 -14.667 -37 -25.334 -57 -32.001c-20 -7.33301 -40.333 -11 -61 -11h-4h-4c-40 0 -76.667 12 -110 36c-16.667 13.333 -30.834 28.666 -42.501 45.999s-20.167 36.333 -25.5 57c-2.66699 9.33301 -4.33398 19 -5.00098 29s-1 20 -1 30v144v103
c0 6.66699 2.33301 12.167 7 16.5s10 6.5 16 6.5c6.66699 0 12.334 -2.16699 17.001 -6.5s7 -9.83301 7 -16.5v-22v-150v-67c0 -7.33301 -0.166992 -14.166 -0.5 -20.499s0.166992 -12.833 1.5 -19.5l2 -11.5c0.666992 -3.66699 1.66699 -7.16699 3 -10.5
c0.666992 -2.66699 1.33398 -5 2.00098 -7l2 -6c0.666992 -0.666992 1 -1.33398 1 -2.00098c1.33301 -1.33301 2 -3 2 -5c4.66699 -8 9.33398 -15.333 14.001 -22l1 -2l4 -4c1.33301 -2 4 -5 8 -9s7.33301 -7 10 -9c1.33301 -1.33301 2.33301 -2 3 -2l2 -2
c6.66699 -4.66699 14 -9.33398 22 -14.001c2.66699 -1.33301 4.66699 -2 6 -2c0 -0.666992 0.333008 -1 1 -1h1c2.66699 -1.33301 6.66699 -2.66602 12 -3.99902c3.33301 -1.33301 6.83301 -2.33301 10.5 -3l10.5 -2c3.33301 -0.666992 6.5 -1 9.5 -1h9.5
c2 0 3.33301 -0.333008 4 -1c0.666992 0.666992 2 1 4 1h9.5c3 0 6.16699 0.333008 9.5 1l10.5 2c3.66699 0.666992 7.16699 1.66699 10.5 3c2.66699 0.666992 5 1.33398 7 2.00098l6 2c0.666992 0.666992 1.33398 1 2.00098 1c1.33301 1.33301 3 2 5 2
c8 4.66699 15.333 9.33398 22 14.001l2 1l4 4c2 1.33301 5 4 9 8s7 7.33301 9 10l3 3c0 0.666992 0.333008 1.33398 1 2.00098c4.66699 6.66699 9.33398 14 14.001 22c1.33301 2.66699 2 4.66699 2 6h1v2c1.33301 2.66699 2.66602 6.66699 3.99902 12
c1.33301 3.33301 2.33301 6.83301 3 10.5l2 10.5c0.666992 5.33301 1 11 1 17v17v145v102c0 6.66699 2.33301 12.334 7 17.001s10.334 7 17.001 7zM107.998 129.998c0 -0.666992 0.167969 -1.16699 0.500977 -1.5s0.166016 0.166992 -0.500977 1.5zM181.999 56.998
c0.666992 -0.666992 1.16699 -1 1.5 -1s-0.166992 0.333008 -1.5 1zM295.999 56.998l1.5 1.5c0.333008 0.333008 -0.166992 -0.166992 -1.5 -1.5zM368.999 130.998l1 2z" />
    <glyph glyph-name="v" unicode="v" horiz-adv-x="465" 
d="M443 466c5.33301 -3.33301 8.99609 -7.99902 10.9961 -13.999c1.33301 -3.33301 1.5 -6.33301 0.5 -9l-3.5 -9l-15.5 -36l-15.5 -36l-30.5 -72l-30.5 -72l-30 -70.5l-31 -70.5l-27 -63c-2 -5.33301 -5.66699 -8.83301 -11 -10.5s-10.333 -1.83398 -15 -0.500977
c-7.33301 1.33301 -12.666 6.66602 -15.999 15.999l-1 1c-5.33301 11.333 -10.333 23 -15 35s-9.66699 24 -15 36l-60 144l-60 141l-13.5 32.5l-13.5 31.5c-1.33301 2.66699 -1.5 5.66699 -0.5 9s2.16699 6.33301 3.5 9c3.33301 5.33301 8 9 14 11
c7.33301 1.33301 13.333 0.333008 18 -3c4.66699 -2.66699 8 -7.33398 10 -14.001h1c5.33301 -12 10.333 -24 15 -36s9.66699 -23.667 15 -35l60 -144l30 -71l30 -71c0.666992 -1.33301 1.33398 -3 2.00098 -5s1.33398 -3.66699 2.00098 -5c4 8.66699 7.66699 17 11 25
l31 72l31 72l60 141l27 63c1.33301 2.66699 3.33301 4.83398 6 6.50098s5.33398 3.16699 8.00098 4.5c3.33301 0.666992 6.5 0.833984 9.5 0.500977s5.83301 -1.5 8.5 -3.5z" />
    <glyph glyph-name="w" unicode="w" horiz-adv-x="823" 
d="M801 466c6 -3.33301 9.66797 -7.99902 11.001 -13.999c1.33301 -3.33301 1.66602 -6.33301 0.999023 -9s-1.66699 -5.66699 -3 -9l-15.5 -36l-15.5 -36l-31 -72l-31 -72l-60 -141l-27 -63c-2 -5.33301 -5.66699 -8.83301 -11 -10.5s-10.333 -1.83398 -15 -0.500977
s-8.16699 3.33301 -10.5 6s-4.5 6 -6.5 10l-30 72l-30 71.5l-30 71.5l-30 71.5l-30 70.5c-2.66699 5.33301 -4.33398 9.33301 -5.00098 12c-2 -4.66699 -4 -9 -6 -13s-4 -8.33301 -6 -13l-30.5 -72l-30.5 -72l-60 -141l-13.5 -31.5
c-4.33301 -10.333 -9.16602 -20.833 -14.499 -31.5c-2 -5.33301 -5.66699 -8.83301 -11 -10.5s-10.333 -1.83398 -15 -0.500977c-7.33301 1.33301 -12.666 6.66602 -15.999 15.999l-30 72l-31 71.5l-30 71.5l-30 71.5l-30 70.5c-4 10.667 -8.16699 21.167 -12.5 31.5
l-13.5 32.5c-1.33301 2.66699 -1.66602 5.66699 -0.999023 9s1.66699 6.33301 3 9c3.33301 6 8 9.33301 14 10c6 2 12 1.33301 18 -2c3.33301 -1.33301 5.66602 -3.16602 6.99902 -5.49902s2.66602 -5.16602 3.99902 -8.49902c5.33301 -12 10.333 -24 15 -36
s9.66699 -23.667 15 -35l60 -144l30 -70.5l30 -71.5c0.666992 -1.33301 1.33398 -3 2.00098 -5s1.33398 -3.66699 2.00098 -5c2 4 3.83301 8 5.5 12s3.5 8 5.5 12l31 72l30 72l31 70.5l30 70.5l13.5 31.5l13.5 32.5c1.33301 2.66699 3.33301 4.83398 6 6.50098
s5.33398 2.83398 8.00098 3.50098c1.33301 0.666992 3.66602 1 6.99902 1c4.66699 0 8.66699 -1 12 -3c5.33301 -2.66699 9 -7.33398 11 -14.001c5.33301 -12 10.333 -24 15 -36s9.66699 -23.667 15 -35l31 -72l30 -72l30 -70.5l29 -71.5
c1.33301 -1.33301 2.16602 -3 2.49902 -5s1.16602 -3.66699 2.49902 -5c1.33301 4 3 8 5 12l6 12l30.5 72l30.5 72l60 141l13.5 31.5l13.5 32.5c3.33301 5.33301 8 8.66602 14 9.99902c6 2 12 1.33301 18 -2z" />
    <glyph glyph-name="x" unicode="x" horiz-adv-x="345" 
d="M279 132l25.998 -47.5l27 -47.5c3.33301 -5.33301 4 -11.166 2 -17.499s-5.66699 -11.166 -11 -14.499s-11.166 -4.16602 -17.499 -2.49902s-11.166 5.5 -14.499 11.5c-1.33301 2 -3.33301 5.66699 -6 11l-36 64l-35 64l-10.5 18.5
c-3.66699 6.33301 -7.16699 12.833 -10.5 19.5c-16.667 -28.667 -32 -56.334 -46 -83.001c-9.33301 -15.333 -18.166 -31 -26.499 -47s-17.166 -31.667 -26.499 -47c-3.33301 -6 -8.16602 -9.83301 -14.499 -11.5s-12.166 -0.833984 -17.499 2.49902
s-8.83301 8.16602 -10.5 14.499s-0.833984 12.166 2.49902 17.499c0 0.666992 0.333008 1.33398 1 2.00098l31 56.5l31 55.5l23 42l23 41l-28.5 53.5l-28.5 52.5c-9.33301 15.333 -18.166 31 -26.499 47l-25.5 47c-3.33301 6 -4.16602 12 -2.49902 18
s5.16699 10.667 10.5 14s11.166 4.16602 17.499 2.49902s11.166 -5.16699 14.499 -10.5c2.66699 -5.33301 4.66699 -9 6 -11l35.5 -64l34.5 -64l11.5 -20.5l11.5 -20.5c7.33301 14.667 15 29 23 43l23 42c9.33301 16 18.166 32 26.499 48l25.5 47
c3.33301 5.33301 8.16602 8.83301 14.499 10.5s12.166 0.833984 17.499 -2.49902s9 -8 11 -14s1.33301 -12 -2 -18c-1.33301 -1.33301 -2 -2.33301 -2 -3l-63 -114l-22.5 -41.5l-22.5 -41.5l57 -102v0z" />
    <glyph glyph-name="y" unicode="y" horiz-adv-x="479" 
d="M457 466c6 -3.33301 9.6709 -7.99609 11.0039 -13.9961c1.33301 -3.33301 1.66602 -6.33301 0.999023 -9s-1.66699 -5.66699 -3 -9l-12 -27c-7.33301 -15.333 -14.333 -31 -21 -47l-21 -48l-30 -68l-30 -69l-33.5 -76.5l-33.5 -76.5l-31.5 -70.5l-31.5 -71.5l-23 -52.5
l-23 -52.5c-3.33301 -6.66699 -6.33301 -13.334 -9 -20.001s-5.66699 -13.334 -9 -20.001c-2.66699 -6 -7.33398 -9.83301 -14.001 -11.5s-12.667 -0.833984 -18 2.49902s-9 8 -11 14c-1.33301 5.33301 -0.333008 11.333 3 18l12 27l20 48c6.66699 16 13.667 31.667 21 47
l30 69l31 68c0 1.33301 0.666992 3.33301 2 6c-5.33301 10.667 -10.166 21.167 -14.499 31.5l-13.5 31.5l-63 144l-31 70l-31 70l-13.5 31.5c-4.33301 10.333 -9.16602 20.833 -14.499 31.5c-1.33301 3.33301 -2.33301 6.33301 -3 9s-0.333984 5.66699 0.999023 9
c2 6 5.66699 10.667 11 14s11.333 4.16602 18 2.49902s11.334 -5.5 14.001 -11.5l16 -37l16 -36l63 -144l31 -70l31 -70c1.33301 -3.33301 2.66602 -6.5 3.99902 -9.5s2.66602 -6.16699 3.99902 -9.5l20 45l20 45l31.5 71.5l30.5 70.5l23.5 52.5l22.5 52.5l9 20.5l9 20.5
c3.33301 6 8.16602 9.66699 14.499 11s12.166 0.333008 17.499 -3z" />
    <glyph glyph-name="z" unicode="z" horiz-adv-x="435" 
d="M401 49c6.66699 0 12.334 -2.33398 17.001 -7.00098s7 -10.334 7 -17.001c0 -6 -2.33301 -11.333 -7 -16s-10.334 -7 -17.001 -7h-76h-161h-90c-5.33301 0 -10 1.5 -14 4.5s-6.66699 7.16699 -8 12.5c-2.66699 8 -0.666992 15.667 6 23
c3.33301 4.66699 6.83301 9.16699 10.5 13.5s7.16699 9.16602 10.5 14.499l39.5 50l39.5 51l50 65l51 66l44 56l44 57c1.33301 1.33301 3.33301 4 6 8h-27h-162h-89c-6.66699 0 -12.334 2.33301 -17.001 7s-7 10 -7 16c0 6.66699 2.33301 12.334 7 17.001s10.334 7 17.001 7
h75h161h90c5.33301 0 10 -1.66699 14 -5s6.66699 -7.66602 8 -12.999c2.66699 -6.66699 0.666992 -14 -6 -22c-3.33301 -5.33301 -6.83301 -10.166 -10.5 -14.499s-7.16699 -8.83301 -10.5 -13.5l-39.5 -50.5l-39.5 -50.5l-50.5 -65.5l-50.5 -65.5l-44 -56.5l-44 -56.5
c-2.66699 -4 -4.66699 -6.66699 -6 -8h28h162h89v0z" />
    <glyph glyph-name="braceleft" unicode="{" horiz-adv-x="347" 
d="M311 51c7.33301 0 13.333 -2.33203 18 -6.99902s7 -10.667 7 -18s-2.33301 -13.333 -7 -18s-10.667 -7 -18 -7h-5h-122c-7.33301 0 -13.5 2.33301 -18.5 7s-7.5 10.667 -7.5 18v6v95v60v30c0 10 -0.666992 20 -2 30c-2 15.333 -6 30.666 -12 45.999
c-2 5.33301 -5 10.666 -9 15.999c-0.666992 1.33301 -1.16699 2.16602 -1.5 2.49902s-0.833008 1.16602 -1.5 2.49902s-2.33398 3.33301 -5.00098 6c-1.33301 0.666992 -3.33301 2.33398 -6 5.00098c-0.666992 0 -1 0.166992 -1 0.5s-0.333008 0.5 -1 0.5l-9 6
c-2.66699 0.666992 -5 1.16699 -7 1.5s-4.33301 0.833008 -7 1.5c-4 1.33301 -8.66699 1.33301 -14 0c-7.33301 -1.33301 -13.833 -0.5 -19.5 2.5s-9.5 8.16699 -11.5 15.5c-0.666992 2 -1 5 -1 9s0.333008 7 1 9c2 6.66699 5.83301 11.5 11.5 14.5s12.167 3.83301 19.5 2.5
h14c5.33301 1.33301 10 2.66602 14 3.99902c2 0.666992 5 2.33398 9 5.00098l2 2c1.33301 0.666992 3.33301 2.33398 6 5.00098l6 6l2 4c4.66699 6.66699 7.66699 12.334 9 17.001c6 15.333 10 30.666 12 45.999c0.666992 5.33301 1.16699 10.666 1.5 15.999
s0.833008 10.666 1.5 15.999c0.666992 20.667 0.833984 41 0.500977 61s-0.5 40.333 -0.5 61v67c0 7.33301 2.33301 13.5 7 18.5s10.667 7.5 18 7.5h5h122c7.33301 0 13.5 -2.5 18.5 -7.5s7.5 -11.167 7.5 -18.5c0 -6.66699 -2.5 -12.5 -7.5 -17.5s-11.167 -7.5 -18.5 -7.5
h-5h-97v-140c0 -14.667 -0.5 -30 -1.5 -46s-3.33301 -31.5 -7 -46.5s-9 -29.333 -16 -43s-16.5 -25.5 -28.5 -35.5c10.667 -9.33301 20 -21.666 28 -36.999c9.33301 -17.333 15.666 -35.166 18.999 -53.499s5.33301 -37.166 6 -56.499
c0.666992 -20.667 0.833984 -41 0.500977 -61s-0.5 -40.333 -0.5 -61v-42h102v0z" />
    <glyph glyph-name="bar" unicode="|" horiz-adv-x="111" 
d="M76 724c6.66699 0 12.5 -2.5 17.5 -7.5s7.5 -10.833 7.5 -17.5v-50v-125v-162v-163v-125v-50c0 -6.66699 -2.5 -12.5 -7.5 -17.5s-10.833 -7.5 -17.5 -7.5c-7.33301 0 -13.5 2.5 -18.5 7.5s-7.5 10.833 -7.5 17.5v50v125v162v163v125v50c0 6.66699 2.5 12.5 7.5 17.5
s11.167 7.5 18.5 7.5z" />
    <glyph glyph-name="braceright" unicode="}" horiz-adv-x="347" 
d="M76 51l102 -0.000976562v42c0 20.667 -0.166992 41 -0.5 61s-0.166016 40.333 0.500977 61c0.666992 19.333 2.66699 38.166 6 56.499s9.66602 36.166 18.999 53.499c8 15.333 17.333 27.666 28 36.999c-12 10 -21.5 21.833 -28.5 35.5s-12.333 28 -16 43
s-6 30.5 -7 46.5s-1.5 31.333 -1.5 46v140h-97h-5c-7.33301 0 -13.5 2.5 -18.5 7.5s-7.5 10.833 -7.5 17.5c0 7.33301 2.5 13.5 7.5 18.5s11.167 7.5 18.5 7.5h122h5c7.33301 0 13.333 -2.5 18 -7.5s7 -11.167 7 -18.5v-67c0 -20.667 -0.166992 -41 -0.5 -61
s-0.166016 -40.333 0.500977 -61c0.666992 -5.33301 1.16699 -10.666 1.5 -15.999s0.833008 -10.666 1.5 -15.999c2 -15.333 6 -30.666 12 -45.999c1.33301 -4.66699 4.33301 -10.334 9 -17.001l2 -4l6 -6c2.66699 -2.66699 4.66699 -4.33398 6 -5.00098l2 -2
c4 -2.66699 7 -4.33398 9 -5.00098c4 -1.33301 8.66699 -2.66602 14 -3.99902h14c7.33301 1.33301 13.833 0.5 19.5 -2.5s9.5 -7.83301 11.5 -14.5c0.666992 -2 1 -5 1 -9s-0.333008 -7 -1 -9c-2 -7.33301 -5.83301 -12.5 -11.5 -15.5s-12.167 -3.83301 -19.5 -2.5
c-5.33301 1.33301 -10 1.33301 -14 0c-2.66699 -0.666992 -5 -1.16699 -7 -1.5s-4.33301 -0.833008 -7 -1.5l-9 -6c-0.666992 0 -1 -0.166992 -1 -0.5s-0.333008 -0.5 -1 -0.5c-2.66699 -2.66699 -4.66699 -4.33398 -6 -5.00098
c-2.66699 -2.66699 -4.33398 -4.66699 -5.00098 -6s-1.16699 -2.16602 -1.5 -2.49902s-0.833008 -1.16602 -1.5 -2.49902c-4 -5.33301 -7 -10.666 -9 -15.999c-6 -15.333 -10 -30.666 -12 -45.999c-1.33301 -10 -2 -20 -2 -30v-30v-60v-95v-6
c0 -7.33301 -2.5 -13.333 -7.5 -18s-11.167 -7 -18.5 -7h-122h-5c-7.33301 0 -13.333 2.33301 -18 7s-7 10.667 -7 18s2.33301 13.333 7 18s10.667 7 18 7z" />
    <glyph glyph-name="asciitilde" unicode="~" horiz-adv-x="369" 
d="M336 425c6.66699 0 12.168 -2.33203 16.501 -6.99902s6.5 -10 6.5 -16c0 -13.333 -2.5 -26 -7.5 -38s-12.5 -22.333 -22.5 -31c-8.66699 -7.33301 -18.667 -13.333 -30 -18s-22.666 -6.66699 -33.999 -6c-18.667 0.666992 -36 7 -52 19c-7.33301 5.33301 -14 11 -20 17
s-12.333 12 -19 18c-0.666992 0.666992 -1.33398 1.16699 -2.00098 1.5s-1.33398 0.833008 -2.00098 1.5c-0.666992 0 -1 0.166992 -1 0.5s-0.333008 0.5 -1 0.5l-9 6l-4 2c-0.666992 0 -1.33398 0.333008 -2.00098 1c-1.33301 0.666992 -2.83301 1 -4.5 1
s-3.16699 0.333008 -4.5 1h-13c-1.33301 -0.666992 -2.66602 -1 -3.99902 -1s-2.66602 -0.333008 -3.99902 -1l-2 -1c-0.666992 0 -1.16699 -0.166992 -1.5 -0.5s-0.833008 -0.5 -1.5 -0.5c-0.666992 -0.666992 -1.33398 -1.16699 -2.00098 -1.5
s-1.33398 -0.833008 -2.00098 -1.5h-1l-6 -6l-1 -2l-2 -2c-0.666992 -0.666992 -1 -1.33398 -1 -2.00098s-0.333008 -1.33398 -1 -2.00098s-1 -1.16699 -1 -1.5s-0.333008 -0.833008 -1 -1.5c-0.666992 -3.33301 -1.66699 -7.66602 -3 -12.999v-9
c-0.666992 -6.66699 -3.16699 -12.167 -7.5 -16.5s-9.83301 -6.5 -16.5 -6.5c-6 0 -11.333 2.16699 -16 6.5s-7 9.83301 -7 16.5c0 13.333 2.33301 26.166 7 38.499s11.667 22.833 21 31.5c18.667 16.667 40 24.334 64 23.001c20 -1.33301 37.667 -8 53 -20
c7.33301 -5.33301 14 -11 20 -17s12.333 -11.667 19 -17c2 -2 3.66699 -3.33301 5 -4v-1l9 -6c0.666992 0 2.33398 -0.666992 5.00098 -2h1c4 -1.33301 6.66699 -2 8 -2c2 -0.666992 3.83301 -0.833984 5.5 -0.500977s3.5 0.5 5.5 0.5c1.33301 0 4 0.666992 8 2
c0.666992 0 1.33398 0.166992 2.00098 0.5s1.33398 0.5 2.00098 0.5s1 0.166992 1 0.5s0.333008 0.5 1 0.5l4 2c1.33301 0.666992 2.66602 1.66699 3.99902 3l1 1l3 3c1.33301 0.666992 2.16602 1.33398 2.49902 2.00098s0.833008 1.33398 1.5 2.00098
c1.33301 1.33301 2.33301 3 3 5s1.66699 3.66699 3 5c0.666992 1.33301 1 2.33301 1 3s0.333008 1.66699 1 3c0 1.33301 0.166992 2.33301 0.5 3s0.5 1.66699 0.5 3c0.666992 1.33301 1 3.66602 1 6.99902c0 6 2.16699 11.333 6.5 16s9.83301 7 16.5 7zM239.001 366.001
c1.33301 -0.666992 2 -1.16699 2 -1.5s-0.666992 0.166992 -2 1.5z" />
    <glyph glyph-name="exclamdown" unicode="&#xa1;" horiz-adv-x="157" 
d="M98 -5c-13.333 0 -24.665 4.66699 -33.998 14s-14 20.666 -14 33.999v58v6c1.33301 13.333 2.16602 26.333 2.49902 39s1.16602 25.667 2.49902 39c1.33301 27.333 2.83301 54.166 4.5 80.499s3.16699 52.833 4.5 79.5l4 66l4 66c0 3.33301 0.166992 6.83301 0.5 10.5
s0.5 7.16699 0.5 10.5c0.666992 7.33301 3.16699 13.333 7.5 18s10.166 7 17.499 7s13.333 -2.33301 18 -7s7.33398 -10.667 8.00098 -18l2 -39l2 -39c1.33301 -26.667 2.83301 -53.167 4.5 -79.5s3.5 -53.166 5.5 -80.499c1.33301 -22 2.5 -44 3.5 -66s2.16699 -44 3.5 -66
c0.666992 -3.33301 1 -6.33301 1 -9v-9c0.666992 -0.666992 1 -1.66699 1 -3v-6v-58c0 -13.333 -4.83301 -24.666 -14.5 -33.999s-21.167 -14 -34.5 -14zM102.001 679c-7.33301 0 -13.333 2.33301 -18 7s-7 10.667 -7 18s2.33301 13.333 7 18s10.667 7 18 7
s13.333 -2.33301 18 -7s7 -10.667 7 -18s-2.33301 -13.333 -7 -18s-10.667 -7 -18 -7z" />
    <glyph glyph-name="cent" unicode="&#xa2;" horiz-adv-x="484" 
d="M434 115c4 5.33301 9.49902 7.66797 16.499 7.00098s12.5 -3 16.5 -7c4.66699 -6 7 -11.667 7 -17c0 -3.33301 -0.666992 -6.16602 -2 -8.49902s-3 -4.83301 -5 -7.5c-7.33301 -9.33301 -15 -17.666 -23 -24.999s-16.667 -14.333 -26 -21
c-34.667 -23.333 -73.334 -36.666 -116.001 -39.999v-2v-56c0 -6.66699 -2.33301 -12.334 -7 -17.001s-10.334 -7 -17.001 -7c-6 0 -11.333 2.33301 -16 7s-7 10.334 -7 17.001v4v55c-32 4 -61.333 14 -88 30c-36 20.667 -64.333 48.667 -85 84
c-21.333 36.667 -32 76.334 -32 119.001v2v2c0 10.667 0.5 21.167 1.5 31.5s3.16699 20.5 6.5 30.5c10.667 40 30.667 74.667 60 104s64 49.666 104 60.999c5.33301 1.33301 10.833 2.5 16.5 3.5s11.167 2.16699 16.5 3.5v9v56c0 6.66699 2.33301 12.167 7 16.5
s10 6.5 16 6.5c6.66699 0 12.334 -2.16699 17.001 -6.5s7 -9.83301 7 -16.5v-5v-59c9.33301 -0.666992 18.333 -1.83398 27 -3.50098s17.334 -3.83398 26.001 -6.50098c45.333 -14.667 82.666 -40 111.999 -76c4.66699 -6 7 -11.333 7 -16
c0 -6.66699 -2.33301 -12.334 -7 -17.001c-4 -4 -9.5 -6.33301 -16.5 -7s-12.5 1.66602 -16.5 6.99902s-8.16699 10.333 -12.5 15s-9.16602 9 -14.499 13c-2 1.33301 -4.33301 3.33301 -7 6c-0.666992 0 -1.33398 0.333008 -2.00098 1
c-1.33301 1.33301 -2.66602 2.33301 -3.99902 3c-2.66699 1.33301 -5.16699 3 -7.5 5s-5.16602 3.66699 -8.49902 5l-18 9c-0.666992 0 -1.16699 0.166992 -1.5 0.5s-0.833008 0.5 -1.5 0.5c-0.666992 0.666992 -1.33398 1 -2.00098 1l-9 3
c-5.33301 2 -11.166 3.66699 -17.499 5l-18.5 4c-1.33301 0 -2.66602 0.166992 -3.99902 0.5s-2.66602 0.5 -3.99902 0.5v-126v-167v-86c3.33301 0 6 0.333008 8 1c6 1.33301 12.167 2.5 18.5 3.5s12.166 2.5 17.499 4.5c2.66699 1.33301 6 2.66602 10 3.99902
c0.666992 0 1.16699 0.166992 1.5 0.5s0.833008 0.5 1.5 0.5c0.666992 0.666992 1.33398 1 2.00098 1c3.33301 1.33301 6.33301 2.83301 9 4.5s5.33398 3.16699 8.00098 4.5c6 2.66699 11.667 6.33398 17 11.001c1.33301 0.666992 2.16602 1.16699 2.49902 1.5
s1.16602 0.833008 2.49902 1.5c2.66699 2.66699 5 4.66699 7 6c5.33301 4 10.166 8.33301 14.499 13s8.5 9.66699 12.5 15zM221.999 53.002l6 -2.00586c2 -0.666992 4.33301 -1.33398 7 -2.00098c3.33301 -1.33301 6.66602 -2.16602 9.99902 -2.49902
s6.66602 -1.16602 9.99902 -2.49902v130v167v79c-13.333 -2 -26 -5.33301 -38 -10c-1.33301 0 -2.66602 -0.666992 -3.99902 -2c-0.666992 0 -1.16699 -0.166992 -1.5 -0.5s-0.833008 -0.5 -1.5 -0.5h-1c-3.33301 -1.33301 -7.66602 -3.33301 -12.999 -6
c-4 -2.66699 -8 -5.16699 -12 -7.5s-7.66699 -4.83301 -11 -7.5c-1.33301 -1.33301 -2.33301 -2 -3 -2c-2 -2 -3.66699 -3.33301 -5 -4c-4 -4 -7.33301 -7 -10 -9c-3.33301 -3.33301 -6.5 -6.66602 -9.5 -9.99902s-5.83301 -6.66602 -8.5 -9.99902l-2 -2v-1
c-0.666992 -1.33301 -1.33398 -2.16602 -2.00098 -2.49902s-1.33398 -1.16602 -2.00098 -2.49902c-1.33301 -2 -2.5 -4 -3.5 -6s-2.16699 -3.66699 -3.5 -5c-4.66699 -6.66699 -9 -15 -13 -25c0 -0.666992 -0.166992 -1.16699 -0.5 -1.5s-0.5 -0.833008 -0.5 -1.5
c-1.33301 -2.66699 -2 -4.66699 -2 -6c-1.33301 -3.33301 -2.66602 -7.66602 -3.99902 -12.999c-1.33301 -4.66699 -2.33301 -9 -3 -13s-1.66699 -8 -3 -12c-0.666992 -4.66699 -1 -9 -1 -13v-13v-2v-2v-12c0 -4 0.333008 -8 1 -12
c1.33301 -7.33301 2.83301 -14.5 4.5 -21.5s3.83398 -14.167 6.50098 -21.5c0.666992 -1.33301 1 -2.16602 1 -2.49902s0.333008 -1.16602 1 -2.49902c0.666992 -0.666992 1 -1.33398 1 -2.00098s0.333008 -1.33398 1 -2.00098l6 -12c4 -8 9 -16 15 -24
c0 -0.666992 0.666992 -1.66699 2 -3c0.666992 -0.666992 1.16699 -1.33398 1.5 -2.00098s0.833008 -1.33398 1.5 -2.00098c2 -2.66699 5 -6 9 -10c3.33301 -3.33301 6.83301 -6.5 10.5 -9.5s7.16699 -6.16699 10.5 -9.5l1 -1c0.666992 0 1 -0.333008 1 -1
c2.66699 -1.33301 4.66699 -2.66602 6 -3.99902s3 -2.5 5 -3.5s4 -2.16699 6 -3.5c4 -2 8 -4.16699 12 -6.5s8 -4.16602 12 -5.49902c0.666992 -0.666992 1.16699 -1 1.5 -1s0.833008 -0.333008 1.5 -1c2 0 4.33301 -0.666992 7 -2z" />
    <glyph glyph-name="sterling" unicode="&#xa3;" horiz-adv-x="545" 
d="M513 161c6 0 11.1719 -2.15723 15.5049 -6.49023s6.5 -9.5 6.5 -15.5c0 -24.667 -5.66699 -47.334 -17 -68.001c-9.33301 -17.333 -22.166 -32.166 -38.499 -44.499s-34.166 -20.5 -53.499 -24.5c-20.667 -4.66699 -40.334 -5 -59.001 -1c-14 4 -28.333 10.333 -43 19
c-13.333 8.66699 -25.5 18.334 -36.5 29.001l-33.5 31c-4 4 -7 6.66699 -9 8c-1.33301 1.33301 -2.66602 2.33301 -3.99902 3c0 0.666992 -0.333008 1 -1 1l-8 6c-2.66699 2 -5.66699 4 -9 6c-2 1.33301 -3.83301 2.16602 -5.5 2.49902s-3.16699 1.16602 -4.5 2.49902
c-0.666992 0 -1.16699 0.166992 -1.5 0.5s-0.833008 0.5 -1.5 0.5c-0.666992 0.666992 -1.66699 1 -3 1c-3.33301 1.33301 -6.5 2.33301 -9.5 3s-6.16699 1.33398 -9.5 2.00098c-9.33301 0.666992 -18.333 0.666992 -27 0c-2 -0.666992 -4 -1 -6 -1
s-3.66699 -0.333008 -5 -1s-2.66602 -1.16699 -3.99902 -1.5s-2.66602 -0.833008 -3.99902 -1.5c-2.66699 0 -4 -0.666992 -4 -2c-2.66699 -0.666992 -6 -2.33398 -10 -5.00098c-2.66699 -1.33301 -4.66699 -2.66602 -6 -3.99902h-1c0 -0.666992 -0.333008 -1 -1 -1
c-1.33301 -1.33301 -3 -2.83301 -5 -4.5s-3.66699 -3.5 -5 -5.5l-3 -3c-0.666992 -0.666992 -1 -1.33398 -1 -2.00098s-0.333008 -1 -1 -1l-4 -6l-4 -6c0 -1.33301 -0.666992 -3.33301 -2 -6c-0.666992 -0.666992 -1 -1.66699 -1 -3c-2 -5.33301 -5.5 -9.5 -10.5 -12.5
s-10.5 -3.83301 -16.5 -2.5c-5.33301 1.33301 -9.83301 4.83301 -13.5 10.5s-4.5 11.167 -2.5 16.5c1.33301 2 2.16602 4 2.49902 6s1.16602 3.66699 2.49902 5c8 18 19.667 33.5 35 46.5s32.666 21.5 51.999 25.5c2.66699 0.666992 5 1.16699 7 1.5s4.33301 0.833008 7 1.5
v34v143v145v47v26c3.33301 42 18.666 78.333 45.999 109c26 29.333 58.333 47.666 97 54.999c21.333 4 42.5 4.5 63.5 1.5s40.833 -9.83301 59.5 -20.5c18 -10.667 33.333 -23.334 46 -38.001c7.33301 -8 13.666 -16.5 18.999 -25.5s10 -18.833 14 -29.5
c2.66699 -5.33301 2.16699 -10.833 -1.5 -16.5s-8.16699 -9.16699 -13.5 -10.5c-7.33301 -1.33301 -13 -0.666016 -17 2.00098s-7.33301 7 -10 13c0 0.666992 -0.333008 1.33398 -1 2.00098c0 1.33301 -0.666992 2.66602 -2 3.99902
c-0.666992 1.33301 -1.33398 2.83301 -2.00098 4.5s-1.33398 3.16699 -2.00098 4.5c-2 3.33301 -3.83301 6.16602 -5.5 8.49902s-3.5 5.16602 -5.5 8.49902l-1 1l-3 3c-2 2.66699 -4.33301 5 -7 7c-4 4.66699 -8.33301 9 -13 13c-0.666992 0 -1.33398 0.333008 -2.00098 1
s-1.33398 1.16699 -2.00098 1.5s-1.33398 0.833008 -2.00098 1.5c-1.33301 1.33301 -2.66602 2.16602 -3.99902 2.49902s-2.66602 1.16602 -3.99902 2.49902c-5.33301 3.33301 -10.666 6 -15.999 8c-0.666992 0.666992 -1.16699 1 -1.5 1s-0.833008 0.333008 -1.5 1
c-1.33301 0 -2.16602 0.166992 -2.49902 0.5s-0.833008 0.5 -1.5 0.5c-2.66699 0.666992 -6 1.66699 -10 3c-3.33301 1.33301 -6.33301 2.16602 -9 2.49902s-5.33398 0.833008 -8.00098 1.5c-12.667 0.666992 -25 0.666992 -37 0
c-3.33301 -1.33301 -7 -2.16602 -11 -2.49902s-7.66699 -1.16602 -11 -2.49902c-2 -1.33301 -4 -2.16602 -6 -2.49902s-4 -1.16602 -6 -2.49902h-1l-6 -3l-10.5 -6c-3.66699 -2 -7.16699 -4.33301 -10.5 -7c-0.666992 0 -1 -0.166992 -1 -0.5s-0.333008 -0.5 -1 -0.5l-4 -4
c-2 -1.33301 -5 -4 -9 -8c-1.33301 -2 -4 -5 -8 -9c-1.33301 -1.33301 -2 -2.33301 -2 -3l-3 -3c-2.66699 -3.33301 -5 -6.83301 -7 -10.5l-6 -10.5c-1.33301 -2.66699 -2 -4.66699 -2 -6c-0.666992 -0.666992 -1 -1.33398 -1 -2.00098
c-1.33301 -2 -2.66602 -6 -3.99902 -12c-2.66699 -7.33301 -4.33398 -14 -5.00098 -20c-0.666992 -5.33301 -1 -10.333 -1 -15v-14v-39v-69h43h115c6 0 11.167 -2.16699 15.5 -6.5s6.5 -9.5 6.5 -15.5s-2.16699 -11.167 -6.5 -15.5s-9.5 -6.5 -15.5 -6.5h-62h-96v-28v-147
v-49c16.667 -2.66699 33 -9 49 -19c13.333 -8.66699 25.666 -18.334 36.999 -29.001l34 -32c2.66699 -2 5.16699 -4.16699 7.5 -6.5s5.16602 -4.5 8.49902 -6.5l2 -2c1.33301 -1.33301 2.66602 -2.33301 3.99902 -3l4 -2c1.33301 -0.666992 2.66602 -1.66699 3.99902 -3
c3.33301 -2 6.66602 -3.66699 9.99902 -5c0.666992 -0.666992 1.33398 -1 2.00098 -1c0.666992 -0.666992 1.66699 -1 3 -1c3.33301 -1.33301 6.33301 -2.33301 9 -3s5.66699 -1.33398 9 -2.00098c8 -1.33301 16 -1.33301 24 0
c2.66699 0.666992 5.33398 1.16699 8.00098 1.5s5.33398 1.16602 8.00098 2.49902l9 3l4 2c6 3.33301 11.333 6.66602 16 9.99902h1l3 3l6 6c2.66699 2 5 4.33301 7 7l1 2l1 1c2 3.33301 3.83301 6.16602 5.5 8.49902s3.16699 4.83301 4.5 7.5
c0 1.33301 0.166992 2.16602 0.5 2.49902s0.5 0.833008 0.5 1.5c0.666992 0 1 0.333008 1 1l3 9l3 15c0.666992 2.66699 1 7 1 13s2.16699 11.167 6.5 15.5s9.5 6.5 15.5 6.5zM283.005 668.01c-1.33301 0 -2.16699 -0.167969 -2.5 -0.500977s0.5 -0.166016 2.5 0.500977z
M211.004 596.009c0 -0.666992 -0.167969 -1.16699 -0.500977 -1.5s-0.166016 0.166992 0.500977 1.5z" />
    <glyph glyph-name="guillemotleft" unicode="&#xab;" horiz-adv-x="424" 
d="M215 539l-29 -46.501l-30 -46.5l-25.5 -41.5l-25.5 -41.5l51 -81l29 -47l30 -48c4 -5.33301 5 -11.5 3 -18.5s-6 -12.167 -12 -15.5s-12.333 -4.16602 -19 -2.49902s-11.667 5.5 -15 11.5l-30 46.5l-29 46.5l-60 96c-4.66699 8 -4.66699 16.333 0 25l29.5 46.5l29.5 47.5
l30 47l30 48c3.33301 5.33301 8.33301 9 15 11s13 1.33301 19 -2s10 -8.5 12 -15.5s1 -13.5 -3 -19.5zM351 281.999l29 -47.001l30 -48c4 -5.33301 5 -11.5 3 -18.5s-6 -12.167 -12 -15.5s-12.333 -4.16602 -19 -2.49902s-11.667 5.5 -15 11.5l-29.5 46.5l-29.5 46.5l-60 96
c-4.66699 8 -4.66699 16.333 0 25l29.5 46.5l29.5 47.5l30 47l30 48c3.33301 5.33301 8.33301 9 15 11s13 1.33301 19 -2s10 -8.5 12 -15.5s1 -13.5 -3 -19.5l-29 -46.5l-29 -46.5l-26.5 -41.5l-25.5 -41.5z" />
    <glyph glyph-name="guillemotright" unicode="&#xbb;" horiz-adv-x="424" 
d="M249 539c-4 6 -5 12.501 -3 19.501s6 12.167 12 15.5s12.333 4 19 2s11.667 -5.66699 15 -11l30 -48l30 -47l29.5 -47.5l29.5 -46.5c4.66699 -8.66699 4.66699 -17 0 -25l-60 -96l-29 -46.5l-30 -46.5c-3.33301 -6 -8.33301 -9.83301 -15 -11.5
s-13 -0.833984 -19 2.49902s-10 8.5 -12 15.5s-1 13.167 3 18.5l30 48l29 47l51 81l-25.5 41.5l-25.5 41.5l-30 46.5zM113 282.001l51 81.001l-25.5 41.5l-26.5 41.5l-29 46.5l-29 46.5c-4 6 -5 12.5 -3 19.5s6 12.167 12 15.5s12.333 4 19 2s11.667 -5.66699 15 -11l30 -48
l30 -47l29.5 -47.5l29.5 -46.5c4.66699 -8.66699 4.66699 -17 0 -25l-60 -96l-29.5 -46.5l-29.5 -46.5c-3.33301 -6 -8.33301 -9.83301 -15 -11.5s-13 -0.833984 -19 2.49902s-10 8.5 -12 15.5s-1 13.167 3 18.5l30 48z" />
    <glyph glyph-name="questiondown" unicode="&#xbf;" horiz-adv-x="375" 
d="M251 671c-7.33301 0 -13.333 2.5 -18 7.5s-7 11.167 -7 18.5c0 6.66699 2.33301 12.5 7 17.5s10.667 7.5 18 7.5s13.333 -2.5 18 -7.5s7 -10.833 7 -17.5c0 -7.33301 -2.33301 -13.5 -7 -18.5s-10.667 -7.5 -18 -7.5zM130 22
c-19.333 9.33301 -36.165 22.666 -50.498 39.999s-23.166 37 -26.499 59c-1.33301 11.333 -2 22.333 -2 33s1.33301 21.667 4 33c4 20 10.667 39.333 20 58c10 18.667 21.667 36.167 35 52.5s27.666 31.833 42.999 46.5c12 11.333 23.667 23 35 35c4 5.33301 7 9 9 11l2 2
c0.666992 1.33301 1.33398 2.33301 2.00098 3s1.33398 1.66699 2.00098 3l8 12c2.66699 4 5 8 7 12c1.33301 3.33301 2.33301 6.83301 3 10.5l2 10.5c1.33301 10.667 2.16602 21.5 2.49902 32.5s0.5 22.167 0.5 33.5c0 6.66699 2.33301 12.5 7 17.5s10.667 7.5 18 7.5
s13.333 -2.5 18 -7.5s7 -10.833 7 -17.5c0.666992 -22.667 -0.333008 -45.334 -3 -68.001l-2 -15.5c-0.666992 -5 -2 -10.167 -4 -15.5c-2.66699 -8.66699 -7 -17.334 -13 -26.001c-6 -9.33301 -12.333 -18.166 -19 -26.499s-13.667 -16.166 -21 -23.499
c-5.33301 -6 -11 -11.833 -17 -17.5l-18 -17.5c-3.33301 -3.33301 -6.33301 -6.5 -9 -9.5s-5.66699 -6.16699 -9 -9.5c-1.33301 -1.33301 -2.83301 -3 -4.5 -5s-3.5 -4 -5.5 -6c0 -0.666992 -0.5 -1.5 -1.5 -2.5s-1.5 -1.83301 -1.5 -2.5l-3 -3
c-12.667 -18 -23.334 -35.667 -32.001 -53c-5.33301 -14 -9 -27.667 -11 -41c-1.33301 -11.333 -1.33301 -22 0 -32c0.666992 -8 2.66699 -16 6 -24c1.33301 -2.66699 2.66602 -5.16699 3.99902 -7.5s3 -4.83301 5 -7.5c0 -0.666992 0.166992 -1 0.5 -1
s0.5 -0.333008 0.5 -1c1.33301 -1.33301 2 -2.33301 2 -3l3.5 -3.5l3.5 -3.5c1.33301 -0.666992 2.16602 -1.33398 2.49902 -2.00098s1.16602 -1.33398 2.49902 -2.00098l2 -1c1.33301 -1.33301 4 -3.33301 8 -6l9 -5.5c2.66699 -1.66699 5.66699 -3.16699 9 -4.5
c10.667 -4 22.334 -7 35.001 -9c11.333 -1.33301 22.666 -1.33301 33.999 0c9.33301 0.666992 19 3.33398 29 8.00098c3.33301 1.33301 6.33301 2.83301 9 4.5s5.33398 3.16699 8.00098 4.5c0 0.666992 0.333008 1 1 1l3 3c4 4 7 6.66699 9 8c2 2.66699 5 6 9 10
c0.666992 0.666992 1.16699 1.33398 1.5 2.00098s0.833008 1.33398 1.5 2.00098l1 2c4 6 7.33301 11.667 10 17c2 4 3 7.66699 3 11c0.666992 0.666992 1 1.66699 1 3c0 7.33301 2.33301 13.5 7 18.5s10.667 7.5 18 7.5c6.66699 0 12.5 -2.5 17.5 -7.5
s7.5 -11.167 7.5 -18.5c0 -6.66699 -1 -13 -3 -19c-2.66699 -11.333 -7.16699 -22 -13.5 -32s-13.5 -19.333 -21.5 -28c-4 -4 -8.16699 -7.83301 -12.5 -11.5s-8.83301 -7.16699 -13.5 -10.5c-8.66699 -6.66699 -18.334 -12 -29.001 -16
c-22.667 -9.33301 -46.667 -13 -72 -11s-48.666 8.66699 -69.999 20z" />
    <glyph glyph-name="Agrave" unicode="&#xc0;" 
d="M194 927c-3.33301 7.33301 -4.33301 13.667 -3 19c2.66699 7.33301 6.66699 12.333 12 15c6 4 12.333 5 19 3c3.33301 -1.33301 6.5 -2.83301 9.5 -4.5s5.16699 -4.16699 6.5 -7.5l22.5 -52l22.5 -52c3.33301 -8 4.33301 -14.667 3 -20
c-2.66699 -7.33301 -6.66699 -12.333 -12 -15c-6.66699 -3.33301 -13 -4 -19 -2c-6.66699 1.33301 -12 5 -16 11zM503 78.001c2.66699 -7.33301 5.00293 -14.834 7.00293 -22.501s4.33301 -15.5 7 -23.5c2 -6.66699 1.16699 -13.167 -2.5 -19.5
s-8.83398 -10.166 -15.501 -11.499c-6.66699 -2 -13 -1.33301 -19 2s-10 8.66602 -12 15.999c0 1.33301 -0.333008 2.33301 -1 3l-10 33l-10 33l-20 64.5l-20 64.5c-1.33301 5.33301 -2.83301 10.5 -4.5 15.5s-3.16699 10.167 -4.5 15.5h-125h-101
c-3.33301 -11.333 -6.83301 -22.5 -10.5 -33.5s-7.16699 -22.167 -10.5 -33.5l-18 -58c-6 -19.333 -12.333 -38.666 -19 -57.999c-2 -8 -4.16699 -15.833 -6.5 -23.5s-4.83301 -15.167 -7.5 -22.5c-2 -7.33301 -6 -12.666 -12 -15.999s-12.333 -4 -19 -2
c-6.66699 1.33301 -11.834 5.16602 -15.501 11.499s-4.5 12.833 -2.5 19.5c0 0.666992 0.166992 1.16699 0.5 1.5s0.5 0.833008 0.5 1.5c3.33301 11.333 6.83301 22.5 10.5 33.5s7.16699 22.167 10.5 33.5l20 64.5l20 64.5l25 79l24 79l24 76.5l24 77.5l18.5 58l18.5 58
c2.66699 8 5 15.833 7 23.5s4.33301 15.167 7 22.5c4.66699 12.667 13 19 25 19c12.667 0 20.667 -6.33301 24 -19c0 -0.666992 0.166992 -1 0.5 -1s0.5 -0.333008 0.5 -1l10 -33.5l10 -33.5c7.33301 -21.333 14.166 -42.833 20.499 -64.5l19.5 -64.5l24 -78.5l25 -79.5
l23 -76.5l24 -77.5zM382.003 299l-12 37.501c-4 12.333 -7.66699 25.166 -11 38.499l-24 76.5l-24 77.5l-12.5 42l-13.5 42l-18 -60c-6 -20 -12.333 -40 -19 -60l-24.5 -79l-24.5 -79l-6 -18c-2 -6 -3.66699 -12 -5 -18h122h72z" />
    <glyph glyph-name="Aacute" unicode="&#xc1;" 
d="M294 813c-5.33301 2.66699 -9.33301 7.66602 -12 14.999c-1.33301 5.33301 -0.333008 12 3 20l22.5 52l22.5 52c1.33301 3.33301 3.5 5.83301 6.5 7.5s5.83301 3.16699 8.5 4.5c7.33301 2 14 1 20 -3c5.33301 -2.66699 9.33301 -7.66699 12 -15
c1.33301 -5.33301 0.333008 -11.666 -3 -18.999v-1l-22.5 -52l-22.5 -52c-4 -6 -9.33301 -9.66699 -16 -11c-6 -2 -12.333 -1.33301 -19 2zM503 77.999c2 -7.33301 4.16992 -14.833 6.50293 -22.5l7.5 -23.5c2 -6.66699 1.16699 -13.167 -2.5 -19.5
s-8.83398 -10.166 -15.501 -11.499c-7.33301 -2 -13.833 -1.33301 -19.5 2s-9.5 8.66602 -11.5 15.999c0 0.666992 -0.166992 1.16699 -0.5 1.5s-0.5 0.833008 -0.5 1.5l-10 33l-10 33c-7.33301 21.333 -14.166 42.833 -20.499 64.5l-19.5 64.5
c-1.33301 5.33301 -2.83301 10.5 -4.5 15.5s-3.5 10.167 -5.5 15.5h-125h-101l-10 -33.5l-10 -33.5c-6.66699 -19.333 -13 -38.666 -19 -57.999l-18 -58c-2.66699 -8 -5 -15.833 -7 -23.5s-4.33301 -15.167 -7 -22.5c-2 -7.33301 -6 -12.666 -12 -15.999s-12.333 -4 -19 -2
c-6.66699 1.33301 -11.834 5.16602 -15.501 11.499s-4.5 12.833 -2.5 19.5c0 1.33301 0.333008 2.33301 1 3c3.33301 11.333 6.83301 22.5 10.5 33.5s7.16699 22.167 10.5 33.5l19.5 64.5c6.33301 21.667 13.166 43.167 20.499 64.5l24.5 79l24.5 79l24 76.5l24 77.5l18 58
l18 58l7.5 23.5c2.33301 7.66699 4.83301 15.167 7.5 22.5c3.33301 12.667 11.333 19 24 19c13.333 0 21.666 -6.33301 24.999 -19c0 -0.666992 0.333008 -1.33398 1 -2.00098l10 -33.5l10 -33.5l20 -64.5l20 -64.5l24 -78.5l24 -79.5l24 -76.5l24 -77.5zM382.003 298.999
l-12 37.5l-12 38.5l-23 76.5l-24 77.5c-4.66699 14 -9 28 -13 42s-8.33301 28 -13 42l-18.5 -60l-18.5 -60l-25 -79l-24 -79l-12 -36h122h73z" />
    <glyph glyph-name="Acircumflex" unicode="&#xc2;" 
d="M503 78c2 -7.33301 4.16992 -14.833 6.50293 -22.5l7.5 -23.5c2 -6.66699 1.16699 -13.167 -2.5 -19.5s-8.83398 -10.166 -15.501 -11.499c-7.33301 -2 -13.833 -1.33301 -19.5 2s-9.5 8.66602 -11.5 15.999c0 0.666992 -0.166992 1.16699 -0.5 1.5
s-0.5 0.833008 -0.5 1.5l-10 33l-10 33c-7.33301 21.333 -14.166 42.833 -20.499 64.5l-19.5 64.5c-1.33301 5.33301 -3 10.5 -5 15.5s-3.66699 10.167 -5 15.5h-125h-101l-10 -33.5l-10 -33.5c-6.66699 -19.333 -13 -38.666 -19 -57.999l-18 -58
c-2.66699 -8 -5 -15.833 -7 -23.5s-4.33301 -15.167 -7 -22.5c-2 -7.33301 -6 -12.666 -12 -15.999s-12.333 -4 -19 -2c-6.66699 1.33301 -11.834 5.16602 -15.501 11.499s-4.5 12.833 -2.5 19.5c0 1.33301 0.333008 2.33301 1 3c3.33301 11.333 6.83301 22.5 10.5 33.5
s7.16699 22.167 10.5 33.5l19.5 64.5c6.33301 21.667 13.166 43.167 20.499 64.5l24.5 79l24.5 79l24 76.5l24 77.5l18 58l18 58l7.5 23.5c2.33301 7.66699 4.83301 15.167 7.5 22.5c3.33301 12.667 11.333 19 24 19c13.333 0 21.666 -6.33301 24.999 -19
c0 -0.666992 0.333008 -1.33398 1 -2.00098l10 -33.5l10 -33.5l20 -64.5l20 -64.5l24 -78.5l24 -79.5l24 -76.5l24 -77.5zM382.003 299l-12 37.5l-12 38.5l-23 76.5l-24 77.5c-4.66699 14 -9 28 -13 42s-8.33301 28 -13 42l-18.5 -60l-18.5 -60l-25 -79l-24 -79l-12 -36h122
h73zM189.003 820c-5.33301 -5.33301 -11.333 -8 -18 -8s-12.667 2.66699 -18 8c-4.66699 4.66699 -7.16699 10.5 -7.5 17.5s2.16699 12.833 7.5 17.5c6 4.66699 11.333 10 16 16l46.5 42.5l46.5 43.5c5.33301 5.33301 11.333 8 18 8s12.667 -2.66699 18 -8l7.5 -7.5
c2.33301 -2.33301 5.16602 -4.83301 8.49902 -7.5l46 -43.5l46 -43.5c5.33301 -4.66699 7.83301 -10.5 7.5 -17.5s-2.83301 -12.833 -7.5 -17.5c-5.33301 -5.33301 -11.333 -8 -18 -8s-12.667 2.66699 -18 8c-3.33301 2.66699 -6.16602 5.16699 -8.49902 7.5l-7.5 7.5
l-37.5 34.5l-36.5 34.5l-45.5 -42z" />
    <glyph glyph-name="Atilde" unicode="&#xc3;" 
d="M503 78c2 -7.33301 4.16895 -14.832 6.50195 -22.499l7.5 -23.5c2 -6.66699 1.16699 -13.167 -2.5 -19.5s-8.83398 -10.166 -15.501 -11.499c-6.66699 -2 -13 -1.33301 -19 2s-10 8.66602 -12 15.999c0 0.666992 -0.166992 1.16699 -0.5 1.5s-0.5 0.833008 -0.5 1.5
l-10 33l-10 33c-7.33301 21.333 -14.166 42.833 -20.499 64.5l-19.5 64.5c-1.33301 5.33301 -2.83301 10.5 -4.5 15.5s-3.5 10.167 -5.5 15.5h-125h-100c-3.33301 -11.333 -6.83301 -22.5 -10.5 -33.5s-7.16699 -22.167 -10.5 -33.5l-18.5 -58l-18.5 -58
c-2 -8 -4.16699 -15.833 -6.5 -23.5s-4.83301 -15.167 -7.5 -22.5c-2 -7.33301 -6 -12.666 -12 -15.999s-12.333 -4 -19 -2c-6.66699 1.33301 -11.834 5.16602 -15.501 11.499s-4.5 12.833 -2.5 19.5c0 0.666992 0.166992 1.16699 0.5 1.5s0.5 0.833008 0.5 1.5
c3.33301 11.333 6.83301 22.5 10.5 33.5s7.16699 22.167 10.5 33.5l20 64.5l20 64.5l24.5 79l24.5 79l24 76.5l24 77.5l18 58c6 19.333 12.333 38.666 19 57.999c2 8 4.16699 15.833 6.5 23.5s4.83301 15.167 7.5 22.5c3.33301 12.667 11.666 19 24.999 19
c12.667 0 20.667 -6.33301 24 -19c0 -0.666992 0.166992 -1 0.5 -1s0.5 -0.333008 0.5 -1l10 -33.5l10 -33.5l20 -64.5l20 -64.5l24 -78.5l24 -79.5l24 -76.5l24 -77.5zM382.002 299.001l-12 37.501c-4 12.333 -7.66699 25.166 -11 38.499l-24 76.5l-24 77.5l-12.5 42
l-13.5 42l-18.5 -60l-18.5 -60l-25 -79l-24 -79l-12 -36h123h72zM163.002 828.002c-7.33301 0 -13.5059 2.32324 -18.5059 6.99023s-7.5 10.667 -7.5 18c0 10 1.66699 20.667 5 32c4 10.667 9.5 20.334 16.5 29.001s16.167 15.334 27.5 20.001
c10.667 4.66699 21.834 7.5 33.501 8.5s23.167 -0.833008 34.5 -5.5c5.33301 -2.66699 10.333 -5.5 15 -8.5s9.33398 -6.16699 14.001 -9.5l9 -7.5c2.66699 -2.33301 5.66699 -5.16602 9 -8.49902c2.66699 -2.66699 5.33398 -5.16699 8.00098 -7.5l9 -7.5l1 -1
c0.666992 -0.666992 1.33398 -1.16699 2.00098 -1.5s1.33398 -0.833008 2.00098 -1.5c1.33301 -0.666992 2.5 -1.16699 3.5 -1.5s2.16699 -0.833008 3.5 -1.5c2.66699 -1.33301 5 -2 7 -2c2.66699 -1.33301 5.66699 -1.33301 9 0c2 0 3.83301 0.166992 5.5 0.5
s3.5 0.833008 5.5 1.5c1.33301 1.33301 2.5 2.16602 3.5 2.49902s2.16699 1.16602 3.5 2.49902h1c0.666992 0.666992 1.16699 1.33398 1.5 2.00098s1.16602 1.33398 2.49902 2.00098c0.666992 0.666992 1 1.16699 1 1.5s0.333008 0.833008 1 1.5l2 2
c1.33301 2.66699 2.66602 5 3.99902 7c1.33301 4 2 7.33301 2 10c0.666992 0.666992 1 2.33398 1 5.00098c0 7.33301 2.33301 13.333 7 18s10.667 7 18 7s13.5 -2.33301 18.5 -7s7.16699 -10.667 6.5 -18c0 -10.667 -1.33301 -20 -4 -28
c-4 -11.333 -9.83301 -21.666 -17.5 -30.999s-16.834 -16.333 -27.501 -21s-21.834 -7.66699 -33.501 -9s-23.167 0.333984 -34.5 5.00098c-5.33301 2 -10.166 4.5 -14.499 7.5s-9.16602 6.16699 -14.499 9.5c-3.33301 2.66699 -6.16602 5.16699 -8.49902 7.5
s-5.16602 4.83301 -8.49902 7.5l-8.5 8.5c-2.33301 2.33301 -5.16602 4.83301 -8.49902 7.5c-0.666992 0 -1 0.333008 -1 1c-2.66699 1.33301 -4.33398 2.33301 -5.00098 3c-1.33301 0.666992 -2.5 1.33398 -3.5 2.00098s-2.16699 1.33398 -3.5 2.00098
c-4 1.33301 -7 2 -9 2c-4 0.666992 -7.66699 0.666992 -11 0c-2 0 -5 -0.666992 -9 -2c-2.66699 -1.33301 -4.66699 -2.66602 -6 -3.99902c-1.33301 -0.666992 -2.66602 -1.66699 -3.99902 -3l-2 -2c0 -0.666992 -0.166992 -1 -0.5 -1s-0.5 -0.333008 -0.5 -1l-3 -6
c-2 -4 -3 -8 -3 -12c-0.666992 -1.33301 -1 -3.66602 -1 -6.99902c0 -7.33301 -2.33301 -13.333 -7 -18s-10.667 -7 -18 -7z" />
    <glyph glyph-name="Adieresis" unicode="&#xc4;" horiz-adv-x="529" 
d="M503 78c2.66699 -7.33301 5.16895 -14.832 7.50195 -22.499s4.5 -15.5 6.5 -23.5c2 -6.66699 1.33301 -13.167 -2 -19.5s-8.33301 -10.166 -15 -11.499c-7.33301 -2 -14 -1.33301 -20 2s-10 8.66602 -12 15.999v3l-21 66l-39 129c-2 5.33301 -3.83301 10.5 -5.5 15.5
s-3.16699 10.167 -4.5 15.5h-125h-101c-3.33301 -11.333 -6.83301 -22.5 -10.5 -33.5s-7.16699 -22.167 -10.5 -33.5l-18 -58l-18 -58l-7.5 -23.5c-2.33301 -7.66699 -4.83301 -15.167 -7.5 -22.5c-2 -7.33301 -5.83301 -12.666 -11.5 -15.999s-12.167 -4 -19.5 -2
c-6.66699 1.33301 -11.834 5.16602 -15.501 11.499s-4.5 12.833 -2.5 19.5c0.666992 0.666992 1 1.66699 1 3c3.33301 11.333 6.83301 22.5 10.5 33.5s7.16699 22.167 10.5 33.5c7.33301 21.333 14.166 42.833 20.499 64.5l19.5 64.5l25 79l25 79l24 76.5l24 77.5l18 58
l18 58l7.5 23.5c2.33301 7.66699 4.5 15.167 6.5 22.5c4.66699 12.667 13 19 25 19c12.667 0 20.667 -6.33301 24 -19c0.666992 -0.666992 1 -1.33398 1 -2.00098c3.33301 -11.333 6.83301 -22.5 10.5 -33.5s7.16699 -22.167 10.5 -33.5l39 -129l24.5 -78.5l24.5 -79.5
l23.5 -76.5l23.5 -77.5zM382.002 299.001l-11.5 37.5l-11.5 38.5l-24 76.5c-8 25.667 -15.667 51.5 -23 77.5l-13.5 42l-12.5 42c-6.66699 -20 -13 -40 -19 -60s-12.333 -40 -19 -60l-24 -79l-25 -79c-2 -6 -3.83301 -12 -5.5 -18s-3.5 -12 -5.5 -18h122h72z
M188.002 863.001c-7.33301 0 -13.333 2.5 -18 7.5s-7 10.833 -7 17.5c0 7.33301 2.33301 13.5 7 18.5s10.667 7.5 18 7.5s13.5 -2.5 18.5 -7.5s7.5 -11.167 7.5 -18.5c0 -6.66699 -2.5 -12.5 -7.5 -17.5s-11.167 -7.5 -18.5 -7.5zM365.002 863.001
c-7.33301 0 -13.5 2.5 -18.5 7.5s-7.5 10.833 -7.5 17.5c0 7.33301 2.5 13.5 7.5 18.5s11.167 7.5 18.5 7.5c6.66699 0 12.5 -2.5 17.5 -7.5s7.5 -11.167 7.5 -18.5c0 -6.66699 -2.5 -12.5 -7.5 -17.5s-10.833 -7.5 -17.5 -7.5z" />
    <glyph glyph-name="Aring" unicode="&#xc5;" horiz-adv-x="529" 
d="M503 78c2.66699 -7.33301 5 -14.832 7 -22.499s4.33301 -15.5 7 -23.5c2 -6.66699 1.33301 -13.167 -2 -19.5s-8.33301 -10.166 -15 -11.499c-7.33301 -2 -14 -1.33301 -20 2s-10 8.66602 -12 15.999c0 1.33301 -0.333008 2.33301 -1 3l-10 33l-10 33l-19.5 64.5
c-6.33301 21.667 -13.166 43.167 -20.499 64.5c-1.33301 5.33301 -2.83301 10.5 -4.5 15.5s-3.16699 10.167 -4.5 15.5h-125h-101c-3.33301 -11.333 -6.83301 -22.5 -10.5 -33.5s-7.16699 -22.167 -10.5 -33.5l-18 -58l-18 -58l-7.5 -23.5
c-2.33301 -7.66699 -4.83301 -15.167 -7.5 -22.5c-2 -7.33301 -5.83301 -12.666 -11.5 -15.999s-12.167 -4 -19.5 -2c-6.66699 1.33301 -11.834 5.16602 -15.501 11.499s-4.5 12.833 -2.5 19.5c0.666992 0.666992 1 1.66699 1 3c3.33301 11.333 6.83301 22.5 10.5 33.5
s7.16699 22.167 10.5 33.5l20 64.5l20 64.5l25 79l25 79l24 76.5l24 77.5l18 58l18 58c2.66699 8 5 15.833 7 23.5s4.33301 15.167 7 22.5c4.66699 12.667 13 19 25 19c12.667 0 20.667 -6.33301 24 -19c0.666992 -0.666992 1 -1.33398 1 -2.00098
c3.33301 -11.333 6.83301 -22.5 10.5 -33.5s7.16699 -22.167 10.5 -33.5l39 -129l24.5 -78.5l24.5 -79.5l23.5 -76.5l23.5 -77.5zM382 299.001l-11.5 37.5l-11.5 38.5l-24 76.5l-24 77.5l-12.5 42l-12.5 42c-6.66699 -20 -13 -40 -19 -60s-12.333 -40 -19 -60l-24.5 -79
l-24.5 -79l-6 -18c-2 -6 -3.66699 -12 -5 -18h122h72zM258 802.001c-24 6 -42.667 19.999 -56 41.999c-7.33301 10.667 -12 22.167 -14 34.5s-1.66699 24.5 1 36.5c2 12 6.5 23 13.5 33s15.167 18.667 24.5 26c19.333 15.333 40.666 21.333 63.999 18
c12 -1.33301 23.667 -4.33301 35 -9s21 -11.667 29 -21c16.667 -18 25.667 -39.667 27 -65v-2c0 -11.333 -2 -22 -6 -32c-4.66699 -11.333 -10.667 -21.666 -18 -30.999s-16.666 -16.666 -27.999 -21.999c-23.333 -12.667 -47.333 -15.334 -72 -8.00098zM256 932
c-1.33301 -0.666992 -3 -2.00195 -5 -4.00195l-4 -4c0 -0.666992 -0.166992 -1 -0.5 -1s-0.5 -0.333008 -0.5 -1c-1.33301 -1.33301 -2.16602 -2.66602 -2.49902 -3.99902s-1.16602 -2.66602 -2.49902 -3.99902l-3 -12v-13l3 -12
c1.33301 -1.33301 2.16602 -2.83301 2.49902 -4.5s1.16602 -3.16699 2.49902 -4.5c0.666992 0 1 -0.333008 1 -1c2 -2 3.33301 -3.66699 4 -5c1.33301 -0.666992 3 -2 5 -4l1 -1c2 -0.666992 5 -2.33398 9 -5.00098l12 -3h12c3.33301 0.666992 7.66602 1.66699 12.999 3
c1.33301 1.33301 2.66602 2.33301 3.99902 3l4 2c0.666992 0.666992 1.33398 1 2.00098 1c0.666992 1.33301 1.33398 2.16602 2.00098 2.49902s1.33398 0.833008 2.00098 1.5c2 2 3.33301 3.66699 4 5c0.666992 0 1 0.333008 1 1c2.66699 4 4.33398 7 5.00098 9
c2 4 3 8 3 12c0.666992 1.33301 1 3.33301 1 6c0 3.33301 -0.333008 5.66602 -1 6.99902c0 4 -1 8 -3 12c-1.33301 2.66699 -3 5.33398 -5 8.00098c0 0.666992 -0.333008 1.33398 -1 2.00098s-1.16699 1.33398 -1.5 2.00098s-1.16602 1.33398 -2.49902 2.00098
c-0.666992 1.33301 -1.33398 2.16602 -2.00098 2.49902s-1.33398 0.833008 -2.00098 1.5s-1.33398 1 -2.00098 1c-4 2.66699 -7 4.33398 -9 5.00098c-2 1.33301 -6 2.66602 -12 3.99902h-12c-5.33301 -1.33301 -9.33301 -2.66602 -12 -3.99902
c-2 -0.666992 -5 -2.33398 -9 -5.00098z" />
    <glyph glyph-name="AE" unicode="&#xc6;" horiz-adv-x="833" 
d="M798 53c6.66699 0 12.5 -2.5 17.5 -7.5s7.5 -11.167 7.5 -18.5s-2.5 -13.333 -7.5 -18s-10.833 -7 -17.5 -7h-53h-159h-94c-7.33301 0 -13.333 2.5 -18 7.5s-7 10.833 -7 17.5v4v3v41v120v53h-125h-99l-31.5 -51.5l-31.5 -51.5l-30 -47.5l-30 -47.5
c-3.33301 -6.66699 -7 -13 -11 -19l-12 -18c-3.33301 -6 -8.33301 -10 -15 -12s-13 -1 -19 3c-6 3.33301 -10 8.33301 -12 15s-1 13 3 19l11.5 19.5c3.66699 6.33301 7.5 12.5 11.5 18.5l30 48.5l30 48.5l40.5 65.5l40.5 65.5l44.5 71.5l44.5 71.5l40.5 65l40.5 66l29.5 48
l29.5 47l11.5 19l11.5 19l3 3c4.66699 6 11 9 19 9h71h128h107c6.66699 0 12.5 -2.5 17.5 -7.5s7.5 -11.167 7.5 -18.5c0 -6.66699 -2.5 -12.5 -7.5 -17.5s-10.833 -7.5 -17.5 -7.5h-88h-99h-94v-15v-120v-143h27h160h94c6.66699 0 12.5 -2.33301 17.5 -7
s7.5 -10.667 7.5 -18s-2.5 -13.333 -7.5 -18s-10.833 -7 -17.5 -7h-53h-159h-69v-132v-127v-32h27h160h94zM467 299v58v12v151v89l-18 -29.5l-18 -29.5l-41.5 -65l-40.5 -66l-37 -60l-37 -60h104h88z" />
    </font>
</defs>
</svg>
