<?xml version="1.0" standalone="no"?>
<!DOCTYPE svg PUBLIC "-//W3C//DTD SVG 1.1//EN" "http://www.w3.org/Graphics/SVG/1.1/DTD/svg11.dtd" >
<svg>
<metadata>
Created by FontForge 20090914 at Sun Dec 10 16:24:36 2017
 By www-data
Copyright (c) 2014 by Fontfirma. All rights reserved.
</metadata>
<defs>
<font id="Nord-Bold" horiz-adv-x="521" >
  <font-face 
    font-family="Nord"
    font-weight="700"
    font-stretch="normal"
    units-per-em="1000"
    panose-1="2 0 0 0 0 0 0 0 0 0"
    ascent="750"
    descent="-250"
    x-height="498"
    cap-height="723"
    bbox="36 -353.141 1087.66 965.007"
    underline-thickness="50"
    underline-position="-50"
    unicode-range="U+0020-U+20AC"
  />
<missing-glyph horiz-adv-x="500" 
 />
    <glyph glyph-name=".notdef" horiz-adv-x="500" 
 />
    <glyph glyph-name="space" unicode=" " horiz-adv-x="500" 
 />
    <glyph glyph-name="exclam" unicode="!" horiz-adv-x="833" 
d="M440 745c24.667 0 45.6631 -8.66602 62.9961 -25.999s26 -38.333 26 -63v-42c0 -5.33301 -0.333008 -9.33301 -1 -12v-4v-8c-0.666992 -2 -1 -5 -1 -9c-1.33301 -17.333 -2.33301 -35 -3 -53s-1.66699 -36 -3 -54l-4 -65l-4 -65
c-0.666992 -10.667 -1.16699 -21.167 -1.5 -31.5s-1.16602 -21.166 -2.49902 -32.499c0 -12.667 -3 -24.334 -9 -35.001c-2 -2 -3.83301 -4.16699 -5.5 -6.5l-5.5 -7.5c-13.333 -13.333 -29.666 -20 -48.999 -20s-35.666 6.66699 -48.999 20
c-9.33301 9.33301 -15.333 19.666 -18 30.999c-0.666992 3.33301 -1.16699 6.33301 -1.5 9s-0.5 5.66699 -0.5 9c-0.666992 3.33301 -1 6.33301 -1 9v9c-1.33301 17.333 -2.5 35 -3.5 53s-2.16699 36 -3.5 54c-1.33301 21.333 -2.5 43 -3.5 65s-2.16699 43.667 -3.5 65
c-1.33301 10.667 -2.16602 21.167 -2.49902 31.5s-0.833008 20.833 -1.5 31.5v4c-0.666992 2.66699 -1 6.66699 -1 12v42c0 12 2.33301 23.5 7 34.5s11 20.5 19 28.5c17.333 17.333 38.333 26 63 26zM442.996 151.001c20.667 0 38.334 -7.33301 53.001 -22
s22 -32.667 22 -54c0 -20.667 -7.33301 -38.334 -22 -53.001s-32.334 -22 -53.001 -22s-38.5 7.33301 -53.5 22s-22.5 32.334 -22.5 53.001c0 21.333 7.5 39.333 22.5 54s32.833 22 53.5 22z" />
    <glyph glyph-name="numbersign" unicode="#" horiz-adv-x="833" 
d="M785 526c19.333 0 35.8389 -6.83301 49.5059 -20.5s20.5 -30.167 20.5 -49.5c0 -18.667 -6.83301 -34.834 -20.5 -48.501s-30.167 -20.5 -49.5 -20.5h-4h-61h-40c-5.33301 -15.333 -10.333 -30.5 -15 -45.5s-9.66699 -30.167 -15 -45.5h41h39
c19.333 0 35.666 -6.83301 48.999 -20.5s20 -29.834 20 -48.501c0 -19.333 -6.66699 -35.833 -20 -49.5s-29.666 -20.5 -48.999 -20.5h-5h-60h-61l-24 -72l-6 -18c-2 -6 -4 -11.667 -6 -17c-6 -18.667 -16.667 -32.334 -32 -41.001c-16 -10 -33.667 -12.333 -53 -7
c-8.66699 2 -16.667 5.83301 -24 11.5s-13.333 12.167 -18 19.5c-4.66699 8 -7.66699 16.833 -9 26.5s-0.666016 18.834 2.00098 27.501c1.33301 3.33301 2.5 6.83301 3.5 10.5s2.16699 7.16699 3.5 10.5c3.33301 8 6.16602 16.167 8.49902 24.5s5.16602 16.5 8.49902 24.5
h-39h-75l-24 -72l-6 -18c-2 -6 -4 -11.667 -6 -17c-3.33301 -9.33301 -7.33301 -17.333 -12 -24s-11.334 -12.334 -20.001 -17.001c-16 -10 -33.667 -12.333 -53 -7c-8.66699 2 -16.5 5.83301 -23.5 11.5s-12.833 12.167 -17.5 19.5
c-4.66699 8 -7.83398 16.833 -9.50098 26.5s-0.833984 18.834 2.49902 27.501c1.33301 3.33301 2.5 6.83301 3.5 10.5s2.16699 7.16699 3.5 10.5c2.66699 8 5.16699 16.167 7.5 24.5s5.16602 16.5 8.49902 24.5h-6h-39c-19.333 0 -35.666 6.83301 -48.999 20.5
s-20 30.167 -20 49.5c0 18.667 6.66699 34.834 20 48.501s29.666 20.5 48.999 20.5h4h61h26c0 1.33301 0.666992 3.33301 2 6c4.66699 14 9.16699 28.167 13.5 42.5s9.16602 28.5 14.499 42.5h-27h-38c-19.333 0 -35.833 6.83301 -49.5 20.5s-20.5 29.834 -20.5 48.501
c0 19.333 6.83301 35.833 20.5 49.5s30.167 20.5 49.5 20.5h4h61h46l4 12c1.33301 4 2.66602 8.33301 3.99902 13c5.33301 14.667 10.333 29.334 15 44.001l14 44l6 17.5l6 17.5c3.33301 8.66699 7.5 16.5 12.5 23.5s11.5 12.833 19.5 17.5c16 10 33.667 12.333 53 7
c8.66699 -2 16.5 -5.83301 23.5 -11.5s13.167 -12.167 18.5 -19.5c4.66699 -8 7.66699 -16.833 9 -26.5s0.666016 -18.834 -2.00098 -27.501c-1.33301 -3.33301 -2.5 -6.83301 -3.5 -10.5s-2.16699 -7.16699 -3.5 -10.5l-13.5 -39.5c-4.33301 -13 -8.5 -26.167 -12.5 -39.5
c-2 -3.33301 -3.33301 -7 -4 -11h53h61l4 12c1.33301 4 2.66602 8.33301 3.99902 13c5.33301 14.667 10.333 29.334 15 44.001l14 44l6 17.5l6 17.5c3.33301 8.66699 7.33301 16.5 12 23.5s11.334 12.833 20.001 17.5c16 10 33.667 12.333 53 7
c8.66699 -2 16.5 -5.83301 23.5 -11.5s12.833 -12.167 17.5 -19.5c4.66699 -8 7.83398 -16.833 9.50098 -26.5s0.833984 -18.834 -2.49902 -27.501c-1.33301 -3.33301 -2.5 -6.83301 -3.5 -10.5s-2.16699 -7.16699 -3.5 -10.5c-4 -13.333 -8.16699 -26.5 -12.5 -39.5
l-13.5 -39.5c-0.666992 -2 -1.16699 -3.83301 -1.5 -5.5s-0.833008 -3.5 -1.5 -5.5h21h38zM463.006 296h41.001c0 1.33301 0.666992 3.33301 2 6c4.66699 14 9.16699 28.167 13.5 42.5s9.16602 28.5 14.499 42.5h-59h-55c-5.33301 -15.333 -10.333 -30.5 -15 -45.5
s-9.66699 -30.167 -15 -45.5h73z" />
    <glyph glyph-name="dollar" unicode="$" horiz-adv-x="833" 
d="M335 6c-7.33301 1.33301 -14.668 3.5 -22.001 6.5s-14.333 6.16699 -21 9.5c-7.33301 3.33301 -14 7.33301 -20 12l-18 14l-11 9c-3.33301 2.66699 -6.66602 5.66699 -9.99902 9s-7 7.66602 -11 12.999c-5.33301 6 -10.333 12 -15 18s-8.66699 12.667 -12 20
c-7.33301 13.333 -13.666 27.666 -18.999 42.999c-2.66699 7.33301 -4.33398 15 -5.00098 23s-1.66699 15.667 -3 23c0 14 3.33301 26.333 10 37c2.66699 4.66699 6.33398 9.33398 11.001 14.001c13.333 14.667 30.333 22 51 22s37.667 -7.33301 51 -22
c8.66699 -8.66699 15 -19 19 -31v-4c0.666992 -4.66699 1.66699 -9.16699 3 -13.5l4 -12.5c3.33301 -7.33301 6.66602 -13.666 9.99902 -18.999c2 -2 4.16699 -4 6.5 -6s4.5 -4.33301 6.5 -7c0.666992 0 1.66699 -0.666992 3 -2v9v126
c-5.33301 1.33301 -10.166 2.66602 -14.499 3.99902l-13.5 4l-21.5 9.5c-7 3 -13.833 6.83301 -20.5 11.5c-6 4 -11.833 8.33301 -17.5 13s-11.167 9.66699 -16.5 15s-10.166 10.833 -14.499 16.5s-8.83301 11.167 -13.5 16.5c-3.33301 3.33301 -6 7 -8 11l-6 12l-9.5 19.5
c-3 6.33301 -5.5 13.166 -7.5 20.499s-3.5 14.666 -4.5 21.999s-2.16699 14.666 -3.5 21.999c-1.33301 8.66699 -1.33301 17.667 0 27c0.666992 14 2.66699 28 6 42l4 11.5l4 11.5l8 18.5c2.66699 6.33301 5.66699 12.5 9 18.5s7.16602 11.667 11.499 17l13.5 16
c4.66699 6 10 11.333 16 16l16 13.5c5.33301 4.33301 11 8.16602 17 11.499s12.167 6.33301 18.5 9l18.5 8c10.667 4 20.334 7 29.001 9v2v39c0 13.333 4.66699 24.666 14 33.999s20.666 14 33.999 14s24.833 -4.66699 34.5 -14s14.5 -20.666 14.5 -33.999v-11v-29
c0.666992 -0.666992 1.66699 -1 3 -1c7.33301 -2 14.333 -4.16699 21 -6.5s13.667 -5.16602 21 -8.49902l12 -6c4 -2 7.66699 -4.33301 11 -7l16.5 -13c5.66699 -4.66699 11.167 -9.66699 16.5 -15s10.166 -10.833 14.499 -16.5s8.5 -11.5 12.5 -17.5
c5.33301 -7.33301 8.66602 -16.166 9.99902 -26.499s0.666016 -20.166 -2.00098 -29.499c-5.33301 -18 -16.666 -32.333 -33.999 -43c-8 -5.33301 -16.833 -8.5 -26.5 -9.5s-19.167 -0.166992 -28.5 2.5c-11.333 2.66699 -22 9 -32 19c-2 2 -4 4.16699 -6 6.5
s-4 4.83301 -6 7.5c-0.666992 1.33301 -1.66699 2.66602 -3 3.99902v-8v-131c24 -5.33301 46 -13.666 66 -24.999c6.66699 -3.33301 12.834 -7.16602 18.501 -11.499s11.167 -8.83301 16.5 -13.5c3.33301 -3.33301 6.5 -6.33301 9.5 -9s5.83301 -5.66699 8.5 -9
c4.66699 -5.33301 9.16699 -10.833 13.5 -16.5s8.16602 -11.834 11.499 -18.501s6.33301 -13.167 9 -19.5s5.33398 -13.166 8.00098 -20.499c2 -7.33301 3.33301 -14.333 4 -21s1.66699 -13.667 3 -21c0.666992 -4 1 -8 1 -12v-12c0 -7.33301 -0.5 -14.166 -1.5 -20.499
s-2.16699 -13.166 -3.5 -20.499c-0.666992 -7.33301 -2.66699 -14.666 -6 -21.999c-3.33301 -10 -7.33301 -19.833 -12 -29.5s-10 -18.834 -16 -27.501l-12 -16c-4 -5.33301 -8.66699 -10.666 -14 -15.999c-4.66699 -4.66699 -9.66699 -9 -15 -13l-16 -12
c-8.66699 -6.66699 -17.834 -12.334 -27.501 -17.001s-19.5 -8.66699 -29.5 -12c-6 -2.66699 -11.333 -4.33398 -16 -5.00098v-2v-39c0 -13.333 -4.83301 -24.666 -14.5 -33.999s-21.167 -14 -34.5 -14s-24.666 4.66699 -33.999 14s-14 20.666 -14 33.999v10v30
c-1.33301 0 -4 0.666992 -8 2zM442.998 269c-1.33301 1.33301 -2.33496 2 -3.00195 2v-25v-82c1.33301 2 4 5 8 9l5.5 9.5l5.5 9.5c2.66699 7.33301 4.33398 14 5.00098 20c1.33301 6 1.33301 12.333 0 19s-2.66602 12 -3.99902 16c-2.66699 5.33301 -5 9.33301 -7 12z
M342.996 454l0.00195312 28v85l-12 -12c-1.33301 -2.66699 -2.83301 -5.33398 -4.5 -8.00098s-3.16699 -5.33398 -4.5 -8.00098c-1.33301 -3.33301 -2.33301 -6.5 -3 -9.5s-1.33398 -6.16699 -2.00098 -9.5c-0.666992 -6.66699 -0.666992 -13 0 -19
c0.666992 -3.33301 1.16699 -6.33301 1.5 -9s1.16602 -5.66699 2.49902 -9s3 -6.16602 5 -8.49902s3.66699 -5.16602 5 -8.49902z" />
    <glyph glyph-name="percent" unicode="%" horiz-adv-x="821" 
d="M811 151c0 -26 -4.99805 -51.001 -14.998 -75.001c-8.66699 -22 -22.334 -42.333 -41.001 -61c-16.667 -16.667 -36.667 -30.334 -60 -41.001c-24 -10 -49 -15 -75 -15c-26.667 0 -51.334 5 -74.001 15c-23.333 10 -43.666 23.667 -60.999 41
c-18.667 18.667 -32.334 39 -41.001 61c-10 24 -15 49 -15 75v88v15c-0.666992 -2 -2.33398 -5 -5.00098 -9l-31 -52.5l-30 -52.5l-22.5 -38l-22.5 -38c-2.66699 -5.33301 -5.33398 -10.166 -8.00098 -14.499l-9 -14.5c-9.33301 -16 -23.333 -26.5 -42 -31.5
s-36.334 -2.83301 -53.001 6.5c-16 9.33301 -26.5 23.333 -31.5 42s-2.83301 36.334 6.5 53.001c0.666992 1.33301 1.16699 2.16602 1.5 2.49902s0.833008 1.16602 1.5 2.49902l15 25l14 25l26.5 45c8.33301 14.667 17.166 29.334 26.499 44.001l16 27l16 27
c-9.33301 -2.66699 -18.666 -4.66699 -27.999 -6s-19 -2 -29 -2c-26.667 0 -51.334 5 -74.001 15c-22 9.33301 -42.333 23 -61 41c-17.333 17.333 -31 37.666 -41 60.999c-10 24 -15 48.667 -15 74v88v1c0 25.333 5 50 15 74c10 22.667 24 42.667 42 60
c16 16.667 36 30.334 60 41.001c24 10 48.667 15 74 15c26 0 51 -5 75 -15c11.333 -5.33301 22 -11.166 32 -17.499s19.333 -14.166 28 -23.499c16.667 -16 30.334 -36 41.001 -60c5.33301 -12 9.33301 -24 12 -36s4 -24.667 4 -38v-40l14 24l14 25l45 75
c4.66699 9.33301 10.334 19 17.001 29c9.33301 16.667 23.333 27.334 42 32.001s36 2.33398 52 -6.99902c16.667 -9.33301 27.334 -23.333 32.001 -42s2.33398 -36.334 -6.99902 -53.001c-0.666992 -0.666992 -1.66699 -2.33398 -3 -5.00098l-29 -49l-26 -45l-26 -45
c-7.33301 -13.333 -15 -26.5 -23 -39.5s-15.667 -26.167 -23 -39.5c10.667 7.33301 22 13.666 34 18.999c22.667 10 47.334 15 74.001 15c26 0 50.667 -5 74 -15s43.666 -23.667 60.999 -41s31 -37.333 41 -60c10 -23.333 15 -48 15 -74v-88zM241.002 431.999
c15.333 0 28.333 5.16699 39 15.5s16 23.166 16 38.499v88c0 15.333 -5.33301 28.166 -16 38.499s-23.667 15.5 -39 15.5s-28.166 -5.16699 -38.499 -15.5s-15.5 -23.166 -15.5 -38.499v-88c0 -15.333 5.16699 -28.166 15.5 -38.499s23.166 -15.5 38.499 -15.5z
M620.002 95.999c15.333 0 28.332 5.33398 38.999 16.001s16 23.667 16 39v43c0 5.33301 -0.166992 10.666 -0.5 15.999s-0.5 10 -0.5 14v14c0 15.333 -5.16699 28.166 -15.5 38.499s-23.166 15.5 -38.499 15.5s-28.166 -5.16699 -38.499 -15.5s-15.5 -23.166 -15.5 -38.499
v-87c0 -15.333 5.16699 -28.333 15.5 -39s23.166 -16 38.499 -16z" />
    <glyph glyph-name="ampersand" unicode="&#x26;" horiz-adv-x="649" 
d="M570 473c19.333 0 35.665 -6.83496 48.998 -20.502s20 -29.834 20 -48.501c0 -19.333 -6.66699 -35.833 -20 -49.5s-29.666 -20.5 -48.999 -20.5h-14h-33v-50v-43c0 -7.33301 -0.333008 -14.666 -1 -21.999s-1.66699 -14.666 -3 -21.999
c-1.33301 -10.667 -3.83301 -20.834 -7.5 -30.501s-7.83398 -19.5 -12.501 -29.5c-4 -9.33301 -8.83301 -18.166 -14.5 -26.499s-11.834 -16.833 -18.501 -25.5c-7.33301 -8 -14.666 -15.167 -21.999 -21.5s-15.333 -12.833 -24 -19.5
c-8.66699 -6 -17.667 -11.167 -27 -15.5s-19 -8.5 -29 -12.5c-10 -3.33301 -20.167 -5.83301 -30.5 -7.5s-20.833 -3.16699 -31.5 -4.5c-11.333 -1.33301 -22.333 -1.5 -33 -0.5s-21.334 2.5 -32.001 4.5s-20.834 4.83301 -30.501 8.5s-19.167 7.83398 -28.5 12.501
c-9.33301 5.33301 -18.166 10.833 -26.499 16.5s-16.5 12.167 -24.5 19.5c-7.33301 6.66699 -14.333 14 -21 22s-12.667 16.333 -18 25c-2.66699 3.33301 -4.83398 6.5 -6.50098 9.5l-5.5 9.5l-8 18.5c-2.66699 6.33301 -5 12.5 -7 18.5
c-1.33301 4 -2.33301 7.83301 -3 11.5s-1.66699 7.5 -3 11.5c-1.33301 6.66699 -2.33301 13.334 -3 20.001l-2 21v12c0 4 0.333008 7.66699 1 11c1.33301 14.667 3.33301 28.334 6 41.001c2 9.33301 4.33301 16.666 7 21.999c2.66699 6 5.16699 12.167 7.5 18.5
s5.16602 12.166 8.49902 17.499c2 3.33301 4 6.5 6 9.5s4 6.16699 6 9.5c8 11.333 16.333 21.666 25 30.999l12 12c-1.33301 1.33301 -2.33301 2.66602 -3 3.99902l-4.5 6.5c-1.66699 2.33301 -3.16699 4.83301 -4.5 7.5c-3.33301 5.33301 -6.33301 11 -9 17
s-5 12.333 -7 19c-2.66699 8.66699 -4.33398 16 -5.00098 22c-1.33301 7.33301 -2.5 14.333 -3.5 21s-1.16699 13.667 -0.5 21l2 20c0.666992 6.66699 1.66699 13.667 3 21c1.33301 6.66699 3.33301 13 6 19l8 18c2.66699 6.66699 6.33398 13.334 11.001 20.001
c6 10 14 20.333 24 31c4.66699 4.66699 9.5 9 14.5 13l15.5 12c6.66699 4.66699 13.334 8.33398 20.001 11.001c6 3.33301 12 6.33301 18 9s12.333 4.66699 19 6c6.66699 2 13.334 3.33301 20.001 4l20 2c9.33301 1.33301 18 1.33301 26 0
c7.33301 -1.33301 14.5 -2.33301 21.5 -3s14.167 -2.33398 21.5 -5.00098l20 -8c6.66699 -2.66699 13 -5.66699 19 -9l17.5 -12c5.66699 -4 11.167 -8.66699 16.5 -14c9.33301 -8.66699 18.333 -19.334 27 -32.001c6.66699 -12 10 -23.667 10 -35l-3 -18
c-5.33301 -18.667 -16 -32.667 -32 -42c-17.333 -10 -35 -12.333 -53 -7c-11.333 4 -21.666 10 -30.999 18c0 1.33301 -0.666992 2 -2 2c-2 3.33301 -4.16699 6.16602 -6.5 8.49902l-7.5 7.5c-2.66699 2 -6.66699 4.33301 -12 7c-4 1.33301 -8.66699 2.66602 -14 3.99902
h-14c-5.33301 -1.33301 -10 -2.66602 -14 -3.99902c-5.33301 -2.66699 -9.33301 -5 -12 -7c-1.33301 -1.33301 -3 -2.83301 -5 -4.5s-3.66699 -3.16699 -5 -4.5c-2.66699 -5.33301 -5 -9.33301 -7 -12c-0.666992 -2.66699 -1.16699 -5 -1.5 -7s-0.833008 -4.33301 -1.5 -7
c-1.33301 -5.33301 -1.33301 -10 0 -14c0.666992 -2.66699 1.16699 -5 1.5 -7s0.833008 -4.33301 1.5 -7c2 -2.66699 4.33301 -6.66699 7 -12c1.33301 -1.33301 3 -2.83301 5 -4.5s3.66699 -3.5 5 -5.5c5.33301 -2.66699 9.33301 -5 12 -7
c2.66699 -0.666992 5 -1.16699 7 -1.5s4.33301 -0.833008 7 -1.5h7l1 -1c0 0.666992 0.333008 1 1 1c19.333 0 35.833 -6.83301 49.5 -20.5s20.5 -30.167 20.5 -49.5s-6.83301 -35.666 -20.5 -48.999s-30.167 -20 -49.5 -20c-5.33301 0 -9.66602 -0.333008 -12.999 -1
c-4 -0.666992 -8 -1.5 -12 -2.5s-8.33301 -2.16699 -13 -3.5l-10.5 -6c-3.66699 -2 -7.16699 -4.33301 -10.5 -7c-7.33301 -6 -13.333 -12 -18 -18s-9 -13.333 -13 -22c-1.33301 -4 -2.5 -8 -3.5 -12s-2.16699 -8.33301 -3.5 -13v-26c1.33301 -4 2.5 -8.16699 3.5 -12.5
s2.16699 -8.5 3.5 -12.5l6 -10.5c2 -3.66699 4.33301 -7.16699 7 -10.5c4.66699 -7.33301 10.667 -13.333 18 -18c3.33301 -2.66699 6.83301 -5 10.5 -7l10.5 -6c4.66699 -1.33301 9 -2.5 13 -3.5s8 -2.16699 12 -3.5c8.66699 -1.33301 17.667 -1.33301 27 0
c4 1.33301 8 2.5 12 3.5s8 2.16699 12 3.5c8.66699 4 16 8.33301 22 13c6.66699 4.66699 12.667 10.667 18 18c2.66699 3.33301 5 6.83301 7 10.5l6 10.5c3.33301 8 5.33301 16.333 6 25c0.666992 4.66699 1 9.33398 1 14.001v15v53v96c0 18.667 6.83301 34.834 20.5 48.501
s29.834 20.5 48.501 20.5h15h102v0z" />
    <glyph glyph-name="parenleft" unicode="(" horiz-adv-x="319" 
d="M259 568c-8.66699 -11.333 -16.668 -23.3369 -24.001 -36.0039s-13.666 -25.667 -18.999 -39c-11.333 -28 -19.333 -57 -24 -87c-2.66699 -30 -2.66699 -60.333 0 -91c5.33301 -29.333 13.333 -58 24 -86c5.33301 -13.333 11.666 -26.333 18.999 -39
s15.333 -24.667 24 -36l15 -17c4.66699 -5.33301 9.66699 -10.666 15 -15.999c13.333 -13.333 20 -29.666 20 -48.999s-6.66699 -35.666 -20 -48.999c-6.66699 -6.66699 -14.334 -11.667 -23.001 -15s-17.5 -5 -26.5 -5s-17.667 1.66699 -26 5s-15.833 8.33301 -22.5 15
c-12 11.333 -23.333 23.666 -34 36.999l-19.5 27c-6.33301 8.66699 -12.5 17.667 -18.5 27l-11.5 21.5c-3.66699 7 -7.16699 14.167 -10.5 21.5c-9.33301 18.667 -17.333 38.667 -24 60c-6 17.333 -10.667 35.166 -14 53.499s-5.66602 37.166 -6.99902 56.499
c-0.666992 7.33301 -1.16699 15 -1.5 23s-0.166016 16 0.500977 24c0 10.667 0.666992 21.334 2 32.001l4 32c2.66699 15.333 6 30.666 10 45.999s9 30.333 15 45c13.333 37.333 30.666 71 51.999 101c8.66699 12 17.667 23.833 27 35.5s19.333 22.834 30 33.501
c6.66699 6.66699 14.167 11.667 22.5 15s17 5 26 5s17.833 -1.66699 26.5 -5s16.334 -8.33301 23.001 -15c13.333 -13.333 20 -29.666 20 -48.999s-6.66699 -35.666 -20 -48.999c-5.33301 -5.33301 -10.333 -10.666 -15 -15.999z" />
    <glyph glyph-name="parenright" unicode=")" horiz-adv-x="319" 
d="M100 568l-15.002 17.0039c-4.66699 5.33301 -9.66699 10.666 -15 15.999c-13.333 13.333 -20 29.666 -20 48.999s6.66699 35.666 20 48.999c6.66699 6.66699 14.334 11.667 23.001 15s17.5 5 26.5 5s17.667 -1.66699 26 -5s15.833 -8.33301 22.5 -15
c10.667 -10.667 20.667 -21.834 30 -33.501s18.333 -23.5 27 -35.5c21.333 -30 38.666 -63.667 51.999 -101c6 -14.667 11 -29.667 15 -45s7.33301 -30.666 10 -45.999l4 -32c1.33301 -10.667 2 -21.334 2 -32.001c0.666992 -8 0.833984 -16 0.500977 -24
s-0.833008 -15.667 -1.5 -23c-1.33301 -19.333 -3.66602 -38.166 -6.99902 -56.499s-8 -36.166 -14 -53.499c-7.33301 -21.333 -15.333 -41.333 -24 -60c-3.33301 -7.33301 -6.83301 -14.5 -10.5 -21.5l-11.5 -21.5c-6 -9.33301 -12.167 -18.333 -18.5 -27l-19.5 -27
c-11.333 -13.333 -22.666 -25.666 -33.999 -36.999c-6.66699 -6.66699 -14.167 -11.667 -22.5 -15s-17 -5 -26 -5s-17.833 1.66699 -26.5 5s-16.334 8.33301 -23.001 15c-13.333 13.333 -20 29.666 -20 48.999s6.66699 35.666 20 48.999
c5.33301 5.33301 10.333 10.666 15 15.999l15 17c8.66699 11.333 16.667 23.333 24 36s13.666 25.667 18.999 39c10.667 28 18.667 56.667 24 86c2.66699 30.667 2.66699 61 0 91c-5.33301 30 -13.333 59 -24 87c-5.33301 13.333 -11.666 26.333 -18.999 39
s-15.333 24.667 -24 36z" />
    <glyph glyph-name="plus" unicode="+" horiz-adv-x="477" 
d="M328 312v-70c0 -18.667 -6.83301 -34.834 -20.5 -48.501s-30.167 -20.5 -49.5 -20.5c-18.667 0 -34.834 6.83301 -48.501 20.5s-20.5 29.834 -20.5 48.501v1v69h-70c-19.333 0 -35.666 6.83301 -48.999 20.5s-20 30.167 -20 49.5c0 18.667 6.66699 34.834 20 48.501
s29.666 20.5 48.999 20.5h70v70c0 19.333 6.83301 35.666 20.5 48.999s29.834 20 48.501 20c19.333 0 35.833 -6.66699 49.5 -20s20.5 -29.666 20.5 -48.999v-70h70c18.667 0 34.834 -6.83301 48.501 -20.5s20.5 -29.834 20.5 -48.501
c0 -19.333 -6.83301 -35.833 -20.5 -49.5s-29.834 -20.5 -48.501 -20.5h-1h-69z" />
    <glyph glyph-name="comma" unicode="," horiz-adv-x="232" 
d="M171 142c18.667 -5.33301 32.3359 -16 41.0029 -32c6.66699 -12 10 -23.667 10 -35l-3 -18l-33 -87c-2.66699 -11.333 -8.33398 -21.333 -17.001 -30c-2.66699 -2 -5.16699 -4 -7.5 -6s-4.83301 -3.66699 -7.5 -5c-16 -10 -33.667 -12.333 -53 -7
c-18.667 5.33301 -32.334 16 -41.001 32c-6.66699 9.33301 -10 21 -10 35l3 18l16 43.5l16 43.5c4.66699 12.667 10.667 22.667 18 30c2.66699 2 5.16699 4 7.5 6s4.5 3.66699 6.5 5c8 5.33301 16.667 8.5 26 9.5s18.666 0.166992 27.999 -2.5z" />
    <glyph glyph-name="hyphen" unicode="-" horiz-adv-x="477" 
d="M398 451c18.667 0 34.834 -6.83301 48.501 -20.5s20.5 -29.834 20.5 -48.501c0 -19.333 -6.83301 -35.833 -20.5 -49.5s-29.834 -20.5 -48.501 -20.5h-1h-278c-19.333 0 -35.666 6.83301 -48.999 20.5s-20 30.167 -20 49.5c0 18.667 6.66699 34.834 20 48.501
s29.666 20.5 48.999 20.5h279z" />
    <glyph glyph-name="period" unicode="." horiz-adv-x="199" 
d="M119 145c19.333 0 35.833 -6.83301 49.5 -20.5s20.5 -30.167 20.5 -49.5s-6.83301 -35.666 -20.5 -48.999s-30.167 -20 -49.5 -20c-18.667 0 -34.834 6.66699 -48.501 20s-20.5 29.666 -20.5 48.999s6.83301 35.833 20.5 49.5s29.834 20.5 48.501 20.5z" />
    <glyph glyph-name="slash" unicode="/" horiz-adv-x="420" 
d="M154 14c-16 -10 -33.668 -12.334 -53.001 -7.00098c-8.66699 2 -16.5 5.83301 -23.5 11.5s-13.167 12.167 -18.5 19.5c-6 10.667 -9 22.334 -9 35.001c0.666992 3.33301 1.16699 6.5 1.5 9.5s0.5 6.16699 0.5 9.5l4 10.5l4 10.5c5.33301 12.667 10.333 25.334 15 38.001
l15 39l21.5 56l21.5 57l24 63l25 63l22.5 59.5l22.5 59.5l33 87c2.66699 5.33301 5 11 7 17s4 11.667 6 17c4 11.333 10 21.666 18 30.999c2.66699 1.33301 5.16699 3 7.5 5s4.5 3.66699 6.5 5c8 5.33301 16.667 8.5 26 9.5s18.666 0.166992 27.999 -2.5
c8.66699 -2 16.5 -5.83301 23.5 -11.5s12.833 -12.167 17.5 -19.5c6.66699 -12 10 -23.667 10 -35c-0.666992 -3.33301 -1.16699 -6.5 -1.5 -9.5s-0.833008 -6.16699 -1.5 -9.5l-4 -10.5l-4 -10.5c-5.33301 -12.667 -10.166 -25.334 -14.499 -38.001
s-9.16602 -25.667 -14.499 -39l-22 -56l-22 -57l-24 -63.5l-24 -63.5l-22.5 -58.5l-22.5 -59.5l-17.5 -43.5l-16.5 -43.5c-2 -5.33301 -4 -11 -6 -17s-4.33301 -11.667 -7 -17c-2.66699 -11.333 -8.66699 -21.666 -18 -30.999c-2 -1.33301 -4.16699 -3 -6.5 -5
s-4.83301 -3.66699 -7.5 -5z" />
    <glyph glyph-name="zero" unicode="0" horiz-adv-x="462" 
d="M452 202c0 -28 -5.33105 -54.167 -15.998 -78.5s-25 -45.5 -43 -63.5s-39.167 -32.333 -63.5 -43s-50.5 -16 -78.5 -16s-54.167 5.33301 -78.5 16s-45.5 25 -63.5 43s-32.333 39.167 -43 63.5s-16 50.5 -16 78.5v323c0 27.333 5.33301 53.166 16 77.499s25 45.5 43 63.5
s39.167 32.167 63.5 42.5s50.5 15.5 78.5 15.5c27.333 0 53.166 -5.16699 77.499 -15.5s45.666 -24.5 63.999 -42.5s32.833 -39.167 43.5 -63.5s16 -50.166 16 -77.499v-323zM297.002 156c4 3.33301 8.33398 9 13.001 17s7 17.667 7 29v322
c-0.666992 11.333 -3.33398 20.833 -8.00098 28.5s-8.66699 13.5 -12 17.5c-3.33301 3.33301 -9 7.33301 -17 12s-17.667 7 -29 7c-12 0 -21.833 -2.33301 -29.5 -7s-13.167 -8.66699 -16.5 -12c-4 -4 -8.16699 -9.83301 -12.5 -17.5s-6.83301 -17.167 -7.5 -28.5v-322
c0 -11.333 2.33301 -21 7 -29s8.66699 -13.667 12 -17c4 -3.33301 9.83301 -7.33301 17.5 -12s17.5 -7 29.5 -7s21.833 2.33301 29.5 7s13.167 8.66699 16.5 12z" />
    <glyph glyph-name="one" unicode="1" horiz-adv-x="385" 
d="M338 716c11.333 -7.33301 20.334 -16.6689 27.001 -28.002s10 -23.666 10 -36.999v-5v-61v-111v-134v-130v-98v-39c0 -20.667 -7.33301 -38.334 -22 -53.001s-32.667 -22 -54 -22c-20.667 0 -38.334 7.33301 -53.001 22s-22 32.334 -22 53.001v5v61v111v134v85l-45 -45
c-14.667 -15.333 -32.5 -23 -53.5 -23s-38.833 7.66699 -53.5 23c-14.667 14.667 -22 32.334 -22 53.001s7.33301 38.334 22 53.001l29 29l91 91l54 54c12 12 26.5 19.167 43.5 21.5s33.167 -0.833984 48.5 -9.50098z" />
    <glyph glyph-name="two" unicode="2" horiz-adv-x="502" 
d="M416 148c20.667 0 38.501 -7.32812 53.501 -21.9951s22.5 -32.334 22.5 -53.001c0 -21.333 -7.5 -39.333 -22.5 -54s-32.833 -22 -53.5 -22h-1h-79h-132h-69c-20 0 -38 7.33301 -54 22c-8.66699 9.33301 -15 20.333 -19 33l-3 21v16.5c0 5.66699 0.333008 11.167 1 16.5
c1.33301 8.66699 2.5 17 3.5 25s2.83301 16 5.5 24c2.66699 9.33301 5.83398 18.5 9.50098 27.5l11.5 27.5c2.66699 6 5.16699 12 7.5 18s5.16602 12 8.49902 18c2 4 4.33301 8.16699 7 12.5l8 12.5c7.33301 10 15 19.833 23 29.5s16.667 19.167 26 28.5
c21.333 20 43.833 39 67.5 57s45.167 38.333 64.5 61l10 16c3.33301 5.33301 6.33301 11 9 17c4 10 7 20 9 30v21c-1.33301 5.33301 -2.66602 9.66602 -3.99902 12.999l-2 4l-2 4l-3.5 3.5l-3.5 3.5l-9 5.5c-2.66699 1.66699 -5.66699 3.16699 -9 4.5
c-7.33301 2.66699 -15.333 4.66699 -24 6c-7.33301 1.33301 -15 1.33301 -23 0c-3.33301 -0.666992 -6.33301 -1.16699 -9 -1.5s-5.66699 -1.16602 -9 -2.49902c-1.33301 -1.33301 -2.66602 -2.33301 -3.99902 -3l-4 -2c-6.66699 -5.33301 -11.667 -10.666 -15 -15.999
c-2 -2 -4.33301 -5.66699 -7 -11c-0.666992 -18.667 -8 -35.334 -22 -50.001c-14.667 -14.667 -32.667 -22 -54 -22c-20.667 0 -38.5 7.5 -53.5 22.5s-22.167 32.833 -21.5 53.5c0 5.33301 0.333008 10.333 1 15s1.66699 9.66699 3 15l3 12
c2.66699 6.66699 5.5 13.334 8.5 20.001s6.16699 13 9.5 19c7.33301 10.667 16.333 22 27 34c5.33301 6 11 11.667 17 17c10 8.66699 21 16.667 33 24c4 2.66699 7.33301 4.33398 10 5.00098c4.66699 2 9.33398 4.16699 14.001 6.5s9.66699 4.16602 15 5.49902
c7.33301 2.66699 15.666 4.66699 24.999 6c8 1.33301 15.833 2.5 23.5 3.5s15.167 1.5 22.5 1.5s15 -0.5 23 -1.5s15.667 -2.16699 23 -3.5c4 -1.33301 8.16699 -2.5 12.5 -3.5s8.83301 -2.16699 13.5 -3.5c13.333 -4 27 -9.66699 41 -17
c8.66699 -4.66699 16 -9.33398 22 -14.001l17 -13c5.33301 -4 10.333 -8.66699 15 -14l13.5 -16c4.33301 -5.33301 8.16602 -11 11.499 -17s6.33301 -12.167 9 -18.5s5 -12.5 7 -18.5c1.33301 -3.33301 2.33301 -6.83301 3 -10.5l2 -10.5c3.33301 -15.333 5 -29 5 -41v-11.5
c0 -3.66699 -0.333008 -7.5 -1 -11.5c-1.33301 -7.33301 -2.5 -14.333 -3.5 -21s-2.16699 -13.334 -3.5 -20.001c-4.66699 -20 -12.334 -40 -23.001 -60c-5.33301 -10 -11 -19.333 -17 -28s-12.333 -17.334 -19 -26.001c-10 -12 -20.333 -23.333 -31 -34
c-21.333 -20.667 -43.833 -39.834 -67.5 -57.501s-44.834 -37.834 -63.501 -60.501c-8 -10.667 -15.333 -23.667 -22 -39c-0.666992 0 -1 -0.333008 -1 -1c-0.666992 -1.33301 -1.16699 -2.5 -1.5 -3.5s-0.833008 -2.16699 -1.5 -3.5h121h69v0z" />
    <glyph glyph-name="three" unicode="3" horiz-adv-x="547" 
d="M525 314c6.66699 -20.667 10.6641 -42.3301 11.9971 -64.9971v-24c-1.33301 -14 -3.33301 -28 -6 -42c-1.33301 -4 -2.33301 -7.83301 -3 -11.5s-1.66699 -7.16699 -3 -10.5l-8 -19.5c-2.66699 -6.33301 -5.66699 -12.5 -9 -18.5
c-1.33301 -3.33301 -3 -6.66602 -5 -9.99902l-6 -10l-12 -16c-4 -5.33301 -8.33301 -10.666 -13 -15.999c-2.66699 -2.66699 -5.33398 -5.16699 -8.00098 -7.5l-9 -7.5c-5.33301 -4.66699 -10.666 -9 -15.999 -13l-16 -12c-3.33301 -2 -6.66602 -3.83301 -9.99902 -5.5
s-6.66602 -3.5 -9.99902 -5.5l-18.5 -8c-6.33301 -2.66699 -12.833 -5 -19.5 -7c-4 -1.33301 -7.83301 -2.33301 -11.5 -3s-7.5 -1.66699 -11.5 -3c-7.33301 -1.33301 -14.333 -2.33301 -21 -3l-21 -2h-12c-4 0 -8 0.333008 -12 1c-7.33301 1.33301 -14.5 2.33301 -21.5 3
s-13.833 2 -20.5 4c-9.33301 2 -16.666 4.33301 -21.999 7l-19.5 8c-6.33301 2.66699 -12.5 5.66699 -18.5 9c-3.33301 1.33301 -6.5 3 -9.5 5s-6.16699 4.33301 -9.5 7l-16 12c-5.33301 4 -10.333 8.66699 -15 14c-6.66699 5.33301 -11.667 10.666 -15 15.999
c-9.33301 10.667 -17.333 21.667 -24 33l-6 10c-2 3.33301 -3.66699 6.66602 -5 9.99902l-8 19.5c-2.66699 6.33301 -5 12.833 -7 19.5c-1.33301 4 -2.16602 7.83301 -2.49902 11.5s-0.833008 7.5 -1.5 11.5c-1.33301 7.33301 -2.33301 14.5 -3 21.5s-1 14.167 -1 21.5
c-0.666992 20.667 6.5 38.334 21.5 53.001s32.833 22 53.5 22s38.334 -7.33301 53.001 -22s22.334 -32.334 23.001 -53.001v-13c1.33301 -4 2.33301 -8 3 -12s1.66699 -7.66699 3 -11l6 -10.5c2 -3.66699 4.33301 -7.16699 7 -10.5l7.5 -9
c2.33301 -2.66699 5.16602 -5.33398 8.49902 -8.00098l21 -12c8 -3.33301 15.667 -5.33301 23 -6c8.66699 -0.666992 17 -0.666992 25 0s16 2.66699 24 6l21 12c3.33301 2.66699 6.16602 5.33398 8.49902 8.00098l7.5 9c4.66699 6.66699 8.66699 13.667 12 21
c1.33301 3.33301 2.5 7 3.5 11s2.16699 8 3.5 12v25c-1.33301 4 -2.5 8 -3.5 12s-2.16699 8 -3.5 12c-3.33301 8 -7.33301 14.667 -12 20l-7.5 9c-2.33301 2.66699 -5.16602 5.33398 -8.49902 8.00098c-7.33301 4.66699 -14.333 8.66699 -21 12c-4 1.33301 -8 2.5 -12 3.5
s-8 2.16699 -12 3.5h-12c-20.667 0 -38.5 7.5 -53.5 22.5s-22.5 32.833 -22.5 53.5c0 11.333 2.5 21.833 7.5 31.5s11.833 18.167 20.5 25.5c14 12 30 18 48 18h6c2 0.666992 4.16699 1.16699 6.5 1.5s4.5 1.16602 6.5 2.49902c1.33301 1.33301 3 2.33301 5 3
s3.66699 1.66699 5 3l9 9c1.33301 1.33301 2.33301 3 3 5s1.66699 3.66699 3 5c1.33301 2.66699 2.66602 6.66699 3.99902 12v13c-1.33301 5.33301 -2.66602 9.66602 -3.99902 12.999c-1.33301 1.33301 -2.33301 3 -3 5s-1.66699 3.66699 -3 5l-9 9
c-1.33301 1.33301 -3 2.33301 -5 3s-3.66699 1.66699 -5 3c-2 1.33301 -4.16699 2.16602 -6.5 2.49902s-4.5 0.833008 -6.5 1.5h-13c-5.33301 -1.33301 -9.33301 -2.66602 -12 -3.99902c-2 -1.33301 -3.83301 -2.33301 -5.5 -3s-3.5 -1.66699 -5.5 -3
c-1.33301 -1.33301 -2.5 -2.66602 -3.5 -3.99902s-2.16699 -2.66602 -3.5 -3.99902c-7.33301 -10 -15.333 -17 -24 -21c-3.33301 -1.33301 -6.33301 -2.66602 -9 -3.99902s-5.66699 -2.66602 -9 -3.99902c-9.33301 -2.66699 -19.166 -3.33398 -29.499 -2.00098
s-19.833 4.66602 -28.5 9.99902c-18 9.33301 -29.667 24.333 -35 45c-2.66699 12.667 -2.66699 26 0 40c1.33301 3.33301 2.66602 6.33301 3.99902 9s2.66602 5.66699 3.99902 9c8 11.333 16 21 24 29c4 4.66699 8.5 8.83398 13.5 12.501l15.5 11.5
c7.33301 5.33301 15.333 10 24 14s17.667 7.66699 27 11c3.33301 1.33301 6.5 2.16602 9.5 2.49902s6.16699 0.833008 9.5 1.5c14.667 3.33301 28 5 40 5h9c2.66699 0 5.66699 -0.333008 9 -1c6 -1.33301 12 -2.33301 18 -3s11.667 -1.66699 17 -3c14 -4 27 -9 39 -15
l9.5 -5.5c3 -1.66699 6.16699 -3.83398 9.5 -6.50098l16 -12c5.33301 -4 10.666 -8.66699 15.999 -14c10 -10 18.333 -20.667 25 -32c2 -3.33301 4 -6.5 6 -9.5s3.66699 -6.16699 5 -9.5c6 -13.333 11 -26.333 15 -39c2.66699 -14 4.66699 -28 6 -42
c0 -7.33301 -0.333008 -14.5 -1 -21.5s-1.66699 -14.167 -3 -21.5l-2 -11.5c-0.666992 -3.66699 -1.66699 -7.5 -3 -11.5c-2 -6.66699 -4.33301 -13.167 -7 -19.5s-5.66699 -12.5 -9 -18.5c-1.33301 -2.66699 -2.83301 -5.16699 -4.5 -7.5l-5.5 -7.5
c7.33301 -6.66699 14.333 -13.834 21 -21.501s12.667 -15.834 18 -24.501c6 -8.66699 11.333 -17.834 16 -27.501s8.66699 -19.5 12 -29.5z" />
    <glyph glyph-name="four" unicode="4" horiz-adv-x="666" 
d="M581 330c20.667 0 38.3359 -7.33203 53.0029 -21.999s22 -32.334 22 -53.001c0 -21.333 -7.33301 -39.333 -22 -54s-32.334 -22 -53.001 -22h-47h-14v-73v-39c0 -20.667 -7.33301 -38.334 -22 -53.001s-32.667 -22 -54 -22c-20.667 0 -38.334 7.33301 -53.001 22
s-22 32.334 -22 53.001v7v64v41h-82h-114h-47c-17.333 0 -32.666 5.16699 -45.999 15.5s-22.333 23.5 -27 39.5c-4 13.333 -4 27 0 41c3.33301 12.667 9.66602 23.667 18.999 33c4 5.33301 7.33301 9.33301 10 12l25.5 32l26.5 33l39.5 48.5l39.5 49.5l42 52l42 52l33.5 42
l33.5 41c4.66699 5.33301 9.16699 11 13.5 17s8.83301 11.667 13.5 17c10 10 21 16.333 33 19c3.33301 0.666992 6.66602 1.16699 9.99902 1.5s6.66602 0.833008 9.99902 1.5c14.667 0 27.334 -3.33301 38.001 -10c11.333 -7.33301 20.5 -16.833 27.5 -28.5
s10.5 -24.167 10.5 -37.5v-6v-64v-113v-135v-2h13h48zM369.002 330.001v56v51l-12 -15l-37.5 -46l-36.5 -46h2h84z" />
    <glyph glyph-name="five" unicode="5" horiz-adv-x="531" 
d="M520 267c0.666992 -2.66699 1.00098 -5.33301 1.00098 -8v-9v-30c-1.33301 -14 -3.33301 -28 -6 -42c-1.33301 -4 -2.33301 -7.83301 -3 -11.5s-1.66699 -7.16699 -3 -10.5c-3.33301 -10 -7.33301 -19.833 -12 -29.5s-10 -19.167 -16 -28.5
c-6.66699 -8.66699 -13.334 -16.834 -20.001 -24.501s-14 -15.167 -22 -22.5c-8.66699 -6.66699 -17.334 -12.834 -26.001 -18.501s-17.667 -10.834 -27 -15.501l-19.5 -8c-6.33301 -2.66699 -12.833 -4.66699 -19.5 -6c-12.667 -3.33301 -26.667 -5.66602 -42 -6.99902
c-11.333 -1.33301 -22.5 -1.5 -33.5 -0.5s-22.167 2.5 -33.5 4.5c-10.667 1.33301 -21 4 -31 8s-19.667 8.33301 -29 13s-18.5 10 -27.5 16s-17.167 12.667 -24.5 20c-3.33301 2.66699 -6.16602 5.33398 -8.49902 8.00098s-4.83301 5.33398 -7.5 8.00098l-12.5 16
c-4.33301 5.33301 -8.16602 11 -11.499 17c-4.66699 6.66699 -8.33398 13.334 -11.001 20.001c-6 11.333 -11 24 -15 38c-1.33301 4 -2.33301 7.83301 -3 11.5l-2 11.5c-1.33301 7.33301 -2.33301 14.5 -3 21.5l-2 21.5c0 20.667 7.5 38.334 22.5 53.001s32.833 22 53.5 22
s38.334 -7.33301 53.001 -22s22 -32.334 22 -53.001c0 -2 0.166992 -4 0.5 -6s0.5 -4 0.5 -6c0.666992 -7.33301 2.66699 -14.333 6 -21c1.33301 -3.33301 3 -6.5 5 -9.5s4 -6.16699 6 -9.5l15 -15c3.33301 -2 6.5 -4 9.5 -6s6.16699 -3.66699 9.5 -5
c6.66699 -3.33301 13.667 -5.33301 21 -6s15 -0.666992 23 0c6.66699 0.666992 13.667 2.66699 21 6c3.33301 1.33301 6.5 3 9.5 5s6.16699 4 9.5 6c3.33301 2.66699 6.16602 5.16699 8.49902 7.5l7.5 7.5l5.5 9.5l5.5 9.5c1.33301 3.33301 2.33301 6.83301 3 10.5l2 10.5
c0.666992 3.33301 1 7 1 11v11v12c0 4 -0.333008 7.66699 -1 11l-2 10.5c-0.666992 3.66699 -1.66699 7.16699 -3 10.5l-5.5 9.5l-5.5 9.5l-7.5 7.5c-2.33301 2.33301 -5.16602 4.83301 -8.49902 7.5c-3.33301 2 -6.5 4 -9.5 6s-6.16699 3.66699 -9.5 5
c-7.33301 2.66699 -14.333 4.66699 -21 6h-5h-6h-16h-102c-20.667 0 -38.5 7.33301 -53.5 22s-22.5 32.667 -22.5 54v30v126v79c0 20.667 7.5 38.334 22.5 53.001s32.833 22 53.5 22h47h130h75c20.667 0 38.334 -7.33301 53.001 -22s22 -32.334 22 -53.001
s-7.33301 -38.5 -22 -53.5s-32.334 -22.5 -53.001 -22.5h-47h-130v-81v-3h35h8h10.5c3.66699 0 7.16699 -0.333008 10.5 -1c6.66699 -1.33301 13.167 -2.33301 19.5 -3s12.833 -1.66699 19.5 -3c3.33301 -1.33301 6.5 -2.5 9.5 -3.5s6.16699 -2.16699 9.5 -3.5
c12.667 -4 24.334 -9 35.001 -15c3.33301 -2 6.5 -4 9.5 -6s6.16699 -4 9.5 -6c5.33301 -4.66699 10.666 -9 15.999 -13s10.666 -8.33301 15.999 -13c2.66699 -2.66699 5.16699 -5.33398 7.5 -8.00098l7.5 -9l12 -16c4 -5.33301 7.66699 -11 11 -17s6.33301 -12.167 9 -18.5
l8 -19.5l4 -10.5l4 -10.5c3.33301 -14 5.33301 -28.333 6 -43z" />
    <glyph glyph-name="six" unicode="6" horiz-adv-x="518" 
d="M500 305c2 -7.33301 3.33105 -14.333 3.99805 -21s1.66699 -13.667 3 -21c0.666992 -5.33301 1 -11 1 -17v-17c0 -19.333 -2 -38.333 -6 -57c-1.33301 -8 -3.33301 -15.333 -6 -22l-8 -19.5c-2.66699 -6.33301 -5.66699 -12.5 -9 -18.5
c-2.66699 -6 -6.66699 -12.333 -12 -19l-12 -16c-4 -5.33301 -8.66699 -10.333 -14 -15c-4.66699 -5.33301 -9.66699 -10 -15 -14l-16 -12c-5.33301 -4.66699 -11.666 -9 -18.999 -13c-6 -3.33301 -12.167 -6.33301 -18.5 -9s-12.833 -5 -19.5 -7
c-5.33301 -2.66699 -12.666 -5 -21.999 -7c-14 -3.33301 -28 -5.33301 -42 -6h-12c-4 0 -8 0.333008 -12 1c-11.333 1.33301 -22.333 2.83301 -33 4.5s-21 4.5 -31 8.5l-19.5 8c-6.33301 2.66699 -12.5 6 -18.5 10c-6 3.33301 -11.667 7 -17 11s-10.666 8.33301 -15.999 13
c-15.333 12.667 -29.333 28.334 -42 47.001c-6 8.66699 -11.167 17.834 -15.5 27.501s-8.16602 19.5 -11.499 29.5c-3.33301 8 -5.33301 15.667 -6 23c-3.33301 15.333 -5 29.333 -5 42v25v10c0 3.33301 0.333008 6.66602 1 9.99902c1.33301 6.66699 2.33301 13.167 3 19.5
s1.66699 12.5 3 18.5c1.33301 3.33301 2.33301 6.5 3 9.5s1.66699 6.16699 3 9.5c2.66699 5.33301 5.16699 11 7.5 17s5.16602 11.667 8.49902 17c1.33301 2.66699 2 4.33398 2 5.00098c0.666992 0.666992 1 1.33398 1 2.00098l13 25l13 25l28 56.5l28 55.5l28.5 56l28.5 56
c4.66699 8.66699 9 17.167 13 25.5s8.33301 16.833 13 25.5c4 8.66699 10.167 16 18.5 22s17.166 10.333 26.499 13c20.667 5.33301 40 2.66602 58 -8.00098s29.667 -25.667 35 -45c2.66699 -14 2.66699 -27.333 0 -40c-1.33301 -3.33301 -2.66602 -6.33301 -3.99902 -9
s-2.66602 -5.66699 -3.99902 -9c-4 -8.66699 -8.16699 -17.167 -12.5 -25.5s-8.5 -16.833 -12.5 -25.5l-46 -89c2.66699 -0.666992 5.16699 -1 7.5 -1s4.83301 -0.333008 7.5 -1l11.5 -2c3.66699 -0.666992 7.5 -1.66699 11.5 -3c6.66699 -2 13.167 -4.33301 19.5 -7
s12.5 -5.66699 18.5 -9c3.33301 -1.33301 6.66602 -2.83301 9.99902 -4.5s6.66602 -3.83398 9.99902 -6.50098c8.66699 -5.33301 17 -11.333 25 -18s15.667 -14.334 23 -23.001c6.66699 -8 13.167 -16.333 19.5 -25s11.5 -17.667 15.5 -27c6 -13.333 11 -26.333 15 -39z
M289.998 145c3.33301 1.33301 6.66602 2.33105 9.99902 2.99805s6.66602 1.66699 9.99902 3c5.33301 2.66699 11 6 17 10c2.66699 2.66699 5.16699 5 7.5 7s4.5 4.33301 6.5 7l5.5 9c1.66699 2.66699 3.16699 5.66699 4.5 9s2.33301 6.5 3 9.5s1.66699 6.16699 3 9.5v22v21
c-1.33301 3.33301 -2.33301 6.5 -3 9.5s-1.66699 6.16699 -3 9.5s-2.83301 6.33301 -4.5 9l-5.5 9c-4 5.33301 -8.66699 10 -14 14c-6 4 -11.667 7.33301 -17 10c-3.33301 1.33301 -6.66602 2.33301 -9.99902 3s-6.66602 1.66699 -9.99902 3h-21
c-3.33301 -1.33301 -6.66602 -2.33301 -9.99902 -3s-6.66602 -1.66699 -9.99902 -3s-6.33301 -2.83301 -9 -4.5l-9 -5.5c-5.33301 -4 -10 -8.66699 -14 -14l-5.5 -9c-1.66699 -2.66699 -3.16699 -5.66699 -4.5 -9s-2.33301 -6.66602 -3 -9.99902
s-1.66699 -6.66602 -3 -9.99902v-10v-32c1.33301 -3.33301 2.33301 -6.5 3 -9.5s1.66699 -6.16699 3 -9.5s2.83301 -6.33301 4.5 -9l5.5 -9c2 -2.66699 4.16699 -5 6.5 -7s4.83301 -4.33301 7.5 -7l9 -5.5c2.66699 -1.66699 5.66699 -3.16699 9 -4.5
s6.66602 -2.33301 9.99902 -3s6.66602 -1.66699 9.99902 -3h21z" />
    <glyph glyph-name="seven" unicode="7" horiz-adv-x="550" 
d="M465 725c13.333 0 25.8301 -3.33496 37.4971 -10.002s20.834 -15.667 27.501 -27s10 -24 10 -38s-3.33301 -26.667 -10 -38v-1c-3.33301 -6 -6.5 -12 -9.5 -18s-6.16699 -12 -9.5 -18l-21 -42l-21 -43l-28.5 -56l-28.5 -56l-31 -61l-31 -60l-28 -55.5l-28 -55.5
c-7.33301 -13.333 -14.166 -26.833 -20.499 -40.5s-13.166 -27.167 -20.499 -40.5l-7.5 -15.5c-2.33301 -5 -5.16602 -10.167 -8.49902 -15.5c-4 -8.66699 -10.167 -16 -18.5 -22s-17.166 -10.333 -26.499 -13c-20 -5.33301 -39.333 -2.66602 -58 8.00098
c-17.333 10 -29 25 -35 45c-2.66699 14 -2.66699 27.333 0 40c1.33301 3.33301 2.66602 6.33301 3.99902 9s2.66602 5.66699 3.99902 9v1c3.33301 6 6.5 12 9.5 18s6.16699 12 9.5 18l21.5 42.5l21.5 42.5l28.5 56l28.5 56l30 61l31 60l27.5 55l27.5 54h-28h-128h-61
c-20.667 0 -38.334 7.5 -53.001 22.5s-22 32.833 -22 53.5s7.33301 38.334 22 53.001s32.334 22 53.001 22h34h117h128h61v0z" />
    <glyph glyph-name="eight" unicode="8" horiz-adv-x="530" 
d="M422 410c30 -21.333 53.8291 -48.668 71.4961 -82.001s26.5 -69.666 26.5 -108.999c0 -32.667 -6.16699 -63.167 -18.5 -91.5s-29.166 -53.166 -50.499 -74.499s-46.166 -38.166 -74.499 -50.499s-58.833 -18.5 -91.5 -18.5s-63.167 6.16699 -91.5 18.5
s-53.166 29.166 -74.499 50.499s-38.166 46.166 -50.499 74.499s-18.5 58.833 -18.5 91.5c0 41.333 9.83301 79 29.5 113s45.5 61.667 77.5 83c-17.333 17.333 -30.833 37.5 -40.5 60.5s-14.5 47.833 -14.5 74.5c0 26 5 50.667 15 74s23.5 43.5 40.5 60.5
s37.167 30.5 60.5 40.5s48 15 74 15c26.667 0 51.5 -5 74.5 -15s43.167 -23.5 60.5 -40.5s31 -37.167 41 -60.5s15 -48 15 -74c0 -28 -5.33301 -54 -16 -78s-25.667 -44.667 -45 -62zM244.996 596.998c-13.333 -12 -20 -27.667 -20 -47c0 -18.667 6.66699 -34.667 20 -48
c12 -13.333 27.667 -20 47 -20c18.667 0 34.667 6.66699 48 20s20 29.333 20 48c0 19.333 -6.66699 35 -20 47c-13.333 13.333 -29.333 20 -48 20c-19.333 0 -35 -6.66699 -47 -20zM353.996 148.998c19.333 19.333 29 42.666 29 69.999c0 26.667 -9.66699 49.667 -29 69
c-18.667 18.667 -41.667 28 -69 28s-50.333 -9.33301 -69 -28c-19.333 -19.333 -29 -42.333 -29 -69c0 -27.333 9.66699 -50.666 29 -69.999c18.667 -18.667 41.667 -28 69 -28s50.333 9.33301 69 28z" />
    <glyph glyph-name="nine" unicode="9" horiz-adv-x="517" 
d="M507 477l0.00195312 -9.99707c0 -3.33301 -0.333008 -6.66602 -1 -9.99902c-1.33301 -6.66699 -2.33301 -13.167 -3 -19.5s-1.66699 -12.5 -3 -18.5l-6 -18c-2.66699 -6 -5.16699 -12 -7.5 -18s-5.16602 -11.667 -8.49902 -17
c0 -0.666992 -0.666992 -2.33398 -2 -5.00098c-0.666992 0 -1 -0.333008 -1 -1c-4 -8.66699 -8.16699 -17.167 -12.5 -25.5l-12.5 -24.5l-28.5 -55.5l-28.5 -56.5l-28 -55.5l-28 -56.5l-13.5 -25.5c-4.33301 -8.33301 -8.5 -16.833 -12.5 -25.5
c-4.66699 -8.66699 -11 -15.834 -19 -21.501s-16.667 -9.83398 -26 -12.501c-20 -6 -39.667 -3.66699 -59 7c-8 5.33301 -15 11.833 -21 19.5s-10.333 16.167 -13 25.5c-4 14 -4 27.333 0 40c1.33301 3.33301 2.5 6.5 3.5 9.5s2.16699 6.16699 3.5 9.5
c4.66699 8 9 16.167 13 24.5s8.33301 16.5 13 24.5l45 90c-4 0 -8.66699 0.666992 -14 2l-12 2c-4 0.666992 -7.66699 1.66699 -11 3c-14 4 -26.667 9 -38 15c-6.66699 2.66699 -13.334 6.33398 -20.001 11.001c-8.66699 6 -17.167 12.333 -25.5 19s-15.833 14 -22.5 22
c-7.33301 8 -14 16.333 -20 25s-11 18 -15 28c-6 11.333 -11 24 -15 38c-2 7.33301 -3.33301 14.333 -4 21s-1.66699 13.667 -3 21c-0.666992 5.33301 -1 11 -1 17v17c0 18.667 2 37.667 6 57c1.33301 8 3.33301 15.333 6 22l7.5 19.5
c2.33301 6.33301 5.16602 12.5 8.49902 18.5c2 3.33301 4 6.5 6 9.5s4.33301 6.16699 7 9.5l12 16c4 5.33301 8.33301 10.333 13 15c5.33301 5.33301 10.666 10 15.999 14l16 12c6.66699 5.33301 13 9.33301 19 12c6 3.33301 12.167 6.33301 18.5 9l18.5 8
c4 1.33301 7.83301 2.5 11.5 3.5s7.16699 2.16699 10.5 3.5c7.33301 1.33301 14.5 2.33301 21.5 3l21.5 2c8 0.666992 16 0.666992 24 0c11.333 -1.33301 22.166 -2.83301 32.499 -4.5s20.833 -4.83398 31.5 -9.50098l18.5 -8c6.33301 -2.66699 12.5 -5.66699 18.5 -9
c12 -7.33301 23 -15.333 33 -24c8.66699 -6.66699 16.334 -14 23.001 -22s13 -16.333 19 -25s11.333 -17.834 16 -27.501s8.66699 -19.5 12 -29.5c1.33301 -4 2.33301 -7.83301 3 -11.5l2 -11.5c3.33301 -15.333 5 -29.333 5 -42v-25zM289.002 575.003
c-7.33301 0.666992 -14.333 0.668945 -21 0.00195312l-10 -2c-3.33301 -0.666992 -6.66602 -1.66699 -9.99902 -3s-6.33301 -3 -9 -5s-5.33398 -3.66699 -8.00098 -5l-7.5 -7.5c-2.33301 -2.33301 -4.5 -4.83301 -6.5 -7.5s-3.83301 -5.33398 -5.5 -8.00098
s-3.16699 -5.66699 -4.5 -9s-2.33301 -6.5 -3 -9.5s-1.66699 -6.16699 -3 -9.5v-22v-21c1.33301 -3.33301 2.33301 -6.5 3 -9.5s1.66699 -6.16699 3 -9.5s2.83301 -6.33301 4.5 -9l5.5 -9c2 -2.66699 4.16699 -5 6.5 -7s4.83301 -4.33301 7.5 -7
c2.66699 -1.33301 5.33398 -3 8.00098 -5s5.66699 -3.66699 9 -5s6.66602 -2.33301 9.99902 -3l10 -2c6.66699 -1.33301 13.667 -1.33301 21 0l10 2c3.33301 0.666992 6.66602 1.66699 9.99902 3s6.33301 3 9 5s5.33398 3.66699 8.00098 5c2.66699 2.66699 5.16699 5 7.5 7
s4.5 4.33301 6.5 7l5.5 9c1.66699 2.66699 3.16699 5.66699 4.5 9s2.33301 6.66602 3 9.99902s1.66699 6.66602 3 9.99902v10v32c-1.33301 3.33301 -2.33301 6.5 -3 9.5s-1.66699 6.16699 -3 9.5s-2.83301 6.33301 -4.5 9s-3.5 5.33398 -5.5 8.00098
s-4.16699 5.16699 -6.5 7.5l-7.5 7.5c-2.66699 1.33301 -5.33398 3 -8.00098 5s-5.66699 3.66699 -9 5s-6.66602 2.33301 -9.99902 3z" />
    <glyph glyph-name="colon" unicode=":" horiz-adv-x="198" 
d="M119 327c-19.333 0 -35.666 6.66699 -48.999 20s-20 29.666 -20 48.999s6.66699 35.666 20 48.999s29.666 20 48.999 20s35.666 -6.66699 48.999 -20s20 -29.666 20 -48.999s-6.66699 -35.666 -20 -48.999s-29.666 -20 -48.999 -20zM119 259
c19.333 0 35.666 -6.83301 48.999 -20.5s20 -29.834 20 -48.501c0 -19.333 -6.66699 -35.833 -20 -49.5s-29.666 -20.5 -48.999 -20.5s-35.666 6.83301 -48.999 20.5s-20 30.167 -20 49.5c0 18.667 6.66699 34.834 20 48.501s29.666 20.5 48.999 20.5z" />
    <glyph glyph-name="semicolon" unicode=";" horiz-adv-x="231" 
d="M152 327c-19.333 0 -35.666 6.66699 -48.999 20s-20 29.666 -20 48.999s6.66699 35.666 20 48.999s29.666 20 48.999 20s35.666 -6.66699 48.999 -20s20 -29.666 20 -48.999s-6.66699 -35.666 -20 -48.999s-29.666 -20 -48.999 -20zM101 36
c-18.667 5.33301 -32.667 16 -42 32c-6 10.667 -9 22.334 -9 35.001c0.666992 3.33301 1 6.33301 1 9s0.333008 5.66699 1 9l33 87c2.66699 11.333 8.66699 21.666 18 30.999c2.66699 1.33301 5 3 7 5s4.33301 3.66699 7 5c16 10 33.667 12.333 53 7
c9.33301 -2 17.5 -5.83301 24.5 -11.5s12.833 -12.167 17.5 -19.5c6 -11.333 9 -23 9 -35c-0.666992 -3.33301 -1 -6.5 -1 -9.5s-0.333008 -6.16699 -1 -9.5l-33 -87c-3.33301 -12 -9.33301 -22 -18 -30c-2.66699 -2 -5 -3.83301 -7 -5.5s-4.33301 -3.5 -7 -5.5
c-17.333 -10 -35 -12.333 -53 -7z" />
    <glyph glyph-name="less" unicode="&#x3c;" horiz-adv-x="400" 
d="M285 195c-6.66699 4.66699 -12.998 9.32812 -18.998 13.9951l-19 15l-51.5 39.5l-51.5 39.5l-60 45c-10 6.66699 -18.333 15 -25 25c-6 10.667 -9 22.334 -9 35.001c0 12 3 23.667 9 35c6.66699 10.667 15 19 25 25l19 15c6 4.66699 12.333 9.33398 19 14.001l51.5 39.5
l51.5 39.5l30 23l30 23c10.667 6 22.334 9 35.001 9c3.33301 0 6.33301 -0.166992 9 -0.5s5.66699 -0.833008 9 -1.5c18.667 -5.33301 32.667 -16 42 -32c10 -17.333 12.333 -35 7 -53c-4 -11.333 -10 -21.666 -18 -30.999l-7.5 -5.5c-2.33301 -1.66699 -4.5 -3.5 -6.5 -5.5
c-6.66699 -5.33301 -13 -10.166 -19 -14.499s-12.333 -9.16602 -19 -14.499l-42.5 -32l-42.5 -33l63 -48l30 -22.5l30 -23.5c9.33301 -5.33301 17.666 -13.333 24.999 -24c2 -6 4.33301 -11.667 7 -17c5.33301 -18 3 -35.667 -7 -53s-24 -28 -42 -32
c-12 -4 -24.333 -4 -37 0c-2.66699 1.33301 -5.33398 2.5 -8.00098 3.5s-5.33398 2.16699 -8.00098 3.5z" />
    <glyph glyph-name="equal" unicode="=" horiz-adv-x="477" 
d="M398 332c18.667 0 34.834 -6.83301 48.501 -20.5s20.5 -29.834 20.5 -48.501c0 -19.333 -6.83301 -35.833 -20.5 -49.5s-29.834 -20.5 -48.501 -20.5h-1h-278c-19.333 0 -35.666 6.83301 -48.999 20.5s-20 30.167 -20 49.5c0 18.667 6.66699 34.834 20 48.501
s29.666 20.5 48.999 20.5h279zM398 520c18.667 0 34.834 -6.66699 48.501 -20s20.5 -29.666 20.5 -48.999s-6.83301 -35.666 -20.5 -48.999s-29.834 -20 -48.501 -20h-1h-278c-19.333 0 -35.666 6.66699 -48.999 20s-20 29.666 -20 48.999s6.66699 35.666 20 48.999
s29.666 20 48.999 20h279z" />
    <glyph glyph-name="greater" unicode="&#x3e;" horiz-adv-x="400" 
d="M155 195c-2.66699 -1.33301 -5.33105 -2.49414 -7.99805 -3.49414s-5.33398 -2.16699 -8.00098 -3.5c-12.667 -4 -25 -4 -37 0c-18 4 -32 14.667 -42 32s-12.333 35 -7 53c2.66699 5.33301 5 11 7 17c7.33301 10.667 15.666 18.667 24.999 24l30 23.5l30 22.5l63 48
l-42.5 33l-42.5 32c-6.66699 5.33301 -13 10.166 -19 14.499s-12.333 9.16602 -19 14.499c-2 2 -4.16699 3.83301 -6.5 5.5l-7.5 5.5c-8 9.33301 -14 19.666 -18 30.999c-5.33301 18 -3 35.667 7 53c9.33301 16 23.333 26.667 42 32c3.33301 0.666992 6.33301 1.16699 9 1.5
s5.66699 0.5 9 0.5c12 0 23.667 -3 35 -9l30 -23l30 -23l51.5 -39.5l51.5 -39.5c6.66699 -4.66699 13 -9.33398 19 -14.001l19 -15c10 -6 18.333 -14.333 25 -25c6 -11.333 9 -23 9 -35c0 -12.667 -3 -24.334 -9 -35.001c-6.66699 -10 -15 -18.333 -25 -25l-60 -45
l-51.5 -39.5l-51.5 -39.5l-19 -15c-6 -4.66699 -12.333 -9.33398 -19 -14.001z" />
    <glyph glyph-name="question" unicode="?" horiz-adv-x="414" 
d="M198 149c20.667 0 38.334 -7.33301 53.001 -22s22 -32.334 22 -53.001s-7.33301 -38.5 -22 -53.5s-32.334 -22.5 -53.001 -22.5s-38.5 7.5 -53.5 22.5s-22.5 32.833 -22.5 53.5s7.5 38.334 22.5 53.001s32.833 22 53.5 22zM398 602
c2 -6.66699 3.32422 -13.3369 3.99121 -20.0039l2 -20v-11c0 -4 -0.333008 -7.66699 -1 -11c-1.33301 -7.33301 -2.33301 -14.166 -3 -20.499s-2 -12.833 -4 -19.5c-3.33301 -10 -7.16602 -20 -11.499 -30s-9.5 -19.667 -15.5 -29
c-12.667 -20.667 -26.667 -39.334 -42 -56.001c-8.66699 -9.33301 -17.667 -18.333 -27 -27s-18 -17.667 -26 -27c-1.33301 -1.33301 -2.16602 -2.5 -2.49902 -3.5s-1.16602 -2.16699 -2.49902 -3.5s-2.16602 -2.66602 -2.49902 -3.99902
s-1.16602 -2.66602 -2.49902 -3.99902c0 -0.666992 -0.166992 -1.33398 -0.5 -2.00098s-0.5 -1.66699 -0.5 -3c-1.33301 -7.33301 -2 -15 -2 -23v-23c0 -19.333 -6.66699 -35.666 -20 -48.999s-29.666 -20 -48.999 -20s-35.666 6.66699 -48.999 20s-20 29.666 -20 48.999
v21.5c0 7 0.333008 14.167 1 21.5c1.33301 13.333 3.16602 26.5 5.49902 39.5s7.16602 25.5 14.499 37.5c10.667 18 24 35.667 40 53c4.66699 5.33301 9.33398 10.166 14.001 14.499l14 13.5l13.5 13.5c4.33301 4.33301 8.16602 8.83301 11.499 13.5
c4 5.33301 7.83301 11 11.5 17s7.16699 12.333 10.5 19c2.66699 6 4.66699 12.667 6 20v14c0 1.33301 -0.666992 3.33301 -2 6c0 1.33301 -0.666992 2.66602 -2 3.99902l-3 3c-4 2.66699 -7.66699 5 -11 7c-2.66699 0.666992 -5.16699 1.33398 -7.5 2.00098
s-5.16602 1.33398 -8.49902 2.00098h-14c-5.33301 -1.33301 -9 -2.33301 -11 -3c-1.33301 -0.666992 -2.66602 -1.66699 -3.99902 -3c-2.66699 -2 -6 -5 -10 -9c-1.33301 -2.66699 -2.33301 -4.33398 -3 -5.00098c-2 -17.333 -9.5 -32.333 -22.5 -45s-28.5 -19 -46.5 -19
c-19.333 0 -35.833 6.83301 -49.5 20.5s-20.5 30.167 -20.5 49.5c0.666992 4.66699 1.16699 9.16699 1.5 13.5s1.16602 8.83301 2.49902 13.5l3 9c2.66699 6 5.16699 12 7.5 18s5.5 11.667 9.5 17c3.33301 5.33301 7 10.5 11 15.5l13 15.5
c9.33301 8.66699 19 16.334 29 23.001c5.33301 4 10.833 7.16699 16.5 9.5l17.5 7.5c7.33301 3.33301 14.666 5.33301 21.999 6c14.667 3.33301 28.334 5 41.001 5c12 0 25.333 -1.66699 40 -5c4.66699 -0.666992 9.16699 -1.66699 13.5 -3l12.5 -4
c6.66699 -2.66699 13.334 -5.5 20.001 -8.5s13 -6.5 19 -10.5c5.33301 -3.33301 10.833 -7.16602 16.5 -11.499s10.834 -9.16602 15.501 -14.499c4 -4.66699 8 -9.66699 12 -15s7.66699 -10.666 11 -15.999c6.66699 -13.333 11.334 -25.333 14.001 -36z" />
    <glyph glyph-name="at" unicode="@" horiz-adv-x="981" 
d="M961 418c2 -11.333 3.83887 -23.001 5.50586 -35.001s2.83398 -23.667 3.50098 -35c1.33301 -22 1.33301 -44 0 -66s-4 -43.667 -8 -65l-4 -13.5l-4 -13.5l-8 -21c-2.66699 -6.66699 -6 -13.334 -10 -20.001c-3.33301 -6.66699 -7.33301 -13.167 -12 -19.5
s-9.33398 -12.166 -14.001 -17.499c-5.33301 -5.33301 -10.833 -10.333 -16.5 -15l-17.5 -14c-6 -4 -12.167 -7.33301 -18.5 -10l-20.5 -9c-3.33301 -1.33301 -7 -2.66602 -11 -3.99902s-8.33301 -2.33301 -13 -3c-6.66699 -1.33301 -13.5 -2.5 -20.5 -3.5
s-14.167 -1.16699 -21.5 -0.5l-21 2c-6.66699 0.666992 -13.667 2 -21 4c-26 7.33301 -50 20.666 -72 39.999c-5.33301 4.66699 -10.333 9.83398 -15 15.501s-9 11.5 -13 17.5c-2.66699 -2 -5.16699 -4 -7.5 -6s-5.16602 -3.66699 -8.49902 -5
c-6.66699 -4.66699 -13.334 -8.33398 -20.001 -11.001l-18 -8c-6 -2.66699 -12.333 -4.66699 -19 -6c-3.33301 -1.33301 -7 -2.33301 -11 -3s-7.66699 -1.33398 -11 -2.00098c-7.33301 -1.33301 -14.333 -2.5 -21 -3.5s-13.667 -1.5 -21 -1.5
c-6.66699 0 -13.334 0.333008 -20.001 1s-13.667 1.66699 -21 3c-3.33301 0.666992 -7 1.33398 -11 2.00098s-8 1.66699 -12 3c-6 2 -12.167 4.16699 -18.5 6.5s-12.5 5.16602 -18.5 8.49902c-6.66699 2.66699 -13.334 6 -20.001 10c-10 6 -20.333 14 -31 24
c-6.66699 4.66699 -12.334 9.66699 -17.001 15c-4 5.33301 -8.16699 10.5 -12.5 15.5s-8.16602 10.167 -11.499 15.5c-2 3.33301 -4 6.5 -6 9.5s-4 6.16699 -6 9.5c-4.66699 9.33301 -8.83398 19 -12.501 29s-6.5 20 -8.5 30c-2 10.667 -3.66699 21.334 -5 32.001
s-1.33301 21.667 0 33c1.33301 10.667 2.83301 21.334 4.5 32.001s4.5 20.667 8.5 30c4 10 8.16699 19.667 12.5 29s9.83301 18.333 16.5 27l11.5 15.5c3.66699 5 8.16699 9.83301 13.5 14.5c8 8 18 16.333 30 25c8.66699 6.66699 17.5 12.167 26.5 16.5s18.5 8.5 28.5 12.5
s20.167 6.83301 30.5 8.5s20.833 3.16699 31.5 4.5c11.333 1.33301 22.333 1.5 33 0.5s21.334 -2.5 32.001 -4.5c20 -4 39.667 -11.333 59 -22c2.66699 -1.33301 5 -2.66602 7 -3.99902c6.66699 8.66699 14.834 15.5 24.501 20.5s20.167 7.5 31.5 7.5c18.667 0 35 -7 49 -21
c12 -12 18.667 -28.333 20 -49c0.666992 -21.333 0.833984 -42.666 0.500977 -63.999s-0.5 -42.666 -0.5 -63.999c0 -17.333 -0.166992 -34.5 -0.5 -51.5s0.166992 -34.167 1.5 -51.5c1.33301 -4.66699 2.5 -9.16699 3.5 -13.5s2.16699 -8.83301 3.5 -13.5
c2.66699 -5.33301 5 -9.33301 7 -12c1.33301 -1.33301 2.33301 -2.5 3 -3.5s1.66699 -2.16699 3 -3.5c1.33301 -0.666992 2.83301 -1.33398 4.5 -2.00098s3.16699 -1.33398 4.5 -2.00098c2.66699 -2 6 -3 10 -3h11c3.33301 0 6.66602 1 9.99902 3
c2 0.666992 5 2.33398 9 5.00098s7.33301 6 10 10c1.33301 2.66699 2.83301 5.16699 4.5 7.5s3.16699 5.16602 4.5 8.49902c2 5.33301 3.66699 11.166 5 17.499l4 18.5c2 18 3 36.333 3 55c0 17.333 -1 34.666 -3 51.999c-2 14 -4.83301 27.833 -8.5 41.5
s-8.16699 27.167 -13.5 40.5c-11.333 26 -25.333 49.667 -42 71c-8.66699 11.333 -17.834 21.666 -27.501 30.999s-19.834 18.333 -30.501 27c-21.333 16.667 -45 30.667 -71 42c-13.333 5.33301 -26.833 9.83301 -40.5 13.5s-27.5 6.83398 -41.5 9.50098
c-29.333 2.66699 -58.333 2.66699 -87 0c-14 -2.66699 -27.667 -5.83398 -41 -9.50098s-26.666 -8.16699 -39.999 -13.5c-26 -11.333 -50 -25.333 -72 -42c-10.667 -8.66699 -20.834 -17.667 -30.501 -27s-18.834 -19.666 -27.501 -30.999
c-16.667 -21.333 -30.667 -45 -42 -71c-5.33301 -13.333 -9.83301 -26.833 -13.5 -40.5s-6.5 -27.5 -8.5 -41.5c-4 -29.333 -4 -58 0 -86c2 -14 4.83301 -27.833 8.5 -41.5s8.16699 -27.167 13.5 -40.5c10.667 -25.333 24.667 -49.333 42 -72
c17.333 -21.333 36.666 -40.666 57.999 -57.999c22 -16 46 -30 72 -42c13.333 -5.33301 26.666 -9.83301 39.999 -13.5s27 -6.5 41 -8.5c28.667 -3.33301 57.667 -3.33301 87 0c10 1.33301 20 3.16602 30 5.49902s20 5.16602 30 8.49902
c8.66699 3.33301 17.834 4.16602 27.501 2.49902s18.167 -4.83398 25.5 -9.50098c16 -8.66699 26.667 -22.334 32 -41.001c2.66699 -9.33301 3.5 -18.666 2.5 -27.999s-4.16699 -18 -9.5 -26c-8.66699 -15.333 -22.334 -25.666 -41.001 -30.999
c-20.667 -7.33301 -40.667 -12.333 -60 -15c-14.667 -2 -29.167 -3.83301 -43.5 -5.5s-28.833 -2.16699 -43.5 -1.5c-12 0 -24 0.666992 -36 2s-23.667 3 -35 5c-20.667 3.33301 -40.5 8 -59.5 14s-38.167 13.333 -57.5 22c-18 8 -35.333 17.5 -52 28.5
s-32.667 22.833 -48 35.5s-29.666 26.334 -42.999 41.001s-26 30 -38 46c-12 16.667 -22.5 33.834 -31.5 51.501s-17.167 35.834 -24.5 54.501c-7.33301 19.333 -13 39 -17 59s-7 40.333 -9 61c-2.66699 21.333 -3.16699 42.5 -1.5 63.5s4.16699 41.833 7.5 62.5
c3.33301 20 8.33301 39.667 15 59s14.334 38 23.001 56c8.66699 18.667 18.5 36.167 29.5 52.5s23.167 32.166 36.5 47.499s27.333 29.5 42 42.5s30.334 25.167 47.001 36.5s33.834 21.333 51.501 30s36.167 16.667 55.5 24s39.166 12.833 59.499 16.5s40.833 6.5 61.5 8.5
c21.333 1.33301 42.333 1.16602 63 -0.500977s41.334 -4.5 62.001 -8.5c20 -4 39.667 -9.5 59 -16.5s38 -15.167 56 -24.5c17.333 -8.66699 34.166 -18.667 50.499 -30s32.166 -23.666 47.499 -36.999s29.166 -27.5 41.499 -42.5s24.166 -30.833 35.499 -47.5
c11.333 -17.333 21.333 -35 30 -53s16.334 -36.667 23.001 -56c2.66699 -8 5.16699 -16.167 7.5 -24.5s4.16602 -17.166 5.49902 -26.499zM548.006 243.999c6 5.33301 11.6689 11 17.002 17c4.66699 6 8.66699 13 12 21c1.33301 3.33301 2.5 7 3.5 11s2.16699 8 3.5 12v13
v12c-1.33301 4 -2.5 8 -3.5 12s-2.16699 8 -3.5 12c-3.33301 8 -7.33301 14.667 -12 20c-5.33301 6 -11 11.667 -17 17c-5.33301 4.66699 -12 8.66699 -20 12c-4 1.33301 -8 2.5 -12 3.5s-8 2.16699 -12 3.5h-25c-4 -1.33301 -8 -2.5 -12 -3.5s-7.66699 -2.16699 -11 -3.5
c-8 -3.33301 -15 -7.33301 -21 -12c-6 -5.33301 -11.667 -11 -17 -17c-4.66699 -5.33301 -8.66699 -12 -12 -20c-1.33301 -4 -2.5 -8 -3.5 -12s-2.16699 -8 -3.5 -12v-25c1.33301 -4 2.5 -8 3.5 -12s2.16699 -7.66699 3.5 -11c2.66699 -8 6.66699 -15 12 -21
s11 -11.667 17 -17c3.33301 -2 6.66602 -4.16699 9.99902 -6.5s7 -4.16602 11 -5.49902c6.66699 -2.66699 14.334 -4.66699 23.001 -6c8 -1.33301 16.333 -1.33301 25 0c8 0.666992 16 2.66699 24 6c3.33301 1.33301 6.66602 3.16602 9.99902 5.49902
s6.66602 4.5 9.99902 6.5z" />
    <glyph glyph-name="A" unicode="A" horiz-adv-x="579" 
d="M105 11c-19.333 5.33301 -34.001 16.666 -44.001 33.999c-10.667 17.333 -13.334 36.666 -8.00098 57.999c1.33301 5.33301 2.33301 9 3 11l8 35.5c2.66699 11.667 5.66699 23.167 9 34.5l13.5 56l13.5 56l15.5 65.5l15.5 64.5c5.33301 20.667 10.333 41.167 15 61.5
l15 62.5l9.5 39l9.5 39c0 2 0.666992 5 2 9c0 1.33301 0.166992 2.16602 0.5 2.49902s0.5 1.16602 0.5 2.49902c7.33301 23.333 20.166 43.166 38.499 59.499s39.833 26.833 64.5 31.5c3.33301 0.666992 6.5 1 9.5 1s6.16699 0.333008 9.5 1h9
c3.33301 -0.666992 6.5 -1 9.5 -1s6.16699 -0.333008 9.5 -1c24.667 -4.66699 46.334 -15.5 65.001 -32.5s31.334 -37.5 38.001 -61.5c1.33301 -2.66699 2 -4.66699 2 -6s0.166992 -2.16602 0.5 -2.49902s0.5 -1.16602 0.5 -2.49902l4 -15.5l4 -15.5l13.5 -56.5l13.5 -55.5
l15.5 -65.5l15.5 -64.5l15 -62.5c4.66699 -20.333 9.66699 -40.833 15 -61.5c3.33301 -15.333 7 -30.666 11 -45.999s7.66699 -30.666 11 -45.999l9 -36c2 -10 2.5 -19.833 1.5 -29.5s-4.16699 -19.167 -9.5 -28.5c-10.667 -17.333 -25.334 -28.666 -44.001 -33.999
c-20.667 -5.33301 -40 -2.66602 -58 8.00098c-8 4.66699 -15.167 10.834 -21.5 18.501s-10.5 16.167 -12.5 25.5l-3 12c-3.33301 11.333 -6.16602 22.833 -8.49902 34.5s-5.16602 23.167 -8.49902 34.5c-3.33301 12.667 -6.33301 25 -9 37s-5.66699 24.333 -9 37h-85h-65
c-1.33301 -4.66699 -2.33301 -9.16699 -3 -13.5s-1.66699 -8.5 -3 -12.5c-3.33301 -15.333 -7 -30.833 -11 -46.5s-7.66699 -31.167 -11 -46.5l-9 -36c-2 -9.33301 -6.16699 -17.833 -12.5 -25.5s-13.5 -13.834 -21.5 -18.501c-18 -10.667 -37.333 -13.334 -58 -8.00098z
M332.999 367h15c-0.666992 3.33301 -1.33398 6.5 -2.00098 9.5s-1.33398 6.16699 -2.00098 9.5l-15 62.5c-4.66699 20.333 -9.66699 40.833 -15 61.5c-1.33301 3.33301 -2.16602 6.5 -2.49902 9.5s-1.16602 6.16699 -2.49902 9.5l-10 -42l-10 -42l-9.5 -39l-9.5 -39h63z" />
    <glyph glyph-name="B" unicode="B" horiz-adv-x="501" 
d="M125 1c-20.667 0 -38.3379 7.32812 -53.0049 21.9951s-22 32 -22 52v1v1v4v60v110v132v129v97v38c0 15.333 4.16699 29.166 12.5 41.499s19.166 21.5 32.499 27.5c12 5.33301 23.667 8 35 8h10h114h14c12.667 0 26.667 -1.66699 42 -5
c6.66699 -0.666992 14 -2.66699 22 -6c9.33301 -3.33301 18.833 -7.33301 28.5 -12s18.834 -10 27.501 -16l15.5 -13l15.5 -13c4.66699 -5.33301 9 -10.666 13 -15.999l12 -16c2 -3.33301 4 -6.5 6 -9.5s3.66699 -6.16699 5 -9.5c6.66699 -11.333 12 -23.666 16 -36.999
c1.33301 -4 2.33301 -7.83301 3 -11.5s1.66699 -7.5 3 -11.5c1.33301 -7.33301 2.33301 -14.333 3 -21s1 -13.667 1 -21s-0.333008 -14.333 -1 -21s-1.66699 -13.667 -3 -21c-1.33301 -4 -2.33301 -7.83301 -3 -11.5s-1.66699 -7.16699 -3 -10.5
c-4.66699 -14.667 -10 -27.334 -16 -38.001c-1.33301 -3.33301 -3 -6.5 -5 -9.5s-4 -6.16699 -6 -9.5s-4 -6.16602 -6 -8.49902s-4 -5.16602 -6 -8.49902l2 -2c7.33301 -8 14 -16.333 20 -25s11 -17.667 15 -27c2.66699 -6.66699 5.33398 -13 8.00098 -19s5 -12.333 7 -19
c2.66699 -14 4.66699 -28 6 -42c0.666992 -4 1 -8 1 -12v-12c-1.33301 -14 -3.33301 -28 -6 -42c-1.33301 -3.33301 -2.5 -6.83301 -3.5 -10.5s-2.16699 -7.16699 -3.5 -10.5c-2 -6.66699 -4.33301 -13.167 -7 -19.5s-5.66699 -12.166 -9 -17.499
c-3.33301 -6 -7.16602 -11.667 -11.499 -17l-12.5 -16c-2.66699 -3.33301 -5.16699 -6.16602 -7.5 -8.49902l-7.5 -7.5l-16 -13.5c-5.33301 -4.33301 -10.666 -8.16602 -15.999 -11.499c-3.33301 -2 -6.5 -4 -9.5 -6s-6.16699 -3.66699 -9.5 -5
c-6 -3.33301 -12.167 -6.33301 -18.5 -9s-12.833 -5 -19.5 -7c-7.33301 -2 -14.166 -3.33301 -20.499 -4s-13.166 -1.66699 -20.499 -3c-4 -0.666992 -8 -1 -12 -1h-11h-48h-97zM281.996 149.995c3.33301 1.33301 6.33398 2.16602 9.00098 2.49902
s5.66699 1.16602 9 2.49902l15 9c2 2 4.16699 4 6.5 6s4.16602 4.33301 5.49902 7c4 4.66699 7 9.66699 9 15c1.33301 3.33301 2.33301 6.33301 3 9s1.33398 5.66699 2.00098 9c0.666992 6 0.666992 12 0 18c-0.666992 3.33301 -1.33398 6.33301 -2.00098 9
s-1.66699 5.66699 -3 9c-2 4.66699 -5 9.66699 -9 15c-1.33301 2 -3.16602 4.16699 -5.49902 6.5l-6.5 6.5l-15 9c-3.33301 0.666992 -6.33301 1.33398 -9 2.00098s-5.66699 1.33398 -9 2.00098c-2.66699 0.666992 -7.33398 1 -14.001 1h-69v-75v-63h52h31zM271.997 573.995
c-7.33301 0.666992 -14.333 1.00195 -21 1.00195h-21h-31v-101v-37h37h18c6 0 12 0.333008 18 1c3.33301 0.666992 6.33301 1.16699 9 1.5s5.66699 1.16602 9 2.49902l15 9c2 2 4.16699 4 6.5 6s4.16602 4.33301 5.49902 7c4 4.66699 7 9.66699 9 15
c1.33301 3.33301 2.33301 6.33301 3 9s1.33398 5.66699 2.00098 9c0.666992 6 0.666992 12 0 18c-0.666992 3.33301 -1.33398 6.33301 -2.00098 9s-1.66699 5.66699 -3 9c-2 4.66699 -5 9.66699 -9 15c-1.33301 2.66699 -3.16602 5 -5.49902 7s-4.5 4 -6.5 6l-15 9
c-3.33301 1.33301 -6.33301 2.16602 -9 2.49902s-5.66699 0.833008 -9 1.5z" />
    <glyph glyph-name="C" unicode="C" horiz-adv-x="496" 
d="M50 490l0.00292969 20.999c1.33301 15.333 3.33301 29.333 6 42c0.666992 7.33301 2.66699 14.666 6 21.999c3.33301 10 7.16602 19.833 11.499 29.5s9.83301 18.5 16.5 26.5c4.66699 5.33301 9 10.666 13 15.999s8.33301 10.333 13 15
c5.33301 5.33301 10.666 10 15.999 14l16 12c3.33301 2 6.5 4 9.5 6s6.16699 3.66699 9.5 5c6 3.33301 12.167 6.16602 18.5 8.49902l19.5 7.5c8.66699 2.66699 16 4.33398 22 5.00098c7.33301 1.33301 14.5 2.33301 21.5 3s14.167 1 21.5 1c12.667 0 26.667 -1.66699 42 -5
c7.33301 -0.666992 14.666 -2.66699 21.999 -6c10 -3.33301 19.833 -7.16602 29.5 -11.499s18.834 -9.83301 27.501 -16.5l15.5 -12l15.5 -13c10 -11.333 18.333 -21.666 25 -30.999c4 -5.33301 8 -11.666 12 -18.999c3.33301 -6 6.33301 -12.167 9 -18.5s5 -12.833 7 -19.5
c2.66699 -6.66699 4.66699 -14 6 -22c1.33301 -7.33301 2.33301 -14.5 3 -21.5s1 -14.167 1 -21.5c0 -10 -1.83301 -19.5 -5.5 -28.5s-9 -16.833 -16 -23.5s-15 -12 -24 -16s-18.5 -6 -28.5 -6c-20.667 0 -38.334 7.33301 -53.001 22s-22 32 -22 52v8
c-0.666992 3.33301 -1.33398 6.33301 -2.00098 9s-1.66699 5.66699 -3 9l-9 15c-2 2 -4 4.16699 -6 6.5s-4 4.16602 -6 5.49902c-5.33301 4 -10.666 7 -15.999 9c-6 2.66699 -11.667 4.33398 -17 5.00098h-18c-3.33301 -0.666992 -6.33301 -1.33398 -9 -2.00098
s-5.66699 -1.66699 -9 -3c-5.33301 -2 -10.333 -5 -15 -9c-2 -1.33301 -4 -3.16602 -6 -5.49902s-4 -4.5 -6 -6.5c-4 -5.33301 -7 -10.333 -9 -15c-1.33301 -3.33301 -2.33301 -6.33301 -3 -9l-2 -8v-15v-96v-129v-44v-22
c0.666992 -3.33301 1.33398 -6.16602 2.00098 -8.49902s1.66699 -5.16602 3 -8.49902c2 -5.33301 5 -10.333 9 -15c2 -2.66699 4 -5 6 -7l6 -6l15 -9c3.33301 -1.33301 6.33301 -2.16602 9 -2.49902s5.66699 -0.833008 9 -1.5c6 -1.33301 12 -1.33301 18 0
c3.33301 0.666992 6.33301 1.16699 9 1.5s5.33398 1.16602 8.00098 2.49902c3.33301 1.33301 6.16602 2.83301 8.49902 4.5s4.83301 3.16699 7.5 4.5l6 6c2 2 4 4.33301 6 7l9 15c1.33301 3.33301 2.33301 6.33301 3 9l2 8v10c0 20 7.33301 37.333 22 52
s32.334 22 53.001 22c10 0 19.5 -2 28.5 -6s17 -9.33301 24 -16s12.333 -14.5 16 -23.5s5.5 -18.5 5.5 -28.5c0 -7.33301 -0.333008 -14.333 -1 -21s-1.66699 -13.667 -3 -21l-2 -10.5c-0.666992 -3.66699 -1.66699 -7.16699 -3 -10.5c-4 -14 -9 -26.667 -15 -38l-5.5 -9.5
c-1.66699 -3 -3.83398 -6.16699 -6.50098 -9.5c-6 -8.66699 -12.333 -17 -19 -25s-14 -15.333 -22 -22l-16 -12c-5.33301 -4 -11 -7.66699 -17 -11c-10.667 -6 -23.334 -11.333 -38.001 -16c-3.33301 -1.33301 -6.83301 -2.5 -10.5 -3.5s-7.16699 -2.16699 -10.5 -3.5
c-7.33301 -1.33301 -14.333 -2.33301 -21 -3l-21 -2h-12c-4 0 -8 0.333008 -12 1c-7.33301 1.33301 -14.333 2.33301 -21 3s-13.334 2 -20.001 4c-7.33301 2 -14 4.16699 -20 6.5s-12.333 5.16602 -19 8.49902s-13 7 -19 11c-8.66699 6 -17 12.333 -25 19s-15.333 14 -22 22
l-12.5 16c-4.33301 5.33301 -8.16602 10.666 -11.499 15.999c-3.33301 6 -6.33301 12.167 -9 18.5l-8 19.5c-1.33301 3.33301 -2.5 6.83301 -3.5 10.5s-2.16699 7.16699 -3.5 10.5c-3.33301 15.333 -5 29.333 -5 42c-0.666992 2 -1 4.16699 -1 6.5v6.5v32v123v112z" />
    <glyph glyph-name="D" unicode="D" horiz-adv-x="482" 
d="M50 389l0.000976562 128.001v96v38c0 20.667 7.33301 38.334 22 53.001s32 22 52 22h33h64c6.66699 0 13.167 0.166992 19.5 0.5s12.833 0.166016 19.5 -0.500977c15.333 -1.33301 29.333 -3.33301 42 -6c7.33301 -0.666992 14.666 -2.66699 21.999 -6l19.5 -8
c6.33301 -2.66699 12.5 -5.66699 18.5 -9c5.33301 -3.33301 10.666 -7 15.999 -11l16 -12c8.66699 -6.66699 16.334 -14 23.001 -22s13 -16.333 19 -25c2 -3.33301 4 -6.5 6 -9.5s3.66699 -6.16699 5 -9.5c3.33301 -6 6.33301 -12.167 9 -18.5s5 -12.833 7 -19.5
c2.66699 -8.66699 4.33398 -16 5.00098 -22c1.33301 -7.33301 2.33301 -14.166 3 -20.499s1 -13.166 1 -20.499v-21v-113v-127v-25c0 -6.66699 -0.333008 -11.667 -1 -15c-0.666992 -7.33301 -1.5 -14.5 -2.5 -21.5s-2.5 -13.833 -4.5 -20.5
c-1.33301 -6.66699 -3.33301 -13.167 -6 -19.5l-8 -18.5c-2.66699 -6.66699 -6.33398 -13.334 -11.001 -20.001c-3.33301 -6 -7 -11.5 -11 -16.5l-13 -15.5c-4.66699 -6 -10 -11.333 -16 -16c-8 -7.33301 -16.333 -14 -25 -20s-17.667 -11 -27 -15
c-6.66699 -2.66699 -13 -5.33398 -19 -8.00098s-12.333 -4.66699 -19 -6c-7.33301 -2 -14.333 -3.33301 -21 -4s-13.667 -1.66699 -21 -3c-7.33301 -0.666992 -14.333 -0.833984 -21 -0.500977s-13.667 0.5 -21 0.5h-101c-20 0 -37.333 7.33301 -52 22s-22 32 -22 52v6v63
v111v133zM199.001 577.001v-104.997v-133v-128v-60h30h33c3.33301 1.33301 6.33301 2.16602 9 2.49902s5.66699 1.16602 9 2.49902l15 9c4.66699 4 9 8.33301 13 13c4 5.33301 7 10.666 9 15.999c2.66699 6 4.33398 11.667 5.00098 17v6
c0.666992 11.333 0.833984 22.333 0.500977 33s-0.5 21.667 -0.5 33v90v103c0 6.66699 0.166992 13.334 0.5 20.001s0.166016 13.334 -0.500977 20.001c-0.666992 3.33301 -1.33398 6.33301 -2.00098 9s-1.66699 5.66699 -3 9c-2 5.33301 -5 10.666 -9 15.999l-6 6
c-2 2 -4.33301 4 -7 6l-7.5 5.5c-2.33301 1.66699 -4.83301 3.16699 -7.5 4.5c-3.33301 1.33301 -6.33301 2.16602 -9 2.49902s-5.66699 0.833008 -9 1.5c-6 0.666992 -12 1 -18 1h-19h-26z" />
    <glyph glyph-name="E" unicode="E" horiz-adv-x="476" 
d="M190 473v-55.001h115h76c19.333 0 35.833 -6.83301 49.5 -20.5s20.5 -30.167 20.5 -49.5s-6.83301 -35.666 -20.5 -48.999s-30.167 -20 -49.5 -20h-44h-131h-16v-72v-67h130h72c19.333 0 35.833 -6.83301 49.5 -20.5s20.5 -30.167 20.5 -49.5
s-6.83301 -35.833 -20.5 -49.5s-30.167 -20.5 -49.5 -20.5h-68h-132h-72c-19.333 -0 -35.833 6.83301 -49.5 20.5s-20.5 30.167 -20.5 49.5v5v62v113v135v131v99v39c0 19.333 6.83301 35.666 20.5 48.999s30.167 20 49.5 20h72h133h71c19.333 0 35.833 -6.66699 49.5 -20
s20.5 -29.666 20.5 -48.999s-6.83301 -35.833 -20.5 -49.5s-30.167 -20.5 -49.5 -20.5h-72h-133h-1v-111z" />
    <glyph glyph-name="F" unicode="F" horiz-adv-x="441" 
d="M200 471l0.000976562 -31.998h75h82c20 0 37.333 -7.33301 52 -22s22 -32.334 22 -53.001c0 -20 -7.33301 -37.333 -22 -52s-32 -22 -52 -22h-53h-82h-22v-81v-96v-38c0 -20.667 -7.33301 -38.334 -22 -53.001s-32.334 -22 -53.001 -22s-38.334 7.33301 -53.001 22
s-22 32.334 -22 53.001v5v62v111v133v128v97v38c0 20.667 7.33301 38.334 22 53.001s32.334 22 53.001 22h40h110h82c20 0 37.333 -7.33301 52 -22s22 -32.334 22 -53.001s-7.33301 -38.334 -22 -53.001s-32 -22 -52 -22h-53h-82h-22v-103z" />
    <glyph glyph-name="G" unicode="G" horiz-adv-x="507" 
d="M75 113l-7.99902 18.502c-2.66699 6.33301 -5 12.833 -7 19.5c-5.33301 17.333 -8.16602 34.5 -8.49902 51.5s-0.5 34.167 -0.5 51.5v124v113v20v9c0 2.66699 0.333008 5.66699 1 9c1.33301 7.33301 2.33301 14.333 3 21s2 13.667 4 21c2 6.66699 4.33301 13.167 7 19.5
l8 18.5c1.33301 3.33301 3 6.66602 5 9.99902l6 10c3.33301 5.33301 7.16602 10.666 11.499 15.999l13.5 16l15 15c8 6.66699 16.333 13 25 19s18 11.333 28 16l18.5 8c6.33301 2.66699 12.833 4.66699 19.5 6c6.66699 2 13.5 3.33301 20.5 4s14.167 1.66699 21.5 3
c4 0.666992 8 1 12 1h12c14.667 -1.33301 29 -3.33301 43 -6c4 -1.33301 8 -2.5 12 -3.5s7.66699 -2.16699 11 -3.5c6.66699 -3.33301 13.334 -6.33301 20.001 -9s13 -5.66699 19 -9s11.667 -7.16602 17 -11.499l16 -13.5l9 -7.5
c2.66699 -2.33301 5.33398 -5.16602 8.00098 -8.49902c7.33301 -8.66699 14.166 -17.5 20.499 -26.5s11.833 -18.5 16.5 -28.5c3.33301 -7.33301 6.5 -14.666 9.5 -21.999s5.16699 -15 6.5 -23c4 -16 6 -32.333 6 -49c0.666992 -20.667 -6.5 -38.334 -21.5 -53.001
s-32.833 -22 -53.5 -22c-20 0 -37.333 7.33301 -52 22c-14.667 14 -22 31.667 -22 53c0 3.33301 -0.333008 6 -1 8c-0.666992 5.33301 -2.33398 11.666 -5.00098 18.999c-1.33301 2.66699 -2.83301 5.33398 -4.5 8.00098s-3.16699 5.33398 -4.5 8.00098
c-2 2.66699 -4.16699 5 -6.5 7s-4.83301 4 -7.5 6c-4.66699 3.33301 -10 6.66602 -16 9.99902c-3.33301 1.33301 -6.5 2.33301 -9.5 3s-6.16699 1.33398 -9.5 2.00098h-19c-3.33301 -0.666992 -6.5 -1.33398 -9.5 -2.00098s-6.16699 -1.66699 -9.5 -3
c-6 -3.33301 -11.333 -6.66602 -16 -9.99902c-2.66699 -2 -5 -4 -7 -6l-7 -7c-1.33301 -2.66699 -2.83301 -5.33398 -4.5 -8.00098s-3.16699 -5.33398 -4.5 -8.00098c-1.33301 -3.33301 -2.33301 -6.33301 -3 -9s-1.33398 -5.66699 -2.00098 -9s-1 -6.83301 -1 -10.5v-10.5
v-104v-128v-42v-11.5c0 -3.66699 0.333008 -7.5 1 -11.5c0.666992 -3.33301 1.33398 -6.33301 2.00098 -9s1.66699 -5.66699 3 -9s2.83301 -6.16602 4.5 -8.49902s3.16699 -4.83301 4.5 -7.5l7 -7c2 -2 4.33301 -4 7 -6c4.66699 -3.33301 10 -6.66602 16 -9.99902
c3.33301 -1.33301 6.5 -2.33301 9.5 -3s6.16699 -1.33398 9.5 -2.00098c6 -1.33301 12.333 -1.33301 19 0c3.33301 0.666992 6.5 1.33398 9.5 2.00098s6.16699 1.66699 9.5 3c6 3.33301 11.333 6.66602 16 9.99902c2.66699 2 5.16699 4 7.5 6s4.5 4.33301 6.5 7
c1.33301 2.66699 2.83301 5.16699 4.5 7.5s3.16699 5.16602 4.5 8.49902s2.33301 6.33301 3 9s1.33398 5.66699 2.00098 9c0.666992 4.66699 1 9.16699 1 13.5v13.5v27h-23c-20.667 0 -38.334 7.33301 -53.001 22s-22 32 -22 52c0 20.667 7.33301 38.334 22 53.001
s32.334 22 53.001 22h1h96c20.667 0 38.334 -7.33301 53.001 -22s22 -32.334 22 -53.001v-63v-52c0 -7.33301 -0.333008 -14.833 -1 -22.5s-1.66699 -15.5 -3 -23.5c-2 -10.667 -4.83301 -21 -8.5 -31s-7.83398 -19.667 -12.501 -29c-2 -3.33301 -4 -6.5 -6 -9.5
s-4 -6.16699 -6 -9.5l-12 -16c-4 -5.33301 -8.33301 -10.666 -13 -15.999c-2.66699 -2.66699 -5.33398 -5.16699 -8.00098 -7.5s-5.33398 -4.5 -8.00098 -6.5c-5.33301 -4.66699 -10.666 -9 -15.999 -13s-11 -7.66699 -17 -11s-12.167 -6.33301 -18.5 -9l-18.5 -8
c-3.33301 -1.33301 -7 -2.5 -11 -3.5s-7.66699 -2.16699 -11 -3.5c-14 -3.33301 -28 -5.33301 -42 -6h-12c-4 0 -8 0.333008 -12 1c-10.667 1.33301 -21.334 2.83301 -32.001 4.5s-21 4.5 -31 8.5c-6.66699 2.66699 -13 5.33398 -19 8.00098s-12 5.66699 -18 9
s-11.667 7.16602 -17 11.499l-16 12.5c-8 6.66699 -15.333 14 -22 22s-13 16.333 -19 25c-2 3.33301 -3.83301 6.66602 -5.5 9.99902s-3.5 6.66602 -5.5 9.99902z" />
    <glyph glyph-name="H" unicode="H" 
d="M124 1c-20 0 -37.333 7.33301 -52 22s-22 32 -22 52v5v62v111v133v128v96v39c0 20 7.33301 37.333 22 52s32 22 52 22c20.667 0 38.334 -7.33301 53.001 -22s22 -32 22 -52v-5v-62v-111v-39h2h130h31v82v96v39c0 20 7.33301 37.333 22 52s32.334 22 53.001 22
c20 0 37.333 -7.33301 52 -22s22 -32 22 -52v-5v-62v-111v-133v-128v-97v-38c0 -20 -7.33301 -37.333 -22 -52s-32 -22 -52 -22c-20.667 0 -38.334 7.33301 -53.001 22s-22 32 -22 52v5v62v111v29h-29h-131h-3v-72v-97v-38c0 -20 -7.33301 -37.333 -22 -52
s-32.334 -22 -53.001 -22z" />
    <glyph glyph-name="I" unicode="I" horiz-adv-x="210" 
d="M125 724c20 0 37.5 -7.5 52.5 -22.5s22.5 -32.5 22.5 -52.5v-5v-62v-111v-133v-128v-97v-39c0 -20 -7.5 -37.333 -22.5 -52s-32.5 -22 -52.5 -22c-20.667 -0 -38.334 7.33301 -53.001 22s-22 32 -22 52v5v62v111v133v128v97v39c0 20 7.33301 37.5 22 52.5
s32.334 22.5 53.001 22.5z" />
    <glyph glyph-name="J" unicode="J" horiz-adv-x="497" 
d="M423 65c-8.66699 -8.66699 -19.0039 -17.333 -31.0039 -26c-8.66699 -6.66699 -17.667 -12.334 -27 -17.001s-19 -8.66699 -29 -12c-3.33301 -1.33301 -7 -2.5 -11 -3.5s-7.66699 -2.16699 -11 -3.5c-7.33301 -1.33301 -14.333 -2.33301 -21 -3l-21 -2
c-4 -0.666992 -8.16699 -0.833984 -12.5 -0.500977s-8.5 0.5 -12.5 0.5c-7.33301 1.33301 -14.5 2.5 -21.5 3.5s-14.167 2.16699 -21.5 3.5c-6.66699 2 -13.334 4.33301 -20.001 7s-13 5.66699 -19 9c-6.66699 2.66699 -13.667 6.33398 -21 11.001
c-9.33301 6 -18.166 12.5 -26.499 19.5s-15.833 14.833 -22.5 23.5c-4.66699 5.33301 -9.16699 10.833 -13.5 16.5s-8.16602 11.5 -11.499 17.5s-6.33301 12.167 -9 18.5l-8 19.5c-4 13.333 -4 26.666 0 39.999l3.5 9l3.5 9c5.33301 8 11.833 15 19.5 21
s16.167 10.333 25.5 13c20.667 5.33301 40 3 58 -7c11.333 -7.33301 20 -16.333 26 -27l3 -6l6 -12c2 -4 4.33301 -7.66699 7 -11c2 -2.66699 4 -5 6 -7l7 -7c2.66699 -1.33301 5.33398 -2.83301 8.00098 -4.5s5.33398 -3.16699 8.00098 -4.5
c3.33301 -1.33301 6.5 -2.33301 9.5 -3s6.16699 -1.33398 9.5 -2.00098c7.33301 -1.33301 14 -1.33301 20 0c3.33301 0.666992 6.5 1.33398 9.5 2.00098s6.16699 1.66699 9.5 3s6.16602 2.83301 8.49902 4.5s4.83301 3.16699 7.5 4.5c2.66699 2.66699 5.16699 5 7.5 7
s4.5 4.33301 6.5 7c1.33301 2.66699 2.83301 5.33398 4.5 8.00098s3.16699 5.33398 4.5 8.00098c1.33301 3.33301 2.33301 6.5 3 9.5s1.66699 6.16699 3 9.5v37v102v134v90h-77c-20.667 0 -38.334 7.33301 -53.001 22s-22 32.334 -22 53.001c0 20 7.33301 37.5 22 52.5
s32.334 22.5 53.001 22.5h55h97c20.667 0 38.334 -7.5 53.001 -22.5s22 -32.5 22 -52.5v-49v-116v-133v-103v-24v-7l-2 -21c-0.666992 -6.66699 -1.66699 -13.667 -3 -21c-1.33301 -4 -2.33301 -7.83301 -3 -11.5s-1.66699 -7.16699 -3 -10.5
c-3.33301 -10 -7.16602 -19.833 -11.499 -29.5s-9.83301 -18.834 -16.5 -27.501l-12 -16c-4 -5.33301 -8.33301 -10.333 -13 -15z" />
    <glyph glyph-name="K" unicode="K" horiz-adv-x="571" 
d="M466 716c20.667 6 39.9932 3.66992 57.9932 -6.99707c8.66699 -5.33301 15.834 -12 21.501 -20s9.83398 -16.667 12.501 -26s3.5 -18.833 2.5 -28.5s-4.16699 -18.834 -9.5 -27.501l-9 -15c-2.66699 -4.66699 -5.66699 -9.33398 -9 -14.001l-31 -49.5l-31 -49.5
l-33.5 -54l-33.5 -54l-4 -6c-1.33301 -2 -2.66602 -4.33301 -3.99902 -7l27.5 -42.5l27.5 -43.5l34 -53l34 -54l16 -25.5l16 -25.5c5.33301 -8.66699 8.5 -18 9.5 -28s0.166992 -19.667 -2.5 -29c-5.33301 -20 -16.666 -35 -33.999 -45
c-18 -10.667 -37.333 -13.334 -58 -8.00098c-19.333 6 -34 17.667 -44 35c-3.33301 4 -6.16602 8.16699 -8.49902 12.5s-5.16602 8.83301 -8.49902 13.5l-30.5 48.5l-30.5 48.5l-34 54l-34 54l-5.5 7.5c-1.66699 2.33301 -3.16699 4.83301 -4.5 7.5h-26h-41v-73v-97v-39
c0 -20 -7.33301 -37.333 -22 -52s-32.334 -22 -53.001 -22c-20 0 -37.333 7.33301 -52 22s-22 32 -22 52v5v60v110v133v128v97v38c0 20.667 7.33301 38.334 22 53.001s32 22 52 22c20.667 0 38.334 -7.33301 53.001 -22s22 -32.334 22 -53.001v-4v-60v-110v-38h68l28 44
l28 45l33.5 54l33.5 53l16 25.5l16 25.5c10.667 18 25.334 29.333 44.001 34z" />
    <glyph glyph-name="L" unicode="L" horiz-adv-x="438" 
d="M125 -1c-20.667 0 -38.335 7.33301 -53.002 22s-22 32.334 -22 53.001v6v63v111v133v128v97v38c0 20 7.33301 37.333 22 52s32.334 22 53.001 22s38.334 -7.33301 53.001 -22s22 -32 22 -52v-6v-63v-111v-133v-128v-60h72h82c20 0 37.333 -7.33301 52 -22
s22 -32.334 22 -53.001c0 -20 -7.33301 -37.333 -22 -52s-32 -22 -52 -22h-49c-14 -0.666992 -27.833 -1 -41.5 -1h-41.5h-97v0z" />
    <glyph glyph-name="M" unicode="M" horiz-adv-x="670" 
d="M50 648c0 17.333 5.16797 32.667 15.501 46s23.5 22 39.5 26c20 6 39.333 3.66699 58 -7c10.667 -7.33301 19.667 -16.333 27 -27c2.66699 -6 6.33398 -11.667 11.001 -17c9.33301 -13.333 18.333 -27 27 -41s17.667 -27.667 27 -41l36.5 -55l36.5 -55l13.5 -20.5
l13.5 -20.5c0.666992 0 1 0.333008 1 1l36.5 54.5l36.5 55.5c11.333 16 22.166 32.167 32.499 48.5s21.166 32.5 32.499 48.5l27 42c6.66699 10.667 15.667 19.667 27 27l9 3.5l9 3.5c12.667 4 26 4 40 0c16 -4 29 -12.667 39 -26s15 -28.666 15 -45.999v-5v-61v-111v-132
v-129v-96v-39c0 -20 -7.16699 -37.333 -21.5 -52s-31.833 -22 -52.5 -22s-38.334 7.33301 -53.001 22s-22 32 -22 52v5v62v110v133v16l-32 -48.5l-32 -48.5c-4 -5.33301 -7.83301 -11 -11.5 -17s-7.5 -11.667 -11.5 -17c-0.666992 -2.66699 -2 -5.33398 -4 -8.00098
c-6.66699 -11.333 -15.667 -20.333 -27 -27s-23.666 -10 -36.999 -10h-1c-13.333 0 -25.666 3.33301 -36.999 10s-20.666 15.667 -27.999 27c-0.666992 1.33301 -1.16699 2.66602 -1.5 3.99902s-0.833008 2.66602 -1.5 3.99902c-2.66699 2.66699 -5 6 -7 10l-54 81
c-4.66699 6.66699 -9 13.334 -13 20.001s-8.33301 13.334 -13 20.001v-62v-129v-96v-39c0 -20 -7.33301 -37.333 -22 -52s-32.334 -22 -53.001 -22s-38.334 7.33301 -53.001 22s-22 32 -22 52v5v62v110v133v128v97v38v0z" />
    <glyph glyph-name="N" unicode="N" horiz-adv-x="613" 
d="M125 2c-20.667 0 -38.333 7.33105 -53 21.998s-22 32.334 -22 53.001v4v61v111v134v129v97v39c0 16.667 5 31.667 15 45s23.333 22.333 40 27c9.33301 2.66699 19 3.33398 29 2.00098s19.333 -4.66602 28 -9.99902c12 -6 21 -14.667 27 -26l5.5 -7.5l5.5 -7.5l20 -29.5
l21 -29.5l31.5 -45.5l32.5 -45.5l75 -108l72 -102v70v130v97v39c0 20.667 7.5 38.334 22.5 53.001s32.833 22 53.5 22c20 0 37.5 -7.33301 52.5 -22s22.5 -32.334 22.5 -53.001v-5v-60v-110v-133v-130v-97v-39c0 -16.667 -5.16699 -31.667 -15.5 -45
s-23.5 -22.333 -39.5 -27c-21.333 -5.33301 -40.666 -3 -57.999 7c-12 6.66699 -21 15.667 -27 27l-5.5 7.5c-1.66699 2.33301 -3.16699 4.83301 -4.5 7.5c-7.33301 9.33301 -14.333 19 -21 29l-21 30l-31.5 45.5l-32.5 45.5l-75 108l-72 102v-73v-129v-97v-38
c0 -20.667 -7.33301 -38.334 -22 -53.001s-32.334 -22 -53.001 -22z" />
    <glyph glyph-name="O" unicode="O" horiz-adv-x="520" 
d="M412 21c-8.66699 -6.66699 -17.6689 -12.1641 -27.002 -16.4971s-19 -8.5 -29 -12.5s-20.333 -6.83301 -31 -8.5s-21.667 -3.16699 -33 -4.5h-24c-14 0.666992 -28 2.66699 -42 6c-3.33301 1.33301 -6.83301 2.5 -10.5 3.5s-7.16699 2.16699 -10.5 3.5l-19.5 8
c-6.33301 2.66699 -12.5 5.66699 -18.5 9c-3.33301 1.33301 -6.5 3 -9.5 5s-6.16699 4.33301 -9.5 7l-15.5 12c-5 4 -10.167 8.66699 -15.5 14c-8.66699 8.66699 -17.334 19 -26.001 31c-2 3.33301 -4 6.5 -6 9.5s-4 6.16699 -6 9.5c-3.33301 6 -6.33301 12 -9 18
s-5 12.333 -7 19c-1.33301 3.33301 -2.5 7 -3.5 11s-2.16699 7.66699 -3.5 11l-4 26c-1.33301 8.66699 -2 17.667 -2 27v23v113v127v39c0 9.33301 0.5 18.666 1.5 27.999s2.16699 18.666 3.5 27.999c2 10.667 4.83301 21 8.5 31s8.16699 19.667 13.5 29
c2.66699 6 6.66699 12.333 12 19c3.33301 5.33301 7.16602 10.666 11.499 15.999l13.5 16l7.5 7.5c2.33301 2.33301 5.16602 4.83301 8.49902 7.5l16 12.5c5.33301 4.33301 11 8.16602 17 11.499s12 6.33301 18 9s12.333 5.33398 19 8.00098l10.5 4l11.5 4
c14 2.66699 28 4.66699 42 6c4 0.666992 8 1 12 1h12c14 -1.33301 28 -3.33301 42 -6c8 -1.33301 15.333 -3.33301 22 -6c10 -3.33301 19.833 -7.16602 29.5 -11.499s18.834 -9.83301 27.501 -16.5c8.66699 -6 16.834 -12.333 24.501 -19s14.834 -14.334 21.501 -23.001
c4.66699 -5.33301 9 -10.666 13 -15.999s7.66699 -11 11 -17s6.33301 -12.167 9 -18.5l8 -18.5c4 -10.667 6.83301 -21.334 8.5 -32.001s3.16699 -21.334 4.5 -32.001c0.666992 -4.66699 1 -9.16699 1 -13.5v-12.5v-104v-130v-64c0 -8 -0.5 -16 -1.5 -24
s-2.16699 -15.667 -3.5 -23c-1.33301 -4.66699 -2.5 -9.16699 -3.5 -13.5s-2.5 -8.83301 -4.5 -13.5c-3.33301 -10 -7.16602 -19.667 -11.499 -29s-9.83301 -18.333 -16.5 -27l-12 -16c-4 -5.33301 -8.66699 -10.666 -14 -15.999c-4.66699 -4.66699 -9.66699 -9 -15 -13
s-10.666 -8.33301 -15.999 -13zM290.998 129.003c3.33301 1.33301 6.66895 2.33398 10.002 3.00098s6.66602 1.66699 9.99902 3s6.33301 3 9 5s5.66699 3.66699 9 5l7.5 7.5c2.33301 2.33301 4.5 4.83301 6.5 7.5c2 3.33301 4 6.33301 6 9s3.66699 5.66699 5 9
c2.66699 7.33301 4.33398 14 5.00098 20c0 2 0.166992 3.83301 0.5 5.5s0.5 3.5 0.5 5.5v20v112v127v41c0 3.33301 -0.166992 6.83301 -0.5 10.5s-0.5 7.16699 -0.5 10.5c-0.666992 6 -2.33398 12.667 -5.00098 20c-1.33301 3.33301 -3 6.33301 -5 9s-4 5.66699 -6 9
c-4 5.33301 -8.66699 10 -14 14c-3.33301 2 -6.33301 4 -9 6s-5.66699 3.66699 -9 5s-6.66602 2.33301 -9.99902 3l-10 2c-8 0.666992 -15.333 0.666992 -22 0c-6 -0.666992 -12.667 -2.33398 -20 -5.00098c-3.33301 -1.33301 -6.33301 -3 -9 -5s-5.66699 -4 -9 -6
c-5.33301 -4 -10 -8.66699 -14 -14c-2 -3.33301 -4 -6.33301 -6 -9s-3.66699 -5.66699 -5 -9c-2.66699 -7.33301 -4.33398 -14 -5.00098 -20c-0.666992 -5.33301 -1 -10.333 -1 -15v-15v-111v-128v-41v-11c0 -4 0.333008 -7.66699 1 -11
c0.666992 -6 2.33398 -12.667 5.00098 -20c1.33301 -3.33301 3 -6.33301 5 -9s4 -5.66699 6 -9c2 -2.66699 4.16699 -5.16699 6.5 -7.5l7.5 -7.5c3.33301 -1.33301 6.33301 -3 9 -5s5.66699 -3.66699 9 -5s6.66602 -2.33301 9.99902 -3s6.66602 -1.66699 9.99902 -3h22z" />
    <glyph glyph-name="P" unicode="P" horiz-adv-x="530" 
d="M125 1c-20.667 0 -38.3311 7.49414 -52.998 22.4941s-22 32.5 -22 52.5v5v61v111v134v129v97v38c0 20.667 7.33301 38.334 22 53.001s32.334 22 53.001 22h4h113c7.33301 0 14.666 0.166992 21.999 0.5s14.666 -0.166992 21.999 -1.5
c11.333 -1.33301 22.166 -2.83301 32.499 -4.5s20.833 -4.5 31.5 -8.5l28.5 -12.5c9.66699 -4.33301 18.834 -9.83301 27.501 -16.5c8.66699 -6 17 -12.333 25 -19s15.667 -14 23 -22c6.66699 -7.33301 13 -15.333 19 -24s11.667 -17.667 17 -27
c3.33301 -6 6.33301 -12.167 9 -18.5s5 -12.833 7 -19.5c2.66699 -5.33301 5 -12.666 7 -21.999c2.66699 -12.667 4.66699 -26.667 6 -42c0.666992 -3.33301 1 -7 1 -11v-12c0 -13.333 -1.66699 -27.666 -5 -42.999c-0.666992 -3.33301 -1.16699 -7 -1.5 -11
s-1.16602 -7.66699 -2.49902 -11c-2 -7.33301 -4.33301 -14 -7 -20s-5.33398 -12.333 -8.00098 -19c-1.33301 -3.33301 -3 -6.66602 -5 -9.99902s-3.66699 -6.66602 -5 -9.99902c-2 -3.33301 -4 -6.5 -6 -9.5s-4.33301 -5.83301 -7 -8.5l-12 -16
c-4 -5.33301 -8.33301 -10.666 -13 -15.999c-2.66699 -2.66699 -5.33398 -5.16699 -8.00098 -7.5l-9 -7.5l-16 -12.5c-5.33301 -4.33301 -10.666 -8.16602 -15.999 -11.499l-10 -6c-3.33301 -2 -6.66602 -3.66699 -9.99902 -5c-6 -3.33301 -12.167 -6.16602 -18.5 -8.49902
l-19.5 -7.5c-22 -6.66699 -43.333 -10.334 -64 -11.001c-7.33301 -0.666992 -14.333 -0.833984 -21 -0.500977s-13.334 0.5 -20.001 0.5h-36v-3v-97v-39c0 -20 -7.33301 -37.5 -22 -52.5s-32.334 -22.5 -53.001 -22.5zM279.003 575.994
c-9.33301 0.666992 -18.333 0.837891 -27 0.504883s-17.667 -0.5 -27 -0.5h-25v-101v-110h43c6 0 12 -0.166992 18 -0.5s12 -0.166016 18 0.500977l13.5 4l12.5 4c7.33301 3.33301 15.333 7.66602 24 12.999c3.33301 3.33301 6.5 6.66602 9.5 9.99902
s6.16699 6.66602 9.5 9.99902c5.33301 8 10 15.667 14 23l4 13.5c1.33301 4.33301 2.33301 8.83301 3 13.5c0.666992 9.33301 0.666992 19 0 29c-0.666992 4.66699 -1.66699 9.16699 -3 13.5l-4 13.5c-4 7.33301 -8.66699 15 -14 23
c-3.33301 3.33301 -6.5 6.66602 -9.5 9.99902s-6.16699 6.66602 -9.5 9.99902c-8.66699 5.33301 -16.667 9.66602 -24 12.999l-12.5 4z" />
    <glyph glyph-name="Q" unicode="Q" horiz-adv-x="709" 
d="M675 -132c-3.33301 -5.33301 -7.01074 -10.6533 -11.0107 -15.9863l-12 -16c-2 -2.66699 -4.16699 -5.33398 -6.5 -8.00098s-5.16602 -5.33398 -8.49902 -8.00098l-14.5 -12c-5 -4 -10.167 -7.66699 -15.5 -11s-11.166 -6.33301 -17.499 -9l-18.5 -8
c-3.33301 -1.33301 -6.83301 -2.5 -10.5 -3.5s-7.16699 -2.16699 -10.5 -3.5c-15.333 -3.33301 -29 -5 -41 -5c-6.66699 -0.666992 -13 -0.666992 -19 0s-12.333 1.66699 -19 3c-3.33301 0.666992 -6.33301 1.16699 -9 1.5s-5.66699 1.16602 -9 2.49902l-25 10
c-8 3.33301 -15.667 7.66602 -23 12.999s-14.5 10.833 -21.5 16.5l-21.5 17.5l-24 22.5c-8 7.66699 -16.333 15.167 -25 22.5l-10.5 6.5l-10.5 6.5c-3.33301 0.666992 -7.66602 1.66699 -12.999 3s-10.666 1.33301 -15.999 0s-9.66602 -2.33301 -12.999 -3
c-4 -2.66699 -6.66699 -4.33398 -8 -5.00098l-6 -6c-13.333 -13.333 -29.5 -20 -48.5 -20s-35.167 6.66699 -48.5 20c-14 14 -21 30.333 -21 49c0 17.333 7 33.666 21 48.999c3.33301 4 7.33301 7.66699 12 11l14 10v1c-3.33301 1.33301 -6.16602 3 -8.49902 5
s-5.16602 4 -8.49902 6l-15.5 12c-5 4 -10.167 8.66699 -15.5 14c-8.66699 8.66699 -17.334 19 -26.001 31c-2 3.33301 -4 6.5 -6 9.5s-4 6.16699 -6 9.5c-3.33301 6 -6.33301 12.167 -9 18.5s-5 12.833 -7 19.5c-1.33301 3.33301 -2.5 6.83301 -3.5 10.5
s-2.16699 7.16699 -3.5 10.5c-4 18 -6 35.667 -6 53v23v114v126v39c0 9.33301 0.5 18.666 1.5 27.999s2.16699 18.666 3.5 27.999c2 10.667 4.83301 21 8.5 31s8.16699 19.667 13.5 29c1.33301 3.33301 3 6.5 5 9.5s4 6.16699 6 9.5l12 16
c4 5.33301 8.66699 10.666 14 15.999c5.33301 6.66699 10.666 11.667 15.999 15c5.33301 4.66699 10.666 9 15.999 13s11 7.66699 17 11s12 6.33301 18 9s12.333 5.66699 19 9c5.33301 2.66699 12.666 5 21.999 7c12.667 2.66699 26.667 4.66699 42 6c4 0.666992 8 1 12 1
h11l21.5 -2c7 -0.666992 14.167 -1.66699 21.5 -3c3.33301 -1.33301 7 -2.33301 11 -3s7.66699 -1.66699 11 -3c10 -4 19.833 -8.16699 29.5 -12.5s18.834 -9.83301 27.501 -16.5c8.66699 -6 16.834 -12.333 24.501 -19s14.834 -14.334 21.501 -23.001
c8.66699 -10 16.667 -21 24 -33c3.33301 -6 6.33301 -12 9 -18s5.33398 -12.333 8.00098 -19c4 -10 6.83301 -20.333 8.5 -31s3.16699 -21.667 4.5 -33c0.666992 -4.66699 1 -9 1 -13v-13v-104v-130v-64c0 -8 -0.5 -16 -1.5 -24s-2.16699 -15.667 -3.5 -23
c-1.33301 -4.66699 -2.5 -9.16699 -3.5 -13.5s-2.5 -8.83301 -4.5 -13.5c-3.33301 -9.33301 -7.16602 -18.833 -11.499 -28.5s-9.83301 -18.834 -16.5 -27.501l-12 -16c-4 -5.33301 -8.66699 -10.666 -14 -15.999c-4.66699 -4.66699 -9.66699 -9 -15 -13l-16 -12
c-4 -3.33301 -8.16699 -6.33301 -12.5 -9s-9.16602 -5.33398 -14.499 -8.00098l18 -14c6 -4.66699 12 -9.66699 18 -15l24 -22.5c8 -7.66699 16.333 -15.167 25 -22.5c3.33301 -2 6.5 -4 9.5 -6s6.16699 -3.66699 9.5 -5c1.33301 -1.33301 3 -2 5 -2s3.66699 -0.333008 5 -1
h13c6.66699 1.33301 11.667 2.66602 15 3.99902c5.33301 2.66699 9.33301 5 12 7c2 1.33301 3.83301 3 5.5 5s3.16699 3.66699 4.5 5l4 6c1.33301 2 2.66602 4.33301 3.99902 7c0.666992 2.66699 1.33398 5.16699 2.00098 7.5s1.33398 4.83301 2.00098 7.5v7
c0 19.333 6.66699 35.666 20 48.999s29.666 20 48.999 20c18.667 0 34.834 -6.66699 48.501 -20s20.5 -29.666 20.5 -48.999c0 -16.667 -2.16699 -32.834 -6.5 -48.501s-10.166 -30.834 -17.499 -45.501zM268.989 588.013
c-3.33301 -1.33301 -6.66797 -2.33105 -10.001 -2.99805s-6.66602 -1.66699 -9.99902 -3s-6.33301 -2.83301 -9 -4.5l-9 -5.5l-15 -15c-1.33301 -2.66699 -3 -5.5 -5 -8.5s-3.66699 -6.16699 -5 -9.5c-2.66699 -7.33301 -4.33398 -13.666 -5.00098 -18.999
s-1 -10.5 -1 -15.5v-15.5v-111v-128v-41v-11c0 -4 0.333008 -7.66699 1 -11c0.666992 -6 2.33398 -12.667 5.00098 -20c1.33301 -3.33301 3 -6.33301 5 -9s4 -5.66699 6 -9c4 -5.33301 8.66699 -10 14 -14c3.33301 -2 6.33301 -4 9 -6s5.66699 -3.66699 9 -5
c7.33301 -2.66699 14 -4.33398 20 -5.00098c6.66699 -0.666992 14 -0.666992 22 0l10 2c3.33301 0.666992 6.66602 1.66699 9.99902 3s6.33301 3 9 5s5.66699 4 9 6c5.33301 4 10 8.66699 14 14l5.5 9l5.5 9c1.33301 3.33301 2.33301 6.66602 3 9.99902l2 10v11v21v111v127
v41v22c-0.666992 5.33301 -2.33398 11.666 -5.00098 18.999l-5.5 9.5c-1.66699 3 -3.5 5.83301 -5.5 8.5s-4.16699 5.16699 -6.5 7.5l-7.5 7.5l-9 5.5c-2.66699 1.66699 -5.66699 3.16699 -9 4.5s-6.66602 2.33301 -9.99902 3s-6.66602 1.66699 -9.99902 3h-22z" />
    <glyph glyph-name="R" unicode="R" horiz-adv-x="532" 
d="M125 1c-20 0 -37.4961 7.33203 -52.4961 21.999s-22.5 32.334 -22.5 53.001v7v83v130v122v56c0 14.667 0.166992 29.167 0.5 43.5s0.5 28.5 0.5 42.5c0 15.333 0.166992 30.666 0.5 45.999s0.5 30.666 0.5 45.999c0 20.667 7.33301 38.334 22 53.001s32.334 22 53.001 22
h3h113c7.33301 0 14.333 0.166992 21 0.5s13.667 -0.166992 21 -1.5c11.333 -1.33301 22.166 -2.83301 32.499 -4.5s20.833 -4.5 31.5 -8.5c21.333 -7.33301 40.333 -16.666 57 -27.999c8.66699 -5.33301 17 -11.333 25 -18s15.667 -14 23 -22
c4.66699 -5.33301 9 -10.666 13 -15.999l12 -16c2 -3.33301 4 -6.5 6 -9.5s4 -6.16699 6 -9.5c3.33301 -6 6.16602 -12.167 8.49902 -18.5l7.5 -19.5c2.66699 -5.33301 5 -12.666 7 -21.999c2.66699 -12.667 4.66699 -26.334 6 -41.001c0.666992 -4 1.16699 -8 1.5 -12
s0.5 -8 0.5 -12l-2 -21.5c-0.666992 -7 -1.66699 -14.167 -3 -21.5c-0.666992 -3.33301 -1.33398 -7 -2.00098 -11s-1.66699 -7.66699 -3 -11c-2 -9.33301 -4.33301 -16.666 -7 -21.999c-2.66699 -6.66699 -5.33398 -13 -8.00098 -19s-5.66699 -12 -9 -18
c-2 -3.33301 -4 -6.5 -6 -9.5s-4 -6.16699 -6 -9.5c-8.66699 -12 -17.334 -22.333 -26.001 -31c-4 -5.33301 -8.66699 -10 -14 -14l20 -47.5l21 -47.5c5.33301 -11.333 10.5 -23 15.5 -35s10.167 -23.667 15.5 -35c6.66699 -11.333 10 -24 10 -38
c-0.666992 -3.33301 -1.16699 -6.66602 -1.5 -9.99902s-0.833008 -6.66602 -1.5 -9.99902c-5.33301 -20 -16.666 -35 -33.999 -45c-18 -10.667 -37.333 -13.334 -58 -8.00098c-14 4 -25 10.667 -33 20l-12 15c-2 5.33301 -4.16699 10.5 -6.5 15.5s-4.5 10.167 -6.5 15.5
l-25.5 58l-25.5 58c-2.66699 5.33301 -5 10.666 -7 15.999s-4.33301 10.666 -7 15.999c-3.33301 -0.666992 -6.83301 -1.16699 -10.5 -1.5s-7.16699 -0.5 -10.5 -0.5c-6.66699 -0.666992 -13.334 -1 -20.001 -1h-21h-37v-87v-53c0 -20.667 -7.5 -38.334 -22.5 -53.001
s-32.833 -22 -53.5 -22zM280.004 575.999c-8.66699 1.33301 -17.333 1.83301 -26 1.5s-17.667 -0.5 -27 -0.5h-26v-62v-50v-85v-14h44h18c6 0 12 0.333008 18 1c4.66699 1.33301 9.16699 2.5 13.5 3.5s8.5 2.16699 12.5 3.5c4 2 8 4.16699 12 6.5s8 4.83301 12 7.5l9.5 9.5
l9.5 9.5l7.5 11.5c2.33301 3.66699 4.5 7.83398 6.5 12.501c1.33301 4 2.5 8.16699 3.5 12.5s2.16699 8.83301 3.5 13.5c0.666992 9.33301 0.666992 19 0 29c-1.33301 4.66699 -2.5 9.16699 -3.5 13.5s-2.16699 8.83301 -3.5 13.5c-4 7.33301 -8.66699 15 -14 23
c-6.66699 7.33301 -13 13.666 -19 18.999c-4 3.33301 -8 6 -12 8l-12 6l-13.5 4c-4.33301 1.33301 -8.83301 2.33301 -13.5 3z" />
    <glyph glyph-name="S" unicode="S" horiz-adv-x="499" 
d="M484 264c2 -10.667 3.49805 -21.168 4.49805 -31.501s0.833008 -20.833 -0.5 -31.5c-1.33301 -14.667 -3.33301 -28.334 -6 -41.001c-2 -7.33301 -4.16699 -14 -6.5 -20s-5.16602 -12.333 -8.49902 -19c-4 -9.33301 -9 -18.5 -15 -27.5s-12.667 -17.167 -20 -24.5
c-4.66699 -6 -10 -11.333 -16 -16c-10 -9.33301 -21 -17.333 -33 -24c-5.33301 -3.33301 -11.166 -6.33301 -17.499 -9s-12.833 -5.66699 -19.5 -9c-3.33301 -1.33301 -6.83301 -2.5 -10.5 -3.5s-7.16699 -2.16699 -10.5 -3.5c-20 -4 -40 -6 -60 -6h-11
c-4 0 -7.66699 0.333008 -11 1c-7.33301 0.666992 -15 1.5 -23 2.5s-15.667 2.5 -23 4.5c-9.33301 2 -17.666 5 -24.999 9c-14.667 5.33301 -28 11.666 -40 18.999c-6.66699 3.33301 -12.834 7.16602 -18.501 11.499s-11.5 9.16602 -17.5 14.499
c-3.33301 2.66699 -6.5 5.5 -9.5 8.5l-9.5 9.5c-6.66699 7.33301 -12 15.333 -16 24s-6 18.334 -6 29.001c0 20.667 7.33301 38.334 22 53.001s32.667 22 54 22c20.667 0 38.334 -7.33301 53.001 -22c2 -2.66699 4.33301 -5.16699 7 -7.5s5.33398 -4.83301 8.00098 -7.5
c3.33301 -2.66699 7 -5 11 -7l12 -6l12.5 -4l13.5 -4c10.667 -0.666992 21.334 -0.666992 32.001 0c5.33301 0.666992 11 2.33398 17 5.00098c3.33301 1.33301 6.16602 2.66602 8.49902 3.99902s4.83301 3 7.5 5l12 12l9 15c1.33301 3.33301 2.16602 6.33301 2.49902 9
s1.16602 5.66699 2.49902 9v20c-1.33301 3.33301 -2.16602 6.33301 -2.49902 9s-1.16602 5.66699 -2.49902 9l-9 15l-12 12c-5.33301 4 -10.666 7 -15.999 9c-2.66699 1.33301 -5.16699 2.33301 -7.5 3s-5.16602 1.33398 -8.49902 2.00098h-21l-18 2
c-6 0.666992 -12 1.66699 -18 3l-15 3c-8 2.66699 -16 5.5 -24 8.5s-15.667 6.5 -23 10.5s-14.333 8.5 -21 13.5s-13 10.167 -19 15.5c-6 4.66699 -11.333 10 -16 16c-8 9.33301 -16 20 -24 32l-6 10c-2 3.33301 -3.66699 6.66602 -5 9.99902
c-2.66699 6.66699 -5.33398 13 -8.00098 19s-4.66699 12.667 -6 20c-2 7.33301 -3.33301 14.333 -4 21s-1.66699 13.667 -3 21v19c0 7.33301 0.333008 14.5 1 21.5s1.66699 14.167 3 21.5c1.33301 3.33301 2.33301 7 3 11s1.66699 7.66699 3 11
c3.33301 10 7.33301 19.833 12 29.5s10 18.834 16 27.501l12 16c4 5.33301 8.66699 10.333 14 15c10.667 9.33301 21.334 18 32.001 26c3.33301 2 6.5 4 9.5 6s6.16699 3.66699 9.5 5c10.667 6 23.334 11.333 38.001 16c7.33301 3.33301 14.666 5.33301 21.999 6
c7.33301 1.33301 14.5 2.33301 21.5 3s14.167 1 21.5 1h8c2 0 4 -0.166992 6 -0.5s3.66699 -0.5 5 -0.5c6.66699 -1.33301 13.167 -2.33301 19.5 -3s12.833 -1.66699 19.5 -3c9.33301 -2 18.166 -4.66699 26.499 -8s16.833 -7 25.5 -11
c5.33301 -2.66699 10.666 -5.5 15.999 -8.5s10.666 -6.5 15.999 -10.5l22 -16c7.33301 -5.33301 14 -11.666 20 -18.999c14.667 -16 22 -33.667 22 -53c0 -20.667 -7.33301 -38.334 -22 -53.001s-32.334 -22 -53.001 -22c-9.33301 0 -18.833 1.83301 -28.5 5.5
s-17.834 9.16699 -24.501 16.5l-7.5 7.5c-2.33301 2.33301 -5.16602 4.83301 -8.49902 7.5c-6 4.66699 -13.333 9 -22 13c-4.66699 1.33301 -9.16699 2.5 -13.5 3.5s-8.83301 2.16699 -13.5 3.5c-2 0.666992 -4.16699 1 -6.5 1h-6.5h-5h-4
c-3.33301 -0.666992 -6.33301 -1.33398 -9 -2.00098s-5.66699 -1.66699 -9 -3l-15 -9l-12 -12c-4 -5.33301 -7 -10.333 -9 -15c-1.33301 -3.33301 -2.33301 -6.33301 -3 -9s-1.33398 -5.66699 -2.00098 -9v-22c0.666992 -3.33301 1.33398 -6.16602 2.00098 -8.49902
s1.66699 -5.16602 3 -8.49902c2 -5.33301 5 -10.333 9 -15c2 -2.66699 4 -5 6 -7l6 -6l15 -9c3.33301 -1.33301 6.33301 -2.16602 9 -2.49902s5.33398 -0.833008 8.00098 -1.5s7 -1 13 -1c6.66699 0 13.334 -0.333008 20.001 -1s13.667 -1.66699 21 -3
c10.667 -1.33301 21.167 -3.83301 31.5 -7.5s20.166 -8.16699 29.499 -13.5c6 -2.66699 12.333 -6.66699 19 -12l16 -12c5.33301 -4 10.666 -8.33301 15.999 -13c5.33301 -5.33301 10 -10.5 14 -15.5l12 -15.5c2 -3.33301 4 -6.5 6 -9.5s4 -6.16699 6 -9.5
c3.33301 -6 6.33301 -12.167 9 -18.5s5 -12.833 7 -19.5c2.66699 -6.66699 4.66699 -14 6 -22z" />
    <glyph glyph-name="T" unicode="T" horiz-adv-x="585" 
d="M500 725c20.667 0 38.3359 -7.33301 53.0029 -22s22 -32.334 22 -53.001s-7.33301 -38.334 -22 -53.001s-32.334 -22 -53.001 -22h-1h-81h-27v-104v-133v-129v-97v-38c0 -20.667 -7.33301 -38.5 -22 -53.5s-32.334 -22.5 -53.001 -22.5s-38.334 7.5 -53.001 22.5
s-22 32.833 -22 53.5v5v62v111v134v129v60h-14h-102c-20.667 0 -38.334 7.33301 -53.001 22s-22 32.334 -22 53.001s7.33301 38.334 22 53.001s32.334 22 53.001 22h105h79h1h6h1h104h79v0z" />
    <glyph glyph-name="U" unicode="U" 
d="M412 35c-6 -4 -12.3379 -7.66602 -19.0049 -10.999s-13 -6.33301 -19 -9s-12.333 -5 -19 -7c-4 -1.33301 -7.83301 -2.33301 -11.5 -3l-11.5 -2c-7.33301 -1.33301 -14.333 -2.5 -21 -3.5s-13.667 -1.5 -21 -1.5h-13.5c-4.33301 0 -8.83301 0.333008 -13.5 1
c-12.667 0 -26.667 1.66699 -42 5c-3.33301 1.33301 -7 2.5 -11 3.5s-7.66699 2.16699 -11 3.5c-6 2 -12.167 4.33301 -18.5 7s-12.5 5.66699 -18.5 9s-11.667 7.16602 -17 11.499l-16 12.5c-8.66699 6.66699 -16.334 14 -23.001 22s-13 16.333 -19 25
c-2 3.33301 -4 6.5 -6 9.5s-4 6.16699 -6 9.5c-6 11.333 -11 24 -15 38c-1.33301 3.33301 -2.33301 7 -3 11l-2 12c-1.33301 6.66699 -2.5 13.334 -3.5 20.001s-1.5 13.667 -1.5 21v4v25v104v134v115v50c0 20 7.33301 37.5 22 52.5s32.334 22.5 53.001 22.5
s38.334 -7.5 53.001 -22.5s22 -32.5 22 -52.5v-38v-109v-134v-111v-24.5c0 -8.33301 0.333008 -16.5 1 -24.5c0.666992 -3.33301 1.33398 -6.33301 2.00098 -9s1.66699 -5.66699 3 -9s2.83301 -6.16602 4.5 -8.49902s3.16699 -4.83301 4.5 -7.5
c4 -4.66699 8.33301 -9 13 -13l15 -9c3.33301 -1.33301 6.33301 -2.33301 9 -3s5.66699 -1.33398 9 -2.00098h20h19c3.33301 0.666992 6.33301 1.33398 9 2.00098s5.66699 1.66699 9 3c2.66699 1.33301 5.33398 2.83301 8.00098 4.5s5.33398 3.16699 8.00098 4.5
c2 2 4.16699 4 6.5 6s4.5 4.33301 6.5 7c1.33301 2.66699 2.83301 5.16699 4.5 7.5s3.16699 5.16602 4.5 8.49902c1.33301 2.66699 2.16602 5.5 2.49902 8.5s1.16602 6.16699 2.49902 9.5c0.666992 6 0.833984 12.167 0.500977 18.5s-0.5 12.833 -0.5 19.5v104v133v116v49
c0 20.667 7.33301 38.5 22 53.5s32.334 22.5 53.001 22.5s38.334 -7.5 53.001 -22.5s22 -32.833 22 -53.5v-4v-74v-126v-130v-85v-19c-0.666992 -14.667 -2.66699 -29 -6 -43c-1.33301 -8 -3.33301 -15.333 -6 -22l-8 -18.5c-2.66699 -6.33301 -5.66699 -12.5 -9 -18.5
s-7 -11.667 -11 -17l-12 -16c-6.66699 -8.66699 -14 -16.334 -22 -23.001s-16.333 -13 -25 -19z" />
    <glyph glyph-name="V" unicode="V" horiz-adv-x="653" 
d="M587 724c10 -2.66699 18.8301 -7.16406 26.4971 -13.4971s14 -13.833 19 -22.5s8.16699 -17.834 9.5 -27.501s0.666016 -19.5 -2.00098 -29.5c-2.66699 -6.66699 -5 -14.334 -7 -23.001l-12 -39.5l-12 -39.5c-1.33301 -5.33301 -4.33301 -15.333 -9 -30
s-10 -32.334 -16 -53.001l-20.5 -68.5l-22.5 -74.5l-58 -195c-1.33301 -2 -2.16602 -4 -2.49902 -6s-1.16602 -4 -2.49902 -6c-1.33301 -2.66699 -2.16602 -5.16699 -2.49902 -7.5s-1.16602 -4.83301 -2.49902 -7.5c-8.66699 -19.333 -20.667 -35.833 -36 -49.5
s-33.333 -23.167 -54 -28.5c-4 -2 -8.33301 -3 -13 -3c-3.33301 -1.33301 -6.66602 -2 -9.99902 -2h-10h-9c-3.33301 0 -6.66602 0.166992 -9.99902 0.5s-6.66602 0.833008 -9.99902 1.5c-4.66699 0 -9 1 -13 3h-1c-20 5.33301 -37.667 14.833 -53 28.5
s-27.333 29.834 -36 48.501c-1.33301 3.33301 -2.33301 6.16602 -3 8.49902s-1.66699 5.16602 -3 8.49902l-3 8c-0.666992 0.666992 -1 1.66699 -1 3c-2.66699 7.33301 -7.66699 24 -15 50l-26.5 91l-33 110.5l-32 109l-25.5 86.5c-7.33301 24 -11.666 38.333 -12.999 43
c-1.33301 5.33301 -2.83301 10.833 -4.5 16.5s-3.5 11.167 -5.5 16.5c-2.66699 10 -3.33398 20 -2.00098 30s4.5 19.167 9.5 27.5s11.333 15.666 19 21.999s16.5 10.833 26.5 13.5c20 5.33301 39.333 2.66602 58 -8.00098c17.333 -10 28.666 -25 33.999 -45
c1.33301 -3.33301 2.5 -7 3.5 -11s2.16699 -8 3.5 -12l11.5 -39.5l11.5 -39.5l18 -58.5c6 -19.667 11.667 -39.5 17 -59.5c7.33301 -23.333 14.166 -46.166 20.499 -68.499s13.166 -45.166 20.499 -68.499l21 -70l20 -70l18 57.5c6 19 11.667 38.167 17 57.5l21 70l21 70
l18.5 61l18.5 61c4.66699 14.667 9 29.167 13 43.5s8.33301 28.833 13 43.5c1.33301 5.33301 3 10.833 5 16.5s3.66699 11.167 5 16.5c6.66699 20.667 18 35.667 34 45c18.667 10.667 38 13.334 58 8.00098z" />
    <glyph glyph-name="W" unicode="W" horiz-adv-x="1098" 
d="M1032 724c10 -2.66699 18.8271 -7.16211 26.4941 -13.4951s14 -13.833 19 -22.5s8.16699 -17.834 9.5 -27.501s0.666016 -19.5 -2.00098 -29.5c-1.33301 -4 -2.5 -7.83301 -3.5 -11.5s-2.16699 -7.5 -3.5 -11.5l-12 -39.5l-12 -39.5
c-1.33301 -5.33301 -4.33301 -15.333 -9 -30s-10 -32.334 -16 -53.001l-20.5 -68.5l-22.5 -74.5l-58 -195c-1.33301 -2 -2.16602 -4 -2.49902 -6s-1.16602 -4 -2.49902 -6c-0.666992 -3.33301 -2.33398 -8.33301 -5.00098 -15c-8 -19.333 -19.833 -35.833 -35.5 -49.5
s-33.834 -23.167 -54.501 -28.5c-4 -2 -8.33301 -3 -13 -3c-3.33301 -1.33301 -6.66602 -2 -9.99902 -2h-10h-9c-3.33301 0 -6.66602 0.166992 -9.99902 0.5s-6.66602 0.833008 -9.99902 1.5c-4.66699 0 -9 1 -13 3h-1c-20 5.33301 -37.667 14.833 -53 28.5
s-27.333 29.834 -36 48.501c-1.33301 3.33301 -2.33301 6.16602 -3 8.49902s-1.66699 5.16602 -3 8.49902l-3 8c0 0.666992 -0.166992 1.16699 -0.5 1.5s-0.5 0.833008 -0.5 1.5c-2 6 -5.83301 18.5 -11.5 37.5l-20 68l-25.5 86.5l-27 93l-29 -97l-28 -92l-29 -96l-2 -6
l-2 -6l-6 -15c-8 -19.333 -19.833 -35.833 -35.5 -49.5s-33.5 -23.167 -53.5 -28.5h-1c-4 -2 -8.33301 -3 -13 -3c-3.33301 -1.33301 -6.66602 -2 -9.99902 -2h-10h-9c-3.33301 0 -6.66602 0.166992 -9.99902 0.5s-6.66602 0.833008 -9.99902 1.5c-4.66699 0 -9 1 -13 3
c-20 5.33301 -37.833 14.833 -53.5 28.5s-27.834 29.834 -36.501 48.501c-1.33301 3.33301 -2.33301 6.16602 -3 8.49902s-1.66699 5.16602 -3 8.49902l-3 8c0 1.33301 -0.333008 2.33301 -1 3c-2 7.33301 -6.83301 24 -14.5 50l-27 91l-32.5 110.5l-32 109l-25.5 86.5
l-12.5 43c-2 5.33301 -3.83301 10.833 -5.5 16.5s-3.16699 11.167 -4.5 16.5c-3.33301 10 -4.16602 20 -2.49902 30s4.83398 19.167 9.50098 27.5s10.834 15.666 18.501 21.999s16.5 10.833 26.5 13.5c20.667 5.33301 40 2.66602 58 -8.00098c17.333 -10 29 -25 35 -45
c1.33301 -3.33301 2.33301 -7 3 -11s1.66699 -8 3 -12l12 -39.5l12 -39.5c5.33301 -19.333 11 -38.833 17 -58.5l18 -59.5l20 -68.5l20 -68.5l21 -70l21 -70c5.33301 19.333 11 38.5 17 57.5l18 57.5l21 70l21 70l18 61l18 61l13.5 43.5
c4.33301 14.333 8.5 28.833 12.5 43.5c2 5.33301 3.83301 10.833 5.5 16.5s3.16699 11.167 4.5 16.5c6 20 17.667 35 35 45c13.333 7.33301 26.333 10.666 39 9.99902c13.333 0.666992 26.666 -2.66602 39.999 -9.99902c17.333 -10 28.666 -25 33.999 -45
c1.33301 -3.33301 2.5 -7 3.5 -11s2.16699 -8 3.5 -12l12 -39.5c4 -13 7.66699 -26.167 11 -39.5l18 -58.5c6 -19.667 11.667 -39.5 17 -59.5l21 -68.5l20 -68.5l21 -70l20 -70h1c5.33301 19.333 11 38.5 17 57.5s11.667 38.167 17 57.5l21 70l21 70l18.5 61l18.5 61
c4.66699 14.667 9 29.167 13 43.5s8.33301 28.833 13 43.5c1.33301 5.33301 3 10.833 5 16.5s3.66699 11.167 5 16.5c6.66699 20.667 18.334 35.667 35.001 45c18 10.667 37 13.334 57 8.00098z" />
    <glyph glyph-name="X" unicode="X" horiz-adv-x="582" 
d="M495 492l-31.499 -56.0039l-31.5 -56c-1.33301 -2.66699 -2.83301 -5.33398 -4.5 -8.00098s-3.16699 -5.33398 -4.5 -8.00098l24 -43.5l24 -42.5l30.5 -57l30.5 -56l30 -54c4.66699 -8.66699 7.83398 -18 9.50098 -28s0.833984 -19.667 -2.49902 -29
c-2.66699 -9.33301 -7 -17.833 -13 -25.5s-13 -14.167 -21 -19.5c-8.66699 -5.33301 -18 -8.66602 -28 -9.99902s-19.833 -0.666016 -29.5 2.00098s-18.5 6.83398 -26.5 12.501s-14.333 13.167 -19 22.5c-0.666992 0.666992 -1.66699 2.33398 -3 5.00098l-21 38l-21 39
l-32 58l-32 58c-2 3.33301 -3.83301 6.83301 -5.5 10.5s-3.5 7.16699 -5.5 10.5l-15 -26.5l-15 -26.5l-30.5 -56.5l-31.5 -56.5l-15 -26.5l-15 -26.5c-5.33301 -9.33301 -12 -16.833 -20 -22.5s-16.667 -9.83398 -26 -12.501s-19 -3.33398 -29 -2.00098
s-19.333 4.66602 -28 9.99902c-8 5.33301 -15 11.833 -21 19.5s-10.333 16.167 -13 25.5c-3.33301 9.33301 -4.16602 19 -2.49902 29s4.83398 19.333 9.50098 28c4 8.66699 8.33301 16 13 22l27 49.5l27 48.5l31.5 56.5l31.5 56.5
c1.33301 2.66699 2.83301 5.33398 4.5 8.00098s3.16699 5.33398 4.5 8.00098l-24 43.5l-24 42.5l-30.5 56.5l-30.5 56.5l-15 27c-4.66699 8.66699 -9.66699 17.334 -15 26.001c-4.66699 9.33301 -7.83398 18.833 -9.50098 28.5s-0.833984 19.5 2.49902 29.5
c2.66699 9.33301 7 17.833 13 25.5s13 14.167 21 19.5c8.66699 4.66699 18 7.66699 28 9s19.667 0.833008 29 -1.5s18 -6.5 26 -12.5s14.667 -13.333 20 -22c0.666992 -0.666992 1.66699 -2.33398 3 -5.00098l21 -38l21 -39l31.5 -58l32.5 -58
c1.33301 -3.33301 3 -6.83301 5 -10.5l6 -10.5l15 26.5l15 26.5l30.5 56.5l31.5 56.5c5.33301 8.66699 10.333 17.334 15 26.001l15 27c4.66699 8.66699 11.167 16 19.5 22s17.166 10.333 26.499 13s19 3.33398 29 2.00098s19.333 -4.66602 28 -9.99902
c8 -5.33301 15 -11.833 21 -19.5s10.333 -16.167 13 -25.5c3.33301 -9.33301 4.16602 -19 2.49902 -29s-4.83398 -19.667 -9.50098 -29c-2.66699 -3.33301 -5 -6.83301 -7 -10.5l-6 -10.5l-54 -99v0z" />
    <glyph glyph-name="Y" unicode="Y" horiz-adv-x="583" 
d="M535 716c18 -10.667 29.666 -25.667 34.999 -45c5.33301 -20 2.66602 -39.333 -8.00098 -58c0 -0.666992 -0.166992 -1.16699 -0.5 -1.5s-0.5 -0.833008 -0.5 -1.5l-37 -65l-31.5 -56.5l-31.5 -56.5l-30 -53l-30 -53c-2.66699 -4.66699 -5 -9.16699 -7 -13.5
s-4.33301 -8.83301 -7 -13.5v-22v-132v-70c0 -20.667 -7.5 -38.334 -22.5 -53.001s-32.5 -22 -52.5 -22c-20.667 0 -38.5 7.33301 -53.5 22s-22.5 32.334 -22.5 53.001v72v131v16l-13.5 25.5c-4.33301 8.33301 -9.16602 16.833 -14.499 25.5l-30.5 56.5l-31.5 56.5l-29 54
l-30 53c-4.66699 8 -9 16 -13 24s-8.33301 16 -13 24c-10.667 18.667 -13.334 38 -8.00098 58c5.33301 19.333 17 34.333 35 45c8.66699 4.66699 17.834 7.66699 27.501 9s19.334 0.666016 29.001 -2.00098s18.5 -6.83398 26.5 -12.501s14.667 -12.834 20 -21.501
c0 -1.33301 0.333008 -2.33301 1 -3c12 -20.667 23.667 -42 35 -64l31.5 -57l31.5 -56c3.33301 -6.66699 6.83301 -13.167 10.5 -19.5l10.5 -18.5l17.5 31.5l17.5 32.5l30 53l30 53l27 48c4.66699 8.66699 11 15.834 19 21.501s16.667 9.83398 26 12.501
s19 3.33398 29 2.00098s19.333 -4.33301 28 -9z" />
    <glyph glyph-name="Z" unicode="Z" horiz-adv-x="503" 
d="M418 149c20.667 0 38.334 -7.33301 53.001 -22s22 -32.334 22 -53.001s-7.33301 -38.334 -22 -53.001s-32.334 -22 -53.001 -22h-4h-91h-131h-67c-13.333 0 -25.833 3.33301 -37.5 10s-20.834 15.667 -27.501 27c-6.66699 10.667 -10 23.334 -10 38.001
c0 14 3.33301 26.667 10 38c6.66699 12.667 13 25.334 19 38.001l21.5 42.5l21.5 42.5l28.5 56l28.5 56l31 60l31 61c9.33301 17.333 18.333 35 27 53l27 54h-103h-67c-20.667 0 -38.334 7.33301 -53.001 22s-22 32.334 -22 53.001s7.33301 38.334 22 53.001
s32.334 22 53.001 22h4h90h131h67c13.333 0 25.833 -3.33301 37.5 -10s20.834 -15.667 27.501 -27c6 -10.667 9.66699 -23.334 11 -38.001c-1.33301 -14.667 -5 -27.334 -11 -38.001l-9.5 -19.5c-3 -6.33301 -6.16699 -12.5 -9.5 -18.5l-21.5 -42.5l-21.5 -42.5l-28.5 -56
l-28.5 -56l-31 -60l-31 -61l-27 -53.5l-27 -53.5h104h67v0z" />
    <glyph glyph-name="bracketleft" unicode="[" horiz-adv-x="335" 
d="M119 0c-18.667 0 -34.834 6.66699 -48.501 20s-20.5 29.666 -20.5 48.999v5v61v111v134v130v98v39c0 18.667 6.83301 34.834 20.5 48.501s29.834 20.5 48.501 20.5h35h102c18.667 0 34.834 -6.83301 48.501 -20.5s20.5 -29.834 20.5 -48.501
c0 -19.333 -6.83301 -35.833 -20.5 -49.5s-29.834 -20.5 -48.501 -20.5h-35h-32v-107v-134v-130v-67h67c18.667 0 34.834 -6.83301 48.501 -20.5s20.5 -30.167 20.5 -49.5s-6.83301 -35.666 -20.5 -48.999s-29.834 -20 -48.501 -20h-35h-102v0z" />
    <glyph glyph-name="backslash" unicode="\" horiz-adv-x="420" 
d="M306 14c-2.66699 1.33301 -5.16797 3.00098 -7.50098 5.00098s-4.5 3.66699 -6.5 5c-9.33301 9.33301 -15.333 19.666 -18 30.999c-2.66699 5.33301 -5 11 -7 17s-4 11.667 -6 17l-16.5 43.5l-17.5 43.5l-22.5 59.5l-22.5 58.5l-24 63.5l-24 63.5l-22 57l-22 56
c-5.33301 13.333 -10.166 26.333 -14.499 39s-9.16602 25.334 -14.499 38.001l-4 10.5l-4 10.5c-0.666992 3.33301 -1.16699 6.5 -1.5 9.5s-0.833008 6.16699 -1.5 9.5c0 11.333 3.33301 23 10 35c4.66699 7.33301 10.5 13.833 17.5 19.5s14.833 9.5 23.5 11.5
c9.33301 2.66699 18.666 3.5 27.999 2.5s18 -4.16699 26 -9.5c2 -1.33301 4.16699 -3 6.5 -5s4.83301 -3.66699 7.5 -5c8 -9.33301 14 -19.666 18 -30.999c2 -5.33301 4 -11 6 -17s4.33301 -11.667 7 -17l33 -87l22.5 -59.5l22.5 -59.5l25 -63l24 -63l21.5 -57l21.5 -56
l15 -39c4.66699 -12.667 9.66699 -25.334 15 -38.001l4 -10.5l4 -10.5c0 -3.33301 0.166992 -6.5 0.5 -9.5s0.833008 -6.16699 1.5 -9.5c0 -12.667 -3 -24.334 -9 -35.001c-5.33301 -7.33301 -11.5 -13.833 -18.5 -19.5s-14.833 -9.5 -23.5 -11.5
c-19.333 -5.33301 -37 -3 -53 7z" />
    <glyph glyph-name="bracketright" unicode="]" horiz-adv-x="335" 
d="M256 0h-102h-35c-18.667 0 -34.834 6.66699 -48.501 20s-20.5 29.666 -20.5 48.999s6.83301 35.833 20.5 49.5s29.834 20.5 48.501 20.5h67v67v130v134v107h-32h-35c-18.667 0 -34.834 6.83301 -48.501 20.5s-20.5 30.167 -20.5 49.5
c0 18.667 6.83301 34.834 20.5 48.501s29.834 20.5 48.501 20.5h102h35c18.667 0 34.834 -6.83301 48.501 -20.5s20.5 -29.834 20.5 -48.501v-39v-98v-130v-134v-111v-61v-5c0 -19.333 -6.83301 -35.666 -20.5 -48.999s-29.834 -20 -48.501 -20z" />
    <glyph glyph-name="underscore" unicode="_" horiz-adv-x="638" 
d="M602 50c7.33301 0 13.5 -2.5 18.5 -7.5s7.5 -10.833 7.5 -17.5c0 -7.33301 -2.5 -13.333 -7.5 -18s-11.167 -7 -18.5 -7h-279h-162h-86c-7.33301 -0 -13.333 2.33301 -18 7s-7 10.667 -7 18c0 6.66699 2.33301 12.5 7 17.5s10.667 7.5 18 7.5h94h161h272v0z" />
    <glyph glyph-name="a" unicode="a" horiz-adv-x="648" 
d="M310 -14c-36 0 -69.833 6.82812 -101.5 20.4951s-59.167 32.334 -82.5 56.001s-41.833 51.334 -55.5 83.001s-20.5 65.5 -20.5 101.5s6.83301 69.833 20.5 101.5s32.167 59.334 55.5 83.001s50.833 42.334 82.5 56.001s65.5 20.5 101.5 20.5c28 0 54.5 -4 79.5 -12
s48.167 -19.667 69.5 -35c5.33301 13.333 13.666 24.5 24.999 33.5s24.666 13.5 39.999 13.5c18.667 0 34.834 -6.83301 48.501 -20.5s20.5 -29.834 20.5 -48.501v-31v-125v-67c2 -5.33301 3.83301 -11 5.5 -17s3.5 -12 5.5 -18l15.5 -46.5l15.5 -47.5
c3.33301 -8.66699 4.16602 -17.667 2.49902 -27s-4.5 -18 -8.5 -26c-9.33301 -15.333 -23 -25.666 -41 -30.999s-35.667 -3 -53 7c-8 4.66699 -14.5 10.5 -19.5 17.5s-9.16699 14.833 -12.5 23.5c0 0.666992 -0.666992 2.33398 -2 5.00098
c-0.666992 1.33301 -1.16699 3 -1.5 5s-0.833008 3.66699 -1.5 5c-23.333 -24.667 -51.166 -44.167 -83.499 -58.5s-67.166 -21.5 -104.499 -21.5zM222 335.995c-24.667 -24.667 -37 -54.334 -37 -89.001s12.333 -64.334 37 -89.001c25.333 -24 54.666 -36 87.999 -36
c34 0 63.667 12 89 36c24.667 24.667 37 54.334 37 89.001s-12.333 64.334 -37 89.001c-25.333 24 -55 36 -89 36c-33.333 0 -62.666 -12 -87.999 -36z" />
    <glyph glyph-name="b" unicode="b" horiz-adv-x="509" 
d="M56 147c-3.33301 14.667 -4.99707 28.3311 -4.99707 40.998c-0.666992 8 -0.833984 16.167 -0.500977 24.5s0.5 16.5 0.5 24.5v111v134v112v48c0 18.667 6.66699 34.667 20 48s29.333 20 48 20c19.333 0 35.666 -6.66699 48.999 -20s20 -29.333 20 -48v-1v-52v-99
c2 0.666992 4 1 6 1s4 0.333008 6 1c11.333 1.33301 22.833 2.5 34.5 3.5s23.167 0.833008 34.5 -0.5c10.667 -1.33301 21.167 -2.83301 31.5 -4.5s20.5 -4.5 30.5 -8.5l28 -12.5c9.33301 -4.33301 18.333 -9.5 27 -15.5c8 -5.33301 16 -11.333 24 -18
s15.333 -13.667 22 -21s13 -15.166 19 -23.499s11.667 -17.166 17 -26.499c3.33301 -5.33301 6.16602 -11.166 8.49902 -17.499s4.83301 -12.5 7.5 -18.5c1.33301 -3.33301 2.5 -6.83301 3.5 -10.5s2.16699 -7.16699 3.5 -10.5c1.33301 -6.66699 2.33301 -13.334 3 -20.001
s1.66699 -13.334 3 -20.001c0.666992 -4 1.16699 -8 1.5 -12s0.5 -8 0.5 -12c0 -9.33301 -0.666992 -18.166 -2 -26.499s-2.66602 -17.166 -3.99902 -26.499c-1.33301 -5.33301 -2.83301 -10.833 -4.5 -16.5s-3.5 -11.167 -5.5 -16.5l-10 -22.5
c-3.33301 -7.66699 -7.66602 -15.167 -12.999 -22.5c-4.66699 -7.33301 -9.5 -14.333 -14.5 -21s-10.5 -12.667 -16.5 -18c-4.66699 -5.33301 -10.334 -10.333 -17.001 -15l-15.5 -12c-5 -4 -10.167 -7.66699 -15.5 -11c-6.66699 -4.66699 -13.334 -8.33398 -20.001 -11.001
c-6 -2.66699 -12 -5.16699 -18 -7.5s-12 -4.5 -18 -6.5c-4 -1.33301 -7.83301 -2.33301 -11.5 -3l-11.5 -2c-6.66699 -1.33301 -13.167 -2.5 -19.5 -3.5s-13.166 -1.5 -20.499 -1.5c-11.333 -1.33301 -22.333 -1.33301 -33 0c-6.66699 1.33301 -13.334 2.33301 -20.001 3
s-13.334 2 -20.001 4c-6 2 -12.167 4.16699 -18.5 6.5s-12.166 5.16602 -17.499 8.49902c-6 2.66699 -12.333 6.66699 -19 12l-15.5 11.5c-5 3.66699 -9.83301 8.16699 -14.5 13.5c-9.33301 8.66699 -17.333 18.667 -24 30c-4 6.66699 -7.33301 13.334 -10 20.001l-8 18
c-2.66699 6 -4.66699 12.333 -6 19zM262.003 358.997c-10.667 0.666992 -20.998 0.664062 -30.998 -0.00292969c-5.33301 -1.33301 -10.333 -2.66602 -15 -3.99902s-9.66699 -2.66602 -15 -3.99902c-2 -1.33301 -4.16699 -2.66602 -6.5 -3.99902
s-4.5 -2.66602 -6.5 -3.99902v-3v-108v-31v-16c1.33301 -5.33301 2.66602 -10 3.99902 -14c1.33301 -2 2.5 -4 3.5 -6s2.16699 -4 3.5 -6c2.66699 -4 6 -7.33301 10 -10c2.66699 -2 6.66699 -4.33301 12 -7c4 -1.33301 8.66699 -2.66602 14 -3.99902h16h9.5
c3 0 6.16699 0.333008 9.5 1c4.66699 0.666992 9.16699 1.66699 13.5 3l13.5 4l12 6c4 2 7.66699 4.66699 11 8s6.66602 6.5 9.99902 9.5s6.66602 6.16699 9.99902 9.5c5.33301 8.66699 9.66602 16.667 12.999 24c2 4 3.5 8.33301 4.5 13s2.16699 9.33398 3.5 14.001v14v16
c-1.33301 5.33301 -2.66602 10.166 -3.99902 14.499s-2.66602 9.16602 -3.99902 14.499l-7.5 13l-7.5 13l-21 21c-4 2.66699 -8.16699 5.16699 -12.5 7.5l-13.5 7.5l-14 4c-4.66699 1.33301 -9.66699 2.66602 -15 3.99902z" />
    <glyph glyph-name="c" unicode="c" 
d="M52 223c-0.666992 4 -1.16113 8.00195 -1.49414 12.002s-0.5 8 -0.5 12v2v1c0 19.333 2 38 6 56c2 9.33301 4.66699 18 8 26l10 25c6 12.667 13.667 25.334 23 38.001c6 8.66699 12.167 16.667 18.5 24s13.833 14.333 22.5 21c8 6.66699 16 12.834 24 18.501
s16.667 10.834 26 15.501s19 8.83398 29 12.501s20 6.5 30 8.5c10.667 2 21.5 3.66699 32.5 5s22.167 1.66602 33.5 0.999023c11.333 -1.33301 22.666 -2.83301 33.999 -4.5s22.666 -4.5 33.999 -8.5c10.667 -4 21.167 -8.33301 31.5 -13s20.166 -10.667 29.499 -18
c9.33301 -6.66699 18 -13.5 26 -20.5s15.667 -15.167 23 -24.5c8.66699 -8 14.667 -18 18 -30c0.666992 -3.33301 1.16699 -6.33301 1.5 -9s0.5 -5.66699 0.5 -9c0 -19.333 -6.66699 -35.666 -20 -48.999c-6 -6 -13.167 -10.833 -21.5 -14.5s-17.166 -5.5 -26.499 -5.5
c-11.333 0 -23 3.33301 -35 10c-2 1.33301 -4.16699 3 -6.5 5s-4.83301 3.66699 -7.5 5c-6.66699 9.33301 -14.667 17.666 -24 24.999c-8.66699 6.66699 -17 11.667 -25 15c-5.33301 2 -10.166 3.5 -14.499 4.5l-14.5 3.5c-10 0.666992 -20.333 0.666992 -31 0l-14.5 -3.5
c-4.33301 -1 -9.16602 -2.5 -14.499 -4.5l-25 -14l-21 -21c-5.33301 -8 -10 -16.333 -14 -25c-2 -5.33301 -3.5 -10.333 -4.5 -15s-2.16699 -9.33398 -3.5 -14.001c-0.666992 -2.66699 -1 -5.33398 -1 -8.00098v-8v-1v-2c0 -6.66699 0.333008 -11.667 1 -15
c1.33301 -5.33301 2.5 -10.333 3.5 -15s2.5 -9.33398 4.5 -14.001s4.16699 -9 6.5 -13s4.83301 -8 7.5 -12c6.66699 -8 13.667 -15 21 -21c4 -3.33301 8.16699 -6.16602 12.5 -8.49902l12.5 -6.5c5.33301 -1.33301 10.166 -2.66602 14.499 -3.99902
s9.16602 -2.66602 14.499 -3.99902c10.667 -0.666992 21 -0.666992 31 0c5.33301 1.33301 10.166 2.66602 14.499 3.99902s9.16602 2.66602 14.499 3.99902c8 3.33301 16.333 8.33301 25 15c4.66699 3.33301 9 7.16602 13 11.499s7.66699 8.83301 11 13.5
c9.33301 8 19.666 14 30.999 18c3.33301 0 6.33301 0.166992 9 0.5s5.66699 0.833008 9 1.5c9.33301 0 18.166 -1.66699 26.499 -5s15.5 -8.33301 21.5 -15c13.333 -13.333 20 -29.666 20 -48.999c0 -12.667 -3 -24 -9 -34l-5.5 -7.5c-1.66699 -2.33301 -3.5 -4.5 -5.5 -6.5
c-8 -11.333 -17.667 -21 -29 -29c-7.33301 -6 -15 -11.833 -23 -17.5s-16.333 -10.834 -25 -15.501c-10.667 -4.66699 -21.334 -9 -32.001 -13s-21.667 -7 -33 -9l-34 -4c-11.333 -1.33301 -22.666 -1.33301 -33.999 0c-10.667 1.33301 -21.167 3 -31.5 5
s-20.5 4.66699 -30.5 8c-20.667 7.33301 -39 16.333 -55 27c-8.66699 6 -16.834 12.167 -24.501 18.5s-15.167 13.5 -22.5 21.5c-14.667 15.333 -26.667 31.666 -36 48.999c-3.33301 5.33301 -6.16602 11.166 -8.49902 17.499s-4.83301 12.5 -7.5 18.5
c-1.33301 3.33301 -2.5 6.83301 -3.5 10.5s-2.16699 7.16699 -3.5 10.5c-3.33301 14 -5.33301 27.333 -6 40z" />
    <glyph glyph-name="d" unicode="d" horiz-adv-x="635" 
d="M311 -2c-36 0 -69.833 6.8291 -101.5 20.4961s-59.334 32.334 -83.001 56.001s-42.334 51.334 -56.001 83.001s-20.5 65.5 -20.5 101.5s6.83301 69.833 20.5 101.5s32.334 59.334 56.001 83.001s51.334 42.334 83.001 56.001s65.5 20.5 101.5 20.5c23.333 0 46 -3 68 -9
s42.667 -14.667 62 -26v4v113v47c0 19.333 6.66699 35.666 20 48.999s29.666 20 48.999 20c18.667 0 34.667 -6.66699 48 -20s20 -29.666 20 -48.999v-41v-110v-134v-112v-37c2 -5.33301 4 -11 6 -17s4 -11.667 6 -17l16 -47.5l16 -46.5
c3.33301 -8.66699 4.16602 -17.834 2.49902 -27.501s-4.83398 -18.167 -9.50098 -25.5c-9.33301 -15.333 -23 -25.666 -41 -30.999c-19.333 -5.33301 -37 -3 -53 7c-10 6 -18 14 -24 24c-2.66699 5.33301 -5 11 -7 17c-1.33301 2 -2.16602 4.16699 -2.49902 6.5
s-1.16602 4.83301 -2.49902 7.5c-23.333 -21.333 -49.666 -37.833 -78.999 -49.5s-61 -17.5 -95 -17.5zM223 346.996c-24 -25.333 -36 -54.666 -36 -87.999s12 -62.666 36 -87.999c25.333 -24 54.666 -36 87.999 -36s62.666 12 87.999 36c24 25.333 36 54.666 36 87.999
s-12 62.666 -36 87.999c-25.333 24 -54.666 36 -87.999 36s-62.666 -12 -87.999 -36z" />
    <glyph glyph-name="e" unicode="e" horiz-adv-x="534" 
d="M349 194l-37.9971 -27.5029l-38 -27.5c4.66699 -2 9.33398 -3 14.001 -3c12 -2 24.667 -2 38 0c8.66699 0.666992 18.667 3.33398 30 8.00098c10 4.66699 18.667 9.66699 26 15c2 1.33301 4 3 6 5l5 5c13.333 13.333 29.166 20 47.499 20s34.166 -6.66699 47.499 -20
s20 -29.166 20 -47.499s-6.66699 -34.166 -20 -47.499c-2.66699 -3.33301 -5.33398 -6.16602 -8.00098 -8.49902l-9 -7.5l-16 -12c-5.33301 -4 -10.666 -7.66699 -15.999 -11c-3.33301 -2 -6.83301 -3.83301 -10.5 -5.5s-7.16699 -3.16699 -10.5 -4.5
c-12.667 -6 -25 -11 -37 -15c-4 -1.33301 -8 -2.33301 -12 -3l-12 -2c-6.66699 -1.33301 -13.334 -2.33301 -20.001 -3l-21 -2h-17.5c-5.66699 0 -11.5 0.666992 -17.5 2c-10.667 1.33301 -21.167 2.83301 -31.5 4.5s-20.5 4.5 -30.5 8.5
c-9.33301 3.33301 -18.666 7.33301 -27.999 12s-18.333 10 -27 16c-8.66699 5.33301 -16.834 11.333 -24.501 18s-15.167 14 -22.5 22c-6.66699 7.33301 -13 15.166 -19 23.499s-11.667 17.166 -17 26.499c-3.33301 5.33301 -6.16602 11 -8.49902 17l-7.5 19
c-1.33301 3.33301 -2.5 6.83301 -3.5 10.5s-2.16699 7.5 -3.5 11.5c-1.33301 6.66699 -2.33301 13.167 -3 19.5s-1.66699 13.166 -3 20.499c-0.666992 4 -1 8 -1 12v12c0 42.667 10.667 83.334 32 122.001c2 3.33301 4 6.5 6 9.5s4 6.16699 6 9.5l12 15.5l12 14.5
c7.33301 7.33301 15 14.333 23 21s16.333 12.667 25 18c8.66699 6 17.667 11.167 27 15.5s19 8.16602 29 11.499c10 4 20.167 6.83301 30.5 8.5s20.833 3.16699 31.5 4.5c11.333 1.33301 22.666 1.33301 33.999 0l34 -4c11.333 -2 22.333 -5 33 -9s21 -8.66699 31 -14
c10 -4.66699 19.667 -10.167 29 -16.5s18 -13.166 26 -20.499c8.66699 -7.33301 16.5 -15.333 23.5 -24s13.833 -17.667 20.5 -27c4.66699 -7.33301 7.5 -15.666 8.5 -24.999s0.166992 -18.333 -2.5 -27c-3.33301 -11.333 -9 -21 -17 -29c-2 -2 -4.16699 -3.83301 -6.5 -5.5
l-7.5 -5.5c-6.66699 -5.33301 -13.334 -10.333 -20.001 -15l-21 -15l-50 -37zM230.003 346.997c-8 -6.66699 -15.335 -14 -22.002 -22c-2.66699 -4 -5.16699 -8.16699 -7.5 -12.5l-7.5 -13.5c-1.33301 -5.33301 -2.66602 -10.333 -3.99902 -15
s-2.66602 -9.66699 -3.99902 -15c-1.33301 -10 -1.33301 -19.667 0 -29l44 32l44 32l39 28.5l38 28.5c0 0.666992 -0.666992 1 -2 1c-10 4.66699 -20 7.33398 -30 8.00098c-10 1.33301 -20.667 1.33301 -32 0c-8.66699 -0.666992 -18.667 -3.33398 -30 -8.00098
c-7.33301 -3.33301 -16 -8.33301 -26 -15z" />
    <glyph glyph-name="f" unicode="f" horiz-adv-x="486" 
d="M118 2c-18.667 0 -34.666 6.66504 -47.999 19.998s-20 29.666 -20 48.999v48v116v133v101v24v9c0 7.33301 0.5 14.166 1.5 20.499s2.16699 13.166 3.5 20.499c1.33301 8 3.33301 15.333 6 22c3.33301 9.33301 7.16602 18.666 11.499 27.999s9.83301 18.333 16.5 27
c6.66699 10 14.667 20 24 30c4.66699 4.66699 9.5 9 14.5 13s10.167 7.66699 15.5 11c8.66699 6.66699 17.667 12.167 27 16.5s18.666 8.16602 27.999 11.499c7.33301 3.33301 14.666 5.33301 21.999 6c12.667 2.66699 26 4.66699 40 6h12.5
c4.33301 0 8.5 -0.333008 12.5 -1c7.33301 -1.33301 14.333 -2.33301 21 -3s13.334 -2 20.001 -4c14 -4 26.667 -9 38 -15c3.33301 -1.33301 6.83301 -3 10.5 -5l10.5 -6c8.66699 -6 17.167 -12.5 25.5 -19.5s15.833 -14.5 22.5 -22.5l12 -16c4 -5.33301 7.66699 -11 11 -17
c3.33301 -5.33301 6.33301 -11.166 9 -17.499l8 -19.5c2.66699 -12 2.66699 -24 0 -36c-2 -6 -4.33301 -11.667 -7 -17c-9.33301 -15.333 -23 -25.666 -41 -30.999s-35.667 -3 -53 7c-10 6 -18 14 -24 24c-0.666992 2 -1.66699 4.33301 -3 7
c-1.33301 4 -3.16602 8 -5.49902 12s-4.83301 7.66699 -7.5 11c-2.66699 2.66699 -5 5.16699 -7 7.5s-4.66699 4.83301 -8 7.5c-2.66699 2 -5.5 3.83301 -8.5 5.5l-9.5 5.5c-7.33301 2.66699 -14 4.33398 -20 5.00098c-8 0.666992 -15.333 0.666992 -22 0l-10.5 -2
c-3.66699 -0.666992 -7.16699 -1.66699 -10.5 -3l-9 -5.5l-9 -5.5l-15 -15c-1.33301 -3.33301 -3 -6.33301 -5 -9s-3.66699 -5.66699 -5 -9s-2.33301 -6.66602 -3 -9.99902s-1.66699 -6.66602 -3 -9.99902c-0.666992 -6.66699 -0.833984 -13 -0.500977 -19s0.5 -12 0.5 -18
v-34h7h96c18.667 0 34.834 -6.66699 48.501 -20s20.5 -29.666 20.5 -48.999c0 -18.667 -6.83301 -34.667 -20.5 -48s-29.834 -20 -48.501 -20h-62h-41v-64v-115v-49c0 -19.333 -6.66699 -35.666 -20 -48.999s-29.666 -20 -48.999 -20z" />
    <glyph glyph-name="g" unicode="g" horiz-adv-x="634" 
d="M57 190c-2.66699 12.667 -4.65918 26.0049 -5.99219 40.0049c-0.666992 4 -1 8 -1 12v12c0 4 0.166992 8 0.5 12s0.833008 7.66699 1.5 11c1.33301 7.33301 2.33301 14.166 3 20.499s2 12.833 4 19.5c2.66699 10 5.83398 19.833 9.50098 29.5s7.83398 19.167 12.501 28.5
s9.83398 18.166 15.501 26.499s11.834 16.166 18.501 23.499c10.667 12.667 21.334 23 32.001 31c8 6.66699 16.167 12.834 24.5 18.501s17.166 10.834 26.499 15.501s18.833 8.83398 28.5 12.501s19.5 6.5 29.5 8.5c14 3.33301 27.667 5.33301 41 6
c3.33301 0.666992 7 1 11 1h12h12c4 0 8 -0.333008 12 -1c6.66699 -1.33301 13.167 -2.33301 19.5 -3s13.166 -2 20.499 -4c10 -2.66699 19.667 -5.83398 29 -9.50098s18.666 -7.83398 27.999 -12.501c14.667 -7.33301 27.667 -15.666 39 -24.999
c1.33301 5.33301 2.66602 10.333 3.99902 15s2.66602 9.66699 3.99902 15c2.66699 8.66699 6.83398 16.667 12.501 24s12.334 13.166 20.001 17.499s16 7.16602 25 8.49902s18.167 0.666016 27.5 -2.00098c18 -5.33301 31.667 -16.166 41 -32.499
s11.666 -33.5 6.99902 -51.5c-1.33301 -4 -2.5 -8 -3.5 -12s-2.16699 -8 -3.5 -12l-13.5 -50.5l-13.5 -50.5v-3v-101v-148v-128v-36c0 -9.33301 -0.5 -18.833 -1.5 -28.5s-2.16699 -19.167 -3.5 -28.5c-2 -11.333 -4.83301 -22.333 -8.5 -33s-8.16699 -21 -13.5 -31
c-4.66699 -10.667 -10 -20.5 -16 -29.5s-12.667 -17.833 -20 -26.5s-15 -16.5 -23 -23.5s-16.667 -13.833 -26 -20.5c-9.33301 -7.33301 -18.833 -13.333 -28.5 -18s-19.834 -9.33398 -30.501 -14.001c-11.333 -4 -22.5 -7.16699 -33.5 -9.5
s-22.167 -4.16602 -33.5 -5.49902c-12.667 -1.33301 -25.167 -1.5 -37.5 -0.5s-24.5 2.5 -36.5 4.5c-13.333 2 -26 5.33301 -38 10s-23.667 9.66699 -35 15c-4 2.66699 -8.16699 5.16699 -12.5 7.5s-8.5 5.16602 -12.5 8.49902l-18 14c-6 4.66699 -11.667 9.66699 -17 15
c-13.333 13.333 -20 29.5 -20 48.5s6.66699 35.167 20 48.5c6.66699 6 14 10.833 22 14.5s16.667 5.5 26 5.5s18.166 -1.83301 26.499 -5.5s15.833 -8.5 22.5 -14.5c3.33301 -4 6.66602 -7 9.99902 -9c4.66699 -3.33301 9.16699 -6.33301 13.5 -9
s9.16602 -5.33398 14.499 -8.00098l15.5 -4l15.5 -4c11.333 -1.33301 22.666 -1.33301 33.999 0l15.5 4l15.5 4c5.33301 2.66699 10.166 5.33398 14.499 8.00098s8.83301 5.66699 13.5 9l12 10.5c4 3.66699 7.66699 7.5 11 11.5c5.33301 8 10.666 17.333 15.999 28
c4 9.33301 7 19.666 9 30.999c0.666992 7.33301 0.833984 14.833 0.500977 22.5s-0.5 15.167 -0.5 22.5v80c-2 -1.33301 -4.16699 -2.5 -6.5 -3.5s-4.83301 -2.16699 -7.5 -3.5c-9.33301 -4 -18.833 -7.83301 -28.5 -11.5s-19.834 -6.5 -30.501 -8.5
c-10 -2.66699 -20.333 -4.5 -31 -5.5s-21.667 -1.5 -33 -1.5l-20 2c-6.66699 0.666992 -13.334 1.66699 -20.001 3c-4 0.666992 -7.83301 1.16699 -11.5 1.5s-7.5 1.16602 -11.5 2.49902c-18.667 4.66699 -37.667 12.334 -57 23.001c-9.33301 4.66699 -18.166 10 -26.499 16
s-16.166 12.333 -23.499 19c-14.667 12 -28.334 27 -41.001 45c-4.66699 6 -8.83398 12 -12.501 18s-7.16699 12.667 -10.5 20c-4.66699 9.33301 -8.83398 18.833 -12.501 28.5s-6.5 19.5 -8.5 29.5zM238.008 354.005c-9.33301 -7.33301 -17.3311 -15.3359 -23.998 -24.0029
c-6.66699 -10 -12.334 -19.667 -17.001 -29c-4 -11.333 -7 -22.333 -9 -33c-1.33301 -12 -1.33301 -23.667 0 -35c2 -11.333 5 -22.666 9 -33.999c4.66699 -9.33301 10.334 -19 17.001 -29c3.33301 -4.66699 7 -8.83398 11 -12.501l13 -11.5
c10 -6.66699 19.667 -12.334 29 -17.001c11.333 -4 22.666 -7 33.999 -9c11.333 -1.33301 23 -1.33301 35 0c10.667 2 21.667 5 33 9c9.33301 4.66699 19 10.334 29 17.001l13 11.5c4 3.66699 7.66699 7.83398 11 12.501s6.33301 9.33398 9 14.001
s5.33398 9.66699 8.00098 15c4 11.333 7 22.666 9 33.999c0.666992 2.66699 1 5.33398 1 8.00098v9v9c0 2.66699 -0.333008 5.66699 -1 9c-2 10.667 -5 21.667 -9 33c-2.66699 5.33301 -5.33398 10.333 -8.00098 15s-5.66699 9.33398 -9 14.001
c-7.33301 8.66699 -15.333 16.667 -24 24c-4.66699 3.33301 -9.33398 6.33301 -14.001 9s-9.66699 5.33398 -15 8.00098c-11.333 4 -22.333 7 -33 9c-12 1.33301 -23.667 1.33301 -35 0c-11.333 -2 -22.666 -5 -33.999 -9c-5.33301 -2.66699 -10.333 -5.33398 -15 -8.00098
s-9.33398 -5.66699 -14.001 -9z" />
    <glyph glyph-name="h" unicode="h" horiz-adv-x="499" 
d="M437 427l11.9951 -15.501c4 -5 7.66699 -10.167 11 -15.5s6.16602 -11.166 8.49902 -17.499s4.83301 -12.5 7.5 -18.5c4 -10 6.83301 -20.167 8.5 -30.5s2.83398 -20.833 3.50098 -31.5c0.666992 -4.66699 0.833984 -9.33398 0.500977 -14.001
s-0.5 -9.33398 -0.5 -14.001v-121v-80c0 -19.333 -6.66699 -35.666 -20 -48.999s-29.333 -20 -48 -20c-19.333 0 -35.666 6.66699 -48.999 20s-20 29.666 -20 48.999v28v125v52v26c-1.33301 3.33301 -2.33301 6.5 -3 9.5s-1.66699 6.16699 -3 9.5
c-1.33301 2.66699 -2.83301 5.33398 -4.5 8.00098s-3.16699 5.33398 -4.5 8.00098c-2.66699 2.66699 -5 5.16699 -7 7.5s-4.33301 4.5 -7 6.5s-5.33398 3.83301 -8.00098 5.5s-5.66699 3.16699 -9 4.5c-7.33301 2.66699 -13.666 4.33398 -18.999 5.00098
c-2.66699 0.666992 -6 1 -10 1h-7h-6c-4.66699 0 -8.33398 -0.333008 -11.001 -1c-5.33301 -0.666992 -11.666 -2.33398 -18.999 -5.00098c-5.33301 -2.66699 -11 -6 -17 -10c-2.66699 -2 -5 -4.16699 -7 -6.5s-4 -4.83301 -6 -7.5s-3.83301 -5.33398 -5.5 -8.00098
s-3.16699 -5.33398 -4.5 -8.00098c-1.33301 -3.33301 -2.33301 -6.5 -3 -9.5s-1.66699 -6.16699 -3 -9.5v-30v-121v-80c0 -19.333 -6.66699 -35.666 -20 -48.999s-29.666 -20 -48.999 -20c-18.667 0 -34.667 6.66699 -48 20s-20 29.666 -20 48.999v47v127v39v4v50v122v125
v57c0 19.333 6.66699 35.666 20 48.999s29.333 20 48 20c19.333 0 35.666 -6.66699 48.999 -20s20 -29.666 20 -48.999v-50v-102l6 2c2 0.666992 4.33301 1.33398 7 2.00098c3.33301 1.33301 6.83301 2.33301 10.5 3s7.5 1.66699 11.5 3
c6.66699 1.33301 13.334 2.33301 20.001 3s13.667 1 21 1h6h7h9c2.66699 0 5.33398 -0.333008 8.00098 -1c6 -1.33301 11.833 -2.16602 17.5 -2.49902s11.167 -1.16602 16.5 -2.49902c8 -2 15.833 -4.66699 23.5 -8l22.5 -10c7.33301 -3.33301 14.333 -7.5 21 -12.5
l20 -15.5c8.66699 -6.66699 16.334 -14.334 23.001 -23.001z" />
    <glyph glyph-name="i" unicode="i" horiz-adv-x="325" 
d="M80 542c0.666992 1.33301 1 2.66602 1 3.99902s0.333008 2.66602 1 3.99902c-0.666992 -1.33301 -1 -2.66602 -1 -3.99902s-0.333008 -2.66602 -1 -3.99902zM228 592c-18.667 0 -34.667 6.66699 -48 20s-20 29.666 -20 48.999c0 18.667 6.66699 34.834 20 48.501
s29.333 20.5 48 20.5c19.333 0 35.666 -6.83301 48.999 -20.5s20 -29.834 20 -48.501c0 -19.333 -6.66699 -35.666 -20 -48.999s-29.666 -20 -48.999 -20zM314 379c0 -0.666992 0.166992 -1.33105 0.5 -1.99805s0.5 -1.33398 0.5 -2.00098v-7v-96v-130v-66
c0 -18.667 -6.83301 -34.834 -20.5 -48.501s-29.834 -20.5 -48.501 -20.5c-19.333 0 -35.666 6.83301 -48.999 20.5s-20 29.834 -20 48.501v7v96v130v66v3h-58c-19.333 0 -35.666 6.66699 -48.999 20s-20 29.666 -20 48.999c0 18.667 6.66699 34.834 20 48.501
s29.666 20.5 48.999 20.5c3.33301 0 6 -0.333008 8 -1h52c37.333 0 69 -13 95 -39c26.667 -26.667 40 -58.334 40 -95.001v-1v-1z" />
    <glyph glyph-name="j" unicode="j" horiz-adv-x="526" 
d="M339 598c-18.667 0 -34.667 6.66699 -48 20s-20 29.333 -20 48c0 19.333 6.66699 35.666 20 48.999s29.333 20 48 20c19.333 0 35.666 -6.66699 48.999 -20s20 -29.666 20 -48.999c0 -18.667 -6.66699 -34.667 -20 -48s-29.666 -20 -48.999 -20zM516 452
c0 -17.333 -6.16895 -32.667 -18.502 -46s-27.166 -20.666 -44.499 -21.999v-1h-59v-81c0 -21.333 0.166992 -41.666 0.5 -60.999s0.5 -32.333 0.5 -39v-126v-129v-85v-9c0 -2.66699 -0.333008 -5.66699 -1 -9c0 -7.33301 -0.5 -14.166 -1.5 -20.499
s-2.16699 -13.166 -3.5 -20.499c-1.33301 -6 -3.33301 -12.167 -6 -18.5l-8 -18.5c-3.33301 -6.66699 -7 -13 -11 -19c-7.33301 -11.333 -15.333 -21.333 -24 -30c-4.66699 -5.33301 -9.5 -10 -14.5 -14s-10.167 -7.66699 -15.5 -11
c-6.66699 -4.66699 -13.334 -8.33398 -20.001 -11.001c-5.33301 -3.33301 -11.166 -6.16602 -17.499 -8.49902s-12.5 -4.5 -18.5 -6.5c-12.667 -2.66699 -26 -4.66699 -40 -6h-13.5c-4.33301 0 -8.83301 0.333008 -13.5 1c-7.33301 1.33301 -14.5 2.5 -21.5 3.5
s-14.167 2.83301 -21.5 5.5l-21 8c-6.66699 2.66699 -13 6 -19 10c-10.667 7.33301 -21.667 16 -33 26c-13.333 13.333 -20 29.666 -20 48.999s6.66699 35.666 20 48.999c6 6.66699 13.167 11.667 21.5 15s17.166 5 26.499 5s18.166 -1.83301 26.499 -5.5
s15.833 -8.5 22.5 -14.5c0.666992 -0.666992 1.16699 -1.33398 1.5 -2.00098s0.833008 -1.33398 1.5 -2.00098c2 -1.33301 4 -2.5 6 -3.5s4 -2.16699 6 -3.5c2.66699 -0.666992 5 -1.16699 7 -1.5s4.33301 -0.833008 7 -1.5c4.66699 -0.666992 9.33398 -0.666992 14.001 0
c2.66699 0.666992 5 1.16699 7 1.5s4.33301 0.833008 7 1.5c2 1.33301 4 2.5 6 3.5s4 2.16699 6 3.5c4 4 7 7.33301 9 10s4.33301 6.66699 7 12c1.33301 2 2.16602 4.16699 2.49902 6.5s0.833008 4.5 1.5 6.5c0.666992 7.33301 0.833984 14.166 0.500977 20.499
s-0.5 12.833 -0.5 19.5v105v134v264c0.666992 18 4.33398 35.167 11.001 51.5s16.334 30.833 29.001 43.5c26.667 26.667 58.667 40 96 40h47h8c18.667 0 34.667 -6.66699 48 -20s20 -29.666 20 -48.999z" />
    <glyph glyph-name="k" unicode="k" horiz-adv-x="520" 
d="M507 522c5.33301 -18 3 -35.6641 -7 -52.9971c-0.666992 -0.666992 -1 -1.33398 -1 -2.00098l-21 -37.5l-20 -37.5l-63 -114c-0.666992 -1.33301 -1.16699 -2.5 -1.5 -3.5s-1.16602 -2.16699 -2.49902 -3.5l54 -96l19.5 -36c6.33301 -12 13.166 -24 20.499 -36
c10 -17.333 12.333 -35 7 -53c-5.33301 -17.333 -16 -31 -32 -41c-8 -4.66699 -16.5 -7.5 -25.5 -8.5s-17.833 -0.333008 -26.5 2s-16.667 6.16602 -24 11.499s-13.333 12 -18 20c-1.33301 2 -3.33301 5.66699 -6 11l-28 50l-28 51
c-3.33301 6.66699 -6.83301 13.167 -10.5 19.5l-11.5 19.5h-51h-44v-74v-38c0 -19.333 -6.66699 -35.666 -20 -48.999s-29.666 -20 -48.999 -20c-18.667 0 -34.667 6.66699 -48 20s-20 29.666 -20 48.999v4v60v111v132v129v97v38c0 18.667 6.66699 34.834 20 48.501
s29.333 20.5 48 20.5c19.333 0 35.666 -6.83301 48.999 -20.5s20 -29.834 20 -48.501v-4v-61v-110v-133v-14h23h53l11.5 21.5l11.5 21.5l63 114l16 30l16 29c4.66699 8 10.667 14.667 18 20s15.333 9.16602 24 11.499s17.5 3 26.5 2s17.5 -3.83301 25.5 -8.5
c16 -10 26.667 -23.667 32 -41z" />
    <glyph glyph-name="l" unicode="l" horiz-adv-x="198" 
d="M119 7c-19.333 0 -35.666 6.83301 -48.999 20.5s-20 29.834 -20 48.501v5v61v111v134v129v97v38c0 19.333 6.66699 35.666 20 48.999s29.666 20 48.999 20c18.667 0 34.834 -6.66699 48.501 -20s20.5 -29.666 20.5 -48.999v-4v-62v-111v-133v-129v-97v-39
c0 -18.667 -6.83301 -34.834 -20.5 -48.501s-29.834 -20.5 -48.501 -20.5z" />
    <glyph glyph-name="m" unicode="m" horiz-adv-x="945" 
d="M119 373c-18.667 0 -34.8301 6.66699 -48.4971 20s-20.5 29.666 -20.5 48.999c0 18.667 6.83301 34.834 20.5 48.501s29.834 20.5 48.501 20.5h5h54c34.667 0 64.667 -11.667 90 -35c2.66699 1.33301 5 2.66602 7 3.99902s4.33301 2.66602 7 3.99902
c5.33301 3.33301 11.166 6.33301 17.499 9l18.5 8c20 6.66699 40.667 10.667 62 12c5.33301 0.666992 10.166 0.833984 14.499 0.500977s9.16602 -0.5 14.499 -0.5c6.66699 0 13 -0.333008 19 -1s12.333 -1.66699 19 -3c4 -0.666992 7.83301 -1.16699 11.5 -1.5
s7.5 -1.16602 11.5 -2.49902c6 -2 12.167 -4.33301 18.5 -7s12.166 -5.33398 17.499 -8.00098c6.66699 -2.66699 13.334 -6.33398 20.001 -11.001c10 -6.66699 19.667 -14.334 29 -23.001c2.66699 2.66699 5 4.66699 7 6l15.5 11.5c5 3.66699 10.167 7.16699 15.5 10.5
c6 3.33301 12 6.33301 18 9l18 8c20 6.66699 40.667 10.667 62 12c5.33301 0.666992 10.166 0.833984 14.499 0.500977s9.16602 -0.5 14.499 -0.5c6.66699 0 13.167 -0.333008 19.5 -1s12.5 -1.66699 18.5 -3c4 -0.666992 8 -1.16699 12 -1.5s7.66699 -1.16602 11 -2.49902
c6.66699 -2 13 -4.33301 19 -7l18 -8c6.66699 -3.33301 13 -7 19 -11c8.66699 -6 16.834 -12.333 24.501 -19s14.834 -14 21.501 -22l12 -15.5c4 -5 7.66699 -10.167 11 -15.5s6.16602 -11.166 8.49902 -17.499s4.83301 -12.5 7.5 -18.5c4 -10 6.83301 -20.167 8.5 -30.5
s3.16699 -20.833 4.5 -31.5v-30v-121v-81c0 -19.333 -6.66699 -35.666 -20 -48.999s-29.666 -20 -48.999 -20c-18.667 0 -34.834 6.66699 -48.501 20s-20.5 29.666 -20.5 48.999v28v126v52v26c-1.33301 3.33301 -2.33301 6.5 -3 9.5s-1.66699 6.16699 -3 9.5
s-2.83301 6.33301 -4.5 9l-5.5 9c-2 2.66699 -4.16699 5 -6.5 7s-4.83301 4.33301 -7.5 7c-2.66699 1.33301 -5.33398 3 -8.00098 5s-5.66699 3.66699 -9 5s-6.5 2.33301 -9.5 3s-6.16699 1.33398 -9.5 2.00098h-21h-20
c-5.33301 -0.666992 -11.666 -2.33398 -18.999 -5.00098c-3.33301 -1.33301 -6.33301 -3 -9 -5s-5.33398 -3.66699 -8.00098 -5c-2.66699 -2.66699 -5.16699 -5 -7.5 -7s-4.5 -4.33301 -6.5 -7l-5.5 -9c-1.66699 -2.66699 -3.16699 -5.66699 -4.5 -9s-2.33301 -6.5 -3 -9.5
s-1.66699 -6.16699 -3 -9.5v-10v-20v-121v-81c0 -19.333 -6.66699 -35.666 -20 -48.999s-29.666 -20 -48.999 -20s-35.666 6.66699 -48.999 20s-20 29.666 -20 48.999v28v126v52v26c-1.33301 3.33301 -2.33301 6.5 -3 9.5s-1.66699 6.16699 -3 9.5s-2.83301 6.33301 -4.5 9
l-5.5 9c-2 2.66699 -4.16699 5 -6.5 7s-4.83301 4.33301 -7.5 7c-2.66699 1.33301 -5.33398 3 -8.00098 5s-5.66699 3.66699 -9 5c-7.33301 2.66699 -13.666 4.33398 -18.999 5.00098h-21h-20c-3.33301 -0.666992 -6.5 -1.33398 -9.5 -2.00098s-6.16699 -1.66699 -9.5 -3
s-6.33301 -3 -9 -5s-5.33398 -3.66699 -8.00098 -5c-2.66699 -2.66699 -5.16699 -5 -7.5 -7s-4.5 -4.33301 -6.5 -7l-5.5 -9c-1.66699 -2.66699 -3.16699 -5.66699 -4.5 -9s-2.33301 -6.5 -3 -9.5s-1.66699 -6.16699 -3 -9.5v-11v-24v-131v-66
c0 -19.333 -6.83301 -35.666 -20.5 -48.999s-29.834 -20 -48.501 -20c-19.333 0 -35.666 6.66699 -48.999 20s-20 29.666 -20 48.999v5v91v131v67v2h-51h-5v0z" />
    <glyph glyph-name="n" unicode="n" horiz-adv-x="634" 
d="M623 77c0 -19.333 -6.66699 -35.6689 -20 -49.002s-29.666 -20 -48.999 -20c-18.667 0 -34.834 6.66699 -48.501 20s-20.5 29.666 -20.5 48.999v28v126v52c0 4.66699 0.166992 9 0.5 13s0.166016 8.33301 -0.500977 13c-0.666992 3.33301 -1.33398 6.5 -2.00098 9.5
s-1.66699 6.16699 -3 9.5s-3 6.33301 -5 9s-3.66699 5.66699 -5 9l-14 14c-3.33301 1.33301 -6.33301 3 -9 5s-5.33398 3.66699 -8.00098 5c-3.33301 1.33301 -6.66602 2.33301 -9.99902 3l-10 2h-21h-20c-5.33301 -0.666992 -11.666 -2.33398 -18.999 -5.00098
c-3.33301 -1.33301 -6.33301 -3 -9 -5s-5.33398 -3.66699 -8.00098 -5c-2.66699 -2.66699 -5.16699 -5 -7.5 -7s-4.5 -4.33301 -6.5 -7l-5.5 -9c-1.66699 -2.66699 -3.16699 -5.66699 -4.5 -9c-2.66699 -7.33301 -4.33398 -13.666 -5.00098 -18.999
c-0.666992 -2.66699 -1 -6.33398 -1 -11.001v-24v-131v-66c0 -19.333 -6.66699 -35.666 -20 -48.999s-29.666 -20 -48.999 -20c-18.667 0 -34.834 6.66699 -48.501 20s-20.5 29.666 -20.5 48.999v5v91v131v67v2h-50h-5c-19.333 0 -35.666 6.66699 -48.999 20
s-20 29.666 -20 48.999c0 18.667 6.66699 34.834 20 48.501s29.666 20.5 48.999 20.5h4h54c17.333 0 33.666 -3 48.999 -9s29.333 -14.667 42 -26c4 2.66699 8.33301 5.33398 13 8.00098c6 3.33301 12 6.33301 18 9l18 8c20 6.66699 41 10.667 63 12
c4.66699 0.666992 9.33398 0.833984 14.001 0.500977s9.33398 -0.5 14.001 -0.5c6.66699 0 13.167 -0.333008 19.5 -1s12.833 -1.66699 19.5 -3c3.33301 -0.666992 7 -1.16699 11 -1.5s7.66699 -1.16602 11 -2.49902c6.66699 -2 13 -4.33301 19 -7l18 -8
c3.33301 -1.33301 6.5 -3 9.5 -5s6.16699 -4 9.5 -6c8.66699 -6 16.834 -12.333 24.501 -19s14.834 -14 21.501 -22l12 -15.5c4 -5 7.66699 -10.167 11 -15.5s6.33301 -11.166 9 -17.499s5 -12.5 7 -18.5c7.33301 -19.333 11.666 -40 12.999 -62
c0.666992 -5.33301 0.833984 -10.333 0.500977 -15s-0.5 -9.66699 -0.5 -15v-121v-81v0z" />
    <glyph glyph-name="o" unicode="o" horiz-adv-x="584" 
d="M574 262c0 -36 -6.83301 -70 -20.5 -102s-32.334 -60 -56.001 -84s-51.5 -42.833 -83.5 -56.5s-66 -20.5 -102 -20.5s-70 6.83301 -102 20.5s-59.833 32.5 -83.5 56.5s-42.334 52 -56.001 84s-20.5 66 -20.5 102s6.83301 69.833 20.5 101.5s32.334 59.5 56.001 83.5
s51.5 42.833 83.5 56.5s66 20.5 102 20.5s70 -6.83301 102 -20.5s59.833 -32.5 83.5 -56.5s42.334 -51.833 56.001 -83.5s20.5 -65.5 20.5 -101.5zM400 173c24.667 24.667 37 54.332 37 88.999c0 34 -12.333 63.333 -37 88c-24 24 -53.333 36 -88 36
c-33.333 0 -62.666 -12 -87.999 -36c-24 -25.333 -36 -54.666 -36 -87.999c0 -34 12 -63.667 36 -89c25.333 -24 54.666 -36 87.999 -36c34.667 0 64 12 88 36z" />
    <glyph glyph-name="p" unicode="p" horiz-adv-x="730" 
d="M448 545c37.333 0 72.499 -7.16699 105.499 -21.5s61.833 -33.833 86.5 -58.5s44.167 -53.5 58.5 -86.5s21.5 -68.167 21.5 -105.5c0 -38 -7.16699 -73.5 -21.5 -106.5s-33.833 -61.833 -58.5 -86.5s-53.5 -44.167 -86.5 -58.5s-68.167 -21.5 -105.5 -21.5
c-25.333 -0 -49.333 3.33301 -72 10s-44 15.667 -64 27v-55v-123v-89v-35c0 -19.333 -6.83301 -35.666 -20.5 -48.999s-29.834 -20 -48.501 -20c-19.333 0 -35.666 6.66699 -48.999 20s-20 29.666 -20 48.999v1v43v95v126v135v65h-1v186h-59
c-17.333 1.33301 -32.333 8.66602 -45 21.999s-19 29 -19 47c0 18.667 6.83301 34.834 20.5 48.501s29.834 20.5 48.501 20.5c4 0 6.66699 -0.333008 8 -1h47c36.667 0 68.667 -13 96 -39l3 -3c23.333 20 49.833 35.667 79.5 47s61.5 17 95.5 17zM542.999 177
c26.667 26.667 40 58.667 40 96c0 18 -3.33301 35.167 -10 51.5s-16.667 30.833 -30 43.5c-26 26 -57.667 39 -95 39s-69 -13 -95 -39c-13.333 -12.667 -23.333 -27.167 -30 -43.5s-10 -33.5 -10 -51.5c0 -37.333 13.333 -69.333 40 -96c26 -26 57.667 -39 95 -39
s69 13 95 39z" />
    <glyph glyph-name="q" unicode="q" horiz-adv-x="731" 
d="M721 459c0 -18 -6.33398 -33.668 -19.001 -47.001s-27.667 -20.666 -45 -21.999v-1h-59v-185h-1v-83v-135v-123v-90v-34c0 -19.333 -6.66699 -35.666 -20 -48.999s-29.666 -20 -48.999 -20c-18.667 0 -34.834 6.66699 -48.501 20s-20.5 29.666 -20.5 48.999v43v96v125v38
c-41.333 -24.667 -87 -37 -137 -37c-37.333 0 -72.5 7.16699 -105.5 21.5s-61.833 33.833 -86.5 58.5s-44.167 53.5 -58.5 86.5s-21.5 68.167 -21.5 105.5c0 38 7.16699 73.5 21.5 106.5s33.833 61.833 58.5 86.5s53.5 44.167 86.5 58.5s68.167 21.5 105.5 21.5
c34 0 66 -5.66699 96 -17s56.667 -27.333 80 -48l3 3c26.667 26.667 58.667 40 96 40h47h8c18.667 0 34.834 -6.66699 48.501 -20s20.5 -29.333 20.5 -48zM417.999 180.999c26 27.333 39 59 39 95c0 36.667 -13 68.667 -39 96c-27.333 26 -59.333 39 -96 39
c-37.333 0 -69 -13 -95 -39c-26 -27.333 -39 -59.333 -39 -96c0 -36 13 -67.667 39 -95c26 -26 57.667 -39 95 -39c36.667 0 68.667 13 96 39z" />
    <glyph glyph-name="r" unicode="r" horiz-adv-x="456" 
d="M148 378l-29 -0.00195312c-19.333 0 -35.666 6.66699 -48.999 20s-20 29.666 -20 48.999c0 18.667 6.66699 34.834 20 48.501s29.666 20.5 48.999 20.5h49h8c4.66699 -0.666992 9.33398 -1.16699 14.001 -1.5s9.33398 -1.16602 14.001 -2.49902s9.16699 -3 13.5 -5
s8.5 -3.66699 12.5 -5c7.33301 -3.33301 15 -8.33301 23 -15c1.33301 0.666992 2.16602 1.16699 2.49902 1.5s1.16602 0.833008 2.49902 1.5c3.33301 2 6.5 4 9.5 6s6.16699 4 9.5 6l18 8c6 2.66699 12.333 5 19 7c8.66699 2.66699 16 4.33398 22 5.00098
c7.33301 1.33301 14.166 2.33301 20.499 3s13.166 1 20.499 1c19.333 0.666992 35.666 -5.83301 48.999 -19.5s20 -29.834 20 -48.501c0 -19.333 -6.66699 -35.666 -20 -48.999s-29.666 -20 -48.999 -20c-1.33301 0 -3 -0.166992 -5 -0.5s-3.66699 -0.5 -5 -0.5l-10 -2
c-3.33301 -0.666992 -6.66602 -1.66699 -9.99902 -3s-6.16602 -3 -8.49902 -5s-5.16602 -3.66699 -8.49902 -5c-2.66699 -2.66699 -5.16699 -5 -7.5 -7s-4.5 -4.33301 -6.5 -7c-4 -6 -7.33301 -11.667 -10 -17c-1.33301 -3.33301 -2.33301 -6.5 -3 -9.5
s-1.33398 -6.16699 -2.00098 -9.5v-9v-50v-43v-87v-65c0 -19.333 -6.83301 -35.666 -20.5 -48.999s-29.834 -20 -48.501 -20c-19.333 0 -35.666 6.66699 -48.999 20s-20 29.666 -20 48.999v10v99v43v78v10v53v12v4h-15z" />
    <glyph glyph-name="s" unicode="s" horiz-adv-x="384" 
d="M189 342c0 -1.33301 0.169922 -2.33691 0.50293 -3.00391s0.5 -1.66699 0.5 -3c0.666992 -0.666992 1.66699 -2.33398 3 -5.00098c2 -0.666992 3.33301 -2 4 -4c2.66699 -1.33301 4.33398 -2.33301 5.00098 -3c1.33301 0 2.33301 -0.166992 3 -0.5s1.66699 -0.5 3 -0.5
c6.66699 0 11.667 -0.333008 15 -1c7.33301 -0.666992 14.5 -1.5 21.5 -2.5s13.833 -2.83301 20.5 -5.5l18.5 -8c6.33301 -2.66699 12.166 -5.66699 17.499 -9l15.5 -12c5 -4 9.83301 -8.33301 14.5 -13l12 -15.5c4 -5 7.66699 -10.5 11 -16.5
c3.33301 -5.33301 6.16602 -11.166 8.49902 -17.499s4.5 -12.5 6.5 -18.5c6 -26 6.33301 -52.667 1 -80c-2.66699 -11.333 -7.33398 -23.666 -14.001 -36.999c-2.66699 -6 -6 -11.5 -10 -16.5l-12 -15.5c-4.66699 -6 -10 -11.333 -16 -16l-15.5 -11.5
c-5 -3.66699 -10.5 -7.16699 -16.5 -10.5c-6 -2.66699 -12 -5.16699 -18 -7.5s-12.333 -4.16602 -19 -5.49902s-13 -2.33301 -19 -3s-12.333 -1 -19 -1s-13.167 0.333008 -19.5 1s-12.833 1.66699 -19.5 3c-4.66699 0.666992 -9.16699 1.66699 -13.5 3l-12.5 4
c-6.66699 2.66699 -13.334 5.5 -20.001 8.5s-13 6.5 -19 10.5l-16.5 12.5c-5.66699 4.33301 -10.834 9.16602 -15.501 14.499c-13.333 14.667 -20 31 -20 49c0 19.333 6.66699 35.666 20 48.999s29.666 20 48.999 20c8.66699 0 17.334 -1.66699 26.001 -5
s16 -8.33301 22 -15l4 -4l4 -4c1.33301 -1.33301 3 -2.33301 5 -3s3.66699 -1.66699 5 -3l12 -3h14c1.33301 0 3.33301 0.666992 6 2c2 0 3.66699 0.666992 5 2l5 5c1.33301 1.33301 2 3 2 5c1.33301 2.66699 2 4.33398 2 5.00098v8c0 1.33301 -0.666992 3.33301 -2 6
c0 0.666992 -0.666992 2.33398 -2 5.00098c-1.33301 0.666992 -2.16602 1.33398 -2.49902 2.00098s-1.16602 1.33398 -2.49902 2.00098c-0.666992 0.666992 -2.33398 1.66699 -5.00098 3c-0.666992 0.666992 -1.33398 1 -2.00098 1s-1.66699 0.333008 -3 1h-7
c-5.33301 0 -11 0.333008 -17 1s-12 1.66699 -18 3c-4.66699 0.666992 -10 2.33398 -16 5.00098l-16 6c-5.33301 2 -10.333 4.66699 -15 8c-10 6 -19 13 -27 21c-4 3.33301 -7.83301 7.16602 -11.5 11.499s-7.16699 8.83301 -10.5 13.5l-9 15c-4 8.66699 -8.33301 19 -13 31
c-2 6.66699 -3.33301 13.334 -4 20.001l-2 20c-0.666992 6.66699 -0.666992 13.167 0 19.5s1.66699 12.5 3 18.5c0.666992 6.66699 2.66699 14.334 6 23.001l8 18c2.66699 6 5.66699 11.667 9 17l12 15.5c4 5 8.33301 9.83301 13 14.5l16 11.5l16 10.5
c24.667 13.333 50.334 20 77.001 20h8c5.33301 -0.666992 11 -1.33398 17 -2.00098s12 -1.66699 18 -3c12.667 -2.66699 25.334 -7.33398 38.001 -14.001c8 -3.33301 15 -7.33301 21 -12l16 -12c5.33301 -4 10.333 -8.66699 15 -14c13.333 -14.667 20 -31 20 -49
c0 -19.333 -6.66699 -35.666 -20 -48.999s-29.666 -20 -48.999 -20c-8.66699 0 -17.334 1.66699 -26.001 5s-16 8.33301 -22 15l-4 4l-4 4c-1.33301 1.33301 -3 2.33301 -5 3s-3.66699 1.66699 -5 3l-12 3h-6h-3c-1.33301 0 -2.33301 -0.166992 -3 -0.5
s-1.66699 -0.5 -3 -0.5c-0.666992 -0.666992 -2.33398 -1.66699 -5.00098 -3c-0.666992 -2 -2 -3.33301 -4 -4c-1.33301 -2.66699 -2.33301 -4.33398 -3 -5.00098c0 -1.33301 -0.166992 -2.33301 -0.5 -3s-0.5 -1.66699 -0.5 -3v-9v0z" />
    <glyph glyph-name="t" unicode="t" horiz-adv-x="483" 
d="M423 235c18.667 -5.33301 32.3311 -15.9971 40.998 -31.9971c6 -11.333 9 -23 9 -35c0 -3.33301 -0.166992 -6.33301 -0.5 -9s-0.833008 -5.66699 -1.5 -9c-2.66699 -6 -5.16699 -12.167 -7.5 -18.5s-5.16602 -12.166 -8.49902 -17.499c-3.33301 -6 -7 -11.5 -11 -16.5
l-13 -15.5c-6 -8.66699 -13 -16.334 -21 -23.001s-16.333 -12.667 -25 -18c-5.33301 -4.66699 -12 -8.66699 -20 -12c-12.667 -6 -25 -11 -37 -15c-8.66699 -2.66699 -16.334 -4.33398 -23.001 -5.00098c-7.33301 -1.33301 -14.166 -2.33301 -20.499 -3
s-13.166 -1 -20.499 -1l-21 2c-6.66699 0.666992 -13.334 1.66699 -20.001 3c-8 1.33301 -15.333 3.33301 -22 6c-20.667 6 -39.334 15 -56.001 27c-5.33301 3.33301 -10.5 7 -15.5 11s-9.83301 8.33301 -14.5 13s-9 9.5 -13 14.5l-12 15.5
c-6.66699 8.66699 -12.167 17.667 -16.5 27s-8.16602 18.666 -11.499 27.999c-2.66699 5.33301 -5 12.666 -7 21.999c-1.33301 6.66699 -2.33301 13.334 -3 20.001l-2 21v10v23v102v134v116v50c0 18.667 6.66699 34.834 20 48.501s29.666 20.5 48.999 20.5
c18.667 0 34.834 -6.83301 48.501 -20.5s20.5 -29.834 20.5 -48.501v-34v-96h21h95c19.333 0 35.666 -6.83301 48.999 -20.5s20 -29.834 20 -48.501c0 -19.333 -6.66699 -35.666 -20 -48.999s-29.666 -20 -48.999 -20h-67h-49v-8v-111
c0 -8.66699 -0.166992 -17.167 -0.5 -25.5s-0.166016 -16.833 0.500977 -25.5c1.33301 -3.33301 2.33301 -6.83301 3 -10.5s1.66699 -7.16699 3 -10.5s2.83301 -6.33301 4.5 -9s3.5 -5.33398 5.5 -8.00098s4.16699 -5.16699 6.5 -7.5l7.5 -7.5
c3.33301 -1.33301 6.33301 -3 9 -5s5.66699 -3.66699 9 -5s6.66602 -2.33301 9.99902 -3l10 -2c6.66699 -1.33301 13.667 -1.33301 21 0l10.5 2c3.66699 0.666992 7.16699 1.66699 10.5 3s6.33301 3 9 5s5.33398 3.66699 8.00098 5l7.5 7.5
c2.33301 2.33301 4.5 4.83301 6.5 7.5c3.33301 4.66699 6.66602 10 9.99902 16c4.66699 11.333 10.334 20.333 17.001 27c2 2 4.16699 3.83301 6.5 5.5l7.5 5.5c17.333 10 35 12.333 53 7z" />
    <glyph glyph-name="u" unicode="u" horiz-adv-x="516" 
d="M407 36c-3.33301 -2.66699 -6.49219 -4.83496 -9.49219 -6.50195l-9.5 -5.5l-18 -8c-6 -2.66699 -12.333 -5 -19 -7c-8.66699 -2.66699 -16 -4.33398 -22 -5.00098c-7.33301 -1.33301 -14.166 -2.33301 -20.499 -3s-13.166 -1 -20.499 -1c-4.66699 0 -8 0.333008 -10 1
c-2 -0.666992 -5.33301 -1 -10 -1c-18.667 0 -36.334 2 -53.001 6c-8 2 -16 4.66699 -24 8l-23 10c-7.33301 4 -14.333 8.33301 -21 13s-13.334 9.66699 -20.001 15c-8 6 -16 13.667 -24 23c-8.66699 10.667 -16.334 21.334 -23.001 32.001
c-3.33301 5.33301 -6.16602 11 -8.49902 17l-7.5 19c-4 9.33301 -7 19.333 -9 30s-3.33301 21.334 -4 32.001c-0.666992 5.33301 -1 10.5 -1 15.5v15.5v121v81c0 19.333 6.66699 35.666 20 48.999s29.666 20 48.999 20s35.666 -6.66699 48.999 -20s20 -29.666 20 -48.999
v-27v-125v-52v-27c1.33301 -3.33301 2.33301 -6.66602 3 -9.99902s1.66699 -6.66602 3 -9.99902s2.83301 -6.33301 4.5 -9l5.5 -9l15 -15l9 -5.5c2.66699 -1.66699 5.66699 -3.16699 9 -4.5s6.66602 -2.33301 9.99902 -3s6.66602 -1.66699 9.99902 -3h11
c4.66699 0 8 -0.333008 10 -1c2 0.666992 5.33301 1 10 1h11c3.33301 1.33301 6.66602 2.33301 9.99902 3s6.66602 1.66699 9.99902 3s6.33301 2.83301 9 4.5l9 5.5l7.5 7.5c2.33301 2.33301 4.5 4.83301 6.5 7.5c2 3.33301 4 6.33301 6 9s3.66699 5.66699 5 9
c2.66699 7.33301 4.33398 14 5.00098 20c0.666992 5.33301 1 10.166 1 14.499v14.5v121v81c0 19.333 6.66699 35.666 20 48.999s29.666 20 48.999 20c18.667 0 34.834 -6.66699 48.501 -20s20.5 -29.666 20.5 -48.999v-49v-128v-39c0 -7.33301 -0.333008 -12.666 -1 -15.999
c-0.666992 -10.667 -1.83398 -21.334 -3.50098 -32.001s-4.83398 -21 -9.50098 -31c-2.66699 -6 -5.16699 -12 -7.5 -18s-5.16602 -11.667 -8.49902 -17c-3.33301 -6 -7 -11.5 -11 -16.5l-12 -15.5c-6.66699 -8 -13.834 -15.333 -21.501 -22s-15.834 -12.667 -24.501 -18z
" />
    <glyph glyph-name="v" unicode="v" horiz-adv-x="602" 
d="M557 508c16 -8.66699 26.668 -22.332 32.001 -40.999c3.33301 -12.667 3.33301 -25 0 -37c-1.33301 -2.66699 -2.5 -5.33398 -3.5 -8.00098s-2.16699 -5.33398 -3.5 -8.00098c-1.33301 -2 -2.16602 -4 -2.49902 -6s-1.16602 -4 -2.49902 -6l-16.5 -36
c-5.66699 -12 -11.167 -24.333 -16.5 -37l-25.5 -57l-24.5 -57l-27.5 -60.5l-27.5 -61.5c-1.33301 -3.33301 -2.83301 -6.66602 -4.5 -9.99902s-3.16699 -6.66602 -4.5 -9.99902c-1.33301 -2.66699 -2.33301 -5 -3 -7c-7.33301 -14.667 -17.5 -27.334 -30.5 -38.001
s-27.833 -18.667 -44.5 -24c-5.33301 -1.33301 -9.33301 -2 -12 -2c-6.66699 -1.33301 -12.334 -2 -17.001 -2h-4c-23.333 0 -44.5 6 -63.5 18s-33.5 27.667 -43.5 47l-2 4l-2 4l-17.5 40.5l-17.5 40.5l-27 61.5l-27 60.5l-21.5 49l-21.5 49l-8 19.5l-9 20.5
c-6 10 -9 21.333 -9 34c0 3.33301 0.166992 6.5 0.5 9.5s0.833008 6.16699 1.5 9.5c5.33301 18.667 16 32.334 32 41.001c17.333 10 35 12.333 53 7c12 -3.33301 22 -9.33301 30 -18c2 -2 3.83301 -4.16699 5.5 -6.5l5.5 -7.5c1.33301 -1.33301 2.16602 -3 2.49902 -5
s1.16602 -3.66699 2.49902 -5l16 -37l16 -36l24.5 -57l25.5 -57l26 -61.5l27 -60.5c0.666992 -0.666992 1 -1.66699 1 -3c5.33301 10.667 10.166 21.167 14.499 31.5s9.16602 21.166 14.499 32.499l27 60.5l27 61.5l21.5 48l21.5 49l18 39c6 10.667 14.333 19 25 25
c2.66699 1.33301 5.33398 2.5 8.00098 3.5s5.33398 2.16699 8.00098 3.5c18 5.33301 35.667 3 53 -7z" />
    <glyph glyph-name="w" unicode="w" horiz-adv-x="1006" 
d="M961 508c16 -8.66699 26.668 -22.3291 32.001 -40.9961c3.33301 -12.667 3.33301 -25 0 -37c-1.33301 -2.66699 -2.5 -5.33398 -3.5 -8.00098s-2.16699 -5.33398 -3.5 -8.00098c-0.666992 -2.66699 -2.33398 -6.66699 -5.00098 -12l-16 -36l-16 -37l-51 -114l-27 -60.5
l-27 -61.5c-1.33301 -3.33301 -2.83301 -6.66602 -4.5 -9.99902s-3.16699 -6.66602 -4.5 -9.99902c-1.33301 -2.66699 -2.33301 -5 -3 -7c-8 -14.667 -18.5 -27.334 -31.5 -38.001s-27.833 -18.667 -44.5 -24c-5.33301 -1.33301 -9 -2 -11 -2
c-3.33301 -0.666992 -6.33301 -1.16699 -9 -1.5s-5.66699 -0.5 -9 -0.5h-4c-23.333 0 -44.5 6 -63.5 18s-33.5 27.667 -43.5 47c-0.666992 1.33301 -1.16699 2.66602 -1.5 3.99902s-0.833008 2.66602 -1.5 3.99902l-36 81l-27 61.5l-27 60.5
c0 1.33301 -0.333008 2.33301 -1 3l-13.5 -32c-4.33301 -10.667 -9.16602 -21.334 -14.499 -32.001l-27 -60.5l-27 -61.5c-1.33301 -3.33301 -2.83301 -6.66602 -4.5 -9.99902s-3.16699 -6.66602 -4.5 -9.99902c-1.33301 -2.66699 -2.33301 -5 -3 -7
c-7.33301 -14.667 -17.5 -27.334 -30.5 -38.001s-27.833 -18.667 -44.5 -24h-1c-4 -1.33301 -7.66699 -2 -11 -2c-3.33301 -0.666992 -6.33301 -1.16699 -9 -1.5s-5.33398 -0.5 -8.00098 -0.5h-5c-23.333 0 -44.333 6 -63 18s-33 27.667 -43 47
c-2 2.66699 -3.33301 5.33398 -4 8.00098l-36 81l-26 61.5l-27 60.5l-21.5 49l-21.5 49c-3.33301 6.66699 -6.33301 13.167 -9 19.5s-5.33398 13.166 -8.00098 20.499c-6.66699 9.33301 -10 20.666 -10 33.999c0.666992 3.33301 1.16699 6.5 1.5 9.5
s0.833008 6.16699 1.5 9.5c2 8.66699 5.83301 16.5 11.5 23.5s12.167 12.833 19.5 17.5c17.333 10 35 12.333 53 7c11.333 -2.66699 21.666 -8.66699 30.999 -18c2 -2 3.83301 -4.16699 5.5 -6.5l5.5 -7.5c0.666992 -1.33301 1.33398 -3 2.00098 -5
s1.33398 -3.66699 2.00098 -5l16 -37l16 -36l25.5 -57l24.5 -57l27 -61.5l27 -60.5c0 -0.666992 0.166992 -1.16699 0.5 -1.5s0.5 -0.833008 0.5 -1.5l14 31.5l14 32.5l27.5 60.5l27.5 61.5l21.5 48l21.5 49c1.33301 4 3 8 5 12l6 12
c5.33301 17.333 15.666 30.666 30.999 39.999c7.33301 4.66699 15 7.33398 23 8.00098c0.666992 0.666992 1.33398 1 2.00098 1h1h1h1h1h1h1h1h1h1h1h1h1h1h1h1h1h1h1h1h1l1 -1c8 -0.666992 16 -3.33398 24 -8.00098c7.33301 -4.66699 13.833 -10.5 19.5 -17.5
s9.5 -14.833 11.5 -23.5c5.33301 -11.333 10.333 -22.5 15 -33.5s9.66699 -22.167 15 -33.5l25 -57l25 -57l27 -61.5l27 -60.5c0 -1.33301 0.333008 -2.33301 1 -3l14 31.5l14 32.5l27 60.5l27 61.5l21.5 48l21.5 49l18 39c6 10.667 14.333 19 25 25
c2.66699 1.33301 5.33398 2.5 8.00098 3.5s5.33398 2.16699 8.00098 3.5c9.33301 2.66699 18.666 3.33398 27.999 2.00098s17.666 -4.33301 24.999 -9z" />
    <glyph glyph-name="x" unicode="x" horiz-adv-x="439" 
d="M378 174l20.9951 -36.9932l20 -37c10 -17.333 12.333 -35 7 -53c-5.33301 -18.667 -16 -32.334 -32 -41.001c-8 -4.66699 -16.5 -7.5 -25.5 -8.5s-17.833 -0.5 -26.5 1.5s-16.667 5.83301 -24 11.5s-13.333 12.5 -18 20.5c-3.33301 5.33301 -6.5 11 -9.5 17
s-6.16699 11.667 -9.5 17l-21 37.5l-20 37.5c-3.33301 -6.66699 -6.83301 -13 -10.5 -19l-10.5 -18l-20 -36.5l-20 -36.5c-9.33301 -16.667 -23.5 -27.334 -42.5 -32.001s-36.5 -2.33398 -52.5 6.99902c-7.33301 4.66699 -13.833 10.5 -19.5 17.5s-9.5 14.833 -11.5 23.5
c-5.33301 18 -3 35.667 7 53c0.666992 1.33301 1.33398 2.83301 2.00098 4.5s1.33398 3.16699 2.00098 4.5l28 49.5l28 50.5c3.33301 6.66699 6.83301 13.167 10.5 19.5l11.5 19.5l-21 38l-21 38l-40 74c-10 17.333 -12.333 35 -7 53c2 8.66699 5.83301 16.5 11.5 23.5
s12.167 12.833 19.5 17.5c16 9.33301 33.5 11.666 52.5 6.99902s33.167 -15.334 42.5 -32.001c3.33301 -5.33301 6.33301 -11 9 -17s5.66699 -11.667 9 -17l21 -38.5l21 -37.5l10.5 18.5c3.66699 6.33301 7.16699 12.833 10.5 19.5l20 36.5l20 36.5
c4.66699 8 10.667 14.667 18 20s15.333 9.16602 24 11.499s17.5 3 26.5 2s17.5 -3.83301 25.5 -8.5c16 -8.66699 26.667 -22.334 32 -41.001c4.66699 -18 2.33398 -36 -6.99902 -54c-1.33301 -1.33301 -2.16602 -2.83301 -2.49902 -4.5s-1.16602 -3.16699 -2.49902 -4.5
l-28 -51l-28 -51c-3.33301 -6.66699 -6.83301 -13.167 -10.5 -19.5l-10.5 -18.5l21 -37.5z" />
    <glyph glyph-name="y" unicode="y" horiz-adv-x="552" 
d="M507 492c16 -9.33301 26.6641 -23.3369 31.9971 -42.0039c2.66699 -12 2.66699 -24 0 -36l-3.5 -8.5l-3.5 -8.5c-2.66699 -6.66699 -5.33398 -13 -8.00098 -19s-5.33398 -12.333 -8.00098 -19l-19.5 -42.5l-18.5 -43.5l-51 -114l-27 -62.5l-27 -61.5l-25 -57l-25 -56
l-18 -41.5l-18 -40.5c-2.66699 -5.33301 -5 -10.666 -7 -15.999s-4.33301 -10.666 -7 -15.999c-5.33301 -10 -13.666 -18.333 -24.999 -25c-2.66699 -1.33301 -5.33398 -2.5 -8.00098 -3.5s-5.33398 -2.16699 -8.00098 -3.5
c-9.33301 -2.66699 -18.666 -3.33398 -27.999 -2.00098s-17.666 4.33301 -24.999 9c-16 8.66699 -26.667 22.334 -32 41.001c-3.33301 12 -3.33301 24.333 0 37c1.33301 2.66699 2.5 5.33398 3.5 8.00098s2.16699 5.33398 3.5 8.00098v1l8 18.5l8 18.5l19.5 43
c6.33301 14 12.5 28.333 18.5 43l9.5 21.5l9.5 21.5l-18.5 39.5l-19.5 39.5l-57 120l-25.5 53l-25.5 53c-3.33301 8 -7 15.833 -11 23.5s-7.66699 15.167 -11 22.5c-6 10.667 -9 22.334 -9 35.001c0 3.33301 0.166992 6.33301 0.5 9s0.833008 5.66699 1.5 9
c5.33301 18.667 16 32.667 32 42c17.333 10 35 12.333 53 7c12 -4 22 -10 30 -18c2 -2.66699 4 -5 6 -7s3.66699 -4.33301 5 -7s2.66602 -5.16699 3.99902 -7.5s2.66602 -5.16602 3.99902 -8.49902c12.667 -28 26.334 -56.333 41.001 -85l57 -120
c2.66699 -5.33301 5.33398 -11 8.00098 -17s5.33398 -11.667 8.00098 -17c2.66699 5.33301 5 10.333 7 15s4 9.66699 6 15l25 56l25 57l18 41l18 41c2.66699 5.33301 5 10.666 7 15.999s4.33301 10.666 7 15.999c6 10 14.333 18.333 25 25
c2.66699 1.33301 5.33398 2.33301 8.00098 3s5.33398 1.66699 8.00098 3c18.667 5.33301 36.334 3.33301 53.001 -6z" />
    <glyph glyph-name="z" unicode="z" horiz-adv-x="483" 
d="M404 135c18.667 0 34.833 -6.66504 48.5 -19.998s20.5 -29.666 20.5 -48.999s-6.83301 -35.666 -20.5 -48.999s-29.834 -20 -48.501 -20h-2h-83h-131h-68c-15.333 0 -29.333 4.66699 -42 14s-21 21.666 -25 36.999c-3.33301 12 -3.33301 24 0 36
c2.66699 11.333 8.66699 21.666 18 30.999c5.33301 7.33301 11 14.666 17 21.999s11.667 14.666 17 21.999l35.5 45.5l35.5 45.5l41 53.5l41 52.5c1.33301 1.33301 2.33301 2.5 3 3.5s1.33398 2.16699 2.00098 3.5h-74h-69c-19.333 0 -35.666 6.66699 -48.999 20
s-20 29.666 -20 48.999s6.66699 35.666 20 48.999s29.666 20 48.999 20h1h83h131h68c15.333 0 29.333 -4.66699 42 -14s21 -21.666 25 -36.999c2.66699 -12 2.66699 -24 0 -36c-2.66699 -11.333 -8.66699 -21.666 -18 -30.999l-17.5 -22l-16.5 -22l-35.5 -45.5l-35.5 -45.5
l-41 -53l-41 -53c-2 -2 -3.66699 -4.33301 -5 -7h75h69v0z" />
    <glyph glyph-name="braceleft" unicode="{" horiz-adv-x="397" 
d="M318 142c19.333 0 35.6729 -6.83301 49.0059 -20.5s20 -30.167 20 -49.5s-6.66699 -35.666 -20 -48.999s-29.666 -20 -48.999 -20h-101h-6c-19.333 0 -35.833 6.66699 -49.5 20s-20.5 29.666 -20.5 48.999c0 25.333 0.166992 50.5 0.5 75.5
s0.166016 50.167 -0.500977 75.5v15c0 4.66699 -0.333008 9.66699 -1 15l-3.5 14.5c-1 4.33301 -2.5 9.16602 -4.5 14.499c-0.666992 2 -2.33398 5 -5.00098 9l-2 2c-3.33301 0 -5.66602 0.333008 -6.99902 1c-4.66699 0 -10.334 0.666992 -17.001 2l-9 3.5
c-2.66699 1 -5.33398 2.16699 -8.00098 3.5c-1.33301 1.33301 -2.5 2.16602 -3.5 2.49902s-2.16699 1.16602 -3.5 2.49902h-1c0 0.666992 -0.333008 1 -1 1c-3.33301 2.66699 -6.16602 5.66699 -8.49902 9s-4.83301 6.66602 -7.5 9.99902c-1.33301 2.66699 -2.33301 5 -3 7
c-0.666992 0 -1 0.333008 -1 1l-3 9c-1.33301 6.66699 -2 12.334 -2 17.001v1v1c0 4.66699 0.666992 10.334 2 17.001l3 9l1 1c0.666992 2 1.66699 4.33301 3 7c2.66699 4.66699 6.33398 9.33398 11.001 14.001l4 4h1c0 0.666992 0.333008 1 1 1l1 1l1 1
c0.666992 0 1 0.333008 1 1h1l1 1h1v1l2 1c2.66699 1.33301 5.33398 2.5 8.00098 3.5l9 3.5c3.33301 0.666992 6.16602 1.16699 8.49902 1.5s5.16602 0.5 8.49902 0.5c1.33301 0 2.16602 0.166992 2.49902 0.5s1.16602 0.5 2.49902 0.5h3c0.666992 0 1 0.166992 1 0.5
s0.333008 0.5 1 0.5c1.33301 1.33301 2.16602 2.83301 2.49902 4.5s1.16602 3.16699 2.49902 4.5c1.33301 4.66699 2.5 9.16699 3.5 13.5l3.5 14.5c0.666992 7.33301 1 14.333 1 21v21v49v81v9c0 18.667 6.83301 34.834 20.5 48.501s30.167 20.5 49.5 20.5h100h7
c19.333 0 35.666 -6.83301 48.999 -20.5s20 -29.834 20 -48.501c0 -19.333 -6.66699 -35.833 -20 -49.5s-29.666 -20.5 -48.999 -20.5h-38v-82c0 -11.333 -0.666992 -22.5 -2 -33.5s-3 -22.167 -5 -33.5c-1.33301 -9.33301 -3.66602 -18.333 -6.99902 -27l-10 -26
c-1.33301 -3.33301 -2.83301 -6.33301 -4.5 -9l-5.5 -9c2 -2.66699 3.83301 -5.33398 5.5 -8.00098s3.16699 -5.66699 4.5 -9c3.33301 -9.33301 6.66602 -18.166 9.99902 -26.499s5.66602 -17.166 6.99902 -26.499c2 -11.333 3.66699 -22.5 5 -33.5s2 -22.167 2 -33.5v-83
h31h7z" />
    <glyph glyph-name="bar" unicode="|" horiz-adv-x="198" 
d="M119 721c19.333 0 35.666 -6.66699 48.999 -20s20 -29.666 20 -48.999v-5v-63v-112v-134v-130v-98v-38c0 -19.333 -6.66699 -35.666 -20 -48.999s-29.666 -20 -48.999 -20s-35.666 6.66699 -48.999 20s-20 29.666 -20 48.999v5v63v112v134v130v97v39
c0 19.333 6.66699 35.666 20 48.999s29.666 20 48.999 20z" />
    <glyph glyph-name="braceright" unicode="}" horiz-adv-x="397" 
d="M126 142h31.0078v83c0 11.333 0.666992 22.5 2 33.5s3 22.167 5 33.5c1.33301 9.33301 3.66602 18.166 6.99902 26.499s6.66602 17.166 9.99902 26.499c1.33301 3.33301 2.83301 6.33301 4.5 9s3.5 5.33398 5.5 8.00098l-5.5 9c-1.66699 2.66699 -3.16699 5.66699 -4.5 9
l-10 26c-3.33301 8.66699 -5.66602 17.667 -6.99902 27c-2 11.333 -3.66699 22.5 -5 33.5s-2 22.167 -2 33.5v82h-38c-19.333 0 -35.666 6.83301 -48.999 20.5s-20 30.167 -20 49.5c0 18.667 6.66699 34.834 20 48.501s29.666 20.5 48.999 20.5h7h100
c19.333 0 35.833 -6.83301 49.5 -20.5s20.5 -29.834 20.5 -48.501v-9v-81v-49v-21c0 -6.66699 0.333008 -13.667 1 -21l3.5 -14.5c1 -4.33301 2.16699 -8.83301 3.5 -13.5c1.33301 -1.33301 2.16602 -2.83301 2.49902 -4.5s1.16602 -3.16699 2.49902 -4.5
c0.666992 0 1 -0.166992 1 -0.5s0.333008 -0.5 1 -0.5h3c1.33301 0 2.16602 -0.166992 2.49902 -0.5s1.16602 -0.5 2.49902 -0.5c3.33301 0 6.16602 -0.166992 8.49902 -0.5s5.16602 -0.833008 8.49902 -1.5l9 -3.5c2.66699 -1 5.33398 -2.16699 8.00098 -3.5l2 -1v-1h1
l1 -1h1c0 -0.666992 0.333008 -1 1 -1l1 -1l1 -1c0.666992 0 1 -0.333008 1 -1h1l4 -4c4 -4.66699 7.66699 -9.33398 11 -14.001c1.33301 -2.66699 2.33301 -5 3 -7l1 -1l3 -9c1.33301 -6.66699 2 -12.334 2 -17.001v-1v-1c0 -4.66699 -0.666992 -10.334 -2 -17.001l-3 -9
c0 -0.666992 -0.333008 -1 -1 -1c-0.666992 -2 -1.66699 -4.33301 -3 -7c-2.66699 -3.33301 -5.16699 -6.66602 -7.5 -9.99902s-5.16602 -6.33301 -8.49902 -9c-0.666992 0 -1 -0.333008 -1 -1h-1c-1.33301 -1.33301 -2.5 -2.16602 -3.5 -2.49902
s-2.16699 -1.16602 -3.5 -2.49902c-2.66699 -1.33301 -5.33398 -2.5 -8.00098 -3.5l-9 -3.5c-6.66699 -1.33301 -12.334 -2 -17.001 -2c-1.33301 -0.666992 -3.66602 -1 -6.99902 -1l-2 -2c-2.66699 -4 -4.33398 -7 -5.00098 -9c-2 -5.33301 -3.5 -10.166 -4.5 -14.499
l-3.5 -14.5c-0.666992 -5.33301 -1 -10.333 -1 -15v-15c-0.666992 -25.333 -0.833984 -50.5 -0.500977 -75.5s0.5 -50.167 0.5 -75.5c0 -19.333 -6.83301 -35.666 -20.5 -48.999s-30.167 -20 -49.5 -20h-6h-101c-19.333 0 -35.666 6.66699 -48.999 20s-20 29.666 -20 48.999
s6.66699 35.833 20 49.5s29.666 20.5 48.999 20.5h7z" />
    <glyph glyph-name="exclamdown" unicode="&#xa1;" horiz-adv-x="238" 
d="M139 0c-24.667 0 -45.6631 8.66699 -62.9961 26s-26 38.333 -26 63v42c0 5.33301 0.333008 9.33301 1 12v4v8c0.666992 2 1 5 1 9c1.33301 17.333 2.33301 35 3 53s1.66699 36 3 54l4 65l4 65c0.666992 10.667 1.16699 21.167 1.5 31.5s1.16602 21.166 2.49902 32.499
c0 12 3 23.667 9 35c2 2 3.83301 4.16699 5.5 6.5l5.5 7.5c13.333 13.333 29.666 20 48.999 20s35.666 -6.66699 48.999 -20c9.33301 -9.33301 15.333 -19.666 18 -30.999c0.666992 -3.33301 1.16699 -6.33301 1.5 -9s0.5 -5.66699 0.5 -9
c0.666992 -3.33301 1 -6.33301 1 -9v-9c1.33301 -17.333 2.5 -35 3.5 -53s2.16699 -36 3.5 -54c1.33301 -21.333 2.5 -43 3.5 -65s2.16699 -43.667 3.5 -65c1.33301 -10.667 2.16602 -21.167 2.49902 -31.5s0.833008 -20.833 1.5 -31.5v-4
c0.666992 -2.66699 1 -6.66699 1 -12v-42c0 -24.667 -8.66699 -45.667 -26 -63s-38.333 -26 -63 -26zM136.004 594c-20.667 0 -38.334 7.33301 -53.001 22s-22 32.667 -22 54c0 20.667 7.33301 38.334 22 53.001s32.334 22 53.001 22s38.5 -7.33301 53.5 -22
s22.5 -32.334 22.5 -53.001c0 -21.333 -7.5 -39.333 -22.5 -54s-32.833 -22 -53.5 -22z" />
    <glyph glyph-name="cent" unicode="&#xa2;" horiz-adv-x="504" 
d="M332 -69c0 -12.667 -4.50195 -23.4971 -13.502 -32.4971s-20.167 -13.5 -33.5 -13.5c-12.667 0 -23.5 4.5 -32.5 13.5s-13.5 19.833 -13.5 32.5v26v47c-5.33301 1.33301 -9 2.33301 -11 3c-9.33301 2 -16.666 4.33301 -21.999 7
c-6 3.33301 -12.167 6.16602 -18.5 8.49902s-12.166 5.16602 -17.499 8.49902c-7.33301 4 -13.666 8.33301 -18.999 13l-15.5 11.5c-5 3.66699 -9.83301 8.16699 -14.5 13.5c-2.66699 2.66699 -5.16699 5.33398 -7.5 8.00098l-7.5 9l-12 15.5c-4 5 -7.66699 10.167 -11 15.5
c-2 3.33301 -3.83301 6.83301 -5.5 10.5s-3.16699 7.16699 -4.5 10.5l-8 18c-2.66699 6 -4.66699 12.333 -6 19c-1.33301 4 -2.33301 7.83301 -3 11.5l-2 11.5c-1.33301 7.33301 -2.33301 14.166 -3 20.499s-1 13.166 -1 20.499v2v1c0 7.33301 0.333008 14.333 1 21
s1.66699 13.667 3 21l2 10.5c0.666992 3.66699 1.66699 7.16699 3 10.5c2 9.33301 4.33301 16.666 7 21.999l8 18.5c2.66699 6.33301 5.66699 12.166 9 17.499c2 3.33301 4 6.5 6 9.5s4 6.16699 6 9.5l12 15.5c4 5 8.33301 9.83301 13 14.5
c3.33301 2.66699 6.16602 5.16699 8.49902 7.5s5.16602 4.83301 8.49902 7.5l16 12c5.33301 4 10.666 7.66699 15.999 11c6.66699 4 13.334 7.33301 20.001 10s13 5.33398 19 8.00098s12.333 4.66699 19 6l12 3v42v36c0 12.667 4.5 23.5 13.5 32.5s19.833 13.5 32.5 13.5
c13.333 0 24.5 -4.5 33.5 -13.5s13.5 -19.833 13.5 -32.5v-26v-50c1.33301 0 2.33301 -0.333008 3 -1c9.33301 -1.33301 18 -3.33301 26 -6c7.33301 -2 14.166 -4.33301 20.499 -7s12.833 -5.66699 19.5 -9c3.33301 -2 7 -4 11 -6s7.66699 -4.33301 11 -7
c9.33301 -6.66699 18.333 -13.5 27 -20.5s16.667 -15.167 24 -24.5c8.66699 -9.33301 14.334 -19.333 17.001 -30c0.666992 -3.33301 1.16699 -6.5 1.5 -9.5s0.833008 -6.16699 1.5 -9.5c0 -9.33301 -1.83301 -18.166 -5.5 -26.499s-8.5 -15.833 -14.5 -22.5
c-13.333 -13.333 -30 -20 -50 -20c-12.667 0 -24.334 3 -35.001 9c-2 2 -4.16699 3.83301 -6.5 5.5l-7.5 5.5c-5.33301 7.33301 -12.666 15 -21.999 23c-3.33301 2.66699 -6.83301 5 -10.5 7l-10.5 6v-14v-136v-41l10.5 6c3.66699 2 7.16699 4.33301 10.5 7
c9.33301 8 16.666 15.667 21.999 23c9.33301 9.33301 19.666 15.333 30.999 18l18 3c19.333 0 36 -7 50 -21c6 -6.66699 10.833 -14.167 14.5 -22.5s5.5 -17.166 5.5 -26.499c0 -12.667 -3.33301 -24.334 -10 -35.001c-1.33301 -2 -3 -4.16699 -5 -6.5
s-3.66699 -4.83301 -5 -7.5c-7.33301 -8.66699 -15.166 -16.5 -23.499 -23.5s-17.166 -13.833 -26.499 -20.5c-3.33301 -2.66699 -7 -5.16699 -11 -7.5s-7.66699 -4.16602 -11 -5.49902c-6.66699 -3.33301 -13.167 -6.33301 -19.5 -9s-13.166 -5.33398 -20.499 -8.00098
c-4 -1.33301 -8.16699 -2.33301 -12.5 -3s-8.83301 -1.66699 -13.5 -3c-2 0 -3.33301 -0.333008 -4 -1v-35v-36zM209.998 177.003c2.66699 -3.33301 5.49902 -6.5 8.49902 -9.5l9.5 -9.5c2 -1.33301 4 -2.5 6 -3.5s3.66699 -2.16699 5 -3.5v13v136v30
c-1.33301 -1.33301 -3 -2.5 -5 -3.5s-4 -2.16699 -6 -3.5c-3.33301 -3.33301 -6.5 -6.33301 -9.5 -9s-5.83301 -5.66699 -8.5 -9l-7.5 -11.5c-2.33301 -3.66699 -4.16602 -7.5 -5.49902 -11.5c-2 -4.66699 -3.5 -9 -4.5 -13s-2.16699 -8.33301 -3.5 -13v-14v-1v-2v-14
c1.33301 -4 2.5 -8.16699 3.5 -12.5s2.5 -8.83301 4.5 -13.5c2.66699 -6.66699 7 -14 13 -22z" />
    <glyph glyph-name="sterling" unicode="&#xa3;" horiz-adv-x="579" 
d="M203 101c-1.33301 -0.666992 -2.49219 -1.00391 -3.49219 -1.00391s-2.16699 -0.333008 -3.5 -1l-4 -2c-0.666992 -0.666992 -1.16699 -1.33398 -1.5 -2.00098s-1.16602 -1.33398 -2.49902 -2.00098c-0.666992 -1.33301 -1.16699 -2.16602 -1.5 -2.49902
s-0.833008 -1.16602 -1.5 -2.49902c-2.66699 -10 -8.33398 -19.333 -17.001 -28c-2 -1.33301 -4.16699 -3 -6.5 -5s-4.83301 -3.66699 -7.5 -5c-16 -10 -33.667 -12.333 -53 -7c-8.66699 2 -16.667 5.83301 -24 11.5s-13.333 12.167 -18 19.5c-6 10.667 -9 22.334 -9 35.001
c0.666992 3.33301 1.16699 6.5 1.5 9.5s0.5 6.16699 0.5 9.5c3.33301 7.33301 6.5 14.666 9.5 21.999s6.83301 14 11.5 20l10 12.5c3.33301 4.33301 7 8.5 11 12.5c6 6 14 12.333 24 19c3.33301 2.66699 7.66602 5 12.999 7c2 1.33301 3.83301 2.33301 5.5 3
s3.5 1.33398 5.5 2.00098v115v126v40v23c1.33301 14.667 3.33301 28.334 6 41.001c1.33301 6.66699 3.33301 13 6 19l8 18c4 9.33301 9 18.333 15 27s12.333 16.667 19 24c2.66699 3.33301 5.33398 6.16602 8.00098 8.49902s5.33398 4.83301 8.00098 7.5l16 12
c5.33301 4 10.666 7.66699 15.999 11c6 3.33301 12 6.33301 18 9s12 5 18 7c8 3.33301 15.667 5.33301 23 6c14.667 3.33301 28 5 40 5c7.33301 0 14.5 -0.333008 21.5 -1s14.167 -1.66699 21.5 -3c8 -1.33301 16 -3.33301 24 -6l19.5 -8
c6.33301 -2.66699 12.166 -5.66699 17.499 -9c6 -3.33301 11.667 -7 17 -11l16 -12c3.33301 -2.66699 6.33301 -5.33398 9 -8.00098l9 -9l12.5 -16c4.33301 -5.33301 8.16602 -10.666 11.499 -15.999c3.33301 -6 6.33301 -12.167 9 -18.5l8 -19.5
c2.66699 -12 2.66699 -24 0 -36l-3.5 -9c-1 -2.66699 -2.16699 -5.33398 -3.5 -8.00098c-8.66699 -16 -22.334 -26.667 -41.001 -32s-36.667 -3 -54 7c-8.66699 5.33301 -17 13.666 -25 24.999c0 1.33301 -0.666992 3.33301 -2 6
c-2.66699 6.66699 -6.33398 13.334 -11.001 20.001l-12 12l-15 9c-2.66699 1.33301 -5.33398 2.16602 -8.00098 2.49902s-5.66699 0.833008 -9 1.5c-6 1.33301 -11.667 1.33301 -17 0c-3.33301 -0.666992 -6.33301 -1.16699 -9 -1.5s-5.33398 -1.16602 -8.00098 -2.49902
l-15 -9l-12 -12c-1.33301 -2.66699 -2.66602 -5.16699 -3.99902 -7.5s-2.66602 -4.83301 -3.99902 -7.5s-2.33301 -5.16699 -3 -7.5s-1.33398 -5.16602 -2.00098 -8.49902v-19v-33v-9h86c18.667 0 34.834 -6.83301 48.501 -20.5s20.5 -30.167 20.5 -49.5
c0 -18.667 -6.83301 -34.834 -20.5 -48.501s-29.834 -20.5 -48.501 -20.5h-54h-32v-101v-6l2 -1c8 -4 15.667 -8.66699 23 -14s14.666 -11 21.999 -17c8.66699 -7.33301 16.834 -14.666 24.501 -21.999s15.834 -14.666 24.501 -21.999
c2.66699 -1.33301 5 -2.66602 7 -3.99902l6 -4c1.33301 -0.666992 2.16602 -1 2.49902 -1s1.16602 -0.333008 2.49902 -1h7l9 3c1.33301 0.666992 2.5 1.33398 3.5 2.00098s2.16699 1.33398 3.5 2.00098l6 6c0.666992 1.33301 1.16699 2.5 1.5 3.5
s1.16602 2.16699 2.49902 3.5c1.33301 4 2 7 2 9v4c0 19.333 6.83301 35.833 20.5 49.5s30.167 20.5 49.5 20.5c18.667 0 34.834 -6.83301 48.501 -20.5s20.5 -30.167 20.5 -49.5c0 -6.66699 -0.333008 -13.167 -1 -19.5s-1.66699 -12.833 -3 -19.5
c-1.33301 -3.33301 -2.5 -6.5 -3.5 -9.5s-2.16699 -6.16699 -3.5 -9.5l-7.5 -17.5c-2.33301 -5.66699 -5.16602 -11.167 -8.49902 -16.5s-6.83301 -10.333 -10.5 -15s-7.83398 -9.33398 -12.501 -14.001c-8.66699 -8.66699 -18.334 -16.334 -29.001 -23.001
c-4 -3.33301 -10 -6.66602 -18 -9.99902c-5.33301 -2.66699 -11 -5.16699 -17 -7.5s-12.333 -4.16602 -19 -5.49902c-6 -1.33301 -12.167 -2.33301 -18.5 -3s-12.833 -1 -19.5 -1c-6 0 -12.167 0.333008 -18.5 1s-12.5 1.66699 -18.5 3s-11.667 3.16602 -17 5.49902
s-10.666 4.5 -15.999 6.5c-8.66699 4 -16.5 8.66699 -23.5 14l-21.5 16c-8.66699 7.33301 -16.834 14.833 -24.501 22.5s-15.834 15.167 -24.501 22.5l-15 9c-1.33301 0.666992 -2.5 1 -3.5 1s-2.16699 0.333008 -3.5 1h-9v0z" />
    <glyph glyph-name="guillemotleft" unicode="&#xab;" horiz-adv-x="525" 
d="M109 249l-24.499 38.998l-24.5 39c-6.66699 10 -10 21.667 -10 35s3.33301 25 10 35l22.5 36l22.5 35l24.5 39.5l24.5 39.5c5.33301 7.33301 11.333 13.833 18 19.5s14.334 9.83398 23.001 12.501c9.33301 2 18.666 2.5 27.999 1.5s18 -3.83301 26 -8.5
c16 -9.33301 26.667 -23.5 32 -42.5s3 -36.5 -7 -52.5l-45 -72l-13.5 -21.5l-13.5 -21.5c3.33301 -6 7 -12 11 -18l12 -18l24 -39.5l25 -39.5c10 -16 12.333 -33.5 7 -52.5s-16 -33.167 -32 -42.5c-17.333 -10 -35.333 -12.333 -54 -7
c-8.66699 2.66699 -16.334 6.83398 -23.001 12.501s-12.667 12.167 -18 19.5zM291.001 326.998c-6.66699 10 -9.99902 21.665 -9.99902 34.998s3.33301 25 10 35l22.5 36l22.5 35l24.5 39.5l24.5 39.5c5.33301 7.33301 11.333 13.833 18 19.5s14.334 9.83398 23.001 12.501
c9.33301 2 18.666 2.5 27.999 1.5s18 -3.83301 26 -8.5c16 -9.33301 26.667 -23.5 32 -42.5s3 -36.5 -7 -52.5l-45 -72l-13.5 -21.5l-13.5 -21.5c3.33301 -6 7 -12 11 -18l12 -18l24 -39.5l25 -39.5c10 -16 12.333 -33.5 7 -52.5s-16 -33.167 -32 -42.5
c-17.333 -10 -35.333 -12.333 -54 -7c-8.66699 2.66699 -16.334 6.83398 -23.001 12.501s-12.667 12.167 -18 19.5l-45 72l-24.5 39z" />
    <glyph glyph-name="guillemotright" unicode="&#xbb;" horiz-adv-x="525" 
d="M456 249l-44.999 -71.998c-5.33301 -7.33301 -11.333 -13.833 -18 -19.5s-14.334 -9.83398 -23.001 -12.501c-18.667 -5.33301 -36.667 -3 -54 7c-16 9.33301 -26.667 23.5 -32 42.5s-3 36.5 7 52.5l25 39.5l24 39.5l12 18c4 6 7.66699 12 11 18l-13.5 21.5l-13.5 21.5
l-45 72c-10 16 -12.333 33.5 -7 52.5s16 33.167 32 42.5c8 4.66699 16.667 7.5 26 8.5s18.666 0.5 27.999 -1.5c8.66699 -2.66699 16.334 -6.83398 23.001 -12.501s12.667 -12.167 18 -19.5l24.5 -39.5l24.5 -39.5l22.5 -35l22.5 -36c6.66699 -10 10 -21.667 10 -35
s-3.33301 -25 -10 -35l-24.5 -39zM274.001 327.002l-24.499 -38.998l-24.5 -39l-45 -72c-5.33301 -7.33301 -11.333 -13.833 -18 -19.5s-14.334 -9.83398 -23.001 -12.501c-18.667 -5.33301 -36.667 -3 -54 7c-16 9.33301 -26.667 23.5 -32 42.5s-3 36.5 7 52.5l25 39.5
l24 39.5l12 18c4 6 7.66699 12 11 18l-13.5 21.5l-13.5 21.5l-45 72c-10 16 -12.333 33.5 -7 52.5s16 33.167 32 42.5c8 4.66699 16.667 7.5 26 8.5s18.666 0.5 27.999 -1.5c8.66699 -2.66699 16.334 -6.83398 23.001 -12.501s12.667 -12.167 18 -19.5l24.5 -39.5
l24.5 -39.5l22.5 -35l22.5 -36c6.66699 -10 10 -21.667 10 -35s-3.33301 -25 -10 -35z" />
    <glyph glyph-name="questiondown" unicode="&#xbf;" horiz-adv-x="414" 
d="M256 575c-20.667 0 -38.334 7.33301 -53.001 22s-22 32.334 -22 53.001s7.33301 38.5 22 53.5s32.334 22.5 53.001 22.5s38.5 -7.5 53.5 -22.5s22.5 -32.833 22.5 -53.5s-7.5 -38.334 -22.5 -53.001s-32.833 -22 -53.5 -22zM56 122
c-2 6.66699 -3.32422 13.3359 -3.99121 20.0029l-2 20v11c0 4 0.333008 7.66699 1 11c1.33301 7.33301 2.33301 14.166 3 20.499s2 12.833 4 19.5c3.33301 10 7.16602 20 11.499 30s9.5 19.667 15.5 29c12.667 20.667 26.667 39.334 42 56.001
c8.66699 9.33301 17.667 18.333 27 27s18 17.667 26 27c1.33301 1.33301 2.16602 2.5 2.49902 3.5s1.16602 2.16699 2.49902 3.5s2.16602 2.66602 2.49902 3.99902s1.16602 2.66602 2.49902 3.99902c0 0.666992 0.166992 1.33398 0.5 2.00098s0.5 1.66699 0.5 3
c1.33301 7.33301 2 15 2 23v23c0 19.333 6.66699 35.666 20 48.999s29.666 20 48.999 20s35.666 -6.66699 48.999 -20s20 -29.666 20 -48.999v-21.5c0 -7 -0.333008 -14.167 -1 -21.5c-1.33301 -13.333 -3.16602 -26.5 -5.49902 -39.5s-7.16602 -25.5 -14.499 -37.5
c-10.667 -18 -24 -35.667 -40 -53c-4.66699 -5.33301 -9.33398 -10.166 -14.001 -14.499l-14 -13.5l-13.5 -13.5c-4.33301 -4.33301 -8.16602 -8.83301 -11.499 -13.5c-4 -5.33301 -7.83301 -11 -11.5 -17s-7.16699 -12.333 -10.5 -19c-2.66699 -6 -4.66699 -12.667 -6 -20
v-14c0 -1.33301 0.666992 -3.33301 2 -6c0 -1.33301 0.666992 -2.66602 2 -3.99902l3 -3c4 -3.33301 7.66699 -5.66602 11 -6.99902c2.66699 -0.666992 5.16699 -1.33398 7.5 -2.00098s5.16602 -1.33398 8.49902 -2.00098h14c5.33301 1.33301 9 2.33301 11 3
c1.33301 0.666992 2.66602 1.66699 3.99902 3c2.66699 2 6 5 10 9c1.33301 2.66699 2.33301 4.33398 3 5.00098c2 17.333 9.5 32.333 22.5 45s28.5 19 46.5 19c19.333 0 35.833 -6.83301 49.5 -20.5s20.5 -30.167 20.5 -49.5
c-0.666992 -4.66699 -1.16699 -9.16699 -1.5 -13.5s-1.16602 -8.83301 -2.49902 -13.5l-3 -9c-2.66699 -6 -5.16699 -12 -7.5 -18s-5.5 -11.667 -9.5 -17c-3.33301 -5.33301 -7 -10.5 -11 -15.5l-13 -15.5c-9.33301 -8.66699 -19 -16.334 -29 -23.001
c-5.33301 -4 -10.833 -7.16699 -16.5 -9.5l-17.5 -7.5c-7.33301 -3.33301 -14.666 -5.33301 -21.999 -6c-14.667 -3.33301 -28.334 -5 -41.001 -5c-12 0 -25.333 1.66699 -40 5c-4.66699 0.666992 -9.16699 1.66699 -13.5 3l-12.5 4
c-6.66699 2.66699 -13.334 5.5 -20.001 8.5s-13 6.5 -19 10.5c-5.33301 3.33301 -10.833 7.16602 -16.5 11.499s-10.834 9.16602 -15.501 14.499c-4 4.66699 -8 9.66699 -12 15s-7.66699 10.666 -11 15.999c-6.66699 13.333 -11.334 25.333 -14.001 36z" />
    <glyph glyph-name="Agrave" unicode="&#xc0;" horiz-adv-x="580" 
d="M283 775l-19.5 44.0039l-19.5 45c-2.66699 3.33301 -4 8.33301 -4 15c0 1.33301 0.166992 2.66602 0.5 3.99902s0.5 2.66602 0.5 3.99902c2 8 6.66699 14 14 18c6.66699 4.66699 14.667 6 24 4c8.66699 -2.66699 14.667 -7.66699 18 -15l1 -1l19.5 -44.5l19.5 -44.5
c2.66699 -6.66699 4 -11.667 4 -15c-0.666992 -2 -1 -5 -1 -9c-2 -8 -6.66699 -14 -14 -18s-15.333 -5 -24 -3c-3.33301 1.33301 -6.83301 3.16602 -10.5 5.49902s-6.16699 5.16602 -7.5 8.49902c0 0.666992 -0.166992 1 -0.5 1s-0.5 0.333008 -0.5 1zM568 89.0039
c4 -21.333 1.33496 -40.6729 -7.99805 -58.0059c-10.667 -18 -25.667 -29.667 -45 -35c-20 -5.33301 -39.333 -2.66602 -58 8.00098c-8 4.66699 -15.167 11 -21.5 19s-10.5 16.667 -12.5 26c-0.666992 2 -1.66699 5.66699 -3 11l-8 35c-2.66699 12 -5.66699 23.667 -9 35
c-3.33301 12.667 -6.33301 25 -9 37l-8 37h-86h-65l-6 -27l-11.5 -46l-11.5 -46l-9 -36c-2 -9.33301 -6.16699 -18 -12.5 -26s-13.5 -14.333 -21.5 -19c-18 -10.667 -37.333 -13.334 -58 -8.00098c-19.333 5.33301 -34.333 17 -45 35c-10 18 -12.333 37.333 -7 58
c0.666992 2 1.66699 5.66699 3 11l8 35l8 35c5.33301 18.667 10.166 37.334 14.499 56.001l13.5 56l15.5 66l15.5 65c5.33301 20.667 10.333 41.334 15 62.001s9.66699 41.334 15 62.001l9.5 39.5l9.5 39.5c0.666992 1.33301 1 2.83301 1 4.5s0.333008 3.16699 1 4.5
c0 0.666992 0.166992 1.33398 0.5 2.00098s0.5 1.33398 0.5 2.00098c7.33301 23.333 20.333 43.333 39 60s40.334 27.334 65.001 32.001c3.33301 0.666992 6.5 1 9.5 1s6.16699 0.333008 9.5 1h9c3.33301 -0.666992 6.5 -1 9.5 -1s6.16699 -0.333008 9.5 -1
c25.333 -4.66699 47.166 -15.5 65.499 -32.5s31.166 -37.5 38.499 -61.5c0 -1.33301 0.166992 -2.5 0.5 -3.5s0.5 -2.16699 0.5 -3.5c0.666992 -0.666992 1 -2 1 -4l4 -16l4 -16l13.5 -56l13.5 -56l16 -65.5l16 -65.5c5.33301 -20.667 10.333 -41.167 15 -61.5l15 -62.5
l10.5 -46l11.5 -46zM349.002 353.997c-0.666992 3.33301 -1.33398 6.49805 -2.00098 9.49805s-1.33398 6.16699 -2.00098 9.5c-5.33301 20.667 -10.333 41.334 -15 62.001s-9.66699 41.334 -15 62.001c-1.33301 3.33301 -2.16602 6.5 -2.49902 9.5
s-1.16602 6.16699 -2.49902 9.5l-10 -42l-10 -42l-9.5 -39l-9.5 -39h63h15z" />
    <glyph glyph-name="Aacute" unicode="&#xc1;" horiz-adv-x="580" 
d="M301 758c-7.33301 4 -12 10.3379 -14 19.0049c-1.33301 5.33301 -1.33301 10.666 0 15.999c0.666992 1.33301 1.16699 2.5 1.5 3.5s0.833008 2.16699 1.5 3.5c0 0.666992 0.166992 1 0.5 1s0.5 0.333008 0.5 1l19.5 44.5l19.5 44.5
c1.33301 3.33301 3.83301 6.16602 7.5 8.49902s7.16699 4.16602 10.5 5.49902c8.66699 2 16.667 1 24 -3c7.33301 -4.66699 12 -11 14 -19c0.666992 -4.66699 0.666992 -10 0 -16c-0.666992 -1.33301 -1.16699 -2.5 -1.5 -3.5s-0.833008 -2.16699 -1.5 -3.5
c-0.666992 -0.666992 -1 -1.33398 -1 -2.00098l-19.5 -44l-19.5 -45c-3.33301 -6.66699 -9.33301 -11.334 -18 -14.001c-8.66699 -2 -16.667 -1 -24 3zM163 4.00488c-18 -10.667 -37.333 -13.3389 -58 -8.00586c-19.333 5.33301 -34.333 17 -45 35
c-10 18 -12.333 37.333 -7 58c0.666992 1.33301 1 3 1 5s0.333008 4 1 6c3.33301 11.333 6.33301 23 9 35l8 35l13.5 56l13.5 56l16 66l16 65c5.33301 20.667 10.333 41.334 15 62.001s9.66699 41.334 15 62.001l9.5 39.5l9.5 39.5c0.666992 1.33301 1 2.83301 1 4.5
s0.333008 3.16699 1 4.5c0 0.666992 0.166992 1.33398 0.5 2.00098s0.5 1.33398 0.5 2.00098c7.33301 23.333 20.166 43.333 38.499 60s40.166 27.334 65.499 32.001c3.33301 0.666992 6.5 1 9.5 1s6.16699 0.333008 9.5 1h8c3.33301 -0.666992 6.5 -1 9.5 -1
s6.16699 -0.333008 9.5 -1c25.333 -4.66699 47.333 -15.5 66 -32.5s31.667 -37.5 39 -61.5c0 -1.33301 0.166992 -2.5 0.5 -3.5s0.5 -2.16699 0.5 -3.5c0.666992 -0.666992 1 -2 1 -4l4 -16l4 -16l13.5 -56l13.5 -56l15.5 -65.5l15.5 -65.5
c5.33301 -20.667 10.333 -41.167 15 -61.5l15 -62.5l11.5 -46l11.5 -46l4 -18l4 -18c5.33301 -20.667 3 -40 -7 -58c-10.667 -18 -25.667 -29.667 -45 -35c-20 -5.33301 -39.333 -2.66602 -58 8.00098c-8 4.66699 -15.167 11 -21.5 19s-10.5 16.667 -12.5 26
c-0.666992 2 -1.66699 5.66699 -3 11c-3.33301 11.333 -6.16602 23 -8.49902 35s-5.16602 23.667 -8.49902 35c-3.33301 12.667 -6.33301 25 -9 37s-5.66699 24.333 -9 37h-85h-65c-1.33301 -4.66699 -2.5 -9.16699 -3.5 -13.5s-2.16699 -8.83301 -3.5 -13.5l-10.5 -46
l-11.5 -46l-9 -36c-2 -9.33301 -6.16699 -18 -12.5 -26s-13.5 -14.333 -21.5 -19zM290 432l-9.50293 -39.001l-9.5 -39h63h15c-0.666992 5.33301 -2.33398 11.666 -5.00098 18.999c-5.33301 20.667 -10.166 41.334 -14.499 62.001s-9.16602 41.334 -14.499 62.001
c-1.33301 3.33301 -2.16602 6.5 -2.49902 9.5s-1.16602 6.16699 -2.49902 9.5l-10 -42z" />
    <glyph glyph-name="Acircumflex" unicode="&#xc2;" horiz-adv-x="581" 
d="M238 768c-6 -5.33301 -13.167 -8.16602 -21.5 -8.49902s-15.5 2.5 -21.5 8.5s-9 13.333 -9 22s3 16 9 22c3.33301 3.33301 6.66602 6.33301 9.99902 9s6.66602 5.66699 9.99902 9l36.5 35.5l37.5 34.5c6 6 13 9 21 9c8.66699 0 16 -3 22 -9
c3.33301 -3.33301 6.66602 -6.5 9.99902 -9.5s6.66602 -6.16699 9.99902 -9.5l37 -34.5l37 -34.5c6 -6 8.83301 -13.333 8.5 -22s-3.16602 -16 -8.49902 -22c-6 -6 -13.167 -8.83301 -21.5 -8.5s-15.833 3.16602 -22.5 8.49902c-3.33301 3.33301 -6.66602 6.5 -9.99902 9.5
s-6.66602 6.16699 -9.99902 9.5l-25.5 24.5c-8.33301 8.33301 -17.166 16.5 -26.499 24.5l-36 -34zM105 -4c-19.333 5.33301 -34.335 16.9971 -45.002 34.9971c-10 18 -12.333 37.333 -7 58c0.666992 2 1.66699 5.66699 3 11l8 35c2.66699 12 5.66699 23.667 9 35l13.5 56
l13.5 56l15.5 66l15.5 65c5.33301 20.667 10.333 41.334 15 62.001s9.66699 41.334 15 62.001l9.5 39.5l9.5 39.5c0.666992 1.33301 1 2.83301 1 4.5s0.333008 3.16699 1 4.5c0.666992 0.666992 1 2 1 4c7.33301 23.333 20.333 43.333 39 60s40.334 27.334 65.001 32.001
c3.33301 0.666992 6.5 1 9.5 1s6.16699 0.333008 9.5 1h9c3.33301 -0.666992 6.5 -1 9.5 -1s6.16699 -0.333008 9.5 -1c25.333 -4.66699 47.166 -15.5 65.499 -32.5s31.166 -37.5 38.499 -61.5c0 -1.33301 0.166992 -2.5 0.5 -3.5s0.5 -2.16699 0.5 -3.5
c0.666992 -0.666992 1 -2 1 -4l4 -16l4 -16l13.5 -56l13.5 -56l16 -65.5l16 -65.5c5.33301 -20.667 10.333 -41.167 15 -61.5l15 -62.5l10.5 -46l11.5 -46l9 -36c2 -10 2.5 -19.833 1.5 -29.5s-4.16699 -19.167 -9.5 -28.5c-10.667 -18 -25.667 -29.667 -45 -35
c-20 -5.33301 -39.333 -2.66602 -58 8.00098c-17.333 10 -28.666 25 -33.999 45c-0.666992 2 -1.66699 5.66699 -3 11l-8 35c-2.66699 12 -5.66699 23.667 -9 35c-3.33301 12.667 -6.16602 25 -8.49902 37s-5.16602 24.333 -8.49902 37h-86h-65l-6 -27l-11.5 -46l-11.5 -46
l-4 -18l-4 -18c-2.66699 -9.33301 -7.16699 -18 -13.5 -26s-13.5 -14.333 -21.5 -19c-18 -10.667 -37.333 -13.334 -58 -8.00098zM289.998 431.997l-9.5 -39.002l-9.5 -39h63h15c-0.666992 3.33301 -1.33398 6.5 -2.00098 9.5s-1.33398 6.16699 -2.00098 9.5
c-5.33301 20.667 -10.333 41.334 -15 62.001s-9.66699 41.334 -15 62.001c-1.33301 3.33301 -2.16602 6.5 -2.49902 9.5s-1.16602 6.16699 -2.49902 9.5l-10 -42z" />
    <glyph glyph-name="Atilde" unicode="&#xc3;" horiz-adv-x="580" 
d="M205 767c-8 0 -15.1602 2.99707 -21.4932 8.99707s-9.16602 13.333 -8.49902 22c0 3.33301 0.166992 7 0.5 11s0.833008 8 1.5 12c5.33301 20.667 17 37.334 35 50.001c9.33301 6 19.333 9.83301 30 11.5s21.667 1.5 33 -0.5c8.66699 -1.33301 16.667 -4.33301 24 -9
s14.333 -10 21 -16c4 -3.33301 8 -7 12 -11s8.33301 -7.66699 13 -11c1.33301 -1.33301 2.66602 -2.33301 3.99902 -3l4 -2c1.33301 -0.666992 2.16602 -1 2.49902 -1s1.16602 -0.333008 2.49902 -1h5c1.33301 0.666992 2.5 1 3.5 1s2.16699 0.333008 3.5 1
s2.16602 1.16699 2.49902 1.5s1.16602 0.833008 2.49902 1.5l5 5c0.666992 0.666992 1.66699 2.33398 3 5.00098c0.666992 1.33301 1 2.5 1 3.5s0.333008 2.16699 1 3.5v3c0 8.66699 3 16 9 22s13 9 21 9c8.66699 0 16 -3 22 -9s9 -13.333 9 -22
c0 -3.33301 -0.166992 -6.5 -0.5 -9.5s-0.833008 -6.16699 -1.5 -9.5c-4.66699 -21.333 -16.667 -39 -36 -53c-8 -5.33301 -17 -9 -27 -11c-12 -2.66699 -24 -3 -36 -1c-15.333 2 -28 7.83301 -38 17.5s-20.333 19.167 -31 28.5c-2.66699 1.33301 -6 3.33301 -10 6
c-1.33301 0.666992 -3.33301 1 -6 1c-2 0.666992 -4.33301 0.666992 -7 0c-0.666992 0 -1.33398 -0.166992 -2.00098 -0.5s-1.66699 -0.5 -3 -0.5c-0.666992 -0.666992 -1.33398 -1 -2.00098 -1s-1.33398 -0.333008 -2.00098 -1l-3 -3
c-1.33301 -2.66699 -2.33301 -4.33398 -3 -5.00098c-0.666992 -1.33301 -1 -2.66602 -1 -3.99902s-0.333008 -2.66602 -1 -3.99902v-5c0 -8.66699 -3 -16 -9 -22s-13.333 -9 -22 -9zM568.007 88.9971c4 -21.333 1.33203 -40.6719 -8.00098 -58.0049
c-10.667 -18 -25.667 -29.667 -45 -35c-20 -5.33301 -39.333 -2.66602 -58 8.00098c-8 4.66699 -15.167 11 -21.5 19s-10.5 16.667 -12.5 26c-0.666992 2 -1.66699 5.66699 -3 11l-8 35c-2.66699 12 -5.66699 23.667 -9 35c-3.33301 12.667 -6.16602 25 -8.49902 37
s-5.16602 24.333 -8.49902 37h-86h-65l-6 -27l-11.5 -46l-11.5 -46l-4 -18l-4 -18c-2.66699 -9.33301 -7.16699 -18 -13.5 -26s-13.5 -14.333 -21.5 -19c-18 -10.667 -37.333 -13.334 -58 -8.00098c-19.333 5.33301 -34.333 17 -45 35c-10 18 -12.333 37.333 -7 58
c0.666992 2 1.66699 5.66699 3 11l8 35c2.66699 12 5.66699 23.667 9 35l13.5 56l13.5 56l15.5 66l15.5 65c5.33301 20.667 10.333 41.334 15 62.001s9.66699 41.334 15 62.001l9.5 39.5l9.5 39.5c0.666992 1.33301 1 2.83301 1 4.5s0.333008 3.16699 1 4.5
c0 0.666992 0.166992 1.33398 0.5 2.00098s0.5 1.33398 0.5 2.00098c7.33301 23.333 20.333 43.333 39 60s40.334 27.334 65.001 32.001c3.33301 0.666992 6.5 1 9.5 1s6.16699 0.333008 9.5 1h9c3.33301 -0.666992 6.5 -1 9.5 -1s6.16699 -0.333008 9.5 -1
c25.333 -4.66699 47.166 -15.5 65.499 -32.5s31.166 -37.5 38.499 -61.5c0 -1.33301 0.166992 -2.5 0.5 -3.5s0.5 -2.16699 0.5 -3.5c0.666992 -0.666992 1 -2 1 -4l4 -16l4 -16l13.5 -56l13.5 -56l16 -65.5l16 -65.5c5.33301 -20.667 10.333 -41.167 15 -61.5l15 -62.5
l10.5 -46l11.5 -46zM349.006 353.991c-0.666992 3.33301 -1.33398 6.49805 -2.00098 9.49805s-1.33398 6.16699 -2.00098 9.5c-5.33301 20.667 -10.333 41.334 -15 62.001s-9.66699 41.334 -15 62.001c-1.33301 3.33301 -2.16602 6.5 -2.49902 9.5
s-1.16602 6.16699 -2.49902 9.5l-10 -42l-10 -42l-9.5 -39l-9.5 -39h63h15z" />
    <glyph glyph-name="Adieresis" unicode="&#xc4;" horiz-adv-x="581" 
d="M236 807c-8.66699 0 -16 3 -22 9s-9 13 -9 21c0 8.66699 3 16 9 22s13.333 9 22 9s16 -3 22 -9s9 -13.333 9 -22c0 -8 -3 -15 -9 -21s-13.333 -9 -22 -9zM389 807c-8.66699 0 -16 3 -22 9s-9 13 -9 21c0 8.66699 3 16 9 22s13.333 9 22 9s15.834 -3 21.501 -9
s8.5 -13.333 8.5 -22c0 -8 -2.83301 -15 -8.5 -21s-12.834 -9 -21.501 -9zM560 31c-10.667 -18 -25.6611 -29.6738 -44.9941 -35.0068c-20 -5.33301 -39 -2.66602 -57 8.00098c-18 9.33301 -29.667 24.333 -35 45c-0.666992 2 -1.66699 5.66699 -3 11l-8 35
c-2.66699 12 -5.66699 23.667 -9 35l-8 37c-2.66699 12 -5.66699 24.333 -9 37h-86h-65l-6 -27l-11.5 -46l-11.5 -46l-4 -18l-4 -18c-5.33301 -20.667 -17 -35.667 -35 -45c-18 -10.667 -37.333 -13.334 -58 -8.00098c-9.33301 2.66699 -17.833 7 -25.5 13
s-13.834 13.333 -18.501 22c-10.667 17.333 -13.334 36.666 -8.00098 57.999c0.666992 2 1.66699 5.66699 3 11l8 35c2.66699 12 5.66699 23.667 9 35l13.5 56l13.5 56l15.5 66l15.5 65c5.33301 20.667 10.333 41.334 15 62.001s9.66699 41.334 15 62.001l9.5 39.5l9.5 39.5
c1.33301 4 2 7 2 9c0.666992 0.666992 1 1.33398 1 2.00098s0.333008 1.33398 1 2.00098c7.33301 23.333 20.166 43.333 38.499 60s39.833 27.334 64.5 32.001c3.33301 0.666992 6.5 1 9.5 1s6.16699 0.333008 9.5 1h9c3.33301 -0.666992 6.5 -1 9.5 -1
s6.16699 -0.333008 9.5 -1c25.333 -4.66699 47.166 -15.5 65.499 -32.5s31.166 -37.5 38.499 -61.5c0 -2 0.666992 -4.33301 2 -7v-4l4 -16l4 -16l13.5 -56l13.5 -56l16 -65.5l16 -65.5c5.33301 -20.667 10.333 -41.167 15 -61.5l15 -62.5
c3.33301 -15.333 7 -30.666 11 -45.999s7.66699 -30.666 11 -45.999l9 -36c5.33301 -21.333 2.66602 -40.666 -8.00098 -57.999zM349.006 353.993c-0.666992 3.33301 -1.33398 6.49805 -2.00098 9.49805s-1.33398 6.16699 -2.00098 9.5
c-5.33301 20.667 -10.333 41.334 -15 62.001s-9.66699 41.334 -15 62.001c-1.33301 3.33301 -2.16602 6.5 -2.49902 9.5s-1.16602 6.16699 -2.49902 9.5l-10 -42l-10 -42l-9.5 -39l-9.5 -39h63h15z" />
    <glyph glyph-name="Aring" unicode="&#xc5;" horiz-adv-x="581" 
d="M260 759c-9.33301 6.66699 -17.166 14.1719 -23.499 22.5049s-11.166 18.166 -14.499 29.499c-3.33301 9.33301 -4.83301 19.166 -4.5 29.499s2.16602 20.166 5.49902 29.499c5.33301 12 11.666 22.333 18.999 31c3.33301 3.33301 7 6.66602 11 9.99902s8 6 12 8
c20 10.667 42 14 66 10c10 -2 19 -5.66699 27 -11c4 -2.66699 7.83301 -5.5 11.5 -8.5s7.16699 -6.5 10.5 -10.5c4 -5.33301 7.5 -10.333 10.5 -15s5.83301 -10 8.5 -16c1.33301 -5.33301 2.33301 -10.333 3 -15s1.33398 -9.66699 2.00098 -15
c0 -0.666992 -0.333008 -1.33398 -1 -2.00098c0 -24.667 -8.66699 -45.667 -26 -63c-7.33301 -7.33301 -15.333 -13.333 -24 -18c-2.66699 -1.33301 -5.33398 -2.5 -8.00098 -3.5l-9 -3.5l-18 -3c-20.667 -2 -40 2.66699 -58 14zM306 870.005
c-1.33301 -0.666992 -2.66992 -1.16699 -4.00293 -1.5s-2.66602 -0.833008 -3.99902 -1.5s-2.5 -1.16699 -3.5 -1.5s-2.16699 -1.16602 -3.5 -2.49902l-6 -6c-0.666992 -1.33301 -1.33398 -2.5 -2.00098 -3.5s-1.33398 -2.16699 -2.00098 -3.5
c-1.33301 -2.66699 -2 -5.33398 -2 -8.00098v-8c0 -2 0.666992 -5 2 -9c0.666992 -1.33301 1.33398 -2.5 2.00098 -3.5s1.33398 -2.16699 2.00098 -3.5c2.66699 -2.66699 4.66699 -4.33398 6 -5.00098c1.33301 -1.33301 2.5 -2.16602 3.5 -2.49902
s2.16699 -1.16602 3.5 -2.49902c1.33301 0 4 -0.666992 8 -2h9c4 1.33301 6.66699 2 8 2c1.33301 1.33301 2.5 2.16602 3.5 2.49902s2.16699 1.16602 3.5 2.49902c1.33301 0.666992 3.33301 2.33398 6 5.00098c0.666992 1.33301 1.33398 2.5 2.00098 3.5
s1.33398 2.16699 2.00098 3.5c1.33301 4 2 7 2 9v4v4c0 2.66699 -0.666992 5.33398 -2 8.00098c-0.666992 1.33301 -1.33398 2.5 -2.00098 3.5s-1.33398 2.16699 -2.00098 3.5l-6 6c-1.33301 1.33301 -2.5 2.16602 -3.5 2.49902s-2.16699 0.833008 -3.5 1.5
s-2.66602 1.16699 -3.99902 1.5s-2.66602 0.833008 -3.99902 1.5h-9zM567.996 89.0049c5.33301 -21.333 2.67188 -40.6748 -7.99512 -58.0078c-10.667 -18 -25.667 -29.667 -45 -35c-20 -5.33301 -39 -2.66602 -57 8.00098c-18 9.33301 -29.667 24.333 -35 45
c-0.666992 2 -1.66699 5.66699 -3 11l-8 35l-8 35c-3.33301 12.667 -6.33301 25 -9 37s-5.66699 24.333 -9 37h-86h-65l-6 -27l-11.5 -46l-10.5 -46l-9 -36c-5.33301 -20.667 -17 -35.667 -35 -45c-18 -10.667 -37.333 -13.334 -58 -8.00098
c-9.33301 2.66699 -17.833 7 -25.5 13s-13.834 13.333 -18.501 22c-10.667 17.333 -13.334 36.666 -8.00098 57.999c0.666992 2 1.66699 5.66699 3 11l8 35c2.66699 12 5.66699 23.667 9 35l13.5 56l13.5 56l15.5 66l15.5 65c5.33301 20.667 10.333 41.334 15 62.001
s9.66699 41.334 15 62.001l9.5 39.5l9.5 39.5c1.33301 4 2 7 2 9c0.666992 0.666992 1 1.33398 1 2.00098s0.333008 1.33398 1 2.00098c7.33301 23.333 20.166 43.333 38.499 60s39.833 27.334 64.5 32.001c3.33301 0.666992 6.5 1 9.5 1s6.16699 0.333008 9.5 1h9
c3.33301 -0.666992 6.5 -1 9.5 -1s6.16699 -0.333008 9.5 -1c25.333 -4.66699 47.166 -15.5 65.499 -32.5s31.166 -37.5 38.499 -61.5c0.666992 -1.33301 1 -2.5 1 -3.5s0.333008 -2.16699 1 -3.5c0 -2 0.333008 -3.33301 1 -4c1.33301 -5.33301 2.5 -10.666 3.5 -15.999
s2.16699 -10.666 3.5 -15.999l13.5 -56l13.5 -56l16 -65.5l16 -65.5c5.33301 -20.667 10.333 -41.167 15 -61.5l15 -62.5c3.33301 -15.333 7 -30.666 11 -45.999s7.66699 -30.666 11 -45.999zM350.002 353.996c-2.66699 7.33301 -4.33496 13.665 -5.00195 18.998
c-5.33301 20.667 -10.333 41.334 -15 62.001s-9.66699 41.334 -15 62.001c-1.33301 3.33301 -2.16602 6.5 -2.49902 9.5s-1.16602 6.16699 -2.49902 9.5l-10 -42l-10 -42l-9.5 -39l-9.5 -39h63h16z" />
    <glyph glyph-name="AE" unicode="&#xc6;" horiz-adv-x="855" 
d="M614 211l-0.000976562 -59.998h78h78c20.667 0 38.334 -7.33301 53.001 -22s22 -32 22 -52c0 -20.667 -7.33301 -38.334 -22 -53.001s-32.334 -22 -53.001 -22h-28h-124h-78c-20.667 0 -38.334 7.33301 -53.001 22s-22 32.334 -22 53.001v5v61v70h-101h-61l-25 -38
l-25 -39l-23 -35l-23 -36l-18 -27c-5.33301 -8 -11.666 -15 -18.999 -21s-16 -10.333 -26 -13c-20 -5.33301 -39 -2.66602 -57 8.00098c-17.333 9.33301 -28.666 24 -33.999 44c-2.66699 9.33301 -3.5 19.166 -2.5 29.499s4.16699 19.5 9.5 27.5l12 18l21 32.5l21 31.5
l30.5 47.5l31.5 47.5l36 55l36 55l72 111l30.5 47l31.5 47c7.33301 10.667 14.166 21.167 20.499 31.5s13.166 20.833 20.499 31.5c1.33301 2.66699 3 5.16699 5 7.5s3.66699 4.83301 5 7.5c0 0.666992 0.166992 1.16699 0.5 1.5s0.5 0.833008 0.5 1.5l5.5 7.5
c1.66699 2.33301 3.83398 4.83301 6.50098 7.5c14.667 14.667 32.334 22 53.001 22h1h6h27h7h28h124h78c20.667 0 38.334 -7.33301 53.001 -22s22 -32.334 22 -53.001c0 -20 -7.33301 -37.333 -22 -52s-32.334 -22 -53.001 -22h-28h-124h-1h-3v-102v-23h78h78
c20.667 0 38.334 -7.33301 53.001 -22s22 -32.334 22 -53.001c0 -20 -7.33301 -37.333 -22 -52s-32.334 -22 -53.001 -22h-28h-124h-4v-89zM452.999 362.002l12 -0.00195312v24v75c-0.666992 -1.33301 -1.16699 -2.16602 -1.5 -2.49902s-0.833008 -1.16602 -1.5 -2.49902
l-31 -47.5l-31 -46.5h53z" />
    <glyph glyph-name="Ccedilla" unicode="&#xc7;" horiz-adv-x="501" 
d="M51 486l-0.000976562 24.0088c1.33301 15.333 3.33301 29.333 6 42c2 9.33301 4.33301 16.666 7 21.999l8 19.5c2.66699 6.33301 5.66699 12.5 9 18.5c3.33301 5.33301 7 10.833 11 16.5l12 16.5c7.33301 8 14.833 15.333 22.5 22s16.167 13 25.5 19
c3.33301 2 6.5 4 9.5 6s6.16699 3.66699 9.5 5c11.333 6 24 11 38 15c7.33301 2 14.333 3.5 21 4.5s13.667 2.16699 21 3.5c4 0.666992 8 1 12 1h12c12.667 0 26.667 -1.66699 42 -5c7.33301 -0.666992 14.666 -2.66699 21.999 -6c10 -3.33301 19.833 -7.33301 29.5 -12
s18.834 -10 27.501 -16l16 -12c5.33301 -4 10.333 -8.66699 15 -14c9.33301 -10.667 18 -21.334 26 -32.001c2 -3.33301 4 -6.5 6 -9.5s3.66699 -6.16699 5 -9.5c6 -10.667 11.333 -23.334 16 -38.001c3.33301 -7.33301 5.33301 -14.666 6 -21.999
c1.33301 -7.33301 2.33301 -14.333 3 -21l2 -21c0 -20.667 -7.5 -38.334 -22.5 -53.001s-32.5 -22 -52.5 -22c-21.333 0 -39.333 7.33301 -54 22c-14 14 -21 31.667 -21 53c-0.666992 1.33301 -1 4 -1 8c-0.666992 3.33301 -1.33398 6.33301 -2.00098 9
s-1.66699 5.66699 -3 9c-2 4.66699 -5 9.66699 -9 15c-2 2.66699 -4 5 -6 7l-6 6c-2.66699 1.33301 -5.33398 2.83301 -8.00098 4.5s-5.33398 3.16699 -8.00098 4.5c-3.33301 1.33301 -6.33301 2.16602 -9 2.49902s-5.66699 1.16602 -9 2.49902h-19
c-3.33301 -1.33301 -6.33301 -2.16602 -9 -2.49902s-5.33398 -1.16602 -8.00098 -2.49902c-3.33301 -1.33301 -6.16602 -2.83301 -8.49902 -4.5s-4.83301 -3.16699 -7.5 -4.5c-2 -2 -4.16699 -4 -6.5 -6s-4.5 -4.33301 -6.5 -7l-9 -15
c-1.33301 -3.33301 -2.16602 -6.33301 -2.49902 -9s-1.16602 -5.66699 -2.49902 -9v-16v-99v-130v-43v-22c1.33301 -3.33301 2.16602 -6.33301 2.49902 -9s1.16602 -5.33398 2.49902 -8.00098c1.33301 -3.33301 2.83301 -6.16602 4.5 -8.49902s3.16699 -4.83301 4.5 -7.5
l13 -13c2.66699 -1.33301 5.16699 -2.83301 7.5 -4.5s5.16602 -3.16699 8.49902 -4.5c2.66699 -1.33301 5.33398 -2.16602 8.00098 -2.49902s5.66699 -1.16602 9 -2.49902h19c3.33301 1.33301 6.33301 2.16602 9 2.49902s5.66699 1.16602 9 2.49902
c2.66699 1.33301 5.33398 2.83301 8.00098 4.5s5.33398 3.16699 8.00098 4.5c2 2 4 4.16699 6 6.5s4 4.5 6 6.5c4 5.33301 7 10.666 9 15.999c1.33301 3.33301 2.33301 6.33301 3 9s1.33398 5.66699 2.00098 9c0 1.33301 0.166992 2.83301 0.5 4.5s0.5 3.16699 0.5 4.5
c0 20.667 7.33301 38.334 22 53.001s32.334 22 53.001 22c20 0 37.5 -7.33301 52.5 -22s22.5 -32.334 22.5 -53.001c-1.33301 -16 -3.33301 -32 -6 -48c-1.33301 -4.66699 -2.5 -9.16699 -3.5 -13.5s-2.5 -8.83301 -4.5 -13.5l-8 -19.5
c-2.66699 -6.33301 -5.66699 -12.166 -9 -17.499c-3.33301 -6 -7.16602 -11.667 -11.499 -17l-12.5 -16c-4.66699 -6 -10 -11.333 -16 -16c-10.667 -9.33301 -21.334 -17.666 -32.001 -24.999c-6 -4 -12.333 -7.66699 -19 -11c-6.66699 -2.66699 -13 -5.33398 -19 -8.00098
s-12.667 -5 -20 -7c-12 -2.66699 -24.333 -4.66699 -37 -6l-15 -42c8 -4.66699 14.667 -9.66699 20 -15c16.667 -16.667 25 -37 25 -61v-1c0 -8 -1 -16 -3 -24s-5.66699 -15.333 -11 -22c-4.66699 -6.66699 -9.83398 -12.5 -15.501 -17.5s-12.167 -9.16699 -19.5 -12.5
c-2.66699 -1.33301 -5.16699 -2.5 -7.5 -3.5s-4.83301 -1.83301 -7.5 -2.5c-6.66699 -1.33301 -11.667 -2 -15 -2c-8 -0.666992 -17 0 -27 2c-8 2 -15.833 5.33301 -23.5 10s-14.167 10.334 -19.5 17.001c-6 6 -9 13 -9 21c0 8.66699 3 16 9 22c4.66699 6 11.667 9 21 9
s16.666 -3 21.999 -9c2.66699 -2.66699 4.66699 -5 6 -7l6 -3c1.33301 0 2.33301 -0.166992 3 -0.5s1.66699 -0.5 3 -0.5h6c1.33301 0 2.33301 0.166992 3 0.5s1.66699 0.5 3 0.5l6 3c0.666992 1.33301 1.33398 2.16602 2.00098 2.49902s1.33398 1.16602 2.00098 2.49902
s1.16699 2.16602 1.5 2.49902s0.833008 1.16602 1.5 2.49902s1 2.33301 1 3s0.333008 1.66699 1 3v3v1v4c-0.666992 1.33301 -1 2.33301 -1 3s-0.333008 1.66699 -1 3s-1.16699 2.16602 -1.5 2.49902s-0.833008 1.16602 -1.5 2.49902s-1.33398 2.16602 -2.00098 2.49902
s-1.33398 0.833008 -2.00098 1.5c-1.33301 1.33301 -3.33301 2.66602 -6 3.99902c-1.33301 0 -2.33301 0.166992 -3 0.5s-1.66699 0.5 -3 0.5h-3c-12 0 -20.667 5.33301 -26 16c-4.66699 7.33301 -6 15 -4 23c0.666992 0.666992 1 1.33398 1 2.00098l10 27.5l10 27.5
c-1.33301 0.666992 -2.33301 1 -3 1s-1.66699 0.333008 -3 1c-7.33301 0.666992 -14.666 2.66699 -21.999 6c-10 3.33301 -19.833 7.33301 -29.5 12s-18.5 10 -26.5 16c-5.33301 4.66699 -10.666 9 -15.999 13s-10.333 8.33301 -15 13
c-5.33301 5.33301 -10 10.666 -14 15.999l-12 16c-2 3.33301 -4 6.5 -6 9.5s-3.66699 6.16699 -5 9.5c-6 10.667 -11.333 23.334 -16 38.001c-5.33301 17.333 -8.33301 34.833 -9 52.5s-1 35.167 -1 52.5v125v110z" />
    <glyph glyph-name="Egrave" unicode="&#xc8;" horiz-adv-x="468" 
d="M200 479v-35.9971h110h73c20.667 0 38.334 -7.33301 53.001 -22s22 -32.334 22 -53.001s-7.33301 -38.334 -22 -53.001s-32.334 -22 -53.001 -22h-54h-129v-76v-67h110h73c20.667 0 38.334 -7.33301 53.001 -22s22 -32.334 22 -53.001s-7.33301 -38.334 -22 -53.001
s-32.334 -22 -53.001 -22h-54h-130h-74c-20.667 0 -38.334 7.33301 -53.001 22s-22 32.334 -22 53.001v3v3v3v58v109v117v16v129v98v38c0 20.667 7.33301 38.334 22 53.001s32.334 22 53.001 22h74h95h89c20.667 0 38.334 -7.33301 53.001 -22s22 -32.334 22 -53.001
s-7.33301 -38.334 -22 -53.001s-32.334 -22 -53.001 -22h-83c-13.333 0.666992 -26.833 0.833984 -40.5 0.500977s-27.167 -0.5 -40.5 -0.5h-19v-95zM248 775.003c-0.666992 0 -1 0.667969 -1 2.00098l-19.5 44l-19.5 44c-2.66699 4.66699 -4 10 -4 16
c0 1.33301 0.166992 2.66602 0.5 3.99902s0.5 2.66602 0.5 3.99902c2 8 6.66699 14 14 18c8.66699 4.66699 16.667 5.66699 24 3c3.33301 -1.33301 6.83301 -3.16602 10.5 -5.49902s6.16699 -5.16602 7.5 -8.49902l1 -1l19.5 -45l19.5 -44
c1.33301 -2.66699 2.33301 -5.16699 3 -7.5s1 -5.16602 1 -8.49902c-0.666992 -1.33301 -1 -4 -1 -8c-2 -7.33301 -6.66699 -13.333 -14 -18c-8 -4 -16 -5 -24 -3c-3.33301 1.33301 -6.83301 3.16602 -10.5 5.49902s-6.16699 5.16602 -7.5 8.49902z" />
    <glyph glyph-name="Eacute" unicode="&#xc9;" horiz-adv-x="468" 
d="M200 479v-35.9971h110h73c20.667 0 38.334 -7.33301 53.001 -22s22 -32.334 22 -53.001s-7.33301 -38.334 -22 -53.001s-32.334 -22 -53.001 -22h-55h-128v-76v-67h110h73c20.667 0 38.334 -7.33301 53.001 -22s22 -32.334 22 -53.001s-7.33301 -38.334 -22 -53.001
s-32.334 -22 -53.001 -22h-55h-130h-73c-20.667 0 -38.334 7.33301 -53.001 22s-22 32.334 -22 53.001v3v3v3v58v109v117v16v129v98v38c0 20.667 7.33301 38.334 22 53.001s32.334 22 53.001 22h74h95h89c20.667 0 38.334 -7.33301 53.001 -22s22 -32.334 22 -53.001
s-7.33301 -38.334 -22 -53.001s-32.334 -22 -53.001 -22h-84c-13.333 0.666992 -26.833 0.833984 -40.5 0.500977s-27.167 -0.5 -40.5 -0.5h-18v-95zM231 760.003c-7.33301 4 -12 10.3311 -14 18.998c-2 4.66699 -2 10 0 16c0.666992 1.33301 1.16699 2.5 1.5 3.5
s0.833008 2.16699 1.5 3.5c0 0.666992 0.333008 1.33398 1 2.00098l19.5 44c6.33301 14.667 12.5 29.667 18.5 45c1.33301 3.33301 4 6.16602 8 8.49902s7.66699 4.16602 11 5.49902c8 2 15.667 1 23 -3s12 -10.333 14 -19c2 -5.33301 2 -10.666 0 -15.999
c-0.666992 -1.33301 -1.16699 -2.5 -1.5 -3.5s-0.833008 -2.16699 -1.5 -3.5v-2l-19.5 -44.5l-19.5 -44.5c-1.33301 -3.33301 -4 -6.16602 -8 -8.49902s-7.66699 -4.16602 -11 -5.49902c-8 -2 -15.667 -1 -23 3z" />
    <glyph glyph-name="Ecircumflex" unicode="&#xca;" horiz-adv-x="468" 
d="M200 479v-35.9971h109h74c20 0 37.5 -7.33301 52.5 -22s22.5 -32.334 22.5 -53.001s-7.5 -38.334 -22.5 -53.001s-32.5 -22 -52.5 -22h-55h-128v-76v-67h109h74c20 0 37.5 -7.33301 52.5 -22s22.5 -32.334 22.5 -53.001s-7.5 -38.334 -22.5 -53.001s-32.5 -22 -52.5 -22
h-55h-130h-73c-20.667 0 -38.334 7.33301 -53.001 22s-22 32.334 -22 53.001v3v3v3v58v109v133v129v98v38c0 20.667 7.33301 38.334 22 53.001s32.334 22 53.001 22h73h95h90c20 0 37.5 -7.33301 52.5 -22s22.5 -32.334 22.5 -53.001s-7.5 -38.334 -22.5 -53.001
s-32.5 -22 -52.5 -22h-84c-13.333 0.666992 -26.833 0.833984 -40.5 0.500977s-27.167 -0.5 -40.5 -0.5h-18v-95zM275 902.003c3.33301 -3.33301 6.66602 -6.5 9.99902 -9.5s6.66602 -6.16699 9.99902 -9.5l37 -34.5l37 -35.5c6 -5.33301 9 -12.333 9 -21s-3 -16 -9 -22
s-13.167 -8.83301 -21.5 -8.5s-15.5 3.16602 -21.5 8.49902c-3.33301 3.33301 -6.66602 6.5 -9.99902 9.5s-6.66602 6.16699 -9.99902 9.5c-9.33301 8 -18.166 16.167 -26.499 24.5l-25.5 24.5l-37 -34l-36 -34c-6 -5.33301 -13.167 -8.16602 -21.5 -8.49902
s-15.5 2.5 -21.5 8.5c-5.33301 6 -8.16602 13.333 -8.49902 22s2.5 15.667 8.5 21c3.33301 3.33301 6.66602 6.5 9.99902 9.5s6.66602 6.16699 9.99902 9.5c12.667 11.333 25 23 37 35s24.333 23.667 37 35c6 6 13.333 9 22 9c8 0 15 -3 21 -9z" />
    <glyph glyph-name="Edieresis" unicode="&#xcb;" horiz-adv-x="468" 
d="M200 479v-35.9971h109h74c20.667 0 38.334 -7.33301 53.001 -22s22 -32.334 22 -53.001s-7.33301 -38.334 -22 -53.001s-32.334 -22 -53.001 -22h-55h-128v-76v-67h109h74c20.667 0 38.334 -7.33301 53.001 -22s22 -32.334 22 -53.001s-7.33301 -38.334 -22 -53.001
s-32.334 -22 -53.001 -22h-55h-130h-73c-20.667 0 -38.334 7.33301 -53.001 22s-22 32.334 -22 53.001v3v3v3v58v109v117v16v129v98v38c0 20.667 7.33301 38.334 22 53.001s32.334 22 53.001 22h74h94h90c20.667 0 38.334 -7.33301 53.001 -22s22 -32.334 22 -53.001
s-7.33301 -38.334 -22 -53.001s-32.334 -22 -53.001 -22h-84c-13.333 0.666992 -26.833 0.833984 -40.5 0.500977s-27.167 -0.5 -40.5 -0.5h-18v-95zM147 839.003c0 8.66699 3 16 9 22s13 9 21 9c8.66699 0 16 -3 22 -9s9 -13.333 9 -22s-3 -16 -9 -22s-13.333 -9 -22 -9
c-8 0 -15 3 -21 9s-9 13.333 -9 22zM330 870.003c8.66699 0 16 -3 22 -9s9 -13.333 9 -22s-3 -16 -9 -22s-13.333 -9 -22 -9s-15.834 3 -21.501 9s-8.5 13.333 -8.5 22s2.83301 16 8.5 22s12.834 9 21.501 9z" />
    <glyph glyph-name="Igrave" unicode="&#xcc;" horiz-adv-x="210" 
d="M125 -4c-20.667 0 -38.334 7.33301 -53.001 22s-22 32.334 -22 53.001v6v63v112v133v129v96v39c0 20 7.33301 37.5 22 52.5s32.334 22.5 53.001 22.5s38.334 -7.5 53.001 -22.5s22 -32.5 22 -52.5v-6v-63v-112v-134v-128v-97v-38c0 -20.667 -7.33301 -38.334 -22 -53.001
s-32.334 -22 -53.001 -22zM98 775l-19.5 44.001l-19.5 45c-2.66699 3.33301 -4 8.33301 -4 15c0 3.33301 0.333008 6 1 8c2 8 6.66699 14 14 18c6.66699 4.66699 14.667 6 24 4c3.33301 -1.33301 6.83301 -3.33301 10.5 -6s6.16699 -5.66699 7.5 -9l1 -1l19 -44.5l19 -44.5
c3.33301 -5.33301 5 -10.333 5 -15c-0.666992 -1.33301 -1 -2.83301 -1 -4.5s-0.333008 -3.16699 -1 -4.5c-2 -8 -6.66699 -14 -14 -18s-15 -5 -23 -3c-3.33301 1.33301 -6.83301 3.16602 -10.5 5.49902s-6.16699 5.16602 -7.5 8.49902
c-0.666992 0.666992 -1 1.33398 -1 2.00098z" />
    <glyph glyph-name="Iacute" unicode="&#xcd;" horiz-adv-x="210" 
d="M125 -4c-20.667 0 -38.334 7.33301 -53.001 22s-22 32.334 -22 53.001v6v63v112v133v129v96v39c0 20 7.33301 37.5 22 52.5s32.334 22.5 53.001 22.5s38.334 -7.5 53.001 -22.5s22 -32.5 22 -52.5v-6v-63v-112v-134v-128v-97v-38c0 -20.667 -7.33301 -38.334 -22 -53.001
s-32.334 -22 -53.001 -22zM109 758c-7.33301 4 -12 10.3369 -14 19.0039c-1.33301 5.33301 -1.33301 10.666 0 15.999c0.666992 1.33301 1.16699 2.5 1.5 3.5s0.833008 2.16699 1.5 3.5c0.666992 0.666992 1 1.33398 1 2.00098l19.5 44.5l19.5 44.5
c1.33301 3.33301 3.83301 6.16602 7.5 8.49902s7.16699 4.16602 10.5 5.49902c8.66699 2 16.667 1 24 -3s12 -10.333 14 -19c0.666992 -4.66699 0.666992 -10 0 -16c-0.666992 -1.33301 -1.16699 -2.5 -1.5 -3.5s-0.833008 -2.16699 -1.5 -3.5
c-0.666992 -0.666992 -1 -1.33398 -1 -2.00098l-19.5 -44l-19.5 -45c-3.33301 -6.66699 -9.33301 -11.334 -18 -14.001c-8.66699 -2 -16.667 -1 -24 3z" />
    <glyph glyph-name="Icircumflex" unicode="&#xce;" horiz-adv-x="310" 
d="M250 71c0 -20.667 -7.33301 -38.334 -22 -53.001s-32.334 -22 -53.001 -22s-38.334 7.33301 -53.001 22s-22 32.334 -22 53.001v6v63v112v133v129v96v39c0 20 7.33301 37.5 22 52.5s32.334 22.5 53.001 22.5s38.334 -7.5 53.001 -22.5s22 -32.5 22 -52.5v-6v-63v-112
v-134v-128v-97v-38zM103 768c-6 -5.33301 -13.167 -8.16602 -21.5 -8.49902s-15.5 2.5 -21.5 8.5s-9.16699 13.333 -9.5 22s2.83398 16 9.50098 22c3.33301 3.33301 6.66602 6.33301 9.99902 9s6.66602 5.66699 9.99902 9l36.5 35.5l36.5 34.5c6.66699 6 14 9 22 9
c8.66699 0 16 -3 22 -9c3.33301 -3.33301 6.66602 -6.5 9.99902 -9.5s6.66602 -6.16699 9.99902 -9.5l36.5 -34.5l37.5 -34.5c6 -6 8.83301 -13.333 8.5 -22s-3.16602 -16 -8.49902 -22c-6 -6 -13.333 -8.83301 -22 -8.5s-16 3.16602 -22 8.49902
c-3.33301 3.33301 -6.66602 6.5 -9.99902 9.5s-6.66602 6.16699 -9.99902 9.5l-26 24.5l-26 24.5l-36 -34z" />
    <glyph glyph-name="Idieresis" unicode="&#xcf;" horiz-adv-x="275" 
d="M82 649c0 20 7.5 37.5 22.5 52.5s32.833 22.5 53.5 22.5c20 0 37.5 -7.5 52.5 -22.5s22.5 -32.5 22.5 -52.5v-6v-63v-112v-134v-128v-97v-38c0 -20.667 -7.5 -38.334 -22.5 -53.001s-32.5 -22 -52.5 -22c-20.667 0 -38.5 7.33301 -53.5 22s-22.5 32.334 -22.5 53.001v6
v63v112v133v129v96v39zM81 807c-8.66699 0 -16 3 -22 9s-9 13 -9 21c0 8.66699 3 16 9 22s13.333 9 22 9s16 -3 22 -9s9 -13.333 9 -22c0 -8 -3 -15 -9 -21s-13.333 -9 -22 -9zM234 807c-8.66699 0 -16 3 -22 9s-9 13 -9 21c0 8.66699 3 16 9 22s13.333 9 22 9s16 -3 22 -9
s9 -13.333 9 -22c0 -8 -3 -15 -9 -21s-13.333 -9 -22 -9z" />
    <glyph glyph-name="Eth" unicode="&#xd0;" horiz-adv-x="595" 
d="M585 244l0.000976562 -25.0029v-15c-1.33301 -7.33301 -2.33301 -14.333 -3 -21s-2 -13.667 -4 -21c-4 -14 -9 -26.667 -15 -38c-1.33301 -3.33301 -2.83301 -6.66602 -4.5 -9.99902s-3.5 -6.66602 -5.5 -9.99902c-3.33301 -5.33301 -7.16602 -10.666 -11.499 -15.999
l-13.5 -16c-2 -3.33301 -4.33301 -6.16602 -7 -8.49902s-5.33398 -4.83301 -8.00098 -7.5c-8 -6.66699 -16.333 -13 -25 -19s-17.667 -11 -27 -15c-6.66699 -3.33301 -13 -6.16602 -19 -8.49902s-12.667 -4.5 -20 -6.5c-12.667 -2.66699 -26.334 -4.66699 -41.001 -6
c-7.33301 -1.33301 -14.333 -1.83301 -21 -1.5s-13.667 0.5 -21 0.5h-100c-20.667 0 -38.334 7.33301 -53.001 22s-22 32.334 -22 53.001v5v63v111v38h-39c-20.667 0 -38.334 7.33301 -53.001 22s-22 32 -22 52c0 20.667 7.33301 38.334 22 53.001s32.334 22 53.001 22h11
h28v73v97v38c0 20 7.33301 37.333 22 52s32.334 22 53.001 22h32h64c6.66699 0 13.167 0.166992 19.5 0.5s12.833 0.166016 19.5 -0.500977l21 -2c6.66699 -0.666992 13.667 -1.66699 21 -3c9.33301 -2 16.666 -4.33301 21.999 -7c6.66699 -2.66699 13 -5.33398 19 -8.00098
s12 -5.66699 18 -9s11.667 -7 17 -11l16 -12c16 -13.333 29.667 -29 41 -47c2.66699 -3.33301 4.83398 -6.5 6.50098 -9.5l5.5 -9.5c6 -11.333 11 -24 15 -38c1.33301 -3.33301 2.33301 -6.83301 3 -10.5l2 -11.5c1.33301 -6.66699 2.33301 -13.334 3 -20.001
s1 -13.334 1 -20.001v-21v-113v-127zM343.001 148.997l16.5 0.000976562c5.66699 0 11.167 0.333008 16.5 1c3.33301 0.666992 6.33301 1.16699 9 1.5s5.66699 1.16602 9 2.49902l15 9c2.66699 2 5 4.16699 7 6.5s4 4.5 6 6.5c1.33301 2.66699 2.83301 5.16699 4.5 7.5
s3.16699 5.16602 4.5 8.49902s2.33301 6.16602 3 8.49902s1.33398 5.16602 2.00098 8.49902v6c0.666992 11.333 0.833984 22.333 0.500977 33s-0.5 21.667 -0.5 33v90v103c0 6.66699 0.166992 13.334 0.5 20.001s0.166016 13.334 -0.500977 20.001
c-0.666992 3.33301 -1.33398 6.33301 -2.00098 9s-1.66699 5.66699 -3 9l-9 15c-4 4.66699 -8.33301 9 -13 13l-15 9c-3.33301 1.33301 -6.33301 2.33301 -9 3s-5.66699 1.33398 -9 2.00098c-6 0.666992 -12.167 0.833984 -18.5 0.500977s-12.5 -0.5 -18.5 -0.5h-26v-105
v-28h12c20.667 0 38.334 -7.33301 53.001 -22s22 -32.334 22 -53.001c0 -20 -7.33301 -37.333 -22 -52s-32.334 -22 -53.001 -22h-12v-83v-60h30z" />
    <glyph glyph-name="Ntilde" unicode="&#xd1;" horiz-adv-x="613" 
d="M273 309l-37.002 51.5l-36 51.5v-72v-129v-98v-38c0 -20.667 -7.33301 -38.334 -22 -53.001s-32.334 -22 -53.001 -22s-38.334 7.33301 -53.001 22s-22 32.334 -22 53.001v4v61v110v134v129v97v38c0 17.333 5.16699 32.666 15.5 45.999s23.5 22.333 39.5 27
c20.667 5.33301 40 2.66602 58 -8.00098c12 -7.33301 21 -16.333 27 -27l4.5 -6.5l5.5 -7.5l20 -29c6.66699 -10 13.667 -19.667 21 -29l31.5 -45.5l32.5 -45.5l75 -108l36 -51.5l37 -51.5v70v129v98v38c0 20.667 7.33301 38.334 22 53.001s32.334 22 53.001 22
s38.334 -7.33301 53.001 -22s22 -32.334 22 -53.001v-3v-60v-110v-133v-129v-98v-38c0 -17.333 -5.16699 -32.666 -15.5 -45.999s-23.5 -22.333 -39.5 -27c-20.667 -5.33301 -40 -2.66602 -58 8.00098c-11.333 6.66699 -20.333 15.667 -27 27c-1.33301 2 -3 4.16699 -5 6.5
s-3.66699 4.83301 -5 7.5c-7.33301 9.33301 -14.166 19 -20.499 29s-13.166 19.667 -20.499 29l-32 45.5l-32 45.5zM190.998 800c0 4 0.166016 7.99512 0.499023 11.9951s0.833008 8 1.5 12c5.33301 20.667 17 37.334 35 50.001c9.33301 6 19.333 9.83301 30 11.5
s21.667 1.5 33 -0.5c8.66699 -1.33301 16.667 -4.5 24 -9.5s14.333 -10.167 21 -15.5c4.66699 -3.33301 8.83398 -7 12.501 -11s7.83398 -7.66699 12.501 -11c1.33301 -1.33301 2.66602 -2.33301 3.99902 -3s2.66602 -1.66699 3.99902 -3c2 0 3.66699 -0.333008 5 -1h5
c1.33301 0.666992 2.5 1 3.5 1s2.16699 0.333008 3.5 1c2.66699 1.33301 4.33398 2.33301 5.00098 3l5 5c0.666992 0.666992 1.66699 2.33398 3 5.00098c0.666992 1.33301 1 2.5 1 3.5s0.333008 2.16699 1 3.5v3c0 8.66699 3 16 9 22s13 9 21 9c8.66699 0 16 -3 22 -9
s9 -13.333 9 -22c0 -3.33301 -0.166992 -6.5 -0.5 -9.5s-0.833008 -6.16699 -1.5 -9.5c-4.66699 -21.333 -16.667 -39 -36 -53c-4 -2.66699 -8.33301 -5 -13 -7s-9.33398 -3.66699 -14.001 -5c-6 -1.33301 -12 -2.16602 -18 -2.49902s-12 0.166992 -18 1.5
c-15.333 2.66699 -28 8.83398 -38 18.501s-20.333 19.167 -31 28.5c-1.33301 1.33301 -3 2.33301 -5 3s-3.66699 1.66699 -5 3c-1.33301 0 -2.33301 0.166992 -3 0.5s-1.66699 0.5 -3 0.5h-6c-1.33301 0 -2.33301 -0.166992 -3 -0.5s-1.66699 -0.5 -3 -0.5
c-1.33301 -1.33301 -2.66602 -2 -3.99902 -2c-1.33301 -1.33301 -2.33301 -2.66602 -3 -3.99902c-0.666992 -0.666992 -1.16699 -1.33398 -1.5 -2.00098s-0.833008 -1.33398 -1.5 -2.00098c-0.666992 -1.33301 -1 -2.66602 -1 -3.99902s-0.333008 -2.66602 -1 -3.99902v-6
c0 -8 -3 -15 -9 -21s-13.333 -9 -22 -9c-8 0 -15 3 -21 9s-9 13 -9 21z" />
    <glyph glyph-name="Ograve" unicode="&#xd2;" horiz-adv-x="505" 
d="M385 30c-6 -3.33301 -12.165 -6.32715 -18.498 -8.99414l-19.5 -8c-10 -4.66699 -20.333 -7.83398 -31 -9.50098s-21.334 -2.83398 -32.001 -3.50098c-8 -1.33301 -16 -1.33301 -24 0c-15.333 1.33301 -29.333 3.33301 -42 6c-9.33301 2 -16.666 4.33301 -21.999 7
c-6.66699 2.66699 -13 5.33398 -19 8.00098s-12 5.66699 -18 9s-11.667 7.16602 -17 11.499l-16 12.5c-3.33301 2.66699 -6.16602 5.16699 -8.49902 7.5l-7.5 7.5l-13.5 16c-4.33301 5.33301 -8.16602 11 -11.499 17c-2 3.33301 -4 6.5 -6 9.5s-3.66699 6.16699 -5 9.5
c-4.66699 10 -8.83398 19.833 -12.501 29.5s-6.16699 20.167 -7.5 31.5c-1.33301 7.33301 -2.33301 14.166 -3 20.499s-1 13.166 -1 20.499v82v132v80c0 7.33301 0.333008 14.5 1 21.5s1.66699 14.167 3 21.5c1.33301 10.667 4 21.167 8 31.5s8.33301 20.166 13 29.499
l5.5 9.5c1.66699 3 3.83398 6.16699 6.50098 9.5c3.33301 5.33301 7.16602 10.666 11.499 15.999l13.5 16l7.5 7.5c2.33301 2.33301 5.16602 4.83301 8.49902 7.5l16 12c5.33301 4 11 7.66699 17 11s12.167 6.33301 18.5 9l19.5 8c5.33301 2.66699 12.666 5 21.999 7
c12.667 2.66699 26.667 4.66699 42 6h12c4 0 7.66699 -0.333008 11 -1c15.333 -1.33301 29.333 -3.33301 42 -6c7.33301 -2 14 -4.16699 20 -6.5s12.333 -5.16602 19 -8.49902c9.33301 -4 18.333 -9 27 -15s17 -12.333 25 -19c15.333 -12.667 29 -28.667 41 -48
c4 -6 7.66699 -12.333 11 -19s6.16602 -13 8.49902 -19s4.5 -12.667 6.5 -20c2 -6.66699 3.5 -13.334 4.5 -20.001s1.83301 -13.667 2.5 -21c0.666992 -3.33301 1.16699 -6.33301 1.5 -9s0.5 -5.66699 0.5 -9v-6v-95v-130v-66c0 -3.33301 -0.166992 -6.33301 -0.5 -9
s-0.5 -5.66699 -0.5 -9c-1.33301 -6 -2.33301 -12 -3 -18s-1.66699 -12 -3 -18c-2 -8.66699 -4.66699 -17 -8 -25l-10 -24c-7.33301 -14 -17 -28 -29 -42c-7.33301 -9.33301 -15 -17 -23 -23c-5.33301 -4.66699 -10.833 -9 -16.5 -13s-11.167 -7.66699 -16.5 -11z
M330.002 177.006c1.33301 2.66699 2.83496 5.33398 4.50195 8.00098s3.16699 5.33398 4.5 8.00098c2.66699 7.33301 4.33398 13.666 5.00098 18.999c0.666992 2 1 5.33301 1 10v11v102v129v43v10.5c0 3.66699 -0.333008 7.16699 -1 10.5s-1.33398 6.33301 -2.00098 9
s-1.66699 5.66699 -3 9c-1.33301 2.66699 -2.83301 5.33398 -4.5 8.00098s-3.16699 5.33398 -4.5 8.00098c-2 2.66699 -4.16699 5 -6.5 7s-4.5 4 -6.5 6c-6 4 -11.667 7.33301 -17 10c-3.33301 1.33301 -6.33301 2.16602 -9 2.49902s-5.66699 1.16602 -9 2.49902h-20
c-3.33301 -1.33301 -6.33301 -2.16602 -9 -2.49902s-5.66699 -1.16602 -9 -2.49902c-6 -3.33301 -11.333 -6.66602 -16 -9.99902c-4.66699 -4 -9 -8.33301 -13 -13c-2 -2.66699 -3.83301 -5.33398 -5.5 -8.00098s-3.16699 -5.33398 -4.5 -8.00098
c-1.33301 -3.33301 -2.33301 -6.33301 -3 -9s-1.33398 -5.66699 -2.00098 -9v-20v-103v-129v-42v-23c0.666992 -3.33301 1.33398 -6.33301 2.00098 -9s1.66699 -5.66699 3 -9c1.33301 -2.66699 2.83301 -5.33398 4.5 -8.00098s3.5 -5.33398 5.5 -8.00098
c2 -2 4 -4.16699 6 -6.5s4.33301 -4.5 7 -6.5c2.66699 -1.33301 5.16699 -2.83301 7.5 -4.5s5.16602 -3.16699 8.49902 -4.5s6.33301 -2.33301 9 -3s5.66699 -1.33398 9 -2.00098c6.66699 -0.666992 13.334 -0.666992 20.001 0c3.33301 0.666992 6.33301 1.33398 9 2.00098
s5.66699 1.66699 9 3s6.16602 2.83301 8.49902 4.5s5.16602 3.16699 8.49902 4.5zM251.004 950.006c0 -0.666992 0.333008 -1.33691 1 -2.00391l19.5 -44.5l19.5 -44.5c2.66699 -5.33301 4 -10.333 4 -15c-0.666992 -2 -1 -4.66699 -1 -8c-3.33301 -8.66699 -8 -15 -14 -19
c-8 -4 -16 -5 -24 -3c-8.66699 2.66699 -14.667 7.33398 -18 14.001c-0.666992 0.666992 -1 1.33398 -1 2.00098l-19.5 44.5l-19.5 44.5c-2.66699 4.66699 -4 9.66699 -4 15c0 1.33301 0.166992 2.83301 0.5 4.5s0.5 3.16699 0.5 4.5c2 8 6.66699 14 14 18s15.333 5 24 3
c3.33301 -1.33301 6.83301 -3.16602 10.5 -5.49902s6.16699 -5.16602 7.5 -8.49902z" />
    </font>
</defs>
</svg>
